#N struct 1003-DS float x float y symbol sym;
#N canvas 385 30 587 533 12;
#X declare -path else;
#N canvas 440 205 535 580 template 0;
#X obj 57 348 filledpolygon 999 0 5 5 5 105 5 105 55 5 55;
#X text 194 231 The instruction is to draw the "sym" variable in the
20/25 coordinates., f 36;
#X text 60 297 We also have a [filledpolygon] as a frame around the
symbol., f 31;
#X obj 38 238 drawsymbol sym 20 25;
#X obj 291 423 drawnumber x 115 10 900 x=;
#X obj 290 456 drawnumber y 115 25 900 y=;
#X text 80 423 For last \, we also draw and display the coordinates
of the Data Structure., f 26;
#X obj 66 98 struct \$0-DS float x float y symbol sym;
#X text 64 33 Data Structure named "\$0-DS" holding coordinates floats
"x/y" and a symbol named "sym"., f 37;
#X text 111 512 You may drag the object around in the edit mode and
see how the coordinates get updated., f 45;
#X text 43 144 We now use the [drawsymbol] object \, which is actually
the same as [dranumber]. There is literal no difference \, it is really
the same object. Maybe in the future they will become actual different
objects \, but so far is just an alias., f 57;
#X restore 303 202 pd template;
#X symbolatom 54 346 10 0 0 0 - - -;
#X msg 54 280 symbol banana;
#X msg 62 315 symbol apple;
#X obj 307 319 pointer;
#X obj 197 186 loadbang;
#X msg 197 215 50 50;
#X text 64 68 This example shows how to add and set a symbol variable.
See [pd template] for the declaration and drawing instructions.;
#X text 84 432 When setting a symbol with [set] \, you need an extra
"-symbol" argument. Unfortunately \, you cannot set floats and symbols
with the same [set] object., f 62;
#X text 47 246 set symbol:;
#X obj 54 377 set -symbol \$0-DS sym;
#X obj 198 347 append \$0-DS x y;
#X text 65 107 We use [append] to add our Data Structure object in
[pd display]. Note that you cannot set the symbol variable with [append]
when adding the object. We need to use the [set] object for that.,
f 65;
#N canvas 1048 133 358 171 \$0-display 1;
#X scalar 1003-DS 50 50 symbol \;;
#X restore 393 202 pd \$0-display;
#X obj 418 310 s pd-\$0-display;
#X msg 418 284 clear \, vis 1;
#X obj 197 246 trigger2 list pd-\$0-display bang;
#X msg 307 276 traverse \$1 \, bang, f 12;
#X obj 371 24 declare -path else;
#X connect 1 0 10 0;
#X connect 2 0 1 0;
#X connect 3 0 1 0;
#X connect 4 0 11 2;
#X connect 5 0 6 0;
#X connect 6 0 16 0;
#X connect 11 0 10 1;
#X connect 15 0 14 0;
#X connect 16 0 11 0;
#X connect 16 1 17 0;
#X connect 16 2 15 0;
#X connect 17 0 4 0;
