#N canvas 363 45 846 638 12;
#X declare -path else;
#X obj 119 523 *~;
#X obj 119 557 out~;
#X obj 641 32 declare -path else;
#X obj 137 445 impseq~ 1 0.5 0.25 0 1 0.25 1 0 0.5;
#X obj 65 457 brown~;
#X obj 168 188 impseq~;
#X obj 168 156 bng 18 250 50 0 empty empty empty 17 7 0 10 #dcdcdc #000000 #000000;
#X obj 168 226 out~;
#X obj 290 156 bng 18 250 50 0 empty empty empty 17 7 0 10 #dcdcdc #000000 #000000;
#X obj 290 226 out~;
#X obj 290 188 impseq~ 1 0.5 0.25 0;
#X obj 137 407 tempo~ -on 120 10;
#X obj 484 403 else/knob 50 0 1 0 0 empty empty #dfdfdf #7c7c7c black 1 0 0 0 1 360 0 0 0 empty empty 0 8 0 0 0 0 0 0;
#X obj 587 412 bng 19 250 50 0 empty empty empty 0 -8 0 10 #dfdfdf #000000 #000000;
#X floatatom 484 467 7 0 0 0 - - - 12;
#X obj 569 335 phaseseq~ 0.2 0.3 0.5 0.7 0.9, f 15;
#X obj 587 387 trig2bang~;
#X obj 569 457 resonant~ 600 1200, f 9;
#X obj 692 457 resonant~ 1100 500, f 9;
#X obj 484 370 s2f~ 100;
#X obj 605 526 out~;
#X obj 569 272 pimp~ 0.4, f 18;
#X text 484 75 Another sequencer that generates impulses is [phaseseq~] \, but it only generates impulse values of 1! It is driven by a [phasor~] (or [pimp~] for that matter)., f 44;
#X text 483 163 The impulses are generated via given phase thresholds. Below we have these thresholds specified as arguments and [pimp~] driving it. You can use this to create some rhythmic patterns., f 44;
#X text 20 19 The [impseq~] object is a sequencer of impulses. It takes a list of impulse values and outputs them when receiving a trigger \, which ccan be either a bang or a signal trigger (a 0 to non-0 transition). By default \, the sequence is "1" \, so below to the left we just have a conversion from a bang to an impulse (just like we can do with [float2imp~] by the way). To the right we have a sequence of impulse values \, note that a "0" is like a rest., f 58;
#X obj 48 156 bng 18 250 50 0 empty empty empty 17 7 0 10 #dcdcdc #000000 #000000;
#X obj 48 226 out~;
#X obj 48 188 float2imp~;
#X obj 137 486 asr~ 50 2000;
#X text 30 311 Normally \, [impseq~] is used for setting different intensity values (or dynamics). For instance \, below we have [impseq~] controlling different intensity values for the [asr~] object., f 49;
#X connect 0 0 1 0;
#X connect 3 0 28 0;
#X connect 4 0 0 0;
#X connect 5 0 7 0;
#X connect 6 0 5 0;
#X connect 8 0 10 0;
#X connect 10 0 9 0;
#X connect 11 0 3 0;
#X connect 12 0 14 0;
#X connect 15 0 16 0;
#X connect 15 0 17 0;
#X connect 16 0 13 0;
#X connect 17 0 20 0;
#X connect 18 0 20 1;
#X connect 19 0 12 0;
#X connect 21 0 15 0;
#X connect 21 0 19 0;
#X connect 21 1 18 0;
#X connect 25 0 27 0;
#X connect 27 0 26 0;
#X connect 28 0 0 1;
