#N canvas 819 23 954 732 12;
#X declare -path else;
#X obj 587 159 bng 20 250 50 0 empty empty empty 17 7 0 10 -228856
-1 -1;
#X obj 534 194 adc~ 1;
#X obj 139 194 bng 20 250 50 0 empty empty empty 17 7 0 10 -228856
-1 -1;
#X obj 139 236 savepanel;
#X msg 114 158 stop;
#X obj 716 648 soundfiler;
#X obj 716 549 bng 15 250 50 0 empty empty empty 17 7 0 10 -228856
-1 -1;
#X obj 716 571 savepanel;
#X obj 587 288 tabwrite~ \$0-sample;
#X msg 626 254 stop;
#X msg 605 224 start \$1;
#X obj 605 202 nbx 6 14 0 1e+37 0 0 empty empty empty 0 -8 0 10 -228856
-1 -1 0 256;
#X msg 716 623 write \$1 \$2;
#X obj 716 597 list append \$0-sample;
#X obj 766 294 send \$0-sample;
#X floatatom 766 245 0 0 0 0 - - -;
#X obj 766 171 nbx 5 14 100 1e+37 0 0 empty empty empty 0 -8 0 10 -228856
-1 -1 100 256;
#X msg 766 269 resize \$1;
#X obj 779 220 s size;
#X obj 766 194 ms2samps;
#X text 536 159 Record;
#X text 760 151 set array size;
#X text 823 169 in ms;
#X text 606 184 index to record;
#X text 736 547 <= choose where to save;
#X obj 73 632 out~;
#X obj 114 378 writesf~ 2;
#X msg 139 262 open \$1 \, start;
#X text 158 158 <= stop recording;
#X obj 166 303 standard~ 700;
#X obj 181 339 cusp~ 900;
#X text 272 302 left input;
#X text 255 339 right input;
#X obj 96 590 readsf~ 2;
#X text 168 193 <= choose where to record and filename, f 20;
#X obj 125 493 bng 20 250 50 0 empty empty empty 17 7 0 10 -228856
-1 -1;
#X msg 125 555 open \$1 \, start;
#X obj 125 529 openpanel;
#X text 154 492 <= choose file to play;
#X text 554 85 You can use the native [tabwrite~] object to record
to arrays. Check its help file., f 42;
#X text 45 29 This example focuses on vanilla objects. Similarly to
[readsf~] \, the native [writesf~] object records directly to your
hard drive. The native [tabwrite~] object records into an array - check
their help files for more information., f 65;
#X text 442 187 record from mic input, f 11;
#X obj 471 541 bng 20 250 50 0 empty empty empty 17 7 0 10 -228856
-1 -1;
#X obj 471 576 tabplay~ \$0-sample;
#X obj 471 610 out~;
#X text 503 541 Play the recording.;
#X text 280 118 <= record to the same folder;
#X text 546 471 You can also export/save an array into a sound file
with the [soundfiler] object., f 42;
#X obj 599 415 table \$0-sample 88200;
#X text 562 351 The array to record to is defined in the table object
below. You can then use [tabplay~] to play it., f 35;
#X msg 82 119 open ./rec-test.wav \, start;
#X msg 96 456 open ./rec-test.wav \, start;
#X text 288 455 <= read recording from folder;
#X obj 727 34 declare -path else;
#X obj 438 297 setdsp~ 1;
#X connect 0 0 8 0;
#X connect 1 0 8 0;
#X connect 2 0 3 0;
#X connect 3 0 27 0;
#X connect 4 0 26 0;
#X connect 6 0 7 0;
#X connect 7 0 13 0;
#X connect 9 0 8 0;
#X connect 10 0 8 0;
#X connect 11 0 10 0;
#X connect 12 0 5 0;
#X connect 13 0 12 0;
#X connect 15 0 17 0;
#X connect 16 0 19 0;
#X connect 17 0 14 0;
#X connect 19 0 15 0;
#X connect 19 0 18 0;
#X connect 27 0 26 0;
#X connect 29 0 26 0;
#X connect 30 0 26 1;
#X connect 33 0 25 0;
#X connect 33 1 25 1;
#X connect 35 0 37 0;
#X connect 36 0 33 0;
#X connect 37 0 36 0;
#X connect 42 0 43 0;
#X connect 43 0 44 0;
#X connect 50 0 26 0;
#X connect 51 0 33 0;
