#N canvas 895 272 673 310 10;
#X obj 185 120 makefilename %g;
#X obj 185 255 outlet;
#X obj 54 48 inlet;
#X obj 316 120 symbol bang;
#X obj 54 87 else/routetype symbol float bang, f 66;
#N canvas 1115 600 425 425 list-any 0;
#X obj 60 49 inlet;
#X obj 172 333 outlet;
#X obj 60 98 trigger bang list bang;
#N canvas 215 37 290 314 drip 0;
#X obj 130 194 route float symbol;
#X obj 130 224 makefilename %g;
#X obj 130 166 list split 1;
#X obj 130 140 list;
#X obj 52 112 until;
#X obj 52 61 trigger list list;
#X obj 52 86 list length;
#X obj 130 250 outlet;
#X obj 52 33 inlet;
#X connect 0 0 1 0;
#X connect 0 1 7 0;
#X connect 1 0 7 0;
#X connect 2 0 0 0;
#X connect 2 1 3 1;
#X connect 3 0 2 0;
#X connect 4 0 3 0;
#X connect 5 0 6 0;
#X connect 5 1 3 1;
#X connect 6 0 4 0;
#X connect 8 0 5 0;
#X restore 124 124 pd drip;
#X obj 193 187 list prepend;
#X obj 172 247 list;
#X obj 262 155 list append 32;
#X obj 172 305 list tosymbol;
#X obj 124 153 list fromsymbol;
#X obj 60 72 list;
#X connect 0 0 9 0;
#X connect 2 0 5 0;
#X connect 2 1 3 0;
#X connect 2 2 4 1;
#X connect 3 0 8 0;
#X connect 4 0 5 1;
#X connect 4 0 6 0;
#X connect 5 0 7 0;
#X connect 6 0 4 1;
#X connect 7 0 1 0;
#X connect 8 0 4 0;
#X connect 9 0 2 0;
#X restore 447 119 pd list-any;
#X text 372 216 Part of ELSE \; https://github.com/porres/pd-else;
#X text 374 197 Alexandre Torres Porres (2018);
#X connect 0 0 1 0;
#X connect 2 0 4 0;
#X connect 3 0 1 0;
#X connect 4 0 1 0;
#X connect 4 1 0 0;
#X connect 4 2 3 0;
#X connect 4 3 5 0;
#X connect 5 0 1 0;
