#N canvas 794 26 487 407 10;
#X obj 297 199 makefilename %g;
#X obj 206 305 outlet;
#X obj 76 87 list;
#N canvas 328 53 548 522 list 1;
#X msg 332 199 32;
#X msg 332 251 set \$1;
#X obj 332 225 makefilename %%s%c;
#X obj 332 173 loadbang;
#X obj 142 262 symbol;
#X obj 77 203 r \$0-bang;
#X obj 181 225 makefilename %s;
#X obj 271 293 makefilename;
#X msg 270 351 set \$1;
#X obj 270 325 makefilename %s%%s;
#X msg 294 137 set %s;
#X obj 178 68 inlet;
#N canvas 51 25 450 300 split 0;
#X obj 159 105 list;
#X obj 108 105 t b a;
#X obj 144 71 list split 1;
#X obj 225 116 s \$0-bang;
#X obj 143 154 route float symbol;
#X obj 143 189 makefilename %g;
#X obj 142 42 inlet;
#X obj 143 220 outlet;
#X connect 0 0 2 0;
#X connect 1 0 0 0;
#X connect 1 1 4 0;
#X connect 2 0 1 0;
#X connect 2 1 0 1;
#X connect 2 2 3 0;
#X connect 4 0 5 0;
#X connect 4 1 7 0;
#X connect 5 0 7 0;
#X connect 6 0 2 0;
#X restore 178 137 pd split;
#X obj 178 109 trigger list bang;
#X obj 145 427 outlet;
#X connect 0 0 2 0;
#X connect 1 0 7 0;
#X connect 2 0 1 0;
#X connect 3 0 0 0;
#X connect 4 0 14 0;
#X connect 5 0 4 0;
#X connect 6 0 4 1;
#X connect 6 0 7 0;
#X connect 7 0 9 0;
#X connect 8 0 6 0;
#X connect 9 0 8 0;
#X connect 10 0 6 0;
#X connect 11 0 13 0;
#X connect 12 0 6 0;
#X connect 13 0 12 0;
#X connect 13 1 10 0;
#X restore 204 198 pd list;
#X obj 76 53 inlet;
#X obj 155 104 route symbol list float bang;
#X obj 299 149 symbol bang;
#X obj 76 123 t a a;
#X obj 203 168 list;
#X obj 203 136 b;
#X connect 0 0 1 0;
#X connect 2 0 7 0;
#X connect 3 0 1 0;
#X connect 4 0 2 0;
#X connect 5 0 1 0;
#X connect 5 1 9 0;
#X connect 5 2 0 0;
#X connect 5 3 6 0;
#X connect 6 0 1 0;
#X connect 7 0 5 0;
#X connect 7 1 8 1;
#X connect 8 0 3 0;
#X connect 9 0 8 0;
