#N canvas 521 281 482 232 10;
#X obj 60 45 inlet~;
#X obj 112 45 inlet~;
#X obj 165 45 inlet~;
#X obj 112 163 outlet~;
#X obj 112 132 else/brickwall~;
#X obj 271 93 block~ 64 1 16;
#X text 252 141 Part of ELSE \; https://github.com/porres/pd-else;
#X text 254 122 Alexandre Torres Porres (2018);
#X obj 112 102 else/vsaw~;
#X obj 218 45 inlet~;
#X connect 0 0 8 0;
#X connect 1 0 8 1;
#X connect 2 0 8 2;
#X connect 4 0 3 0;
#X connect 8 0 4 0;
#X connect 9 0 8 3;
