#N canvas 312 167 538 383 10;
#X obj 49 15 inlet;
#X text 112 75 Part of ELSE \; https://github.com/porres/pd-else;
#X text 114 56 Alexandre Torres Porres (2018);
#N canvas 448 100 705 805 guts 0;
#X obj 80 17 inlet;
#X obj 117 535 v size_\$0;
#X obj 80 312 change;
#X obj 80 173 route size, f 11;
#X obj 80 203 clip 8 250;
#X obj 140 503 s \$0-set-size;
#X msg 100 271 set \$1;
#X obj 388 729 outlet;
#X obj 415 446 spigot;
#X obj 477 450 == 0;
#X obj 415 355 spigot;
#X obj 388 274 sel 0;
#X msg 388 301 0;
#X obj 388 478 change;
#X obj 477 428 else/canvas.edit;
#X obj 388 242 else/canvas.mouse 2 1;
#X obj 344 87 v on_color_\$0;
#X obj 344 138 v off_color_\$0;
#X msg 344 64 445, f 5;
#X msg 344 113 988;
#X obj 203 112 r \$0-set-size;
#X msg 183 194 20;
#X obj 226 234 clip 8 250;
#X obj 183 138 else/args -;
#X obj 183 163 route bang float -size;
#X obj 264 432 s \$0-cnv;
#X msg 264 404 vis_size \$1 \$1;
#X obj 183 80 else/loadbanger 2;
#X obj 264 375 - 2;
#X obj 73 659 else/canvas.setname \$0-patch 1;
#X obj 253 561 s \$0-patch;
#X obj 449 296 expr $f1 > 0 && $f1 < size_\$0 && $f2 > 0 && $f2 < size_\$0
, f 30;
#X obj 421 583 else/colors -gui;
#X msg 421 555 ds \$1;
#X obj 421 528 expr if($f1 \, on_color_\$0 \, off_color_\$0);
#X msg 421 611 color \$1;
#X obj 421 641 s \$0-cnv;
#X msg 253 473 donecanvasdialog 1 -1 3 0 \$1 \$1 0 \$1 \$1 150 150
\, dirty 0, f 16;
#X obj 70 629 else/canvas.setname \$0-parent 2;
#X obj 59 584 s \$0-parent;
#X msg 53 554 dirty 1;
#X connect 0 0 3 0;
#X connect 2 0 1 0;
#X connect 2 0 5 0;
#X connect 2 0 28 0;
#X connect 2 0 37 0;
#X connect 2 0 40 0;
#X connect 3 0 4 0;
#X connect 4 0 2 0;
#X connect 6 0 2 0;
#X connect 8 0 13 0;
#X connect 9 0 8 1;
#X connect 10 0 8 0;
#X connect 11 0 12 0;
#X connect 11 1 10 0;
#X connect 12 0 13 0;
#X connect 13 0 7 0;
#X connect 13 0 34 0;
#X connect 14 0 9 0;
#X connect 15 0 11 0;
#X connect 15 1 31 0;
#X connect 15 2 31 1;
#X connect 18 0 16 0;
#X connect 19 0 17 0;
#X connect 20 0 23 0;
#X connect 21 0 22 0;
#X connect 22 0 6 0;
#X connect 22 0 5 0;
#X connect 22 0 1 0;
#X connect 22 0 28 0;
#X connect 22 0 37 0;
#X connect 23 0 24 0;
#X connect 24 0 21 0;
#X connect 24 1 22 0;
#X connect 24 2 22 0;
#X connect 26 0 25 0;
#X connect 27 0 23 0;
#X connect 27 1 18 0;
#X connect 27 1 19 0;
#X connect 28 0 26 0;
#X connect 31 0 10 1;
#X connect 32 0 35 0;
#X connect 33 0 32 0;
#X connect 34 0 33 0;
#X connect 35 0 36 0;
#X connect 37 0 30 0;
#X connect 40 0 39 0;
#X restore 49 154 pd guts;
#X obj 49 297 outlet;
#X obj 151 151 cnv 6 18 18 empty \$0-cnv empty 20 12 0 14 -262144 -66577
0;
#X connect 0 0 3 0;
#X connect 3 0 4 0;
#X coords 0 20 20 0 20 20 2 150 150;
