#N canvas 679 256 528 306 12;
#X obj 42 48 inlet~;
#X obj 228 247 outlet~;
#X obj 102 80 else/rampnoise~;
#X obj 295 247 outlet~;
#X obj 218 48 inlet~;
#X obj 281 48 inlet~;
#X text 48 23 in;
#X text 102 23 rate;
#X text 218 23 depth;
#X text 276 23 feedback;
#X obj 102 48 inlet;
#X obj 228 214 else/pan2~;
#X obj 43 174 +~;
#X obj 43 206 delwrite~ \$0-D 200;
#X obj 295 186 expr (\$1+1.)/(\$3+1.) * 2 - 1;
#X obj 295 162 loadbang;
#X obj 228 178 *~;
#X obj 102 109 else/rescale~ 0 0;
#X obj 102 138 delread4~ \$0-D;
#X connect 0 0 12 0;
#X connect 2 0 17 0;
#X connect 4 0 17 2;
#X connect 5 0 16 1;
#X connect 10 0 2 0;
#X connect 11 0 1 0;
#X connect 11 1 3 0;
#X connect 12 0 13 0;
#X connect 14 0 11 1;
#X connect 15 0 14 0;
#X connect 16 0 12 1;
#X connect 16 0 11 0;
#X connect 17 0 18 0;
#X connect 18 0 16 0;
