#N struct 1017-point float x0 float y0 float xs float ys float fg float
in float gridx float gridy;
#N struct 1017-pixel float x float y float color;
#N canvas 681 149 593 582 10;
#N canvas 646 292 641 371 \$0-point 0;
#X obj 340 105 r \$0-grid;
#X obj 37 29 struct \$0-point float x0 float y0 float xs float ys float
fg float in float gridx float gridy, f 93;
#X obj 367 250 r \$0-s-spigot;
#X obj 135 254 r \$0-r-spigot;
#X obj 367 274 == 0;
#X obj 135 278 == 0;
#X obj 179 90 filledcurve -x 0 fg 8 x0 y0 x0 y0 x0 y0, f 20;
#X obj 135 302 drawpolygon -x 0 3 0 in 8 in;
#X obj 367 304 drawpolygon -x 0 3 0 1 7 1;
#X text 313 301 in;
#X text 535 306 out;
#X text 582 142 v;
#X text 564 175 h;
#X text 136 93 point;
#X obj 68 167 drawpolygon -x fg 2 x0 gridx x0 y0;
#X obj 79 144 drawpolygon -x fg 2 gridy y0 x0 y0;
#X text 281 195 polar;
#X text 293 145 x;
#X text 285 166 y;
#X obj 29 84 r \$0-vis;
#X obj 68 120 == 1;
#X obj 29 168 == 2;
#X obj 29 195 drawpolygon -n -x fg 2 gridy gridx x0 y0;
#X obj 358 143 drawpolygon -x fg 1 gridx 0 gridx ys;
#X obj 340 174 drawpolygon -x fg 1 0 gridy xs gridy;
#X connect 0 0 23 0;
#X connect 0 0 24 0;
#X connect 2 0 4 0;
#X connect 3 0 5 0;
#X connect 4 0 8 0;
#X connect 5 0 7 0;
#X connect 19 0 20 0;
#X connect 19 0 21 0;
#X connect 20 0 14 0;
#X connect 20 0 15 0;
#X connect 21 0 22 0;
#X restore 43 155 pd \$0-point;
#X obj 43 10 inlet;
#N canvas 674 118 362 269 init 0;
#X obj 61 28 inlet;
#N canvas 473 254 301 330 args 0;
#X obj 75 31 inlet;
#X obj 99 254 outlet;
#N canvas 831 246 553 357 init 0;
#X obj 127 52 inlet;
#X obj 100 190 v init-x_\$0;
#X obj 182 191 v init-y_\$0;
#X obj 126 86 v init_\$0;
#X obj 125 151 t b b;
#X obj 112 221 pack, f 12;
#X obj 113 261 s \$0-init-coords;
#X obj 306 200 s \$0-coords;
#X obj 125 122 select 1 0, f 31;
#X obj 306 173 list 64 64;
#X obj 361 147 r \$0-set-init-coords;
#X connect 0 0 3 0;
#X connect 1 0 5 0;
#X connect 2 0 5 1;
#X connect 3 0 8 0;
#X connect 4 0 1 0;
#X connect 4 1 2 0;
#X connect 5 0 6 0;
#X connect 8 0 4 0;
#X connect 8 1 9 0;
#X connect 9 0 7 0;
#X connect 10 0 9 1;
#X restore 33 161 pd init;
#N canvas 547 180 391 423 set-size 0;
#X obj 190 132 v width_\$0;
#X obj 68 116 v height_\$0;
#X obj 190 158 t f f;
#X obj 190 188 s \$0-xsize;
#X obj 238 158 s \$0-1st-x;
#X obj 163 39 inlet;
#X obj 163 78 t b b;
#X obj 171 320 s \$0-bg-size;
#X obj 172 228 t b f f;
#X obj 191 277 s \$0-ysize;
#X obj 211 254 s \$0-1st-y;
#X obj 72 229 t f f;
#X obj 95 254 / 2;
#X obj 62 257 / 2;
#X obj 66 295 pack;
#X obj 66 353 s \$0-set-init-coords;
#X connect 0 0 2 0;
#X connect 1 0 8 0;
#X connect 1 0 11 0;
#X connect 2 0 3 0;
#X connect 2 1 4 0;
#X connect 5 0 6 0;
#X connect 6 0 1 0;
#X connect 6 1 0 0;
#X connect 8 0 7 0;
#X connect 8 1 9 0;
#X connect 8 2 10 0;
#X connect 11 0 13 0;
#X connect 11 1 12 0;
#X connect 12 0 14 1;
#X connect 13 0 14 0;
#X connect 14 0 15 0;
#X restore 124 212 pd set-size;
#X obj 149 156 else/args -;
#N canvas 400 95 807 299 setargs 0;
#X obj 124 229 outlet;
#X obj 307 165 r \$0-set-bg;
#X obj 398 158 r \$0-set-fg;
#X obj 575 31 r \$0-set_grid;
#X obj 586 55 r \$0-set_jump;
#X obj 600 77 r \$0-set_init;
#X obj 614 99 r \$0-xcoord;
#X obj 642 121 r \$0-ycoord;
#X obj 660 144 r \$0-set-s-sym;
#X obj 673 169 r \$0-set-r-sym;
#X obj 40 156 r \$0-set_size;
#N canvas 339 37 232 261 xrange 0;
#X obj 73 89 unpack;
#X msg 106 115 set \$1;
#X obj 73 65 r \$0-set-xrange;
#X obj 46 37 r \$0-set-min-x;
#X obj 122 147 r \$0-set-max-x;
#X obj 106 184 outlet;
#X obj 46 184 outlet;
#X connect 0 0 6 0;
#X connect 0 1 1 0;
#X connect 1 0 5 0;
#X connect 2 0 0 0;
#X connect 3 0 6 0;
#X connect 4 0 5 0;
#X restore 130 156 pd xrange;
#N canvas 339 37 232 261 yrange 0;
#X obj 73 89 unpack;
#X msg 106 115 set \$1;
#X obj 106 184 outlet;
#X obj 46 184 outlet;
#X obj 46 37 r \$0-set-min-y;
#X obj 73 65 r \$0-set-yrange;
#X obj 122 147 r \$0-set-max-y;
#X connect 0 0 3 0;
#X connect 0 1 1 0;
#X connect 1 0 2 0;
#X connect 4 0 3 0;
#X connect 5 0 0 0;
#X connect 6 0 2 0;
#X restore 198 156 pd yrange;
#X obj 276 139 r \$0-set_mode;
#X obj 123 195 else/pack2 127 -1 1 -1 1 1 255 255 255 0 0 0 1 0 0 64
64 empty empty, f 92;
#X connect 1 0 14 6;
#X connect 2 0 14 9;
#X connect 3 0 14 12;
#X connect 4 0 14 13;
#X connect 5 0 14 14;
#X connect 6 0 14 15;
#X connect 7 0 14 16;
#X connect 8 0 14 17;
#X connect 9 0 14 18;
#X connect 10 0 14 0;
#X connect 11 0 14 1;
#X connect 11 1 14 2;
#X connect 12 0 14 3;
#X connect 12 1 14 4;
#X connect 13 0 14 5;
#X connect 14 0 0 0;
#X restore 174 122 pd setargs;
#N canvas 661 23 578 304 default 0;
#X obj 256 87 s \$0-default;
#X msg 77 172 127;
#X obj 85 200 v height_\$0;
#X obj 78 226 v width_\$0;
#X obj 77 140 r \$0-default;
#X obj 256 49 inlet;
#X obj 201 140 r \$0-default;
#X obj 337 200 s \$0-jump;
#X obj 337 140 r \$0-default;
#X msg 337 172 0;
#X obj 201 200 s \$0-set-bgcolor;
#X msg 201 172 255 255 255;
#X connect 1 0 2 0;
#X connect 1 0 3 0;
#X connect 4 0 1 0;
#X connect 5 0 0 0;
#X connect 6 0 11 0;
#X connect 8 0 9 0;
#X connect 9 0 7 0;
#X connect 11 0 10 0;
#X restore 174 96 pd default;
#N canvas 366 78 820 443 route 0;
#X obj 106 159 list split 1;
#N canvas 266 118 340 242 line 0;
#X obj 121 61 route float;
#X obj 133 110 s \$0-vis;
#X msg 122 144 set \$1;
#X obj 121 28 inlet;
#X obj 122 166 s \$0-set_mode;
#X connect 0 0 2 0;
#X connect 0 0 1 0;
#X connect 2 0 4 0;
#X connect 3 0 0 0;
#X restore 72 286 pd line;
#X obj 231 103 route -bgcolor -fgcolor, f 8;
#X obj 140 185 list split 3;
#N canvas 254 444 227 216 bg 0;
#X obj 79 106 else/setmess set;
#X obj 79 131 s \$0-set-bg;
#X obj 79 38 inlet;
#X obj 91 73 s \$0-set-bgcolor;
#X connect 0 0 1 0;
#X connect 2 0 0 0;
#X connect 2 0 3 0;
#X restore 231 318 pd bg;
#N canvas 68 23 381 243 fb 0;
#X obj 81 107 else/setmess rgb;
#X obj 81 131 else/colors -ds;
#X obj 81 156 v \$0-fgcolor;
#X obj 197 107 else/setmess set;
#X obj 197 131 s \$0-set-fg;
#X obj 197 37 inlet;
#X connect 0 0 1 0;
#X connect 1 0 2 0;
#X connect 3 0 4 0;
#X connect 5 0 3 0;
#X connect 5 0 0 0;
#X restore 253 276 pd fb;
#X obj 264 226 list split 3;
#N canvas 68 23 450 300 grid 0;
#X obj 110 54 inlet;
#X obj 114 87 route float;
#X msg 115 170 set \$1;
#X obj 114 111 != 0;
#X obj 126 136 s \$0-grid;
#X obj 115 192 s \$0-set_grid;
#X connect 0 0 1 0;
#X connect 1 0 3 0;
#X connect 2 0 5 0;
#X connect 3 0 2 0;
#X connect 3 0 4 0;
#X restore 324 318 pd grid;
#X obj 350 256 list split 1;
#X obj 324 170 route -grid;
#N canvas 68 23 450 300 jump 0;
#X obj 110 54 inlet;
#X obj 114 87 route float;
#X msg 115 170 set \$1;
#X obj 114 111 != 0;
#X obj 126 136 s \$0-jump;
#X obj 115 193 s \$0-set_jump;
#X connect 0 0 1 0;
#X connect 1 0 3 0;
#X connect 2 0 5 0;
#X connect 3 0 2 0;
#X connect 3 0 4 0;
#X restore 439 318 pd jump;
#X obj 439 213 route -jump;
#X obj 61 31 inlet;
#N canvas 229 214 402 359 size 0;
#X obj 196 163 v height_\$0;
#X obj 122 198 v width_\$0;
#X obj 48 73 route list, f 11;
#N canvas 775 472 270 282 size 0;
#X obj 95 38 inlet;
#X obj 95 80 max 18;
#X obj 95 182 v height_\$0;
#X obj 72 213 v width_\$0;
#X msg 116 123 set \$1;
#X obj 116 146 s \$0-set_size;
#X connect 0 0 1 0;
#X connect 1 0 2 0;
#X connect 1 0 3 0;
#X connect 1 0 4 0;
#X connect 4 0 5 0;
#X restore 185 106 pd size;
#X msg 110 225 set \$1;
#X obj 48 29 inlet;
#X obj 82 294 outlet;
#X obj 308 294 outlet;
#X obj 185 73 route -size, f 21;
#X obj 48 105 list split 1;
#X obj 110 168 t f f;
#X obj 110 143 max 18;
#X obj 110 246 s \$0-set_size;
#X connect 2 0 9 0;
#X connect 2 1 8 0;
#X connect 4 0 12 0;
#X connect 5 0 2 0;
#X connect 8 0 3 0;
#X connect 8 1 7 0;
#X connect 9 0 11 0;
#X connect 9 1 6 0;
#X connect 10 0 4 0;
#X connect 10 0 1 0;
#X connect 10 1 0 0;
#X connect 11 0 10 0;
#X restore 61 70 pd size;
#N canvas 643 321 515 381 range 0;
#N canvas 784 36 534 494 range 0;
#X obj 238 302 unpack;
#X obj 154 247 list;
#X obj 76 188 list length;
#X obj 76 212 sel 2;
#X obj 76 160 trigger list list;
#X msg 104 303 -range needs 2 floats, f 12;
#X obj 76 76 inlet;
#X obj 238 426 s \$0-min-y;
#X obj 228 447 s \$0-min-x;
#X obj 278 327 s \$0-max-x;
#X obj 271 348 s \$0-max-y;
#X obj 306 281 v max_x_\$0;
#X obj 307 302 v max_y_\$0;
#X obj 256 403 v min_y_\$0;
#X obj 268 380 v min_x_\$0;
#X obj 124 102 r \$0-default;
#X obj 104 336 print circle;
#X msg 124 125 -1 1;
#X connect 0 0 7 0;
#X connect 0 0 8 0;
#X connect 0 0 13 0;
#X connect 0 0 14 0;
#X connect 0 1 9 0;
#X connect 0 1 10 0;
#X connect 0 1 11 0;
#X connect 0 1 12 0;
#X connect 1 0 0 0;
#X connect 2 0 3 0;
#X connect 3 0 1 0;
#X connect 3 1 5 0;
#X connect 4 0 2 0;
#X connect 4 1 1 1;
#X connect 5 0 16 0;
#X connect 6 0 4 0;
#X connect 15 0 17 0;
#X connect 17 0 4 0;
#X restore 168 116 pd range;
#X obj 97 154 list split 2;
#N canvas 171 255 559 444 xrange 0;
#X obj 261 212 unpack;
#X obj 177 157 list;
#X obj 99 98 list length;
#X obj 99 122 sel 2;
#X obj 99 70 trigger list list;
#X obj 99 40 inlet;
#X obj 294 259 s \$0-max-x;
#X obj 303 239 v max_x_\$0;
#X obj 257 362 v min_x_\$0;
#X msg 127 213 -xrange needs 2 floats, f 14;
#X obj 261 164 r \$0-set-xrange;
#X obj 272 341 s \$0-min-x;
#X msg 284 292 set \$1;
#X msg 318 195 set \$1;
#X obj 284 314 s \$0-set-min-x;
#X obj 318 217 s \$0-set-max-x;
#X obj 127 246 print circle;
#X connect 0 0 8 0;
#X connect 0 0 11 0;
#X connect 0 0 12 0;
#X connect 0 1 6 0;
#X connect 0 1 7 0;
#X connect 0 1 13 0;
#X connect 1 0 0 0;
#X connect 2 0 3 0;
#X connect 3 0 1 0;
#X connect 3 1 9 0;
#X connect 4 0 2 0;
#X connect 4 1 1 1;
#X connect 5 0 4 0;
#X connect 9 0 16 0;
#X connect 10 0 0 0;
#X connect 12 0 14 0;
#X connect 13 0 15 0;
#X restore 223 263 pd xrange;
#N canvas 191 345 559 444 yrange 0;
#X obj 261 212 unpack;
#X obj 177 157 list;
#X obj 99 98 list length;
#X obj 99 122 sel 2;
#X obj 99 70 trigger list list;
#X obj 99 40 inlet;
#X obj 261 336 s \$0-min-y;
#X obj 391 259 s \$0-max-y;
#X obj 391 239 v max_y_\$0;
#X obj 279 313 v min_y_\$0;
#X obj 261 164 r \$0-set-yrange;
#X msg 127 213 -yrange needs 2 floats, f 14;
#X msg 289 257 set \$1;
#X msg 390 195 set \$1;
#X obj 390 217 s \$0-set-max-y;
#X obj 289 279 s \$0-set-min-y;
#X obj 127 247 print circle;
#X connect 0 0 6 0;
#X connect 0 0 9 0;
#X connect 0 0 12 0;
#X connect 0 1 7 0;
#X connect 0 1 8 0;
#X connect 0 1 13 0;
#X connect 1 0 0 0;
#X connect 2 0 3 0;
#X connect 3 0 1 0;
#X connect 3 1 11 0;
#X connect 4 0 2 0;
#X connect 4 1 1 1;
#X connect 5 0 4 0;
#X connect 10 0 0 0;
#X connect 11 0 16 0;
#X connect 12 0 15 0;
#X connect 13 0 14 0;
#X restore 324 263 pd yrange;
#X obj 168 76 route -range -xrange -yrange;
#X obj 355 214 list split 2;
#X obj 97 47 inlet;
#X obj 168 47 inlet;
#X obj 389 306 outlet;
#X obj 295 306 outlet;
#X connect 1 0 2 0;
#X connect 1 1 5 0;
#X connect 4 0 0 0;
#X connect 4 1 2 0;
#X connect 4 2 3 0;
#X connect 4 3 9 0;
#X connect 5 0 3 0;
#X connect 5 1 8 0;
#X connect 6 0 1 0;
#X connect 7 0 4 0;
#X restore 61 100 pd range;
#X obj 528 213 route -init;
#X obj 468 279 list split 1;
#N canvas 278 89 530 361 init 0;
#X obj 114 54 inlet;
#X msg 115 187 set \$1;
#X obj 114 128 != 0;
#X obj 115 210 s \$0-set_init;
#X obj 114 87 unpack f f f;
#X msg 231 177 set \$1;
#X obj 231 200 s \$0-xcoord;
#X msg 314 179 set \$1;
#X obj 314 202 s \$0-ycoord;
#X obj 324 133 v init-x_\$0;
#X obj 334 87 v init-y_\$0;
#X obj 126 153 v init_\$0;
#X floatatom 226 239 5 0 0 0 - - -;
#X floatatom 276 244 5 0 0 0 - - -;
#X connect 0 0 4 0;
#X connect 1 0 3 0;
#X connect 2 0 1 0;
#X connect 2 0 11 0;
#X connect 4 0 2 0;
#X connect 4 1 5 0;
#X connect 4 1 9 0;
#X connect 4 1 12 0;
#X connect 4 2 7 0;
#X connect 4 2 10 0;
#X connect 4 2 13 0;
#X connect 5 0 6 0;
#X connect 7 0 8 0;
#X restore 529 348 pd init;
#X obj 579 312 list split 1;
#X obj 620 261 route -send -receive;
#N canvas 334 485 713 357 s/r 0;
#X obj 71 54 inlet;
#X obj 300 54 inlet;
#X obj 171 271 s \$0-s-sym;
#X obj 414 271 s \$0-r-sym;
#X obj 120 122 symbol;
#X obj 363 122 symbol;
#X obj 363 155 sel empty;
#X obj 120 155 sel empty;
#X obj 191 241 s \$0-set-s-sym;
#X obj 434 245 s \$0-set-r-sym;
#X msg 434 220 set \$1;
#X msg 199 218 set \$1;
#X obj 84 307 s \$0-s-spigot;
#X msg 83 239 0;
#X msg 121 244 1;
#X msg 335 250 0;
#X msg 373 255 1;
#X obj 336 318 s \$0-r-spigot;
#X obj 300 93 route float;
#X obj 71 96 route float;
#X msg 300 193 set empty;
#X msg 39 199 set empty;
#X connect 0 0 19 0;
#X connect 1 0 18 0;
#X connect 4 0 7 0;
#X connect 5 0 6 0;
#X connect 6 0 15 0;
#X connect 6 0 20 0;
#X connect 6 1 16 0;
#X connect 6 1 3 0;
#X connect 6 1 10 0;
#X connect 7 0 13 0;
#X connect 7 0 21 0;
#X connect 7 1 14 0;
#X connect 7 1 11 0;
#X connect 7 1 2 0;
#X connect 10 0 9 0;
#X connect 11 0 8 0;
#X connect 13 0 12 0;
#X connect 14 0 12 0;
#X connect 15 0 17 0;
#X connect 16 0 17 0;
#X connect 18 0 20 0;
#X connect 18 1 5 0;
#X connect 19 0 21 0;
#X connect 19 1 4 0;
#X connect 20 0 9 0;
#X connect 21 0 8 0;
#X restore 653 390 pd s/r;
#X obj 652 358 list split 1;
#X obj 613 333 list split 2;
#X obj 72 129 route -mode;
#X connect 0 0 1 0;
#X connect 0 1 3 0;
#X connect 2 0 4 0;
#X connect 2 1 5 0;
#X connect 2 2 9 0;
#X connect 3 0 4 0;
#X connect 3 1 6 0;
#X connect 6 0 5 0;
#X connect 6 1 8 0;
#X connect 8 0 7 0;
#X connect 8 1 16 0;
#X connect 9 0 7 0;
#X connect 9 1 11 0;
#X connect 11 0 10 0;
#X connect 11 1 15 0;
#X connect 12 0 13 0;
#X connect 13 0 14 0;
#X connect 13 1 14 1;
#X connect 14 0 23 0;
#X connect 14 1 0 0;
#X connect 15 0 17 0;
#X connect 15 1 19 0;
#X connect 16 0 10 0;
#X connect 16 1 18 0;
#X connect 18 0 17 0;
#X connect 18 1 22 0;
#X connect 19 0 20 0;
#X connect 19 1 20 1;
#X connect 21 0 20 0;
#X connect 21 1 20 1;
#X connect 22 1 21 0;
#X connect 23 0 1 0;
#X connect 23 1 2 0;
#X restore 149 184 pd route;
#X obj 75 71 t b b b b b, f 17;
#X connect 0 0 8 0;
#X connect 4 0 7 0;
#X connect 5 0 4 0;
#X connect 8 0 2 0;
#X connect 8 1 1 0;
#X connect 8 2 3 0;
#X connect 8 3 4 0;
#X connect 8 4 6 0;
#X restore 61 134 pd args;
#X obj 139 136 t b b;
#X obj 139 91 r \$0-reset;
#X obj 191 151 s pd-\$0-point-cnv;
#X msg 191 128 clear;
#X obj 61 91 t b b;
#X obj 78 61 loadbang;
#X obj 238 28 inlet;
#N canvas 215 392 371 172 clear 0;
#X obj 69 27 inlet;
#X obj 69 91 s \$0-this-patch;
#X msg 69 57 donecanvasdialog 1 -1 0 0 0 0 0 0 0 0 0;
#X text 169 80 for recreating abstraction in parent, f 14;
#X connect 0 0 2 0;
#X connect 2 0 1 0;
#X restore 238 61 pd clear;
#N canvas 559 294 515 500 draw-point 0;
#X obj 327 105 pointer;
#X obj 190 94 r \$0-coords;
#X obj 32 14 inlet;
#X obj 327 68 else/message traverse pd-\$0-point-cnv \, bang, f 21
;
#X obj 59 80 t b b b;
#X obj 78 257 v \$0-fgcolor;
#X obj 78 282 s \$0-set-fgcolor;
#X obj 183 254 s \$0-pointer;
#X obj 78 230 trigger bang point;
#X obj 78 204 append \$0-point x0 y0 gridx gridy xs ys in;
#X obj 220 122 r \$0-xsize;
#X obj 255 147 r \$0-ysize;
#X obj 291 179 - 1;
#X obj 149 180 / 2;
#X obj 184 180 / 2;
#X obj 59 354 f;
#X obj 74 332 r \$0-xsize;
#X obj 90 355 r \$0-ysize;
#X obj 59 376 pack f f \$0;
#X text 228 370 graph on parent;
#X msg 59 403 \; pd-\$3-point-cnv donecanvasdialog 1 -1 3 0 \$2 \$1
0 \$1 \$2 0 0 \; \$3-this-patch donecanvasdialog 1 -1 3 0 \$2 \$1 0
\$1 \$2 190 100 \, dirty 0, f 70;
#X obj 32 51 t b b;
#X obj 33 464 outlet;
#X obj 78 120 list append 64 64;
#X obj 177 46 r \$0-set-init-coords;
#X connect 0 0 9 7;
#X connect 1 0 23 1;
#X connect 2 0 21 0;
#X connect 3 0 0 0;
#X connect 4 0 15 0;
#X connect 4 1 23 0;
#X connect 4 2 3 0;
#X connect 5 0 6 0;
#X connect 8 0 5 0;
#X connect 8 1 7 0;
#X connect 9 0 8 0;
#X connect 10 0 9 4;
#X connect 10 0 13 0;
#X connect 11 0 12 0;
#X connect 11 0 9 5;
#X connect 11 0 14 0;
#X connect 12 0 9 6;
#X connect 13 0 9 2;
#X connect 14 0 9 3;
#X connect 15 0 18 0;
#X connect 16 0 15 1;
#X connect 17 0 18 1;
#X connect 18 0 20 0;
#X connect 21 0 22 0;
#X connect 21 1 4 0;
#X connect 23 0 9 0;
#X connect 24 0 23 1;
#X restore 139 183 pd draw-point;
#N canvas 856 61 527 769 draw-circle 0;
#X obj 24 123 until;
#X obj 24 156 f;
#X obj 54 156 + 1;
#X obj 80 323 i;
#X obj 23 252 t f f;
#X obj 125 385 pack f f f;
#X obj 23 385 pack f f f;
#X obj 80 269 expr 100 * (ceil($f1) - $f1);
#X obj 23 317 t f f;
#X obj 24 178 t f f;
#X obj 23 224 spigot;
#X obj 51 362 - 1;
#X obj 24 87 t b b, f 16;
#X obj 187 88 v radius_\$0;
#X obj 187 110 v i_\$0;
#X obj 153 319 expr i_\$0 = if($f1 < $f2 \, i_\$0 - 1 \, i_\$0), f
20;
#X obj 100 158 sel 0;
#X obj 56 202 expr $f1 < i_\$0;
#X msg 117 113 0;
#X obj 270 279 else/lastvalue;
#X obj 182 360 expr 100 - $f1;
#X obj 80 294 trigger float float float;
#X obj 80 235 expr sqrt(max(pow(radius_\$0 \, 2) - pow($f1 \, 2) \,
0)), f 31;
#X obj 187 66 / 2;
#X obj 138 483 swap;
#X obj 90 448 t f f;
#X obj 117 600 pack f f;
#X obj 195 600 pack f f;
#X obj 233 640 list;
#N canvas 644 372 503 423 alphacolor 0;
#X obj 49 42 inlet;
#X obj 89 210 t f f f;
#X obj 158 370 outlet;
#X obj 140 264 *;
#X obj 191 264 *;
#X obj 242 264 *;
#X obj 150 286 +;
#X obj 201 286 +;
#X obj 252 286 +;
#X obj 206 212 -;
#X obj 257 212 -;
#X obj 155 212 -;
#N canvas 304 205 304 268 splitcolor 0;
#X obj 118 153 div 10;
#X obj 188 153 mod 10;
#X obj 48 109 div 100;
#X obj 118 109 mod 100;
#X obj 118 131 t f f;
#X obj 48 87 t f f;
#X obj 48 65 mod 1000;
#X obj 188 175 min 8;
#X obj 118 175 min 8;
#X obj 48 175 min 8;
#X obj 48 43 inlet;
#X obj 48 197 outlet;
#X obj 118 197 outlet;
#X obj 188 197 outlet;
#X connect 0 0 8 0;
#X connect 1 0 7 0;
#X connect 2 0 9 0;
#X connect 3 0 4 0;
#X connect 4 0 0 0;
#X connect 4 1 1 0;
#X connect 5 0 2 0;
#X connect 5 1 3 0;
#X connect 6 0 5 0;
#X connect 7 0 13 0;
#X connect 8 0 12 0;
#X connect 9 0 11 0;
#X connect 10 0 6 0;
#X restore 223 138 pd splitcolor;
#N canvas 320 261 265 235 combinecolor 0;
#X obj 41 86 i;
#X obj 101 86 i;
#X obj 161 86 i;
#X obj 41 108 * 100;
#X obj 41 152 +;
#X obj 101 108 * 10;
#X obj 101 130 +;
#X obj 41 64 + 0.5;
#X obj 101 64 + 0.5;
#X obj 161 64 + 0.5;
#X obj 41 42 inlet;
#X obj 101 42 inlet;
#X obj 161 42 inlet;
#X obj 41 174 outlet;
#X connect 0 0 3 0;
#X connect 1 0 5 0;
#X connect 2 0 6 1;
#X connect 3 0 4 0;
#X connect 4 0 13 0;
#X connect 5 0 6 0;
#X connect 6 0 4 1;
#X connect 7 0 0 0;
#X connect 8 0 1 0;
#X connect 9 0 2 0;
#X connect 10 0 7 0;
#X connect 11 0 8 0;
#X connect 12 0 9 0;
#X restore 158 328 pd combinecolor;
#N canvas 304 203 304 268 splitcolor 0;
#X obj 118 153 div 10;
#X obj 188 153 mod 10;
#X obj 48 109 div 100;
#X obj 118 109 mod 100;
#X obj 118 131 t f f;
#X obj 48 87 t f f;
#X obj 48 65 mod 1000;
#X obj 188 175 min 8;
#X obj 118 175 min 8;
#X obj 48 175 min 8;
#X obj 48 43 inlet;
#X obj 48 197 outlet;
#X obj 118 197 outlet;
#X obj 188 197 outlet;
#X connect 0 0 8 0;
#X connect 1 0 7 0;
#X connect 2 0 9 0;
#X connect 3 0 4 0;
#X connect 4 0 0 0;
#X connect 4 1 1 0;
#X connect 5 0 2 0;
#X connect 5 1 3 0;
#X connect 6 0 5 0;
#X connect 7 0 13 0;
#X connect 8 0 12 0;
#X connect 9 0 11 0;
#X connect 10 0 6 0;
#X restore 125 138 pd splitcolor;
#X obj 125 116 f;
#X obj 196 64 t b f;
#X obj 125 42 inlet;
#X obj 196 42 inlet;
#X obj 49 168 expr 1 - ($f1 / 100), f 11;
#X connect 0 0 19 0;
#X connect 1 0 3 0;
#X connect 1 1 4 0;
#X connect 1 2 5 0;
#X connect 3 0 6 0;
#X connect 4 0 7 0;
#X connect 5 0 8 0;
#X connect 6 0 13 0;
#X connect 7 0 13 1;
#X connect 8 0 13 2;
#X connect 9 0 4 1;
#X connect 10 0 5 1;
#X connect 11 0 3 1;
#X connect 12 0 11 1;
#X connect 12 0 6 1;
#X connect 12 1 9 1;
#X connect 12 1 7 1;
#X connect 12 2 8 1;
#X connect 12 2 10 1;
#X connect 13 0 2 0;
#X connect 14 0 11 0;
#X connect 14 1 9 0;
#X connect 14 2 10 0;
#X connect 15 0 14 0;
#X connect 16 0 15 0;
#X connect 16 1 12 0;
#X connect 17 0 15 0;
#X connect 18 0 16 0;
#X connect 19 0 1 0;
#X restore 266 600 pd alphacolor;
#X obj 233 670 spigot;
#N canvas 304 205 294 271 splitcolor 0;
#X obj 126 152 div 10;
#X obj 196 152 mod 10;
#X obj 56 118 div 100;
#X obj 126 88 mod 100;
#X obj 126 118 t f f;
#X obj 56 86 t f f;
#X obj 56 59 mod 1000;
#X obj 196 178 min 8;
#X obj 126 178 min 8;
#X obj 56 178 min 8;
#X obj 56 27 inlet;
#X obj 56 210 outlet;
#X obj 126 210 outlet;
#X obj 196 210 outlet;
#X connect 0 0 8 0;
#X connect 1 0 7 0;
#X connect 2 0 9 0;
#X connect 3 0 4 0;
#X connect 4 0 0 0;
#X connect 4 1 1 0;
#X connect 5 0 2 0;
#X connect 5 1 3 0;
#X connect 6 0 5 0;
#X connect 7 0 13 0;
#X connect 8 0 12 0;
#X connect 9 0 11 0;
#X connect 10 0 6 0;
#X restore 308 650 pd splitcolor;
#N canvas 320 286 265 235 combinecolor 0;
#X obj 41 86 i;
#X obj 101 86 i;
#X obj 161 86 i;
#X obj 41 108 * 100;
#X obj 41 152 +;
#X obj 101 108 * 10;
#X obj 101 130 +;
#X obj 41 64 + 0.5;
#X obj 101 64 + 0.5;
#X obj 161 64 + 0.5;
#X obj 41 42 inlet;
#X obj 101 42 inlet;
#X obj 161 42 inlet;
#X obj 41 174 outlet;
#X connect 0 0 3 0;
#X connect 1 0 5 0;
#X connect 2 0 6 1;
#X connect 3 0 4 0;
#X connect 4 0 13 0;
#X connect 5 0 6 0;
#X connect 6 0 4 1;
#X connect 7 0 0 0;
#X connect 8 0 1 0;
#X connect 9 0 2 0;
#X connect 10 0 7 0;
#X connect 11 0 8 0;
#X connect 12 0 9 0;
#X restore 308 673 pd combinecolor;
#X obj 266 640 !=;
#X obj 117 514 expr radius_\$0 - $f1 \; $f1 + radius_\$0 \; radius_\$0
- $f2 \; $f2 + radius_\$0;
#X obj 125 417 unpack float float float;
#X obj 139 697 else/pack2 scalar \$0-pixel 0 0 0;
#X obj 139 724 s pd-\$0-point-cnv;
#X obj 24 24 inlet;
#X obj 187 45 r \$0-xsize;
#X obj 341 575 r \$0-circle-fgcolor;
#X obj 303 551 r \$0-circle-bgcolor;
#X obj 308 627 r \$0-circle-bgcolor;
#X obj 44 57 r \$0-redraw-circle;
#X connect 0 0 1 0;
#X connect 1 0 2 0;
#X connect 1 0 9 0;
#X connect 2 0 1 1;
#X connect 3 0 6 2;
#X connect 3 0 20 0;
#X connect 4 0 8 0;
#X connect 4 1 22 0;
#X connect 5 0 35 0;
#X connect 6 0 35 0;
#X connect 7 0 21 0;
#X connect 8 0 6 0;
#X connect 8 1 5 0;
#X connect 9 0 10 0;
#X connect 9 1 17 0;
#X connect 10 0 4 0;
#X connect 11 0 6 1;
#X connect 12 0 0 0;
#X connect 12 1 13 0;
#X connect 12 1 18 0;
#X connect 13 0 14 0;
#X connect 15 0 11 0;
#X connect 15 0 5 1;
#X connect 16 0 0 1;
#X connect 17 0 10 1;
#X connect 17 0 16 0;
#X connect 18 0 1 1;
#X connect 18 0 19 1;
#X connect 19 0 15 1;
#X connect 20 0 5 2;
#X connect 21 0 3 0;
#X connect 21 1 15 0;
#X connect 21 2 19 0;
#X connect 22 0 7 0;
#X connect 23 0 13 0;
#X connect 24 0 34 0;
#X connect 24 1 34 1;
#X connect 25 0 24 0;
#X connect 25 1 34 0;
#X connect 26 0 28 0;
#X connect 27 0 28 0;
#X connect 28 0 30 0;
#X connect 29 0 28 1;
#X connect 29 0 33 0;
#X connect 30 0 36 2;
#X connect 31 0 32 0;
#X connect 31 1 32 1;
#X connect 31 2 32 2;
#X connect 32 0 33 1;
#X connect 33 0 30 1;
#X connect 34 0 26 0;
#X connect 34 0 27 0;
#X connect 34 1 26 0;
#X connect 34 1 27 0;
#X connect 34 2 26 1;
#X connect 34 3 27 1;
#X connect 35 0 25 0;
#X connect 35 1 24 1;
#X connect 35 1 34 1;
#X connect 35 2 29 0;
#X connect 36 0 37 0;
#X connect 38 0 12 0;
#X connect 39 0 23 0;
#X connect 40 0 29 2;
#X connect 41 0 29 1;
#X connect 42 0 31 0;
#X connect 43 0 12 0;
#X restore 139 214 pd draw-circle;
#X connect 0 0 6 0;
#X connect 1 0 10 0;
#X connect 2 0 10 0;
#X connect 2 1 5 0;
#X connect 3 0 2 0;
#X connect 5 0 4 0;
#X connect 6 0 1 0;
#X connect 6 1 5 0;
#X connect 7 0 6 0;
#X connect 8 0 9 0;
#X connect 10 0 11 0;
#X restore 108 70 pd init;
#X obj 43 121 namecanvas \$0-this-patch, f 13;
#X obj 43 270 outlet;
#X text 227 48 Part of ELSE \; https://github.com/porres/pd-else;
#X obj 108 38 bng 15 250 50 0 empty empty empty 17 7 0 10 -228856 -1
-1;
#X text 58 37 re-init;
#N canvas 423 410 775 301 route 0;
#X obj 51 30 inlet;
#N canvas 700 398 567 345 coords 0;
#X obj 206 282 s \$0-output;
#X obj 206 49 inlet;
#X obj 301 49 inlet;
#X obj 301 282 s \$0-set-coords;
#X obj 206 151 t l l;
#N canvas 728 258 443 306 rescale 0;
#X obj 36 28 inlet;
#X obj 174 250 outlet;
#X obj 111 95 r \$0-min-x;
#X obj 128 120 r \$0-max-x;
#X obj 94 165 else/rescale 0 0 0 0, f 12;
#X obj 163 143 r \$0-xsize;
#X obj 36 68 unpack float float, f 27;
#X obj 267 144 else/rescale 0 0 0 0, f 12;
#X obj 284 74 r \$0-min-y;
#X obj 301 99 r \$0-max-y;
#X obj 174 208 pack float float;
#X obj 336 123 r \$0-ysize;
#X obj 36 124 clip -1 1;
#X obj 209 103 clip -1 1;
#X connect 0 0 6 0;
#X connect 2 0 4 1;
#X connect 2 0 12 1;
#X connect 3 0 4 2;
#X connect 3 0 12 2;
#X connect 4 0 10 0;
#X connect 5 0 4 4;
#X connect 6 0 12 0;
#X connect 6 1 13 0;
#X connect 7 0 10 1;
#X connect 8 0 7 1;
#X connect 8 0 13 1;
#X connect 9 0 7 2;
#X connect 9 0 13 2;
#X connect 10 0 1 0;
#X connect 11 0 7 4;
#X connect 12 0 4 0;
#X connect 13 0 7 0;
#X restore 301 247 pd rescale;
#X obj 91 106 r \$0-init-coords;
#X obj 91 150 t l l;
#X obj 349 137 unpack;
#X obj 349 209 s \$0-xcoord;
#X obj 382 181 s \$0-ycoord;
#X msg 382 159 set \$1;
#X connect 1 0 4 0;
#X connect 2 0 5 0;
#X connect 2 0 8 0;
#X connect 4 0 0 0;
#X connect 4 1 5 0;
#X connect 4 1 8 0;
#X connect 5 0 3 0;
#X connect 6 0 7 0;
#X connect 7 0 0 0;
#X connect 7 1 5 0;
#X connect 8 0 9 0;
#X connect 8 1 11 0;
#X connect 11 0 10 0;
#X restore 41 134 pd coords;
#N canvas 178 30 284 204 bang 0;
#X obj 69 33 inlet;
#X obj 68 121 s \$0-bang;
#X obj 143 131 s \$0-changed;
#X obj 69 79 t b b;
#X msg 143 109 reset;
#X connect 0 0 3 0;
#X connect 3 0 1 0;
#X connect 3 1 4 0;
#X connect 4 0 2 0;
#X restore 368 185 pd bang;
#X obj 288 240 s \$0-set-xrange;
#X obj 328 213 s \$0-set-yrange;
#N canvas 687 269 386 416 size 0;
#X obj 63 26 inlet;
#X obj 63 57 route float;
#X obj 123 180 float;
#X obj 63 150 sel 1;
#X obj 63 80 max 18;
#X obj 188 134 s \$0-xsize;
#X obj 262 162 r \$0-name1;
#X obj 277 188 r \$0-name2;
#X obj 205 185 array size;
#X obj 196 210 array size, f 14;
#X obj 188 156 s \$0-ysize;
#X obj 150 55 r \$0-xsize;
#X obj 63 102 expr $f1 != $f2 || $f1 != $f3 \; $f1, f 15;
#X obj 150 81 r \$0-ysize;
#X obj 123 207 t b f;
#N canvas 537 417 722 441 resize 0;
#X obj 175 142 r \$0-coords;
#X obj 76 322 else/rescale 0 127 0 127;
#X obj 146 289 else/lastvalue;
#X obj 146 260 r \$0-xsize;
#X obj 76 221 unpack float float, f 24;
#X obj 248 322 else/rescale 0 127 0 127;
#X obj 318 289 else/lastvalue;
#X obj 318 260 r \$0-ysize;
#X obj 76 371 pack float float, f 26;
#X obj 76 407 s \$0-set-coords;
#X obj 76 17 inlet;
#X obj 244 260 r \$0-1st-x;
#X obj 399 260 r \$0-1st-y;
#X msg 288 172 vis_size \$1 \$2;
#X obj 288 144 list;
#X obj 288 203 s \$0-bg_cnv;
#X obj 309 114 else/pack2 125 125;
#X obj 313 69 r \$0-xsize;
#X obj 414 70 r \$0-ysize;
#X obj 313 92 - 2;
#X obj 416 92 - 2;
#X obj 288 43 r \$0-bg-size;
#X obj 76 176 list append 64 64;
#X connect 0 0 22 1;
#X connect 1 0 8 0;
#X connect 2 0 1 2;
#X connect 3 0 1 4;
#X connect 3 0 2 0;
#X connect 4 0 1 0;
#X connect 4 1 5 0;
#X connect 5 0 8 1;
#X connect 6 0 5 2;
#X connect 7 0 6 0;
#X connect 7 0 5 4;
#X connect 8 0 9 0;
#X connect 10 0 14 0;
#X connect 10 0 22 0;
#X connect 11 0 2 1;
#X connect 12 0 6 1;
#X connect 13 0 15 0;
#X connect 14 0 13 0;
#X connect 16 0 14 1;
#X connect 17 0 19 0;
#X connect 18 0 20 0;
#X connect 19 0 16 0;
#X connect 20 0 16 1;
#X connect 21 0 14 0;
#X connect 22 0 4 0;
#X restore 222 324 pd resize;
#X obj 123 324 s \$0-reset;
#X obj 123 291 trigger bang bang;
#X obj 150 252 s \$0-set_size;
#X connect 0 0 1 0;
#X connect 1 0 4 0;
#X connect 2 0 14 0;
#X connect 3 0 2 0;
#X connect 4 0 12 0;
#X connect 6 0 8 1;
#X connect 7 0 9 1;
#X connect 11 0 12 1;
#X connect 12 0 3 0;
#X connect 12 1 2 1;
#X connect 13 0 12 2;
#X connect 14 0 17 0;
#X connect 14 1 5 0;
#X connect 14 1 9 0;
#X connect 14 1 8 0;
#X connect 14 1 10 0;
#X connect 14 1 18 0;
#X connect 17 0 16 0;
#X connect 17 1 15 0;
#X restore 130 134 pd size;
#N canvas 595 89 573 428 color 0;
#X obj 281 28 inlet;
#X obj 63 29 inlet;
#X obj 308 169 else/colors -ds;
#X obj 425 233 receive \$0-pointer;
#X obj 308 124 else/setmess rgb;
#X obj 90 167 else/setmess rgb;
#X obj 338 272 set \$0-point fg;
#X obj 114 106 s \$0-set-bg;
#X obj 322 84 s \$0-set-fg;
#X obj 338 201 r \$0-set-fgcolor;
#X obj 90 264 else/colors -gui;
#X obj 90 330 s \$0-bg_cnv;
#X msg 90 294 color \$1;
#X obj 308 310 s \$0-circle-fgcolor;
#X obj 116 224 s \$0-circle-bgcolor;
#X obj 116 196 else/colors -ds;
#X obj 112 138 r \$0-set-bgcolor;
#X obj 281 351 s \$0-redraw-circle;
#X obj 281 55 t b l;
#X obj 63 66 t b l;
#X obj 63 369 s \$0-redraw-circle;
#X connect 0 0 18 0;
#X connect 1 0 19 0;
#X connect 2 0 6 0;
#X connect 2 0 13 0;
#X connect 3 0 6 1;
#X connect 4 0 2 0;
#X connect 5 0 10 0;
#X connect 5 0 15 0;
#X connect 9 0 6 0;
#X connect 9 0 13 0;
#X connect 10 0 12 0;
#X connect 12 0 11 0;
#X connect 15 0 14 0;
#X connect 16 0 5 0;
#X connect 18 0 17 0;
#X connect 18 1 4 0;
#X connect 18 1 8 0;
#X connect 19 0 20 0;
#X connect 19 1 5 0;
#X connect 19 1 7 0;
#X restore 441 134 pd color;
#N canvas 68 23 450 300 grid 0;
#X obj 211 111 != 0;
#X obj 210 138 change -1;
#X obj 209 82 inlet;
#X obj 224 168 s \$0-grid;
#X obj 210 195 s \$0-set_grid;
#X connect 0 0 1 0;
#X connect 1 0 3 0;
#X connect 1 0 4 0;
#X connect 2 0 0 0;
#X restore 527 213 pd grid;
#N canvas 68 23 450 300 jump 0;
#X obj 211 111 != 0;
#X obj 210 138 change -1;
#X obj 209 82 inlet;
#X obj 224 168 s \$0-jump;
#X obj 210 195 s \$0-set_jump;
#X connect 0 0 1 0;
#X connect 1 0 3 0;
#X connect 1 0 4 0;
#X connect 2 0 0 0;
#X restore 567 185 pd jump;
#N canvas 68 23 450 300 init 0;
#X obj 211 111 != 0;
#X obj 210 138 change -1;
#X obj 209 82 inlet;
#X obj 210 195 s \$0-set_init;
#X connect 0 0 1 0;
#X connect 1 0 3 0;
#X connect 2 0 0 0;
#X restore 606 157 pd init;
#N canvas 328 376 727 395 s/r 0;
#X obj 94 72 inlet;
#X obj 427 57 inlet;
#X obj 188 272 s \$0-s-sym;
#X obj 478 267 s \$0-r-sym;
#X obj 137 123 symbol;
#X obj 427 118 symbol;
#X obj 427 151 sel empty;
#X obj 137 156 sel empty;
#X obj 208 242 s \$0-set-s-sym;
#X obj 498 241 s \$0-set-r-sym;
#X obj 77 276 s \$0-s-spigot;
#X msg 76 208 0;
#X msg 114 213 1;
#X msg 358 233 0;
#X msg 396 238 1;
#X obj 360 277 s \$0-r-spigot;
#X obj 64 101 route float;
#X obj 376 92 route float;
#X msg 358 174 empty;
#X msg 58 179 empty;
#X connect 0 0 16 0;
#X connect 1 0 17 0;
#X connect 4 0 7 0;
#X connect 5 0 6 0;
#X connect 6 0 13 0;
#X connect 6 0 18 0;
#X connect 6 1 14 0;
#X connect 6 1 3 0;
#X connect 6 1 9 0;
#X connect 7 0 11 0;
#X connect 7 0 19 0;
#X connect 7 1 12 0;
#X connect 7 1 2 0;
#X connect 7 1 8 0;
#X connect 11 0 10 0;
#X connect 12 0 10 0;
#X connect 13 0 15 0;
#X connect 14 0 15 0;
#X connect 16 1 4 0;
#X connect 17 1 5 0;
#X connect 18 0 9 0;
#X connect 19 0 8 0;
#X restore 651 134 pd s/r;
#N canvas 188 29 388 244 receive 0;
#X obj 92 96 else/receiver;
#X obj 92 44 r \$0-r-sym;
#X obj 125 130 r \$0-r-spigot;
#X obj 92 160 spigot;
#X obj 92 194 outlet;
#X obj 92 69 else/dollarzero 1;
#X connect 0 0 3 0;
#X connect 1 0 5 0;
#X connect 2 0 3 1;
#X connect 3 0 4 0;
#X connect 5 0 0 0;
#X restore 79 68 pd receive;
#X obj 51 104 route list set size xsize ysize range xrange yrange bang
mode bgcolor fgcolor grid jump init send receive, f 113;
#N canvas 281 23 282 212 mode 0;
#X obj 120 114 s \$0-vis;
#X obj 106 84 change -1;
#X obj 106 48 inlet;
#X obj 106 141 s \$0-set_mode;
#X connect 1 0 0 0;
#X connect 1 0 3 0;
#X connect 2 0 1 0;
#X restore 408 157 pd mode;
#X connect 0 0 12 0;
#X connect 11 0 12 0;
#X connect 12 0 1 0;
#X connect 12 1 1 1;
#X connect 12 2 5 0;
#X connect 12 5 3 0;
#X connect 12 5 4 0;
#X connect 12 6 3 0;
#X connect 12 7 4 0;
#X connect 12 8 2 0;
#X connect 12 9 13 0;
#X connect 12 10 6 0;
#X connect 12 11 6 1;
#X connect 12 12 7 0;
#X connect 12 13 8 0;
#X connect 12 14 9 0;
#X connect 12 15 10 0;
#X connect 12 16 10 1;
#X restore 43 70 pd route;
#N canvas 422 170 183 295 xy-out 0;
#X obj 48 236 outlet;
#N canvas 308 373 568 334 set-coords 0;
#X obj 175 167 s \$0-coords;
#X obj 181 122 set \$0-point x0 y0;
#X obj 286 95 receive \$0-pointer;
#X obj 56 276 outlet;
#X obj 155 67 r \$0-set-coords;
#X obj 68 213 r \$0-bang;
#X obj 56 23 inlet;
#X obj 319 169 unpack;
#X obj 319 241 s \$0-xcoord;
#X obj 352 213 s \$0-ycoord;
#X msg 352 191 set \$1;
#X obj 319 138 r \$0-coords;
#X obj 176 198 r \$0-set-init-coords;
#X obj 68 236 list append 64 64;
#X connect 2 0 1 2;
#X connect 4 0 1 0;
#X connect 4 0 0 0;
#X connect 4 0 13 1;
#X connect 5 0 13 0;
#X connect 6 0 1 0;
#X connect 6 0 0 0;
#X connect 6 0 3 0;
#X connect 6 0 13 1;
#X connect 7 0 8 0;
#X connect 7 1 10 0;
#X connect 10 0 9 0;
#X connect 11 0 7 0;
#X connect 12 0 13 1;
#X connect 13 0 3 0;
#X restore 48 117 pd set-coords;
#N canvas 481 30 703 350 mouse 0;
#X obj 79 148 v jump_\$0;
#X obj 79 121 select 1;
#X obj 107 304 outlet;
#X obj 250 127 v jump_\$0;
#X obj 250 99 r \$0-jump;
#X obj 248 251 v ysize_\$0;
#X obj 247 200 v xsize_\$0;
#X obj 247 172 r \$0-xsize;
#X obj 247 222 r \$0-ysize;
#X obj 384 193 v steady_y_\$0;
#X obj 351 228 v steady_x_\$0;
#X obj 351 116 r \$0-coords;
#X obj 351 142 unpack;
#X obj 384 169 expr ysize_\$0 - $f1;
#X obj 151 120 s \$0-spigot;
#X obj 79 33 else/canvas.mouse 3 1;
#X obj 202 58 s \$0-mouse-y;
#X obj 140 83 s \$0-mouse-x;
#N canvas 479 23 645 563 steady 0;
#X obj 416 158 -;
#X obj 405 132 t f f;
#X obj 282 158 -;
#X obj 277 132 t f f;
#X obj 319 332 spigot;
#X obj 466 333 spigot;
#X obj 319 386 clip 0 127;
#X obj 376 354 r \$0-xsize;
#X obj 319 474 pack float float, f 25;
#X obj 466 374 clip 0 127;
#X obj 523 352 r \$0-ysize;
#X obj 466 443 expr ysize_\$0 - $f1;
#X obj 504 407 v steady_y_\$0;
#X obj 344 417 v steady_x_\$0;
#X obj 331 242 expr steady_x_\$0 + $f1 \; steady_y_\$0 + $f2;
#X obj 66 297 sel 1;
#X obj 66 368 s \$0-bang;
#X obj 125 340 s \$0-changed;
#X obj 66 326 t b b;
#X msg 125 318 reset;
#X obj 66 206 expr $f2 >= 0 && $f2 < xsize_\$0 && $f3 >= 0 && $f3 <
ysize_\$0, f 31;
#X obj 499 294 r \$0-spigot;
#X obj 157 79 r \$0-mouse-x;
#X obj 249 80 r \$0-mouse-y;
#X obj 66 18 inlet;
#X obj 319 518 outlet;
#X obj 282 201 expr if(shift_\$0 \, $f1/10 \, $f1) \; if(shift_\$0
\, $f2/10 \, $f2);
#X connect 0 0 26 1;
#X connect 1 0 0 1;
#X connect 1 1 0 0;
#X connect 2 0 26 0;
#X connect 3 0 2 1;
#X connect 3 1 2 0;
#X connect 4 0 6 0;
#X connect 5 0 9 0;
#X connect 6 0 8 0;
#X connect 6 0 13 0;
#X connect 7 0 6 2;
#X connect 8 0 25 0;
#X connect 9 0 11 0;
#X connect 9 0 12 0;
#X connect 10 0 9 2;
#X connect 11 0 8 1;
#X connect 14 0 4 0;
#X connect 14 1 5 0;
#X connect 15 0 18 0;
#X connect 18 0 16 0;
#X connect 18 1 19 0;
#X connect 19 0 17 0;
#X connect 20 0 4 1;
#X connect 20 0 5 1;
#X connect 20 0 15 0;
#X connect 21 0 5 1;
#X connect 21 0 4 1;
#X connect 22 0 20 1;
#X connect 22 0 3 0;
#X connect 23 0 20 2;
#X connect 23 0 1 0;
#X connect 24 0 20 0;
#X connect 26 0 14 0;
#X connect 26 1 14 1;
#X restore 39 220 pd steady;
#N canvas 435 25 633 612 jump 0;
#X obj 53 521 outlet;
#X obj 53 361 list;
#X obj 53 327 sel 1;
#X obj 250 340 v y_\$0;
#X obj 176 348 v x_\$0;
#X obj 467 169 -;
#X obj 469 146 t f f;
#X obj 284 172 -;
#X obj 282 149 t f f;
#X obj 365 337 spigot;
#X obj 467 338 spigot;
#X obj 332 233 expr x_\$0 = x_\$0 + $f1 \; y_\$0 = y_\$0 + $f2;
#X obj 237 363 expr ysize_\$0 - $f1;
#X obj 467 277 expr ysize_\$0 - $f1;
#X obj 467 364 clip 0 127;
#X obj 365 401 clip 0 127;
#X obj 374 369 r \$0-xsize;
#X obj 524 338 r \$0-ysize;
#X obj 365 436 pack float float;
#X obj 53 178 expr $f2 >= 0 && $f2 < xsize_\$0 && $f3 >= 0 && $f3 <
ysize_\$0 \; $f2 \; $f3, f 31;
#X obj 144 389 pack float float;
#X obj 500 304 r \$0-spigot;
#X obj 144 92 r \$0-mouse-x;
#X obj 236 92 r \$0-mouse-y;
#X obj 53 32 inlet;
#X obj 284 196 expr if(shift_\$0 \, $f1/10 \, $f1) \; if(shift_\$0
\, $f2/10 \, $f2);
#X connect 1 0 0 0;
#X connect 2 0 1 0;
#X connect 5 0 25 1;
#X connect 6 0 5 1;
#X connect 6 1 5 0;
#X connect 7 0 25 0;
#X connect 8 0 7 1;
#X connect 8 1 7 0;
#X connect 9 0 15 0;
#X connect 10 0 14 0;
#X connect 11 0 9 0;
#X connect 11 1 13 0;
#X connect 12 0 20 1;
#X connect 13 0 10 0;
#X connect 14 0 18 1;
#X connect 15 0 18 0;
#X connect 16 0 15 2;
#X connect 17 0 14 2;
#X connect 18 0 0 0;
#X connect 19 0 2 0;
#X connect 19 0 9 1;
#X connect 19 0 10 1;
#X connect 19 1 4 0;
#X connect 19 1 20 0;
#X connect 19 2 12 0;
#X connect 19 2 3 0;
#X connect 20 0 1 1;
#X connect 21 0 10 1;
#X connect 21 0 9 1;
#X connect 22 0 19 1;
#X connect 22 0 8 0;
#X connect 23 0 19 2;
#X connect 23 0 6 0;
#X connect 24 0 19 0;
#X connect 25 0 11 0;
#X connect 25 1 11 1;
#X restore 107 220 pd jump;
#X obj 79 179 select 0 1;
#X obj 526 126 keyname;
#X obj 565 150 select Shift_L;
#X msg 565 175 1;
#X obj 541 204 &&;
#X obj 541 230 v shift_\$0;
#X connect 0 0 20 0;
#X connect 1 0 0 0;
#X connect 1 1 14 0;
#X connect 4 0 3 0;
#X connect 7 0 6 0;
#X connect 8 0 5 0;
#X connect 11 0 12 0;
#X connect 12 0 10 0;
#X connect 12 1 13 0;
#X connect 13 0 9 0;
#X connect 15 0 1 0;
#X connect 15 1 17 0;
#X connect 15 2 16 0;
#X connect 18 0 2 0;
#X connect 19 0 2 0;
#X connect 20 0 18 0;
#X connect 20 1 19 0;
#X connect 21 0 24 0;
#X connect 21 1 22 0;
#X connect 22 0 23 0;
#X connect 23 0 24 1;
#X connect 24 0 25 0;
#X restore 48 43 pd mouse;
#N canvas 364 86 507 360 rescale 0;
#X obj 65 31 inlet;
#X obj 230 280 outlet;
#X obj 135 238 else/changed;
#X obj 204 210 r \$0-changed;
#X obj 230 247 r \$0-output;
#X obj 65 204 pack float float;
#X obj 326 97 r \$0-ysize;
#X obj 135 100 r \$0-xsize;
#X obj 226 71 r \$0-min-x;
#X obj 241 97 r \$0-max-x;
#X obj 65 71 unpack float float, f 23;
#X obj 361 127 r \$0-min-y;
#X obj 397 147 r \$0-max-y;
#X obj 65 170 else/rescale 0 127 -1 1;
#X obj 256 170 else/rescale 0 127 -1 1;
#X connect 0 0 10 0;
#X connect 2 0 1 0;
#X connect 3 0 2 1;
#X connect 4 0 1 0;
#X connect 5 0 2 0;
#X connect 6 0 14 2;
#X connect 7 0 13 2;
#X connect 8 0 13 3;
#X connect 9 0 13 4;
#X connect 10 0 13 0;
#X connect 10 1 14 0;
#X connect 11 0 14 3;
#X connect 12 0 14 4;
#X connect 13 0 5 0;
#X connect 14 0 5 1;
#X restore 48 148 pd rescale;
#N canvas 539 232 249 243 send 0;
#X obj 45 32 inlet;
#X obj 97 100 r \$0-s-sym;
#X obj 45 99 spigot;
#X obj 78 73 r \$0-s-spigot;
#X obj 97 128 else/dollarzero 1;
#X obj 45 167 send;
#X connect 0 0 2 0;
#X connect 1 0 4 0;
#X connect 2 0 5 0;
#X connect 3 0 2 1;
#X connect 4 0 5 1;
#X restore 61 183 pd send;
#N canvas 911 23 460 467 circle-clip 0;
#X obj 75 53 inlet;
#X obj 75 162 else/rescale 0 0 -1 1;
#X obj 229 161 else/rescale 0 0 -1 1;
#X obj 75 81 unpack float float;
#X obj 160 198 else/car2pol;
#X obj 160 238 clip 0 1;
#X obj 160 272 else/pol2car;
#X obj 209 363 pack;
#X obj 209 404 outlet;
#X obj 136 135 r \$0-xsize;
#X obj 290 134 r \$0-ysize;
#X obj 157 303 r \$0-xsize;
#X obj 34 326 else/rescale -1 1 0 0;
#X obj 229 301 else/rescale -1 1 0 0;
#X obj 352 278 r \$0-ysize;
#X connect 0 0 3 0;
#X connect 1 0 4 0;
#X connect 2 0 4 1;
#X connect 3 0 1 0;
#X connect 3 1 2 0;
#X connect 4 0 5 0;
#X connect 4 1 6 1;
#X connect 5 0 6 0;
#X connect 6 0 12 0;
#X connect 6 1 13 0;
#X connect 7 0 8 0;
#X connect 9 0 1 2;
#X connect 10 0 2 2;
#X connect 11 0 12 4;
#X connect 12 0 7 0;
#X connect 13 0 7 1;
#X connect 14 0 13 4;
#X restore 48 81 pd circle-clip;
#X connect 1 0 3 0;
#X connect 2 0 5 0;
#X connect 3 0 0 0;
#X connect 3 0 4 0;
#X connect 5 0 1 0;
#X restore 43 221 pd xy-out;
#X obj 191 101 cnv 15 48 48 empty \$0-bg_cnv empty 20 12 0 14 -262144
-66577 0;
#N canvas 375 63 604 469 \$0-point-cnv 0;
#X scalar 1017-point 25 25 50 50 0 49 25 25 \;;
#X scalar 1017-pixel 25 0 0 \;;
#X scalar 1017-pixel 25 50 0 \;;
#X scalar 1017-pixel 25 0 0 \;;
#X scalar 1017-pixel 25 50 0 \;;
#X scalar 1017-pixel 50 25 0 \;;
#X scalar 1017-pixel 50 25 0 \;;
#X scalar 1017-pixel 0 25 0 \;;
#X scalar 1017-pixel 0 25 0 \;;
#X scalar 1017-pixel 26 0 0 \;;
#X scalar 1017-pixel 26 50 0 \;;
#X scalar 1017-pixel 24 0 0 \;;
#X scalar 1017-pixel 24 50 0 \;;
#X scalar 1017-pixel 50 24 0 \;;
#X scalar 1017-pixel 50 26 0 \;;
#X scalar 1017-pixel 0 24 0 \;;
#X scalar 1017-pixel 0 26 0 \;;
#X scalar 1017-pixel 27 0 111 \;;
#X scalar 1017-pixel 27 50 111 \;;
#X scalar 1017-pixel 23 0 111 \;;
#X scalar 1017-pixel 23 50 111 \;;
#X scalar 1017-pixel 50 23 111 \;;
#X scalar 1017-pixel 50 27 111 \;;
#X scalar 1017-pixel 0 23 111 \;;
#X scalar 1017-pixel 0 27 111 \;;
#X scalar 1017-pixel 27 1 777 \;;
#X scalar 1017-pixel 27 49 777 \;;
#X scalar 1017-pixel 23 1 777 \;;
#X scalar 1017-pixel 23 49 777 \;;
#X scalar 1017-pixel 49 23 777 \;;
#X scalar 1017-pixel 49 27 777 \;;
#X scalar 1017-pixel 1 23 777 \;;
#X scalar 1017-pixel 1 27 777 \;;
#X scalar 1017-pixel 28 0 111 \;;
#X scalar 1017-pixel 28 50 111 \;;
#X scalar 1017-pixel 22 0 111 \;;
#X scalar 1017-pixel 22 50 111 \;;
#X scalar 1017-pixel 50 22 111 \;;
#X scalar 1017-pixel 50 28 111 \;;
#X scalar 1017-pixel 0 22 111 \;;
#X scalar 1017-pixel 0 28 111 \;;
#X scalar 1017-pixel 28 1 777 \;;
#X scalar 1017-pixel 28 49 777 \;;
#X scalar 1017-pixel 22 1 777 \;;
#X scalar 1017-pixel 22 49 777 \;;
#X scalar 1017-pixel 49 22 777 \;;
#X scalar 1017-pixel 49 28 777 \;;
#X scalar 1017-pixel 1 22 777 \;;
#X scalar 1017-pixel 1 28 777 \;;
#X scalar 1017-pixel 29 0 333 \;;
#X scalar 1017-pixel 29 50 333 \;;
#X scalar 1017-pixel 21 0 333 \;;
#X scalar 1017-pixel 21 50 333 \;;
#X scalar 1017-pixel 50 21 333 \;;
#X scalar 1017-pixel 50 29 333 \;;
#X scalar 1017-pixel 0 21 333 \;;
#X scalar 1017-pixel 0 29 333 \;;
#X scalar 1017-pixel 29 1 555 \;;
#X scalar 1017-pixel 29 49 555 \;;
#X scalar 1017-pixel 21 1 555 \;;
#X scalar 1017-pixel 21 49 555 \;;
#X scalar 1017-pixel 49 21 555 \;;
#X scalar 1017-pixel 49 29 555 \;;
#X scalar 1017-pixel 1 21 555 \;;
#X scalar 1017-pixel 1 29 555 \;;
#X scalar 1017-pixel 30 0 444 \;;
#X scalar 1017-pixel 30 50 444 \;;
#X scalar 1017-pixel 20 0 444 \;;
#X scalar 1017-pixel 20 50 444 \;;
#X scalar 1017-pixel 50 20 444 \;;
#X scalar 1017-pixel 50 30 444 \;;
#X scalar 1017-pixel 0 20 444 \;;
#X scalar 1017-pixel 0 30 444 \;;
#X scalar 1017-pixel 30 1 444 \;;
#X scalar 1017-pixel 30 49 444 \;;
#X scalar 1017-pixel 20 1 444 \;;
#X scalar 1017-pixel 20 49 444 \;;
#X scalar 1017-pixel 49 20 444 \;;
#X scalar 1017-pixel 49 30 444 \;;
#X scalar 1017-pixel 1 20 444 \;;
#X scalar 1017-pixel 1 30 444 \;;
#X scalar 1017-pixel 31 0 666 \;;
#X scalar 1017-pixel 31 50 666 \;;
#X scalar 1017-pixel 19 0 666 \;;
#X scalar 1017-pixel 19 50 666 \;;
#X scalar 1017-pixel 50 19 666 \;;
#X scalar 1017-pixel 50 31 666 \;;
#X scalar 1017-pixel 0 19 666 \;;
#X scalar 1017-pixel 0 31 666 \;;
#X scalar 1017-pixel 31 1 222 \;;
#X scalar 1017-pixel 31 49 222 \;;
#X scalar 1017-pixel 19 1 222 \;;
#X scalar 1017-pixel 19 49 222 \;;
#X scalar 1017-pixel 49 19 222 \;;
#X scalar 1017-pixel 49 31 222 \;;
#X scalar 1017-pixel 1 19 222 \;;
#X scalar 1017-pixel 1 31 222 \;;
#X scalar 1017-pixel 32 1 0 \;;
#X scalar 1017-pixel 32 49 0 \;;
#X scalar 1017-pixel 18 1 0 \;;
#X scalar 1017-pixel 18 49 0 \;;
#X scalar 1017-pixel 49 18 0 \;;
#X scalar 1017-pixel 49 32 0 \;;
#X scalar 1017-pixel 1 18 0 \;;
#X scalar 1017-pixel 1 32 0 \;;
#X scalar 1017-pixel 33 1 222 \;;
#X scalar 1017-pixel 33 49 222 \;;
#X scalar 1017-pixel 17 1 222 \;;
#X scalar 1017-pixel 17 49 222 \;;
#X scalar 1017-pixel 49 17 222 \;;
#X scalar 1017-pixel 49 33 222 \;;
#X scalar 1017-pixel 1 17 222 \;;
#X scalar 1017-pixel 1 33 222 \;;
#X scalar 1017-pixel 33 2 666 \;;
#X scalar 1017-pixel 33 48 666 \;;
#X scalar 1017-pixel 17 2 666 \;;
#X scalar 1017-pixel 17 48 666 \;;
#X scalar 1017-pixel 48 17 666 \;;
#X scalar 1017-pixel 48 33 666 \;;
#X scalar 1017-pixel 2 17 666 \;;
#X scalar 1017-pixel 2 33 666 \;;
#X scalar 1017-pixel 34 1 555 \;;
#X scalar 1017-pixel 34 49 555 \;;
#X scalar 1017-pixel 16 1 555 \;;
#X scalar 1017-pixel 16 49 555 \;;
#X scalar 1017-pixel 49 16 555 \;;
#X scalar 1017-pixel 49 34 555 \;;
#X scalar 1017-pixel 1 16 555 \;;
#X scalar 1017-pixel 1 34 555 \;;
#X scalar 1017-pixel 34 2 333 \;;
#X scalar 1017-pixel 34 48 333 \;;
#X scalar 1017-pixel 16 2 333 \;;
#X scalar 1017-pixel 16 48 333 \;;
#X scalar 1017-pixel 48 16 333 \;;
#X scalar 1017-pixel 48 34 333 \;;
#X scalar 1017-pixel 2 16 333 \;;
#X scalar 1017-pixel 2 34 333 \;;
#X scalar 1017-pixel 35 2 111 \;;
#X scalar 1017-pixel 35 48 111 \;;
#X scalar 1017-pixel 15 2 111 \;;
#X scalar 1017-pixel 15 48 111 \;;
#X scalar 1017-pixel 48 15 111 \;;
#X scalar 1017-pixel 48 35 111 \;;
#X scalar 1017-pixel 2 15 111 \;;
#X scalar 1017-pixel 2 35 111 \;;
#X scalar 1017-pixel 35 3 777 \;;
#X scalar 1017-pixel 35 47 777 \;;
#X scalar 1017-pixel 15 3 777 \;;
#X scalar 1017-pixel 15 47 777 \;;
#X scalar 1017-pixel 47 15 777 \;;
#X scalar 1017-pixel 47 35 777 \;;
#X scalar 1017-pixel 3 15 777 \;;
#X scalar 1017-pixel 3 35 777 \;;
#X scalar 1017-pixel 36 2 444 \;;
#X scalar 1017-pixel 36 48 444 \;;
#X scalar 1017-pixel 14 2 444 \;;
#X scalar 1017-pixel 14 48 444 \;;
#X scalar 1017-pixel 48 14 444 \;;
#X scalar 1017-pixel 48 36 444 \;;
#X scalar 1017-pixel 2 14 444 \;;
#X scalar 1017-pixel 2 36 444 \;;
#X scalar 1017-pixel 36 3 444 \;;
#X scalar 1017-pixel 36 47 444 \;;
#X scalar 1017-pixel 14 3 444 \;;
#X scalar 1017-pixel 14 47 444 \;;
#X scalar 1017-pixel 47 14 444 \;;
#X scalar 1017-pixel 47 36 444 \;;
#X scalar 1017-pixel 3 14 444 \;;
#X scalar 1017-pixel 3 36 444 \;;
#X scalar 1017-pixel 37 3 0 \;;
#X scalar 1017-pixel 37 47 0 \;;
#X scalar 1017-pixel 13 3 0 \;;
#X scalar 1017-pixel 13 47 0 \;;
#X scalar 1017-pixel 47 13 0 \;;
#X scalar 1017-pixel 47 37 0 \;;
#X scalar 1017-pixel 3 13 0 \;;
#X scalar 1017-pixel 3 37 0 \;;
#X scalar 1017-pixel 38 3 555 \;;
#X scalar 1017-pixel 38 47 555 \;;
#X scalar 1017-pixel 12 3 555 \;;
#X scalar 1017-pixel 12 47 555 \;;
#X scalar 1017-pixel 47 12 555 \;;
#X scalar 1017-pixel 47 38 555 \;;
#X scalar 1017-pixel 3 12 555 \;;
#X scalar 1017-pixel 3 38 555 \;;
#X scalar 1017-pixel 38 4 333 \;;
#X scalar 1017-pixel 38 46 333 \;;
#X scalar 1017-pixel 12 4 333 \;;
#X scalar 1017-pixel 12 46 333 \;;
#X scalar 1017-pixel 46 12 333 \;;
#X scalar 1017-pixel 46 38 333 \;;
#X scalar 1017-pixel 4 12 333 \;;
#X scalar 1017-pixel 4 38 333 \;;
#X scalar 1017-pixel 39 4 222 \;;
#X scalar 1017-pixel 39 46 222 \;;
#X scalar 1017-pixel 11 4 222 \;;
#X scalar 1017-pixel 11 46 222 \;;
#X scalar 1017-pixel 46 11 222 \;;
#X scalar 1017-pixel 46 39 222 \;;
#X scalar 1017-pixel 4 11 222 \;;
#X scalar 1017-pixel 4 39 222 \;;
#X scalar 1017-pixel 39 5 666 \;;
#X scalar 1017-pixel 39 45 666 \;;
#X scalar 1017-pixel 11 5 666 \;;
#X scalar 1017-pixel 11 45 666 \;;
#X scalar 1017-pixel 45 11 666 \;;
#X scalar 1017-pixel 45 39 666 \;;
#X scalar 1017-pixel 5 11 666 \;;
#X scalar 1017-pixel 5 39 666 \;;
#X scalar 1017-pixel 40 5 0 \;;
#X scalar 1017-pixel 40 45 0 \;;
#X scalar 1017-pixel 10 5 0 \;;
#X scalar 1017-pixel 10 45 0 \;;
#X scalar 1017-pixel 45 10 0 \;;
#X scalar 1017-pixel 45 40 0 \;;
#X scalar 1017-pixel 5 10 0 \;;
#X scalar 1017-pixel 5 40 0 \;;
#X scalar 1017-pixel 41 5 666 \;;
#X scalar 1017-pixel 41 45 666 \;;
#X scalar 1017-pixel 9 5 666 \;;
#X scalar 1017-pixel 9 45 666 \;;
#X scalar 1017-pixel 45 9 666 \;;
#X scalar 1017-pixel 45 41 666 \;;
#X scalar 1017-pixel 5 9 666 \;;
#X scalar 1017-pixel 5 41 666 \;;
#X scalar 1017-pixel 41 6 222 \;;
#X scalar 1017-pixel 41 44 222 \;;
#X scalar 1017-pixel 9 6 222 \;;
#X scalar 1017-pixel 9 44 222 \;;
#X scalar 1017-pixel 44 9 222 \;;
#X scalar 1017-pixel 44 41 222 \;;
#X scalar 1017-pixel 6 9 222 \;;
#X scalar 1017-pixel 6 41 222 \;;
#X scalar 1017-pixel 42 6 555 \;;
#X scalar 1017-pixel 42 44 555 \;;
#X scalar 1017-pixel 8 6 555 \;;
#X scalar 1017-pixel 8 44 555 \;;
#X scalar 1017-pixel 44 8 555 \;;
#X scalar 1017-pixel 44 42 555 \;;
#X scalar 1017-pixel 6 8 555 \;;
#X scalar 1017-pixel 6 42 555 \;;
#X scalar 1017-pixel 42 7 333 \;;
#X scalar 1017-pixel 42 43 333 \;;
#X scalar 1017-pixel 8 7 333 \;;
#X scalar 1017-pixel 8 43 333 \;;
#X scalar 1017-pixel 43 8 333 \;;
#X scalar 1017-pixel 43 42 333 \;;
#X scalar 1017-pixel 7 8 333 \;;
#X scalar 1017-pixel 7 42 333 \;;
#X scalar 1017-pixel 43 7 555 \;;
#X scalar 1017-pixel 43 43 555 \;;
#X scalar 1017-pixel 7 7 555 \;;
#X scalar 1017-pixel 7 43 555 \;;
#X scalar 1017-pixel 43 7 555 \;;
#X scalar 1017-pixel 43 43 555 \;;
#X scalar 1017-pixel 7 7 555 \;;
#X scalar 1017-pixel 7 43 555 \;;
#X scalar 1017-pixel 43 8 333 \;;
#X scalar 1017-pixel 43 42 333 \;;
#X scalar 1017-pixel 7 8 333 \;;
#X scalar 1017-pixel 7 42 333 \;;
#X scalar 1017-pixel 42 7 333 \;;
#X scalar 1017-pixel 42 43 333 \;;
#X scalar 1017-pixel 8 7 333 \;;
#X scalar 1017-pixel 8 43 333 \;;
#X coords 0 50 50 0 50 50 2 0 0;
#X restore 190 100 pd \$0-point-cnv;
#X obj 147 38 bng 15 250 50 0 empty empty empty 17 7 0 10 -228856 -1
-1;
#X text 229 28 Alexandre Torres Porres (2018-2019);
#X text 165 37 clear;
#N canvas 917 402 309 110 \$0-pixel 0;
#X obj 24 30 struct \$0-pixel float x float y float color;
#X obj 24 58 drawpolygon color 0 0 0 1;
#X restore 43 178 pd \$0-pixel;
#X connect 1 0 8 0;
#X connect 6 0 2 0;
#X connect 9 0 4 0;
#X connect 12 0 2 1;
#X coords 0 50 50 0 50 50 2 190 100;
