#N canvas 592 103 534 370 10;
#X obj 100 35 inlet~;
#N canvas 540 206 304 252 fft 0;
#X obj 75 107 *~;
#X obj 75 135 rfft~;
#X obj 74 40 inlet~;
#X obj 75 188 outlet~;
#X obj 102 161 outlet~;
#N canvas 306 218 887 714 init 0;
#X obj 424 366 soundfiler;
#X msg 424 335 read \$1;
#X msg 554 305 set \$1 2;
#X obj 554 330 s \$0-block;
#X obj 241 228 log 2;
#X obj 241 253 expr pow(2 \, ceil($f1));
#X obj 184 64 else/args;
#X obj 241 174 unpack float symbol;
#X obj 627 633 s \$0-patch;
#X obj 319 431 sel 0;
#X obj 319 646 print error:;
#X msg 319 602 [conv~] could not load Impulse Response, f 22;
#X obj 319 398 expr ceil($f2/$f1);
#X obj 600 547 t b a;
#X obj 414 565 print [conv~];
#X obj 443 258 * 2;
#X obj 241 202 max 64;
#X obj 443 302 s \$0-size;
#X msg 642 576 connect 1 0 7 0 \, connect 1 1 7 1 \, connect 7 0 5
0 \, connect 7 1 5 1, f 16;
#X obj 241 308 trigger float float;
#X obj 443 278 trigger float float;
#X obj 184 465 print error:;
#X msg 184 397 [conv~] needs at least one argument, f 13;
#X obj 225 140 list prepend 1024;
#X obj 600 500 list append;
#X obj 352 336 v w_\$0;
#X obj 414 474 v w_\$0;
#X obj 414 498 pack float float symbol;
#X msg 600 524 obj 100 200 clone ./convpartition \$1 \$2;
#X msg 414 528 loaded \$3 with partition size = \$1 (\$2 partitions)
, f 25;
#X obj 184 94 route bang symbol list float;
#X msg 72 157 [conv~] needs an impulse response file to load, f 16
;
#X obj 184 34 else/loadbanger -init 2;
#X obj 424 221 makefilename;
#X obj 367 49 else/dir 1;
#X msg 424 100 set \$1;
#X obj 424 76 makefilename %s/%%s;
#X msg 367 24 dir;
#X obj 352 223 s \$0-sym;
#X obj 663 450 r \$0-sym;
#X obj 376 427 trigger bang float;
#X connect 0 0 12 1;
#X connect 1 0 0 0;
#X connect 2 0 3 0;
#X connect 4 0 5 0;
#X connect 5 0 19 0;
#X connect 6 0 30 0;
#X connect 7 0 16 0;
#X connect 7 1 33 0;
#X connect 7 1 38 0;
#X connect 9 0 11 0;
#X connect 9 1 40 0;
#X connect 11 0 10 0;
#X connect 12 0 9 0;
#X connect 13 0 18 0;
#X connect 13 1 8 0;
#X connect 15 0 20 0;
#X connect 16 0 4 0;
#X connect 18 0 8 0;
#X connect 19 0 12 0;
#X connect 19 1 15 0;
#X connect 19 1 25 0;
#X connect 20 0 17 0;
#X connect 20 1 2 0;
#X connect 22 0 21 0;
#X connect 23 0 7 0;
#X connect 24 0 28 0;
#X connect 26 0 27 0;
#X connect 27 0 29 0;
#X connect 28 0 13 0;
#X connect 29 0 14 0;
#X connect 30 0 22 0;
#X connect 30 1 23 0;
#X connect 30 2 7 0;
#X connect 30 3 31 0;
#X connect 31 0 21 0;
#X connect 32 0 6 0;
#X connect 32 1 37 0;
#X connect 33 0 1 0;
#X connect 34 1 36 0;
#X connect 35 0 33 0;
#X connect 36 0 35 0;
#X connect 37 0 34 0;
#X connect 39 0 24 1;
#X connect 39 0 27 2;
#X connect 40 0 26 0;
#X connect 40 1 24 0;
#X connect 40 1 27 1;
#X restore 158 112 pd init;
#N canvas 399 308 451 338 zero-padding 0;
#N canvas 0 22 450 278 (subpatch) 0;
#X array \$0-square 512 float 2;
#X coords 0 1 512 -1 200 140 1;
#X restore 231 98 graph;
#X obj 58 144 else/loop;
#X obj 58 196 s \$0-square;
#X msg 58 170 \$1 1;
#X obj 57 229 tabreceive~ \$0-square, f 22;
#X obj 57 259 outlet~;
#X obj 135 104 s \$0-square;
#X msg 135 78 resize \$1;
#X obj 58 84 t f f;
#X obj 58 50 r \$0-size;
#X obj 58 113 * 0.5;
#X connect 1 0 3 0;
#X connect 3 0 2 0;
#X connect 4 0 5 0;
#X connect 7 0 6 0;
#X connect 8 0 10 0;
#X connect 8 1 7 0;
#X connect 9 0 8 0;
#X connect 10 0 1 0;
#X restore 90 79 pd zero-padding;
#X connect 0 0 1 0;
#X connect 1 0 3 0;
#X connect 1 1 4 0;
#X connect 2 0 0 0;
#X connect 6 0 0 1;
#X restore 100 151 pd fft;
#X obj 173 85 r \$0-block;
#X obj 173 111 block~;
#X obj 265 94 namecanvas \$0-patch;
#N canvas 0 23 450 300 ifft 0;
#X obj 130 41 inlet~;
#X obj 217 41 inlet~;
#X obj 153 146 *~ 0;
#X obj 210 166 expr 1 / $f1;
#X obj 210 143 else/blocksize~;
#X obj 153 101 rifft~;
#X obj 153 211 outlet~;
#X connect 0 0 5 0;
#X connect 1 0 5 1;
#X connect 2 0 6 0;
#X connect 3 0 2 1;
#X connect 4 0 3 0;
#X connect 5 0 2 0;
#X restore 100 259 pd ifft;
#X obj 100 299 outlet~;
#X connect 0 0 1 0;
#X connect 2 0 3 0;
#X connect 5 0 6 0;
