#N canvas 788 56 555 330 12;
#X obj 81 211 *;
#X obj 81 264 outlet;
#X obj 81 63 inlet;
#X text 230 173 Part of ELSE \; https://github.com/porres/pd-else;
#X text 232 154 Alexandre Torres Porres (2021);
#X obj 128 211 / 180;
#X obj 128 181 else/pi;
#X obj 81 107 f;
#N canvas 721 198 381 437 init 0;
#X obj 148 193 route bang;
#X obj 94 165 route float -neg;
#X obj 183 235 b;
#X obj 147 329 outlet;
#X obj 79 329 outlet;
#X obj 92 38 loadbang;
#X obj 93 132 else/break -;
#X obj 92 83 pdcontrol;
#X msg 92 61 args;
#X msg 148 291 1;
#X connect 0 0 9 0;
#X connect 0 1 2 0;
#X connect 0 1 1 0;
#X connect 1 0 4 0;
#X connect 1 1 0 0;
#X connect 2 0 9 0;
#X connect 5 0 8 0;
#X connect 6 0 1 0;
#X connect 7 0 6 0;
#X connect 8 0 7 0;
#X connect 9 0 3 0;
#X restore 120 104 pd init;
#N canvas 859 400 450 300 gate 0;
#X obj 86 158 else/wrap2 0 360;
#X obj 88 84 else/router;
#X obj 310 110 else/wrap2 0 360;
#X obj 265 163 else/wrap2 -360 0;
#X obj 238 118 moses;
#X obj 167 52 inlet;
#X obj 88 51 inlet;
#X obj 169 217 outlet;
#X connect 0 0 7 0;
#X connect 1 0 0 0;
#X connect 1 1 4 0;
#X connect 2 0 7 0;
#X connect 3 0 7 0;
#X connect 4 0 3 0;
#X connect 4 1 2 0;
#X connect 5 0 1 1;
#X connect 6 0 1 0;
#X restore 81 144 pd gate;
#X connect 0 0 1 0;
#X connect 2 0 7 0;
#X connect 5 0 0 1;
#X connect 6 0 5 0;
#X connect 7 0 9 0;
#X connect 8 0 7 1;
#X connect 8 1 9 1;
#X connect 9 0 0 0;
