#N struct 1012-slot float x float y float slotsize float color float
width float bordercolor;
#N canvas 521 281 844 445 10;
#X obj 59 15 inlet;
#N canvas 64 320 854 454 \$0-paint 0;
#X scalar 1012-slot 0 0 19 999 1 0 \;;
#X scalar 1012-slot 0 20 19 445 1 0 \;;
#X scalar 1012-slot 20 0 19 445 1 0 \;;
#X scalar 1012-slot 20 20 19 999 1 0 \;;
#X scalar 1012-slot 40 0 19 999 1 0 \;;
#X scalar 1012-slot 40 20 19 999 1 0 \;;
#X scalar 1012-slot 60 0 19 999 4 0 \;;
#X scalar 1012-slot 60 20 19 445 4 0 \;;
#X coords 0 39 79 0 79 39 2 150 150;
#X restore 151 151 pd \$0-paint;
#X obj 59 231 outlet;
#N canvas 819 164 560 264 guts 0;
#X obj 81 26 inlet;
#N canvas 361 345 581 577 \$0-slot 0;
#X obj 73 135 v size_\$0;
#X obj 73 162 - 1;
#X obj 73 188 set \$0-slot slotsize;
#X obj 223 272 expr $f1 / size_\$0 \; tracks_\$0 - 1 - $f2 / size_\$0
;
#X obj 223 178 spigot 1;
#X msg 268 155 0;
#X msg 302 174 1;
#X obj 302 150 del 100;
#X obj 223 242 get \$0-slot x y;
#X obj 250 444 set \$0-slot color, f 31;
#X obj 73 106 select change;
#X obj 223 334 expr seq_\$0[$f1] = (seq_\$0[$f1] == 0), f 19;
#X obj 196 103 t b p;
#X obj 73 79 unpack symbol pointer;
#X obj 223 309 expr $f1 + $f2 * slots_\$0;
#X obj 223 469 array get seq_\$0, f 17;
#X obj 223 513 s \$0-set-array;
#X obj 223 211 trigger pointer pointer, f 31;
#X obj 223 420 t b f;
#X obj 73 42 struct \$0-slot float x float y float slotsize float color
float width float bordercolor;
#X obj 251 86 filledpolygon color bordercolor width 0 0 slotsize 0
slotsize slotsize 0 slotsize, f 41;
#X obj 223 375 expr if($f1 \, on_color_\$0 \, off_color_\$0), f 13
;
#X connect 0 0 1 0;
#X connect 1 0 2 0;
#X connect 3 0 14 0;
#X connect 3 1 14 1;
#X connect 4 0 17 0;
#X connect 5 0 4 1;
#X connect 6 0 4 1;
#X connect 7 0 6 0;
#X connect 8 0 3 0;
#X connect 8 1 3 1;
#X connect 10 0 0 0;
#X connect 11 0 21 0;
#X connect 12 0 5 0;
#X connect 12 0 7 0;
#X connect 12 1 2 1;
#X connect 12 1 4 0;
#X connect 13 0 10 0;
#X connect 13 1 12 0;
#X connect 14 0 11 0;
#X connect 15 0 16 0;
#X connect 17 0 8 0;
#X connect 17 1 9 1;
#X connect 18 0 15 0;
#X connect 18 1 9 0;
#X connect 19 0 13 0;
#X connect 21 0 18 0;
#X restore 104 107 pd \$0-slot;
#X obj 82 141 array define seq_\$0;
#N canvas 861 533 546 396 set 0;
#X obj 72 18 inlet;
#N canvas 618 214 981 364 float 0;
#X obj 475 281 pack;
#X obj 469 222 t f f;
#X obj 53 142 else/loop;
#X obj 53 111 v tracks_\$0;
#X obj 347 294 r \$0-pointer-list;
#X obj 272 321 list store, f 13;
#X msg 272 296 get \$1 1;
#X obj 53 6 inlet;
#X obj 614 197 else/loop;
#X obj 614 175 v tracks_\$0;
#X obj 821 245 r \$0-pointer-list;
#X obj 752 269 list store, f 12;
#X msg 752 245 get \$1 1;
#X obj 53 85 trigger bang float, f 37;
#X obj 475 308 s \$0-out;
#X obj 614 154 trigger bang float;
#X obj 581 298 set \$0-slot width bordercolor;
#X obj 614 225 expr 1 \; 0 \; $f2 * tracks_\$0 + tracks_\$0 - 1 - $f1
, f 18;
#X obj 77 304 set \$0-slot width bordercolor;
#X obj 496 244 expr seq_\$0[$f1 * slots_\$0 + $f2], f 17;
#X obj 614 129 else/lastvalue;
#X obj 53 205 pack f 500;
#X obj 128 217 pack f 0;
#X obj 53 248 expr 4 \; $f2 \; $f3 * tracks_\$0 + tracks_\$0 - 1 -
$f1;
#X obj 53 56 clip 0;
#X obj 117 36 r \$0-set-slots;
#X obj 117 56 - 1;
#X obj 128 196 pipe 150;
#X obj 53 31 - 1;
#X obj 460 250 + 1;
#X connect 0 0 14 0;
#X connect 1 0 29 0;
#X connect 1 1 19 0;
#X connect 2 0 1 0;
#X connect 2 0 21 0;
#X connect 2 0 27 0;
#X connect 3 0 2 0;
#X connect 4 0 5 1;
#X connect 5 0 18 2;
#X connect 6 0 5 0;
#X connect 7 0 28 0;
#X connect 8 0 17 0;
#X connect 9 0 8 0;
#X connect 10 0 11 1;
#X connect 11 0 16 2;
#X connect 12 0 11 0;
#X connect 13 0 3 0;
#X connect 13 1 19 1;
#X connect 13 1 20 0;
#X connect 13 1 23 2;
#X connect 15 0 9 0;
#X connect 15 1 17 1;
#X connect 17 0 16 0;
#X connect 17 1 16 1;
#X connect 17 2 12 0;
#X connect 19 0 0 1;
#X connect 20 0 15 0;
#X connect 21 0 23 0;
#X connect 22 0 23 0;
#X connect 23 0 18 0;
#X connect 23 1 18 1;
#X connect 23 2 6 0;
#X connect 24 0 13 0;
#X connect 25 0 26 0;
#X connect 26 0 24 2;
#X connect 27 0 22 0;
#X connect 28 0 24 0;
#X connect 29 0 0 0;
#X restore 297 154 pd float;
#N canvas 601 63 481 447 size 0;
#X obj 212 225 t b f;
#X obj 211 315 s \$0-redraw;
#X obj 212 68 inlet;
#X obj 212 102 clip 1 512;
#X obj 239 278 v size_\$0;
#X obj 256 254 s \$0-set-size;
#X obj 118 302 s \$0-parent;
#X msg 118 273 dirty 1;
#X obj 212 196 change;
#X msg 267 159 set \$1;
#X obj 212 142 t f b;
#X obj 267 134 v size_\$0;
#X connect 0 0 1 0;
#X connect 0 1 4 0;
#X connect 0 1 5 0;
#X connect 2 0 3 0;
#X connect 3 0 10 0;
#X connect 7 0 6 0;
#X connect 8 0 0 0;
#X connect 8 0 7 0;
#X connect 9 0 8 0;
#X connect 10 0 8 0;
#X connect 10 1 11 0;
#X connect 11 0 9 0;
#X restore 178 218 pd size;
#N canvas 199 76 409 279 clear 0;
#X obj 239 142 s seq_\$0;
#X msg 239 116 const 0;
#X obj 124 129 array get seq_\$0, f 17;
#X obj 124 173 s \$0-set-array;
#X obj 111 84 trigger bang bang;
#X obj 111 53 inlet;
#X obj 111 202 s \$0-redraw;
#X connect 1 0 0 0;
#X connect 2 0 3 0;
#X connect 4 0 2 0;
#X connect 4 0 6 0;
#X connect 4 1 1 0;
#X connect 5 0 4 0;
#X restore 218 197 pd clear;
#N canvas 334 23 714 477 list 0;
#X obj 110 10 inlet;
#X obj 188 91 list;
#X obj 70 89 list length;
#X obj 70 112 == 3;
#X msg 70 208 input list needs to be = 3, f 15;
#X obj 324 292 list;
#X obj 70 136 sel 0 1;
#X obj 188 179 trigger list list;
#X msg 188 305 slot out of bounds;
#X obj 188 207 expr $f1 < tracks_\$0 && $f2 < slots_\$0, f 14;
#X obj 188 342 print [drum.seq];
#X obj 562 317 r \$0-pointer-list;
#X obj 402 368 set \$0-slot color;
#X obj 501 342 list store;
#X msg 501 317 get \$1 1;
#X obj 324 403 array get seq_\$0, f 17;
#X obj 324 437 s \$0-set-array;
#X obj 324 316 t b l;
#X obj 383 271 expr if($f3 \, on_color_\$0 \, off_color_\$0) \; $f2
* tracks_\$0 + tracks_\$0 - 1 - $f1 \; seq_\$0[$f2 + $f1 * slots_\$0]
= $f3;
#X obj 188 252 select 0 1;
#X obj 110 49 trigger list list;
#X obj 188 113 unpack f f f;
#X obj 188 134 - 1;
#X obj 222 134 - 1;
#X obj 188 155 pack f f f, f 12;
#X connect 0 0 20 0;
#X connect 1 0 21 0;
#X connect 2 0 3 0;
#X connect 3 0 6 0;
#X connect 4 0 10 0;
#X connect 5 0 17 0;
#X connect 6 0 4 0;
#X connect 6 1 1 0;
#X connect 7 0 9 0;
#X connect 7 1 5 1;
#X connect 8 0 10 0;
#X connect 9 0 19 0;
#X connect 11 0 13 1;
#X connect 13 0 12 1;
#X connect 14 0 13 0;
#X connect 15 0 16 0;
#X connect 17 0 15 0;
#X connect 17 1 18 0;
#X connect 18 0 12 0;
#X connect 18 1 14 0;
#X connect 19 0 8 0;
#X connect 19 1 5 0;
#X connect 20 0 2 0;
#X connect 20 1 1 1;
#X connect 21 0 22 0;
#X connect 21 1 23 0;
#X connect 21 2 24 2;
#X connect 22 0 24 0;
#X connect 23 0 24 1;
#X connect 24 0 7 0;
#X restore 257 176 pd list;
#N canvas 285 360 450 300 export 0;
#X obj 132 162 s \$0-out;
#X obj 132 98 array get seq_\$0;
#X obj 132 67 inlet;
#X obj 132 129 else/setmess export;
#X connect 1 0 3 0;
#X connect 2 0 1 0;
#X connect 3 0 0 0;
#X restore 337 133 pd export;
#N canvas 268 55 537 444 import 0;
#X obj 78 25 inlet;
#X obj 78 106 else/loop;
#X obj 78 154 v slots_\$0;
#X obj 78 84 v tracks_\$0;
#X obj 78 176 else/loop;
#X obj 344 225 + 1;
#X obj 314 224 f;
#X obj 314 256 tabread seq_\$0;
#X obj 78 202 t f b;
#X obj 375 317 r \$0-pointer-list;
#X obj 215 368 set \$0-slot color;
#X obj 314 342 list store;
#X msg 314 317 get \$1 1;
#X obj 78 59 else/trigger2 bang 0 bang list, f 35;
#X obj 285 82 array set seq_\$0;
#X obj 216 104 array get seq_\$0;
#X obj 78 130 trigger bang float;
#X obj 77 280 expr if($f3 \, on_color_\$0 \, off_color_\$0) \; $f1
* tracks_\$0 + tracks_\$0 - 1 - $f2;
#X connect 0 0 13 0;
#X connect 1 0 16 0;
#X connect 2 0 4 0;
#X connect 3 0 1 0;
#X connect 4 0 8 0;
#X connect 5 0 6 1;
#X connect 6 0 5 0;
#X connect 6 0 7 0;
#X connect 7 0 17 2;
#X connect 8 0 17 0;
#X connect 8 1 6 0;
#X connect 9 0 11 1;
#X connect 11 0 10 1;
#X connect 12 0 11 0;
#X connect 13 0 3 0;
#X connect 13 1 6 1;
#X connect 13 2 15 0;
#X connect 13 3 14 0;
#X connect 16 0 2 0;
#X connect 16 1 17 1;
#X connect 17 0 10 0;
#X connect 17 1 12 0;
#X restore 376 112 pd import;
#N canvas 487 301 450 300 embed 0;
#X obj 174 33 inlet;
#X obj 184 197 v embed_\$0;
#X obj 174 223 s \$0-embed;
#X obj 97 255 s \$0-parent;
#X msg 97 226 dirty 1;
#X obj 174 66 != 0;
#X obj 174 153 change;
#X msg 229 110 set \$1;
#X obj 174 93 t f b;
#X obj 229 85 v embed_\$0;
#X connect 0 0 5 0;
#X connect 4 0 3 0;
#X connect 5 0 8 0;
#X connect 6 0 1 0;
#X connect 6 0 2 0;
#X connect 6 0 4 0;
#X connect 7 0 6 0;
#X connect 8 0 6 0;
#X connect 8 1 9 0;
#X connect 9 0 7 0;
#X restore 416 90 pd embed;
#X obj 72 40 t b a;
#X obj 72 292 s \$0-set-arguments;
#N canvas 465 77 424 447 tracks 0;
#X obj 137 182 change;
#X obj 137 232 t b f;
#X obj 137 322 s \$0-redraw;
#X obj 137 55 inlet;
#X obj 137 92 clip 1 512;
#X obj 164 285 v tracks_\$0;
#X obj 176 258 s \$0-set-tracks;
#X obj 42 294 s \$0-parent;
#X msg 42 265 dirty 1;
#X obj 192 120 v tracks_\$0;
#X msg 192 145 set \$1;
#X obj 137 128 t f b;
#X connect 0 0 1 0;
#X connect 0 0 8 0;
#X connect 1 0 2 0;
#X connect 1 1 5 0;
#X connect 1 1 6 0;
#X connect 3 0 4 0;
#X connect 4 0 11 0;
#X connect 8 0 7 0;
#X connect 9 0 10 0;
#X connect 10 0 0 0;
#X connect 11 0 0 0;
#X connect 11 1 9 0;
#X restore 99 260 pd tracks;
#N canvas 648 123 559 481 slots 0;
#X obj 209 335 v slots_\$0;
#X obj 182 240 change;
#X obj 182 280 t b f;
#X obj 181 370 s \$0-redraw;
#X obj 182 93 inlet;
#X obj 182 117 clip 1 512;
#X obj 221 307 s \$0-set-slots;
#X obj 99 329 s \$0-parent;
#X msg 99 300 dirty 1;
#X msg 246 197 set \$1;
#X obj 191 180 t f b;
#X obj 246 172 v slots_\$0;
#X connect 1 0 2 0;
#X connect 1 0 8 0;
#X connect 2 0 3 0;
#X connect 2 1 0 0;
#X connect 2 1 6 0;
#X connect 4 0 5 0;
#X connect 5 0 10 0;
#X connect 8 0 7 0;
#X connect 9 0 1 0;
#X connect 10 0 1 0;
#X connect 10 1 11 0;
#X connect 11 0 9 0;
#X restore 138 239 pd slots;
#X obj 99 65 route tracks slots size clear list float export import
embed;
#X connect 0 0 8 0;
#X connect 8 0 9 0;
#X connect 8 1 12 0;
#X connect 12 0 10 0;
#X connect 12 1 11 0;
#X connect 12 2 2 0;
#X connect 12 3 3 0;
#X connect 12 4 4 0;
#X connect 12 5 1 0;
#X connect 12 6 5 0;
#X connect 12 7 6 0;
#X connect 12 8 7 0;
#X restore 81 74 pd set;
#N canvas 159 359 489 359 init 0;
#X obj 381 90 v on_color_\$0;
#X obj 346 116 v off_color_\$0;
#X obj 228 209 list split 15;
#X obj 279 235 s \$0-set-array-arg;
#X obj 292 288 array set seq_\$0;
#N canvas 901 187 547 431 set 0;
#X obj 84 127 else/loop;
#X obj 85 183 v slots_\$0;
#X obj 84 100 v tracks_\$0;
#X obj 85 211 else/loop;
#X obj 352 221 + 1;
#X obj 322 221 f;
#X obj 322 243 tabread seq_\$0;
#X obj 84 75 else/trigger2 bang 0;
#X obj 85 239 t f b;
#X obj 84 33 inlet;
#X obj 383 306 r \$0-pointer-list;
#X obj 223 357 set \$0-slot color;
#X obj 322 331 list store;
#X msg 322 306 get \$1 1;
#X obj 85 268 expr if($f3 \, on_color_\$0 \, off_color_\$0) \; $f1
* tracks_\$0 + tracks_\$0 - 1 - $f2;
#X obj 84 157 trigger bang float;
#X obj 369 83 v tracks_\$0;
#X obj 365 39 bng 15 250 50 0 empty empty empty 17 7 0 10 -262144 -1
-1;
#X floatatom 368 112 5 0 0 0 - - -;
#X connect 0 0 15 0;
#X connect 1 0 3 0;
#X connect 2 0 0 0;
#X connect 3 0 8 0;
#X connect 4 0 5 1;
#X connect 5 0 4 0;
#X connect 5 0 6 0;
#X connect 6 0 14 2;
#X connect 7 0 2 0;
#X connect 7 1 5 1;
#X connect 8 0 14 0;
#X connect 8 1 5 0;
#X connect 9 0 7 0;
#X connect 10 0 12 1;
#X connect 12 0 11 1;
#X connect 13 0 12 0;
#X connect 14 0 11 0;
#X connect 14 1 13 0;
#X connect 15 0 1 0;
#X connect 15 1 14 1;
#X connect 16 0 18 0;
#X connect 17 0 16 0;
#X restore 265 311 pd set;
#X obj 265 260 t b l;
#X obj 228 179 list;
#X msg 346 90 999;
#X msg 381 66 445;
#X msg 285 90 2 8 20;
#X obj 206 126 route bang list;
#N canvas 730 299 1045 571 arg-list 0;
#X obj 111 262 clip 1 512;
#X obj 80 313 *;
#X obj 80 372 array size seq_\$0;
#X obj 306 311 v size_\$0;
#X obj 295 285 clip 8 100;
#X obj 122 323 v tracks_\$0;
#X obj 217 288 v slots_\$0;
#X obj 295 336 s \$0-set-size;
#X obj 162 58 inlet;
#X obj 204 310 s \$0-set-slots;
#X obj 111 349 s \$0-set-tracks;
#X obj 385 210 v embed_\$0;
#X obj 501 278 s \$0-set-array;
#X obj 549 229 array size seq_\$0;
#X obj 549 201 list length;
#X obj 501 210 t l l;
#X obj 515 252 array set seq_\$0;
#X obj 290 207 t f f, f 13;
#X obj 464 176 list split 11;
#X obj 204 262 clip 2 512;
#X obj 290 234 s \$0-set-embed;
#X obj 123 127 list split 4;
#X obj 123 161 unpack f f f f;
#X connect 0 0 1 0;
#X connect 0 0 5 0;
#X connect 0 0 10 0;
#X connect 1 0 2 0;
#X connect 4 0 3 0;
#X connect 4 0 7 0;
#X connect 8 0 21 0;
#X connect 14 0 13 0;
#X connect 15 0 16 0;
#X connect 15 0 12 0;
#X connect 15 1 14 0;
#X connect 17 0 20 0;
#X connect 17 1 11 0;
#X connect 18 1 15 0;
#X connect 19 0 1 1;
#X connect 19 0 6 0;
#X connect 19 0 9 0;
#X connect 21 0 22 0;
#X connect 21 1 18 0;
#X connect 21 2 22 0;
#X connect 22 0 0 0;
#X connect 22 1 19 0;
#X connect 22 2 4 0;
#X connect 22 3 17 0;
#X restore 269 179 pd arg-list;
#X obj 206 90 else/args -;
#N canvas 295 23 653 302 flags 0;
#X obj 169 138 clip 1 512;
#X obj 91 128 clip 1 512;
#X obj 43 174 *;
#X obj 43 222 array size seq_\$0;
#X obj 290 190 v size_\$0;
#X obj 279 163 clip 8 100;
#X obj 328 103 v embed_\$0;
#X obj 91 178 v tracks_\$0;
#X obj 179 175 v slots_\$0;
#X obj 279 215 s \$0-set-size;
#X obj 92 44 inlet;
#X msg 238 101 1;
#X obj 92 75 route -tracks -slots -size -embed;
#X obj 277 104 t f f;
#X obj 169 196 s \$0-set-slots;
#X obj 67 199 s \$0-set-tracks;
#X obj 277 128 s \$0-set-embed;
#X connect 0 0 2 1;
#X connect 0 0 8 0;
#X connect 0 0 14 0;
#X connect 1 0 2 0;
#X connect 1 0 7 0;
#X connect 1 0 15 0;
#X connect 2 0 3 0;
#X connect 5 0 4 0;
#X connect 5 0 9 0;
#X connect 10 0 12 0;
#X connect 11 0 13 0;
#X connect 12 0 1 0;
#X connect 12 1 0 0;
#X connect 12 2 5 0;
#X connect 12 3 11 0;
#X connect 13 0 16 0;
#X connect 13 1 6 0;
#X restore 293 150 pd flags;
#X obj 127 237 t b b;
#N canvas 406 149 940 514 draw_sequencer 0;
#X obj 422 280 pointer;
#X obj 119 314 f;
#X obj 184 248 v size_\$0;
#X obj 134 292 *;
#X obj 169 292 *;
#X obj 220 292 - 1;
#X obj 63 124 v slots_\$0;
#X obj 63 193 v tracks_\$0;
#X obj 63 147 else/loop;
#X obj 90 259 t b f;
#X obj 90 238 else/loop;
#X obj 477 136 expr slots_\$0 * size_\$0 - 1 \; tracks_\$0 * size_\$0
-1;
#X obj 540 240 s pd-\$0-paint;
#X obj 477 172 pack float float;
#X obj 63 26 inlet;
#X obj 489 413 s \$0-this-patch;
#X obj 477 224 unpack;
#X obj 477 250 + 2;
#X obj 510 249 + 2;
#X obj 489 276 pack;
#X obj 477 198 t l l;
#X obj 63 436 s \$0-pointer-list;
#X obj 564 110 s \$0-clear-list;
#X obj 120 387 r \$0-clear-list;
#X msg 540 205 clear \, donecanvasdialog 1 -1 3 0 \$2 \$1 0 \$1 \$2
150 150 \, dirty 0;
#X msg 489 375 donecanvasdialog 1 -1 3 0 \$2 \$1 0 \$1 \$2 150 150
\, dirty 0, f 48;
#X obj 63 408 list store;
#X msg 119 362 append \$1;
#X obj 63 217 t b f;
#X obj 63 170 trigger bang float, f 20;
#X msg 370 269 1;
#X obj 119 337 append \$0-slot x y slotsize color width bordercolor
;
#X msg 371 301 0;
#X obj 262 282 v off_color_\$0;
#X msg 364 183 traverse pd-\$1-paint \, bang, f 12;
#X obj 262 196 b;
#X obj 63 87 else/trigger2 bang bang \$0 bang bang, f 84;
#X obj 489 296 t b l;
#X obj 489 321 del 0;
#X obj 489 349 else/message;
#X connect 0 0 31 6;
#X connect 1 0 31 0;
#X connect 2 0 5 0;
#X connect 2 0 4 1;
#X connect 2 0 3 1;
#X connect 3 0 1 1;
#X connect 4 0 31 1;
#X connect 5 0 31 2;
#X connect 6 0 8 0;
#X connect 7 0 28 0;
#X connect 8 0 29 0;
#X connect 9 0 1 0;
#X connect 9 1 4 0;
#X connect 10 0 9 0;
#X connect 11 0 13 0;
#X connect 11 1 13 1;
#X connect 13 0 20 0;
#X connect 14 0 36 0;
#X connect 16 0 17 0;
#X connect 16 1 18 0;
#X connect 17 0 19 0;
#X connect 18 0 19 1;
#X connect 19 0 37 0;
#X connect 20 0 16 0;
#X connect 20 1 24 0;
#X connect 23 0 26 1;
#X connect 24 0 12 0;
#X connect 25 0 15 0;
#X connect 26 0 21 0;
#X connect 27 0 26 0;
#X connect 28 0 26 0;
#X connect 28 1 10 0;
#X connect 29 0 7 0;
#X connect 29 1 3 0;
#X connect 30 0 31 4;
#X connect 31 0 27 0;
#X connect 32 0 31 5;
#X connect 33 0 31 3;
#X connect 34 0 0 0;
#X connect 35 0 33 0;
#X connect 35 0 2 0;
#X connect 35 0 32 0;
#X connect 35 0 30 0;
#X connect 36 0 6 0;
#X connect 36 1 35 0;
#X connect 36 2 34 0;
#X connect 36 3 11 0;
#X connect 36 4 22 0;
#X connect 37 0 38 0;
#X connect 37 1 39 1;
#X connect 38 0 39 0;
#X connect 39 0 25 0;
#X restore 154 260 pd draw_sequencer;
#N canvas 224 81 474 251 draw-border 0;
#X obj 112 99 else/loop;
#X obj 112 67 v tracks_\$0;
#X obj 328 144 r \$0-pointer-list;
#X obj 253 169 list store, f 13;
#X msg 253 144 get \$1 1;
#X obj 112 42 inlet;
#X obj 82 194 set \$0-slot width bordercolor;
#X obj 112 132 expr 4 \; 0 \; tracks_\$0 - 1 - $f1;
#X connect 0 0 7 0;
#X connect 1 0 0 0;
#X connect 2 0 3 1;
#X connect 3 0 6 2;
#X connect 4 0 3 0;
#X connect 5 0 1 0;
#X connect 7 0 6 0;
#X connect 7 1 6 1;
#X connect 7 2 4 0;
#X restore 127 290 pd draw-border;
#X obj 140 209 r \$0-redraw;
#N canvas 630 220 700 664 set 0;
#X obj 307 489 outlet;
#X obj 149 137 r \$0-set-slots;
#X obj 96 114 r \$0-set-tracks;
#X obj 199 159 r \$0-set-size;
#X obj 407 244 else/changed;
#X obj 307 412 list append, f 14;
#X obj 422 218 r \$0-set-array;
#X obj 500 254 r \$0-set-array-arg;
#X obj 313 343 v embed_\$0;
#X obj 388 160 r \$0-embed;
#X obj 307 454 else/changed;
#X msg 96 137 set \$1;
#X msg 149 161 set \$1;
#X msg 199 183 set \$1;
#X msg 339 190 set \$1;
#X obj 313 368 sel 0;
#X obj 77 84 r \$0-set-arguments;
#X obj 407 278 route list;
#X obj 463 335 b;
#X obj 388 190 sel 0 1;
#X obj 77 253 else/pack2 3 3 20 0 0 0 0 0 0 0 0 0 0 0 0, f 49;
#X obj 463 362 array get seq_\$0;
#X obj 463 390 s \$0-set-array-arg;
#X obj 339 132 r \$0-set-embed;
#X obj 407 305 t b b l;
#X connect 1 0 12 0;
#X connect 2 0 11 0;
#X connect 3 0 13 0;
#X connect 4 0 17 0;
#X connect 5 0 10 0;
#X connect 6 0 4 0;
#X connect 7 0 4 1;
#X connect 7 0 5 1;
#X connect 8 0 15 0;
#X connect 9 0 14 0;
#X connect 9 0 19 0;
#X connect 10 0 0 0;
#X connect 11 0 20 0;
#X connect 12 0 20 1;
#X connect 13 0 20 2;
#X connect 14 0 20 3;
#X connect 15 0 5 1;
#X connect 16 0 20 0;
#X connect 17 0 24 0;
#X connect 17 1 18 0;
#X connect 18 0 21 0;
#X connect 19 0 5 1;
#X connect 19 1 4 0;
#X connect 20 0 5 0;
#X connect 21 0 22 0;
#X connect 23 0 14 0;
#X connect 24 0 20 0;
#X connect 24 1 8 0;
#X connect 24 2 5 1;
#X restore 216 68 pd set;
#X obj 48 37 else/loadbanger -init 4, f 40;
#X connect 2 1 3 0;
#X connect 2 1 6 0;
#X connect 6 0 5 0;
#X connect 6 1 4 0;
#X connect 7 0 2 0;
#X connect 8 0 1 0;
#X connect 9 0 0 0;
#X connect 10 0 11 0;
#X connect 11 1 7 1;
#X connect 11 1 12 0;
#X connect 11 2 14 0;
#X connect 13 0 11 0;
#X connect 15 0 17 0;
#X connect 15 1 16 0;
#X connect 18 0 15 0;
#X connect 19 0 13 0;
#X connect 20 0 7 0;
#X connect 20 1 15 0;
#X connect 20 2 13 0;
#X connect 20 3 10 0;
#X connect 20 3 8 0;
#X connect 20 3 9 0;
#X restore 148 74 pd init;
#X obj 264 85 else/canvas.setname \$0-this-patch 1;
#X obj 264 110 else/canvas.setname \$0-parent 2;
#X connect 0 0 3 0;
#X restore 59 72 pd guts;
#X text 145 60 Part of ELSE \; https://github.com/porres/pd-else;
#X obj 59 164 r \$0-out;
#X text 146 41 Alexandre Torres Porres (2019);
#X connect 0 0 3 0;
#X connect 5 0 2 0;
#X coords 0 41 81 0 81 41 2 150 150;
