#N struct 1052-cell float x float y float cellsize float color float
width float bordercolor;
#N canvas 447 181 993 645 10;
#X obj 59 15 inlet;
#N canvas 64 320 854 454 \$0-paint 0;
#X scalar 1052-cell 0 0 19 999 4 500 \;;
#X scalar 1052-cell 0 20 19 445 4 500 \;;
#X scalar 1052-cell 20 0 19 445 1 0 \;;
#X scalar 1052-cell 20 20 19 999 1 0 \;;
#X scalar 1052-cell 40 0 19 999 1 0 \;;
#X scalar 1052-cell 40 20 19 999 1 0 \;;
#X scalar 1052-cell 60 0 19 999 1 0 \;;
#X scalar 1052-cell 60 20 19 445 1 0 \;;
#X coords 0 39 79 0 79 39 2 150 150;
#X restore 151 151 pd \$0-paint;
#X obj 59 600 outlet;
#N canvas 702 208 275 199 guts 0;
#X obj 51 24 inlet;
#X obj 51 156 outlet;
#N canvas 506 171 814 651 \$0-cell 0;
#X obj 345 143 v size_\$0;
#X obj 345 170 - 1;
#X obj 345 196 set \$0-cell cellsize;
#X obj 495 280 expr $f1 / size_\$0 \; row_\$0 - 1 - $f2 / size_\$0
;
#X obj 39 21 inlet;
#X obj 278 336 r \$0-pointer-list;
#X msg 128 197 \$3;
#X obj 495 592 outlet;
#X obj 128 219 sel 1 0;
#X obj 118 387 set \$0-cell color;
#X obj 64 167 trigger list list list;
#X obj 217 361 list store;
#X msg 217 336 get \$1 1;
#X obj 495 186 spigot 1;
#X msg 540 163 0;
#X msg 574 182 1;
#X obj 574 158 del 100;
#X obj 495 250 get \$0-cell x y;
#X obj 522 452 set \$0-cell color, f 24;
#X obj 345 114 select change;
#X obj 495 342 expr mtx_\$0[$f1] = (mtx_\$0[$f1] == 0), f 19;
#X obj 468 111 t b p;
#X obj 345 87 unpack symbol pointer;
#X obj 104 260 v on_color_\$0;
#X obj 95 303 v off_color_\$0;
#X obj 495 317 expr $f1 + $f2 * column_\$0;
#X obj 495 563 r \$0-out;
#X obj 36 504 array get mtx_\$0, f 17;
#X obj 36 548 s \$0-set-array;
#X obj 38 127 t b l;
#X obj 495 383 expr if($f1 == 1 \, on_color_\$0 \, off_color_\$0),
f 17;
#X obj 495 219 trigger pointer pointer, f 31;
#X obj 495 428 t b f;
#X obj 345 50 struct \$0-cell float x float y float cellsize float
color float width float bordercolor;
#X obj 523 94 filledpolygon color bordercolor width 0 0 cellsize 0
cellsize cellsize 0 cellsize, f 41;
#X obj 217 299 expr $f2 * row_\$0 + row_\$0 - 1 - $f1 \; mtx_\$0[$f2
+ $f1 * column_\$0] = $f3;
#X connect 0 0 1 0;
#X connect 1 0 2 0;
#X connect 3 0 25 0;
#X connect 3 1 25 1;
#X connect 4 0 29 0;
#X connect 5 0 11 1;
#X connect 6 0 8 0;
#X connect 8 0 23 0;
#X connect 8 1 24 0;
#X connect 10 1 6 0;
#X connect 10 2 35 0;
#X connect 11 0 9 1;
#X connect 12 0 11 0;
#X connect 13 0 31 0;
#X connect 14 0 13 1;
#X connect 15 0 13 1;
#X connect 16 0 15 0;
#X connect 17 0 3 0;
#X connect 17 1 3 1;
#X connect 19 0 0 0;
#X connect 20 0 30 0;
#X connect 21 0 14 0;
#X connect 21 0 16 0;
#X connect 21 1 2 1;
#X connect 21 1 13 0;
#X connect 22 0 19 0;
#X connect 22 1 21 0;
#X connect 23 0 9 0;
#X connect 24 0 9 0;
#X connect 25 0 20 0;
#X connect 26 0 7 0;
#X connect 27 0 28 0;
#X connect 29 0 27 0;
#X connect 29 1 10 0;
#X connect 30 0 32 0;
#X connect 31 0 17 0;
#X connect 31 1 18 1;
#X connect 32 0 27 0;
#X connect 32 1 18 0;
#X connect 33 0 22 0;
#X connect 35 0 12 0;
#X restore 51 88 pd \$0-cell;
#N canvas 598 278 780 560 loadbang 0;
#X obj 312 429 outlet;
#X obj 603 122 v on_color_\$0;
#X obj 503 119 v off_color_\$0;
#X obj 392 142 else/args;
#X obj 341 53 else/loadbanger 3;
#X obj 392 167 route bang;
#X obj 483 246 clip 1 512;
#X obj 405 246 clip 1 512;
#X obj 406 314 *;
#X obj 406 336 array size mtx_\$0;
#X obj 566 272 v size_\$0;
#X obj 556 246 clip 8 100;
#X obj 98 213 list split 15;
#X msg 356 344 set \$1;
#X msg 529 323 set \$1;
#X msg 591 297 set \$1;
#X obj 529 350 s \$0-set-row-arg;
#X obj 356 369 s \$0-set-column-arg;
#X obj 591 321 s \$0-set-size-arg;
#N canvas 856 265 561 533 setargs 0;
#X obj 196 474 outlet;
#X obj 209 136 r \$0-set-size-arg;
#X obj 127 35 r \$0-set-row-arg;
#X obj 174 81 r \$0-set-column-arg;
#X obj 181 101 r \$0-set-column;
#X obj 135 55 r \$0-set-row;
#X obj 215 156 r \$0-set-size;
#X obj 156 278 else/pack2 3 3 20 0 0 0 0 0 0 0 0 0 0 0 0;
#X obj 232 340 else/changed;
#X obj 196 397 list append;
#X obj 232 364 t b l;
#X obj 239 315 r \$0-set-array;
#X obj 325 360 r \$0-set-array-arg;
#X obj 68 302 v embed_\$0;
#X obj 227 185 r \$0-embed-arg;
#X obj 234 209 r \$0-embed;
#X obj 232 229 t b f;
#X obj 68 327 sel 1 0;
#X obj 88 355 t b b;
#X obj 196 439 else/changed;
#X connect 1 0 7 2;
#X connect 2 0 7 0;
#X connect 3 0 7 1;
#X connect 4 0 7 1;
#X connect 5 0 7 0;
#X connect 6 0 7 2;
#X connect 7 0 9 0;
#X connect 8 0 10 0;
#X connect 9 0 19 0;
#X connect 10 0 13 0;
#X connect 10 1 9 1;
#X connect 11 0 8 0;
#X connect 12 0 8 1;
#X connect 12 0 9 1;
#X connect 13 0 17 0;
#X connect 14 0 7 3;
#X connect 15 0 16 0;
#X connect 16 0 8 0;
#X connect 16 1 7 4;
#X connect 17 0 7 0;
#X connect 17 1 18 0;
#X connect 18 0 7 0;
#X connect 18 1 9 1;
#X connect 19 0 0 0;
#X restore 412 116 pd setargs;
#X obj 153 257 s \$0-set-array-arg;
#X obj 192 301 array set mtx_\$0;
#N canvas 318 31 510 650 set 0;
#X obj 120 146 else/loop;
#X obj 121 202 v column_\$0;
#X obj 120 119 v row_\$0;
#X obj 122 230 else/loop;
#X obj 230 261 + 1;
#X obj 200 261 f;
#X obj 200 303 tabread mtx_\$0;
#X obj 122 304 pack f f f;
#X obj 120 94 else/trigger2 bang 0;
#X obj 120 176 trigger b f;
#X obj 122 258 t f b;
#X obj 198 282 t f f;
#X obj 120 52 inlet;
#X obj 282 504 r \$0-pointer-list;
#X msg 122 365 \$3;
#X obj 122 387 sel 1 0;
#X obj 122 555 set \$0-cell color;
#X obj 221 529 list store;
#X msg 221 504 get \$1 1;
#X obj 107 428 v on_color_\$0;
#X obj 98 471 v off_color_\$0;
#X obj 122 336 trigger list list;
#X obj 221 467 expr $f1 * row_\$0 + row_\$0 - 1 - $f2;
#X connect 0 0 9 0;
#X connect 1 0 3 0;
#X connect 2 0 0 0;
#X connect 3 0 10 0;
#X connect 4 0 5 1;
#X connect 5 0 4 0;
#X connect 5 0 11 0;
#X connect 6 0 7 2;
#X connect 7 0 21 0;
#X connect 8 0 2 0;
#X connect 8 1 5 1;
#X connect 9 0 1 0;
#X connect 9 1 7 1;
#X connect 10 0 7 0;
#X connect 10 1 5 0;
#X connect 11 0 6 0;
#X connect 12 0 8 0;
#X connect 13 0 17 1;
#X connect 14 0 15 0;
#X connect 15 0 19 0;
#X connect 15 1 20 0;
#X connect 17 0 16 1;
#X connect 18 0 17 0;
#X connect 19 0 16 0;
#X connect 20 0 16 0;
#X connect 21 0 14 0;
#X connect 21 1 22 0;
#X connect 22 0 18 0;
#X restore 135 329 pd set;
#X obj 135 298 t b l;
#X obj 98 181 list;
#X obj 285 111 t b b;
#X obj 449 203 unpack f f f f;
#X obj 582 204 v embed_\$0;
#X obj 586 181 s \$0-embed-arg;
#X msg 586 159 set \$1;
#X msg 503 94 999;
#X msg 603 96 445;
#X msg 503 150 2 8 20;
#X obj 415 272 v row_\$0;
#X obj 493 272 v column_\$0;
#X connect 3 0 5 0;
#X connect 4 0 25 0;
#X connect 4 1 3 0;
#X connect 4 2 30 0;
#X connect 4 2 31 0;
#X connect 4 2 32 0;
#X connect 5 1 24 1;
#X connect 5 1 26 0;
#X connect 6 0 8 1;
#X connect 6 0 14 0;
#X connect 6 0 34 0;
#X connect 7 0 8 0;
#X connect 7 0 13 0;
#X connect 7 0 33 0;
#X connect 8 0 9 0;
#X connect 11 0 10 0;
#X connect 11 0 15 0;
#X connect 12 1 20 0;
#X connect 12 1 23 0;
#X connect 13 0 17 0;
#X connect 14 0 16 0;
#X connect 15 0 18 0;
#X connect 19 0 3 0;
#X connect 23 0 22 0;
#X connect 23 1 21 0;
#X connect 24 0 12 0;
#X connect 25 0 24 0;
#X connect 25 1 0 0;
#X connect 26 0 7 0;
#X connect 26 1 6 0;
#X connect 26 2 11 0;
#X connect 26 3 27 0;
#X connect 26 3 29 0;
#X connect 29 0 28 0;
#X connect 30 0 2 0;
#X connect 31 0 1 0;
#X connect 32 0 26 0;
#X restore 141 52 pd loadbang;
#N canvas 495 23 894 478 draw_matrix 0;
#X msg 353 170 traverse \$1 \, bang, f 12;
#X obj 383 209 pointer;
#X obj 109 282 f;
#X obj 353 127 symbol pd-\$0-paint, f 11;
#X obj 188 176 v size_\$0;
#X obj 124 260 *;
#X obj 180 260 *;
#X obj 224 261 - 1;
#X obj 53 92 v column_\$0;
#X obj 53 161 v row_\$0;
#X obj 53 115 else/loop;
#X obj 80 227 t b f;
#X obj 80 206 else/loop;
#X obj 467 114 expr column_\$0 * size_\$0 - 1 \; row_\$0 * size_\$0
-1;
#X obj 526 216 s pd-\$0-paint;
#X obj 467 150 pack float float;
#X obj 53 26 inlet;
#X obj 470 315 s \$0-this-patch;
#X obj 467 202 unpack;
#X obj 467 228 + 2;
#X obj 496 227 + 2;
#X obj 470 254 pack;
#X obj 467 176 t l l;
#X obj 53 404 s \$0-pointer-list;
#X obj 53 66 trigger bang bang bang bang bang bang, f 84;
#X obj 554 88 s \$0-clear-list;
#X obj 110 355 r \$0-clear-list;
#X msg 526 181 clear \, donecanvasdialog 1 -1 3 0 \$2 \$1 0 \$1 \$2
150 150 \, dirty 0;
#X msg 470 277 donecanvasdialog 1 -1 3 0 \$2 \$1 0 \$1 \$2 150 150
\, dirty 0, f 48;
#X obj 53 376 list store;
#X msg 109 330 append \$1;
#X obj 53 185 t b f;
#X obj 53 138 trigger bang float, f 20;
#X msg 351 236 1;
#X obj 109 305 append \$0-cell x y cellsize color width bordercolor
;
#X msg 351 266 0;
#X obj 252 250 v off_color_\$0;
#X connect 0 0 1 0;
#X connect 1 0 34 6;
#X connect 2 0 34 0;
#X connect 3 0 0 0;
#X connect 4 0 7 0;
#X connect 4 0 6 1;
#X connect 4 0 5 1;
#X connect 5 0 2 1;
#X connect 6 0 34 1;
#X connect 7 0 34 2;
#X connect 8 0 10 0;
#X connect 9 0 31 0;
#X connect 10 0 32 0;
#X connect 11 0 2 0;
#X connect 11 1 6 0;
#X connect 12 0 11 0;
#X connect 13 0 15 0;
#X connect 13 1 15 1;
#X connect 15 0 22 0;
#X connect 16 0 24 0;
#X connect 18 0 19 0;
#X connect 18 1 20 0;
#X connect 19 0 21 0;
#X connect 20 0 21 1;
#X connect 21 0 28 0;
#X connect 22 0 18 0;
#X connect 22 1 27 0;
#X connect 24 0 8 0;
#X connect 24 2 4 0;
#X connect 24 2 33 0;
#X connect 24 2 36 0;
#X connect 24 2 35 0;
#X connect 24 3 3 0;
#X connect 24 4 13 0;
#X connect 24 5 25 0;
#X connect 26 0 29 1;
#X connect 27 0 14 0;
#X connect 28 0 17 0;
#X connect 29 0 23 0;
#X connect 30 0 29 0;
#X connect 31 0 29 0;
#X connect 31 1 12 0;
#X connect 32 0 9 0;
#X connect 32 1 5 0;
#X connect 33 0 34 4;
#X connect 34 0 30 0;
#X connect 35 0 34 5;
#X connect 36 0 34 3;
#X restore 141 84 pd draw_matrix;
#X obj 122 125 array define mtx_\$0;
#N canvas 253 158 1092 598 set 0;
#X obj 79 265 v column_\$0;
#X obj 158 251 v row_\$0;
#X obj 214 210 t b f;
#X obj 241 230 v size_\$0;
#X obj 40 225 change;
#X obj 132 210 change;
#X obj 214 190 change;
#X obj 40 205 clip 1 64;
#X obj 132 190 clip 1 64;
#X obj 40 245 t b f;
#X obj 132 230 t b f;
#X obj 214 170 clip 8 100;
#X obj 80 31 inlet;
#X obj 359 394 outlet;
#X obj 428 392 outlet;
#N canvas 653 204 441 463 bound-check 0;
#X obj 151 38 inlet;
#X obj 151 77 t l l;
#X obj 205 149 list;
#X obj 87 117 list length;
#X obj 87 140 == 3;
#X msg 87 186 input list needs to be = 3, f 15;
#X obj 287 336 list;
#X obj 205 219 unpack;
#X obj 167 296 sel 0 1;
#X obj 87 164 sel 0 1;
#X obj 205 177 trigger list list;
#X msg 151 339 cell out of bounds;
#X obj 287 386 outlet;
#X obj 167 251 expr $f1 < row_\$0 && $f2 < column_\$0, f 18;
#X obj 87 420 print [drum.seq];
#X connect 0 0 1 0;
#X connect 1 0 3 0;
#X connect 1 1 2 1;
#X connect 2 0 10 0;
#X connect 3 0 4 0;
#X connect 4 0 9 0;
#X connect 5 0 14 0;
#X connect 6 0 12 0;
#X connect 7 0 13 0;
#X connect 7 1 13 1;
#X connect 8 0 11 0;
#X connect 8 1 6 0;
#X connect 9 0 5 0;
#X connect 9 1 2 0;
#X connect 10 0 7 0;
#X connect 10 1 6 1;
#X connect 11 0 14 0;
#X connect 13 0 8 0;
#X restore 356 260 pd bound-check;
#X obj 319 242 b;
#X obj 239 445 s mtx_\$0;
#X msg 242 419 const 0;
#X obj 804 249 else/loop;
#X obj 805 305 v column_\$0;
#X obj 804 222 v row_\$0;
#X obj 806 333 else/loop;
#X obj 912 364 + 1;
#X obj 882 364 f;
#X obj 882 406 tabread mtx_\$0;
#X obj 806 407 pack f f f;
#X obj 804 197 else/trigger2 bang 0;
#X obj 792 449 s \$0-out;
#X obj 804 279 trigger b f;
#X obj 806 361 t f b;
#X obj 770 157 array get mtx_\$0;
#X obj 956 129 array set mtx_\$0;
#N canvas 318 31 510 650 set 0;
#X obj 120 146 else/loop;
#X obj 121 202 v column_\$0;
#X obj 120 119 v row_\$0;
#X obj 122 230 else/loop;
#X obj 230 261 + 1;
#X obj 200 261 f;
#X obj 200 303 tabread mtx_\$0;
#X obj 122 304 pack f f f;
#X obj 120 94 else/trigger2 bang 0;
#X obj 120 176 trigger b f;
#X obj 122 258 t f b;
#X obj 198 282 t f f;
#X obj 120 52 inlet;
#X obj 282 504 r \$0-pointer-list;
#X msg 122 365 \$3;
#X obj 122 387 sel 1 0;
#X obj 122 555 set \$0-cell color;
#X obj 221 529 list store;
#X msg 221 504 get \$1 1;
#X obj 107 428 v on_color_\$0;
#X obj 98 471 v off_color_\$0;
#X obj 122 336 trigger list list;
#X obj 221 467 expr $f1 * row_\$0 + row_\$0 - 1 - $f2;
#X connect 0 0 9 0;
#X connect 1 0 3 0;
#X connect 2 0 0 0;
#X connect 3 0 10 0;
#X connect 4 0 5 1;
#X connect 5 0 4 0;
#X connect 5 0 11 0;
#X connect 6 0 7 2;
#X connect 7 0 21 0;
#X connect 8 0 2 0;
#X connect 8 1 5 1;
#X connect 9 0 1 0;
#X connect 9 1 7 1;
#X connect 10 0 7 0;
#X connect 10 1 5 0;
#X connect 11 0 6 0;
#X connect 12 0 8 0;
#X connect 13 0 17 1;
#X connect 14 0 15 0;
#X connect 15 0 19 0;
#X connect 15 1 20 0;
#X connect 17 0 16 1;
#X connect 18 0 17 0;
#X connect 19 0 16 0;
#X connect 20 0 16 0;
#X connect 21 0 14 0;
#X connect 21 1 22 0;
#X connect 22 0 18 0;
#X restore 899 167 pd set;
#X obj 899 126 t b b l;
#X obj 954 167 array get mtx_\$0;
#X obj 80 68 route columns rows size clear list set float flush export
import embed, f 129;
#X obj 915 79 v embed_\$0;
#X obj 905 55 != 0;
#X obj 905 101 s \$0-embed;
#N canvas 334 23 634 607 float 0;
#X obj 109 310 pack;
#X obj 103 245 t f f;
#X obj 89 201 else/loop;
#X obj 89 179 v row_\$0;
#X obj 348 422 r \$0-pointer-list;
#X obj 287 447 list store;
#X msg 287 422 get \$1 1;
#X obj 90 57 inlet;
#X obj 286 206 else/loop;
#X obj 286 184 v row_\$0;
#X obj 472 243 r \$0-pointer-list;
#X obj 411 268 list store;
#X msg 411 243 get \$1 1;
#X obj 286 138 else/lastvalue 1;
#X obj 89 153 trigger bang float, f 25;
#X obj 109 337 s \$0-out;
#X obj 286 163 trigger bang float;
#X obj 286 307 set \$0-cell width bordercolor;
#X obj 286 234 expr 1 \; 0 \; $f2 * row_\$0 + row_\$0 - 1 - $f1, f
18;
#X obj 89 428 set \$0-cell width bordercolor;
#X obj 89 380 expr 4 \; 500 \; $f2 * row_\$0 + row_\$0 - 1 - $f1;
#X obj 130 269 expr mtx_\$0[$f1 * column_\$0 + $f2], f 17;
#X connect 0 0 15 0;
#X connect 1 0 0 0;
#X connect 1 1 21 0;
#X connect 2 0 1 0;
#X connect 2 0 20 0;
#X connect 3 0 2 0;
#X connect 4 0 5 1;
#X connect 5 0 19 2;
#X connect 6 0 5 0;
#X connect 7 0 14 0;
#X connect 8 0 18 0;
#X connect 9 0 8 0;
#X connect 10 0 11 1;
#X connect 11 0 17 2;
#X connect 12 0 11 0;
#X connect 13 0 16 0;
#X connect 14 0 3 0;
#X connect 14 1 13 0;
#X connect 14 1 20 1;
#X connect 14 1 21 1;
#X connect 16 0 9 0;
#X connect 16 1 18 1;
#X connect 18 0 17 0;
#X connect 18 1 17 1;
#X connect 18 2 12 0;
#X connect 20 0 19 0;
#X connect 20 1 19 1;
#X connect 20 2 6 0;
#X connect 21 0 0 1;
#X restore 517 198 pd float;
#X obj 117 424 array get mtx_\$0, f 17;
#X obj 117 468 s \$0-set-array;
#X obj 165 379 t b b;
#X connect 2 0 14 0;
#X connect 2 1 3 0;
#X connect 4 0 9 0;
#X connect 5 0 10 0;
#X connect 6 0 2 0;
#X connect 7 0 4 0;
#X connect 8 0 5 0;
#X connect 9 0 14 0;
#X connect 9 1 0 0;
#X connect 10 0 14 0;
#X connect 10 1 1 0;
#X connect 11 0 6 0;
#X connect 12 0 36 0;
#X connect 15 0 13 0;
#X connect 16 0 14 0;
#X connect 16 0 43 0;
#X connect 18 0 17 0;
#X connect 19 0 29 0;
#X connect 20 0 22 0;
#X connect 21 0 19 0;
#X connect 22 0 30 0;
#X connect 23 0 24 1;
#X connect 24 0 23 0;
#X connect 24 0 25 0;
#X connect 25 0 26 2;
#X connect 26 0 28 0;
#X connect 27 0 21 0;
#X connect 27 1 24 1;
#X connect 29 0 20 0;
#X connect 29 1 26 1;
#X connect 30 0 26 0;
#X connect 30 1 24 0;
#X connect 31 0 28 0;
#X connect 34 0 33 0;
#X connect 34 1 35 0;
#X connect 34 2 32 0;
#X connect 36 0 7 0;
#X connect 36 1 8 0;
#X connect 36 2 11 0;
#X connect 36 3 16 0;
#X connect 36 4 15 0;
#X connect 36 6 40 0;
#X connect 36 7 27 0;
#X connect 36 8 31 0;
#X connect 36 9 34 0;
#X connect 36 10 38 0;
#X connect 38 0 37 0;
#X connect 38 0 39 0;
#X connect 41 0 42 0;
#X connect 43 0 41 0;
#X connect 43 1 18 0;
#X restore 51 52 pd set;
#X connect 0 0 6 0;
#X connect 2 0 1 0;
#X connect 3 0 4 0;
#X connect 6 0 2 0;
#X connect 6 1 4 0;
#X restore 59 92 pd guts;
#X obj 145 92 namecanvas \$0-this-patch, f 13;
#X text 271 91 Part of ELSE \; https://github.com/porres/pd-else;
#X text 273 72 Alexandre Torres Porres (2018);
#X connect 0 0 3 0;
#X connect 3 0 2 0;
#X coords 0 41 81 0 81 41 2 150 150;
