#N canvas 710 101 531 332 12;
#X obj 97 53 inlet~;
#X obj 157 53 inlet~;
#X obj 111 275 outlet~;
#N canvas 667 241 423 482 set 0;
#X obj 52 20 inlet;
#X obj 207 412 s \$0-threshold;
#X obj 238 391 s \$0-ratio;
#X obj 270 370 s \$0-attack;
#X obj 302 349 s \$0-release;
#X obj 207 195 unpack f f f f;
#X obj 147 61 else/lb 2;
#X obj 109 93 else/args;
#X obj 52 196 route thresh ratio attack release mix, f 12;
#X msg 207 95 -60 1 10 10;
#X obj 109 123 else/break -;
#X obj 109 153 route -mix;
#X obj 313 292 != 0;
#X obj 313 319 v mix_\$0;
#X msg 164 198 1;
#X connect 0 0 8 0;
#X connect 5 0 1 0;
#X connect 5 1 2 0;
#X connect 5 2 3 0;
#X connect 5 3 4 0;
#X connect 6 0 7 0;
#X connect 6 1 9 0;
#X connect 7 0 10 0;
#X connect 8 0 1 0;
#X connect 8 1 2 0;
#X connect 8 2 3 0;
#X connect 8 3 4 0;
#X connect 8 4 12 0;
#X connect 9 0 5 0;
#X connect 10 0 11 0;
#X connect 11 0 14 0;
#X connect 11 1 5 0;
#X connect 12 0 13 0;
#X connect 14 0 13 0;
#X restore 238 84 pd set;
#X obj 238 53 inlet;
#X text 204 203 Part of ELSE \; https://github.com/porres/pd-else;
#X text 206 184 Alexandre Torres Porres (2019);
#N canvas 1019 366 450 484 gain 0;
#X obj 152 57 inlet~;
#X text 152 27 level;
#X obj 134 239 else/db2lin~;
#X obj 186 160 r \$0-ratio;
#X obj 197 266 r \$0-release;
#X obj 134 315 else/slew~;
#X obj 116 408 outlet~;
#X obj 116 348 *~;
#X obj 91 56 inlet~;
#X obj 186 185 max 0;
#X obj 134 276 min~ 1;
#X obj 201 291 r \$0-attack;
#X obj 134 205 *~;
#X obj 186 210 else/f2s~ 10;
#X obj 179 94 r \$0-threshold;
#X obj 179 121 else/f2s~ 10;
#X obj 134 164 -~;
#X text 154 346 gain = (threshold - level) * ratio;
#X connect 0 0 16 1;
#X connect 2 0 10 0;
#X connect 3 0 9 0;
#X connect 4 0 5 1;
#X connect 5 0 7 1;
#X connect 7 0 6 0;
#X connect 8 0 7 0;
#X connect 9 0 13 0;
#X connect 10 0 5 0;
#X connect 11 0 5 2;
#X connect 12 0 2 0;
#X connect 13 0 12 1;
#X connect 14 0 15 0;
#X connect 15 0 16 0;
#X connect 16 0 12 0;
#X restore 97 182 pd gain;
#N canvas 987 562 404 221 mix~ 0;
#X obj 44 37 inlet~;
#X obj 44 110 outlet~;
#X obj 265 36 inlet~;
#X obj 44 72 expr~ if(mix_\$0 \, $v1 + $v2 \, $v1);
#X connect 0 0 3 0;
#X connect 2 0 3 1;
#X connect 3 0 1 0;
#X restore 111 234 pd mix~;
#X text 156 31 control;
#X text 95 31 in;
#X obj 168 133 else/mov.rms~ 512 -db;
#X connect 0 0 7 0;
#X connect 1 0 8 1;
#X connect 1 0 11 0;
#X connect 4 0 3 0;
#X connect 7 0 8 0;
#X connect 8 0 2 0;
#X connect 11 0 7 1;
