#N canvas 660 65 602 342 12;
#X obj 82 288 outlet;
#X obj 82 43 inlet;
#X obj 114 188 route float list;
#X obj 82 75 t b a;
#X text 265 163 Part of ELSE \; https://github.com/porres/pd-else;
#X text 267 144 Alexandre Torres Porres (2017);
#X obj 114 102 else/iterate;
#X obj 114 129 else/any2symbol;
#X obj 114 158 else/separate /;
#X obj 82 254 else/group;
#N canvas 528 161 642 517 frac2dec 0;
#X obj 172 28 inlet;
#X obj 245 131 list length;
#X obj 245 161 > 2;
#X obj 171 192 else/router;
#X obj 171 159 t l l;
#X obj 171 239 /;
#X obj 245 245 unpack f s s;
#N canvas 687 87 263 296 get-fraction 0;
#X obj 78 64 list fromsymbol;
#X obj 78 134 sel 40;
#X obj 78 96 list split 1;
#X obj 138 134 list tosymbol;
#X obj 99 172 symbol;
#X obj 99 200 f;
#X obj 99 243 outlet;
#X obj 78 33 inlet;
#X connect 0 0 2 0;
#X connect 1 0 4 0;
#X connect 2 0 1 0;
#X connect 2 1 3 0;
#X connect 3 0 4 1;
#X connect 4 0 5 0;
#X connect 5 0 6 0;
#X connect 7 0 0 0;
#X restore 285 286 pd get-fraction;
#N canvas 815 197 314 281 get-fraction 0;
#X obj 78 64 list fromsymbol;
#X obj 78 33 inlet;
#X obj 78 126 else/pick -1;
#X obj 78 98 t l l, f 15;
#X obj 180 130 else/slice -1;
#X obj 79 194 symbol;
#X obj 79 222 f;
#X obj 78 156 sel 41;
#X obj 179 161 list tosymbol;
#X obj 79 252 outlet;
#X connect 0 0 3 0;
#X connect 1 0 0 0;
#X connect 2 0 7 0;
#X connect 3 0 2 0;
#X connect 3 1 4 0;
#X connect 4 0 8 0;
#X connect 5 0 6 0;
#X connect 6 0 9 0;
#X connect 7 0 5 0;
#X connect 8 0 5 1;
#X restore 412 286 pd get-fraction;
#X obj 285 321 /;
#X obj 267 388 /;
#X obj 267 469 outlet;
#X obj 267 422 spigot;
#X msg 444 346 1;
#X obj 426 384 &&;
#X obj 245 217 t l b;
#X msg 293 218 0;
#X msg 325 349 1;
#X connect 0 0 4 0;
#X connect 1 0 2 0;
#X connect 2 0 3 1;
#X connect 3 0 5 0;
#X connect 3 1 15 0;
#X connect 4 0 3 0;
#X connect 4 1 1 0;
#X connect 5 0 11 0;
#X connect 6 0 10 0;
#X connect 6 1 7 0;
#X connect 6 2 8 0;
#X connect 7 0 9 0;
#X connect 8 0 13 0;
#X connect 8 0 9 1;
#X connect 9 0 10 1;
#X connect 9 0 17 0;
#X connect 10 0 12 0;
#X connect 12 0 11 0;
#X connect 13 0 14 1;
#X connect 14 0 12 1;
#X connect 15 0 6 0;
#X connect 15 1 16 0;
#X connect 16 0 14 0;
#X connect 16 0 14 1;
#X connect 17 0 14 0;
#X restore 168 216 pd frac2dec;
#X connect 1 0 3 0;
#X connect 2 0 9 0;
#X connect 2 1 10 0;
#X connect 3 0 9 0;
#X connect 3 1 6 0;
#X connect 6 0 7 0;
#X connect 7 0 8 0;
#X connect 8 0 2 0;
#X connect 9 0 0 0;
#X connect 10 0 9 0;
