#N canvas 749 82 516 269 10;
#X obj 47 83 sigmund~ -npts 2048 -hop 512 -npeak 50 tracks;
#X obj 47 193 outlet~;
#X obj 47 52 inlet~;
#N canvas 148 122 449 453 freeze 0;
#X obj 252 304 tgl 15 1 empty freee empty 17 7 0 10 -228856 -1 -1 0
1;
#X obj 252 238 bng 20 250 50 0 empty empty empty 17 7 0 10 -228856
-1 -1;
#X obj 188 257 del 15;
#X obj 268 273 loadbang;
#X obj 271 337 v freeze_\$0;
#X obj 135 23 inlet;
#X obj 135 81 != 0;
#X obj 135 54 route float freeze unfreeze;
#X msg 188 81 1;
#X msg 241 81 0;
#X obj 188 112 expr freeze_\$0 && $f1 \; freeze_\$0 == 0 && $f1 \;
freeze_\$0 && $f1 == 0;
#X obj 317 169 sel 1;
#X text 353 168 unfreeze;
#X obj 252 169 sel 1;
#X text 256 186 freeze;
#X text 133 168 refreeze;
#X obj 188 169 sel 1;
#X obj 65 368 spigot;
#X obj 65 396 outlet;
#X obj 65 23 inlet;
#X connect 0 0 4 0;
#X connect 0 0 17 1;
#X connect 1 0 0 0;
#X connect 2 0 1 0;
#X connect 3 0 0 0;
#X connect 5 0 7 0;
#X connect 6 0 10 0;
#X connect 7 0 6 0;
#X connect 7 1 8 0;
#X connect 7 2 9 0;
#X connect 8 0 10 0;
#X connect 9 0 10 0;
#X connect 10 0 16 0;
#X connect 10 1 13 0;
#X connect 10 2 11 0;
#X connect 11 0 1 0;
#X connect 13 0 1 0;
#X connect 16 0 1 0;
#X connect 16 0 2 0;
#X connect 17 0 18 0;
#X connect 19 0 17 0;
#X restore 47 113 pd freeze;
#X obj 98 52 inlet;
#X text 242 154 Part of ELSE \; https://github.com/porres/pd-else;
#X text 244 135 Alexandre Torres Porres (2018);
#X obj 47 154 clone 50 ./freeze.osc.clone~;
#X connect 0 0 3 0;
#X connect 2 0 0 0;
#X connect 3 0 7 0;
#X connect 4 0 3 1;
#X connect 7 0 1 0;
