#N canvas 713 95 486 301 10;
#X obj 63 36 inlet~;
#X obj 139 34 inlet;
#N canvas 864 115 423 259 set_GUI 0;
#X obj 34 212 s \$0-set-slider;
#X obj 59 20 inlet;
#X obj 34 178 clip 0 1;
#X obj 284 85 loadbang;
#X obj 284 163 s \$0-max_gain;
#X obj 284 125 \$1;
#X text 282 62 Load args;
#X obj 59 54 route float mode gain ramp;
#X obj 97 178 s \$0-mode;
#X obj 135 151 s \$0-max_gain;
#X obj 135 105 moses 0;
#X obj 135 83 * -1;
#X obj 135 127 * -1;
#X obj 193 106 s \$0-ramp;
#X obj 193 85 max 5;
#X obj 317 137 s \$0-mode;
#X obj 317 114 \$2;
#X connect 1 0 7 0;
#X connect 2 0 0 0;
#X connect 3 0 5 0;
#X connect 3 0 16 0;
#X connect 5 0 4 0;
#X connect 7 0 2 0;
#X connect 7 1 8 0;
#X connect 7 2 11 0;
#X connect 7 3 14 0;
#X connect 10 0 12 0;
#X connect 11 0 10 0;
#X connect 12 0 9 0;
#X connect 14 0 13 0;
#X connect 16 0 15 0;
#X restore 139 67 pd set_GUI;
#X text 226 125 Alexandre Torres Porres (2016);
#X text 224 144 Part of ELSE \; https://github.com/porres/pd-else;
#X obj 63 251 outlet~;
#X obj 150 105 vsl 20 91 0 1 0 0 \$0-slider \$0-set-slider empty 24
9 0 14 -228856 -1 -1 0 1;
#X text 226 105 [gain~]: Mono Gain;
#X obj 150 252 outlet;
#X obj 150 220 r \$0-slider;
#X obj 151 103 cnv 1 18 1 empty empty empty 20 12 0 14 -233017 -66577
0;
#X obj 157 101 cnv 1 5 1 empty empty empty 20 12 0 14 -233017 -66577
0;
#X obj 151 198 cnv 1 18 1 empty empty empty 20 12 0 14 -233017 -66577
0;
#X obj 157 200 cnv 1 5 1 empty empty empty 20 12 0 14 -233017 -66577
0;
#N canvas 341 432 316 326 gain~ 0;
#N canvas 251 205 450 331 quartic 0;
#X obj 100 126 line~;
#X obj 100 158 *~;
#X obj 100 186 *~;
#X obj 100 92 inlet;
#X obj 100 252 outlet~;
#X obj 100 217 *~;
#X obj 221 54 r \$0-mode;
#X msg 250 104 0;
#X obj 269 157 switch~;
#X msg 221 104 1;
#X obj 197 179 line~;
#X msg 197 157 \$1 50;
#X obj 273 132 pipe 50;
#X obj 221 79 sel 0;
#X connect 0 0 1 0;
#X connect 0 0 1 1;
#X connect 1 0 2 0;
#X connect 1 0 2 1;
#X connect 2 0 5 0;
#X connect 3 0 0 0;
#X connect 5 0 4 0;
#X connect 6 0 13 0;
#X connect 7 0 11 0;
#X connect 7 0 12 0;
#X connect 9 0 8 0;
#X connect 9 0 11 0;
#X connect 10 0 5 1;
#X connect 11 0 10 0;
#X connect 12 0 8 0;
#X connect 13 0 9 0;
#X connect 13 1 7 0;
#X restore 57 146 pd quartic;
#X obj 37 296 outlet~;
#N canvas 743 262 450 300 dB 0;
#X obj 129 110 line~;
#X obj 129 76 inlet;
#X obj 159 235 outlet~;
#X obj 129 140 *~ 100;
#X obj 129 168 dbtorms~;
#X obj 221 54 r \$0-mode;
#X msg 250 104 0;
#X obj 269 157 switch~;
#X msg 221 104 1;
#X obj 221 79 sel 1;
#X obj 197 179 line~;
#X obj 159 203 *~;
#X msg 197 157 \$1 50;
#X obj 273 132 pipe 50;
#X connect 0 0 3 0;
#X connect 1 0 0 0;
#X connect 3 0 4 0;
#X connect 4 0 11 0;
#X connect 5 0 9 0;
#X connect 6 0 12 0;
#X connect 6 0 13 0;
#X connect 8 0 7 0;
#X connect 8 0 12 0;
#X connect 9 0 8 0;
#X connect 9 1 6 0;
#X connect 10 0 11 1;
#X connect 11 0 2 0;
#X connect 12 0 10 0;
#X connect 13 0 7 0;
#X restore 136 146 pd dB;
#N canvas 251 205 450 300 linear 0;
#X obj 136 65 line~;
#X obj 136 31 inlet;
#X obj 139 241 outlet~;
#X obj 260 54 r \$0-mode;
#X msg 289 104 0;
#X obj 308 157 switch~;
#X msg 260 104 1;
#X obj 236 179 line~;
#X msg 236 157 \$1 50;
#X obj 312 132 pipe 50;
#X obj 260 79 sel 2;
#X obj 131 187 *~;
#X connect 0 0 11 0;
#X connect 1 0 0 0;
#X connect 3 0 10 0;
#X connect 4 0 8 0;
#X connect 4 0 9 0;
#X connect 6 0 5 0;
#X connect 6 0 8 0;
#X connect 7 0 11 1;
#X connect 8 0 7 0;
#X connect 9 0 5 0;
#X connect 10 0 6 0;
#X connect 10 1 4 0;
#X connect 11 0 2 0;
#X restore 192 146 pd linear;
#N canvas 930 375 329 221 max_gain 0;
#X obj 46 35 inlet~;
#X obj 46 171 outlet~;
#X obj 46 100 *~;
#X obj 105 91 expr if($f1 <= 0 \, 1 \, $f1);
#X obj 105 65 r \$0-max_gain;
#X msg 105 116 \$1 15;
#X obj 105 141 line~;
#X connect 0 0 2 0;
#X connect 2 0 1 0;
#X connect 3 0 5 0;
#X connect 4 0 3 0;
#X connect 5 0 6 0;
#X connect 6 0 2 1;
#X restore 136 197 pd max_gain;
#X obj 136 59 receive \$0-slider;
#X obj 205 97 r \$0-ramp;
#X obj 136 96 pack f 20;
#X obj 35 21 inlet~;
#X obj 37 252 *~;
#X connect 0 0 4 0;
#X connect 2 0 4 0;
#X connect 3 0 4 0;
#X connect 4 0 9 1;
#X connect 5 0 7 0;
#X connect 6 0 7 1;
#X connect 7 0 2 0;
#X connect 7 0 3 0;
#X connect 7 0 0 0;
#X connect 8 0 9 0;
#X connect 9 0 1 0;
#X restore 63 182 pd gain~;
#X connect 0 0 14 0;
#X connect 1 0 2 0;
#X connect 9 0 8 0;
#X connect 14 0 5 0;
#X coords 0 0 1 1 20 102 2 150 100;
