#N canvas 335 132 476 558 12;
#X obj 109 447 exp~;
#X obj 80 370 *~ -1;
#X obj 109 409 *~;
#X obj 70 267 osc~;
#X obj 127 328 *~;
#X obj 70 238 *~ 0.5;
#X obj 70 185 inlet~;
#X obj 89 120 pdcontrol;
#X msg 89 90 args;
#X obj 89 146 unpack;
#X text 193 374 Part of ELSE \; https://github.com/porres/pd-else;
#X text 195 355 Alexandre Torres Porres (2021);
#X obj 109 480 outlet~;
#X obj 145 185 inlet;
#X obj 145 274 else/rescale~ 0 1 2 100 4 -clip;
#X obj 145 242 else/f2s~ 10;
#X obj 89 55 loadbang;
#X connect 0 0 12 0;
#X connect 1 0 2 0;
#X connect 2 0 0 0;
#X connect 3 0 4 0;
#X connect 4 0 2 1;
#X connect 4 0 1 0;
#X connect 5 0 3 0;
#X connect 6 0 5 0;
#X connect 7 0 9 0;
#X connect 8 0 7 0;
#X connect 9 0 6 0;
#X connect 9 1 15 0;
#X connect 13 0 15 0;
#X connect 14 0 4 1;
#X connect 15 0 14 0;
#X connect 16 0 8 0;
