#N canvas 653 56 635 280 12;
#X obj 82 37 inlet;
#X obj 82 196 outlet;
#N canvas 1030 215 250 332 init 0;
#X obj 72 243 v yn1_\$0;
#X obj 111 210 v yn2_\$0;
#X obj 72 185 unpack;
#X obj 91 100 else/args;
#X msg 123 152 1.2 2.1;
#X obj 91 124 t l b;
#X obj 91 75 loadbang;
#X obj 73 38 inlet;
#X connect 2 0 0 0;
#X connect 2 1 1 0;
#X connect 3 0 5 0;
#X connect 4 0 2 0;
#X connect 5 0 2 0;
#X connect 5 1 4 0;
#X connect 6 0 3 0;
#X connect 7 0 2 0;
#X restore 133 103 pd init;
#X text 306 118 Part of ELSE \; https://github.com/porres/pd-else;
#X text 308 99 Alexandre Torres Porres (2020);
#X obj 82 72 route bang list;
#X obj 247 192 v yn_\$0;
#X obj 82 132 expr yn1_\$0 = yn_\$0 \; yn2_\$0 = yn1_\$0 \; 1 + abs(yn1_\$0)
- yn2_\$0;
#X connect 0 0 5 0;
#X connect 5 0 7 0;
#X connect 5 1 2 0;
#X connect 7 0 1 0;
#X connect 7 2 6 0;
