#N canvas 622 57 611 440 12;
#X obj 101 68 t b l;
#X obj 133 94 unpack;
#X obj 85 177 until;
#X obj 101 35 inlet;
#X obj 207 68 loadbang;
#X obj 207 95 f \$1;
#X obj 192 35 inlet;
#X obj 85 212 expr n1_\$0 != n2_\$0, f 20;
#X obj 108 284 expr if(n1_\$0 > n2_\$0 \, n1_\$0 = n1_\$0 - n2_\$0
\, n2_\$0 = n2_\$0 - n1_\$0), f 22;
#X obj 85 343 v n1_\$0;
#X obj 85 257 sel 0 1;
#X obj 192 125 abs;
#X obj 192 152 max 1;
#X obj 192 177 v n2_\$0;
#X obj 133 177 v n1_\$0;
#X obj 133 125 abs;
#X obj 133 152 max 1;
#X obj 85 377 outlet;
#X text 301 196 Part of ELSE \; https://github.com/porres/pd-else;
#X text 303 177 Alexandre Torres Porres (2021);
#X connect 0 0 2 0;
#X connect 0 1 1 0;
#X connect 1 0 15 0;
#X connect 1 1 11 0;
#X connect 2 0 7 0;
#X connect 3 0 0 0;
#X connect 4 0 5 0;
#X connect 5 0 11 0;
#X connect 6 0 11 0;
#X connect 7 0 10 0;
#X connect 9 0 17 0;
#X connect 10 0 2 1;
#X connect 10 0 9 0;
#X connect 10 1 8 0;
#X connect 11 0 12 0;
#X connect 12 0 13 0;
#X connect 15 0 16 0;
#X connect 16 0 14 0;
