#N canvas 765 85 505 289 12;
#X obj 50 36 inlet;
#X obj 49 214 outlet~;
#X obj 270 209 outlet~;
#X text 172 98 Part of ELSE \; https://github.com/porres/pd-else;
#X text 174 79 Alexandre Torres Porres (2020);
#N canvas 167 336 331 363 route 0;
#X obj 188 207 else/insert all;
#X msg 203 177 set \$1;
#X obj 188 268 outlet;
#X obj 49 26 inlet;
#X obj 203 123 symbol;
#X obj 94 165 r \$0-n;
#X msg 48 227 \$1 bang;
#X obj 49 68 route bang float set;
#X obj 94 140 s \$0-n;
#X obj 94 112 clip 1 256;
#X obj 203 149 else/dollsym 1;
#X obj 48 201 else/loop 16;
#X connect 0 0 2 0;
#X connect 1 0 0 0;
#X connect 3 0 7 0;
#X connect 4 0 10 0;
#X connect 5 0 0 0;
#X connect 5 0 11 1;
#X connect 6 0 2 0;
#X connect 7 0 11 0;
#X connect 7 1 9 0;
#X connect 7 2 4 0;
#X connect 7 3 0 0;
#X connect 9 0 8 0;
#X connect 10 0 1 0;
#X connect 11 0 6 0;
#X restore 50 85 pd route;
#N canvas 126 225 1455 526 init 0;
#X obj 532 448 outlet;
#X obj 119 224 symbol;
#X obj 218 279 else/insert all amp;
#X obj 326 279 else/insert all size;
#X obj 443 279 else/insert all dur;
#X obj 552 279 else/insert all pitch;
#X obj 678 279 else/insert all pan;
#X msg 140 315 all set \$1;
#X obj 140 187 unpack f s;
#X obj 937 279 else/insert all scale;
#X obj 1061 279 else/insert all base, f 16;
#X obj 788 279 else/insert all autotune;
#X obj 69 267 s \$0-n;
#X obj 46 50 lb -init;
#X obj 93 342 message;
#X obj 93 372 route bang;
#X obj 46 302 del 0;
#X obj 66 91 args -;
#X obj 69 229 clip 1 256, f 5;
#X msg 1191 279 all sync 1;
#X obj 66 119 route float symbol list -amp -size -dur -pitch -pan -autotune
-scale -base -sync -env, f 153;
#X obj 1280 279 else/insert all env, f 16;
#X obj 140 279 else/dollsym 1;
#X connect 1 0 22 0;
#X connect 2 0 0 0;
#X connect 3 0 0 0;
#X connect 4 0 0 0;
#X connect 5 0 0 0;
#X connect 6 0 0 0;
#X connect 7 0 14 1;
#X connect 8 0 18 0;
#X connect 8 1 22 0;
#X connect 9 0 0 0;
#X connect 10 0 0 0;
#X connect 11 0 0 0;
#X connect 13 0 16 0;
#X connect 13 0 17 0;
#X connect 14 0 15 0;
#X connect 15 1 0 0;
#X connect 16 0 14 0;
#X connect 17 0 20 0;
#X connect 18 0 12 0;
#X connect 19 0 0 0;
#X connect 20 0 18 0;
#X connect 20 1 1 0;
#X connect 20 2 8 0;
#X connect 20 3 2 0;
#X connect 20 4 3 0;
#X connect 20 5 4 0;
#X connect 20 6 5 0;
#X connect 20 7 6 0;
#X connect 20 8 11 0;
#X connect 20 9 9 0;
#X connect 20 10 10 0;
#X connect 20 11 19 0;
#X connect 20 12 21 0;
#X connect 21 0 0 0;
#X connect 22 0 7 0;
#X restore 72 134 pd init;
#X obj 49 167 clone else/grain.synth.grain 256;
#X connect 0 0 5 0;
#X connect 5 0 7 0;
#X connect 6 0 7 0;
#X connect 7 0 1 0;
#X connect 7 1 2 0;
