#N canvas 381 180 678 312 12;
#X declare -path else;
#X obj 63 244 outlet~;
#X obj 221 239 outlet~;
#X obj 379 96 declare -path else;
#X text 341 161 Part of ELSE \; https://github.com/porres/pd-else;
#X text 343 142 Alexandre Torres Porres (2020);
#N canvas 302 191 311 379 route 0;
#X obj 188 257 insert all;
#X obj 203 199 dollsym 1;
#X msg 203 227 set \$1;
#X obj 188 318 outlet;
#X obj 49 26 inlet;
#X obj 203 173 symbol;
#X msg 48 247 \$1 bang;
#X obj 49 68 route bang float set;
#X obj 48 221 loop 16;
#X obj 94 189 r \$0-n;
#X obj 94 164 s \$0-n;
#X obj 94 136 clip 1 256;
#X connect 0 0 3 0;
#X connect 1 0 2 0;
#X connect 2 0 0 0;
#X connect 4 0 7 0;
#X connect 5 0 1 0;
#X connect 6 0 3 0;
#X connect 7 0 8 0;
#X connect 7 1 11 0;
#X connect 7 2 5 0;
#X connect 7 3 0 0;
#X connect 8 0 6 0;
#X connect 9 0 8 1;
#X connect 9 0 0 0;
#X connect 11 0 10 0;
#X restore 221 127 pd route;
#N canvas 32 453 1872 653 init 0;
#X obj 253 302 dollsym 1;
#X obj 1059 559 outlet;
#X obj 232 257 symbol;
#X obj 350 314 insert all amp;
#X obj 458 314 insert all size;
#X obj 833 314 insert all pan;
#X msg 253 328 all set \$1;
#X obj 253 220 unpack f s;
#X obj 1092 314 insert all scale;
#X obj 943 314 insert all autotune;
#X obj 206 375 message;
#X obj 206 405 route bang;
#X obj 116 274 del 0;
#X obj 198 124 args -;
#X obj 703 314 insert all transp;
#X obj 1449 223 s pd-\$0-delwrite~;
#X msg 1449 168 clear \, obj 50 50 inlet~ \, obj 50 100 delwrite~ \$1-buf
\$2 \, connect 0 0 1 0, f 32;
#X obj 1342 222 s pd-\$0-delin;
#X msg 1323 185 connect 0 0 2 0;
#X obj 1324 153 t b b;
#X obj 199 87 lb -init 2;
#X obj 1323 95 t b f;
#X obj 1226 314 insert all length;
#X obj 1219 192 max 500;
#X obj 1364 313 insert all pos;
#X obj 1449 140 pack \$0 5000;
#X obj 575 314 insert all dur;
#X obj 181 302 s \$0-n;
#X obj 181 264 clip 1 256, f 5;
#X msg 1488 313 all sync 1;
#X obj 1576 313 insert all rev, f 16;
#X obj 1698 313 insert all env, f 16;
#X obj 198 152 route float symbol list -amp -size -dur -transp -pan
-autotune -scale -length -pos -sync -rev -env, f 115;
#X connect 0 0 6 0;
#X connect 2 0 0 0;
#X connect 3 0 1 0;
#X connect 4 0 1 0;
#X connect 5 0 1 0;
#X connect 6 0 10 1;
#X connect 7 0 28 0;
#X connect 7 1 0 0;
#X connect 8 0 1 0;
#X connect 9 0 1 0;
#X connect 10 0 11 0;
#X connect 11 1 1 0;
#X connect 12 0 10 0;
#X connect 13 0 32 0;
#X connect 14 0 1 0;
#X connect 16 0 15 0;
#X connect 18 0 17 0;
#X connect 19 0 18 0;
#X connect 19 1 25 0;
#X connect 20 0 12 0;
#X connect 20 0 13 0;
#X connect 20 1 19 0;
#X connect 21 0 19 0;
#X connect 21 1 25 1;
#X connect 22 0 1 0;
#X connect 23 0 22 0;
#X connect 23 0 21 0;
#X connect 24 0 1 0;
#X connect 25 0 16 0;
#X connect 26 0 1 0;
#X connect 28 0 27 0;
#X connect 29 0 1 0;
#X connect 30 0 1 0;
#X connect 31 0 1 0;
#X connect 32 0 28 0;
#X connect 32 1 2 0;
#X connect 32 2 7 0;
#X connect 32 3 3 0;
#X connect 32 4 4 0;
#X connect 32 5 26 0;
#X connect 32 6 14 0;
#X connect 32 7 5 0;
#X connect 32 8 9 0;
#X connect 32 9 8 0;
#X connect 32 10 23 0;
#X connect 32 11 24 0;
#X connect 32 12 29 0;
#X connect 32 13 30 0;
#X connect 32 14 31 0;
#X restore 236 155 pd init;
#X obj 63 48 inlet~ fwd;
#X obj 130 93 route bang;
#X obj 221 48 inlet;
#X obj 63 193 clone grain.live.grain 256 \$0-buf, f 23;
#N canvas 320 373 450 300 \$0-delin 0;
#X obj 83 77 inlet~;
#X obj 80 196 outlet~;
#N canvas 269 682 450 300 \$0-delwrite~ 0;
#X obj 50 50 inlet~;
#X obj 50 100 delwrite~ 1043-buf 5000;
#X connect 0 0 1 0;
#X restore 81 133 pd \$0-delwrite~;
#X connect 0 0 2 0;
#X restore 63 155 pd \$0-delin;
#X connect 5 0 10 1;
#X connect 6 0 10 1;
#X connect 7 0 11 0;
#X connect 7 1 8 0;
#X connect 8 0 5 0;
#X connect 9 0 5 0;
#X connect 10 0 0 0;
#X connect 10 1 1 0;
#X connect 11 0 10 0;
