#N canvas 833 220 505 289 12;
#X declare -path else;
#X obj 50 36 inlet;
#X obj 49 214 outlet~;
#X obj 249 209 outlet~;
#X obj 319 162 declare -path else;
#X text 172 98 Part of ELSE \; https://github.com/porres/pd-else;
#X text 174 79 Alexandre Torres Porres (2020);
#N canvas 845 238 331 363 route 0;
#X obj 188 207 insert all;
#X obj 203 149 dollsym 1;
#X msg 203 177 set \$1;
#X obj 188 268 outlet;
#X obj 49 26 inlet;
#X obj 203 123 symbol;
#X obj 108 114 r \$0-n;
#X msg 48 197 \$1 bang;
#X obj 49 68 route bang float set;
#X obj 48 171 loop 16;
#X obj 94 145 clip 1 256;
#X connect 0 0 3 0;
#X connect 1 0 2 0;
#X connect 2 0 0 0;
#X connect 4 0 8 0;
#X connect 5 0 1 0;
#X connect 6 0 10 0;
#X connect 7 0 3 0;
#X connect 8 0 9 0;
#X connect 8 1 10 0;
#X connect 8 2 5 0;
#X connect 8 3 0 0;
#X connect 9 0 7 0;
#X connect 10 0 9 1;
#X restore 50 85 pd route;
#N canvas 374 165 1493 571 init 0;
#X obj 184 302 dollsym 1;
#X obj 635 481 outlet;
#X obj 163 257 symbol;
#X obj 281 314 insert all amp;
#X obj 389 314 insert all size;
#X obj 506 314 insert all event;
#X obj 760 314 insert all pan;
#X msg 184 328 all set \$1;
#X obj 184 220 unpack f s;
#X obj 1019 314 insert all scale;
#X obj 1143 314 insert all base, f 16;
#X obj 870 314 insert all autotune;
#X obj 105 273 s \$0-n;
#X obj 130 87 lb -init;
#X obj 137 375 message;
#X obj 137 405 route bang;
#X obj 47 274 del 0;
#X obj 129 124 args -;
#X obj 634 313 insert all speed;
#X obj 129 153 route float symbol list -amp -size -event -speed -pan
-autotune -scale -base -pos, f 128;
#X obj 1280 314 insert all pos, f 16;
#X connect 0 0 7 0;
#X connect 2 0 0 0;
#X connect 3 0 1 0;
#X connect 4 0 1 0;
#X connect 5 0 1 0;
#X connect 6 0 1 0;
#X connect 7 0 14 1;
#X connect 8 0 12 0;
#X connect 8 1 0 0;
#X connect 9 0 1 0;
#X connect 10 0 1 0;
#X connect 11 0 1 0;
#X connect 13 0 16 0;
#X connect 13 0 17 0;
#X connect 14 0 15 0;
#X connect 15 1 1 0;
#X connect 16 0 14 0;
#X connect 17 0 19 0;
#X connect 18 0 1 0;
#X connect 19 0 12 0;
#X connect 19 1 2 0;
#X connect 19 2 8 0;
#X connect 19 3 3 0;
#X connect 19 4 4 0;
#X connect 19 5 5 0;
#X connect 19 6 18 0;
#X connect 19 7 6 0;
#X connect 19 8 11 0;
#X connect 19 9 9 0;
#X connect 19 10 10 0;
#X connect 19 11 20 0;
#X connect 20 0 1 0;
#X restore 72 132 pd init;
#X obj 49 167 clone grain.sampler.grain 256;
#X connect 0 0 6 0;
#X connect 6 0 8 0;
#X connect 7 0 8 0;
#X connect 8 0 1 0;
#X connect 8 1 2 0;
