#N canvas 739 195 643 437 10;
#X declare -path /Users/porres/Documents/Pd/externals/else;
#X obj 44 59 inlet;
#X obj 95 59 inlet;
#X obj 147 59 inlet;
#N canvas 583 226 427 251 guts 0;
#X obj 74 83 inlet;
#X obj 163 83 inlet;
#X obj 249 84 inlet;
#X text 253 58 cents;
#X text 158 57 speed;
#N canvas 825 436 328 176 dynamic-patching 0;
#N canvas 523 125 883 653 load-args 0;
#X obj 99 117 else/args;
#X obj 99 43 inlet;
#X obj 99 150 else/break -;
#X obj 98 339 sel 0;
#X msg 77 370 1;
#X obj 142 371 b;
#X obj 142 395 v ch_\$0;
#X obj 198 294 route float;
#X obj 99 80 trigger bang bang;
#X msg 599 271 \$1;
#X msg 740 253 1;
#X obj 740 280 v sym_\$0;
#X obj 599 324 int;
#X obj 720 431 clip 1 64;
#X obj 689 254 t a b;
#X obj 689 281 symbol;
#X text 686 231 1st arg is symbol;
#X obj 599 298 route float;
#X obj 510 526 v ch_\$0;
#X obj 736 306 s \$0-symbol_arg;
#X obj 599 244 list;
#X obj 689 305 t s s;
#X msg 173 347 1;
#X msg 198 173 100;
#X obj 77 398 t b f;
#N canvas 383 241 350 524 set-buffers 0;
#X obj 43 41 inlet;
#X obj 43 401 list prepend;
#X obj 43 425 list;
#X obj 43 448 s \$0-buflist;
#X obj 112 376 r \$0-init-buflist;
#X obj 43 177 + 1;
#X obj 43 145 trigger float float;
#X obj 70 342 s pd-\$0-buffers;
#N canvas 621 356 434 343 \$0-buffers 0;
#X obj 20 50 table 1166-ch1;
#X restore 194 98 pd \$0-buffers;
#X obj 43 111 else/loop;
#X obj 43 209 makefilename \$0-ch%d, f 12;
#X obj 43 251 t s s;
#X obj 70 287 pack symbol float;
#X obj 169 212 expr 20 + 110 * $f1;
#X msg 70 314 obj \$2 50 table \$1;
#X connect 0 0 9 0;
#X connect 1 0 2 0;
#X connect 2 0 1 1;
#X connect 2 0 3 0;
#X connect 4 0 1 1;
#X connect 5 0 10 0;
#X connect 6 0 5 0;
#X connect 6 1 13 0;
#X connect 9 0 6 0;
#X connect 10 0 11 0;
#X connect 11 0 1 0;
#X connect 11 1 12 0;
#X connect 12 0 14 0;
#X connect 13 0 12 1;
#X connect 14 0 7 0;
#X restore 510 553 pd set-buffers;
#N canvas 400 271 636 322 init 0;
#X obj 248 144 send pd-\$0-buffers;
#X msg 248 113 clear;
#X obj 228 172 s \$0-init-buflist;
#X obj 380 156 send pd-\$0-path;
#X obj 323 105 else/dir 1;
#X msg 380 132 clear \, obj 30 20 declare -path \$1;
#N canvas 169 23 493 100 \$0-path 0;
#X obj 30 20 declare -path /Users/porres/Documents/Pd/externals/else
;
#X restore 499 167 pd \$0-path;
#X obj 194 35 inlet;
#X msg 148 179 0;
#X msg 42 181 100;
#X obj 42 236 s \$0-speed-set;
#X obj 148 236 s \$0-transp-set;
#X obj 186 205 s \$0-grain-size-set;
#X msg 186 178 75;
#X connect 1 0 0 0;
#X connect 4 1 5 0;
#X connect 5 0 3 0;
#X connect 7 0 4 0;
#X connect 7 0 2 0;
#X connect 7 0 1 0;
#X connect 7 0 13 0;
#X connect 7 0 9 0;
#X connect 7 0 8 0;
#X connect 8 0 11 0;
#X connect 9 0 10 0;
#X connect 13 0 12 0;
#X restore 316 64 pd init;
#N canvas 167 330 353 306 +args 0;
#X obj 72 22 inlet;
#X obj 74 92 v sym_\$0;
#X obj 74 116 sel 0 1;
#X obj 152 161 list;
#X obj 117 160 list;
#N canvas 67 279 425 422 1st_is_not_filename 0;
#X obj 87 31 inlet;
#X text 222 347 3nd is autostart;
#X text 229 288 4th is loop;
#X obj 121 263 unpack;
#X obj 114 133 list split 1;
#X obj 87 236 list split 2;
#X msg 205 184 \$1;
#X obj 205 254 s \$0-symbol_arg;
#X obj 148 161 route bang;
#X obj 205 206 else/routetype anything;
#X obj 205 230 symbol;
#X text 239 184 2nd is filename;
#X obj 87 110 t l l;
#X obj 121 316 != 0;
#X obj 121 344 v autostart_\$0;
#X obj 154 289 v loop_\$0;
#X connect 0 0 12 0;
#X connect 3 0 13 0;
#X connect 3 1 15 0;
#X connect 4 1 8 0;
#X connect 5 1 3 0;
#X connect 6 0 9 0;
#X connect 8 1 6 0;
#X connect 9 0 10 0;
#X connect 10 0 7 0;
#X connect 12 0 5 0;
#X connect 12 1 4 0;
#X connect 13 0 14 0;
#X restore 117 210 pd 1st_is_not_filename;
#N canvas 184 344 358 270 1st_is_filename 0;
#X obj 64 63 inlet;
#X text 197 206 2nd is autostart;
#X text 223 172 3nd is loop;
#X obj 64 108 list split 1;
#X obj 98 137 unpack;
#X obj 98 170 != 0;
#X obj 98 202 v autostart_\$0;
#X obj 147 173 v loop_\$0;
#X connect 0 0 3 0;
#X connect 3 1 4 0;
#X connect 4 0 5 0;
#X connect 4 1 7 0;
#X connect 5 0 6 0;
#X restore 152 186 pd 1st_is_filename;
#X obj 74 67 trigger bang anything;
#X connect 0 0 7 0;
#X connect 1 0 2 0;
#X connect 2 0 4 0;
#X connect 2 1 3 0;
#X connect 3 0 6 0;
#X connect 4 0 5 0;
#X connect 7 0 1 0;
#X connect 7 1 3 1;
#X connect 7 1 4 1;
#X restore 422 258 pd +args;
#X obj 422 209 trigger anything bang anything;
#X obj 689 356 soundfiler;
#X msg 746 394 \$3;
#X msg 689 331 read \$1;
#X obj 289 295 route float;
#X msg 289 180 0;
#X obj 173 371 v loop_\$0;
#X obj 274 356 route float;
#X obj 274 386 max 5;
#X obj 274 418 s \$0-grain-size-set;
#X obj 289 322 s \$0-transpo-set;
#X obj 198 320 s \$0-speed-set;
#X obj 99 226 route bang -loop -speed -transp -size -range;
#X obj 316 258 s \$0-set-range;
#X msg 344 175 0 1;
#X connect 0 0 2 0;
#X connect 1 0 8 0;
#X connect 2 0 40 0;
#X connect 3 0 4 0;
#X connect 4 0 24 0;
#X connect 5 0 6 0;
#X connect 6 0 3 0;
#X connect 7 0 39 0;
#X connect 8 0 0 0;
#X connect 8 1 23 0;
#X connect 8 1 26 0;
#X connect 8 1 33 0;
#X connect 8 1 42 0;
#X connect 9 0 17 0;
#X connect 10 0 11 0;
#X connect 12 0 13 0;
#X connect 13 0 18 0;
#X connect 14 0 15 0;
#X connect 14 1 10 0;
#X connect 15 0 21 0;
#X connect 17 0 12 0;
#X connect 17 1 14 0;
#X connect 18 0 25 0;
#X connect 20 0 9 0;
#X connect 21 0 31 0;
#X connect 21 1 19 0;
#X connect 22 0 34 0;
#X connect 23 0 7 0;
#X connect 24 0 18 0;
#X connect 24 1 6 0;
#X connect 28 0 27 0;
#X connect 28 1 18 0;
#X connect 28 2 20 0;
#X connect 29 1 30 0;
#X connect 30 0 13 0;
#X connect 31 0 29 0;
#X connect 32 0 38 0;
#X connect 33 0 32 0;
#X connect 35 0 36 0;
#X connect 36 0 37 0;
#X connect 40 0 4 0;
#X connect 40 1 5 0;
#X connect 40 1 22 0;
#X connect 40 2 7 0;
#X connect 40 2 5 0;
#X connect 40 3 32 0;
#X connect 40 4 35 0;
#X connect 40 5 41 0;
#X connect 40 6 28 0;
#X connect 42 0 41 0;
#X restore 223 71 pd load-args;
#X obj 82 41 else/loadbanger -init 3, f 24;
#N canvas 624 52 474 517 initialize 0;
#X obj 117 382 s \$0-file;
#X obj 104 270 r \$0-symbol_arg;
#X obj 71 296 symbol;
#X obj 135 359 symbol;
#X obj 90 358 sel s;
#X obj 311 150 s \$0-window_size;
#X obj 311 125 v wsize_\$0;
#X obj 75 22 inlet;
#X obj 140 112 v loop_\$0;
#X obj 168 230 s \$0-ramp;
#X obj 140 144 select 0 1;
#X obj 313 371 r \$0-transpo-set;
#X obj 298 395 f;
#X obj 330 214 f;
#X obj 330 236 s \$0-speed;
#X obj 345 190 r \$0-speed-set;
#X obj 308 305 f;
#X obj 323 281 r \$0-grain-size-set;
#X obj 308 327 s \$0-grain-size;
#X obj 75 54 trigger bang bang bang;
#X obj 298 417 s \$0-transp;
#X msg 140 205 mode 1;
#X msg 168 173 mode 0;
#X obj 92 413 r \$0-set-range;
#X obj 71 438 list;
#X obj 71 464 s \$0-range;
#X obj 71 325 t b s b;
#X connect 1 0 2 1;
#X connect 2 0 26 0;
#X connect 3 0 4 1;
#X connect 4 1 0 0;
#X connect 6 0 5 0;
#X connect 7 0 19 0;
#X connect 8 0 10 0;
#X connect 10 0 21 0;
#X connect 10 1 22 0;
#X connect 11 0 12 1;
#X connect 12 0 20 0;
#X connect 13 0 14 0;
#X connect 15 0 13 1;
#X connect 16 0 18 0;
#X connect 17 0 16 1;
#X connect 19 0 2 0;
#X connect 19 1 8 0;
#X connect 19 2 6 0;
#X connect 19 2 12 0;
#X connect 19 2 16 0;
#X connect 19 2 13 0;
#X connect 21 0 9 0;
#X connect 22 0 9 0;
#X connect 23 0 24 1;
#X connect 24 0 25 0;
#X connect 26 0 24 0;
#X connect 26 1 4 0;
#X connect 26 2 3 0;
#X restore 82 133 pd initialize;
#N canvas 596 307 643 470 create-grains 0;
#X obj 115 420 s \$0-player;
#X obj 160 322 + 7;
#X obj 206 319 + 8;
#X obj 206 294 * 2;
#X obj 115 318 + 1;
#X obj 115 349 pack float float float float \$0;
#X obj 115 267 trigger float float;
#X obj 115 49 inlet;
#X obj 115 138 else/loop;
#X obj 115 97 v ch_\$0;
#X obj 267 255 s \$0-player;
#X obj 331 161 + 7;
#X obj 331 135 * 2;
#X obj 267 153 + 1;
#X obj 267 102 trigger float float;
#X obj 267 76 v ch_\$0;
#X obj 252 301 expr 20 + 140 * $f1;
#X msg 267 211 obj \$3 285 outlet \, connect 7 1 \$2 0, f 51;
#X obj 267 184 pack float float float;
#X obj 396 147 expr 20 + 140 * $f1;
#X msg 115 376 obj \$4 260 else/gran~ \$5 ch\$1 \, obj \$4 285 outlet~
\, connect \$2 0 \$3 0, f 51;
#X connect 1 0 5 1;
#X connect 2 0 5 2;
#X connect 3 0 1 0;
#X connect 3 0 2 0;
#X connect 4 0 5 0;
#X connect 5 0 20 0;
#X connect 6 0 4 0;
#X connect 6 1 3 0;
#X connect 6 1 16 0;
#X connect 7 0 9 0;
#X connect 8 0 6 0;
#X connect 8 1 15 0;
#X connect 9 0 8 0;
#X connect 11 0 18 1;
#X connect 12 0 11 0;
#X connect 13 0 18 0;
#X connect 14 0 13 0;
#X connect 14 1 12 0;
#X connect 14 1 19 0;
#X connect 15 0 14 0;
#X connect 16 0 5 3;
#X connect 17 0 10 0;
#X connect 18 0 17 0;
#X connect 19 0 18 2;
#X connect 20 0 0 0;
#X restore 152 104 pd create-grains;
#X connect 1 0 2 0;
#X connect 1 1 3 0;
#X connect 1 2 0 0;
#X restore 179 159 pd dynamic-patching;
#X obj 249 115 s \$0-transp;
#X obj 163 115 s \$0-speed;
#X text 72 57 messages;
#N canvas 471 131 896 559 route 0;
#X obj 235 233 symbol;
#X obj 166 152 route bang, f 12;
#X obj 166 212 openpanel;
#X obj 262 347 list trim;
#X obj 262 375 soundfiler;
#X obj 262 317 list append;
#X obj 346 317 r \$0-buflist;
#X obj 235 261 t b s;
#X obj 130 299 r \$0-file;
#X obj 130 325 t b s;
#X obj 130 356 v autostart_\$0;
#X obj 130 386 sel 1;
#X obj 262 292 list prepend read -resize;
#X obj 286 249 symbol;
#X obj 166 89 route open set reload, f 33;
#X obj 294 217 r \$0-file;
#X obj 166 35 inlet;
#X obj 81 151 else/click;
#X obj 262 404 s \$0-size;
#X msg 235 456 start;
#X obj 235 480 s \$0-ramp;
#X obj 419 203 != 0;
#X obj 650 180 != 0;
#X obj 667 213 s \$0-loop;
#X msg 496 291 reset;
#X obj 457 362 s \$0-ramp;
#X msg 573 273 stop;
#X msg 612 279 start;
#X obj 419 233 select 1 0;
#X obj 650 246 sel 0 1;
#X msg 669 280 mode 0;
#X obj 743 265 s \$1-grain-size;
#X obj 743 203 route float;
#X obj 743 233 max 5;
#X msg 650 307 mode 1;
#N canvas 767 114 417 490 range 0;
#X obj 171 247 sel 1;
#X obj 215 153 v t_\$0;
#X obj 171 106 unpack;
#X obj 204 128 clip 0 1;
#X obj 171 196 clip 0 1;
#X obj 154 75 r \$0-range;
#X obj 123 37 inlet;
#X obj 123 104 t b l;
#X obj 205 172 v max_\$0;
#X obj 171 220 expr (min_\$0 = $f1) > max_\$0;
#X obj 171 271 expr min_\$0 = t_\$0 \; max_\$0 = min_\$0;
#X obj 180 316 r \$0-size;
#X obj 270 159 v min_\$0;
#X obj 125 401 s \$0-min;
#X obj 230 398 s \$0-max;
#X obj 125 347 expr $f1 * min_\$0 \; $f1 * max_\$0;
#X obj 258 73 display;
#X floatatom 341 135 5 0 0 0 - - -;
#X floatatom 274 245 5 0 0 0 - - -;
#X floatatom 264 351 5 0 0 0 - - -;
#X floatatom 208 426 0 0 0 0 - - -;
#X floatatom 95 431 0 0 0 0 - - -;
#X connect 0 0 10 0;
#X connect 2 0 4 0;
#X connect 2 1 3 0;
#X connect 3 0 1 0;
#X connect 3 0 8 0;
#X connect 3 0 17 0;
#X connect 4 0 9 0;
#X connect 4 0 18 0;
#X connect 5 0 7 0;
#X connect 6 0 7 0;
#X connect 6 0 16 0;
#X connect 7 0 15 0;
#X connect 7 1 2 0;
#X connect 9 0 0 0;
#X connect 11 0 15 0;
#X connect 11 0 19 0;
#X connect 15 0 13 0;
#X connect 15 0 21 0;
#X connect 15 1 14 0;
#X connect 15 1 20 0;
#X restore 745 178 pd range;
#X obj 419 148 route float bang stop start pause continue loop size
range;
#X connect 0 0 7 0;
#X connect 1 0 2 0;
#X connect 1 1 0 0;
#X connect 2 0 0 0;
#X connect 3 0 4 0;
#X connect 4 0 18 0;
#X connect 5 0 3 0;
#X connect 6 0 5 1;
#X connect 7 0 19 0;
#X connect 7 1 12 0;
#X connect 8 0 9 0;
#X connect 9 0 10 0;
#X connect 9 1 12 0;
#X connect 10 0 11 0;
#X connect 11 0 19 0;
#X connect 12 0 5 0;
#X connect 13 0 0 1;
#X connect 14 0 1 0;
#X connect 14 1 13 0;
#X connect 14 2 0 0;
#X connect 14 3 36 0;
#X connect 15 0 13 0;
#X connect 16 0 14 0;
#X connect 17 0 2 0;
#X connect 19 0 20 0;
#X connect 21 0 28 0;
#X connect 22 0 23 0;
#X connect 22 0 29 0;
#X connect 24 0 25 0;
#X connect 26 0 25 0;
#X connect 27 0 25 0;
#X connect 28 0 25 0;
#X connect 28 1 24 0;
#X connect 29 0 34 0;
#X connect 29 1 30 0;
#X connect 30 0 25 0;
#X connect 32 0 33 0;
#X connect 33 0 31 0;
#X connect 34 0 25 0;
#X connect 36 0 21 0;
#X connect 36 1 25 0;
#X connect 36 2 24 0;
#X connect 36 3 25 0;
#X connect 36 4 26 0;
#X connect 36 5 27 0;
#X connect 36 6 22 0;
#X connect 36 7 32 0;
#X connect 36 8 35 0;
#X restore 74 168 pd route;
#X connect 0 0 9 0;
#X connect 1 0 7 0;
#X connect 2 0 6 0;
#X restore 76 108 pd guts;
#X obj 176 106 namecanvas \$0-player;
#X text 70 169 Alexandre Torres Porres (2018) \; Part of ELSE:;
#X text 71 203 https://github.com/porres/pd-else;
#X connect 0 0 3 0;
#X connect 1 0 3 1;
#X connect 2 0 3 2;
