#N canvas 325 220 669 436 12;
#X obj 203 321 +~;
#X obj 218 149 -~;
#X obj 200 175 *~;
#X obj 95 108 expr 1000 / $f1;
#N canvas 621 124 624 548 grain-2 0;
#X obj 263 269 +~;
#X obj 158 240 *~;
#X obj 358 444 *~;
#X obj 358 472 outlet~;
#X obj 291 87 inlet~;
#X obj 158 86 inlet~;
#X obj 158 146 else/pimp~ 0 0.5;
#X obj 421 287 else/envelope~;
#X obj 176 217 else/sh~;
#X obj 263 313 else/wrap2~;
#X obj 468 166 r \$1-size;
#X obj 262 395 tabread4~ \$1-\$2, f 9;
#X obj 60 89 inlet~;
#X obj 335 118 r \$1-ramp;
#X obj 281 146 else/ramp~ -off -mode 2;
#X obj 137 311 + 1;
#X obj 137 282 r \$1-loop;
#X obj 191 348 else/xselect~ 2 0 1, f 13;
#X connect 0 0 9 0;
#X connect 0 0 17 0;
#X connect 1 0 0 0;
#X connect 2 0 3 0;
#X connect 4 0 14 1;
#X connect 5 0 6 0;
#X connect 6 0 1 0;
#X connect 6 0 7 0;
#X connect 6 1 8 1;
#X connect 7 0 2 1;
#X connect 8 0 1 1;
#X connect 9 0 17 1;
#X connect 10 0 9 2;
#X connect 10 0 14 3;
#X connect 11 0 2 0;
#X connect 12 0 8 0;
#X connect 13 0 14 0;
#X connect 14 0 0 1;
#X connect 15 0 17 0;
#X connect 16 0 15 0;
#X connect 17 0 11 0;
#X restore 258 281 pd grain-2;
#N canvas 442 258 675 571 grain-1 0;
#X obj 315 274 +~;
#X obj 218 246 *~;
#X obj 410 447 *~;
#X obj 410 475 outlet~;
#X obj 372 100 inlet~;
#X obj 218 90 inlet~;
#X obj 236 223 else/sh~;
#X obj 218 150 else/pimp~;
#X obj 428 289 else/envelope~;
#X obj 328 312 else/wrap2~;
#X obj 522 173 r \$1-size;
#X obj 248 390 tabread4~ \$1-\$2, f 9;
#X obj 111 101 inlet~;
#X obj 347 142 r \$1-ramp;
#X obj 333 186 else/ramp~ -off -mode 2;
#X obj 126 263 + 1;
#X obj 126 234 r \$1-loop;
#X obj 240 344 else/xselect~ 2 0 1, f 13;
#X obj 527 429 outlet;
#X connect 0 0 9 0;
#X connect 0 0 17 0;
#X connect 1 0 0 0;
#X connect 2 0 3 0;
#X connect 4 0 14 1;
#X connect 5 0 7 0;
#X connect 6 0 1 1;
#X connect 7 0 1 0;
#X connect 7 0 8 0;
#X connect 7 1 6 1;
#X connect 8 0 2 1;
#X connect 9 0 17 1;
#X connect 10 0 9 2;
#X connect 10 0 14 3;
#X connect 11 0 2 0;
#X connect 12 0 6 0;
#X connect 13 0 14 0;
#X connect 14 0 0 1;
#X connect 14 1 18 0;
#X connect 15 0 17 0;
#X connect 16 0 15 0;
#X connect 17 0 11 0;
#X restore 167 280 pd grain-1;
#X obj 338 140 / 100;
#X obj 203 361 outlet~;
#X obj 218 106 else/cents2ratio;
#X obj 83 176 else/ms2samps;
#X obj 338 47 r \$1-speed;
#X obj 311 354 outlet;
#X obj 218 50 r \$1-transp;
#X obj 83 49 r \$1-grain-size;
#X text 403 178 Alexandre Torres Porres (2018) \; Part of ELSE:;
#X text 404 212 https://github.com/porres/pd-else;
#X connect 0 0 7 0;
#X connect 1 0 2 1;
#X connect 2 0 5 1;
#X connect 2 0 4 1;
#X connect 3 0 2 0;
#X connect 4 0 0 1;
#X connect 5 0 0 0;
#X connect 5 1 11 0;
#X connect 6 0 1 1;
#X connect 6 0 4 2;
#X connect 6 0 5 2;
#X connect 8 0 1 0;
#X connect 9 0 5 0;
#X connect 9 0 4 0;
#X connect 10 0 6 0;
#X connect 12 0 8 0;
#X connect 13 0 9 0;
#X connect 13 0 3 0;
