#N canvas 590 211 540 291 10;
#X obj 95 35 inlet~;
#X obj 144 35 inlet;
#X obj 59 100 cnv 15 198 138 empty empty empty 20 12 0 14 -233017 -66577
0;
#N canvas 45 23 450 300 \$0-array-cnv 0;
#X coords 0 140 200 0 200 140 2 100 20;
#X restore 58 99 pd \$0-array-cnv;
#N canvas 702 360 391 220 guts 0;
#X obj 117 171 tabwrite~;
#X obj 233 67 bng 15 250 50 0 empty empty empty 17 7 0 10 -228856 -1
-1;
#X text 251 66 before saving;
#X obj 54 40 inlet~;
#X obj 118 41 inlet;
#X obj 233 36 inlet;
#X obj 117 101 r \$0-set-array;
#N canvas 671 36 224 239 clip~ 0;
#X obj 79 46 inlet~;
#X obj 79 164 outlet~;
#X obj 92 75 r \$0-range;
#X obj 92 98 unpack;
#X obj 79 134 clip~;
#X connect 0 0 4 0;
#X connect 2 0 3 0;
#X connect 3 0 4 1;
#X connect 3 1 4 2;
#X connect 4 0 1 0;
#X restore 54 126 pd clip~;
#X obj 233 113 s pd-\$0-array-cnv;
#X msg 233 91 clear;
#N canvas 669 403 278 223 metro 0;
#X obj 133 104 r \$0-size;
#X obj 106 77 r \$0-metro;
#X obj 106 131 metro;
#X obj 106 166 outlet;
#X obj 77 78 tgl 15 0 empty empty empty 17 7 0 10 -228856 -1 -1 1 1
;
#X obj 77 46 r \$0-metro-tgl;
#X connect 0 0 2 1;
#X connect 1 0 2 0;
#X connect 2 0 3 0;
#X connect 4 0 2 0;
#X connect 5 0 4 0;
#X restore 132 131 pd metro;
#N canvas 596 80 439 298 set-args 0;
#X obj 91 126 else/args;
#X obj 91 152 else/break -;
#N canvas 905 272 476 261 flags 0;
#X obj 102 50 inlet;
#X obj 102 83 route -size -skip -range, f 47;
#X obj 102 119 route float;
#X obj 196 119 route float;
#X obj 288 119 route list;
#X obj 102 148 s \$0-set-size;
#X obj 288 148 s \$0-set-range;
#X obj 196 148 s \$0-set-skip;
#X connect 0 0 1 0;
#X connect 1 0 2 0;
#X connect 1 1 3 0;
#X connect 1 2 4 0;
#X connect 2 0 5 0;
#X connect 3 0 7 0;
#X connect 4 0 6 0;
#X restore 292 214 pd flags;
#X obj 148 243 s \$0-metro-tgl;
#X obj 166 33 inlet;
#N canvas 629 573 650 264 route 0;
#X obj 212 159 route float;
#X obj 305 159 route float;
#X obj 398 159 route list;
#X obj 212 188 s \$0-set-size;
#X obj 398 188 s \$0-set-range;
#X obj 305 188 s \$0-set-skip;
#X obj 212 123 route size skip range, f 47;
#X obj 210 90 inlet;
#X connect 0 0 3 0;
#X connect 1 0 5 0;
#X connect 2 0 4 0;
#X connect 6 0 0 0;
#X connect 6 1 1 0;
#X connect 6 2 2 0;
#X connect 7 0 6 0;
#X restore 289 95 pd route;
#N canvas 605 180 466 309 set-args 0;
#X msg 116 129 set \$1;
#X msg 181 132 set \$1;
#X obj 116 105 r \$0-size;
#X obj 257 105 r \$0-range;
#X msg 257 132 set \$1 \$2;
#X obj 86 53 inlet;
#X obj 86 219 outlet;
#X obj 181 106 r \$0-skip;
#X obj 86 161 else/pack2 441 0 -1 1;
#X obj 86 193 else/changed 441 0 -1 1;
#X connect 0 0 8 0;
#X connect 1 0 8 1;
#X connect 2 0 0 0;
#X connect 3 0 4 0;
#X connect 4 0 8 2;
#X connect 5 0 8 0;
#X connect 7 0 1 0;
#X connect 8 0 9 0;
#X connect 9 0 6 0;
#X restore 166 93 pd set-args;
#X obj 166 62 trigger bang anything;
#N canvas 186 23 427 255 load-args 0;
#X obj 96 61 inlet;
#N canvas 433 215 293 292 size 0;
#X obj 91 133 int;
#X obj 91 160 max 64;
#X obj 104 190 array size;
#X obj 161 163 r \$0-name;
#X obj 91 230 s \$0-size;
#X obj 91 67 inlet;
#X obj 103 98 r \$0-set-size;
#X connect 0 0 1 0;
#X connect 1 0 2 0;
#X connect 1 0 4 0;
#X connect 3 0 2 1;
#X connect 5 0 0 0;
#X connect 6 0 0 0;
#X restore 96 117 pd size;
#N canvas 284 320 288 297 skip 0;
#X msg 111 207 tempo \$1 samp;
#X obj 111 90 int;
#X obj 111 116 max 0;
#X obj 128 182 s \$0-frames;
#X obj 111 154 + 1;
#X obj 111 37 inlet;
#X obj 111 234 s \$0-metro;
#X obj 124 66 r \$0-set-skip;
#X obj 146 145 s \$0-skip;
#X connect 0 0 6 0;
#X connect 1 0 2 0;
#X connect 2 0 4 0;
#X connect 2 0 8 0;
#X connect 4 0 0 0;
#X connect 4 0 3 0;
#X connect 5 0 1 0;
#X connect 7 0 1 0;
#X restore 155 116 pd skip;
#X obj 96 91 unpack float float float float;
#N canvas 507 142 450 324 range 0;
#X obj 198 269 send;
#X obj 235 269 r \$0-name;
#X obj 198 165 pack f f f;
#X obj 289 100 r \$0-size;
#X obj 198 97 unpack;
#X obj 254 70 inlet;
#X obj 141 70 inlet;
#X obj 198 41 r \$0-set-range;
#X obj 213 220 s \$0-range;
#X msg 213 193 \$1 \$3;
#X msg 198 245 bounds 0 \$3 \$2 \$1;
#X connect 1 0 0 1;
#X connect 2 0 10 0;
#X connect 2 0 9 0;
#X connect 3 0 2 1;
#X connect 4 0 2 0;
#X connect 4 1 2 2;
#X connect 5 0 2 2;
#X connect 6 0 2 0;
#X connect 7 0 4 0;
#X connect 9 0 8 0;
#X connect 10 0 0 0;
#X restore 214 115 pd range;
#X connect 0 0 3 0;
#X connect 3 0 1 0;
#X connect 3 1 2 0;
#X connect 3 2 4 0;
#X connect 3 3 4 1;
#X restore 199 214 pd load-args;
#X obj 91 71 else/lb 2;
#N canvas 786 103 450 300 default 0;
#X obj 91 45 inlet;
#X msg 91 194 0;
#N canvas 190 23 382 370 set-array 0;
#N canvas 45 23 381 397 init-name 0;
#X obj 176 68 expr \$0 * 1000 + 1 \; \$0 * 1000 + 2;
#X obj 225 175 t b f;
#X obj 195 219 list split;
#X obj 223 241 list split 1;
#X obj 176 131 t f f;
#X obj 176 153 div 2;
#X obj 225 153 mod 2;
#X msg 195 197 32 160;
#X obj 101 274 list tosymbol;
#X obj 176 109 trigger float bang, f 19;
#X obj 223 263 list append, f 15;
#X obj 223 287 trigger list;
#X obj 106 237 list append;
#X obj 106 195 sel 0;
#X obj 75 29 inlet;
#X obj 75 80 t b b;
#X obj 101 312 s \$0-name;
#X obj 75 344 outlet;
#X text 163 314 invisible name;
#X connect 0 0 9 0;
#X connect 1 0 7 0;
#X connect 1 1 2 1;
#X connect 2 1 3 0;
#X connect 3 0 10 0;
#X connect 4 0 5 0;
#X connect 4 1 6 0;
#X connect 5 0 13 0;
#X connect 6 0 1 0;
#X connect 7 0 2 0;
#X connect 8 0 16 0;
#X connect 9 0 4 0;
#X connect 9 1 10 1;
#X connect 10 0 11 0;
#X connect 11 0 10 1;
#X connect 11 0 12 1;
#X connect 12 0 8 0;
#X connect 13 0 12 0;
#X connect 13 1 4 0;
#X connect 14 0 15 0;
#X connect 15 0 17 0;
#X connect 15 1 0 0;
#X restore 57 113 pd init-name;
#X obj 57 137 pack \$0 symbol;
#X obj 115 88 s pd-\$0-array-cnv;
#X obj 57 87 t b b;
#X msg 115 66 clear;
#X msg 57 159 \; pd-\$1-array-cnv graph \$1-graph \; pd-\$1-graph pop
\, array \$2 0 float 1 \; \$1-set bang;
#X obj 138 113 r \$0-name;
#X obj 57 32 inlet;
#X obj 243 73 r pd-dsp-stopped;
#X msg 243 96 const 0;
#X obj 243 121 send;
#X obj 278 121 r \$0-name;
#X msg 58 293 set \$1;
#X obj 91 246 r \$0-name;
#X obj 58 267 symbol;
#X obj 58 226 r \$0-set;
#X obj 58 325 s \$0-set-array;
#X connect 0 0 1 0;
#X connect 1 0 5 0;
#X connect 3 0 0 0;
#X connect 3 1 4 0;
#X connect 4 0 2 0;
#X connect 6 0 1 1;
#X connect 7 0 3 0;
#X connect 8 0 9 0;
#X connect 9 0 10 0;
#X connect 11 0 10 1;
#X connect 12 0 16 0;
#X connect 13 0 14 1;
#X connect 14 0 12 0;
#X connect 15 0 14 0;
#X restore 155 72 pd set-array;
#X obj 91 218 s \$0-set-skip;
#X obj 131 190 s \$0-set-range;
#X obj 91 71 t b b b;
#X msg 133 98 441;
#X obj 133 122 s \$0-set-size;
#X msg 131 165 -1 1;
#X connect 0 0 5 0;
#X connect 1 0 3 0;
#X connect 5 0 1 0;
#X connect 5 0 8 0;
#X connect 5 1 6 0;
#X connect 5 2 2 0;
#X connect 6 0 7 0;
#X connect 8 0 4 0;
#X restore 159 128 pd default;
#X obj 199 191 route float list;
#X obj 148 205 t b a;
#X obj 91 181 route bang;
#X connect 0 0 1 0;
#X connect 1 0 13 0;
#X connect 4 0 7 0;
#X connect 6 0 0 0;
#X connect 7 0 6 0;
#X connect 7 1 5 0;
#X connect 9 0 0 0;
#X connect 9 1 10 0;
#X connect 11 0 8 0;
#X connect 11 1 8 0;
#X connect 11 2 2 0;
#X connect 12 0 3 0;
#X connect 12 1 11 0;
#X connect 13 0 3 0;
#X connect 13 1 12 0;
#X restore 118 68 pd set-args;
#X connect 1 0 9 0;
#X connect 3 0 7 0;
#X connect 4 0 11 0;
#X connect 5 0 1 0;
#X connect 6 0 0 0;
#X connect 7 0 0 0;
#X connect 9 0 8 0;
#X connect 10 0 0 0;
#X restore 95 63 pd guts;
#X text 233 47 Part of ELSE \; https://github.com/porres/pd-else;
#X text 235 28 Alexandre Torres Porres (2017-2018);
#X obj 150 64 bng 15 250 50 0 empty empty empty 17 7 0 10 -262144 -1
-1;
#X connect 0 0 4 0;
#X connect 1 0 4 1;
#X connect 7 0 4 2;
#X coords 0 -1 1 1 202 142 2 57 98;
