#N canvas 438 61 506 256 10;
#X obj 87 180 outlet~;
#X obj 87 140 *~;
#X obj 87 63 inlet~;
#N canvas 787 113 411 313 hann-table 0;
#X obj 65 40 r pd-dsp-started;
#X msg 220 160 resize \$1;
#X obj 65 146 else/loop;
#X obj 234 94 v twopi;
#X obj 65 89 change;
#X obj 65 64 else/blocksize~;
#X obj 220 181 array define hann_\$0;
#X obj 65 173 expr hann_\$0[$f1] = cos(twopi*$f1/$f2) * -0.5 + 0.5
, f 19;
#X obj 65 116 trigger float float;
#X obj 109 236 tabreceive~ hann_\$0;
#X obj 109 267 outlet~;
#X obj 234 71 else/pi 2;
#X connect 0 0 5 0;
#X connect 1 0 6 0;
#X connect 2 0 7 0;
#X connect 4 0 8 0;
#X connect 5 0 4 0;
#X connect 8 0 2 0;
#X connect 8 1 1 0;
#X connect 8 1 7 1;
#X connect 9 0 10 0;
#X connect 11 0 3 0;
#X restore 102 115 pd hann-table;
#X text 214 125 Part of ELSE \; https://github.com/porres/pd-else;
#X text 216 106 Alexandre Torres Porres (2018);
#X connect 1 0 0 0;
#X connect 2 0 1 0;
#X connect 3 0 1 1;
