#N canvas 407 64 471 352 10;
#X obj 132 164 list fromsymbol;
#X obj 132 189 list split 1;
#X msg 82 164 0;
#X obj 82 193 v i_\$0;
#X obj 59 214 v sum_\$0;
#X obj 59 72 symbol \$1;
#X obj 59 29 inlet;
#X obj 110 29 inlet;
#X obj 59 293 outlet;
#X text 169 107 Part of ELSE \; https://github.com/porres/pd-else;
#X obj 166 212 list;
#X obj 132 238 expr i_\$0 = i_\$0 + 1 \; sum_\$0 = sum_\$0 + if($f1
< 97 \, $f1 -48 \, $f1 -87) * pow(16 \, i_\$0), f 48;
#X obj 59 114 t b s b;
#X text 171 88 Alexandre Torres Porres (2018);
#X connect 0 0 1 0;
#X connect 1 0 11 0;
#X connect 1 1 10 0;
#X connect 2 0 3 0;
#X connect 2 0 4 0;
#X connect 4 0 8 0;
#X connect 5 0 12 0;
#X connect 6 0 5 0;
#X connect 7 0 5 1;
#X connect 10 0 1 0;
#X connect 12 0 4 0;
#X connect 12 1 0 0;
#X connect 12 2 2 0;
