#N canvas 796 42 446 430 10;
#X obj 87 290 else/resonant~ 1700 100, f 14;
#X obj 287 290 else/resonant~ 1000 100, f 14;
#X obj 189 290 else/resonant~ 600 100, f 14;
#X obj 287 199 bang;
#X obj 189 199 bang;
#X obj 215 145 change;
#X obj 150 143 change;
#X obj 182 114 unpack;
#X obj 148 92 list split 2;
#X obj 215 168 moses 2;
#X obj 150 167 sel 0 1;
#X obj 287 226 else/impseq~;
#X obj 189 226 else/impseq~;
#X obj 87 226 else/impseq~;
#X obj 189 374 outlet~;
#N canvas 564 95 296 316 init 0;
#X obj 71 119 pdcontrol;
#X msg 71 83 args;
#X obj 72 148 route bang;
#X obj 129 178 unpack f f f;
#X obj 158 245 s \$0-lo;
#X obj 173 223 s \$0-mid;
#X obj 198 201 s \$0-hi;
#X obj 71 50 loadbang;
#X connect 0 0 2 0;
#X connect 1 0 0 0;
#X connect 2 1 3 0;
#X connect 3 0 4 0;
#X connect 3 1 5 0;
#X connect 3 2 6 0;
#X connect 7 0 1 0;
#X restore 300 117 pd init;
#X obj 127 259 r \$0-lo;
#X obj 229 259 r \$0-mid;
#X obj 327 259 r \$0-hi;
#X obj 148 62 inlet;
#X connect 0 0 14 0;
#X connect 1 0 14 0;
#X connect 2 0 14 0;
#X connect 3 0 11 0;
#X connect 4 0 12 0;
#X connect 5 0 9 0;
#X connect 6 0 10 0;
#X connect 7 0 6 0;
#X connect 7 1 5 0;
#X connect 8 1 7 0;
#X connect 9 1 3 0;
#X connect 10 1 13 0;
#X connect 10 2 4 0;
#X connect 11 0 1 0;
#X connect 12 0 2 0;
#X connect 13 0 0 0;
#X connect 16 0 0 1;
#X connect 17 0 2 1;
#X connect 18 0 1 1;
#X connect 19 0 8 0;
