#N canvas 509 93 803 694 12;
#X obj 320 355 array set s_\$0;
#X obj 244 386 array set t_\$0;
#X obj 169 395 line;
#X obj 169 420 t b b f;
#X obj 192 487 expr s_\$0[$f1] + (t_\$0[$f1]-s_\$0[$f1]) * $f2, f
27;
#X obj 320 328 list;
#X obj 433 407 array define s_\$0;
#X obj 433 437 array define t_\$0;
#X obj 192 455 else/loop;
#X obj 169 535 else/group;
#X obj 169 629 outlet;
#X obj 455 75 inlet;
#X msg 169 364 0 \, 1 \$1;
#X obj 169 269 trigger bang list bang;
#X obj 169 335 f \$1;
#X obj 298 75 inlet;
#X obj 455 115 s \$0-time;
#X obj 169 204 else/limit \$1 1;
#X obj 92 269 r \$0-time;
#X obj 298 115 route list set;
#X obj 362 269 trigger bang list bang;
#X obj 169 567 t l l;
#X obj 201 597 s \$0-state;
#X obj 538 268 r \$0-state;
#X obj 513 295 list;
#X obj 252 420 r \$0-size;
#X obj 513 328 array set s_\$0;
#X obj 437 355 array set t_\$0;
#N canvas 495 23 299 339 size 0;
#X obj 150 190 array size t_\$0;
#X obj 141 216 array size s_\$0;
#X obj 160 166 s \$0-size;
#X obj 90 102 t l l;
#X obj 90 57 inlet;
#X obj 90 258 outlet;
#X obj 141 100 list length;
#X obj 141 129 change;
#X connect 3 0 5 0;
#X connect 3 1 6 0;
#X connect 4 0 3 0;
#X connect 6 0 7 0;
#X connect 7 0 0 0;
#X connect 7 0 1 0;
#X connect 7 0 2 0;
#X restore 169 169 pd size;
#X text 453 523 Part of ELSE \; https://github.com/porres/pd-else;
#X text 455 504 Alexandre Torres Porres (2021);
#X connect 2 0 3 0;
#X connect 3 0 9 0;
#X connect 3 1 8 0;
#X connect 3 2 4 1;
#X connect 4 0 9 0;
#X connect 5 0 0 0;
#X connect 8 0 4 0;
#X connect 9 0 21 0;
#X connect 11 0 16 0;
#X connect 12 0 2 0;
#X connect 13 0 14 0;
#X connect 13 1 5 1;
#X connect 13 1 1 0;
#X connect 13 2 5 0;
#X connect 14 0 12 0;
#X connect 15 0 19 0;
#X connect 17 0 13 0;
#X connect 17 1 20 0;
#X connect 18 0 14 1;
#X connect 19 0 28 0;
#X connect 19 1 5 1;
#X connect 20 0 14 0;
#X connect 20 1 27 0;
#X connect 20 1 5 1;
#X connect 20 2 24 0;
#X connect 21 0 10 0;
#X connect 21 1 22 0;
#X connect 23 0 24 1;
#X connect 24 0 26 0;
#X connect 25 0 8 1;
#X connect 28 0 17 0;
