#N canvas 186 291 563 368 10;
#X obj 119 73 inlet;
#X obj 118 226 outlet;
#X obj 118 177 *;
#X text 267 165 Part of ELSE \; https://github.com/porres/pd-else;
#X text 269 146 Alexandre Torres Porres (2017);
#X obj 166 116 else/sr~ -khz;
#X obj 119 146 else/hot;
#X connect 0 0 6 0;
#X connect 2 0 1 0;
#X connect 5 0 6 1;
#X connect 6 0 2 0;
#X connect 6 1 2 1;
