#N canvas 611 141 581 463 10;
#X obj 92 61 inlet;
#X obj 154 391 outlet;
#X obj 92 278 *;
#X text 278 211 Part of ELSE \; https://github.com/porres/pd-else;
#X text 280 192 Alexandre Torres Porres (2017);
#X obj 154 345 spigot;
#X msg 187 124 1;
#X obj 92 114 t f b;
#X obj 137 221 change;
#X obj 137 193 else/sr~ -khz;
#X obj 92 247 else/hot;
#X obj 187 96 else/nmess 1;
#X obj 137 165 else/lb;
#X connect 0 0 7 0;
#X connect 2 0 5 0;
#X connect 5 0 1 0;
#X connect 6 0 5 1;
#X connect 7 0 10 0;
#X connect 7 1 11 0;
#X connect 8 0 10 1;
#X connect 9 0 8 0;
#X connect 10 0 2 0;
#X connect 10 1 2 1;
#X connect 11 0 6 0;
#X connect 12 0 9 0;
