#N struct 1008-cell float x float y float cellsize float color;
#N canvas 292 151 993 645 10;
#X obj 59 15 inlet;
#N canvas 53 320 854 454 \$0-paint 0;
#X scalar 1008-cell 0 0 14 988 \;;
#X scalar 1008-cell 0 15 14 988 \;;
#X scalar 1008-cell 15 0 14 988 \;;
#X scalar 1008-cell 15 15 14 988 \;;
#X scalar 1008-cell 30 0 14 988 \;;
#X scalar 1008-cell 30 15 14 988 \;;
#X scalar 1008-cell 45 0 14 988 \;;
#X scalar 1008-cell 45 15 14 988 \;;
#X coords 0 29 59 0 59 29 2 150 150;
#X restore 151 151 pd \$0-paint;
#X obj 59 600 outlet;
#N canvas 300 27 275 198 guts 0;
#X obj 53 31 inlet;
#X obj 53 133 outlet;
#N canvas 196 136 737 650 \$0-cell 0;
#X obj 202 270 get \$0-cell color;
#X obj 242 347 set \$0-cell color;
#X obj 185 51 struct \$0-cell float x float y float cellsize float
color;
#X obj 202 217 pointer;
#X obj 257 164 v size_\$0;
#X obj 257 191 - 1;
#X obj 257 217 set \$0-cell cellsize;
#X obj 202 247 trigger pointer pointer;
#X obj 202 141 select click change;
#X msg 242 321 988;
#X msg 202 321 445;
#X obj 202 293 select 988 445;
#X obj 287 74 filledpolygon color 100 0 0 0 cellsize 0 cellsize cellsize
0 cellsize, f 40;
#X obj 467 245 get \$0-cell x y color;
#X msg 597 314 0;
#X msg 637 314 1;
#X obj 462 351 pack float float float, f 23;
#X obj 357 283 expr $f1 / size_\$0 \; height_\$0 - 1 - $f2 / size_\$0
;
#X obj 597 283 select 445 988;
#X obj 52 18 inlet;
#X obj 242 425 r \$0-pointer-list;
#X obj 181 386 expr $f1 * height_\$0 + height_\$0 - 1 - $f2, f 21
;
#X msg 116 286 \$3;
#X obj 462 600 outlet;
#X obj 116 308 sel 1 0;
#X obj 106 476 set \$0-cell color;
#X msg 135 447 988;
#X msg 106 447 445;
#X obj 52 524 spigot;
#X obj 85 503 r \$0-spigot;
#X obj 52 256 trigger list list list;
#X obj 181 450 list store;
#X msg 181 425 get \$1 1;
#X obj 185 88 unpack s p;
#X obj 467 221 spigot 1;
#X msg 512 178 0;
#X msg 546 191 1;
#X obj 546 167 del 100;
#X obj 242 111 trigger pointer pointer bang pointer, f 38;
#X connect 0 0 11 0;
#X connect 2 0 33 0;
#X connect 3 0 7 0;
#X connect 4 0 5 0;
#X connect 5 0 6 0;
#X connect 7 0 0 0;
#X connect 7 1 1 1;
#X connect 8 0 3 0;
#X connect 8 1 4 0;
#X connect 9 0 1 0;
#X connect 10 0 1 0;
#X connect 11 0 10 0;
#X connect 11 1 9 0;
#X connect 13 0 17 0;
#X connect 13 1 17 1;
#X connect 13 2 18 0;
#X connect 14 0 16 2;
#X connect 15 0 16 2;
#X connect 16 0 23 0;
#X connect 17 0 16 0;
#X connect 17 1 16 1;
#X connect 18 0 14 0;
#X connect 18 1 15 0;
#X connect 19 0 30 0;
#X connect 20 0 31 1;
#X connect 21 0 32 0;
#X connect 22 0 24 0;
#X connect 24 0 27 0;
#X connect 24 1 26 0;
#X connect 26 0 25 0;
#X connect 27 0 25 0;
#X connect 28 0 23 0;
#X connect 29 0 28 1;
#X connect 30 0 28 0;
#X connect 30 1 22 0;
#X connect 30 2 21 0;
#X connect 31 0 25 1;
#X connect 32 0 31 0;
#X connect 33 0 8 0;
#X connect 33 1 38 0;
#X connect 34 0 13 0;
#X connect 35 0 34 1;
#X connect 36 0 34 1;
#X connect 37 0 36 0;
#X connect 38 0 3 1;
#X connect 38 1 6 1;
#X connect 38 2 35 0;
#X connect 38 2 37 0;
#X connect 38 3 34 0;
#X restore 53 95 pd \$0-cell;
#N canvas 135 159 450 300 loadbang 0;
#X obj 103 108 f \$1;
#X obj 181 118 f \$2;
#X obj 275 126 f \$3;
#X obj 275 146 sel 0;
#X msg 275 166 20;
#X obj 181 138 sel 0;
#X obj 103 128 sel 0;
#X obj 275 213 v size_\$0;
#X obj 181 212 v height_\$0;
#X obj 103 212 v width_\$0;
#X obj 70 50 else/loadbanger 4;
#X obj 66 250 outlet;
#X msg 103 148 3;
#X msg 181 158 3;
#X obj 275 191 clip 8 100;
#X obj 181 183 clip 1 512;
#X obj 103 186 clip 1 512;
#X connect 0 0 6 0;
#X connect 1 0 5 0;
#X connect 2 0 3 0;
#X connect 3 0 4 0;
#X connect 3 1 14 0;
#X connect 4 0 14 0;
#X connect 5 0 13 0;
#X connect 5 1 15 0;
#X connect 6 0 12 0;
#X connect 6 1 16 0;
#X connect 10 0 11 0;
#X connect 10 1 0 0;
#X connect 10 2 1 0;
#X connect 10 3 2 0;
#X connect 12 0 16 0;
#X connect 13 0 15 0;
#X connect 14 0 7 0;
#X connect 15 0 8 0;
#X connect 16 0 9 0;
#X restore 143 59 pd loadbang;
#N canvas 142 178 536 384 set 0;
#X obj 77 188 v width_\$0;
#X obj 156 174 v height_\$0;
#X obj 212 133 t b f;
#X obj 239 153 v size_\$0;
#X obj 38 148 change;
#X obj 130 133 change;
#X obj 212 113 change;
#X obj 38 128 clip 1 64;
#X obj 130 113 clip 1 64;
#X obj 38 168 t b f;
#X obj 130 153 t b f;
#X obj 212 93 clip 8 100;
#X obj 78 24 inlet;
#X obj 357 317 outlet;
#X obj 426 315 outlet;
#N canvas 185 30 441 463 bound-check 0;
#X obj 151 38 inlet;
#X obj 151 77 t l l;
#X obj 205 149 list;
#X obj 87 117 list length;
#X obj 87 140 == 3;
#X obj 87 222 print matrix;
#X msg 87 186 input list needs to be = 3, f 15;
#X obj 287 336 list;
#X obj 205 219 unpack;
#X obj 167 291 sel 0 1;
#X obj 87 164 sel 0 1;
#X obj 205 177 trigger list list;
#X msg 151 339 cell out of bounds;
#X obj 287 381 outlet;
#X obj 167 251 expr $f1 < width_\$0 && $f2 < height_\$0, f 19;
#X connect 0 0 1 0;
#X connect 1 0 3 0;
#X connect 1 1 2 1;
#X connect 2 0 11 0;
#X connect 3 0 4 0;
#X connect 4 0 10 0;
#X connect 6 0 5 0;
#X connect 7 0 13 0;
#X connect 8 0 14 0;
#X connect 8 1 14 1;
#X connect 9 0 12 0;
#X connect 9 1 7 0;
#X connect 10 0 6 0;
#X connect 10 1 2 0;
#X connect 11 0 8 0;
#X connect 11 1 7 1;
#X connect 12 0 5 0;
#X connect 14 0 9 0;
#X restore 354 183 pd bound-check;
#X obj 317 165 b;
#X obj 354 94 t l b;
#X msg 381 115 1;
#X obj 410 150 s \$0-spigot;
#X obj 78 51 route columns rows size clear list set, f 67;
#X obj 426 106 t l b;
#X msg 453 127 0;
#X connect 2 0 14 0;
#X connect 2 1 3 0;
#X connect 4 0 9 0;
#X connect 5 0 10 0;
#X connect 6 0 2 0;
#X connect 7 0 4 0;
#X connect 8 0 5 0;
#X connect 9 0 14 0;
#X connect 9 1 0 0;
#X connect 10 0 14 0;
#X connect 10 1 1 0;
#X connect 11 0 6 0;
#X connect 12 0 20 0;
#X connect 15 0 13 0;
#X connect 16 0 14 0;
#X connect 17 0 15 0;
#X connect 17 1 18 0;
#X connect 18 0 19 0;
#X connect 20 0 7 0;
#X connect 20 1 8 0;
#X connect 20 2 11 0;
#X connect 20 3 16 0;
#X connect 20 4 17 0;
#X connect 20 5 21 0;
#X connect 21 0 15 0;
#X connect 21 1 22 0;
#X connect 22 0 19 0;
#X restore 53 59 pd set;
#N canvas 333 110 934 444 draw_matrix 0;
#X msg 394 193 traverse \$1 \, bang, f 12;
#X obj 394 232 pointer;
#X obj 106 280 f;
#X obj 394 150 symbol pd-\$0-paint, f 11;
#X obj 294 150 v size_\$0;
#X obj 121 258 *;
#X obj 177 258 *;
#X obj 248 258 - 1;
#X obj 94 108 v width_\$0;
#X obj 51 174 v height_\$0;
#X obj 106 303 append \$0-cell x y cellsize color, f 48;
#X obj 94 128 else/loop;
#X obj 51 217 t b f;
#X obj 51 196 else/loop;
#X msg 194 154 988;
#X obj 494 127 expr width_\$0 * size_\$0 - 1 \; height_\$0 * size_\$0
-1;
#X obj 553 229 s pd-\$0-paint;
#X obj 494 163 pack float float;
#X obj 94 19 inlet;
#X obj 497 328 s \$0-this-patch;
#X obj 494 215 unpack;
#X obj 494 241 + 2;
#X obj 523 240 + 2;
#X obj 497 267 pack;
#X obj 494 189 t l l;
#X obj 61 402 s \$0-pointer-list;
#X obj 94 79 trigger bang bang bang bang bang bang, f 84;
#X obj 595 100 s \$0-clear-list;
#X obj 118 353 r \$0-clear-list;
#X msg 553 194 clear \, donecanvasdialog 1 -1 3 0 \$2 \$1 0 \$1 \$2
150 150 \, dirty 0;
#X msg 497 290 donecanvasdialog 1 -1 3 0 \$2 \$1 0 \$1 \$2 150 150
\, dirty 0, f 48;
#X obj 94 149 t b f;
#X obj 61 374 list store;
#X msg 106 328 append \$1;
#X connect 0 0 1 0;
#X connect 1 0 10 4;
#X connect 2 0 10 0;
#X connect 3 0 0 0;
#X connect 4 0 7 0;
#X connect 4 0 6 1;
#X connect 4 0 5 1;
#X connect 5 0 2 1;
#X connect 6 0 10 1;
#X connect 7 0 10 2;
#X connect 8 0 11 0;
#X connect 9 0 13 0;
#X connect 10 0 33 0;
#X connect 11 0 31 0;
#X connect 11 1 32 0;
#X connect 12 0 2 0;
#X connect 12 1 6 0;
#X connect 13 0 12 0;
#X connect 14 0 10 3;
#X connect 15 0 17 0;
#X connect 15 1 17 1;
#X connect 17 0 24 0;
#X connect 18 0 26 0;
#X connect 20 0 21 0;
#X connect 20 1 22 0;
#X connect 21 0 23 0;
#X connect 22 0 23 1;
#X connect 23 0 30 0;
#X connect 24 0 20 0;
#X connect 24 1 29 0;
#X connect 26 0 8 0;
#X connect 26 1 14 0;
#X connect 26 2 4 0;
#X connect 26 3 3 0;
#X connect 26 4 15 0;
#X connect 26 5 27 0;
#X connect 28 0 32 1;
#X connect 29 0 16 0;
#X connect 30 0 19 0;
#X connect 31 0 9 0;
#X connect 31 1 5 0;
#X connect 32 0 25 0;
#X connect 33 0 32 0;
#X restore 143 91 pd draw_matrix;
#X connect 0 0 4 0;
#X connect 2 0 1 0;
#X connect 3 0 5 0;
#X connect 4 0 2 0;
#X connect 4 1 5 0;
#X restore 59 92 pd guts;
#X obj 145 92 namecanvas \$0-this-patch, f 13;
#X text 271 91 Part of ELSE \; https://github.com/porres/pd-else;
#X text 273 72 Alexandre Torres Porres (2018);
#X connect 0 0 3 0;
#X connect 3 0 2 0;
#X coords 0 31 61 0 61 31 2 150 150;
