#N canvas 743 148 478 412 12;
#X obj 149 75 inlet~;
#X obj 89 270 *~;
#X obj 71 304 -~;
#X obj 131 272 *~;
#X obj 131 357 outlet~;
#X obj 149 149 phasor~;
#X obj 149 40 else/initmess \$1;
#N canvas 528 183 347 403 slopes 0;
#X obj 201 172 samphold~;
#X obj 61 25 inlet~;
#X obj 62 341 outlet~;
#X obj 201 341 outlet~;
#X obj 62 296 *~;
#X obj 219 262 -~ 1;
#X obj 201 296 *~;
#X obj 201 55 noise~;
#X obj 201 88 *~ 2;
#X obj 80 262 else/lastvalue~;
#X connect 0 0 6 0;
#X connect 0 0 9 0;
#X connect 1 0 0 1;
#X connect 1 0 4 0;
#X connect 1 0 5 0;
#X connect 4 0 2 0;
#X connect 5 0 6 1;
#X connect 6 0 3 0;
#X connect 7 0 8 0;
#X connect 8 0 0 0;
#X connect 9 0 4 1;
#X restore 71 194 pd slopes;
#N canvas 936 89 203 304 smootherstep 0;
#X obj 94 36 inlet~;
#X obj 94 83 *~;
#X obj 23 91 *~;
#X obj 23 164 *~ 10;
#X obj 123 134 *~;
#X obj 76 134 *~;
#X obj 123 164 *~ 15;
#X obj 76 164 *~ 6;
#X obj 105 197 -~;
#X obj 105 239 outlet~;
#X connect 0 0 1 0;
#X connect 0 0 1 1;
#X connect 0 0 2 0;
#X connect 1 0 2 1;
#X connect 1 0 4 0;
#X connect 1 0 4 1;
#X connect 1 0 5 1;
#X connect 2 0 3 0;
#X connect 2 0 5 0;
#X connect 3 0 9 0;
#X connect 4 0 6 0;
#X connect 5 0 7 0;
#X connect 6 0 8 1;
#X connect 7 0 8 0;
#X connect 8 0 9 0;
#X restore 149 194 pd smootherstep;
#X text 194 266 Part of ELSE \; https://github.com/porres/pd-else;
#X text 195 247 Matt Barber (2020);
#X obj 244 81 else/nyquist~;
#X obj 149 113 else/fold~ 0 1;
#X connect 0 0 12 0;
#X connect 1 0 2 1;
#X connect 2 0 4 0;
#X connect 3 0 4 0;
#X connect 5 0 7 0;
#X connect 5 0 8 0;
#X connect 6 0 0 0;
#X connect 7 0 2 0;
#X connect 7 0 1 0;
#X connect 7 1 3 0;
#X connect 8 0 1 1;
#X connect 8 0 3 1;
#X connect 11 0 12 2;
#X connect 12 0 5 0;
