#N canvas 335 155 853 361 10;
#X obj 76 28 inlet;
#N canvas 563 283 351 320 messages 0;
#X msg 262 181 stop;
#X msg 208 264 bang;
#X obj 101 165 route float;
#X obj 43 261 s \$0-readsf~;
#X obj 101 188 s \$0-spigot;
#X obj 43 30 inlet;
#X obj 243 117 != 0;
#X obj 243 142 sel 1 0;
#X obj 208 288 s \$0-to_symbol;
#N canvas 506 126 531 440 open 0;
#X obj 133 122 openpanel;
#X obj 133 244 select symbol;
#X obj 141 94 route bang;
#X obj 344 103 r \$0-symbol_arg;
#X obj 236 192 symbol;
#X obj 240 85 r \$0-to_symbol;
#X obj 49 69 else/click;
#X msg 291 340 open \$1 \, 1;
#X obj 291 276 spigot;
#X obj 208 276 spigot;
#X obj 331 137 t a b;
#X msg 358 176 1;
#X obj 198 122 t a b;
#X obj 133 149 t a b;
#X msg 324 175 0;
#X obj 141 32 inlet;
#X obj 291 375 outlet;
#X obj 241 231 expr 1-$f1;
#X obj 331 29 inlet;
#X obj 331 55 symbol;
#N canvas 822 236 558 440 search 0;
#N canvas 307 23 837 776 find-in-the-else-folder 0;
#X obj 427 106 else/separate /;
#X obj 284 440 select s;
#X obj 164 213 else/regroup 1;
#X obj 164 283 makefilename %s/;
#X msg 256 255 set %s/;
#X obj 164 237 symbol;
#X msg 201 321 set \$1%s/;
#X obj 511 189 list split;
#X obj 563 138 list length;
#X obj 568 161 - 1;
#X obj 427 134 list;
#X obj 450 151 t l l b;
#X obj 124 393 else/dir;
#X obj 125 320 symbol;
#X obj 133 188 t b l;
#X obj 176 443 sel 1;
#X msg 176 488 dump \, reset;
#X msg 124 356 open \$1;
#X obj 76 160 route bang;
#X msg 76 354 dump;
#X msg 290 535 1;
#X obj 274 654 outlet;
#X obj 353 19 inlet;
#X obj 275 580 f;
#X msg 413 524 0;
#X obj 275 608 sel 0 1;
#X obj 379 602 else/dir;
#X msg 379 576 dir;
#X msg 454 617 set \$1;
#X obj 454 649 s \$0-makefilename;
#X obj 454 583 makefilename %s/%%s;
#X obj 333 638 t b b;
#X obj 353 79 t b s;
#X obj 409 76 s \$0-file-search;
#X obj 433 697 r \$0-file-search;
#X obj 373 727 symbol;
#X connect 0 0 10 0;
#X connect 1 0 20 0;
#X connect 2 0 5 0;
#X connect 3 0 6 0;
#X connect 3 0 13 1;
#X connect 4 0 3 0;
#X connect 5 0 3 0;
#X connect 6 0 3 0;
#X connect 7 0 18 0;
#X connect 7 1 1 1;
#X connect 8 0 9 0;
#X connect 9 0 7 1;
#X connect 10 0 11 0;
#X connect 11 0 7 0;
#X connect 11 1 8 0;
#X connect 11 2 4 0;
#X connect 11 2 24 0;
#X connect 12 0 1 0;
#X connect 12 2 15 0;
#X connect 13 0 17 0;
#X connect 14 0 13 0;
#X connect 14 1 2 0;
#X connect 15 0 16 0;
#X connect 16 0 12 0;
#X connect 17 0 12 0;
#X connect 18 0 19 0;
#X connect 18 1 14 0;
#X connect 19 0 12 0;
#X connect 20 0 23 1;
#X connect 22 0 32 0;
#X connect 23 0 25 0;
#X connect 24 0 23 1;
#X connect 25 0 21 0;
#X connect 25 1 31 0;
#X connect 26 1 30 0;
#X connect 27 0 26 0;
#X connect 28 0 29 0;
#X connect 30 0 28 0;
#X connect 31 0 35 0;
#X connect 31 1 27 0;
#X connect 32 0 23 0;
#X connect 32 1 0 0;
#X connect 32 1 33 0;
#X connect 34 0 35 1;
#X connect 35 0 29 0;
#X restore 152 89 pd find-in-the-else-folder;
#X obj 209 220 print;
#X obj 211 169 symbol;
#N canvas 150 71 790 776 find-here 0;
#X obj 427 106 else/separate /;
#X obj 284 440 select s;
#X obj 164 213 else/regroup 1;
#X obj 164 283 makefilename %s/;
#X msg 256 255 set %s/;
#X obj 164 237 symbol;
#X msg 201 321 set \$1%s/;
#X obj 511 189 list split;
#X obj 563 138 list length;
#X obj 568 161 - 1;
#X obj 427 134 list;
#X obj 450 151 t l l b;
#X obj 125 320 symbol;
#X obj 133 188 t b l;
#X obj 176 443 sel 1;
#X msg 176 488 dump \, reset;
#X msg 124 356 open \$1;
#X obj 76 160 route bang;
#X msg 76 354 dump;
#X msg 290 535 1;
#X obj 274 654 outlet;
#X obj 353 19 inlet;
#X obj 275 580 f;
#X msg 413 524 0;
#X obj 353 79 t b b;
#X obj 398 78 symbol;
#X obj 275 608 sel 0 1;
#X msg 379 576 dir;
#X msg 454 617 set \$1;
#X obj 454 649 s \$0-makefilename;
#X obj 454 583 makefilename %s/%%s;
#X obj 333 638 t b b;
#X obj 379 602 else/dir 1;
#X obj 124 394 else/dir 1;
#X obj 424 54 r \$0-file-search;
#X obj 381 710 symbol;
#X obj 407 686 r \$0-file-search;
#X connect 0 0 10 0;
#X connect 1 0 19 0;
#X connect 2 0 5 0;
#X connect 3 0 6 0;
#X connect 3 0 12 1;
#X connect 4 0 3 0;
#X connect 5 0 3 0;
#X connect 6 0 3 0;
#X connect 7 0 17 0;
#X connect 7 1 1 1;
#X connect 8 0 9 0;
#X connect 9 0 7 1;
#X connect 10 0 11 0;
#X connect 11 0 7 0;
#X connect 11 1 8 0;
#X connect 11 2 4 0;
#X connect 11 2 23 0;
#X connect 12 0 16 0;
#X connect 13 0 12 0;
#X connect 13 1 2 0;
#X connect 14 0 15 0;
#X connect 15 0 33 0;
#X connect 16 0 33 0;
#X connect 17 0 18 0;
#X connect 17 1 13 0;
#X connect 18 0 33 0;
#X connect 19 0 22 1;
#X connect 21 0 24 0;
#X connect 22 0 26 0;
#X connect 23 0 22 1;
#X connect 24 0 22 0;
#X connect 24 1 25 0;
#X connect 25 0 0 0;
#X connect 26 0 20 0;
#X connect 26 1 31 0;
#X connect 27 0 32 0;
#X connect 28 0 29 0;
#X connect 30 0 28 0;
#X connect 31 0 35 0;
#X connect 31 1 27 0;
#X connect 32 1 30 0;
#X connect 33 0 1 0;
#X connect 33 2 14 0;
#X connect 34 0 25 1;
#X connect 35 0 29 0;
#X connect 36 0 35 1;
#X restore 159 110 pd find-here;
#X msg 208 195 error: [play.file~] can't load \$1;
#X obj 229 259 r \$0-makefilename;
#X obj 211 303 makefilename;
#X obj 218 341 outlet;
#X obj 170 52 inlet;
#X obj 244 141 r \$0-file-search;
#X connect 0 0 3 0;
#X connect 2 0 4 0;
#X connect 3 0 2 0;
#X connect 4 0 1 0;
#X connect 5 0 6 0;
#X connect 6 0 7 0;
#X connect 8 0 0 0;
#X connect 9 0 2 1;
#X restore 291 305 pd search;
#X connect 0 0 13 0;
#X connect 1 1 8 0;
#X connect 1 1 9 0;
#X connect 2 0 0 0;
#X connect 2 1 12 0;
#X connect 3 0 10 0;
#X connect 4 0 1 0;
#X connect 5 0 4 0;
#X connect 6 0 0 0;
#X connect 7 0 16 0;
#X connect 8 0 20 0;
#X connect 9 0 7 0;
#X connect 10 0 4 1;
#X connect 10 1 11 0;
#X connect 11 0 8 1;
#X connect 11 0 17 0;
#X connect 12 0 4 0;
#X connect 12 1 11 0;
#X connect 13 0 4 0;
#X connect 13 1 14 0;
#X connect 14 0 8 1;
#X connect 14 0 17 0;
#X connect 15 0 2 0;
#X connect 17 0 9 1;
#X connect 18 0 19 0;
#X connect 19 0 10 0;
#X connect 20 0 7 0;
#X restore 43 144 pd open;
#X obj 43 57 route open loop stop start bang float set;
#X connect 0 0 3 0;
#X connect 1 0 8 0;
#X connect 2 0 4 0;
#X connect 5 0 10 0;
#X connect 6 0 7 0;
#X connect 7 0 1 0;
#X connect 7 1 0 0;
#X connect 9 0 3 0;
#X connect 10 0 9 0;
#X connect 10 1 2 0;
#X connect 10 2 0 0;
#X connect 10 3 1 0;
#X connect 10 4 1 0;
#X connect 10 5 6 0;
#X connect 10 6 9 1;
#X restore 76 59 pd messages;
#X obj 71 91 namecanvas \$0-sampler;
#N canvas 105 383 897 372 \$0-readsf 0;
#X obj 20 21 r \$0-readsf~;
#X obj 390 56 r \$0-spigot;
#X obj 351 78 spigot;
#X obj 351 105 s \$0-to_symbol;
#X connect 1 0 2 1;
#X connect 2 0 3 0;
#X restore 74 162 pd \$0-readsf;
#N canvas 588 115 593 557 dynamic 0;
#X obj 347 259 s pd-\$0-readsf;
#X obj 211 111 v n_ch_\$0;
#X obj 211 144 else/loop;
#X obj 211 201 * 60;
#X obj 211 230 + 20;
#X obj 347 176 v n_ch_\$0;
#X obj 306 231 f \$0;
#X text 182 26 Dynamic Patching;
#X obj 273 232 + 5;
#X msg 347 204 obj 20 100 readsf~ \$1 \, connect 0 0 4 0 \, connect
4 \$1 2 0, f 22;
#X msg 227 290 \; pd-\$4-readsf obj \$1 200 outlet~ \, connect 4 \$2
\$3 0 \; \$4-sampler obj \$1 200 outlet~ \, connect 3 \$2 \$3 0;
#N canvas 634 92 730 609 get_n_ch 0;
#X obj 80 54 inlet;
#X obj 80 85 else/args;
#X obj 238 260 v n_ch_\$0;
#X msg 148 231 1;
#X msg 238 135 \$1;
#X msg 345 223 1;
#X obj 345 255 v sym_\$0;
#X obj 238 188 int;
#X obj 238 220 clip 1 64;
#X obj 401 346 s \$0-symbol_arg;
#X obj 317 194 t a b;
#X obj 318 298 symbol;
#X text 381 223 1st arg is symbol;
#X obj 80 112 else/break -;
#X obj 80 140 route bang -loop;
#X obj 134 190 s \$0-spigot;
#X obj 238 162 route float;
#X obj 239 106 s \$0-arg-list;
#X msg 134 163 1;
#X obj 64 223 v n_ch_\$0;
#X obj 92 253 sel 0;
#X msg 92 279 1;
#X obj 64 201 b;
#X obj 318 507 soundfiler;
#X obj 318 441 pack s s;
#X msg 318 476 read \$1 \$2;
#X msg 375 531 \$3;
#X obj 410 531 table \$0-dummy 1;
#X obj 363 409 symbol \$0-dummy;
#X obj 178 379 r \$0-makefilename;
#X obj 275 409 makefilename;
#N canvas 335 23 783 710 find-in-the-else-folder 0;
#X obj 427 106 else/separate /;
#X obj 284 440 select s;
#X obj 164 213 else/regroup 1;
#X obj 164 283 makefilename %s/;
#X msg 256 255 set %s/;
#X obj 164 237 symbol;
#X msg 201 321 set \$1%s/;
#X obj 511 189 list split;
#X obj 563 138 list length;
#X obj 568 161 - 1;
#X obj 427 134 list;
#X obj 450 151 t l l b;
#X obj 124 393 else/dir;
#X obj 125 320 symbol;
#X obj 133 188 t b l;
#X obj 176 443 sel 1;
#X msg 176 488 dump \, reset;
#X msg 124 356 open \$1;
#X obj 76 160 route bang;
#X msg 76 354 dump;
#X msg 290 535 1;
#X obj 274 654 outlet;
#X obj 353 19 inlet;
#X obj 275 580 f;
#X msg 413 524 0;
#X obj 431 54 r \$0-symbol_arg;
#X obj 353 79 t b b;
#X obj 398 78 symbol;
#X obj 275 608 sel 0 1;
#X obj 379 602 else/dir;
#X msg 379 576 dir;
#X msg 454 617 set \$1;
#X obj 454 649 s \$0-makefilename;
#X obj 454 583 makefilename %s/%%s;
#X obj 333 638 t b b;
#X obj 359 659 s \$0-loadit;
#X connect 0 0 10 0;
#X connect 1 0 20 0;
#X connect 2 0 5 0;
#X connect 3 0 6 0;
#X connect 3 0 13 1;
#X connect 4 0 3 0;
#X connect 5 0 3 0;
#X connect 6 0 3 0;
#X connect 7 0 18 0;
#X connect 7 1 1 1;
#X connect 8 0 9 0;
#X connect 9 0 7 1;
#X connect 10 0 11 0;
#X connect 11 0 7 0;
#X connect 11 1 8 0;
#X connect 11 2 4 0;
#X connect 11 2 24 0;
#X connect 12 0 1 0;
#X connect 12 2 15 0;
#X connect 13 0 17 0;
#X connect 14 0 13 0;
#X connect 14 1 2 0;
#X connect 15 0 16 0;
#X connect 16 0 12 0;
#X connect 17 0 12 0;
#X connect 18 0 19 0;
#X connect 18 1 14 0;
#X connect 19 0 12 0;
#X connect 20 0 23 1;
#X connect 22 0 26 0;
#X connect 23 0 28 0;
#X connect 24 0 23 1;
#X connect 25 0 27 1;
#X connect 26 0 23 0;
#X connect 26 1 27 0;
#X connect 27 0 0 0;
#X connect 28 0 21 0;
#X connect 28 1 34 0;
#X connect 29 1 33 0;
#X connect 30 0 29 0;
#X connect 31 0 32 0;
#X connect 33 0 31 0;
#X connect 34 0 35 0;
#X connect 34 1 30 0;
#X restore 480 396 pd find-in-the-else-folder;
#X obj 322 326 t b s;
#X obj 305 377 symbol;
#X obj 206 332 r \$0-loadit;
#N canvas 335 23 783 710 find-here 0;
#X obj 427 106 else/separate /;
#X obj 284 440 select s;
#X obj 164 213 else/regroup 1;
#X obj 164 283 makefilename %s/;
#X msg 256 255 set %s/;
#X obj 164 237 symbol;
#X msg 201 321 set \$1%s/;
#X obj 511 189 list split;
#X obj 563 138 list length;
#X obj 568 161 - 1;
#X obj 427 134 list;
#X obj 450 151 t l l b;
#X obj 125 320 symbol;
#X obj 133 188 t b l;
#X obj 176 443 sel 1;
#X msg 176 488 dump \, reset;
#X msg 124 356 open \$1;
#X obj 76 160 route bang;
#X msg 76 354 dump;
#X msg 290 535 1;
#X obj 274 654 outlet;
#X obj 353 19 inlet;
#X obj 275 580 f;
#X msg 413 524 0;
#X obj 431 54 r \$0-symbol_arg;
#X obj 353 79 t b b;
#X obj 398 78 symbol;
#X obj 275 608 sel 0 1;
#X msg 379 576 dir;
#X msg 454 617 set \$1;
#X obj 454 649 s \$0-makefilename;
#X obj 454 583 makefilename %s/%%s;
#X obj 333 638 t b b;
#X obj 359 659 s \$0-loadit;
#X obj 379 602 else/dir 1;
#X obj 124 394 else/dir 1;
#X connect 0 0 10 0;
#X connect 1 0 19 0;
#X connect 2 0 5 0;
#X connect 3 0 6 0;
#X connect 3 0 12 1;
#X connect 4 0 3 0;
#X connect 5 0 3 0;
#X connect 6 0 3 0;
#X connect 7 0 17 0;
#X connect 7 1 1 1;
#X connect 8 0 9 0;
#X connect 9 0 7 1;
#X connect 10 0 11 0;
#X connect 11 0 7 0;
#X connect 11 1 8 0;
#X connect 11 2 4 0;
#X connect 11 2 23 0;
#X connect 12 0 16 0;
#X connect 13 0 12 0;
#X connect 13 1 2 0;
#X connect 14 0 15 0;
#X connect 15 0 35 0;
#X connect 16 0 35 0;
#X connect 17 0 18 0;
#X connect 17 1 13 0;
#X connect 18 0 35 0;
#X connect 19 0 22 1;
#X connect 21 0 25 0;
#X connect 22 0 27 0;
#X connect 23 0 22 1;
#X connect 24 0 26 1;
#X connect 25 0 22 0;
#X connect 25 1 26 0;
#X connect 26 0 0 0;
#X connect 27 0 20 0;
#X connect 27 1 32 0;
#X connect 28 0 34 0;
#X connect 29 0 30 0;
#X connect 31 0 29 0;
#X connect 32 0 33 0;
#X connect 32 1 28 0;
#X connect 34 1 31 0;
#X connect 35 0 1 0;
#X connect 35 2 14 0;
#X restore 479 420 pd find-here;
#X obj 367 298 r \$0-set-symbol_arg;
#X msg 479 446 1;
#X obj 479 475 v n_ch_\$0;
#X connect 0 0 1 0;
#X connect 1 0 13 0;
#X connect 3 0 2 0;
#X connect 4 0 16 0;
#X connect 5 0 6 0;
#X connect 7 0 8 0;
#X connect 8 0 2 0;
#X connect 10 0 11 0;
#X connect 10 1 5 0;
#X connect 11 0 32 0;
#X connect 13 0 14 0;
#X connect 14 0 3 0;
#X connect 14 1 18 0;
#X connect 14 1 22 0;
#X connect 14 2 17 0;
#X connect 14 2 4 0;
#X connect 16 0 7 0;
#X connect 16 1 10 0;
#X connect 18 0 15 0;
#X connect 19 0 20 0;
#X connect 20 0 21 0;
#X connect 21 0 19 0;
#X connect 22 0 19 0;
#X connect 23 1 26 0;
#X connect 24 0 25 0;
#X connect 25 0 23 0;
#X connect 26 0 2 0;
#X connect 28 0 24 1;
#X connect 29 0 30 0;
#X connect 30 0 24 0;
#X connect 31 0 35 0;
#X connect 32 0 28 0;
#X connect 32 0 31 0;
#X connect 32 1 9 0;
#X connect 32 1 33 1;
#X connect 33 0 30 0;
#X connect 34 0 33 0;
#X connect 35 0 37 0;
#X connect 36 0 32 0;
#X connect 37 0 38 0;
#X restore 425 170 pd get_n_ch;
#N canvas 401 332 315 238 load 0;
#X obj 85 76 v sym_\$0;
#X obj 85 49 inlet;
#N canvas 271 190 425 422 1st_is_not_filename 0;
#X obj 87 31 inlet;
#X obj 108 63 r \$0-arg-list;
#X obj 87 86 list;
#X obj 154 289 s \$0-spigot;
#X text 222 347 3nd is autostart;
#X text 229 288 4th is loop;
#X obj 121 263 unpack;
#X obj 121 316 sel 1;
#X obj 121 344 s \$0-to_symbol;
#X obj 114 133 list split 1;
#X obj 87 110 t a a;
#X obj 87 236 list split 2;
#X msg 205 184 \$1;
#X obj 148 161 route bang;
#X obj 205 206 else/routetype anything;
#X obj 66 61 bng 15 250 50 0 empty empty empty 17 7 0 10 -262144 -1
-1;
#X obj 205 230 symbol;
#X text 239 184 2nd is filename;
#X obj 205 254 s \$0-set-symbol_arg;
#X connect 0 0 2 0;
#X connect 1 0 2 1;
#X connect 2 0 10 0;
#X connect 6 0 7 0;
#X connect 6 1 3 0;
#X connect 7 0 8 0;
#X connect 9 1 13 0;
#X connect 10 0 11 0;
#X connect 10 1 9 0;
#X connect 11 1 6 0;
#X connect 12 0 14 0;
#X connect 13 1 12 0;
#X connect 14 0 16 0;
#X connect 15 0 2 0;
#X connect 16 0 18 0;
#X restore 85 175 pd 1st_is_not_filename;
#N canvas 678 327 358 270 1st_is_filename 0;
#X obj 64 35 inlet;
#X obj 98 170 sel 1;
#X text 197 206 2nd is autostart;
#X text 223 172 3nd is loop;
#X obj 98 202 s \$0-to_symbol;
#X obj 103 78 r \$0-arg-list;
#X obj 64 78 list;
#X obj 147 173 s \$0-spigot;
#X obj 64 108 list split 1;
#X obj 98 137 unpack;
#X connect 0 0 6 0;
#X connect 1 0 4 0;
#X connect 5 0 6 1;
#X connect 6 0 8 0;
#X connect 8 1 9 0;
#X connect 9 0 1 0;
#X connect 9 1 7 0;
#X restore 104 140 pd 1st_is_filename;
#X obj 85 109 sel 0 1;
#X connect 0 0 4 0;
#X connect 1 0 0 0;
#X connect 4 0 2 0;
#X connect 4 1 3 0;
#X restore 76 313 pd load \; args;
#X obj 190 376 * 60;
#X obj 190 403 + 20;
#X obj 270 404 + 5;
#X obj 140 312 v n_ch_\$0;
#X obj 240 403 + 6;
#X obj 211 175 t f f;
#X obj 140 398 f \$0;
#X obj 140 341 trigger bang float;
#X obj 140 427 pack float float float float float;
#X msg 140 459 \; pd-\$1-readsf obj \$2 200 s \$1-didit \, connect
4 \$5 \$4 0 \; \$1-sampler obj \$2 200 r \$1-didit \, obj \$2 240 outlet
\, connect \$4 0 \$3 0, f 55;
#X obj 227 258 pack f f f f;
#X obj 168 54 else/loadbanger -init 5;
#X connect 1 0 2 0;
#X connect 2 0 18 0;
#X connect 3 0 4 0;
#X connect 4 0 23 0;
#X connect 5 0 9 0;
#X connect 6 0 23 3;
#X connect 8 0 23 2;
#X connect 9 0 0 0;
#X connect 13 0 14 0;
#X connect 14 0 21 1;
#X connect 15 0 21 3;
#X connect 16 0 20 0;
#X connect 17 0 21 2;
#X connect 18 0 3 0;
#X connect 18 1 8 0;
#X connect 18 1 23 1;
#X connect 19 0 21 0;
#X connect 20 0 19 0;
#X connect 20 1 15 0;
#X connect 20 1 17 0;
#X connect 20 1 13 0;
#X connect 20 1 21 4;
#X connect 21 0 22 0;
#X connect 23 0 10 0;
#X connect 24 0 12 0;
#X connect 24 1 16 0;
#X connect 24 2 1 0;
#X connect 24 3 5 0;
#X connect 24 3 6 0;
#X connect 24 4 11 0;
#X restore 73 121 pd dynamic patching;
#X connect 0 0 1 0;
