#N canvas 106 277 618 260 10;
#N canvas 639 91 684 712 pvoc 0;
#X obj 263 273 pack float float float;
#X obj 361 36 inlet;
#X obj 380 660 outlet~;
#X msg 263 302 \$1 \, \$2 \$3;
#X obj 48 132 bang~;
#X obj 92 179 +;
#X obj 48 173 f;
#X obj 107 30 inlet;
#X obj 532 199 r \$0-window_ms;
#X obj 149 179 r \$0-buff_ms;
#X obj 482 363 r \$0-buff_ms;
#X obj 380 568 rifft~;
#X obj 338 494 rfft~;
#X obj 419 495 rfft~;
#X obj 263 428 delread4~ \$0-buffer;
#X obj 419 426 delread4~ \$0-buffer;
#X obj 102 315 r \$0-block;
#X obj 102 341 block~;
#X obj 380 596 else/hann~;
#X obj 338 467 else/hann~;
#X obj 419 471 else/hann~;
#X obj 419 399 else/wrap2~;
#X obj 263 396 else/wrap2~;
#X obj 92 201 else/wrap2;
#X obj 361 110 else/cents2ratio;
#X obj 458 597 r \$0-window;
#X obj 458 622 expr 2 / ($f1 * 3);
#X obj 263 330 line~;
#X obj 375 83 r \$0-cents;
#X obj 121 94 r \$0-speed;
#X obj 380 627 *~ 0;
#X obj 263 368 +~ 0;
#X obj 512 40 inlet;
#X msg 512 122 0;
#N canvas 489 138 550 543 phase-accum 0;
#X obj 289 482 outlet~;
#X obj 393 485 outlet~;
#X obj 183 33 inlet~;
#X obj 233 33 inlet~;
#X obj 304 33 inlet~;
#X obj 358 33 inlet~;
#N canvas 324 144 529 288 phase_lock 0;
#X obj 406 127 lrshift~ 1;
#X obj 321 127 lrshift~ -1;
#X obj 303 188 +~;
#X obj 303 234 outlet~;
#X obj 301 41 inlet~;
#X obj 321 157 +~;
#X obj 158 131 lrshift~ 1;
#X obj 73 131 lrshift~ -1;
#X obj 55 198 +~;
#X obj 55 238 outlet~;
#X obj 53 45 inlet~;
#X obj 73 167 +~;
#X connect 0 0 5 1;
#X connect 1 0 5 0;
#X connect 2 0 3 0;
#X connect 4 0 0 0;
#X connect 4 0 1 0;
#X connect 4 0 2 0;
#X connect 5 0 2 1;
#X connect 6 0 11 1;
#X connect 7 0 11 0;
#X connect 8 0 9 0;
#X connect 10 0 6 0;
#X connect 10 0 7 0;
#X connect 10 0 8 0;
#X connect 11 0 8 1;
#X restore 168 243 pd phase_lock;
#N canvas 584 111 470 247 norm 0;
#X obj 305 188 outlet~;
#X obj 74 199 outlet~;
#X obj 306 41 inlet~;
#X obj 74 32 inlet~;
#X obj 74 74 expr~ if($v1 == 0 && $v2 == 0 \, 1 \, $v1) \; $v2;
#X obj 74 153 /~;
#X obj 305 153 /~;
#X obj 89 125 else/mag~;
#X obj 320 126 else/mag~;
#X connect 2 0 4 1;
#X connect 3 0 4 0;
#X connect 4 0 5 0;
#X connect 4 0 7 0;
#X connect 4 1 6 0;
#X connect 4 1 8 0;
#X connect 5 0 1 0;
#X connect 6 0 0 0;
#X connect 7 0 5 1;
#X connect 8 0 6 1;
#X restore 204 277 pd norm;
#X obj 168 182 *~;
#X obj 168 212 +~;
#X obj 197 182 *~;
#X obj 230 180 *~;
#X obj 258 176 *~;
#X obj 243 210 -~;
#X obj 289 373 *~;
#X obj 289 419 -~;
#X obj 343 379 *~;
#X obj 426 365 *~;
#X obj 393 366 *~;
#X obj 393 417 +~;
#X obj 403 452 tabsend~ \$0-im;
#X obj 297 452 tabsend~ \$0-re;
#X obj 20 76 tabreceive~ \$0-re, f 11;
#X obj 95 77 tabreceive~ \$0-im, f 11;
#X connect 2 0 8 1;
#X connect 2 0 11 1;
#X connect 3 0 10 1;
#X connect 3 0 12 1;
#X connect 4 0 14 1;
#X connect 4 0 17 1;
#X connect 5 0 16 1;
#X connect 5 0 18 1;
#X connect 6 0 7 0;
#X connect 6 1 7 1;
#X connect 7 0 14 0;
#X connect 7 0 18 0;
#X connect 7 1 16 0;
#X connect 7 1 17 0;
#X connect 8 0 9 0;
#X connect 9 0 6 0;
#X connect 10 0 9 1;
#X connect 11 0 13 0;
#X connect 12 0 13 1;
#X connect 13 0 6 1;
#X connect 14 0 15 0;
#X connect 15 0 0 0;
#X connect 15 0 21 0;
#X connect 16 0 15 1;
#X connect 17 0 19 1;
#X connect 18 0 19 0;
#X connect 19 0 1 0;
#X connect 19 0 20 0;
#X connect 22 0 8 0;
#X connect 22 0 12 0;
#X connect 23 0 10 0;
#X connect 23 0 11 0;
#X restore 355 533 pd phase-accum;
#X obj 107 518 table \$0-re 1024;
#X obj 107 537 table \$0-im 1024;
#X obj 392 233 expr $f1 / overlap_\$0;
#X obj 361 304 expr ($f1 * $f2) / overlap_\$0;
#X obj 361 327 expr $f1 / overlap_\$0;
#X obj 48 225 expr $f1 / overlap_\$0 \; ($f1 + ((1 - $f2) * window_ms_\$0))
/ overlap_\$0;
#X obj 107 119 expr ((1 - $f1/100) * window_ms_\$0) / overlap_\$0,
f 35;
#X floatatom 427 261 5 0 0 0 - - -;
#X floatatom 402 191 5 0 0 0 - - -;
#X obj 512 81 route bang;
#X connect 0 0 3 0;
#X connect 1 0 24 0;
#X connect 3 0 27 0;
#X connect 4 0 6 0;
#X connect 5 0 23 0;
#X connect 6 0 5 0;
#X connect 6 0 40 0;
#X connect 7 0 41 0;
#X connect 8 0 37 0;
#X connect 8 0 38 1;
#X connect 9 0 23 2;
#X connect 10 0 21 2;
#X connect 10 0 22 2;
#X connect 11 0 18 0;
#X connect 12 0 34 0;
#X connect 12 1 34 1;
#X connect 13 0 34 2;
#X connect 13 1 34 3;
#X connect 14 0 19 0;
#X connect 15 0 20 0;
#X connect 16 0 17 0;
#X connect 18 0 30 0;
#X connect 19 0 12 0;
#X connect 20 0 13 0;
#X connect 21 0 15 0;
#X connect 22 0 14 0;
#X connect 23 0 6 1;
#X connect 24 0 38 0;
#X connect 24 0 40 1;
#X connect 25 0 26 0;
#X connect 26 0 30 1;
#X connect 27 0 21 0;
#X connect 27 0 31 0;
#X connect 28 0 24 0;
#X connect 29 0 41 0;
#X connect 30 0 2 0;
#X connect 31 0 22 0;
#X connect 32 0 44 0;
#X connect 33 0 6 1;
#X connect 34 0 11 0;
#X connect 34 1 11 1;
#X connect 37 0 0 2;
#X connect 37 0 42 0;
#X connect 38 0 39 0;
#X connect 39 0 31 1;
#X connect 40 0 0 0;
#X connect 40 1 0 1;
#X connect 41 0 5 1;
#X connect 43 0 37 0;
#X connect 44 0 33 0;
#X restore 183 138 pd pvoc;
#X text 200 57 cents;
#X text 145 55 speed;
#X obj 149 79 inlet;
#X obj 202 79 inlet;
#X obj 183 186 outlet~;
#N canvas 623 89 418 345 init 0;
#X obj 132 231 s \$0-buff_ms;
#X obj 75 57 else/args;
#X obj 75 26 loadbang;
#X obj 75 87 trigger anything bang;
#N canvas 772 236 410 351 init 0;
#X obj 187 120 s \$0-window;
#X obj 63 204 s \$0-cents;
#X obj 105 175 s \$0-speed;
#X msg 187 93 2048;
#X msg 105 150 100;
#X msg 63 182 0;
#X obj 270 141 v overlap_\$0;
#X msg 270 115 4;
#X obj 220 253 v window_ms_\$0;
#X msg 237 168 set \$1 4;
#X obj 187 280 s \$0-window_ms;
#X obj 237 197 s \$0-block;
#X obj 214 222 else/samps2ms;
#X obj 187 143 r \$0-window;
#X obj 105 28 inlet;
#X obj 105 69 trigger bang bang bang, f 28;
#X obj 187 168 t b f;
#X obj 187 253 f;
#X connect 3 0 0 0;
#X connect 4 0 2 0;
#X connect 5 0 1 0;
#X connect 7 0 6 0;
#X connect 9 0 11 0;
#X connect 12 0 8 0;
#X connect 12 0 17 1;
#X connect 13 0 16 0;
#X connect 14 0 15 0;
#X connect 15 0 4 0;
#X connect 15 0 5 0;
#X connect 15 1 3 0;
#X connect 15 2 7 0;
#X connect 16 0 17 0;
#X connect 16 1 12 0;
#X connect 16 1 9 0;
#X connect 17 0 10 0;
#X restore 198 116 pd init;
#X obj 132 206 max 100;
#X obj 132 150 unpack float float float;
#X obj 273 184 s \$0-cents;
#X obj 202 185 s \$0-speed;
#X obj 75 119 route bang;
#X obj 132 178 f \$1;
#X obj 75 289 print error:;
#X msg 75 261 [else/pvoc.live~] needs at least one argument;
#X connect 1 0 3 0;
#X connect 2 0 1 0;
#X connect 3 0 9 0;
#X connect 3 1 4 0;
#X connect 5 0 0 0;
#X connect 6 0 10 0;
#X connect 6 1 8 0;
#X connect 6 2 7 0;
#X connect 9 0 12 0;
#X connect 9 1 6 0;
#X connect 10 0 5 0;
#X connect 12 0 11 0;
#X restore 254 139 pd init;
#X obj 47 135 delwrite~ \$0-buffer \$1, f 12;
#X text 351 106 Alexandre Torres Porres (2018) \; Part of ELSE:;
#X text 352 140 https://github.com/porres/pd-else;
#X obj 47 79 inlet~ fwd;
#X connect 0 0 5 0;
#X connect 3 0 0 0;
#X connect 4 0 0 1;
#X connect 10 0 7 0;
#X connect 10 1 0 2;
