#N canvas 648 245 605 300 10;
#X text 322 128 Part of ELSE \; https://github.com/porres/pd-else;
#X text 324 109 Alexandre Torres Porres (2017);
#N canvas 505 98 661 483 load_args 0;
#X obj 72 285 else/order;
#X obj 153 286 else/order;
#X obj 232 287 else/order;
#X obj 366 323 else/order;
#X obj 510 297 sel 0;
#X obj 424 226 list split 1;
#X msg 464 327 10;
#X obj 464 273 moses 0;
#X msg 466 351 all \$1;
#X obj 464 250 route float;
#X msg 366 121 all 1;
#X obj 126 123 trigger anything bang;
#X obj 465 413 outlet;
#X obj 257 384 outlet;
#X obj 192 378 outlet;
#X obj 113 380 outlet;
#X obj 319 274 else/order;
#X obj 345 386 outlet;
#X obj 128 76 route bang;
#X obj 128 45 inlet;
#X obj 126 174 route -freq -attack -decay -amp -ramp;
#X obj 126 149 else/break -;
#X connect 0 0 15 0;
#X connect 1 0 14 0;
#X connect 2 0 13 0;
#X connect 3 0 12 0;
#X connect 4 0 6 0;
#X connect 4 1 8 0;
#X connect 5 1 9 0;
#X connect 6 0 8 0;
#X connect 7 0 6 0;
#X connect 7 1 4 0;
#X connect 8 0 12 0;
#X connect 9 0 7 0;
#X connect 10 0 17 0;
#X connect 11 0 21 0;
#X connect 11 1 10 0;
#X connect 16 0 17 0;
#X connect 18 0 10 0;
#X connect 18 0 6 0;
#X connect 18 1 11 0;
#X connect 19 0 18 0;
#X connect 20 0 0 0;
#X connect 20 1 1 0;
#X connect 20 2 2 0;
#X connect 20 3 16 0;
#X connect 20 4 3 0;
#X connect 20 5 5 0;
#X connect 21 0 20 0;
#X restore 200 111 pd load_args;
#N canvas 340 291 564 411 route 0;
#X obj 83 184 else/order;
#X obj 164 185 else/order;
#X obj 243 186 else/order;
#X obj 329 186 else/order;
#X obj 328 280 outlet;
#X obj 243 273 outlet;
#X obj 168 273 outlet;
#X obj 93 279 outlet;
#X obj 137 83 inlet;
#X obj 138 119 route freq attack decay amp ramp;
#X obj 414 187 else/order;
#X obj 413 281 outlet;
#X connect 0 0 7 0;
#X connect 1 0 6 0;
#X connect 2 0 5 0;
#X connect 3 0 4 0;
#X connect 8 0 9 0;
#X connect 9 0 0 0;
#X connect 9 1 1 0;
#X connect 9 2 2 0;
#X connect 9 3 3 0;
#X connect 9 4 10 0;
#X connect 10 0 11 0;
#X restore 122 111 pd route;
#X obj 71 215 outlet~;
#X obj 54 25 inlet~ fwd;
#X obj 200 76 else/args;
#X obj 71 169 clone -x \$1 else/resonclone2 \$1;
#X obj 199 51 else/lb;
#X connect 2 0 7 1;
#X connect 2 1 7 2;
#X connect 2 2 7 3;
#X connect 2 3 7 4;
#X connect 2 4 7 5;
#X connect 3 0 7 1;
#X connect 3 1 7 2;
#X connect 3 2 7 3;
#X connect 3 3 7 4;
#X connect 3 4 7 5;
#X connect 5 0 7 0;
#X connect 5 1 3 0;
#X connect 6 0 2 0;
#X connect 7 0 4 0;
#X connect 8 0 6 0;
