#N canvas 307 394 434 389 10;
#X obj 73 255 *~;
#X obj 73 42 inlet~;
#X obj 129 42 inlet;
#X obj 73 318 outlet~;
#X text 131 22 Hz;
#X text 73 22 input;
#X text 157 250 Part of ELSE \; https://github.com/porres/pd-else;
#X text 159 231 Alexandre Torres Porres (2018);
#X obj 257 154 osc~;
#X obj 257 103 else/f2s~ 5 \$1;
#X obj 129 97 change;
#X obj 169 155 sig~ 1;
#X obj 129 151 + 1;
#X obj 129 74 != 0;
#X obj 140 184 else/xselect~ 2 10 2;
#X obj 300 138 sel 0;
#X obj 300 160 del 10;
#X msg 300 183 0;
#X connect 0 0 3 0;
#X connect 1 0 0 0;
#X connect 2 0 9 0;
#X connect 2 0 13 0;
#X connect 8 0 14 1;
#X connect 9 0 8 0;
#X connect 10 0 12 0;
#X connect 10 0 15 0;
#X connect 11 0 14 0;
#X connect 12 0 14 0;
#X connect 13 0 10 0;
#X connect 14 0 0 1;
#X connect 15 0 16 0;
#X connect 16 0 17 0;
#X connect 17 0 8 1;
