#N canvas 564 108 425 166 10;
#X text 197 72 Part of ELSE \; https://github.com/porres/pd-else;
#X text 199 53 Alexandre Torres Porres (2017);
#X obj 104 67 else/sr~ -ms;
#X obj 59 33 inlet~;
#X obj 59 102 outlet~;
#X obj 59 67 *~ 0;
#X connect 2 0 5 1;
#X connect 3 0 5 0;
#X connect 5 0 4 0;
