#N canvas 564 108 563 381 10;
#X obj 119 102 inlet;
#X obj 120 185 outlet;
#X text 267 154 Part of ELSE \; https://github.com/porres/pd-else;
#X text 269 135 Alexandre Torres Porres (2017);
#X obj 118 136 *;
#X obj 163 138 else/sr~ -ms;
#X connect 0 0 4 0;
#X connect 4 0 1 0;
#X connect 5 0 4 1;
