#N canvas 400 88 887 625 12;
#X obj 241 204 text sequence \$0-seq -w note, f 59;
#X obj 446 262 else/frac2dec;
#X msg 121 150 line 0 \, bang, f 7;
#X obj 241 236 list trim;
#X obj 352 482 delay;
#X obj 352 526 s \$0-bang;
#X obj 241 65 r \$0-bang;
#X obj 446 234 list split 1;
#X obj 505 477 list;
#X obj 241 143 spigot;
#X msg 261 117 1, f 1;
#X msg 280 117 0, f 1;
#X obj 651 556 outlet;
#X obj 367 504 bng 15 250 50 0 empty empty empty 17 7 0 10 #fcfcfc
#000000 #000000;
#X obj 505 556 outlet;
#X obj 71 25 inlet;
#X obj 329 556 outlet;
#X obj 446 442 abs;
#X msg 352 433 tempo \$1 permin, f 8;
#X obj 446 290 * 4;
#X obj 533 349 else/bpm;
#X obj 491 389 *;
#X obj 352 307 line 0 1;
#X msg 252 411 tempo \$1;
#X obj 128 100 != 0;
#X obj 71 69 route float start stop;
#X msg 139 385 bar \$1;
#X msg 195 169 reset;
#X obj 139 361 else/count -reset 1;
#X obj 128 124 sel 1;
#X obj 576 557 outlet;
#X obj 241 261 route | tempo -;
#N canvas 703 23 634 470 score 0;
#X msg 397 167 click;
#X obj 459 189 loadbang;
#X obj 459 213 else/args;
#X obj 459 240 route symbol;
#X obj 397 347 text define \$0-seq;
#X f 22;
#X msg 459 264 read \$1;
#X obj 114 192 savepanel;
#X obj 123 155 route bang;
#X msg 114 246 write \$1;
#X obj 190 197 symbol;
#X obj 397 125 else/click;
#X msg 456 309 close;
#X obj 206 49 inlet;
#X obj 46 223 pdcontrol;
#X msg 46 193 dir;
#X obj 257 134 route bang;
#X obj 257 220 openpanel;
#X obj 257 192 pdcontrol;
#X msg 257 162 dir;
#X obj 341 214 symbol;
#X obj 206 88 route save read open close;
#X connect 0 0 4 0;
#X connect 1 0 2 0;
#X connect 2 0 3 0;
#X connect 3 0 5 0;
#X connect 5 0 4 0;
#X connect 6 0 8 0;
#X connect 7 0 14 0;
#X connect 7 1 9 0;
#X connect 8 0 4 0;
#X connect 9 0 8 0;
#X connect 10 0 0 0;
#X connect 11 0 4 0;
#X connect 12 0 20 0;
#X connect 13 0 6 0;
#X connect 14 0 13 0;
#X connect 15 0 18 0;
#X connect 15 1 19 0;
#X connect 16 0 5 0;
#X connect 17 0 16 0;
#X connect 18 0 17 0;
#X connect 19 0 5 0;
#X connect 20 0 7 0;
#X connect 20 1 15 0;
#X connect 20 2 0 0;
#X connect 20 3 11 0;
#X restore 330 113 pd score;
#X text 457 119 Part of ELSE \; https://github.com/porres/pd-else;
#X text 459 100 Alexandre Torres Porres (2022);
#X obj 538 416 t f f;
#X obj 483 448 moses;
#X obj 535 448 b;
#X connect 0 0 3 0;
#X connect 0 1 7 0;
#X connect 0 2 12 0;
#X connect 0 2 27 0;
#X connect 1 0 19 0;
#X connect 2 0 0 0;
#X connect 3 0 31 0;
#X connect 4 0 5 0;
#X connect 4 0 13 0;
#X connect 6 0 9 0;
#X connect 7 0 1 0;
#X connect 7 1 8 1;
#X connect 8 0 14 0;
#X connect 9 0 0 0;
#X connect 10 0 9 1;
#X connect 11 0 9 1;
#X connect 15 0 25 0;
#X connect 17 0 4 0;
#X connect 18 0 4 0;
#X connect 19 0 17 0;
#X connect 19 0 21 0;
#X connect 20 0 21 1;
#X connect 21 0 35 0;
#X connect 22 0 18 0;
#X connect 22 0 20 0;
#X connect 22 0 23 0;
#X connect 23 0 16 0;
#X connect 24 0 29 0;
#X connect 25 0 24 0;
#X connect 25 1 10 0;
#X connect 25 1 2 0;
#X connect 25 2 11 0;
#X connect 25 3 32 0;
#X connect 26 0 16 0;
#X connect 27 0 28 0;
#X connect 28 0 26 0;
#X connect 29 0 2 0;
#X connect 29 0 10 0;
#X connect 29 1 11 0;
#X connect 29 1 27 0;
#X connect 31 0 28 0;
#X connect 31 1 22 0;
#X connect 31 2 14 0;
#X connect 31 3 16 0;
#X connect 35 0 36 0;
#X connect 35 1 30 0;
#X connect 36 1 37 0;
#X connect 37 0 8 0;
