#N canvas 473 168 704 824 10;
#X obj 54 338 route bang;
#X obj 138 417 list length;
#X obj 111 388 t l l;
#X obj 281 759 outlet;
#X msg 54 361 0;
#X obj 114 24 inlet;
#X obj 181 395 v i_\$0;
#X msg 181 311 0;
#X obj 154 281 t l b;
#X text 40 599 Part of ELSE \; https://github.com/porres/pd-else;
#X obj 211 363 - 1;
#X obj 211 311 clip 1;
#X obj 321 335 mod;
#X obj 321 304 + 1;
#X obj 269 347 t b f;
#X msg 269 382 0;
#X obj 372 539 list fromsymbol;
#X obj 372 576 t b l;
#X obj 399 620 sel 45;
#X obj 371 681 list tosymbol;
#X obj 281 446 route float symbol;
#X obj 111 476 text set \$0-seq;
#X obj 98 509 text define \$0-seq;
#X obj 269 320 v i_\$0;
#X obj 138 444 s \$0-mod;
#X obj 369 304 r \$0-mod;
#X obj 281 412 text get \$0-seq, f 8;
#X obj 327 224 t b f;
#X obj 154 256 list;
#X obj 21 128 list;
#X obj 21 153 list split 1;
#X obj 97 181 route bang;
#X obj 211 131 route goto, f 5;
#X obj 211 175 route float, f 5;
#X msg 97 206 -1;
#X obj 97 233 text delete \$0-seq, f 6;
#X text 41 581 Alexandre Torres Porres (2018-2020);
#X obj 162 24 inlet;
#X obj 354 335 sel;
#X obj 354 362 s \$0-done;
#X obj 564 720 r \$0-done;
#X obj 564 759 outlet;
#X obj 458 759 outlet;
#X obj 512 759 outlet;
#X obj 352 510 trigger bang bang, f 21;
#X obj 333 470 sel _ |;
#X obj 154 85 else/routeall set goto bang float, f 39;
#X obj 54 292 else/lb -init;
#X obj 54 315 else/args;
#X obj 371 649 else/group, f 15;
#X obj 399 597 else/iterate;
#X obj 371 720 else/symbol2any;
#X connect 0 0 4 0;
#X connect 0 1 2 0;
#X connect 1 0 11 2;
#X connect 1 0 24 0;
#X connect 2 0 21 0;
#X connect 2 1 1 0;
#X connect 4 0 2 0;
#X connect 4 0 21 0;
#X connect 5 0 46 0;
#X connect 7 0 6 0;
#X connect 8 0 2 0;
#X connect 8 1 7 0;
#X connect 10 0 6 0;
#X connect 11 0 10 0;
#X connect 12 0 23 0;
#X connect 13 0 12 0;
#X connect 13 0 38 0;
#X connect 14 0 15 0;
#X connect 14 1 26 1;
#X connect 15 0 26 0;
#X connect 16 0 17 0;
#X connect 17 0 49 0;
#X connect 17 1 50 0;
#X connect 18 0 49 0;
#X connect 18 1 49 0;
#X connect 19 0 51 0;
#X connect 20 0 3 0;
#X connect 20 1 45 0;
#X connect 23 0 13 0;
#X connect 23 0 14 0;
#X connect 25 0 12 1;
#X connect 25 0 38 1;
#X connect 26 0 20 0;
#X connect 27 0 23 0;
#X connect 27 1 11 0;
#X connect 28 0 8 0;
#X connect 29 0 30 0;
#X connect 30 1 31 0;
#X connect 31 0 34 0;
#X connect 31 1 28 0;
#X connect 32 0 33 0;
#X connect 33 0 11 0;
#X connect 34 0 35 0;
#X connect 37 0 31 0;
#X connect 38 0 39 0;
#X connect 40 0 41 0;
#X connect 44 0 23 0;
#X connect 44 1 43 0;
#X connect 45 1 44 0;
#X connect 45 2 16 0;
#X connect 46 0 29 0;
#X connect 46 1 32 0;
#X connect 46 2 23 0;
#X connect 46 3 27 0;
#X connect 47 0 48 0;
#X connect 48 0 0 0;
#X connect 49 0 19 0;
#X connect 49 1 42 0;
#X connect 50 0 18 0;
#X connect 51 0 3 0;
