#N canvas 308 137 617 442 10;
#X obj 32 77 else/args;
#X obj 32 107 route bang;
#X obj 116 182 list length;
#X obj 89 157 t l l;
#X obj 129 212 v mod_\$0;
#X obj 387 101 table seq_\$0;
#X obj 90 269 array set seq_\$0;
#X obj 116 240 array size seq_\$0;
#X obj 270 151 expr i_\$0 = (i_\$0 + 1) % mod_\$0 \; seq_\$0[i_\$0]
;
#X obj 458 311 outlet;
#X msg 32 130 0;
#X obj 132 18 inlet;
#X obj 223 195 v i_\$0;
#X obj 177 70 t b l;
#X obj 177 109 t b b;
#X msg 159 140 0;
#X obj 132 80 t l b;
#X text 243 251 Part of ELSE \; https://github.com/porres/pd-else;
#X text 245 232 Alexandre Torres Porres (2018);
#X obj 223 162 - 1;
#X obj 32 51 else/lb -init;
#X obj 132 49 route set list float bang, f 31;
#X obj 223 106 clip 1;
#X connect 0 0 1 0;
#X connect 1 0 10 0;
#X connect 1 1 3 0;
#X connect 2 0 4 0;
#X connect 2 0 7 0;
#X connect 2 0 22 2;
#X connect 3 0 6 0;
#X connect 3 1 2 0;
#X connect 8 1 9 0;
#X connect 10 0 6 0;
#X connect 10 0 3 0;
#X connect 11 0 21 0;
#X connect 13 0 14 0;
#X connect 13 1 3 0;
#X connect 14 0 8 0;
#X connect 14 1 15 0;
#X connect 15 0 12 0;
#X connect 16 0 3 0;
#X connect 16 1 15 0;
#X connect 19 0 12 0;
#X connect 20 0 0 0;
#X connect 21 0 16 0;
#X connect 21 1 13 0;
#X connect 21 2 22 0;
#X connect 21 3 8 0;
#X connect 22 0 19 0;
