#N canvas 430 202 711 826 10;
#X obj 54 338 route bang;
#X obj 138 417 list length;
#X obj 111 388 t l l;
#X obj 281 763 outlet;
#X msg 54 361 0;
#X obj 114 24 inlet;
#X obj 181 395 v i_\$0;
#X msg 181 311 0;
#X text 46 642 Part of ELSE \; https://github.com/porres/pd-else;
#X obj 211 363 - 1;
#X obj 211 311 clip 1;
#X obj 321 335 mod;
#X obj 321 304 + 1;
#X obj 269 347 t b f;
#X msg 269 382 0;
#X obj 372 539 list fromsymbol;
#X obj 372 576 t b l;
#X obj 399 620 sel 45;
#X obj 371 681 list tosymbol;
#X obj 281 446 route float symbol;
#X obj 111 476 text set \$0-seq;
#X obj 63 541 text define \$0-seq;
#X obj 269 320 v i_\$0;
#X obj 138 444 s \$0-mod;
#X obj 369 304 r \$0-mod;
#X obj 281 412 text get \$0-seq, f 8;
#X obj 327 194 t b f;
#X obj 154 226 list;
#X obj 21 128 list;
#X obj 21 153 list split 1;
#X obj 97 181 route bang;
#X obj 211 131 route goto, f 5;
#X obj 211 175 route float, f 5;
#X msg 97 206 -1;
#X obj 97 233 text delete \$0-seq, f 6;
#X obj 162 24 inlet;
#X obj 354 335 sel;
#X obj 354 362 s \$0-done;
#X obj 582 720 r \$0-done;
#X obj 582 763 outlet;
#X obj 476 763 outlet;
#X obj 530 763 outlet;
#X obj 352 510 trigger bang bang, f 21;
#X obj 333 470 sel _ |;
#X obj 154 85 else/routeall set goto bang float, f 39;
#X obj 54 292 else/lb -init;
#X obj 54 315 else/args;
#X obj 371 649 else/group, f 18;
#X obj 399 597 else/iterate;
#X obj 371 720 else/symbol2any;
#X obj 530 622 else/count;
#X text 47 624 Alexandre Torres Porres (2018-2021);
#X obj 529 486 sel 0;
#X obj 529 507 t b b;
#X msg 556 532 reset;
#N canvas 443 206 407 401 bar_idx 0;
#X obj 267 131 sel |;
#X msg 267 162 1;
#X msg 294 162 0;
#X obj 233 193 spigot;
#X obj 233 85 else/order;
#X obj 233 107 else/unmerge;
#X obj 206 227 else/group;
#X obj 57 263 else/buffer bar_idx_\$0;
#X obj 50 225 array define bar_idx_\$0;
#X obj 206 263 list length;
#X obj 206 288 v size_\$0;
#X obj 206 58 t b a;
#X obj 206 33 inlet;
#X connect 0 0 1 0;
#X connect 0 1 2 0;
#X connect 1 0 3 1;
#X connect 2 0 3 1;
#X connect 3 0 6 0;
#X connect 4 0 5 0;
#X connect 5 0 3 0;
#X connect 5 1 0 0;
#X connect 6 0 7 1;
#X connect 6 0 9 0;
#X connect 9 0 10 0;
#X connect 11 0 6 0;
#X connect 11 1 4 0;
#X connect 12 0 11 0;
#X restore 78 503 pd bar_idx;
#N canvas 403 169 441 498 find-index 0;
#X obj 203 247 tabread bar_idx_\$0;
#X obj 212 383 + 1;
#X obj 157 379 +;
#X obj 212 285 <=, f 5;
#X msg 121 143 0;
#X obj 212 320 sel 1 0;
#X msg 79 258 pause;
#X obj 157 94 t f b b f, f 27;
#X obj 195 135 v size_\$0;
#X obj 202 195 else/loop;
#X obj 202 222 t f f, f 23;
#X obj 212 355 float, f 9;
#X obj 157 33 inlet;
#X obj 157 448 outlet;
#X obj 158 414 + 1;
#X obj 157 65 - 1;
#X obj 174 168 sel 0;
#X connect 0 0 3 0;
#X connect 1 0 2 1;
#X connect 2 0 14 0;
#X connect 3 0 5 0;
#X connect 4 0 2 1;
#X connect 5 0 11 0;
#X connect 5 1 6 0;
#X connect 6 0 9 0;
#X connect 7 0 2 0;
#X connect 7 1 8 0;
#X connect 7 2 4 0;
#X connect 7 3 3 1;
#X connect 8 0 16 0;
#X connect 9 0 10 0;
#X connect 10 0 0 0;
#X connect 10 1 11 1;
#X connect 11 0 1 0;
#X connect 12 0 15 0;
#X connect 14 0 13 0;
#X connect 15 0 7 0;
#X connect 16 1 9 0;
#X restore 354 218 pd find-index;
#X obj 154 251 t l b;
#X obj 504 409 change -1;
#N canvas 403 169 435 486 find-bar# 0;
#X obj 194 224 tabread bar_idx_\$0;
#X obj 203 360 + 1;
#X obj 203 262 <=, f 5;
#X msg 110 128 0;
#X obj 203 297 sel 1 0;
#X msg 70 235 pause;
#X obj 166 127 v size_\$0;
#X obj 193 172 else/loop;
#X obj 193 199 t f f, f 23;
#X obj 203 332 float, f 9;
#X obj 148 20 inlet;
#X obj 148 425 outlet;
#X obj 166 148 sel 0;
#X obj 148 356 f;
#X obj 148 81 t b b b f, f 20;
#X connect 0 0 2 0;
#X connect 1 0 13 1;
#X connect 2 0 4 0;
#X connect 3 0 13 1;
#X connect 4 0 9 0;
#X connect 4 1 5 0;
#X connect 5 0 7 0;
#X connect 6 0 12 0;
#X connect 7 0 8 0;
#X connect 8 0 0 0;
#X connect 8 1 9 1;
#X connect 9 0 1 0;
#X connect 10 0 14 0;
#X connect 12 1 7 0;
#X connect 13 0 11 0;
#X connect 14 0 13 0;
#X connect 14 1 6 0;
#X connect 14 2 3 0;
#X connect 14 3 2 1;
#X restore 502 383 pd find-bar#;
#X connect 0 0 4 0;
#X connect 0 1 2 0;
#X connect 1 0 10 2;
#X connect 1 0 23 0;
#X connect 2 0 20 0;
#X connect 2 0 55 0;
#X connect 2 1 1 0;
#X connect 4 0 2 0;
#X connect 4 0 20 0;
#X connect 5 0 44 0;
#X connect 7 0 6 0;
#X connect 9 0 6 0;
#X connect 10 0 9 0;
#X connect 11 0 22 0;
#X connect 12 0 11 0;
#X connect 12 0 36 0;
#X connect 13 0 14 0;
#X connect 13 1 25 1;
#X connect 13 1 52 0;
#X connect 13 1 59 0;
#X connect 14 0 25 0;
#X connect 15 0 16 0;
#X connect 16 0 47 0;
#X connect 16 1 48 0;
#X connect 17 0 47 0;
#X connect 17 1 47 0;
#X connect 18 0 49 0;
#X connect 19 0 3 0;
#X connect 19 1 43 0;
#X connect 22 0 12 0;
#X connect 22 0 13 0;
#X connect 24 0 11 1;
#X connect 24 0 36 1;
#X connect 25 0 19 0;
#X connect 26 0 22 0;
#X connect 26 1 56 0;
#X connect 27 0 57 0;
#X connect 28 0 29 0;
#X connect 29 1 30 0;
#X connect 30 0 33 0;
#X connect 30 1 27 0;
#X connect 31 0 32 0;
#X connect 32 0 56 0;
#X connect 33 0 34 0;
#X connect 35 0 30 0;
#X connect 36 0 37 0;
#X connect 38 0 39 0;
#X connect 42 0 22 0;
#X connect 42 1 50 0;
#X connect 43 1 42 0;
#X connect 43 2 15 0;
#X connect 44 0 28 0;
#X connect 44 1 31 0;
#X connect 44 2 22 0;
#X connect 44 3 26 0;
#X connect 45 0 46 0;
#X connect 46 0 0 0;
#X connect 47 0 18 0;
#X connect 47 1 40 0;
#X connect 48 0 17 0;
#X connect 49 0 3 0;
#X connect 52 0 53 0;
#X connect 53 0 50 0;
#X connect 53 1 54 0;
#X connect 54 0 50 0;
#X connect 56 0 10 0;
#X connect 57 0 2 0;
#X connect 57 1 7 0;
#X connect 58 0 41 0;
#X connect 59 0 58 0;
