#N canvas 330 209 655 440 10;
#N canvas 195 90 700 503 \$0-point 0;
#X obj 61 409 outlet;
#X text 282 184 vertical;
#X text 266 207 horizontal;
#X obj 90 155 r \$0-vis;
#X text 286 304 inlet;
#X text 277 365 outlet;
#X obj 128 276 r \$0-inlet;
#X obj 129 336 r \$0-outlet;
#X obj 378 293 r \$0-grid;
#X obj 88 124 filledcurve 0 fg 8 x0 y0 x0 y0 x0 y0;
#X obj 109 185 drawpolygon fg 2 x0 0 x0 ys;
#X obj 90 206 drawpolygon fg 2 0 y0 xs y0;
#X obj 90 238 drawpolygon 0 1 0 0 xs 0 xs ys 0 ys 0 0;
#X obj 128 305 drawpolygon 0 3 0 in 8 in;
#X obj 129 363 drawpolygon 0 3 0 1 7 1;
#X obj 396 331 drawpolygon -n fg 1 gridx 0 gridx ys;
#X obj 378 362 drawpolygon -n fg 1 0 gridy xs gridy;
#X obj 62 29 struct \$0-point float x0 float y0 float xs float ys float
fg float in float gridx float gridy, f 35;
#X connect 3 0 10 0;
#X connect 3 0 11 0;
#X connect 6 0 13 0;
#X connect 7 0 14 0;
#X connect 8 0 15 0;
#X connect 8 0 16 0;
#X connect 17 0 0 0;
#X restore 43 161 pd \$0-point;
#X obj 43 13 inlet;
#N canvas 266 43 318 245 init 0;
#X obj 46 49 loadbang;
#N canvas 152 104 548 504 draw-point 0;
#X obj 337 114 pointer;
#X obj 88 140 list append 0 0;
#X obj 175 114 r \$0-coords;
#X obj 69 33 inlet;
#X obj 69 358 outlet;
#X obj 337 69 else/message traverse pd-\$0-point-cnv \, bang, f 21
;
#X obj 69 89 t b b b;
#X obj 89 296 v \$0-fgcolor;
#X obj 89 321 s \$0-set-fgcolor;
#X obj 193 293 s \$0-pointer;
#X obj 88 269 trigger bang point;
#X obj 88 243 append \$0-point x0 y0 gridx gridy xs ys in;
#X obj 230 157 r \$0-xsize;
#X obj 265 182 r \$0-ysize;
#X obj 301 218 - 1;
#X obj 159 219 / 2;
#X obj 194 219 / 2;
#X connect 0 0 11 7;
#X connect 1 0 11 0;
#X connect 2 0 1 1;
#X connect 3 0 6 0;
#X connect 5 0 0 0;
#X connect 6 0 4 0;
#X connect 6 1 1 0;
#X connect 6 2 5 0;
#X connect 7 0 8 0;
#X connect 10 0 7 0;
#X connect 10 1 9 0;
#X connect 11 0 10 0;
#X connect 12 0 11 4;
#X connect 12 0 15 0;
#X connect 13 0 14 0;
#X connect 13 0 11 5;
#X connect 13 0 16 0;
#X connect 14 0 11 6;
#X connect 15 0 11 2;
#X connect 16 0 11 3;
#X restore 136 132 pd draw-point;
#N canvas 628 92 508 241 GOP 0;
#X obj 51 77 f;
#X obj 51 25 inlet;
#X msg 51 126 \; pd-\$3-point-cnv donecanvasdialog 1 -1 3 0 \$2 \$1
0 \$1 \$2 0 0 \; pd-\$3-arrays-cnv donecanvasdialog 1 -1 3 0 \$2 \$1
0 \$1 \$2 100 20 \; pd-\$3-graph1 donecanvasdialog 1 -1 3 0 \$2 \$1
0 \$1 \$2 0 0 \; pd-\$3-graph2 donecanvasdialog 1 -1 3 0 0 \$1 \$2
\$1 \$2 0 0 \; \$3-this-patch donecanvasdialog 1 -1 3 0 \$2 \$1 0 \$1
\$2 190 100 \, dirty 0, f 70;
#X obj 66 55 r \$0-xsize;
#X obj 82 78 r \$0-ysize;
#X obj 51 99 pack f f \$0;
#X connect 0 0 5 0;
#X connect 1 0 0 0;
#X connect 3 0 0 1;
#X connect 4 0 5 1;
#X connect 5 0 2 0;
#X restore 136 154 pd GOP;
#N canvas 124 142 1104 544 args-setup 0;
#X obj 50 14 inlet;
#X obj 364 178 max 18;
#X obj 50 500 outlet;
#X obj 194 120 else/args -;
#X obj 50 74 t b b b b;
#N canvas 784 36 534 494 range 0;
#X obj 238 302 unpack;
#X obj 154 247 list;
#X obj 76 188 list length;
#X obj 76 212 sel 2;
#X obj 76 160 trigger list list;
#X obj 104 336 print slider2d;
#X msg 104 303 -range needs 2 floats, f 12;
#X obj 76 76 inlet;
#X obj 238 426 s \$0-min-y;
#X obj 228 447 s \$0-min-x;
#X obj 278 327 s \$0-max-x;
#X obj 271 348 s \$0-max-y;
#X obj 306 281 v max_x_\$0;
#X obj 307 302 v max_y_\$0;
#X obj 256 403 v min_y_\$0;
#X obj 268 380 v min_x_\$0;
#X msg 124 125 0 127;
#X obj 124 102 r \$0-default;
#X connect 0 0 8 0;
#X connect 0 0 9 0;
#X connect 0 0 14 0;
#X connect 0 0 15 0;
#X connect 0 1 10 0;
#X connect 0 1 11 0;
#X connect 0 1 12 0;
#X connect 0 1 13 0;
#X connect 1 0 0 0;
#X connect 2 0 3 0;
#X connect 3 0 1 0;
#X connect 3 1 6 0;
#X connect 4 0 2 0;
#X connect 4 1 1 1;
#X connect 6 0 5 0;
#X connect 7 0 4 0;
#X connect 16 0 4 0;
#X connect 17 0 16 0;
#X restore 462 201 pd range;
#X obj 281 229 list split 2;
#N canvas 171 255 559 444 xrange 0;
#X obj 261 212 unpack;
#X obj 177 157 list;
#X obj 99 98 list length;
#X obj 99 122 sel 2;
#X obj 99 70 trigger list list;
#X obj 127 246 print slider2d;
#X obj 99 40 inlet;
#X obj 294 259 s \$0-max-x;
#X obj 303 239 v max_x_\$0;
#X obj 257 362 v min_x_\$0;
#X msg 127 213 -xrange needs 2 floats, f 14;
#X obj 261 164 r \$0-set-xrange;
#X obj 272 341 s \$0-min-x;
#X msg 284 292 set \$1;
#X msg 318 195 set \$1;
#X obj 284 314 s \$0-set-min-x;
#X obj 318 217 s \$0-set-max-x;
#X connect 0 0 9 0;
#X connect 0 0 12 0;
#X connect 0 0 13 0;
#X connect 0 1 7 0;
#X connect 0 1 8 0;
#X connect 0 1 14 0;
#X connect 1 0 0 0;
#X connect 2 0 3 0;
#X connect 3 0 1 0;
#X connect 3 1 10 0;
#X connect 4 0 2 0;
#X connect 4 1 1 1;
#X connect 6 0 4 0;
#X connect 10 0 5 0;
#X connect 11 0 0 0;
#X connect 13 0 15 0;
#X connect 14 0 16 0;
#X restore 517 311 pd xrange;
#N canvas 112 102 559 444 yrange 0;
#X obj 261 212 unpack;
#X obj 177 157 list;
#X obj 99 98 list length;
#X obj 99 122 sel 2;
#X obj 99 70 trigger list list;
#X obj 127 246 print slider2d;
#X obj 99 40 inlet;
#X obj 261 336 s \$0-min-y;
#X obj 391 259 s \$0-max-y;
#X obj 391 239 v max_y_\$0;
#X obj 279 313 v min_y_\$0;
#X obj 261 164 r \$0-set-yrange;
#X msg 127 213 -yrange needs 2 floats, f 14;
#X msg 289 257 set \$1;
#X msg 390 195 set \$1;
#X obj 390 217 s \$0-set-max-y;
#X obj 289 279 s \$0-set-min-y;
#X connect 0 0 7 0;
#X connect 0 0 10 0;
#X connect 0 0 13 0;
#X connect 0 1 8 0;
#X connect 0 1 9 0;
#X connect 0 1 14 0;
#X connect 1 0 0 0;
#X connect 2 0 3 0;
#X connect 3 0 1 0;
#X connect 3 1 12 0;
#X connect 4 0 2 0;
#X connect 4 1 1 1;
#X connect 6 0 4 0;
#X connect 11 0 0 0;
#X connect 12 0 5 0;
#X connect 13 0 16 0;
#X connect 14 0 15 0;
#X restore 572 290 pd yrange;
#N canvas 265 435 851 378 setargs 0;
#X obj 78 87 r \$0-set_xsize;
#X obj 222 106 unpack;
#X msg 255 132 set \$1;
#X obj 222 82 r \$0-set-xrange;
#X obj 348 110 unpack;
#X msg 381 136 set \$1;
#X obj 348 86 r \$0-set-yrange;
#X obj 200 31 r \$0-set-min-x;
#X obj 271 58 r \$0-set-max-x;
#X obj 348 34 r \$0-set-min-y;
#X obj 373 59 r \$0-set-max-y;
#X obj 137 301 outlet;
#X obj 109 113 r \$0-set_ysize;
#X obj 392 181 r \$0-set_line;
#X obj 432 215 r \$0-set-bg;
#X obj 560 220 r \$0-set-fg;
#X obj 648 223 r \$0-set_grid;
#X obj 137 257 else/pack2 127 127 0 127 0 127 1 255 255 255 0 0 0 0
, f 92;
#X connect 0 0 17 0;
#X connect 1 0 17 2;
#X connect 1 1 2 0;
#X connect 2 0 17 3;
#X connect 3 0 1 0;
#X connect 4 0 17 4;
#X connect 4 1 5 0;
#X connect 5 0 17 5;
#X connect 6 0 4 0;
#X connect 7 0 17 2;
#X connect 8 0 17 3;
#X connect 9 0 17 4;
#X connect 10 0 17 5;
#X connect 12 0 17 1;
#X connect 13 0 17 6;
#X connect 14 0 17 7;
#X connect 15 0 17 10;
#X connect 16 0 17 13;
#X connect 17 0 11 0;
#X restore 194 95 pd setargs;
#X obj 469 332 v height_\$0;
#X obj 413 201 max 18;
#X obj 363 381 v width_\$0;
#X obj 249 356 r \$0-name1;
#X obj 262 383 r \$0-name2;
#X obj 192 379 array size;
#X obj 181 405 array size, f 14;
#X obj 181 249 v width_\$0;
#X obj 69 295 v height_\$0;
#X obj 194 185 list split 2;
#X obj 194 216 unpack;
#X obj 194 155 route list, f 11;
#N canvas 68 23 448 298 default 0;
#X obj 137 84 s \$0-default;
#X msg 137 141 127;
#X obj 145 169 v height_\$0;
#X obj 138 195 v width_\$0;
#X obj 137 119 r \$0-default;
#X obj 137 46 inlet;
#X obj 261 118 r \$0-default;
#X msg 261 140 888;
#X obj 261 166 v \$0-bgcolor;
#X connect 1 0 2 0;
#X connect 1 0 3 0;
#X connect 4 0 1 0;
#X connect 5 0 0 0;
#X connect 6 0 7 0;
#X connect 7 0 8 0;
#X restore 194 64 pd default;
#N canvas 206 321 311 294 size 0;
#X obj 91 40 inlet;
#X obj 91 82 max 18;
#X obj 91 204 v height_\$0;
#X obj 68 235 v width_\$0;
#X obj 164 145 s \$0-set_ysize;
#X obj 112 169 s \$0-set_xsize;
#X msg 164 123 set \$1;
#X obj 112 117 t f f;
#X msg 112 145 set \$1;
#X connect 0 0 1 0;
#X connect 1 0 2 0;
#X connect 1 0 3 0;
#X connect 1 0 7 0;
#X connect 6 0 4 0;
#X connect 7 0 8 0;
#X connect 7 1 6 0;
#X connect 8 0 5 0;
#X restore 315 138 pd size;
#X obj 462 151 route -range -xrange -yrange;
#X obj 315 100 route -size -xsize -ysize;
#X obj 413 356 s \$0-set_ysize;
#X obj 344 427 s \$0-set_xsize;
#X msg 413 334 set \$1;
#X msg 344 406 set \$1;
#X obj 667 196 route -line;
#X obj 584 265 list split 2;
#X obj 204 275 t f f;
#X obj 204 324 s \$0-xsize;
#X obj 214 299 s \$0-1st-x;
#X obj 678 296 list split 1;
#N canvas 68 23 450 300 line 0;
#X obj 127 55 route float;
#X obj 139 104 s \$0-vis;
#X msg 128 138 set \$1;
#X obj 128 160 s \$0-set_line;
#X obj 127 79 != 0;
#X obj 124 22 inlet;
#X connect 0 0 4 0;
#X connect 2 0 3 0;
#X connect 4 0 2 0;
#X connect 4 0 1 0;
#X connect 5 0 0 0;
#X restore 667 360 pd line;
#X obj 803 240 route -bgcolor -fgcolor, f 8;
#X obj 712 320 list split 3;
#N canvas 247 54 367 247 bg 0;
#X obj 78 115 else/setmess rgb;
#X obj 194 115 else/setmess set;
#X obj 194 140 s \$0-set-bg;
#X obj 194 67 inlet;
#X obj 78 139 else/colors -gui;
#X obj 78 187 s \$0-bg_cnv;
#X msg 80 161 color \$1;
#X connect 0 0 4 0;
#X connect 1 0 2 0;
#X connect 3 0 1 0;
#X connect 3 0 0 0;
#X connect 4 0 6 0;
#X connect 6 0 5 0;
#X restore 803 405 pd bg;
#N canvas 68 23 381 243 fb 0;
#X obj 81 107 else/setmess rgb;
#X obj 81 131 else/colors -ds;
#X obj 81 156 v \$0-fgcolor;
#X obj 197 107 else/setmess set;
#X obj 197 131 s \$0-set-fg;
#X obj 197 37 inlet;
#X connect 0 0 1 0;
#X connect 1 0 2 0;
#X connect 3 0 4 0;
#X connect 5 0 3 0;
#X connect 5 0 0 0;
#X restore 825 383 pd fb;
#X obj 836 353 list split 3;
#N canvas 68 23 450 300 grid 0;
#X obj 110 54 inlet;
#X obj 114 87 route float;
#X msg 115 170 set \$1;
#X obj 114 111 != 0;
#X obj 126 136 s \$0-grid;
#X obj 115 192 s \$0-set_grid;
#X connect 0 0 1 0;
#X connect 1 0 3 0;
#X connect 2 0 5 0;
#X connect 3 0 2 0;
#X connect 3 0 4 0;
#X restore 896 431 pd grid;
#X obj 922 393 list split 1;
#X obj 896 307 route -grid;
#X obj 69 413 s \$0-bg-size;
#X obj 69 321 t b f f;
#X obj 88 370 s \$0-ysize;
#X obj 108 347 s \$0-1st-y;
#X connect 0 0 4 0;
#X connect 1 0 12 0;
#X connect 1 0 29 0;
#X connect 3 0 21 0;
#X connect 4 0 2 0;
#X connect 4 1 17 0;
#X connect 4 1 18 0;
#X connect 4 2 3 0;
#X connect 4 3 22 0;
#X connect 6 0 7 0;
#X connect 6 1 31 0;
#X connect 9 0 3 0;
#X connect 11 0 10 0;
#X connect 11 0 28 0;
#X connect 13 0 15 1;
#X connect 14 0 16 1;
#X connect 17 0 15 0;
#X connect 17 0 16 0;
#X connect 17 0 32 0;
#X connect 18 0 46 0;
#X connect 19 0 20 0;
#X connect 19 1 6 0;
#X connect 20 0 1 0;
#X connect 20 1 11 0;
#X connect 21 0 19 0;
#X connect 21 1 25 0;
#X connect 24 0 5 0;
#X connect 24 1 7 0;
#X connect 24 2 8 0;
#X connect 24 3 30 0;
#X connect 25 0 23 0;
#X connect 25 1 1 0;
#X connect 25 2 11 0;
#X connect 25 3 24 0;
#X connect 28 0 26 0;
#X connect 29 0 27 0;
#X connect 30 0 36 0;
#X connect 30 1 37 0;
#X connect 31 0 8 0;
#X connect 31 1 35 0;
#X connect 32 0 33 0;
#X connect 32 1 34 0;
#X connect 35 0 36 0;
#X connect 35 1 38 0;
#X connect 37 0 39 0;
#X connect 37 1 40 0;
#X connect 37 2 44 0;
#X connect 38 0 39 0;
#X connect 38 1 41 0;
#X connect 41 0 40 0;
#X connect 41 1 43 0;
#X connect 43 0 42 0;
#X connect 44 0 42 0;
#X connect 46 0 45 0;
#X connect 46 1 47 0;
#X connect 46 2 48 0;
#X restore 35 95 pd args-setup;
#X obj 136 78 t b b;
#X obj 155 52 r \$0-reset;
#X obj 136 20 inlet;
#N canvas 242 102 511 370 init-arrays 0;
#X obj 79 119 t b b;
#X obj 135 145 s pd-\$0-arrays-cnv;
#X text 170 101 Create graphs;
#X msg 135 123 graph \$1-graph2 \, graph \$1-graph1;
#X obj 79 18 inlet;
#X obj 135 99 f \$0;
#X obj 79 227 t b b;
#X text 289 211 Insert arrays into graphs;
#X obj 79 321 outlet;
#X obj 192 188 r \$0-name1;
#X obj 263 189 r \$0-name2;
#X msg 131 234 \; pd-\$1-graph1 pop \, array \$2 0 float 1 \; pd-\$1-graph2
pop \, array \$3 0 float 1 \;;
#N canvas 295 106 668 461 create-names 0;
#X obj 365 329 s \$0-name2;
#X obj 484 189 t b f;
#X obj 454 233 list split;
#X obj 482 255 list split 1;
#X obj 435 145 t f f;
#X obj 435 167 div 2;
#X obj 484 167 mod 2;
#X msg 454 211 32 160;
#X obj 365 305 list tosymbol;
#X obj 52 406 outlet;
#X obj 54 38 inlet;
#X obj 196 82 expr \$0 * 1000 + 1 \; \$0 * 1000 + 2;
#X obj 435 123 trigger float bang, f 19;
#X obj 482 277 list append, f 15;
#X obj 482 301 trigger list;
#X obj 365 281 list append;
#X obj 365 209 sel 0;
#X obj 245 189 t b f;
#X obj 215 233 list split;
#X obj 243 255 list split 1;
#X obj 196 145 t f f;
#X obj 196 167 div 2;
#X obj 245 167 mod 2;
#X msg 215 211 32 160;
#X obj 126 310 list tosymbol;
#X obj 196 123 trigger float bang, f 19;
#X obj 243 277 list append, f 15;
#X obj 243 301 trigger list;
#X obj 126 281 list append;
#X obj 126 209 sel 0;
#X obj 126 333 s \$0-name1;
#X obj 54 110 trigger bang bang;
#X connect 1 0 7 0;
#X connect 1 1 2 1;
#X connect 2 1 3 0;
#X connect 3 0 13 0;
#X connect 4 0 5 0;
#X connect 4 1 6 0;
#X connect 5 0 16 0;
#X connect 6 0 1 0;
#X connect 7 0 2 0;
#X connect 8 0 0 0;
#X connect 10 0 31 0;
#X connect 11 0 25 0;
#X connect 11 1 12 0;
#X connect 12 0 4 0;
#X connect 12 1 13 1;
#X connect 13 0 14 0;
#X connect 14 0 13 1;
#X connect 14 0 15 1;
#X connect 15 0 8 0;
#X connect 16 0 15 0;
#X connect 16 1 4 0;
#X connect 17 0 23 0;
#X connect 17 1 18 1;
#X connect 18 1 19 0;
#X connect 19 0 26 0;
#X connect 20 0 21 0;
#X connect 20 1 22 0;
#X connect 21 0 29 0;
#X connect 22 0 17 0;
#X connect 23 0 18 0;
#X connect 24 0 30 0;
#X connect 25 0 20 0;
#X connect 25 1 26 1;
#X connect 26 0 27 0;
#X connect 27 0 26 1;
#X connect 27 0 28 1;
#X connect 28 0 24 0;
#X connect 29 0 28 0;
#X connect 29 1 20 0;
#X connect 31 0 9 0;
#X connect 31 1 11 0;
#X restore 79 55 pd create-names;
#X obj 131 213 pack \$0 symbol symbol;
#X connect 0 0 6 0;
#X connect 0 1 5 0;
#X connect 3 0 1 0;
#X connect 4 0 12 0;
#X connect 5 0 3 0;
#X connect 6 0 8 0;
#X connect 6 1 13 0;
#X connect 9 0 13 1;
#X connect 10 0 13 2;
#X connect 12 0 0 0;
#X connect 13 0 11 0;
#X restore 35 73 pd init-arrays;
#X obj 186 101 s pd-\$0-point-cnv;
#X obj 35 21 inlet;
#X msg 186 78 clear;
#X connect 0 0 7 0;
#X connect 1 0 2 0;
#X connect 3 0 1 0;
#X connect 4 0 1 0;
#X connect 4 1 10 0;
#X connect 5 0 4 0;
#X connect 6 0 4 0;
#X connect 7 0 3 0;
#X connect 9 0 7 0;
#X connect 10 0 8 0;
#X restore 138 63 pd init;
#X obj 43 101 namecanvas \$0-this-patch, f 13;
#X obj 228 41 bng 15 250 50 0 empty empty empty 17 7 0 10 -262144 -1
-1;
#X obj 177 41 bng 15 250 50 0 empty empty empty 17 7 0 10 -262144 -1
-1;
#X obj 43 242 outlet;
#N canvas 115 204 614 250 clear 0;
#X obj 78 17 inlet;
#X obj 78 176 s pd-\$0-arrays-cnv;
#X obj 90 154 s pd-\$0-point-cnv;
#X msg 78 126 clear \, donecanvasdialog 1 -1 0 0 0 0 0 0 0 0 0;
#X text 221 175 <= just arrays need to be cleared before saving;
#X obj 138 69 s \$0-this-patch;
#X msg 138 48 donecanvasdialog 1 -1 0 0 0 0 0 0 0 0 0;
#X obj 78 63 t b b;
#X text 394 41 totally optional;
#X text 397 54 useful for recreating abstraction in parent, f 21;
#X text 224 153 <= doesn't need to clear before saving either;
#X msg 25 126 clear;
#X connect 0 0 7 0;
#X connect 3 0 1 0;
#X connect 3 0 2 0;
#X connect 6 0 5 0;
#X connect 7 0 3 0;
#X connect 7 1 6 0;
#X connect 11 0 1 0;
#X connect 11 0 2 0;
#X restore 228 63 pd clear;
#X text 369 45 Part of ELSE \; https://github.com/porres/pd-else;
#X text 371 26 Alexandre Torres Porres (2018);
#X obj 138 41 bng 15 250 50 0 empty empty empty 17 7 0 10 -262144 -1
-1;
#X text 249 39 before saving;
#X text 111 21 re-init;
#X text 172 22 reset;
#N canvas 203 267 617 268 route 0;
#X obj 64 31 inlet;
#N canvas 334 452 272 220 coords 0;
#X obj 51 173 s \$0-output;
#X obj 51 25 inlet;
#X obj 114 25 inlet;
#X obj 141 118 s \$0-set-coords;
#X obj 51 62 t l l;
#X obj 114 145 s \$0-set-output;
#X obj 114 62 t l l;
#N canvas 199 23 443 306 rescale 0;
#X obj 36 28 inlet;
#X obj 174 250 outlet;
#X obj 36 124 clip 0 127;
#X obj 111 95 r \$0-min-x;
#X obj 128 120 r \$0-max-x;
#X obj 94 165 else/rescale 0 0 0 0, f 12;
#X obj 163 143 r \$0-xsize;
#X obj 36 68 unpack float float, f 27;
#X obj 209 103 clip 0 127;
#X obj 267 144 else/rescale 0 0 0 0, f 12;
#X obj 284 74 r \$0-min-y;
#X obj 301 99 r \$0-max-y;
#X obj 174 208 pack float float;
#X obj 261 262 display;
#X obj 336 123 r \$0-ysize;
#X connect 0 0 7 0;
#X connect 2 0 5 0;
#X connect 3 0 2 1;
#X connect 3 0 5 1;
#X connect 4 0 2 2;
#X connect 4 0 5 2;
#X connect 5 0 12 0;
#X connect 6 0 5 4;
#X connect 7 0 2 0;
#X connect 7 1 8 0;
#X connect 8 0 9 0;
#X connect 9 0 12 1;
#X connect 10 0 8 1;
#X connect 10 0 9 1;
#X connect 11 0 8 2;
#X connect 11 0 9 2;
#X connect 12 0 1 0;
#X connect 12 0 13 0;
#X connect 14 0 9 4;
#X restore 141 88 pd rescale;
#X connect 1 0 4 0;
#X connect 2 0 6 0;
#X connect 4 0 0 0;
#X connect 4 1 7 0;
#X connect 6 0 5 0;
#X connect 6 1 7 0;
#X connect 7 0 3 0;
#X restore 50 105 pd coords;
#N canvas 178 30 284 204 bang 0;
#X obj 69 33 inlet;
#X obj 68 121 s \$0-bang;
#X obj 143 131 s \$0-changed;
#X obj 69 79 t b b;
#X msg 143 109 reset;
#X connect 0 0 3 0;
#X connect 3 0 1 0;
#X connect 3 1 4 0;
#X connect 4 0 2 0;
#X restore 370 156 pd bang;
#X obj 289 209 s \$0-set-xrange;
#X obj 326 179 s \$0-set-yrange;
#N canvas 211 267 330 192 size 0;
#X obj 41 29 inlet;
#X obj 122 29 inlet;
#X obj 216 29 inlet;
#N canvas 460 265 364 376 set-size 0;
#X obj 58 26 inlet;
#X obj 58 57 route float;
#X obj 118 180 float;
#X obj 58 150 sel 1;
#X obj 58 80 max 18;
#X obj 145 282 s \$0-set_xsize;
#X obj 183 134 s \$0-xsize;
#X obj 257 162 r \$0-name1;
#X obj 272 188 r \$0-name2;
#X obj 200 185 array size;
#X obj 191 210 array size, f 14;
#X obj 183 156 s \$0-ysize;
#X obj 145 55 r \$0-xsize;
#X obj 58 102 expr $f1 != $f2 || $f1 != $f3 \; $f1, f 15;
#X obj 145 81 r \$0-ysize;
#X msg 191 234 set \$1;
#X obj 191 258 s \$0-set_ysize;
#X obj 118 207 t b f;
#X obj 119 327 outlet;
#X obj 145 234 t f f;
#X connect 0 0 1 0;
#X connect 1 0 4 0;
#X connect 2 0 17 0;
#X connect 3 0 2 0;
#X connect 4 0 13 0;
#X connect 7 0 9 1;
#X connect 8 0 10 1;
#X connect 12 0 13 1;
#X connect 13 0 3 0;
#X connect 13 1 2 1;
#X connect 14 0 13 2;
#X connect 15 0 16 0;
#X connect 17 0 18 0;
#X connect 17 1 6 0;
#X connect 17 1 10 0;
#X connect 17 1 9 0;
#X connect 17 1 11 0;
#X connect 17 1 19 0;
#X connect 19 0 5 0;
#X connect 19 1 15 0;
#X restore 41 63 pd set-size;
#N canvas 182 375 300 282 set-xsize 0;
#X obj 46 21 inlet;
#X obj 46 62 route float;
#X obj 46 85 max 18;
#X obj 127 195 s \$0-set_xsize;
#X obj 127 171 s \$0-xsize;
#X obj 184 96 r \$0-name1;
#X obj 208 123 r \$0-name2;
#X obj 127 119 array size;
#X obj 127 145 array size, f 14;
#X obj 46 119 change;
#X obj 121 62 r \$0-xsize;
#X msg 121 87 set \$1;
#X obj 46 232 outlet;
#X obj 46 175 t b f;
#X connect 0 0 1 0;
#X connect 1 0 2 0;
#X connect 2 0 9 0;
#X connect 5 0 7 1;
#X connect 6 0 8 1;
#X connect 9 0 13 0;
#X connect 10 0 11 0;
#X connect 11 0 9 0;
#X connect 13 0 12 0;
#X connect 13 1 7 0;
#X connect 13 1 8 0;
#X connect 13 1 4 0;
#X connect 13 1 3 0;
#X restore 122 63 pd set-xsize;
#N canvas 749 320 333 219 set-ysize 0;
#X obj 49 20 inlet;
#X obj 192 114 s \$0-ysize;
#X obj 192 138 s \$0-set_ysize;
#X obj 49 53 route float;
#X obj 49 76 max 18;
#X obj 130 108 change;
#X msg 130 76 set \$1;
#X obj 130 53 r \$0-ysize;
#X obj 130 166 outlet;
#X obj 130 136 t b f;
#X connect 0 0 3 0;
#X connect 3 0 4 0;
#X connect 4 0 5 0;
#X connect 5 0 9 0;
#X connect 6 0 5 0;
#X connect 7 0 6 0;
#X connect 9 0 8 0;
#X connect 9 1 1 0;
#X connect 9 1 2 0;
#X restore 216 63 pd set-ysize;
#N canvas 353 224 722 441 resize 0;
#X obj 76 175 list append 0 0;
#X obj 163 142 r \$0-coords;
#X obj 76 322 else/rescale 0 127 0 127;
#X obj 146 289 else/lastvalue;
#X obj 146 260 r \$0-xsize;
#X obj 76 221 unpack float float, f 24;
#X obj 248 322 else/rescale 0 127 0 127;
#X obj 318 289 else/lastvalue;
#X obj 318 260 r \$0-ysize;
#X obj 76 371 pack float float, f 26;
#X obj 76 407 s \$0-set-coords;
#X obj 76 17 inlet;
#X obj 244 260 r \$0-1st-x;
#X obj 399 260 r \$0-1st-y;
#X msg 288 172 vis_size \$1 \$2;
#X obj 288 144 list;
#X obj 288 203 s \$0-bg_cnv;
#X obj 309 114 else/pack2 125 125;
#X obj 313 69 r \$0-xsize;
#X obj 414 70 r \$0-ysize;
#X obj 313 92 - 2;
#X obj 416 92 - 2;
#X obj 288 43 r \$0-bg-size;
#X connect 0 0 5 0;
#X connect 1 0 0 1;
#X connect 2 0 9 0;
#X connect 3 0 2 2;
#X connect 4 0 2 4;
#X connect 4 0 3 0;
#X connect 5 0 2 0;
#X connect 5 1 6 0;
#X connect 6 0 9 1;
#X connect 7 0 6 2;
#X connect 8 0 7 0;
#X connect 8 0 6 4;
#X connect 9 0 10 0;
#X connect 11 0 0 0;
#X connect 11 0 15 0;
#X connect 12 0 3 1;
#X connect 13 0 7 1;
#X connect 14 0 16 0;
#X connect 15 0 14 0;
#X connect 17 0 15 1;
#X connect 18 0 20 0;
#X connect 19 0 21 0;
#X connect 20 0 17 0;
#X connect 21 0 17 1;
#X connect 22 0 15 0;
#X restore 221 132 pd resize;
#X obj 122 132 s \$0-reset;
#X obj 122 99 trigger bang bang;
#X connect 0 0 3 0;
#X connect 1 0 4 0;
#X connect 2 0 5 0;
#X connect 3 0 8 0;
#X connect 4 0 8 0;
#X connect 5 0 8 0;
#X connect 8 0 7 0;
#X connect 8 1 6 0;
#X restore 159 105 pd size;
#N canvas 651 439 522 342 color 0;
#X obj 273 50 inlet;
#X obj 82 49 inlet;
#X obj 273 171 else/colors -ds;
#X obj 360 235 receive \$0-pointer;
#X obj 273 126 else/setmess rgb;
#X obj 82 127 else/setmess rgb;
#X obj 273 274 set \$0-point fg;
#X obj 106 86 s \$0-set-bg;
#X obj 287 86 s \$0-set-fg;
#X obj 289 203 r \$0-set-fgcolor;
#X obj 82 166 else/colors -gui;
#X obj 82 224 s \$0-bg_cnv;
#X msg 83 196 color \$1;
#X connect 0 0 4 0;
#X connect 0 0 8 0;
#X connect 1 0 5 0;
#X connect 1 0 7 0;
#X connect 2 0 6 0;
#X connect 3 0 6 1;
#X connect 4 0 2 0;
#X connect 5 0 10 0;
#X connect 9 0 6 0;
#X connect 10 0 12 0;
#X connect 12 0 11 0;
#X restore 446 98 pd color;
#N canvas 68 23 450 300 line 0;
#X obj 224 168 s \$0-vis;
#X obj 211 111 != 0;
#X obj 210 195 s \$0-set_line;
#X obj 210 138 change -1;
#X obj 209 82 inlet;
#X connect 1 0 3 0;
#X connect 3 0 0 0;
#X connect 3 0 2 0;
#X connect 4 0 1 0;
#X restore 408 128 pd line;
#N canvas 68 23 450 300 grid 0;
#X obj 211 111 != 0;
#X obj 210 138 change -1;
#X obj 209 82 inlet;
#X obj 224 168 s \$0-grid;
#X obj 210 195 s \$0-set_grid;
#X connect 0 0 1 0;
#X connect 1 0 3 0;
#X connect 1 0 4 0;
#X connect 2 0 0 0;
#X restore 517 151 pd grid;
#X obj 64 65 route list set size xsize ysize range xrange yrange bang
line bgcolor fgcolor grid, f 88;
#X connect 0 0 9 0;
#X connect 9 0 1 0;
#X connect 9 1 1 1;
#X connect 9 2 5 0;
#X connect 9 3 5 1;
#X connect 9 4 5 2;
#X connect 9 5 3 0;
#X connect 9 5 4 0;
#X connect 9 6 3 0;
#X connect 9 7 4 0;
#X connect 9 8 2 0;
#X connect 9 9 7 0;
#X connect 9 10 6 0;
#X connect 9 11 6 1;
#X connect 9 12 8 0;
#X restore 43 63 pd route;
#N canvas 179 121 364 379 xy-out 0;
#X obj 217 310 outlet;
#X obj 122 90 get \$0-point x0 y0, f 12;
#X obj 248 101 r \$0-xsize;
#X obj 122 133 clip 0 127;
#X obj 191 147 clip 0 127;
#X obj 61 24 inlet;
#X obj 122 268 else/changed;
#X obj 61 60 route click change, f 21;
#X obj 191 240 r \$0-changed;
#X obj 217 277 r \$0-output;
#N canvas 128 125 421 435 click 0;
#X msg 59 147 const 0;
#X obj 251 132 r \$0-name1;
#X obj 269 156 r \$0-name2;
#X obj 200 151 array max;
#X obj 172 213 array max;
#X obj 115 147 r \$0-name1;
#X obj 114 176 r \$0-name2;
#X obj 200 173 sel 0;
#X obj 71 177 send;
#X obj 59 202 send, f 7;
#X obj 254 266 swap;
#X msg 172 236 0;
#X obj 217 97 s \$0-changed;
#X obj 60 31 inlet;
#X obj 60 83 trigger bang bang bang;
#X obj 254 326 outlet;
#X msg 217 75 reset;
#X obj 254 293 pack;
#X connect 0 0 8 0;
#X connect 0 0 9 0;
#X connect 1 0 3 2;
#X connect 2 0 4 2;
#X connect 3 0 7 0;
#X connect 3 1 10 1;
#X connect 4 0 11 0;
#X connect 4 1 10 1;
#X connect 5 0 8 1;
#X connect 6 0 9 1;
#X connect 7 0 4 0;
#X connect 7 1 10 0;
#X connect 10 0 17 0;
#X connect 10 1 17 1;
#X connect 11 0 10 0;
#X connect 13 0 14 0;
#X connect 14 0 0 0;
#X connect 14 1 3 0;
#X connect 14 2 16 0;
#X connect 16 0 12 0;
#X connect 17 0 15 0;
#X restore 61 133 pd click;
#N canvas 149 384 556 349 set-coords 0;
#X obj 171 150 s \$0-coords;
#X obj 177 122 set \$0-point x0 y0;
#X obj 282 95 receive \$0-pointer;
#X obj 62 276 outlet;
#X obj 161 67 r \$0-set-coords;
#X obj 74 236 list append 0 0;
#X obj 74 213 r \$0-bang;
#X obj 171 176 r \$0-output;
#X obj 181 201 r \$0-set-output;
#X obj 62 23 inlet;
#X connect 2 0 1 2;
#X connect 4 0 1 0;
#X connect 4 0 0 0;
#X connect 4 0 5 1;
#X connect 5 0 3 0;
#X connect 6 0 5 0;
#X connect 7 0 5 1;
#X connect 8 0 5 1;
#X connect 9 0 1 0;
#X connect 9 0 0 0;
#X connect 9 0 3 0;
#X connect 9 0 5 1;
#X restore 122 212 pd set-coords;
#X obj 248 124 r \$0-ysize;
#X obj 122 178 pack;
#N canvas 470 505 496 317 rescale 0;
#X obj 63 209 pack float float;
#X obj 63 243 outlet;
#X obj 63 46 inlet;
#X obj 324 109 r \$0-ysize;
#X obj 133 112 r \$0-xsize;
#X obj 63 182 else/rescale 0 127 0 127;
#X obj 224 83 r \$0-min-x;
#X obj 239 109 r \$0-max-x;
#X obj 63 83 unpack float float, f 23;
#X obj 254 182 else/rescale 0 127 0 127;
#X obj 359 139 r \$0-min-y;
#X obj 395 159 r \$0-max-y;
#X connect 0 0 1 0;
#X connect 2 0 8 0;
#X connect 3 0 9 2;
#X connect 4 0 5 2;
#X connect 5 0 0 0;
#X connect 6 0 5 3;
#X connect 7 0 5 4;
#X connect 8 0 5 0;
#X connect 8 1 9 0;
#X connect 9 0 0 1;
#X connect 10 0 9 3;
#X connect 11 0 9 4;
#X restore 122 240 pd rescale;
#X connect 1 0 3 0;
#X connect 1 1 4 0;
#X connect 2 0 3 2;
#X connect 3 0 13 0;
#X connect 4 0 13 1;
#X connect 5 0 7 0;
#X connect 6 0 0 0;
#X connect 7 0 10 0;
#X connect 7 1 1 0;
#X connect 8 0 6 1;
#X connect 9 0 0 0;
#X connect 10 0 11 0;
#X connect 11 0 14 0;
#X connect 12 0 4 2;
#X connect 13 0 11 0;
#X connect 14 0 6 0;
#X restore 43 194 pd xy-out;
#X obj 191 101 cnv 15 125 125 empty \$0-bg_cnv empty 20 12 0 14 -262144
-66577 0;
#N canvas 68 445 1192 433 \$0-arrays-cnv 0;
#X restore 190 100 pd \$0-arrays-cnv;
#N canvas 446 63 450 300 \$0-point-cnv 0;
#X restore 190 100 pd \$0-point-cnv;
#X connect 0 0 15 0;
#X connect 1 0 14 0;
#X connect 4 0 7 0;
#X connect 5 0 2 1;
#X connect 10 0 2 0;
#X connect 15 0 6 0;
