#N canvas 623 421 620 299 10;
#N canvas 46 445 1192 433 \$0-arrays-cnv 0;
#X restore 190 100 pd \$0-arrays-cnv;
#N canvas 597 205 581 391 \$0-point 0;
#X obj 49 156 outlet;
#X obj 50 31 struct \$0-point float x0 float y0 float xs float ys;
#X obj 71 73 filledcurve 0 0 8 x0 y0 x0 y0 x0 y0;
#X text 351 148 vertical;
#X text 335 171 horizontal;
#X obj 153 119 r \$0-vis;
#X obj 153 200 == 0;
#X obj 189 149 drawpolygon 0 2 x0 0 x0 ys;
#X obj 170 171 drawpolygon 0 2 0 y0 xs y0;
#X obj 153 228 drawpolygon -n 0 1 0 0 xs 0 xs ys 0 ys 0 0;
#X connect 1 0 0 0;
#X connect 5 0 6 0;
#X connect 5 0 7 0;
#X connect 5 0 8 0;
#X connect 6 0 9 0;
#X restore 43 160 pd \$0-point;
#X obj 43 13 inlet;
#N canvas 589 444 314 227 init 0;
#X obj 47 46 loadbang;
#N canvas 821 77 388 306 draw-point 0;
#X obj 229 113 pointer;
#X obj 60 115 list append 0 0;
#X obj 147 89 r \$0-coords;
#X obj 41 28 inlet;
#X obj 41 243 outlet;
#X obj 139 141 r \$0-xsize;
#X obj 60 190 s \$0-pointer;
#X obj 229 64 else/message traverse pd-\$0-point-cnv \, bang, f 21
;
#X obj 243 140 r \$0-ysize;
#X obj 60 168 append \$0-point x0 y0 xs ys;
#X obj 41 64 t b b b;
#X connect 0 0 9 4;
#X connect 1 0 9 0;
#X connect 2 0 1 1;
#X connect 3 0 10 0;
#X connect 5 0 9 2;
#X connect 7 0 0 0;
#X connect 8 0 9 3;
#X connect 9 0 6 0;
#X connect 10 0 4 0;
#X connect 10 1 1 0;
#X connect 10 2 7 0;
#X restore 137 160 pd draw-point;
#N canvas 628 92 508 241 GOP 0;
#X obj 38 74 f;
#X obj 38 27 inlet;
#X msg 38 123 \; pd-\$3-point-cnv donecanvasdialog 1 -1 3 0 \$2 \$1
0 \$1 \$2 0 0 \; pd-\$3-arrays-cnv donecanvasdialog 1 -1 3 0 \$2 \$1
0 \$1 \$2 100 20 \; pd-\$3-graph1 donecanvasdialog 1 -1 3 0 \$2 \$1
0 \$1 \$2 0 0 \; pd-\$3-graph2 donecanvasdialog 1 -1 3 0 0 \$1 \$2
\$1 \$2 0 0 \; \$3-this-patch donecanvasdialog 1 -1 3 0 \$2 \$1 0 \$1
\$2 190 100 \, dirty 0, f 70;
#X obj 53 52 r \$0-xsize;
#X obj 69 75 r \$0-ysize;
#X obj 38 96 pack f f \$0;
#X connect 0 0 5 0;
#X connect 1 0 0 0;
#X connect 3 0 0 1;
#X connect 4 0 5 1;
#X connect 5 0 2 0;
#X restore 137 182 pd GOP;
#N canvas 497 190 789 510 args-setup 0;
#X obj 55 20 inlet;
#X obj 350 174 max 18;
#X obj 55 466 outlet;
#X obj 180 116 else/args -;
#X obj 55 70 t b b b b;
#N canvas 784 36 534 494 range 0;
#X obj 238 302 unpack;
#X obj 154 247 list;
#X obj 76 188 list length;
#X obj 76 212 sel 2;
#X obj 76 160 trigger list list;
#X obj 104 336 print slider2d;
#X msg 104 303 -range needs 2 floats, f 12;
#X obj 76 76 inlet;
#X obj 238 426 s \$0-min-y;
#X obj 228 447 s \$0-min-x;
#X obj 278 327 s \$0-max-x;
#X obj 271 348 s \$0-max-y;
#X obj 306 281 v max_x_\$0;
#X obj 307 302 v max_y_\$0;
#X obj 256 403 v min_y_\$0;
#X obj 268 380 v min_x_\$0;
#X msg 124 125 0 127;
#X obj 124 102 r \$0-default;
#X connect 0 0 8 0;
#X connect 0 0 9 0;
#X connect 0 0 14 0;
#X connect 0 0 15 0;
#X connect 0 1 10 0;
#X connect 0 1 11 0;
#X connect 0 1 12 0;
#X connect 0 1 13 0;
#X connect 1 0 0 0;
#X connect 2 0 3 0;
#X connect 3 0 1 0;
#X connect 3 1 6 0;
#X connect 4 0 2 0;
#X connect 4 1 1 1;
#X connect 6 0 5 0;
#X connect 7 0 4 0;
#X connect 16 0 4 0;
#X connect 17 0 16 0;
#X restore 448 197 pd range;
#X obj 267 229 list split 2;
#N canvas 171 255 559 444 xrange 0;
#X obj 261 212 unpack;
#X obj 177 157 list;
#X obj 99 98 list length;
#X obj 99 122 sel 2;
#X obj 99 70 trigger list list;
#X obj 127 246 print slider2d;
#X obj 99 40 inlet;
#X obj 294 259 s \$0-max-x;
#X obj 303 239 v max_x_\$0;
#X obj 257 362 v min_x_\$0;
#X msg 127 213 -xrange needs 2 floats, f 14;
#X obj 261 164 r \$0-set-xrange;
#X obj 272 341 s \$0-min-x;
#X msg 284 292 set \$1;
#X msg 318 195 set \$1;
#X obj 284 314 s \$0-set-min-x;
#X obj 318 217 s \$0-set-max-x;
#X connect 0 0 9 0;
#X connect 0 0 12 0;
#X connect 0 0 13 0;
#X connect 0 1 7 0;
#X connect 0 1 8 0;
#X connect 0 1 14 0;
#X connect 1 0 0 0;
#X connect 2 0 3 0;
#X connect 3 0 1 0;
#X connect 3 1 10 0;
#X connect 4 0 2 0;
#X connect 4 1 1 1;
#X connect 6 0 4 0;
#X connect 10 0 5 0;
#X connect 11 0 0 0;
#X connect 13 0 15 0;
#X connect 14 0 16 0;
#X restore 503 297 pd xrange;
#N canvas 112 102 559 444 yrange 0;
#X obj 261 212 unpack;
#X obj 177 157 list;
#X obj 99 98 list length;
#X obj 99 122 sel 2;
#X obj 99 70 trigger list list;
#X obj 127 246 print slider2d;
#X obj 99 40 inlet;
#X obj 261 336 s \$0-min-y;
#X obj 391 259 s \$0-max-y;
#X obj 391 239 v max_y_\$0;
#X obj 279 313 v min_y_\$0;
#X obj 261 164 r \$0-set-yrange;
#X msg 127 213 -yrange needs 2 floats, f 14;
#X msg 289 257 set \$1;
#X msg 390 195 set \$1;
#X obj 390 217 s \$0-set-max-y;
#X obj 289 279 s \$0-set-min-y;
#X connect 0 0 7 0;
#X connect 0 0 10 0;
#X connect 0 0 13 0;
#X connect 0 1 8 0;
#X connect 0 1 9 0;
#X connect 0 1 14 0;
#X connect 1 0 0 0;
#X connect 2 0 3 0;
#X connect 3 0 1 0;
#X connect 3 1 12 0;
#X connect 4 0 2 0;
#X connect 4 1 1 1;
#X connect 6 0 4 0;
#X connect 11 0 0 0;
#X connect 12 0 5 0;
#X connect 13 0 16 0;
#X connect 14 0 15 0;
#X restore 558 274 pd yrange;
#N canvas 459 450 681 347 setargs 0;
#X obj 135 89 r \$0-set_xsize;
#X obj 275 106 unpack;
#X msg 308 132 set \$1;
#X obj 275 82 r \$0-set-xrange;
#X obj 405 112 unpack;
#X msg 438 138 set \$1;
#X obj 405 88 r \$0-set-yrange;
#X obj 278 38 r \$0-set-min-x;
#X obj 297 59 r \$0-set-max-x;
#X obj 403 36 r \$0-set-min-y;
#X obj 430 61 r \$0-set-max-y;
#X obj 193 233 outlet;
#X obj 181 115 r \$0-set_ysize;
#X obj 192 190 else/pack2 127 127 0 127 0 127 1, f 40;
#X obj 468 166 r \$0-set_line;
#X connect 0 0 13 0;
#X connect 1 0 13 2;
#X connect 1 1 2 0;
#X connect 2 0 13 3;
#X connect 3 0 1 0;
#X connect 4 0 13 4;
#X connect 4 1 5 0;
#X connect 5 0 13 5;
#X connect 6 0 4 0;
#X connect 7 0 13 2;
#X connect 8 0 13 3;
#X connect 9 0 13 4;
#X connect 10 0 13 5;
#X connect 12 0 13 1;
#X connect 13 0 11 0;
#X connect 14 0 13 6;
#X restore 180 91 pd setargs;
#X obj 409 304 v height_\$0;
#X obj 399 197 max 18;
#X obj 362 377 v width_\$0;
#X obj 197 284 s \$0-xsize;
#X obj 191 308 v xsize_\$0;
#X obj 235 341 r \$0-name1;
#X obj 248 368 r \$0-name2;
#X obj 178 364 array size;
#X obj 167 390 array size, f 14;
#X obj 167 245 v width_\$0;
#X obj 74 291 v height_\$0;
#X obj 180 181 list split 2;
#X obj 180 212 unpack;
#X obj 180 151 route list, f 11;
#N canvas 68 23 345 299 default 0;
#X obj 137 84 s \$0-default;
#X msg 137 141 127;
#X obj 145 169 v height_\$0;
#X obj 138 195 v width_\$0;
#X obj 137 119 r \$0-default;
#X obj 137 46 inlet;
#X connect 1 0 2 0;
#X connect 1 0 3 0;
#X connect 4 0 1 0;
#X connect 5 0 0 0;
#X restore 180 60 pd default;
#N canvas 206 321 311 294 size 0;
#X obj 91 40 inlet;
#X obj 91 82 max 18;
#X obj 91 204 v height_\$0;
#X obj 68 235 v width_\$0;
#X obj 164 145 s \$0-set_ysize;
#X obj 112 169 s \$0-set_xsize;
#X msg 164 123 set \$1;
#X obj 112 117 t f f;
#X msg 112 145 set \$1;
#X connect 0 0 1 0;
#X connect 1 0 2 0;
#X connect 1 0 3 0;
#X connect 1 0 7 0;
#X connect 6 0 4 0;
#X connect 7 0 8 0;
#X connect 7 1 6 0;
#X connect 8 0 5 0;
#X restore 301 134 pd size;
#X obj 448 147 route -range -xrange -yrange;
#X obj 301 96 route -size -xsize -ysize;
#X obj 87 321 s \$0-ysize;
#X obj 74 346 v ysize_\$0;
#X obj 399 352 s \$0-set_ysize;
#X obj 350 423 s \$0-set_xsize;
#X msg 399 330 set \$1;
#X msg 350 402 set \$1;
#X obj 663 242 route -line;
#X obj 570 247 list split 2;
#X obj 664 283 route float;
#X obj 676 332 s \$0-vis;
#X msg 665 366 set \$1;
#X obj 665 388 s \$0-set_line;
#X obj 664 307 != 0;
#X connect 0 0 4 0;
#X connect 1 0 12 0;
#X connect 1 0 33 0;
#X connect 3 0 23 0;
#X connect 4 0 2 0;
#X connect 4 1 19 0;
#X connect 4 1 20 0;
#X connect 4 2 3 0;
#X connect 4 3 24 0;
#X connect 6 0 7 0;
#X connect 6 1 35 0;
#X connect 9 0 3 0;
#X connect 11 0 10 0;
#X connect 11 0 32 0;
#X connect 15 0 17 1;
#X connect 16 0 18 1;
#X connect 19 0 13 0;
#X connect 19 0 14 0;
#X connect 19 0 17 0;
#X connect 19 0 18 0;
#X connect 20 0 28 0;
#X connect 20 0 29 0;
#X connect 21 0 22 0;
#X connect 21 1 6 0;
#X connect 22 0 1 0;
#X connect 22 1 11 0;
#X connect 23 0 21 0;
#X connect 23 1 27 0;
#X connect 26 0 5 0;
#X connect 26 1 7 0;
#X connect 26 2 8 0;
#X connect 26 3 34 0;
#X connect 27 0 25 0;
#X connect 27 1 1 0;
#X connect 27 2 11 0;
#X connect 27 3 26 0;
#X connect 32 0 30 0;
#X connect 33 0 31 0;
#X connect 34 0 36 0;
#X connect 35 0 8 0;
#X connect 35 1 36 0;
#X connect 36 0 40 0;
#X connect 38 0 39 0;
#X connect 40 0 38 0;
#X connect 40 0 37 0;
#X restore 36 92 pd args-setup;
#X obj 137 75 t b b;
#X obj 156 49 r \$0-reset;
#N canvas 255 23 450 300 cnv 0;
#X obj 151 50 inlet;
#X obj 159 200 outlet;
#X obj 214 124 s \$0-cnv;
#X obj 264 178 cnv 15 64 64 empty \$0-cnv empty 20 12 0 14 -228856
-66577 0;
#X text 261 77 not yet;
#X connect 0 0 1 0;
#X restore 36 118 pd cnv;
#X obj 137 21 inlet;
#N canvas 242 102 511 370 init-arrays 0;
#X obj 79 119 t b b;
#X obj 135 145 s pd-\$0-arrays-cnv;
#X text 170 101 Create graphs;
#X msg 135 123 graph \$1-graph2 \, graph \$1-graph1;
#X obj 79 18 inlet;
#X obj 135 99 f \$0;
#X obj 79 227 t b b;
#X text 289 211 Insert arrays into graphs;
#X obj 79 321 outlet;
#X obj 192 188 r \$0-name1;
#X obj 263 189 r \$0-name2;
#X msg 131 234 \; pd-\$1-graph1 pop \, array \$2 0 float 1 \; pd-\$1-graph2
pop \, array \$3 0 float 1 \;;
#N canvas 295 106 668 461 create-names 0;
#X obj 365 329 s \$0-name2;
#X obj 484 189 t b f;
#X obj 454 233 list split;
#X obj 482 255 list split 1;
#X obj 435 145 t f f;
#X obj 435 167 div 2;
#X obj 484 167 mod 2;
#X msg 454 211 32 160;
#X obj 365 305 list tosymbol;
#X obj 52 406 outlet;
#X obj 54 38 inlet;
#X obj 196 82 expr \$0 * 1000 + 1 \; \$0 * 1000 + 2;
#X obj 435 123 trigger float bang, f 19;
#X obj 482 277 list append, f 15;
#X obj 482 301 trigger list;
#X obj 365 281 list append;
#X obj 365 209 sel 0;
#X obj 245 189 t b f;
#X obj 215 233 list split;
#X obj 243 255 list split 1;
#X obj 196 145 t f f;
#X obj 196 167 div 2;
#X obj 245 167 mod 2;
#X msg 215 211 32 160;
#X obj 126 310 list tosymbol;
#X obj 196 123 trigger float bang, f 19;
#X obj 243 277 list append, f 15;
#X obj 243 301 trigger list;
#X obj 126 281 list append;
#X obj 126 209 sel 0;
#X obj 126 333 s \$0-name1;
#X obj 54 110 trigger bang bang;
#X connect 1 0 7 0;
#X connect 1 1 2 1;
#X connect 2 1 3 0;
#X connect 3 0 13 0;
#X connect 4 0 5 0;
#X connect 4 1 6 0;
#X connect 5 0 16 0;
#X connect 6 0 1 0;
#X connect 7 0 2 0;
#X connect 8 0 0 0;
#X connect 10 0 31 0;
#X connect 11 0 25 0;
#X connect 11 1 12 0;
#X connect 12 0 4 0;
#X connect 12 1 13 1;
#X connect 13 0 14 0;
#X connect 14 0 13 1;
#X connect 14 0 15 1;
#X connect 15 0 8 0;
#X connect 16 0 15 0;
#X connect 16 1 4 0;
#X connect 17 0 23 0;
#X connect 17 1 18 1;
#X connect 18 1 19 0;
#X connect 19 0 26 0;
#X connect 20 0 21 0;
#X connect 20 1 22 0;
#X connect 21 0 29 0;
#X connect 22 0 17 0;
#X connect 23 0 18 0;
#X connect 24 0 30 0;
#X connect 25 0 20 0;
#X connect 25 1 26 1;
#X connect 26 0 27 0;
#X connect 27 0 26 1;
#X connect 27 0 28 1;
#X connect 28 0 24 0;
#X connect 29 0 28 0;
#X connect 29 1 20 0;
#X connect 31 0 9 0;
#X connect 31 1 11 0;
#X restore 79 55 pd create-names;
#X obj 131 213 pack \$0 symbol symbol;
#X connect 0 0 6 0;
#X connect 0 1 5 0;
#X connect 3 0 1 0;
#X connect 4 0 12 0;
#X connect 5 0 3 0;
#X connect 6 0 8 0;
#X connect 6 1 13 0;
#X connect 9 0 13 1;
#X connect 10 0 13 2;
#X connect 12 0 0 0;
#X connect 13 0 11 0;
#X restore 36 70 pd init-arrays;
#X obj 164 123 s pd-\$0-point-cnv;
#X obj 36 22 inlet;
#X msg 164 100 clear;
#X connect 0 0 8 0;
#X connect 1 0 2 0;
#X connect 3 0 6 0;
#X connect 4 0 1 0;
#X connect 4 1 11 0;
#X connect 5 0 4 0;
#X connect 6 0 1 0;
#X connect 7 0 4 0;
#X connect 8 0 3 0;
#X connect 10 0 8 0;
#X connect 11 0 9 0;
#X restore 140 56 pd init;
#X obj 43 101 namecanvas \$0-this-patch, f 13;
#X obj 230 30 bng 15 250 50 0 empty empty empty 17 7 0 10 -262144 -1
-1;
#X obj 179 35 bng 15 250 50 0 empty empty empty 17 7 0 10 -262144 -1
-1;
#X obj 43 242 outlet;
#N canvas 115 204 614 250 clear 0;
#X obj 78 17 inlet;
#X obj 78 176 s pd-\$0-arrays-cnv;
#X obj 90 154 s pd-\$0-point-cnv;
#X msg 78 126 clear \, donecanvasdialog 1 -1 0 0 0 0 0 0 0 0 0;
#X text 221 175 <= just arrays need to be cleared before saving;
#X obj 138 69 s \$0-this-patch;
#X msg 138 48 donecanvasdialog 1 -1 0 0 0 0 0 0 0 0 0;
#X obj 78 63 t b b;
#X text 394 41 totally optional;
#X text 397 54 useful for recreating abstraction in parent, f 21;
#X text 224 153 <= doesn't need to clear before saving either;
#X msg 25 126 clear;
#X connect 0 0 7 0;
#X connect 3 0 1 0;
#X connect 3 0 2 0;
#X connect 6 0 5 0;
#X connect 7 0 3 0;
#X connect 7 1 6 0;
#X connect 11 0 1 0;
#X connect 11 0 2 0;
#X restore 230 50 pd clear;
#X text 389 45 Part of ELSE \; https://github.com/porres/pd-else;
#X text 391 26 Alexandre Torres Porres (2018);
#N canvas 446 63 450 300 \$0-point-cnv 0;
#X restore 190 100 pd \$0-point-cnv;
#X obj 140 36 bng 15 250 50 0 empty empty empty 17 7 0 10 -262144 -1
-1;
#X text 251 31 before saving;
#X text 113 16 re-init;
#X text 165 17 reset;
#N canvas 168 177 649 293 route 0;
#X obj 81 32 inlet;
#N canvas 355 58 379 459 set-size 0;
#X obj 39 27 inlet;
#X obj 39 58 route float;
#X obj 129 408 s \$0-reset;
#X obj 129 181 float;
#X obj 39 151 sel 1;
#X obj 39 81 max 18;
#X obj 163 356 s \$0-set_xsize;
#X obj 146 381 s \$0-resize;
#X msg 224 203 set \$1;
#X obj 224 227 s \$0-set_ysize;
#X obj 224 176 v xsize_\$0;
#X obj 128 208 t b b f f;
#X obj 224 157 s \$0-xsize;
#X obj 245 260 r \$0-name1;
#X obj 260 286 r \$0-name2;
#X obj 188 283 array size;
#X obj 179 308 array size, f 14;
#X obj 225 113 s \$0-ysize;
#X obj 225 132 v ysize_\$0;
#X obj 39 103 expr $f1 != xsize_\$0 || $f1 != ysize_\$0 \; $f1, f
20;
#X connect 0 0 1 0;
#X connect 1 0 5 0;
#X connect 3 0 11 0;
#X connect 4 0 3 0;
#X connect 5 0 19 0;
#X connect 8 0 9 0;
#X connect 11 0 2 0;
#X connect 11 1 7 0;
#X connect 11 2 6 0;
#X connect 11 3 8 0;
#X connect 11 3 10 0;
#X connect 11 3 16 0;
#X connect 11 3 15 0;
#X connect 11 3 18 0;
#X connect 11 3 12 0;
#X connect 11 3 17 0;
#X connect 13 0 15 1;
#X connect 14 0 16 1;
#X connect 19 0 4 0;
#X connect 19 1 3 1;
#X restore 155 233 pd set-size;
#N canvas 300 452 636 353 coords 0;
#X obj 168 110 unpack;
#X obj 377 156 clip 0 127;
#X obj 168 155 clip 0 127;
#X obj 78 260 s \$0-output;
#N canvas 382 436 551 248 resize 0;
#X obj 74 35 r \$0-resize;
#X obj 74 162 list append 0 0;
#X obj 161 129 pack;
#X obj 161 35 r \$0-coords;
#X obj 74 197 outlet;
#X obj 440 130 v range_y_\$0;
#X obj 347 131 v range_x_\$0;
#X obj 161 61 expr (($f1 / xsize_\$0) * range_x_\$0) + min_x_\$0 \;
(($f2 / ysize_\$0) * range_y_\$0) + min_y_\$0 \; max_x_\$0 - min_x_\$0
\; max_y_\$0 - min_y_\$0;
#X connect 0 0 1 0;
#X connect 1 0 4 0;
#X connect 2 0 1 1;
#X connect 3 0 7 0;
#X connect 7 0 2 0;
#X connect 7 1 2 1;
#X connect 7 2 6 0;
#X connect 7 3 5 0;
#X restore 187 77 pd resize;
#X obj 78 32 inlet;
#X obj 141 32 inlet;
#X obj 356 296 s \$0-set-coords;
#X obj 356 269 pack;
#X obj 265 77 r \$0-min-x;
#X obj 340 77 r \$0-max-x;
#X obj 399 123 r \$0-min-y;
#X obj 451 153 r \$0-max-y;
#X obj 377 225 else/rescale 0 0 0 0;
#X obj 236 225 else/rescale 0 0 0 0;
#X obj 78 79 t l l;
#X obj 94 222 s \$0-set-output;
#X obj 141 79 t l l;
#X obj 369 194 r \$0-xsize;
#X obj 494 192 r \$0-ysize;
#X connect 0 0 2 0;
#X connect 0 1 1 0;
#X connect 1 0 13 0;
#X connect 2 0 14 0;
#X connect 4 0 0 0;
#X connect 5 0 15 0;
#X connect 6 0 17 0;
#X connect 8 0 7 0;
#X connect 9 0 2 1;
#X connect 9 0 14 1;
#X connect 10 0 2 2;
#X connect 10 0 14 2;
#X connect 11 0 1 1;
#X connect 11 0 13 1;
#X connect 12 0 1 2;
#X connect 12 0 13 2;
#X connect 13 0 8 1;
#X connect 14 0 8 0;
#X connect 15 0 3 0;
#X connect 15 1 0 0;
#X connect 17 0 16 0;
#X connect 17 1 0 0;
#X connect 18 0 14 4;
#X connect 19 0 13 4;
#X restore 67 136 pd coords;
#N canvas 178 30 284 204 bang 0;
#X obj 69 33 inlet;
#X obj 68 121 s \$0-bang;
#X obj 143 131 s \$0-changed;
#X obj 69 79 t b b;
#X msg 143 109 reset;
#X connect 0 0 3 0;
#X connect 3 0 1 0;
#X connect 3 1 4 0;
#X connect 4 0 2 0;
#X restore 377 94 pd bang;
#X obj 303 150 s \$0-set-xrange;
#X obj 340 120 s \$0-set-yrange;
#N canvas 591 225 514 321 set-xsize 0;
#X obj 85 25 inlet;
#X obj 85 56 route float;
#X obj 181 259 s \$0-reset;
#X obj 181 162 float;
#X obj 85 134 sel 1;
#X obj 85 79 max 18;
#X obj 85 101 expr $f1 != xsize_\$0 \; $f1;
#X obj 312 233 s \$0-set_xsize;
#X obj 200 232 s \$0-resize;
#X obj 312 208 v xsize_\$0;
#X obj 313 187 s \$0-xsize;
#X obj 373 110 r \$0-name1;
#X obj 386 137 r \$0-name2;
#X obj 316 133 array size;
#X obj 305 159 array size, f 14;
#X obj 181 189 t b b f;
#X connect 0 0 1 0;
#X connect 1 0 5 0;
#X connect 3 0 15 0;
#X connect 4 0 3 0;
#X connect 5 0 6 0;
#X connect 6 0 4 0;
#X connect 6 1 3 1;
#X connect 11 0 13 1;
#X connect 12 0 14 1;
#X connect 15 0 2 0;
#X connect 15 1 8 0;
#X connect 15 2 7 0;
#X connect 15 2 10 0;
#X connect 15 2 14 0;
#X connect 15 2 13 0;
#X connect 15 2 9 0;
#X restore 192 204 pd set-xsize;
#N canvas 749 320 401 401 set-ysize 0;
#X obj 72 25 inlet;
#X obj 72 56 route float;
#X obj 169 326 s \$0-reset;
#X obj 168 159 float;
#X obj 72 134 sel 1;
#X obj 72 79 max 18;
#X obj 72 101 expr $f1 != xsize_\$0 \; $f1;
#X obj 186 299 s \$0-resize;
#X obj 233 188 v ysize_\$0;
#X obj 220 216 s \$0-ysize;
#X obj 207 250 s \$0-set_ysize;
#X obj 168 186 t b b f;
#X connect 0 0 1 0;
#X connect 1 0 5 0;
#X connect 3 0 11 0;
#X connect 4 0 3 0;
#X connect 5 0 6 0;
#X connect 6 0 4 0;
#X connect 6 1 3 1;
#X connect 11 0 2 0;
#X connect 11 1 7 0;
#X connect 11 2 9 0;
#X connect 11 2 10 0;
#X connect 11 2 8 0;
#X restore 229 176 pd set-ysize;
#X obj 475 167 s \$0-vis;
#X obj 81 66 route list set size xsize ysize range xrange yrange bang
line, f 63;
#X obj 461 111 != 0;
#X obj 461 200 s \$0-set_line;
#X obj 461 139 change -1;
#X connect 0 0 9 0;
#X connect 9 0 2 0;
#X connect 9 1 2 1;
#X connect 9 2 1 0;
#X connect 9 3 6 0;
#X connect 9 4 7 0;
#X connect 9 5 4 0;
#X connect 9 5 5 0;
#X connect 9 6 4 0;
#X connect 9 7 5 0;
#X connect 9 8 3 0;
#X connect 9 9 10 0;
#X connect 10 0 12 0;
#X connect 12 0 8 0;
#X connect 12 0 11 0;
#X restore 43 63 pd route;
#N canvas 161 215 375 455 xy-out 0;
#X obj 57 335 outlet;
#X obj 149 100 get \$0-point x0 y0, f 12;
#X obj 275 111 r \$0-xsize;
#X obj 149 143 clip 0 127;
#X obj 218 157 clip 0 127;
#X obj 88 34 inlet;
#X obj 58 271 else/changed;
#X obj 88 70 route click change, f 21;
#X obj 127 248 r \$0-changed;
#X obj 75 302 r \$0-output;
#N canvas 128 125 421 435 click 0;
#X msg 59 147 const 0;
#X obj 251 132 r \$0-name1;
#X obj 269 156 r \$0-name2;
#X obj 200 151 array max;
#X obj 172 213 array max;
#X obj 115 147 r \$0-name1;
#X obj 114 176 r \$0-name2;
#X obj 200 173 sel 0;
#X obj 71 177 send;
#X obj 59 202 send, f 7;
#X obj 254 266 swap;
#X msg 172 236 0;
#X obj 217 97 s \$0-changed;
#X obj 60 31 inlet;
#X obj 60 83 trigger bang bang bang;
#X obj 275 361 outlet;
#X obj 225 361 outlet;
#X msg 217 75 reset;
#X connect 0 0 8 0;
#X connect 0 0 9 0;
#X connect 1 0 3 2;
#X connect 2 0 4 2;
#X connect 3 0 7 0;
#X connect 3 1 10 1;
#X connect 4 0 11 0;
#X connect 4 1 10 1;
#X connect 5 0 8 1;
#X connect 6 0 9 1;
#X connect 7 0 4 0;
#X connect 7 1 10 0;
#X connect 10 0 16 0;
#X connect 10 1 15 0;
#X connect 11 0 10 0;
#X connect 13 0 14 0;
#X connect 14 0 0 0;
#X connect 14 1 3 0;
#X connect 14 2 17 0;
#X connect 17 0 12 0;
#X restore 88 128 pd click;
#N canvas 313 330 496 317 set-range 0;
#X obj 63 209 pack float float;
#X obj 63 182 else/rescale;
#X obj 210 182 else/rescale;
#X obj 63 243 outlet;
#X obj 63 46 inlet;
#X obj 244 137 r \$0-min-y;
#X obj 279 157 r \$0-max-y;
#X obj 255 77 r \$0-min-x;
#X obj 255 100 r \$0-max-x;
#X obj 63 83 expr $f1 * 127 / xsize_\$0 \; $f2 * 127 / ysize_\$0 \;
;
#X connect 0 0 3 0;
#X connect 1 0 0 0;
#X connect 2 0 0 1;
#X connect 4 0 9 0;
#X connect 5 0 2 1;
#X connect 6 0 2 2;
#X connect 7 0 1 1;
#X connect 8 0 1 2;
#X connect 9 0 1 0;
#X connect 9 1 2 0;
#X restore 58 213 pd set-range;
#N canvas 735 447 496 345 set-coords 0;
#X obj 66 79 pack float float;
#X obj 187 236 s \$0-coords;
#X obj 203 208 set \$0-point x0 y0;
#X obj 308 181 receive \$0-pointer;
#X obj 67 33 inlet;
#X obj 159 33 inlet;
#X obj 66 302 outlet;
#X obj 187 93 r \$0-set-coords;
#X obj 78 262 list append 0 0;
#X obj 78 239 r \$0-bang;
#X obj 187 262 r \$0-output;
#X obj 187 287 r \$0-set-output;
#X connect 0 0 2 0;
#X connect 0 0 1 0;
#X connect 0 0 6 0;
#X connect 0 0 8 1;
#X connect 3 0 2 2;
#X connect 4 0 0 0;
#X connect 5 0 0 1;
#X connect 7 0 2 0;
#X connect 7 0 1 0;
#X connect 7 0 8 1;
#X connect 8 0 6 0;
#X connect 9 0 8 0;
#X connect 10 0 8 1;
#X connect 11 0 8 1;
#X restore 58 173 pd set-coords;
#X obj 275 134 r \$0-ysize;
#X connect 1 0 3 0;
#X connect 1 1 4 0;
#X connect 2 0 3 2;
#X connect 3 0 12 0;
#X connect 4 0 12 1;
#X connect 5 0 7 0;
#X connect 6 0 0 0;
#X connect 7 0 10 0;
#X connect 7 1 1 0;
#X connect 8 0 6 1;
#X connect 9 0 0 0;
#X connect 10 0 12 0;
#X connect 10 1 12 1;
#X connect 11 0 6 0;
#X connect 12 0 11 0;
#X connect 13 0 4 2;
#X restore 43 194 pd xy-out;
#X connect 1 0 17 0;
#X connect 2 0 16 0;
#X connect 5 0 8 0;
#X connect 6 0 3 1;
#X connect 12 0 3 0;
#X connect 17 0 7 0;
