#N canvas 552 321 620 299 10;
#N canvas 46 445 1192 433 \$0-arrays-cnv 0;
#X restore 190 100 pd \$0-arrays-cnv;
#N canvas 657 139 355 216 \$0-point 0;
#X obj 97 61 filledcurve 0 0 8 x0 y0 x0 y0 x0 y0;
#X obj 53 31 struct \$0-point float x0 float y0 float s;
#X obj 53 146 outlet;
#X obj 97 86 drawpolygon 0 2 x0 0 x0 s;
#X obj 97 111 drawpolygon 0 2 0 y0 s y0;
#X connect 1 0 2 0;
#X restore 43 160 pd \$0-point;
#X obj 43 13 inlet;
#N canvas 409 413 301 229 init 0;
#X obj 42 46 loadbang;
#N canvas 876 66 518 433 draw-point 0;
#X msg 301 157 traverse \$1 \, bang;
#X obj 300 184 pointer;
#X obj 301 135 symbol pd-\$0-point-cnv;
#X obj 120 168 list append 0 0;
#X obj 221 166 r \$0-coords;
#X obj 56 75 inlet;
#X obj 56 290 outlet;
#X obj 121 196 list append;
#X obj 202 196 r \$0-size;
#X obj 121 225 append \$0-point x0 y0 s;
#X obj 56 141 trigger bang bang bang;
#X obj 121 247 s \$0-pointer;
#X connect 0 0 1 0;
#X connect 1 0 9 3;
#X connect 2 0 0 0;
#X connect 3 0 7 0;
#X connect 4 0 3 1;
#X connect 5 0 10 0;
#X connect 7 0 9 0;
#X connect 8 0 7 1;
#X connect 9 0 11 0;
#X connect 10 0 6 0;
#X connect 10 1 3 0;
#X connect 10 2 2 0;
#X restore 31 160 pd draw-point;
#N canvas 662 160 495 242 GOP 0;
#X obj 34 73 f;
#X obj 49 51 r \$0-width;
#X obj 65 73 r \$0-height;
#X obj 33 26 inlet;
#X obj 34 95 pack f f \$0;
#X msg 34 118 \; pd-\$3-point-cnv donecanvasdialog 1 -1 3 0 \$2 \$1
0 \$1 \$2 0 0 \; pd-\$3-arrays-cnv donecanvasdialog 1 -1 3 0 \$2 \$1
0 \$1 \$2 100 20 \; pd-\$3-graph1 donecanvasdialog 1 -1 3 0 \$2 \$1
0 \$1 \$2 0 0 \; pd-\$3-graph2 donecanvasdialog 1 -1 3 0 0 \$1 \$2
\$1 \$2 0 0 \; \$3-this-patch donecanvasdialog 1 -1 3 0 \$2 \$1 0 \$1
\$2 190 100 \, dirty 0, f 70;
#X connect 0 0 4 0;
#X connect 1 0 0 1;
#X connect 2 0 4 1;
#X connect 3 0 0 0;
#X connect 4 0 5 0;
#X restore 31 182 pd GOP;
#N canvas 551 53 567 649 args-setup 0;
#X obj 66 26 inlet;
#X obj 204 258 max 18;
#X msg 159 258 127;
#X obj 75 575 outlet;
#X msg 117 258 0 127;
#X obj 367 518 s \$0-height;
#X obj 400 438 s \$0-size;
#X obj 394 457 v size_\$0;
#X obj 387 476 s \$0-width;
#X obj 379 496 v width_\$0;
#X obj 264 464 r \$0-name1;
#X obj 277 491 r \$0-name2;
#X obj 207 487 array size;
#X obj 196 513 array size, f 14;
#X obj 196 464 v width_\$0;
#X obj 196 386 r \$0-setsize;
#X obj 196 415 trigger bang float, f 30;
#X obj 295 225 list split 1;
#X obj 132 385 float;
#X obj 162 165 else/args -;
#X obj 66 129 t b b b b;
#N canvas 478 82 559 444 range 0;
#X obj 261 212 unpack;
#X obj 177 157 list;
#X obj 99 98 list length;
#X obj 99 122 sel 2;
#X obj 99 70 trigger list list;
#X obj 127 246 print slider2d;
#X msg 127 213 -range needs 2 floats, f 12;
#X obj 99 40 inlet;
#X obj 261 336 s \$0-min-y;
#X obj 251 357 s \$0-min-x;
#X obj 301 237 s \$0-max-x;
#X obj 294 258 s \$0-max-y;
#X obj 329 191 v max_x_\$0;
#X obj 330 212 v max_y_\$0;
#X obj 279 313 v min_y_\$0;
#X obj 291 290 v min_x_\$0;
#X connect 0 0 8 0;
#X connect 0 0 9 0;
#X connect 0 0 14 0;
#X connect 0 0 15 0;
#X connect 0 1 10 0;
#X connect 0 1 11 0;
#X connect 0 1 12 0;
#X connect 0 1 13 0;
#X connect 1 0 0 0;
#X connect 2 0 3 0;
#X connect 3 0 1 0;
#X connect 3 1 6 0;
#X connect 4 0 2 0;
#X connect 4 1 1 1;
#X connect 6 0 5 0;
#X connect 7 0 4 0;
#X restore 247 317 pd range;
#X obj 329 269 list split 2;
#N canvas 171 255 559 444 xrange 0;
#X obj 261 212 unpack;
#X obj 177 157 list;
#X obj 99 98 list length;
#X obj 99 122 sel 2;
#X obj 99 70 trigger list list;
#X obj 127 246 print slider2d;
#X obj 99 40 inlet;
#X obj 294 259 s \$0-max-x;
#X obj 303 239 v max_x_\$0;
#X obj 257 362 v min_x_\$0;
#X msg 127 213 -xrange needs 2 floats, f 14;
#X obj 261 164 r \$0-set-xrange;
#X obj 272 341 s \$0-min-x;
#X msg 284 292 set \$1;
#X msg 318 195 set \$1;
#X obj 284 314 s \$0-set-min-x;
#X obj 318 217 s \$0-set-max-x;
#X connect 0 0 9 0;
#X connect 0 0 12 0;
#X connect 0 0 13 0;
#X connect 0 1 7 0;
#X connect 0 1 8 0;
#X connect 0 1 14 0;
#X connect 1 0 0 0;
#X connect 2 0 3 0;
#X connect 3 0 1 0;
#X connect 3 1 10 0;
#X connect 4 0 2 0;
#X connect 4 1 1 1;
#X connect 6 0 4 0;
#X connect 10 0 5 0;
#X connect 11 0 0 0;
#X connect 13 0 15 0;
#X connect 14 0 16 0;
#X restore 341 338 pd xrange;
#N canvas 478 82 559 444 yrange 0;
#X obj 261 212 unpack;
#X obj 177 157 list;
#X obj 99 98 list length;
#X obj 99 122 sel 2;
#X obj 99 70 trigger list list;
#X obj 127 246 print slider2d;
#X obj 99 40 inlet;
#X obj 261 336 s \$0-min-y;
#X obj 391 259 s \$0-max-y;
#X obj 391 239 v max_y_\$0;
#X obj 279 313 v min_y_\$0;
#X obj 261 164 r \$0-set-yrange;
#X msg 127 213 -yrange needs 2 floats, f 14;
#X msg 289 257 set \$1;
#X msg 390 195 set \$1;
#X obj 289 279 s \$0-set-min-x;
#X obj 390 217 s \$0-set-max-x;
#X connect 0 0 7 0;
#X connect 0 0 10 0;
#X connect 0 0 13 0;
#X connect 0 1 8 0;
#X connect 0 1 9 0;
#X connect 0 1 14 0;
#X connect 1 0 0 0;
#X connect 2 0 3 0;
#X connect 3 0 1 0;
#X connect 3 1 12 0;
#X connect 4 0 2 0;
#X connect 4 1 1 1;
#X connect 6 0 4 0;
#X connect 11 0 0 0;
#X connect 12 0 5 0;
#X connect 13 0 15 0;
#X connect 14 0 16 0;
#X restore 386 307 pd yrange;
#X obj 162 199 route float -size -range list -xrange -yrange;
#X msg 401 383 set \$1;
#X obj 401 406 s \$0-setsize-arg;
#N canvas 713 247 588 267 setargs 0;
#X obj 151 114 r \$0-setsize;
#X obj 235 114 unpack;
#X msg 268 140 set \$1;
#X obj 192 166 else/pack2 127 0 127 0 127;
#X obj 235 90 r \$0-set-xrange;
#X obj 344 114 unpack;
#X msg 377 140 set \$1;
#X obj 344 90 r \$0-set-yrange;
#X obj 238 46 r \$0-set-min-x;
#X obj 257 67 r \$0-set-max-x;
#X obj 363 44 r \$0-set-min-y;
#X obj 382 65 r \$0-set-max-y;
#X obj 74 84 r \$0-setsize-arg;
#X obj 193 209 outlet;
#X connect 0 0 3 0;
#X connect 1 0 3 1;
#X connect 1 1 2 0;
#X connect 2 0 3 2;
#X connect 3 0 13 0;
#X connect 4 0 1 0;
#X connect 5 0 3 3;
#X connect 5 1 6 0;
#X connect 6 0 3 4;
#X connect 7 0 5 0;
#X connect 8 0 3 1;
#X connect 9 0 3 2;
#X connect 10 0 3 3;
#X connect 11 0 3 4;
#X connect 12 0 3 0;
#X restore 162 140 pd setargs;
#X connect 0 0 20 0;
#X connect 1 0 18 1;
#X connect 2 0 18 1;
#X connect 4 0 21 0;
#X connect 10 0 12 1;
#X connect 11 0 13 1;
#X connect 14 0 12 0;
#X connect 14 0 13 0;
#X connect 15 0 16 0;
#X connect 16 0 14 0;
#X connect 16 1 6 0;
#X connect 16 1 7 0;
#X connect 16 1 8 0;
#X connect 16 1 9 0;
#X connect 16 1 5 0;
#X connect 16 1 26 0;
#X connect 17 0 1 0;
#X connect 17 1 22 0;
#X connect 18 0 16 0;
#X connect 19 0 25 0;
#X connect 20 0 3 0;
#X connect 20 1 18 0;
#X connect 20 2 19 0;
#X connect 20 3 2 0;
#X connect 20 3 4 0;
#X connect 22 0 23 0;
#X connect 22 1 24 0;
#X connect 25 0 1 0;
#X connect 25 1 1 0;
#X connect 25 2 21 0;
#X connect 25 3 17 0;
#X connect 25 4 23 0;
#X connect 25 5 24 0;
#X connect 26 0 27 0;
#X connect 28 0 19 0;
#X restore 31 92 pd args-setup;
#X obj 132 118 t b b;
#X obj 151 92 r \$0-reset;
#N canvas 255 23 450 300 cnv 0;
#X obj 151 50 inlet;
#X obj 159 200 outlet;
#X obj 214 124 s \$0-cnv;
#X obj 264 178 cnv 15 64 64 empty \$0-cnv empty 20 12 0 14 -228856
-66577 0;
#X text 261 77 not yet;
#X connect 0 0 1 0;
#X restore 31 118 pd cnv;
#X obj 132 21 inlet;
#N canvas 242 102 511 370 init-arrays 0;
#X obj 79 119 t b b;
#X obj 135 145 s pd-\$0-arrays-cnv;
#X text 170 101 Create graphs;
#X msg 135 123 graph \$1-graph2 \, graph \$1-graph1;
#X obj 79 18 inlet;
#X obj 135 99 f \$0;
#X obj 79 227 t b b;
#X text 289 211 Insert arrays into graphs;
#X obj 79 321 outlet;
#X obj 192 188 r \$0-name1;
#X obj 263 189 r \$0-name2;
#X msg 131 234 \; pd-\$1-graph1 pop \, array \$2 0 float 1 \; pd-\$1-graph2
pop \, array \$3 0 float 1 \;;
#N canvas 295 106 668 461 create-names 0;
#X obj 365 329 s \$0-name2;
#X obj 484 189 t b f;
#X obj 454 233 list split;
#X obj 482 255 list split 1;
#X obj 435 145 t f f;
#X obj 435 167 div 2;
#X obj 484 167 mod 2;
#X msg 454 211 32 160;
#X obj 365 305 list tosymbol;
#X obj 52 406 outlet;
#X obj 54 38 inlet;
#X obj 196 82 expr \$0 * 1000 + 1 \; \$0 * 1000 + 2;
#X obj 435 123 trigger float bang, f 19;
#X obj 482 277 list append, f 15;
#X obj 482 301 trigger list;
#X obj 365 281 list append;
#X obj 365 209 sel 0;
#X obj 245 189 t b f;
#X obj 215 233 list split;
#X obj 243 255 list split 1;
#X obj 196 145 t f f;
#X obj 196 167 div 2;
#X obj 245 167 mod 2;
#X msg 215 211 32 160;
#X obj 126 310 list tosymbol;
#X obj 196 123 trigger float bang, f 19;
#X obj 243 277 list append, f 15;
#X obj 243 301 trigger list;
#X obj 126 281 list append;
#X obj 126 209 sel 0;
#X obj 126 333 s \$0-name1;
#X obj 54 110 trigger bang bang;
#X connect 1 0 7 0;
#X connect 1 1 2 1;
#X connect 2 1 3 0;
#X connect 3 0 13 0;
#X connect 4 0 5 0;
#X connect 4 1 6 0;
#X connect 5 0 16 0;
#X connect 6 0 1 0;
#X connect 7 0 2 0;
#X connect 8 0 0 0;
#X connect 10 0 31 0;
#X connect 11 0 25 0;
#X connect 11 1 12 0;
#X connect 12 0 4 0;
#X connect 12 1 13 1;
#X connect 13 0 14 0;
#X connect 14 0 13 1;
#X connect 14 0 15 1;
#X connect 15 0 8 0;
#X connect 16 0 15 0;
#X connect 16 1 4 0;
#X connect 17 0 23 0;
#X connect 17 1 18 1;
#X connect 18 1 19 0;
#X connect 19 0 26 0;
#X connect 20 0 21 0;
#X connect 20 1 22 0;
#X connect 21 0 29 0;
#X connect 22 0 17 0;
#X connect 23 0 18 0;
#X connect 24 0 30 0;
#X connect 25 0 20 0;
#X connect 25 1 26 1;
#X connect 26 0 27 0;
#X connect 27 0 26 1;
#X connect 27 0 28 1;
#X connect 28 0 24 0;
#X connect 29 0 28 0;
#X connect 29 1 20 0;
#X connect 31 0 9 0;
#X connect 31 1 11 0;
#X restore 79 55 pd create-names;
#X obj 131 213 pack \$0 symbol symbol;
#X connect 0 0 6 0;
#X connect 0 1 5 0;
#X connect 3 0 1 0;
#X connect 4 0 12 0;
#X connect 5 0 3 0;
#X connect 6 0 8 0;
#X connect 6 1 13 0;
#X connect 9 0 13 1;
#X connect 10 0 13 2;
#X connect 12 0 0 0;
#X connect 13 0 11 0;
#X restore 31 70 pd init-arrays;
#X obj 159 166 s pd-\$0-point-cnv;
#X obj 31 22 inlet;
#X msg 159 143 clear;
#X connect 0 0 8 0;
#X connect 1 0 2 0;
#X connect 3 0 6 0;
#X connect 4 0 1 0;
#X connect 4 1 11 0;
#X connect 5 0 4 0;
#X connect 6 0 1 0;
#X connect 7 0 4 0;
#X connect 8 0 3 0;
#X connect 10 0 8 0;
#X connect 11 0 9 0;
#X restore 140 56 pd init;
#X obj 43 101 namecanvas \$0-this-patch, f 13;
#X obj 230 30 bng 15 250 50 0 empty empty empty 17 7 0 10 -262144 -1
-1;
#X obj 179 35 bng 15 250 50 0 empty empty empty 17 7 0 10 -262144 -1
-1;
#X obj 43 242 outlet;
#N canvas 115 204 614 250 clear 0;
#X obj 78 17 inlet;
#X obj 78 176 s pd-\$0-arrays-cnv;
#X obj 90 154 s pd-\$0-point-cnv;
#X msg 78 126 clear \, donecanvasdialog 1 -1 0 0 0 0 0 0 0 0 0;
#X text 221 175 <= just arrays need to be cleared before saving;
#X obj 138 69 s \$0-this-patch;
#X msg 138 48 donecanvasdialog 1 -1 0 0 0 0 0 0 0 0 0;
#X obj 78 63 t b b;
#X text 394 41 totally optional;
#X text 397 54 useful for recreating abstraction in parent, f 21;
#X text 224 153 <= doesn't need to clear before saving either;
#X msg 25 126 clear;
#X connect 0 0 7 0;
#X connect 3 0 1 0;
#X connect 3 0 2 0;
#X connect 6 0 5 0;
#X connect 7 0 3 0;
#X connect 7 1 6 0;
#X connect 11 0 1 0;
#X connect 11 0 2 0;
#X restore 230 50 pd clear;
#X text 389 45 Part of ELSE \; https://github.com/porres/pd-else;
#X text 391 26 Alexandre Torres Porres (2018);
#N canvas 446 63 450 300 \$0-point-cnv 0;
#X restore 190 100 pd \$0-point-cnv;
#X obj 140 36 bng 15 250 50 0 empty empty empty 17 7 0 10 -262144 -1
-1;
#X text 251 31 before saving;
#X text 113 16 re-init;
#X text 165 17 reset;
#N canvas 168 177 422 260 route 0;
#X obj 81 32 inlet;
#N canvas 731 145 279 398 set-size 0;
#X obj 68 39 inlet;
#X obj 68 97 route float;
#X obj 68 308 s \$0-reset;
#X obj 68 200 float;
#X obj 68 175 sel 1;
#X obj 68 120 max 18;
#X obj 68 142 expr $f1 != size_\$0 \; $f1;
#X obj 68 227 t b b f;
#X obj 107 254 s \$0-setsize;
#X obj 87 276 s \$0-resize;
#X connect 0 0 1 0;
#X connect 1 0 5 0;
#X connect 3 0 7 0;
#X connect 4 0 3 0;
#X connect 5 0 6 0;
#X connect 6 0 4 0;
#X connect 6 1 3 1;
#X connect 7 0 2 0;
#X connect 7 1 9 0;
#X connect 7 2 8 0;
#X restore 155 190 pd set-size;
#N canvas 251 142 636 353 coords 0;
#X obj 217 106 unpack;
#X obj 426 152 clip 0 127;
#X obj 217 151 clip 0 127;
#X obj 127 256 s \$0-output;
#N canvas 113 353 551 248 resize 0;
#X obj 74 35 r \$0-resize;
#X obj 74 162 list append 0 0;
#X obj 161 129 pack;
#X obj 161 35 r \$0-coords;
#X obj 74 197 outlet;
#X obj 440 130 v range_y_\$0;
#X obj 347 131 v range_x_\$0;
#X obj 161 61 expr (($f1 / size_\$0) * range_x_\$0) + min_x_\$0 \;
(($f2 / size_\$0) * range_y_\$0) + min_y_\$0 \; max_x_\$0 - min_y_\$0
\; max_x_\$0 - min_y_\$0;
#X connect 0 0 1 0;
#X connect 1 0 4 0;
#X connect 2 0 1 1;
#X connect 3 0 7 0;
#X connect 7 0 2 0;
#X connect 7 1 2 1;
#X connect 7 2 6 0;
#X connect 7 3 5 0;
#X restore 235 73 pd resize;
#X obj 127 28 inlet;
#X obj 190 28 inlet;
#X obj 405 292 s \$0-set-coords;
#X obj 405 265 pack;
#X obj 314 73 r \$0-min-x;
#X obj 389 73 r \$0-max-x;
#X obj 448 119 r \$0-min-y;
#X obj 500 149 r \$0-max-y;
#X obj 543 188 r \$0-size;
#X obj 426 221 else/rescale 0 0 0 0;
#X obj 285 221 else/rescale 0 0 0 0;
#X obj 127 75 t l l;
#X obj 143 218 s \$0-set-output;
#X obj 190 75 t l l;
#X connect 0 0 2 0;
#X connect 0 1 1 0;
#X connect 1 0 14 0;
#X connect 2 0 15 0;
#X connect 4 0 0 0;
#X connect 5 0 16 0;
#X connect 6 0 18 0;
#X connect 8 0 7 0;
#X connect 9 0 2 1;
#X connect 9 0 15 1;
#X connect 10 0 2 2;
#X connect 10 0 15 2;
#X connect 11 0 1 1;
#X connect 11 0 14 1;
#X connect 12 0 1 2;
#X connect 12 0 14 2;
#X connect 13 0 14 4;
#X connect 13 0 15 4;
#X connect 14 0 8 1;
#X connect 15 0 8 0;
#X connect 16 0 3 0;
#X connect 16 1 0 0;
#X connect 18 0 17 0;
#X connect 18 1 0 0;
#X restore 67 136 pd coords;
#X obj 81 66 route list set size range xrange yrange bang;
#N canvas 178 30 284 204 bang 0;
#X obj 69 33 inlet;
#X obj 68 121 s \$0-bang;
#X obj 143 131 s \$0-changed;
#X obj 69 79 t b b;
#X msg 143 109 reset;
#X connect 0 0 3 0;
#X connect 3 0 1 0;
#X connect 3 1 4 0;
#X connect 4 0 2 0;
#X restore 304 94 pd bang;
#X obj 230 143 s \$0-set-xrange;
#X obj 267 118 s \$0-set-yrange;
#X connect 0 0 3 0;
#X connect 3 0 2 0;
#X connect 3 1 2 1;
#X connect 3 2 1 0;
#X connect 3 3 5 0;
#X connect 3 3 6 0;
#X connect 3 4 5 0;
#X connect 3 5 6 0;
#X connect 3 6 4 0;
#X restore 43 64 pd route;
#N canvas 161 215 375 455 xy-out 0;
#X obj 57 335 outlet;
#X obj 149 100 get \$0-point x0 y0, f 12;
#X obj 275 116 r \$0-size;
#X obj 149 143 clip 0 127;
#X obj 218 151 clip 0 127;
#X obj 88 34 inlet;
#X obj 58 271 else/changed;
#X obj 88 70 route click change, f 21;
#X obj 127 248 r \$0-changed;
#X obj 75 302 r \$0-output;
#N canvas 128 125 421 435 click 0;
#X msg 59 147 const 0;
#X obj 251 132 r \$0-name1;
#X obj 269 156 r \$0-name2;
#X obj 200 151 array max;
#X obj 172 213 array max;
#X obj 115 147 r \$0-name1;
#X obj 114 176 r \$0-name2;
#X obj 200 173 sel 0;
#X obj 71 177 send;
#X obj 59 202 send, f 7;
#X obj 254 266 swap;
#X msg 172 236 0;
#X obj 217 97 s \$0-changed;
#X obj 60 31 inlet;
#X obj 60 83 trigger bang bang bang;
#X obj 275 361 outlet;
#X obj 225 361 outlet;
#X msg 217 75 reset;
#X connect 0 0 8 0;
#X connect 0 0 9 0;
#X connect 1 0 3 2;
#X connect 2 0 4 2;
#X connect 3 0 7 0;
#X connect 3 1 10 1;
#X connect 4 0 11 0;
#X connect 4 1 10 1;
#X connect 5 0 8 1;
#X connect 6 0 9 1;
#X connect 7 0 4 0;
#X connect 7 1 10 0;
#X connect 10 0 16 0;
#X connect 10 1 15 0;
#X connect 11 0 10 0;
#X connect 13 0 14 0;
#X connect 14 0 0 0;
#X connect 14 1 3 0;
#X connect 14 2 17 0;
#X connect 17 0 12 0;
#X restore 88 128 pd click;
#N canvas 313 330 496 317 set-range 0;
#X obj 63 209 pack float float;
#X obj 63 182 else/rescale;
#X obj 210 182 else/rescale;
#X obj 63 83 expr $f1 * 127 / size_\$0 \; $f2 * 127 / size_\$0 \;;
#X obj 63 243 outlet;
#X obj 63 46 inlet;
#X obj 244 137 r \$0-min-y;
#X obj 279 157 r \$0-max-y;
#X obj 255 77 r \$0-min-x;
#X obj 255 100 r \$0-max-x;
#X connect 0 0 4 0;
#X connect 1 0 0 0;
#X connect 2 0 0 1;
#X connect 3 0 1 0;
#X connect 3 1 2 0;
#X connect 5 0 3 0;
#X connect 6 0 2 1;
#X connect 7 0 2 2;
#X connect 8 0 1 1;
#X connect 9 0 1 2;
#X restore 58 213 pd set-range;
#N canvas 735 447 447 305 set-coords 0;
#X obj 66 79 pack float float;
#X obj 187 176 s \$0-coords;
#X obj 203 149 set \$0-point x0 y0;
#X obj 308 126 receive \$0-pointer;
#X obj 67 33 inlet;
#X obj 159 33 inlet;
#X obj 66 242 outlet;
#X obj 187 105 r \$0-set-coords;
#X obj 78 202 list append 0 0;
#X obj 78 179 r \$0-bang;
#X obj 187 202 r \$0-output;
#X obj 187 227 r \$0-set-output;
#X connect 0 0 2 0;
#X connect 0 0 1 0;
#X connect 0 0 6 0;
#X connect 0 0 8 1;
#X connect 3 0 2 2;
#X connect 4 0 0 0;
#X connect 5 0 0 1;
#X connect 7 0 2 0;
#X connect 7 0 1 0;
#X connect 7 0 8 1;
#X connect 8 0 6 0;
#X connect 9 0 8 0;
#X connect 10 0 8 1;
#X connect 11 0 8 1;
#X restore 58 173 pd set-coords;
#X connect 1 0 3 0;
#X connect 1 1 4 0;
#X connect 2 0 3 2;
#X connect 2 0 4 2;
#X connect 3 0 12 0;
#X connect 4 0 12 1;
#X connect 5 0 7 0;
#X connect 6 0 0 0;
#X connect 7 0 10 0;
#X connect 7 1 1 0;
#X connect 8 0 6 1;
#X connect 9 0 0 0;
#X connect 10 0 12 0;
#X connect 10 1 12 1;
#X connect 11 0 6 0;
#X connect 12 0 11 0;
#X restore 43 194 pd xy-out;
#X connect 1 0 17 0;
#X connect 2 0 16 0;
#X connect 5 0 8 0;
#X connect 6 0 3 1;
#X connect 12 0 3 0;
#X connect 17 0 7 0;
