#N struct 1016-f float x;
#N canvas 573 23 677 436 10;
#N canvas 204 161 257 121 \$0-f 0;
#X obj 59 51 struct \$0-f float x;
#X restore 195 241 pd \$0-f;
#N canvas 64 23 450 300 \$0-sort 0;
#X scalar 1016-f 10 \;;
#X scalar 1016-f 18 \;;
#X scalar 1016-f 18 \;;
#X scalar 1016-f 19 \;;
#X scalar 1016-f 20 \;;
#X scalar 1016-f 46 \;;
#X scalar 1016-f 52 \;;
#X scalar 1016-f 71 \;;
#X scalar 1016-f 80 \;;
#X scalar 1016-f 83 \;;
#X restore 195 264 pd \$0-sort;
#X obj 223 130 pointer;
#X msg 223 97 traverse \$1 \, bang, f 12;
#X obj 148 155 append \$0-f x;
#X msg 316 113 clear;
#X obj 316 138 s pd-\$0-sort;
#X obj 274 229 s pd-\$0-sort;
#X msg 274 208 sort;
#X obj 37 17 inlet;
#X obj 116 268 pointer;
#X obj 116 293 get \$0-f x;
#X obj 95 374 list;
#X msg 116 233 next;
#X obj 95 399 outlet;
#X obj 108 17 inlet;
#X obj 37 147 list length;
#X obj 116 208 until;
#X msg 195 208 traverse \$1;
#X obj 130 130 route float;
#X obj 130 101 cyclone/iter;
#X obj 364 111 s \$0-clear;
#N canvas 64 23 350 248 up 0;
#X obj 96 105 list prepend;
#X obj 195 129 t a;
#X obj 165 81 r \$0-clear;
#X obj 96 44 inlet;
#X obj 96 183 outlet;
#X connect 0 0 1 0;
#X connect 0 0 4 0;
#X connect 1 0 0 1;
#X connect 2 0 0 1;
#X connect 3 0 0 0;
#X restore 179 344 pd up;
#N canvas 64 23 350 248 down 0;
#X obj 195 129 t a;
#X obj 165 81 r \$0-clear;
#X obj 96 44 inlet;
#X obj 96 183 outlet;
#X obj 96 105 list append;
#X connect 0 0 4 1;
#X connect 1 0 4 1;
#X connect 2 0 4 0;
#X connect 4 0 0 0;
#X connect 4 0 3 0;
#X restore 116 344 pd down;
#X obj 193 291 r \$0-direction;
#X obj 116 319 else/router;
#N canvas 388 78 234 206 set-direction 0;
#X obj 67 29 inlet;
#X obj 67 140 s \$0-direction;
#X obj 67 89 >= 0;
#X obj 67 112 + 1;
#X obj 80 58 else/initmess \$1;
#X connect 0 0 2 0;
#X connect 2 0 3 0;
#X connect 3 0 1 0;
#X connect 4 0 2 0;
#X restore 108 44 pd set-direction;
#X obj 37 71 else/trigger2 anything anything pd-\$0-sort bang;
#X obj 37 182 else/trigger2 bang float pd-\$0-sort bang;
#X connect 2 0 4 1;
#X connect 3 0 2 0;
#X connect 5 0 6 0;
#X connect 8 0 7 0;
#X connect 9 0 27 0;
#X connect 10 0 11 0;
#X connect 10 1 17 1;
#X connect 11 0 25 0;
#X connect 12 0 14 0;
#X connect 13 0 10 0;
#X connect 15 0 26 0;
#X connect 16 0 28 0;
#X connect 17 0 13 0;
#X connect 18 0 10 0;
#X connect 19 0 4 0;
#X connect 20 0 19 0;
#X connect 22 0 12 1;
#X connect 23 0 12 1;
#X connect 24 0 25 1;
#X connect 25 0 23 0;
#X connect 25 1 22 0;
#X connect 27 0 16 0;
#X connect 27 1 20 0;
#X connect 27 2 3 0;
#X connect 27 3 5 0;
#X connect 27 3 21 0;
#X connect 28 0 12 0;
#X connect 28 1 17 0;
#X connect 28 2 18 0;
#X connect 28 3 8 0;
