#N canvas 411 237 451 165 10;
#N canvas 672 186 390 227 guts 0;
#X obj 58 30 inlet;
#N canvas 699 106 444 412 output 0;
#X obj 125 195 spigot;
#X obj 225 137 != 2;
#X obj 192 195 spigot;
#X obj 68 73 else/trigger2 0 0;
#X obj 266 297 outlet;
#X obj 192 263 list trim;
#X obj 192 297 outlet;
#X obj 266 137 sel 2;
#X obj 68 47 inlet;
#X obj 125 228 text delete \$0-stack;
#X obj 167 102 text get \$0-stack;
#X connect 0 0 9 0;
#X connect 1 0 0 1;
#X connect 1 0 2 1;
#X connect 2 0 5 0;
#X connect 3 0 0 0;
#X connect 3 1 10 0;
#X connect 5 0 6 0;
#X connect 7 0 4 0;
#X connect 8 0 3 0;
#X connect 10 0 2 0;
#X connect 10 1 1 0;
#X connect 10 1 7 0;
#X restore 115 122 pd output;
#N canvas 595 162 450 300 clear 0;
#X obj 130 94 until;
#X msg 130 122 0;
#X obj 229 176 == 2;
#X obj 229 201 sel 1;
#X obj 130 58 inlet;
#X obj 256 230 text delete \$0-stack;
#X obj 130 150 text get \$0-stack;
#X connect 0 0 1 0;
#X connect 1 0 6 0;
#X connect 2 0 3 0;
#X connect 3 0 0 1;
#X connect 3 1 5 0;
#X connect 4 0 0 0;
#X connect 6 1 2 0;
#X restore 137 96 pd clear;
#N canvas 370 79 482 449 dump 0;
#X obj 141 266 spigot;
#X obj 241 238 != 2;
#X obj 208 266 spigot;
#X obj 90 144 else/trigger2 0 0;
#X obj 315 368 outlet;
#X obj 208 334 list trim;
#X obj 208 368 outlet;
#X obj 90 42 inlet;
#X obj 90 109 until;
#X obj 288 208 == 2;
#X obj 288 280 spigot;
#X obj 190 112 sel 1;
#X obj 288 308 t b f;
#X obj 315 333 sel 1;
#X msg 334 300 0;
#X obj 90 80 else/trigger2 bang 1, f 39;
#X obj 189 173 text get \$0-stack;
#X obj 141 299 text delete \$0-stack;
#X connect 0 0 17 0;
#X connect 1 0 0 1;
#X connect 1 0 2 1;
#X connect 2 0 5 0;
#X connect 3 0 0 0;
#X connect 3 1 16 0;
#X connect 5 0 6 0;
#X connect 7 0 15 0;
#X connect 8 0 3 0;
#X connect 9 0 11 0;
#X connect 9 0 10 0;
#X connect 10 0 12 0;
#X connect 11 0 8 1;
#X connect 12 0 14 0;
#X connect 12 1 13 0;
#X connect 13 0 4 0;
#X connect 14 0 10 1;
#X connect 15 0 8 0;
#X connect 15 1 10 1;
#X connect 16 0 2 0;
#X connect 16 1 1 0;
#X connect 16 1 9 0;
#X restore 58 115 pd dump;
#X obj 108 176 outlet;
#X obj 166 176 outlet;
#N canvas 288 147 302 236 set 0;
#X obj 103 177 v \$0_dir;
#X obj 60 20 inlet;
#X msg 60 148 1e+16;
#X msg 103 148 0;
#X obj 60 123 route fifo lifo;
#X obj 78 97 list trim;
#X obj 78 75 symbol \$1;
#X obj 78 53 else/loadbanger 2;
#X msg 177 98 fifo;
#X text 214 98 default;
#X connect 1 0 4 0;
#X connect 2 0 0 0;
#X connect 3 0 0 0;
#X connect 4 0 2 0;
#X connect 4 1 3 0;
#X connect 5 0 4 0;
#X connect 6 0 5 0;
#X connect 7 0 6 0;
#X connect 7 1 8 0;
#X connect 8 0 4 0;
#X restore 251 88 pd set;
#X obj 218 157 text define \$0-stack;
#X obj 58 67 route dump bang clear open close;
#X msg 218 119 click;
#X msg 261 120 close;
#X connect 0 0 8 0;
#X connect 1 0 4 0;
#X connect 1 1 5 0;
#X connect 3 0 4 0;
#X connect 3 1 5 0;
#X connect 8 0 3 0;
#X connect 8 1 1 0;
#X connect 8 2 2 0;
#X connect 8 3 9 0;
#X connect 8 4 10 0;
#X connect 8 5 6 0;
#X connect 9 0 7 0;
#X connect 10 0 7 0;
#X restore 37 76 pd guts;
#X obj 93 34 inlet;
#X obj 37 114 outlet;
#X obj 87 114 outlet;
#X obj 37 34 inlet;
#X text 182 76 Part of ELSE \; https://github.com/porres/pd-else;
#X text 184 57 Alexandre Torres Porres (2017);
#N canvas 246 23 384 195 store 0;
#X obj 69 48 else/routetype anything;
#X obj 204 99 list prepend list;
#X obj 69 79 list;
#X obj 69 24 inlet;
#X obj 204 122 t a b;
#X obj 262 122 v \$0_dir;
#X obj 204 142 text insert \$0-stack;
#X connect 0 0 2 0;
#X connect 0 1 1 0;
#X connect 1 0 4 0;
#X connect 2 0 4 0;
#X connect 3 0 0 0;
#X connect 4 0 6 0;
#X connect 4 1 5 0;
#X connect 5 0 6 1;
#X restore 93 76 pd store;
#X connect 0 0 2 0;
#X connect 0 1 3 0;
#X connect 1 0 7 0;
#X connect 4 0 0 0;
