#N canvas 404 214 511 353 10;
#N canvas 331 30 753 563 sin 0;
#X obj 91 336 r \$0-name;
#X obj 160 455 tabwrite;
#X obj 141 55 inlet;
#X obj 160 336 trigger float float;
#X msg 91 364 set \$1;
#X obj 160 366 else/loop;
#X obj 589 362 r \$0-name;
#X obj 545 338 s;
#X msg 555 282 const 0;
#X msg 545 255 normalize;
#X obj 159 190 else/frac2dec;
#X obj 159 218 else/group 3;
#X obj 160 251 trigger bang list;
#X obj 346 298 unpack f f f;
#X obj 380 336 v amp_\$0;
#X msg 110 194 clear;
#X obj 439 336 v ph_\$0;
#X obj 309 336 v ratio_\$0;
#X obj 160 399 expr $s3[$f1] + (amp_\$0 * sin(($f1 * ratio_\$0 / $f2
+ ph_\$0) * 2*pi_\$0)) \; $f1, f 75;
#X obj 141 156 t b a b;
#X obj 141 84 route bang;
#X msg 141 108 1 1 0;
#X obj 160 308 array size;
#X obj 217 281 r \$0-name;
#X connect 0 0 4 0;
#X connect 2 0 20 0;
#X connect 3 0 5 0;
#X connect 3 1 18 1;
#X connect 4 0 1 0;
#X connect 5 0 18 0;
#X connect 6 0 7 1;
#X connect 6 0 18 2;
#X connect 8 0 7 0;
#X connect 9 0 7 0;
#X connect 10 0 11 0;
#X connect 11 0 12 0;
#X connect 12 0 22 0;
#X connect 12 1 13 0;
#X connect 13 0 17 0;
#X connect 13 1 14 0;
#X connect 13 2 16 0;
#X connect 15 0 11 0;
#X connect 18 0 1 0;
#X connect 18 1 1 1;
#X connect 19 0 9 0;
#X connect 19 1 10 0;
#X connect 19 2 8 0;
#X connect 19 2 15 0;
#X connect 20 0 21 0;
#X connect 20 1 19 0;
#X connect 21 0 19 0;
#X connect 22 0 3 0;
#X connect 23 0 22 1;
#X restore 112 264 pd sin;
#N canvas 796 184 479 449 gauss 0;
#X obj 165 207 t f f, f 22;
#X obj 165 324 exp;
#X obj 184 152 v s_\$0;
#X obj 165 272 expr -pow($f1 \, 2) / (2 * pow(s_\$0 \, 2)), f 20;
#X obj 247 178 - 1;
#X obj 165 178 else/loop;
#X msg 99 243 set \$1;
#X obj 247 148 array size;
#X obj 165 358 tabwrite, f 22;
#X obj 165 119 t b f b;
#X obj 165 232 else/rescale 0 0 -1 1, f 12;
#X obj 120 33 inlet;
#X obj 120 66 clip 0 1;
#X obj 30 204 / 2;
#X obj 30 229 int;
#X obj 304 125 r \$0-name;
#X obj 30 175 array size;
#X obj 99 148 r \$0-name;
#X obj 120 93 select 0;
#X obj 114 193 s;
#X obj 23 131 t b b;
#X msg 68 131 const 0;
#X msg 30 250 1 \$1;
#X connect 0 0 10 0;
#X connect 0 1 8 1;
#X connect 1 0 8 0;
#X connect 3 0 1 0;
#X connect 4 0 10 2;
#X connect 5 0 0 0;
#X connect 6 0 8 0;
#X connect 7 0 4 0;
#X connect 7 0 5 1;
#X connect 9 0 5 0;
#X connect 9 1 2 0;
#X connect 9 2 7 0;
#X connect 10 0 3 0;
#X connect 11 0 12 0;
#X connect 12 0 18 0;
#X connect 13 0 14 0;
#X connect 14 0 22 0;
#X connect 15 0 7 1;
#X connect 16 0 13 0;
#X connect 17 0 16 1;
#X connect 17 0 6 0;
#X connect 17 0 19 1;
#X connect 18 0 20 0;
#X connect 18 1 9 0;
#X connect 20 0 16 0;
#X connect 20 1 21 0;
#X connect 21 0 19 0;
#X connect 22 0 8 0;
#X restore 86 300 pd gauss;
#X obj 61 25 inlet;
#N canvas 627 23 519 547 sinc 0;
#X obj 130 469 tabwrite;
#X obj 130 34 inlet;
#X obj 42 357 r \$0-name;
#X msg 42 389 set \$1;
#X obj 361 447 v x_\$0;
#X obj 410 436 /;
#X msg 410 415 1;
#X obj 410 458 v r_\$0;
#X obj 410 393 t b f;
#X obj 130 404 expr if($f1 == 0 \, 1 \, sin(x_\$0) * r_\$0) \; $f1
* 2*pi_\$0 * $f2;
#X obj 361 331 / 2;
#X obj 130 210 t b f;
#X obj 130 278 t f f;
#X obj 187 164 != 0;
#X obj 187 188 v half_\$0;
#X obj 130 339 expr if(half_\$0 == 1 \, ($f1 / $f2) \, ($f1 - $f2/2)
/ ($f2/2)) \; $f1, f 34;
#X obj 187 86 list length;
#X obj 187 111 sel 1;
#X msg 187 136 0;
#X obj 130 108 t l l;
#X obj 130 132 unpack;
#X obj 130 310 else/loop;
#X obj 130 253 array size;
#X obj 187 216 r \$0-name;
#X connect 1 0 19 0;
#X connect 2 0 3 0;
#X connect 3 0 0 0;
#X connect 5 0 7 0;
#X connect 6 0 5 0;
#X connect 8 0 6 0;
#X connect 8 1 5 1;
#X connect 9 0 0 0;
#X connect 9 1 4 0;
#X connect 9 1 8 0;
#X connect 10 0 9 1;
#X connect 11 0 22 0;
#X connect 11 1 10 0;
#X connect 12 0 21 0;
#X connect 12 1 15 1;
#X connect 13 0 14 0;
#X connect 15 0 9 0;
#X connect 15 1 0 1;
#X connect 16 0 17 0;
#X connect 17 0 18 0;
#X connect 18 0 13 0;
#X connect 19 0 20 0;
#X connect 19 1 16 0;
#X connect 20 0 11 0;
#X connect 20 1 13 0;
#X connect 21 0 15 0;
#X connect 22 0 12 0;
#X connect 23 0 22 1;
#X restore 133 228 pd sinc;
#N canvas 630 228 317 277 noise 0;
#X obj 51 129 r \$0-name;
#X obj 102 228 tabwrite;
#X obj 120 23 inlet;
#X msg 51 157 set \$1;
#X obj 120 183 else/rand.f -1 1;
#X obj 120 122 else/loop;
#X obj 120 153 t b f;
#X obj 120 94 array size;
#X obj 177 67 r \$0-name;
#X connect 0 0 3 0;
#X connect 2 0 7 0;
#X connect 3 0 1 0;
#X connect 4 0 1 0;
#X connect 5 0 6 0;
#X connect 6 0 4 0;
#X connect 6 1 1 1;
#X connect 7 0 5 0;
#X connect 8 0 7 1;
#X restore 175 192 pd noise;
#N canvas 513 113 485 425 hanning 0;
#X obj 152 46 inlet;
#X obj 152 363 tabwrite;
#X obj 152 122 symbol;
#X obj 152 153 t b s;
#X obj 152 92 t b b;
#X msg 216 90 0;
#X obj 216 116 v half_\$0;
#X obj 152 268 expr if (half_\$0 == 1 \, (($f1 * 0.5) / $f2) + 0.5
\, $f1/$f2) \; $f1, f 30;
#X obj 152 241 else/loop;
#X msg 89 202 set \$1;
#X obj 152 322 expr cos(pi_\$0 + ($f1 * 2*pi_\$0)) * 0.5 + 0.5;
#X obj 152 188 array size;
#X obj 209 161 r \$0-name;
#X obj 152 211 t f f;
#X connect 0 0 4 0;
#X connect 2 0 3 0;
#X connect 3 0 11 0;
#X connect 3 1 9 0;
#X connect 4 0 2 0;
#X connect 4 1 5 0;
#X connect 5 0 6 0;
#X connect 7 0 10 0;
#X connect 7 1 1 1;
#X connect 8 0 7 0;
#X connect 9 0 1 0;
#X connect 10 0 1 0;
#X connect 11 0 13 0;
#X connect 12 0 11 1;
#X connect 12 0 2 1;
#X connect 13 0 8 0;
#X connect 13 1 7 1;
#X restore 211 164 pd hanning;
#N canvas 478 23 487 518 hamming 0;
#X obj 152 60 inlet;
#X obj 151 421 tabwrite;
#X obj 77 314 r \$0-name;
#X obj 152 104 route half;
#X obj 152 128 t b b;
#X obj 209 128 t b b;
#X msg 236 169 0;
#X msg 206 169 1;
#X obj 236 196 v half_\$0;
#X obj 152 300 expr if (half_\$0 == 1 \, (($f1 * 0.5) / $f2) + 0.5
\, $f1/$f2) \; $f1, f 30;
#X msg 77 343 set \$1;
#X obj 152 362 expr (cos(pi_\$0 + ($f1 * 2*pi_\$0)) * 0.46 + 0.54)
, f 34;
#X obj 101 92 bng 15 250 50 0 empty empty empty 17 7 0 10 #fcfcfc #000000
#000000;
#X obj 152 232 array size;
#X obj 152 276 else/loop;
#X obj 152 253 trigger float float;
#X obj 231 230 r \$0-name;
#X connect 0 0 3 0;
#X connect 2 0 10 0;
#X connect 3 0 4 0;
#X connect 3 1 5 0;
#X connect 4 0 13 0;
#X connect 4 1 7 0;
#X connect 5 0 13 0;
#X connect 5 1 6 0;
#X connect 6 0 8 0;
#X connect 7 0 8 0;
#X connect 9 0 11 0;
#X connect 9 1 1 1;
#X connect 10 0 1 0;
#X connect 11 0 1 0;
#X connect 12 0 4 0;
#X connect 13 0 15 0;
#X connect 14 0 9 0;
#X connect 15 0 14 0;
#X connect 15 1 9 1;
#X connect 16 0 13 1;
#X restore 239 134 pd hamming;
#N canvas 270 119 516 405 set-init 0;
#X obj 237 111 else/args;
#X obj 348 257 s \$0-name;
#X obj 379 171 v pi_\$0;
#X obj 379 144 else/pi;
#X obj 237 196 max 1;
#X obj 237 140 route list symbol;
#X msg 237 227 resize \$1;
#X obj 237 257 send, f 13;
#X obj 237 171 unpack float symbol;
#X obj 237 83 else/loadbanger 2;
#X obj 63 48 inlet;
#X obj 63 99 route set size;
#X obj 146 325 outlet;
#X obj 63 152 symbol;
#X connect 0 0 5 0;
#X connect 3 0 2 0;
#X connect 4 0 6 0;
#X connect 5 0 8 0;
#X connect 5 1 1 0;
#X connect 6 0 7 0;
#X connect 8 0 4 0;
#X connect 8 1 1 0;
#X connect 8 1 7 1;
#X connect 9 0 0 0;
#X connect 9 1 3 0;
#X connect 10 0 11 0;
#X connect 11 0 13 0;
#X connect 11 1 6 0;
#X connect 11 2 12 0;
#X connect 13 0 1 0;
#X restore 61 59 pd set-init;
#X obj 61 89 route gauss sin sinc noise hanning hamming clear;
#X obj 316 148 s;
#X obj 342 149 r \$0-name;
#X msg 315 125 const 0;
#X text 233 239 Part of ELSE \; https://github.com/porres/pd-else;
#X text 235 220 Alexandre Torres Porres (2022);
#X connect 2 0 7 0;
#X connect 7 0 8 0;
#X connect 8 0 1 0;
#X connect 8 1 0 0;
#X connect 8 2 3 0;
#X connect 8 3 4 0;
#X connect 8 4 5 0;
#X connect 8 5 6 0;
#X connect 8 6 11 0;
#X connect 10 0 9 1;
#X connect 11 0 9 0;
