#N canvas 917 174 451 422 10;
#X obj 25 174 tgl 15 0 empty empty empty 17 7 0 10 -262144 -1 -1 0
1;
#X obj 67 302 metro;
#X msg 120 339 tempo \$1 permin;
#X obj 120 266 else/randf -1 1;
#X obj 120 315 change -1;
#X obj 120 291 expr bpm_\$0 * exp(log((swing_\$0 / 100) + 1) * $f1)
;
#X obj 25 33 inlet;
#X text 32 9 gate;
#X obj 93 212 sel -on;
#X obj 93 174 else/routetype a;
#X obj 93 193 symbol;
#X obj 93 155 else/break -;
#X obj 186 194 unpack;
#X obj 229 240 v bpm_\$0;
#X obj 286 240 v swing_\$0;
#X obj 286 225 max 0;
#X obj 229 225 max 0;
#X text 276 13 swing (%);
#X text 231 13 BPM;
#X obj 229 33 inlet;
#X obj 286 34 inlet;
#X obj 67 381 outlet;
#X obj 93 136 else/args;
#X obj 93 117 loadbang;
#X text 231 347 Part of ELSE \; https://github.com/porres/pd-else;
#X text 233 328 Alexandre Torres Porres (2018);
#X obj 25 121 != 0;
#X obj 25 213 change;
#X obj 67 238 v gate_\$0;
#X obj 67 262 sel 1;
#X obj 25 60 route float bang start stop, f 29;
#X msg 110 81 1;
#X msg 153 80 0;
#X connect 0 0 27 0;
#X connect 1 0 3 0;
#X connect 1 0 21 0;
#X connect 2 0 1 0;
#X connect 3 0 5 0;
#X connect 4 0 2 0;
#X connect 5 0 4 0;
#X connect 6 0 30 0;
#X connect 8 0 0 0;
#X connect 9 0 10 0;
#X connect 9 1 12 0;
#X connect 10 0 8 0;
#X connect 11 0 9 0;
#X connect 12 0 16 0;
#X connect 12 1 15 0;
#X connect 15 0 14 0;
#X connect 16 0 13 0;
#X connect 19 0 16 0;
#X connect 20 0 15 0;
#X connect 22 0 11 0;
#X connect 23 0 22 0;
#X connect 26 0 0 0;
#X connect 27 0 1 0;
#X connect 27 0 28 0;
#X connect 28 0 29 0;
#X connect 29 0 1 0;
#X connect 30 0 26 0;
#X connect 30 1 28 0;
#X connect 30 2 31 0;
#X connect 30 3 32 0;
#X connect 31 0 26 0;
#X connect 32 0 26 0;
