#N canvas 434 231 822 289 10;
#X obj 171 120 makefilename %g;
#X obj 288 205 outlet;
#X obj 54 48 inlet;
#X obj 288 120 symbol bang;
#N canvas 675 260 792 505 list-any 0;
#X obj 69 36 inlet;
#X obj 69 450 outlet;
#X obj 69 125 trigger bang list bang;
#X obj 264 301 list prepend;
#X obj 69 294 list;
#X obj 333 259 list append 32;
#X obj 69 362 list tosymbol;
#X obj 185 270 list fromsymbol;
#X obj 69 83 list;
#N canvas 816 210 280 272 drip 0;
#X obj 92 201 outlet;
#X obj 110 32 inlet;
#X obj 81 90 until;
#X obj 92 177 list store;
#X obj 110 61 t b b l;
#X obj 81 119 f;
#X obj 116 120 + 1;
#X msg 129 94 0, f 2;
#X msg 81 148 get \$1 1;
#X connect 1 0 4 0;
#X connect 2 0 5 0;
#X connect 3 0 0 0;
#X connect 3 1 2 1;
#X connect 4 0 2 0;
#X connect 4 1 7 0;
#X connect 4 2 3 1;
#X connect 5 0 6 0;
#X connect 5 0 8 0;
#X connect 6 0 5 1;
#X connect 7 0 5 1;
#X connect 8 0 3 0;
#X restore 133 171 pd drip;
#X obj 133 208 route float symbol;
#X obj 133 238 makefilename %g;
#X obj 414 36 inlet;
#X obj 502 379 list fromsymbol;
#X obj 335 142 else/args;
#X obj 335 115 loadbang;
#X obj 335 171 route bang;
#X obj 483 236 else/separate empty;
#X obj 483 295 list length;
#X obj 502 353 list;
#X obj 584 346 print;
#X msg 584 309 [unite]: separator needs to contain only one charater
, f 27;
#X obj 414 209 select empty;
#X obj 414 113 route symbol;
#X obj 483 263 trigger list list;
#X obj 515 148 print;
#X msg 515 111 [unite]: separator needs to be a symbol, f 20;
#X obj 483 321 sel 0 1;
#X connect 0 0 8 0;
#X connect 2 0 4 0;
#X connect 2 1 9 0;
#X connect 2 2 3 1;
#X connect 3 0 4 1;
#X connect 3 0 5 0;
#X connect 4 0 6 0;
#X connect 5 0 3 1;
#X connect 6 0 1 0;
#X connect 7 0 3 0;
#X connect 8 0 2 0;
#X connect 9 0 10 0;
#X connect 10 0 11 0;
#X connect 10 1 7 0;
#X connect 11 0 7 0;
#X connect 12 0 23 0;
#X connect 13 0 5 1;
#X connect 14 0 16 0;
#X connect 15 0 14 0;
#X connect 16 1 22 0;
#X connect 17 0 24 0;
#X connect 18 0 27 0;
#X connect 19 0 13 0;
#X connect 21 0 20 0;
#X connect 22 0 5 1;
#X connect 22 1 17 0;
#X connect 23 0 22 0;
#X connect 23 1 26 0;
#X connect 24 0 18 0;
#X connect 24 1 19 1;
#X connect 26 0 25 0;
#X connect 27 0 5 1;
#X connect 27 1 19 0;
#X connect 27 2 21 0;
#X restore 405 120 pd list-any;
#X text 529 139 Part of ELSE \; https://github.com/porres/pd-else;
#X obj 54 87 route symbol float bang, f 59;
#X obj 468 48 inlet;
#X text 531 120 Alexandre Torres Porres (2018-2020);
#X connect 0 0 1 0;
#X connect 2 0 6 0;
#X connect 3 0 1 0;
#X connect 4 0 1 0;
#X connect 6 0 1 0;
#X connect 6 1 0 0;
#X connect 6 2 3 0;
#X connect 6 3 4 0;
#X connect 7 0 4 1;
