#N canvas 700 38 497 468 12;
#X declare -path else;
#X obj 58 217 stripnote;
#X obj 100 361 *~;
#X obj 58 300 mtof;
#X obj 100 395 out~;
#X obj 58 324 bl.saw~;
#X obj 118 300 / 127;
#X obj 118 264 display;
#X obj 58 266 display;
#X obj 58 89 keyboard 17 80 3 1 0 0 empty empty;
#X obj 58 185 display;
#X obj 323 29 declare -path else;
#X obj 118 331 asr~ 100 1000;
#X text 178 186 The native object [stripnote] filters out note off messages. In this case it means it ignores if the input has a valocity of 0! This is useful if don't need a gate as an envelope trigger \, as is possible with evelope generators in ELSE susch as [asr~] \, for instance - because it only needs a trigger at the note on event., f 41;
#X connect 0 0 7 0;
#X connect 0 1 6 0;
#X connect 1 0 3 0;
#X connect 2 0 4 0;
#X connect 4 0 1 0;
#X connect 5 0 11 0;
#X connect 6 0 5 0;
#X connect 7 0 2 0;
#X connect 8 0 9 0;
#X connect 9 0 0 0;
#X connect 11 0 1 1;
