#N canvas 860 110 452 292 10;
#X obj 53 36 inlet;
#X obj 77 236 outlet;
#X text 185 185 Part of ELSE \; https://github.com/porres/pd-else;
#N canvas 674 333 334 313 init 1;
#X obj 90 70 else/args -;
#X msg 90 137 1000;
#X obj 90 231 outlet;
#X obj 90 103 route bang -samps;
#X obj 189 198 outlet;
#X obj 90 46 else/loadbanger 2;
#X obj 103 167 else/sr~;
#X obj 139 124 t a b b;
#X obj 103 198 spigot;
#X msg 156 195 1;
#X obj 201 150 route bang;
#X connect 0 0 3 0;
#X connect 1 0 2 0;
#X connect 3 0 1 0;
#X connect 3 1 7 0;
#X connect 3 2 4 0;
#X connect 5 0 0 0;
#X connect 5 1 1 0;
#X connect 6 0 8 0;
#X connect 7 0 10 0;
#X connect 7 1 6 0;
#X connect 7 2 9 0;
#X connect 8 0 2 0;
#X connect 9 0 8 1;
#X connect 10 1 3 0;
#X restore 133 80 pd init;
#X obj 187 36 inlet;
#X text 185 166 Alexandre Torres Porres (2019-2026);
#X obj 187 113 else/frac2dec;
#X obj 52 117 else/op / 1;
#X obj 77 152 else/swap2;
#X obj 77 176 else/op /;
#X obj 77 202 else/op * 60;
#X obj 187 134 else/op * 4;
#X connect 0 0 7 0;
#X connect 3 0 8 1;
#X connect 3 1 6 0;
#X connect 4 0 6 0;
#X connect 6 0 11 0;
#X connect 7 0 8 0;
#X connect 8 0 9 0;
#X connect 8 1 9 1;
#X connect 9 0 10 0;
#X connect 10 0 1 0;
#X connect 11 0 7 1;
