#N canvas 456 348 410 290 10;
#X obj 46 32 inlet;
#X obj 44 271 outlet;
#X text 160 212 Part of ELSE \; https://github.com/porres/pd-else;
#X obj 73 126 else/iterate;
#X obj 46 94 t b l;
#X obj 44 243 else/group;
#X obj 73 185 / 60;
#X text 160 193 Alexandre Torres Porres (2026);
#X obj 166 32 inlet;
#X obj 166 112 else/frac2dec;
#X obj 166 142 * 240;
#X text 203 142 (4 * 60);
#X obj 188 61 loadbang;
#X obj 188 82 else/args;
#X connect 0 0 4 0;
#X connect 3 0 6 0;
#X connect 4 0 5 0;
#X connect 4 1 3 0;
#X connect 5 0 1 0;
#X connect 6 0 5 0;
#X connect 8 0 9 0;
#X connect 9 0 10 0;
#X connect 10 0 6 1;
#X connect 12 0 13 0;
#X connect 13 0 9 0;
