#N canvas 371 51 753 568 12;
#X declare -lib else;
#X obj 175 100 circle-gui;
#N canvas 374 38 906 670 patch 0;
#X obj 33 19 inlet;
#X obj 721 82 declare -lib else;
#X obj 268 257 route size;
#X obj 388 234 else/args;
#X obj 388 267 else/routetype list;
#X obj 307 129 else/lb -init;
#X obj 349 390 else/routetype float;
#X obj 188 68 r \$0-flags;
#X msg 349 356 \$1;
#X obj 307 198 t b b, f 12;
#X obj 33 314 route send receive;
#N canvas 733 172 450 300 flags 0;
#X msg 211 100 size \$1;
#X msg 277 100 range \$1 \$2;
#X msg 368 100 xrange \$1 \$2;
#X msg 467 100 yrange \$1 \$2;
#X msg 566 100 line \$1;
#X msg 628 100 grid \$1;
#X msg 803 100 bgcolor1 \$1 \$2 \$3;
#X msg 930 100 bgcolor2 \$1 \$2 \$3;
#X msg 1061 100 fgcolor \$1 \$2 \$3;
#X msg 1179 100 clip \$1;
#X msg 1245 100 savestate \$1;
#X obj 211 145 t a;
#X obj 211 1 else/args -;
#X obj 211 178 s \$0-flags;
#X obj 211 -39 inlet;
#X obj 139 178 outlet;
#X obj 211 47 route -size -range -xrange -yrange -line -grid -bgcolor -bgcolor1 -bgcolor2 -fgcolor -clip -savestate -jump, f 148;
#X msg 1343 100 jump \$1;
#X connect 0 0 11 0;
#X connect 1 0 11 0;
#X connect 2 0 11 0;
#X connect 3 0 11 0;
#X connect 4 0 11 0;
#X connect 5 0 11 0;
#X connect 6 0 11 0;
#X connect 7 0 11 0;
#X connect 8 0 11 0;
#X connect 9 0 11 0;
#X connect 10 0 11 0;
#X connect 11 0 13 0;
#X connect 12 0 16 0;
#X connect 14 0 12 0;
#X connect 16 0 0 0;
#X connect 16 0 15 0;
#X connect 16 1 1 0;
#X connect 16 2 2 0;
#X connect 16 3 3 0;
#X connect 16 4 4 0;
#X connect 16 5 5 0;
#X connect 16 6 6 0;
#X connect 16 6 7 0;
#X connect 16 7 6 0;
#X connect 16 8 7 0;
#X connect 16 9 8 0;
#X connect 16 10 9 0;
#X connect 16 11 10 0;
#X connect 16 12 17 0;
#X connect 17 0 11 0;
#X restore 307 229 pd flags;
#X obj 220 102 r \$0-r-sym;
#X obj 55 80 r \$0-set-r-sym;
#X obj 692 517 s \$0-set-r-sym;
#X obj 759 464 s \$0-set-s-sym;
#X obj 584 489 sel 0;
#X obj 632 490 sel empty;
#X obj 667 406 sel 0;
#X obj 699 436 sel empty;
#X msg 584 463 symbol \$20;
#X msg 667 372 symbol \$21;
#X obj 584 341 list length;
#X obj 584 373 > 19;
#X obj 552 311 t a a;
#X obj 307 514 pack f \$0;
#X obj 307 162 delay 40;
#X obj 55 134 else/receiver;
#X obj 510 428 else/router;
#X obj 33 175 t a a a, f 9;
#X text 752 367 extract send and receive symbols, f 17;
#X obj 416 190 r \$0-args;
#X obj 388 323 list prepend _state;
#X obj 652 225 router;
#X msg 652 256 shift \$1;
#X obj 652 285 s shift;
#X obj 232 141 r shift;
#X obj 645 131 keyname;
#X obj 691 159 sel Shift_L Shift_R;
#X msg 691 185 0;
#X msg 756 184 0;
#X msg 821 184 -1;
#X obj 307 463 change 127;
#X obj 115 281 s \$0-to-circle-gui;
#X obj 388 357 s \$0-to-circle-gui;
#X msg 307 559 \; \$2-cnv donecanvasdialog 1 -1 3 0 \$1 \$1 0 \$1 \$1 175 100, f 51;
#X obj 85 560 r \$0-to-circle-gui;
#X obj 85 614 outlet;
#X obj 452 87 else/canvas.setname \$0-cnv 1;
#X msg 699 460 symbol;
#X obj 55 107 else/dollsym 1;
#X msg 632 513 clear;
#X obj 154 391 s \$0-set-r-sym;
#X obj 94 364 sel empty;
#X msg 94 387 clear;
#X obj 93 451 s \$0-set-s-sym;
#X obj 33 423 sel empty;
#X msg 33 447 symbol;
#X obj 94 339 symbol;
#X obj 33 339 symbol;
#X connect 0 0 29 0;
#X connect 2 0 42 0;
#X connect 3 0 4 0;
#X connect 4 0 8 0;
#X connect 4 0 24 0;
#X connect 4 0 32 0;
#X connect 5 0 26 0;
#X connect 6 0 42 0;
#X connect 7 0 43 0;
#X connect 8 0 6 0;
#X connect 9 0 11 0;
#X connect 9 1 3 0;
#X connect 10 0 59 0;
#X connect 10 1 58 0;
#X connect 11 0 42 0;
#X connect 12 0 43 0;
#X connect 13 0 50 0;
#X connect 16 1 17 0;
#X connect 17 0 51 0;
#X connect 17 1 14 0;
#X connect 18 1 19 0;
#X connect 19 0 49 0;
#X connect 19 1 15 0;
#X connect 20 0 16 0;
#X connect 21 0 18 0;
#X connect 22 0 23 0;
#X connect 23 0 28 1;
#X connect 24 0 28 0;
#X connect 24 1 22 0;
#X connect 25 0 45 0;
#X connect 26 0 9 0;
#X connect 27 0 29 0;
#X connect 28 1 20 0;
#X connect 28 1 21 0;
#X connect 29 0 10 0;
#X connect 29 1 43 0;
#X connect 29 2 2 0;
#X connect 31 0 3 0;
#X connect 32 0 44 0;
#X connect 33 0 34 0;
#X connect 34 0 35 0;
#X connect 36 0 43 0;
#X connect 37 0 33 0;
#X connect 37 1 38 0;
#X connect 38 0 39 0;
#X connect 38 1 40 0;
#X connect 38 2 41 0;
#X connect 39 0 33 1;
#X connect 40 0 33 1;
#X connect 41 0 33 1;
#X connect 42 0 25 0;
#X connect 46 0 47 0;
#X connect 49 0 15 0;
#X connect 50 0 27 0;
#X connect 51 0 14 0;
#X connect 53 0 54 0;
#X connect 53 1 52 0;
#X connect 54 0 52 0;
#X connect 56 0 57 0;
#X connect 56 1 55 0;
#X connect 57 0 55 0;
#X connect 58 0 53 0;
#X connect 59 0 56 0;
#X restore 58 129 pd patch;
#X obj 58 37 inlet;
#N canvas 680 154 594 494 +patch 0;
#X obj 305 400 outlet;
#X obj 411 294 r \$0-set-s-sym;
#X obj 117 316 s \$0-args;
#X obj 175 102 else/routetype list;
#X obj 102 182 list split 1;
#X obj 58 212 sel state;
#X obj 117 284 list;
#X obj 182 245 list;
#X obj 175 141 t a a;
#X obj 175 53 inlet;
#X obj 182 209 b, f 2;
#X obj 305 304 t l l;
#X obj 337 352 else/sender;
#X obj 411 321 else/dollsym 1;
#X connect 1 0 13 0;
#X connect 3 0 8 0;
#X connect 3 1 11 0;
#X connect 4 0 5 0;
#X connect 4 1 6 1;
#X connect 5 0 6 0;
#X connect 5 1 10 0;
#X connect 6 0 2 0;
#X connect 7 0 11 0;
#X connect 8 0 4 0;
#X connect 8 1 7 1;
#X connect 9 0 3 0;
#X connect 10 0 7 0;
#X connect 11 0 0 0;
#X connect 11 1 12 0;
#X connect 13 0 12 1;
#X restore 58 177 pd +patch;
#X obj 58 288 outlet;
#X connect 0 0 3 0;
#X connect 1 0 0 0;
#X connect 2 0 1 0;
#X connect 3 0 4 0;
#X coords 0 127 127 0 127 127 2 175 100;
