#N canvas 434 128 699 377 12;
#X obj 158 158 else/store;
#A saved;
#X obj 289 150 route n;
#X obj 359 279 r \$0-flag;
#X obj 220 280 r \$0-dir;
#X obj 359 317 outlet;
#X obj 159 317 outlet;
#X obj 289 317 outlet;
#X obj 158 195 send \$0-files;
#X obj 69 317 outlet;
#X obj 69 279 r \$0-files;
#X obj 225 29 inlet;
#X obj 140 113 r \$0-store;
#N canvas 676 314 689 470 init 0;
#X obj 186 250 + 1;
#X obj 186 274 s \$0-level;
#X obj 141 56 else/args -;
#X obj 277 194 unpack f s;
#X obj 274 273 s \$0-open;
#X obj 384 169 list;
#X obj 442 232 list split 1;
#X obj 415 265 else/swap2;
#X obj 530 367 s \$0-reroute;
#X obj 384 200 route symbol list;
#X obj 384 334 s \$0-ext;
#X obj 156 92 r \$0-reroute;
#X obj 463 335 route bang;
#X obj 141 130 route bang float symbol list -ext;
#X obj 257 81 s \$0-level;
#X msg 257 54 0;
#X obj 83 24 else/loadbanger 3;
#X obj 83 210 s \$0-load;
#X connect 0 0 1 0;
#X connect 2 0 13 0;
#X connect 3 0 0 0;
#X connect 3 1 4 0;
#X connect 5 0 9 0;
#X connect 6 0 7 0;
#X connect 6 1 7 1;
#X connect 7 0 12 0;
#X connect 7 1 10 0;
#X connect 9 0 10 0;
#X connect 9 1 6 0;
#X connect 11 0 13 0;
#X connect 12 1 8 0;
#X connect 13 1 0 0;
#X connect 13 2 4 0;
#X connect 13 3 3 0;
#X connect 13 4 5 0;
#X connect 15 0 14 0;
#X connect 16 0 17 0;
#X connect 16 1 2 0;
#X connect 16 2 15 0;
#X restore 467 98 pd init;
#N canvas 391 237 793 568 route 0;
#X obj 324 317 pdcontrol;
#X obj 128 270 openpanel 1;
#X obj 128 214 route bang;
#X obj 195 239 symbol;
#X msg 322 405 0;
#X obj 195 405 t s b;
#X obj 322 445 s \$0-flag;
#X msg 283 405 1;
#X msg 471 223 goto \$1 \, bang;
#X obj 509 140 b;
#X obj 586 205 s \$0-store;
#X obj 471 193 route float;
#X obj 432 256 s \$0-store;
#X obj 432 140 b;
#X msg 432 193 dump;
#X obj 128 30 inlet;
#X obj 692 205 s \$0-ext;
#X msg 625 173 symbol;
#X obj 324 234 r \$0-level;
#X obj 324 266 f;
#X msg 324 291 dir \$1;
#X obj 394 140 b;
#X msg 394 193 n;
#X obj 625 140 route bang;
#X obj 692 173 symbol;
#X obj 195 485 outlet;
#X msg 548 140 show;
#X obj 394 111 route n dump seek next show hide ext, f 39;
#X msg 586 140 hide;
#X obj 209 451 s \$0-dir;
#X obj 281 170 s \$0-getdir;
#X obj 128 73 route open reset dir bang, f 34;
#X obj 304 121 t b b b;
#X obj 146 184 r \$0-open;
#X obj 195 379 symbol;
#X obj 195 304 t b s;
#X obj 275 266 t b b;
#X obj 114 317 r \$0-load;
#X obj 234 351 file cwd -q, f 13;
#X obj 42 171 else/click;
#X connect 0 0 38 0;
#X connect 1 0 35 0;
#X connect 2 0 1 0;
#X connect 2 1 3 0;
#X connect 3 0 35 0;
#X connect 4 0 6 0;
#X connect 5 0 25 0;
#X connect 5 0 29 0;
#X connect 5 1 7 0;
#X connect 7 0 6 0;
#X connect 8 0 12 0;
#X connect 9 0 10 0;
#X connect 11 0 8 0;
#X connect 13 0 14 0;
#X connect 14 0 12 0;
#X connect 15 0 31 0;
#X connect 17 0 16 0;
#X connect 18 0 19 0;
#X connect 19 0 20 0;
#X connect 20 0 0 0;
#X connect 21 0 22 0;
#X connect 22 0 12 0;
#X connect 23 0 17 0;
#X connect 23 1 24 0;
#X connect 24 0 16 0;
#X connect 26 0 10 0;
#X connect 27 0 21 0;
#X connect 27 1 13 0;
#X connect 27 2 11 0;
#X connect 27 3 9 0;
#X connect 27 4 26 0;
#X connect 27 5 28 0;
#X connect 27 6 23 0;
#X connect 28 0 10 0;
#X connect 31 0 2 0;
#X connect 31 1 36 0;
#X connect 31 2 30 0;
#X connect 31 3 32 0;
#X connect 31 4 27 0;
#X connect 32 0 14 0;
#X connect 32 1 30 0;
#X connect 32 2 22 0;
#X connect 33 0 2 0;
#X connect 34 0 5 0;
#X connect 35 0 34 0;
#X connect 35 1 38 0;
#X connect 36 0 34 0;
#X connect 36 1 19 0;
#X connect 37 0 34 0;
#X connect 38 0 34 1;
#X connect 38 1 4 0;
#X connect 39 0 1 0;
#X restore 225 81 pd route;
#N canvas 206 345 470 554 files 0;
#X obj 235 381 file splitname;
#X msg 235 425 symbol \$2;
#X obj 121 90 r \$0-ext;
#X msg 146 146 clear;
#X obj 235 476 outlet;
#X obj 146 172 s \$0-store;
#X obj 78 159 symbol;
#X obj 78 44 inlet;
#X obj 121 118 trigger bang symbol;
#X obj 101 227 expr strcat($s1 \, "/*" \, $s2);
#X obj 101 266 file glob -q;
#X obj 235 346 spigot;
#X obj 101 306 else/router;
#X obj 207 315 unpack s f;
#X obj 274 151 sel folders;
#X msg 312 227 1;
#X msg 348 227 0;
#X msg 236 200 symbol;
#X obj 78 193 t b s b;
#X msg 78 356 sort;
#X obj 78 393 s \$0-store;
#X connect 0 0 1 0;
#X connect 1 0 4 0;
#X connect 2 0 8 0;
#X connect 3 0 5 0;
#X connect 6 0 18 0;
#X connect 7 0 6 0;
#X connect 8 0 6 0;
#X connect 8 1 14 0;
#X connect 9 0 10 0;
#X connect 10 0 12 0;
#X connect 11 0 0 0;
#X connect 12 0 0 0;
#X connect 12 1 13 0;
#X connect 13 0 11 0;
#X connect 13 1 11 1;
#X connect 14 0 15 0;
#X connect 14 0 17 0;
#X connect 14 1 16 0;
#X connect 14 1 9 1;
#X connect 15 0 12 1;
#X connect 16 0 12 1;
#X connect 17 0 9 1;
#X connect 18 0 19 0;
#X connect 18 1 9 0;
#X connect 18 2 3 0;
#X connect 19 0 20 0;
#X restore 225 113 pd files;
#X text 391 188 Part of ELSE \; https://github.com/porres/pd-else;
#X obj 159 280 symbol;
#X obj 159 249 r \$0-getdir;
#X text 391 169 Alexandre Torres Porres (2017-2024);
#X connect 0 0 7 0;
#X connect 0 1 1 0;
#X connect 1 0 6 0;
#X connect 2 0 4 0;
#X connect 3 0 16 1;
#X connect 9 0 8 0;
#X connect 10 0 13 0;
#X connect 11 0 0 0;
#X connect 13 0 14 0;
#X connect 14 0 0 1;
#X connect 16 0 5 0;
#X connect 17 0 16 0;
