#N canvas 127 276 699 377 12;
#X obj 158 158 else/store;
#A saved;
#X obj 278 158 route n;
#X obj 338 279 r \$0-flag;
#X obj 209 280 r \$0-dir;
#X obj 338 317 outlet;
#X obj 148 317 outlet;
#X obj 278 317 outlet;
#X obj 158 195 send \$0-files;
#X obj 58 317 outlet;
#X obj 58 279 r \$0-files;
#X obj 225 29 inlet;
#X obj 140 113 r \$0-store;
#N canvas 676 314 689 470 init 0;
#X obj 186 250 + 1;
#X obj 186 274 s \$0-level;
#X obj 141 56 else/args -;
#X obj 277 194 unpack f s;
#X obj 274 273 s \$0-open;
#X obj 384 169 list;
#X obj 442 232 list split 1;
#X obj 415 265 else/swap2;
#X obj 530 367 s \$0-reroute;
#X obj 384 200 route symbol list;
#X obj 384 334 s \$0-ext;
#X obj 156 92 r \$0-reroute;
#X obj 463 335 route bang;
#X obj 141 130 route bang float symbol list -ext;
#X obj 257 81 s \$0-level;
#X msg 257 54 0;
#X obj 83 24 else/loadbanger 3;
#X obj 83 210 s \$0-load;
#X connect 0 0 1 0;
#X connect 2 0 13 0;
#X connect 3 0 0 0;
#X connect 3 1 4 0;
#X connect 5 0 9 0;
#X connect 6 0 7 0;
#X connect 6 1 7 1;
#X connect 7 0 12 0;
#X connect 7 1 10 0;
#X connect 9 0 10 0;
#X connect 9 1 6 0;
#X connect 11 0 13 0;
#X connect 12 1 8 0;
#X connect 13 1 0 0;
#X connect 13 2 4 0;
#X connect 13 3 3 0;
#X connect 13 4 5 0;
#X connect 15 0 14 0;
#X connect 16 0 17 0;
#X connect 16 1 2 0;
#X connect 16 2 15 0;
#X restore 467 98 pd init;
#N canvas 508 305 955 573 route 0;
#X obj 308 317 pdcontrol;
#X obj 128 266 openpanel 1;
#X obj 128 214 route bang;
#X obj 195 239 symbol;
#X msg 322 405 0;
#X obj 195 405 t s b;
#X obj 322 445 s \$0-flag;
#X msg 283 405 1;
#X msg 471 301 goto \$1 \, bang;
#X obj 509 140 b;
#X obj 586 205 s \$0-store;
#X obj 471 193 route float;
#X obj 432 334 s \$0-store;
#X obj 432 140 b;
#X msg 432 193 dump;
#X obj 128 30 inlet;
#X obj 692 205 s \$0-ext;
#X msg 625 173 symbol;
#X obj 308 234 r \$0-level;
#X obj 308 266 f;
#X msg 308 291 dir \$1;
#X obj 394 140 b;
#X obj 625 140 route bang;
#X obj 692 173 symbol;
#X obj 195 485 outlet;
#X msg 548 140 show;
#X obj 394 111 route n dump seek next show hide ext, f 39;
#X msg 586 140 hide;
#X obj 209 451 s \$0-dir;
#X obj 281 170 s \$0-getdir;
#X obj 128 73 route open reset dir bang, f 34;
#X obj 304 121 t b b b;
#X obj 146 184 r \$0-open;
#X obj 195 379 symbol;
#X obj 195 296 t b s;
#X obj 259 266 t b b;
#X obj 114 317 r \$0-load;
#X obj 234 352 file cwd -q, f 13;
#X obj 42 171 else/click;
#X obj 394 367 s \$0-getn;
#X obj 774 96 route random;
#X msg 774 171 goto \$1 \, bang;
#X obj 774 210 s \$0-store;
#X obj 774 135 expr random(0 \, n_\$0);
#X obj 471 273 expr $i1 % 4;
#X obj 471 246 max 0;
#X obj 471 220 - 1;
#X connect 0 0 37 0;
#X connect 1 0 34 0;
#X connect 2 0 1 0;
#X connect 2 1 3 0;
#X connect 3 0 34 0;
#X connect 4 0 6 0;
#X connect 5 0 24 0;
#X connect 5 0 28 0;
#X connect 5 1 7 0;
#X connect 7 0 6 0;
#X connect 8 0 12 0;
#X connect 9 0 10 0;
#X connect 11 0 46 0;
#X connect 13 0 14 0;
#X connect 14 0 12 0;
#X connect 15 0 30 0;
#X connect 17 0 16 0;
#X connect 18 0 19 0;
#X connect 19 0 20 0;
#X connect 20 0 0 0;
#X connect 21 0 39 0;
#X connect 22 0 17 0;
#X connect 22 1 23 0;
#X connect 23 0 16 0;
#X connect 25 0 10 0;
#X connect 26 0 21 0;
#X connect 26 1 13 0;
#X connect 26 2 11 0;
#X connect 26 3 9 0;
#X connect 26 4 25 0;
#X connect 26 5 27 0;
#X connect 26 6 22 0;
#X connect 26 7 40 0;
#X connect 27 0 10 0;
#X connect 30 0 2 0;
#X connect 30 1 35 0;
#X connect 30 2 29 0;
#X connect 30 3 31 0;
#X connect 30 4 26 0;
#X connect 31 0 14 0;
#X connect 31 1 29 0;
#X connect 31 2 21 0;
#X connect 32 0 2 0;
#X connect 33 0 5 0;
#X connect 34 0 33 0;
#X connect 34 1 37 0;
#X connect 35 0 33 0;
#X connect 35 1 19 0;
#X connect 36 0 33 0;
#X connect 37 0 33 1;
#X connect 37 1 4 0;
#X connect 38 0 1 0;
#X connect 40 0 43 0;
#X connect 41 0 42 0;
#X connect 43 0 41 0;
#X connect 44 0 8 0;
#X connect 45 0 44 0;
#X connect 46 0 45 0;
#X restore 225 81 pd route;
#N canvas 206 345 470 554 files 0;
#X obj 235 381 file splitname;
#X msg 235 425 symbol \$2;
#X obj 121 90 r \$0-ext;
#X msg 146 146 clear;
#X obj 235 476 outlet;
#X obj 146 172 s \$0-store;
#X obj 78 159 symbol;
#X obj 78 44 inlet;
#X obj 121 118 trigger bang symbol;
#X obj 101 227 expr strcat($s1 \, "/*" \, $s2);
#X obj 101 266 file glob -q;
#X obj 235 346 spigot;
#X obj 101 306 else/router;
#X obj 207 315 unpack s f;
#X obj 274 151 sel folders;
#X msg 312 227 1;
#X msg 348 227 0;
#X msg 236 200 symbol;
#X obj 78 193 t b s b;
#X obj 78 393 s \$0-store;
#X msg 78 356 sort \, n;
#X connect 0 0 1 0;
#X connect 1 0 4 0;
#X connect 2 0 8 0;
#X connect 3 0 5 0;
#X connect 6 0 18 0;
#X connect 7 0 6 0;
#X connect 8 0 6 0;
#X connect 8 1 14 0;
#X connect 9 0 10 0;
#X connect 10 0 12 0;
#X connect 11 0 0 0;
#X connect 12 0 0 0;
#X connect 12 1 13 0;
#X connect 13 0 11 0;
#X connect 13 1 11 1;
#X connect 14 0 15 0;
#X connect 14 0 17 0;
#X connect 14 1 16 0;
#X connect 14 1 9 1;
#X connect 15 0 12 1;
#X connect 16 0 12 1;
#X connect 17 0 9 1;
#X connect 18 0 20 0;
#X connect 18 1 9 0;
#X connect 18 2 3 0;
#X connect 20 0 19 0;
#X restore 225 113 pd files;
#X text 391 188 Part of ELSE \; https://github.com/porres/pd-else;
#X obj 148 280 symbol;
#X obj 148 249 r \$0-getdir;
#X text 391 169 Alexandre Torres Porres (2017-2024);
#X obj 278 229 v n_\$0;
#X obj 294 196 r \$0-getn;
#X obj 350 231 display;
#X obj 349 144 display;
#X connect 0 0 7 0;
#X connect 0 1 1 0;
#X connect 1 0 19 0;
#X connect 1 0 22 0;
#X connect 2 0 4 0;
#X connect 3 0 16 1;
#X connect 9 0 8 0;
#X connect 10 0 13 0;
#X connect 11 0 0 0;
#X connect 13 0 14 0;
#X connect 14 0 0 1;
#X connect 16 0 5 0;
#X connect 17 0 16 0;
#X connect 19 0 6 0;
#X connect 20 0 19 0;
#X connect 20 0 21 0;
