#N canvas 288 115 689 402 12;
#X obj 193 193 else/args;
#X obj 193 159 loadbang;
#X obj 71 63 inlet;
#X obj 71 163 else/iterate;
#X obj 71 197 t a b;
#X obj 173 253 else/list.seq;
#X obj 148 290 send;
#X msg 173 124 goto 0;
#X obj 71 125 t l b;
#X obj 193 217 route bang;
#X text 310 174 Part of ELSE \; https://github.com/porres/pd-else;
#X text 310 155 Alexandre Torres Porres (2023), f 33;
#X connect 0 0 9 0;
#X connect 1 0 0 0;
#X connect 2 0 8 0;
#X connect 3 0 4 0;
#X connect 4 0 6 0;
#X connect 4 1 5 0;
#X connect 5 0 6 1;
#X connect 7 0 5 0;
#X connect 8 0 3 0;
#X connect 8 1 7 0;
#X connect 9 1 5 0;
