#N canvas 393 74 537 368 12;
#X text 259 158 Part of ELSE \; https://github.com/porres/pd-else;
#X text 261 139 Alexandre Torres Porres (2025);
#X obj 113 129 else/iterate;
#X obj 81 214 else/group;
#X obj 216 64 inlet;
#X obj 81 64 inlet;
#X obj 81 98 t b a;
#X obj 155 166 select \$1;
#X obj 81 255 outlet;
#X connect 2 0 7 0;
#X connect 3 0 8 0;
#X connect 4 0 7 1;
#X connect 5 0 6 0;
#X connect 6 0 3 0;
#X connect 6 1 2 0;
#X connect 7 1 3 0;
