#N canvas 502 118 702 542 12;
#X msg 328 392 0;
#X obj 145 163 t f f;
#X obj 177 250 sel 1;
#X msg 177 276 stop;
#X obj 145 129 trigger float float;
#X obj 369 45 inlet;
#X obj 71 45 inlet;
#X obj 201 472 outlet;
#X obj 330 333 del \$1;
#X obj 177 208 expr ($f1 == 0) && ($f2 != 0), f 15;
#X text 415 261 Part of ELSE \; https://github.com/porres/pd-else;
#X text 417 241 Alexandre Torres Porres (2025);
#X obj 330 301 b;
#X obj 298 172 sel 0;
#X obj 328 416 else/changed, f 16;
#X obj 71 90 else/router;
#X obj 369 90 > 0;
#X connect 0 0 14 0;
#X connect 1 0 9 1;
#X connect 1 1 9 0;
#X connect 2 0 3 0;
#X connect 3 0 8 0;
#X connect 4 0 1 0;
#X connect 4 1 13 0;
#X connect 5 0 16 0;
#X connect 6 0 15 0;
#X connect 8 0 0 0;
#X connect 9 0 2 0;
#X connect 12 0 8 0;
#X connect 13 0 0 0;
#X connect 13 0 14 1;
#X connect 13 1 12 0;
#X connect 13 1 7 0;
#X connect 14 0 7 0;
#X connect 15 0 7 0;
#X connect 15 1 4 0;
#X connect 16 0 8 1;
#X connect 16 0 15 1;
