#N canvas 302 179 713 516 12;
#X msg 252 334 0;
#X obj 131 193 expr ($f1 != 0) && ($f2 == 0), f 15;
#X obj 99 148 t f f;
#X obj 131 235 sel 1;
#X msg 131 261 stop;
#X obj 99 97 trigger float float;
#X obj 252 140 select 0;
#X obj 393 63 inlet;
#X obj 99 63 inlet;
#X obj 305 396 outlet;
#X obj 252 310 del \$1;
#X text 376 220 Part of ELSE \; https://github.com/porres/pd-else;
#X text 378 201 Alexandre Torres Porres (2025);
#X connect 0 0 9 0;
#X connect 1 0 3 0;
#X connect 2 0 1 1;
#X connect 2 1 1 0;
#X connect 3 0 4 0;
#X connect 4 0 10 0;
#X connect 5 0 2 0;
#X connect 5 1 6 0;
#X connect 6 0 10 0;
#X connect 6 1 9 0;
#X connect 7 0 10 1;
#X connect 8 0 5 0;
#X connect 10 0 0 0;
