#N canvas 372 140 611 465 12;
#X obj 219 44 inlet;
#X obj 219 121 != 0;
#X text 302 162 Part of ELSE \; https://github.com/porres/pd-else;
#X text 304 143 Alexandre Torres Porres (2026);
#N canvas 142 130 340 311 init 0;
#X obj 124 29 loadbang;
#X obj 112 205 outlet;
#X obj 124 57 else/args -;
#X obj 124 91 route -off float;
#X obj 80 128 t a b;
#X msg 112 155 0;
#X obj 178 144 sel 0;
#X obj 178 117 max 0;
#X obj 210 176 s \$0-norm;
#X connect 0 0 2 0;
#X connect 2 0 3 0;
#X connect 3 0 4 0;
#X connect 3 1 7 0;
#X connect 4 0 3 0;
#X connect 4 1 5 0;
#X connect 5 0 1 0;
#X connect 6 1 8 0;
#X connect 7 0 6 0;
#X restore 238 88 pd init;
#X obj 268 287 r \$0-norm;
#X obj 85 36 inlet;
#X obj 219 210 t f f;
#X obj 219 264 > 0;
#X obj 251 236 else/sign;
#X obj 219 234 abs;
#X obj 233 289 *;
#X obj 233 316 * 1;
#N canvas 142 130 366 297 route 0;
#X obj 120 71 inlet;
#X obj 120 108 route set;
#X obj 207 208 s \$0-norm;
#X obj 120 169 sel 0;
#X obj 120 138 max 0;
#X obj 181 247 outlet;
#X connect 0 0 1 0;
#X connect 1 0 4 0;
#X connect 1 1 5 0;
#X connect 3 1 2 0;
#X connect 4 0 3 0;
#X restore 85 80 pd route;
#X obj 85 114 t b a;
#X obj 117 384 else/group;
#X obj 117 418 outlet;
#X obj 117 174 else/router 2 1;
#X obj 117 145 else/iterate;
#X connect 0 0 1 0;
#X connect 1 0 17 1;
#X connect 4 0 1 0;
#X connect 5 0 12 1;
#X connect 6 0 13 0;
#X connect 7 0 10 0;
#X connect 7 1 9 0;
#X connect 8 0 11 0;
#X connect 9 0 11 1;
#X connect 10 0 8 0;
#X connect 11 0 12 0;
#X connect 12 0 15 0;
#X connect 13 0 14 0;
#X connect 14 0 15 0;
#X connect 14 1 18 0;
#X connect 15 0 16 0;
#X connect 17 0 15 0;
#X connect 17 1 7 0;
#X connect 18 0 17 0;
