#N canvas 502 118 598 524 12;
#X obj 274 91 inlet;
#X obj 103 91 inlet;
#X obj 199 453 outlet;
#X obj 236 265 del \$1;
#X text 320 197 Part of ELSE \; https://github.com/porres/pd-else;
#X text 322 177 Alexandre Torres Porres (2025);
#X obj 153 168 sel 0;
#X obj 138 346 ||;
#X msg 236 293 0;
#X obj 103 316 else/hot;
#X obj 199 421 change;
#X obj 103 164 t f f;
#X obj 199 388 *;
#X obj 185 199 t b f;
#X msg 156 277 1;
#X obj 103 277 > 0;
#X connect 0 0 3 1;
#X connect 1 0 11 0;
#X connect 3 0 8 0;
#X connect 6 1 13 0;
#X connect 7 0 12 0;
#X connect 8 0 9 1;
#X connect 9 0 7 0;
#X connect 9 1 7 1;
#X connect 10 0 2 0;
#X connect 11 0 15 0;
#X connect 11 1 6 0;
#X connect 12 0 10 0;
#X connect 13 0 3 0;
#X connect 13 0 14 0;
#X connect 13 1 12 1;
#X connect 14 0 9 1;
#X connect 15 0 9 0;
