#N canvas 483 80 687 453 10;
#X obj 309 33 inlet;
#X obj 46 33 inlet;
#X obj 252 399 outlet;
#X obj 95 197 list prepend;
#X obj 139 114 t b a;
#X obj 95 175 until;
#X obj 164 168 list prepend;
#X obj 309 273 trigger bang anything;
#X obj 252 248 list split;
#X obj 74 231 list;
#X obj 74 260 route bang;
#X obj 46 103 t b b;
#X obj 46 62 route bang clear;
#X obj 233 142 r \$0-clear;
#X obj 130 89 s \$0-clear;
#X obj 43 317 s \$0-clear;
#X obj 111 236 r \$0-clear;
#X obj 195 271 route bang;
#X obj 259 295 list;
#N canvas 762 38 484 357 set 0;
#X obj 70 133 s \$0-clear;
#X obj 70 77 trigger bang float;
#X obj 193 321 outlet;
#X obj 70 24 inlet;
#X obj 193 143 max 0;
#X msg 215 114 0;
#X obj 224 72 else/lb 2;
#X obj 291 184 route float;
#X obj 291 146 else/args;
#X connect 1 0 0 0;
#X connect 1 1 4 0;
#X connect 3 0 1 0;
#X connect 4 0 2 0;
#X connect 5 0 4 0;
#X connect 6 0 8 0;
#X connect 6 1 5 0;
#X connect 7 0 4 0;
#X connect 8 0 7 0;
#X restore 309 64 pd set;
#X text 401 173 Part of ELSE \; https://github.com/porres/pd-else;
#X text 403 154 Alexandre Torres Porres (2019);
#X obj 312 399 outlet;
#X obj 309 297 s \$0-stop;
#X obj 180 114 r \$0-stop;
#X connect 0 0 19 0;
#X connect 1 0 12 0;
#X connect 3 0 8 0;
#X connect 3 0 9 1;
#X connect 4 0 5 0;
#X connect 4 1 6 0;
#X connect 5 0 3 0;
#X connect 6 0 3 1;
#X connect 7 0 23 0;
#X connect 7 1 6 1;
#X connect 8 0 17 0;
#X connect 8 1 3 1;
#X connect 8 1 18 1;
#X connect 8 2 7 0;
#X connect 9 0 10 0;
#X connect 10 0 22 0;
#X connect 10 1 2 0;
#X connect 11 0 15 0;
#X connect 11 1 9 0;
#X connect 12 0 11 0;
#X connect 12 1 14 0;
#X connect 12 2 4 0;
#X connect 13 0 6 1;
#X connect 16 0 9 1;
#X connect 17 0 18 0;
#X connect 17 1 2 0;
#X connect 18 0 7 0;
#X connect 19 0 8 1;
#X connect 24 0 5 1;
