#N canvas 327 38 748 740 10;
#X obj 262 376 text search \$0-rules 0, f 11;
#X obj 262 537 list prepend, f 22;
#X obj 419 544 t a;
#X obj 262 560 t l l, f 18;
#X obj 241 584 list;
#X obj 235 291 text get \$0-outcome;
#X msg 235 249 0;
#X obj 295 465 text get \$0-rules, f 8;
#X obj 295 499 list split 1;
#X obj 235 269 t f b, f 29;
#X obj 241 610 text set \$0-outcome;
#X obj 262 440 list, f 14;
#X obj 262 414 sel -1;
#X obj 262 354 t a a, f 14;
#X obj 483 296 text get \$0-rules;
#X obj 483 272 text search \$0-rules 0;
#X obj 483 320 list split 1;
#X msg 483 248 symbol axiom;
#X obj 235 314 t b l;
#X obj 519 223 text define \$0-outcome;
#X msg 519 198 clear;
#X obj 235 226 else/loop -b;
#X obj 544 368 text set \$0-outcome;
#X obj 180 634 text get \$0-outcome;
#X obj 180 683 outlet;
#X msg 180 610 0;
#X obj 262 334 else/iterate;
#X obj 180 179 trigger bang float bang bang;
#X obj 51 27 inlet;
#X obj 96 119 moses 1;
#X obj 235 206 - 1;
#X obj 449 451 v count-\$0;
#X obj 472 415 else/count -reset 1;
#X msg 472 210 reset;
#X msg 449 268 0, f 2;
#X obj 103 173 v count-\$0;
#X obj 103 194 sel 0;
#X obj 345 240 s \$0-reset;
#X obj 171 110 s \$0-reset;
#X obj 473 165 r \$0-reset;
#X obj 180 657 trigger list bang;
#X obj 330 683 outlet;
#X obj 330 649 v count-\$0;
#X obj 517 346 t b a;
#X obj 103 249 s \$0-1st;
#X obj 396 147 r \$0-1st;
#X obj 396 178 t b b;
#X obj 473 145 s \$0-reset;
#X obj 130 215 b;
#X obj 51 206 t b b;
#N canvas 304 173 533 363 open 0;
#X obj 213 293 text define \$0-rules;
#X obj 122 52 inlet;
#X obj 363 138 else/args;
#X obj 363 168 unpack s f;
#X obj 363 108 loadbang;
#X msg 229 218 read \$1;
#X obj 420 196 max 1;
#X obj 420 220 s \$0-n;
#X msg 122 197 click;
#X obj 49 121 else/click;
#X msg 167 197 close;
#X obj 122 122 else/route2 show hide open save;
#X obj 310 211 symbol;
#X msg 310 245 write \$1;
#X obj 177 67 route step float bang reset import, f 38;
#X obj 400 244 s \$0-init;
#X obj 213 156 route bang;
#X obj 213 179 openpanel;
#X connect 1 0 11 0;
#X connect 2 0 3 0;
#X connect 3 0 5 0;
#X connect 3 0 12 1;
#X connect 3 1 6 0;
#X connect 4 0 2 0;
#X connect 5 0 0 0;
#X connect 6 0 7 0;
#X connect 8 0 0 0;
#X connect 9 0 8 0;
#X connect 10 0 0 0;
#X connect 11 0 8 0;
#X connect 11 1 10 0;
#X connect 11 2 16 0;
#X connect 11 3 12 0;
#X connect 12 0 13 0;
#X connect 13 0 0 0;
#X connect 16 0 17 0;
#X connect 16 1 5 0;
#X connect 16 1 12 1;
#X connect 17 0 5 0;
#X connect 17 0 12 1;
#X restore 300 71 pd open \; init;
#X obj 195 131 r \$0-n;
#X obj 180 155 f 1;
#X obj 249 126 text fromlist \$0-rules, f 14;
#X obj 51 79 route step float bang reset import, f 38;
#X obj 249 105 list;
#X connect 0 0 12 0;
#X connect 1 0 3 0;
#X connect 2 0 1 1;
#X connect 3 0 4 1;
#X connect 3 1 2 0;
#X connect 4 0 10 0;
#X connect 5 0 18 0;
#X connect 6 0 9 0;
#X connect 7 0 8 0;
#X connect 8 1 1 0;
#X connect 9 0 5 0;
#X connect 9 1 1 1;
#X connect 9 1 32 0;
#X connect 11 0 1 0;
#X connect 12 0 11 0;
#X connect 12 1 7 0;
#X connect 13 0 0 0;
#X connect 13 1 11 1;
#X connect 14 0 16 0;
#X connect 15 0 14 0;
#X connect 16 1 43 0;
#X connect 17 0 15 0;
#X connect 18 0 4 0;
#X connect 18 1 26 0;
#X connect 20 0 19 0;
#X connect 21 0 6 0;
#X connect 23 0 40 0;
#X connect 25 0 23 0;
#X connect 26 0 13 0;
#X connect 27 0 25 0;
#X connect 27 1 30 0;
#X connect 27 2 17 0;
#X connect 27 3 37 0;
#X connect 28 0 54 0;
#X connect 29 1 52 0;
#X connect 30 0 21 0;
#X connect 32 0 31 0;
#X connect 33 0 32 0;
#X connect 34 0 31 0;
#X connect 35 0 36 0;
#X connect 36 0 44 0;
#X connect 36 1 48 0;
#X connect 39 0 34 0;
#X connect 39 0 20 0;
#X connect 39 0 33 0;
#X connect 40 0 24 0;
#X connect 40 1 42 0;
#X connect 42 0 41 0;
#X connect 43 0 32 0;
#X connect 43 1 22 0;
#X connect 45 0 46 0;
#X connect 46 0 17 0;
#X connect 46 1 47 0;
#X connect 48 0 6 0;
#X connect 49 0 25 0;
#X connect 49 1 35 0;
#X connect 51 0 52 1;
#X connect 52 0 27 0;
#X connect 54 0 49 0;
#X connect 54 1 29 0;
#X connect 54 2 52 0;
#X connect 54 3 38 0;
#X connect 54 4 55 0;
#X connect 54 5 50 0;
#X connect 55 0 53 0;
