#N canvas 512 227 454 272 10;
#X declare -path else;
#X obj 57 207 outlet;
#X obj 57 31 inlet;
#X text 204 167 Part of ELSE \; https://github.com/porres/pd-else;
#X obj 246 31 inlet;
#N canvas 278 149 450 518 set-scale 0;
#X obj 80 104 list;
#X obj 143 94 list length;
#X obj 80 130 t l l;
#X obj 188 249 text set \$0-user-defined;
#X obj 143 249 t b l;
#X obj 143 296 symbol \$0-user-defined;
#X obj 183 403 symbol \$0-notes;
#X obj 183 357 r \$0-chrom;
#X obj 200 380 r \$0-sharp;
#X obj 161 335 r \$0-flat;
#X obj 154 273 s \$0-user;
#X obj 143 442 s \$0-set-table;
#X obj 80 35 inlet;
#X obj 80 181 else/router;
#N canvas 120 97 299 384 add 0;
#X obj 77 59 inlet;
#X obj 104 116 else/iterate;
#X obj 104 137 t b s;
#X obj 131 270 group;
#X obj 147 171 symbol;
#X obj 147 194 list fromsymbol;
#X obj 147 218 list append 43;
#X obj 147 241 list tosymbol;
#X obj 77 93 t b l;
#X obj 131 311 outlet;
#X connect 0 0 8 0;
#X connect 1 0 2 0;
#X connect 2 0 4 0;
#X connect 2 1 3 0;
#X connect 2 1 4 1;
#X connect 3 0 9 0;
#X connect 4 0 5 0;
#X connect 5 0 6 0;
#X connect 6 0 7 0;
#X connect 7 0 3 0;
#X connect 8 0 3 0;
#X connect 8 1 1 0;
#X restore 80 208 pd add;
#X obj 143 131 expr if($f1 == 11 \, 0 \, if($f1 == 23 \, 1 \, -1)), f 21;
#X connect 0 0 2 0;
#X connect 1 0 15 0;
#X connect 2 0 13 0;
#X connect 2 1 1 0;
#X connect 4 0 5 0;
#X connect 4 0 10 0;
#X connect 4 1 3 0;
#X connect 5 0 11 0;
#X connect 6 0 11 0;
#X connect 7 0 6 0;
#X connect 8 0 6 0;
#X connect 9 0 6 0;
#X connect 12 0 0 0;
#X connect 13 0 14 0;
#X connect 13 1 4 0;
#X connect 14 0 4 0;
#X connect 15 0 13 1;
#X restore 246 57 pd set-scale;
#N canvas 737 142 347 246 route 0;
#X obj 48 164 s \$0-chrom;
#X obj 98 139 s \$0-sharp;
#X obj 136 117 s \$0-flat;
#X obj 67 37 inlet;
#X obj 223 210 outlet;
#X obj 67 72 route chromatic sharp flat list float;
#X connect 3 0 5 0;
#X connect 5 0 0 0;
#X connect 5 1 1 0;
#X connect 5 2 2 0;
#X connect 5 3 4 0;
#X connect 5 4 4 0;
#X restore 57 79 pd route;
#N canvas 864 373 319 241 init 0;
#X obj 96 61 text define -k \$0-notes;
#A set C Db- Db D- D Eb- Eb E- E F- F Gb- Gb G- G Ab- Ab A- A Bb- Bb B- B C- \; C C+ C# C#+ D D+ D# D#+ E E+ F F+ F# F#+ G G+ G# G#+ A A+ A# A#+ B B+ \; C Db D Eb E F Gb G Ab A Bb B \; C C# D D# E F F# G G# A A# B \;;
#X obj 134 129 v last_\$0;
#X obj 134 149 v dif_\$0;
#X obj 134 169 v oct_\$0;
#X obj 85 89 text define \$0-user-defined;
#X restore 152 95 pd init;
#X obj 240 92 declare -path else;
#X text 206 148 Alexandre Torres Porres (2021-2023);
#N canvas 295 38 609 685 convert 0;
#X obj 233 368 text get \$0-notes 1, f 10;
#X obj 219 297 swap 1;
#X obj 225 246 sel 0;
#X obj 252 269 > 0;
#X obj 293 200 spigot 1;
#X msg 338 121 1;
#X obj 338 97 r \$0-chrom;
#X obj 369 121 r \$0-flat;
#X msg 379 185 0;
#X obj 434 215 r \$0-flat;
#X msg 424 237 0;
#X msg 456 259 1;
#X obj 424 193 r \$0-user;
#X obj 390 163 r \$0-user;
#X obj 379 142 r \$0-sharp;
#X obj 456 238 r \$0-sharp;
#N canvas 686 288 460 553 unicode 0;
#X obj 119 18 inlet;
#X obj 206 232 list fromsymbol;
#X obj 206 278 unpack;
#X obj 267 278 sel 35 98;
#X msg 267 306 175;
#X obj 206 337 pack f 226 153 f;
#X msg 299 306 173;
#X obj 206 364 list tosymbol;
#X obj 119 431 outlet;
#X obj 119 206 else/router;
#X obj 143 256 route float;
#X obj 182 160 select -unicode;
#X msg 182 181 1;
#X obj 182 81 else/args -;
#X obj 182 60 loadbang;
#X obj 182 102 route bang;
#X obj 188 133 symbol;
#X connect 0 0 9 0;
#X connect 1 0 10 0;
#X connect 2 0 5 0;
#X connect 2 1 3 0;
#X connect 3 0 4 0;
#X connect 3 1 6 0;
#X connect 4 0 5 3;
#X connect 5 0 7 0;
#X connect 6 0 5 3;
#X connect 7 0 8 0;
#X connect 9 0 8 0;
#X connect 9 1 1 0;
#X connect 10 0 7 0;
#X connect 10 1 2 0;
#X connect 11 0 12 0;
#X connect 12 0 9 1;
#X connect 13 0 15 0;
#X connect 14 0 13 0;
#X connect 15 1 16 0;
#X connect 16 0 11 0;
#X restore 233 443 pd unicode;
#X obj 395 500 list;
#X obj 358 529 else/selector;
#X obj 233 403 t s s;
#X obj 290 341 r \$0-set-table;
#X obj 78 642 outlet;
#X obj 78 20 inlet;
#X obj 78 93 t b l;
#X obj 130 73 else/iterate;
#X obj 78 614 else/group;
#N canvas 162 143 450 300 list-flag 0;
#X msg 201 198 1;
#X obj 201 177 select -list;
#X obj 189 96 else/args -;
#X obj 189 75 loadbang;
#X obj 189 119 route bang;
#X obj 203 149 symbol;
#X obj 199 225 outlet;
#X connect 0 0 6 0;
#X connect 1 0 0 0;
#X connect 2 0 4 0;
#X connect 3 0 2 0;
#X connect 4 1 5 0;
#X connect 5 0 1 0;
#X restore 441 500 pd list-flag;
#X obj 130 118 else/spread 10 120;
#X obj 130 95 else/quantizer 0.5;
#X obj 252 337 * 2;
#X obj 182 145 expr last_\$0 = $f1 \; fmod($f1 \, 12) \; floor($f1/12 - 1) \; $f1 - last_\$0;
#X obj 280 239 s \$0-octave;
#N canvas 99 74 450 300 octave 0;
#X obj 167 141 f;
#X obj 167 164 + 1;
#X obj 142 141 f;
#X obj 142 164 - 1;
#X obj 142 101 sel B# Bx Cbb Cb, f 9;
#X obj 247 95 r \$0-octave;
#X obj 142 61 inlet;
#X obj 206 222 outlet;
#X connect 0 0 1 0;
#X connect 1 0 7 0;
#X connect 2 0 3 0;
#X connect 3 0 7 0;
#X connect 4 0 2 0;
#X connect 4 1 2 0;
#X connect 4 2 0 0;
#X connect 4 3 0 0;
#X connect 5 0 0 1;
#X connect 5 0 2 1;
#X connect 5 0 7 0;
#X connect 6 0 4 0;
#X restore 368 451 pd octave;
#X obj 233 500 else/format %s%d;
#X connect 0 0 19 0;
#X connect 1 0 0 0;
#X connect 1 1 29 0;
#X connect 2 1 3 0;
#X connect 3 0 1 1;
#X connect 4 0 2 0;
#X connect 5 0 4 1;
#X connect 6 0 5 0;
#X connect 7 0 8 0;
#X connect 8 0 4 1;
#X connect 9 0 10 0;
#X connect 10 0 1 1;
#X connect 11 0 1 1;
#X connect 12 0 10 0;
#X connect 13 0 8 0;
#X connect 14 0 8 0;
#X connect 15 0 11 0;
#X connect 16 0 17 0;
#X connect 16 0 33 0;
#X connect 17 0 18 1;
#X connect 18 0 25 0;
#X connect 19 0 16 0;
#X connect 19 1 32 0;
#X connect 20 0 0 3;
#X connect 22 0 23 0;
#X connect 23 0 25 0;
#X connect 23 1 24 0;
#X connect 24 0 28 0;
#X connect 25 0 21 0;
#X connect 26 0 18 2;
#X connect 27 1 30 0;
#X connect 28 0 27 0;
#X connect 29 0 0 1;
#X connect 30 1 1 0;
#X connect 30 2 31 0;
#X connect 30 3 4 0;
#X connect 32 0 17 1;
#X connect 33 0 18 0;
#X restore 57 132 pd convert;
#X connect 1 0 5 0;
#X connect 3 0 4 0;
#X connect 5 0 9 0;
#X connect 9 0 0 0;
