#N canvas 585 116 558 229 10;
#X obj 112 163 outlet;
#X obj 112 33 inlet;
#X obj 187 33 inlet;
#X obj 187 163 outlet;
#X text 288 114 Part of ELSE \; https://github.com/porres/pd-else;
#X text 290 95 Alexandre Torres Porres (2018);
#N canvas 289 38 604 848 monophonic 1;
#X obj 215 808 outlet;
#X obj 272 808 outlet;
#X obj 107 12 inlet;
#X obj 200 12 inlet;
#X obj 71 547 pack f 0;
#X msg 150 469 0;
#X obj 150 492 v i_\$0;
#X obj 144 288 symbol notes_\$0;
#X obj 107 269 symbol order_\$0;
#X obj 71 502 v last_\$0;
#X obj 107 205 select 0 1 2, f 19;
#X obj 144 338 array max;
#X obj 215 619 pack float float;
#X obj 212 338 v idx_\$0;
#X obj 348 332 sel 1;
#X obj 365 252 v low_\$0;
#X msg 331 259 0;
#X obj 144 363 > 0;
#X obj 144 392 sel 0 1;
#X obj 144 313 t b s;
#X obj 348 354 expr 1 \; low_\$0 = $f2 \; idx_\$0 = $f3;
#X obj 445 366 v note_\$0;
#X obj 316 329 f;
#X obj 215 783 unpack f f;
#X obj 80 475 r \$0-flush;
#X obj 71 447 trigger b b;
#X obj 215 562 expr last_\$0 = notes_\$0[idx_\$0] \; velocities_\$0[idx_\$0];
#X obj 215 533 sel 1;
#X obj 215 423 v on_\$0;
#X text 416 506 note off & new result;
#X obj 215 506 expr notes_\$0[idx_\$0] != last_\$0;
#X obj 215 448 sel 0 1;
#X text 387 475 note on == result;
#X obj 418 137 v voice_\$0;
#X obj 234 475 expr idx_\$0 == voice_\$0;
#X obj 348 289 expr note_\$0>0 && note_\$0<low_\$0 \; notes_\$0[$f1] \; $f1;
#X msg 365 231 128;
#X obj 181 230 trigger bang bang bang;
#X obj 215 595 - 1;
#X obj 107 117 expr mode_\$0 \; order_\$0[voice_\$0] = (i_\$0 = i_\$0+1) * on_\$0 \; notes_\$0[voice_\$0] = ($f2 + 1) * on_\$0 \; velocities_\$0[voice_\$0] = $f3 \; voice_\$0 = $f1 \; on_\$0 = $f3 > 0;
#X obj 71 526 - 1;
#X obj 245 255 else/loop 10;
#X obj 107 86 else/voices -retrig 1 10 1;
#X obj 107 40 pack float float;
#X obj 30 45 r \$0-clear;
#X obj 76 728 moses;
#X msg 103 750 \$1 0;
#X obj 76 706 lastvalue -1;
#X msg 145 611 -1;
#X obj 71 568 t b l;
#X obj 215 640 t l f;
#X obj 294 653 r legato_\$0;
#X obj 242 664 spigot;
#X obj 294 674 == 0;
#X connect 2 0 43 0;
#X connect 3 0 43 1;
#X connect 4 0 49 0;
#X connect 5 0 6 0;
#X connect 7 0 19 0;
#X connect 8 0 19 0;
#X connect 9 0 40 0;
#X connect 10 0 8 0;
#X connect 10 1 7 0;
#X connect 10 2 37 0;
#X connect 11 0 17 0;
#X connect 11 1 13 0;
#X connect 12 0 50 0;
#X connect 14 0 20 0;
#X connect 16 0 22 1;
#X connect 17 0 18 0;
#X connect 18 0 25 0;
#X connect 18 1 28 0;
#X connect 19 0 11 0;
#X connect 19 1 11 2;
#X connect 20 0 22 1;
#X connect 22 0 18 0;
#X connect 23 0 0 0;
#X connect 23 1 1 0;
#X connect 24 0 9 0;
#X connect 25 0 9 0;
#X connect 25 1 5 0;
#X connect 26 0 38 0;
#X connect 26 1 12 1;
#X connect 27 0 26 0;
#X connect 28 0 31 0;
#X connect 30 0 27 0;
#X connect 31 0 30 0;
#X connect 31 1 34 0;
#X connect 34 0 27 0;
#X connect 35 0 14 0;
#X connect 35 1 20 1;
#X connect 35 1 21 0;
#X connect 35 2 20 2;
#X connect 36 0 15 0;
#X connect 37 0 22 0;
#X connect 37 1 41 0;
#X connect 37 2 16 0;
#X connect 37 2 36 0;
#X connect 38 0 12 0;
#X connect 39 0 10 0;
#X connect 40 0 4 0;
#X connect 41 0 35 0;
#X connect 42 0 39 0;
#X connect 43 0 42 0;
#X connect 44 0 42 0;
#X connect 45 1 46 0;
#X connect 46 0 23 0;
#X connect 47 0 45 0;
#X connect 48 0 47 1;
#X connect 49 0 48 0;
#X connect 49 1 23 0;
#X connect 50 0 23 0;
#X connect 50 1 52 0;
#X connect 51 0 53 0;
#X connect 52 0 47 0;
#X connect 53 0 52 1;
#X restore 112 107 pd monophonic;
#N canvas 97 339 499 358 route 0;
#X obj 50 35 inlet;
#X obj 307 148 f \$0;
#X obj 112 311 outlet;
#X obj 192 107 clip 0 2;
#X obj 192 129 v mode_\$0;
#X obj 145 129 != 0;
#X obj 145 151 v legato_\$0;
#X obj 260 121 t b b;
#X msg 307 173 clear \; notes_\$1 const 0 \; velocities_\$1 const 0 \; order_\$1 const 0;
#X obj 53 215 moses 0;
#X obj 97 122 unpack;
#X obj 83 148 moses;
#X obj 110 172 pack;
#X obj 307 233 s \$0-clear;
#X obj 260 259 s \$0-flush;
#X obj 50 78 route float list legato mode flush clear glide, f 59;
#X obj 352 106 max 0;
#X obj 352 138 v glide_\$0;
#X connect 0 0 15 0;
#X connect 1 0 8 0;
#X connect 3 0 4 0;
#X connect 5 0 6 0;
#X connect 7 0 14 0;
#X connect 7 1 1 0;
#X connect 8 0 13 0;
#X connect 9 1 2 0;
#X connect 10 0 11 0;
#X connect 10 1 12 1;
#X connect 11 1 12 0;
#X connect 12 0 2 0;
#X connect 15 0 9 0;
#X connect 15 1 10 0;
#X connect 15 2 5 0;
#X connect 15 3 3 0;
#X connect 15 4 7 0;
#X connect 15 5 1 0;
#X connect 15 6 16 0;
#X connect 16 0 17 0;
#X restore 112 75 pd route;
#N canvas 548 226 684 318 init 0;
#X msg 72 192 0;
#X msg 111 192 1;
#X msg 150 192 2;
#X obj 111 229 v mode_\$0;
#N canvas 0 22 450 278 (subpatch) 0;
#X array notes_\$0 10 float 2;
#A color 0;
#A width 2;
#X coords 0 127 10 0 150 100 1 0 0;
#X restore 281 53 graph;
#N canvas 0 22 450 278 (subpatch) 0;
#X array velocities_\$0 10 float 2;
#A color 0;
#A width 2;
#X coords 0 127 10 0 150 100 1 0 0;
#X restore 436 53 graph;
#N canvas 0 22 450 278 (subpatch) 0;
#X array order_\$0 10 float 2;
#A color 0;
#A width 2;
#X coords 0 127 10 0 150 100 1 0 0;
#X restore 433 176 graph;
#X obj 257 181 != 0;
#X obj 257 208 v legato_\$0;
#X obj 45 70 else/args -;
#X obj 45 43 loadbang;
#X obj 45 123 t l b;
#X obj 84 123 t l b;
#X obj 123 123 t l b;
#X obj 45 93 route -last -high -low float list;
#X obj 201 177 unpack;
#X obj 201 206 max 0;
#X obj 201 238 v glide_\$0;
#X connect 0 0 3 0;
#X connect 1 0 3 0;
#X connect 2 0 3 0;
#X connect 7 0 8 0;
#X connect 9 0 14 0;
#X connect 10 0 9 0;
#X connect 11 0 15 0;
#X connect 11 1 0 0;
#X connect 12 0 15 0;
#X connect 12 1 1 0;
#X connect 13 0 15 0;
#X connect 13 1 2 0;
#X connect 14 0 11 0;
#X connect 14 1 12 0;
#X connect 14 2 13 0;
#X connect 14 3 15 0;
#X connect 14 4 15 0;
#X connect 15 0 16 0;
#X connect 15 1 7 0;
#X connect 16 0 17 0;
#X restore 31 85 pd init \; tables;
#N canvas 349 488 263 389 legato 0;
#X obj 61 33 inlet;
#X obj 152 322 outlet;
#X obj 61 220 f;
#X obj 152 277 f;
#X obj 61 94 trigger bang float;
#X obj 117 203 v i_\$0;
#X obj 117 249 sel 1;
#X obj 61 148 sel 0 1;
#X obj 117 226 < 2;
#X obj 61 124 v legato_\$0;
#X obj 80 63 r \$0-velocity;
#X connect 0 0 4 0;
#X connect 2 0 1 0;
#X connect 3 0 1 0;
#X connect 4 0 9 0;
#X connect 4 1 2 1;
#X connect 4 1 3 1;
#X connect 5 0 8 0;
#X connect 6 0 3 0;
#X connect 7 0 2 0;
#X connect 7 1 5 0;
#X connect 8 0 6 0;
#X connect 9 0 7 0;
#X connect 10 0 4 0;
#X restore 187 134 pd legato;
#N canvas 785 236 333 414 glide 0;
#X obj 62 70 inlet;
#X obj 67 299 outlet;
#X obj 124 70 inlet;
#X obj 67 261 line 0 1;
#X obj 89 224 v glide_\$0;
#X obj 62 99 t f b;
#X obj 165 124 else/lastvalue;
#X obj 124 99 t f f;
#X obj 124 169 &&;
#X obj 124 146 != 0;
#X obj 89 198 sel 1;
#X obj 89 159 f;
#X obj 165 145 != 0;
#X connect 0 0 5 0;
#X connect 2 0 7 0;
#X connect 3 0 1 0;
#X connect 4 0 3 1;
#X connect 5 0 3 0;
#X connect 5 1 11 0;
#X connect 6 0 12 0;
#X connect 7 0 9 0;
#X connect 7 1 6 0;
#X connect 8 0 11 1;
#X connect 9 0 8 0;
#X connect 10 0 4 0;
#X connect 11 0 10 0;
#X connect 12 0 8 1;
#X restore 112 133 pd glide;
#X connect 1 0 7 0;
#X connect 2 0 6 1;
#X connect 6 0 10 0;
#X connect 6 1 9 0;
#X connect 6 1 10 1;
#X connect 7 0 6 0;
#X connect 9 0 3 0;
#X connect 10 0 0 0;
