#N canvas 596 144 541 255 10;
#X obj 92 53 inlet;
#X obj 92 179 outlet;
#X text 234 119 Part of ELSE \; https://github.com/porres/pd-else;
#X text 236 100 Alexandre Torres Porres (2017);
#X obj 92 119 else/hot;
#X obj 92 85 t f b;
#N canvas 832 232 319 272 sr 0;
#X obj 136 103 change;
#X msg 57 155 set \$1;
#X obj 136 205 outlet;
#X obj 231 46 inlet;
#X obj 136 135 spigot;
#X msg 231 93 1;
#X obj 57 130 spigot 1;
#X msg 102 101 0;
#X obj 136 79 else/sr~ -khz;
#X connect 0 0 6 0;
#X connect 0 0 4 0;
#X connect 1 0 2 0;
#X connect 3 0 5 0;
#X connect 4 0 2 0;
#X connect 5 0 4 1;
#X connect 6 0 7 0;
#X connect 6 0 1 0;
#X connect 7 0 6 1;
#X connect 8 0 0 0;
#X restore 137 90 pd sr -khz;
#X obj 92 150 else/op *;
#X connect 0 0 5 0;
#X connect 4 0 7 0;
#X connect 4 1 7 1;
#X connect 5 0 4 0;
#X connect 5 1 6 0;
#X connect 6 0 4 1;
#X connect 7 0 1 0;
