#N canvas 190 73 563 467 12;
#X obj 70 59 inlet;
#X obj 366 402 outlet;
#X text 260 124 Part of ELSE \; https://github.com/porres/pd-else;
#X text 262 105 Alexandre Torres Porres (2025);
#X obj 134 59 inlet;
#X obj 116 199 else/sort;
#X obj 116 173 else/unique;
#X obj 116 148 else/group, f 14;
#X obj 70 93 t b b a;
#X obj 116 121 bag;
#X obj 212 403 outlet;
#X obj 366 292 list length;
#X obj 212 242 trigger list list;
#X msg 263 363 symbol none;
#X obj 212 291 route list bang;
#X connect 0 0 8 0;
#X connect 4 0 9 1;
#X connect 5 0 12 0;
#X connect 6 0 5 0;
#X connect 7 0 6 0;
#X connect 7 1 12 0;
#X connect 8 0 7 0;
#X connect 8 1 9 0;
#X connect 8 2 9 0;
#X connect 9 0 7 0;
#X connect 11 0 1 0;
#X connect 12 0 14 0;
#X connect 12 1 11 0;
#X connect 13 0 10 0;
#X connect 14 0 10 0;
#X connect 14 1 13 0;
