#N canvas 681 101 539 572 10;
#X obj 83 264 b;
#X obj 83 65 inlet;
#X msg 133 229 1;
#X obj 133 257 atan;
#X obj 133 283 * 4;
#X obj 160 496 outlet;
#X obj 176 63 inlet;
#X text 314 303 Part of ELSE \; https://github.com/porres/pd-else;
#X text 316 284 Alexandre Torres Porres (2017);
#X msg 116 166 1;
#X obj 160 380 *;
#X obj 133 205 t b f;
#X obj 118 325 f;
#X obj 300 234 else/click;
#X obj 115 118 else/args;
#X obj 245 433 v;
#X obj 115 140 route bang float symbol list;
#X obj 103 95 else/lb 3;
#X obj 159 446 t f f;
#X obj 238 170 unpack;
#X connect 0 0 12 0;
#X connect 1 0 0 0;
#X connect 2 0 3 0;
#X connect 3 0 4 0;
#X connect 4 0 12 1;
#X connect 6 0 10 1;
#X connect 9 0 11 0;
#X connect 10 0 15 0;
#X connect 10 0 18 0;
#X connect 11 0 2 0;
#X connect 11 1 10 1;
#X connect 12 0 10 0;
#X connect 13 0 12 0;
#X connect 14 0 16 0;
#X connect 16 1 11 0;
#X connect 16 2 15 1;
#X connect 16 3 19 0;
#X connect 17 0 12 0;
#X connect 17 1 14 0;
#X connect 17 2 9 0;
#X connect 18 0 5 0;
#X connect 18 1 15 0;
#X connect 19 0 11 0;
#X connect 19 1 15 1;
