#N canvas 522 119 560 331 12;
#X obj 194 46 inlet;
#X obj 67 46 inlet;
#X obj 67 279 outlet;
#X obj 67 128 t f b;
#X obj 67 230 else/op +;
#N canvas 672 267 450 300 init 0;
#X obj 128 45 loadbang;
#X obj 128 73 else/args -;
#X obj 77 168 list split 1;
#X obj 77 203 else/swap2;
#X obj 144 231 max 1;
#X obj 144 260 s \$0-n;
#X obj 241 138 s \$0-range;
#X obj 165 131 t a b;
#X obj 197 180 s \$0-int;
#X msg 197 156 1;
#X obj 128 104 route -n -int float list;
#X connect 0 0 1 0;
#X connect 1 0 10 0;
#X connect 2 0 3 0;
#X connect 2 1 3 1;
#X connect 3 0 10 0;
#X connect 3 1 4 0;
#X connect 4 0 5 0;
#X connect 7 0 10 0;
#X connect 7 1 9 0;
#X connect 9 0 8 0;
#X connect 10 0 2 0;
#X connect 10 1 7 0;
#X connect 10 2 6 0;
#X connect 10 3 6 0;
#X restore 284 99 pd init;
#X text 275 161 Part of ELSE \; https://github.com/porres/pd-else;
#X text 277 142 Alexandre Torres Porres (2025);
#N canvas 226 213 423 348 route 0;
#X obj 218 168 else/swap2, f 13;
#X obj 218 132 unpack;
#X obj 218 101 t l b, f 8;
#X obj 218 205 route float;
#X obj 218 26 inlet;
#X obj 233 75 r \$0-range;
#X obj 218 271 outlet;
#X obj 306 269 outlet;
#X obj 324 211 * -1;
#X obj 55 26 inlet;
#X msg 55 126 n \$1;
#X obj 67 96 r \$0-n;
#X obj 139 116 != 0;
#X obj 139 150 s \$0-int;
#X obj 55 66 route n int, f 18;
#X obj 55 204 s \$0-set-n;
#X connect 0 0 3 0;
#X connect 0 1 8 0;
#X connect 0 1 7 0;
#X connect 1 0 0 0;
#X connect 1 1 0 1;
#X connect 2 0 1 0;
#X connect 2 1 0 1;
#X connect 3 0 6 0;
#X connect 4 0 2 0;
#X connect 5 0 2 0;
#X connect 8 0 6 0;
#X connect 9 0 14 0;
#X connect 10 0 15 0;
#X connect 11 0 10 0;
#X connect 12 0 13 0;
#X connect 14 0 10 0;
#X connect 14 1 12 0;
#X restore 141 138 pd route;
#N canvas 768 335 450 300 random 0;
#X obj 81 42 inlet;
#X obj 239 42 inlet;
#X obj 317 42 inlet;
#X obj 197 219 outlet;
#X obj 81 102 else/router;
#X obj 219 168 else/rand.f 0 0;
#X obj 196 130 else/rand.i 0 0;
#X obj 155 73 r \$0-int;
#X obj 341 83 r \$0-set-n;
#X connect 0 0 4 0;
#X connect 1 0 5 1;
#X connect 1 0 6 1;
#X connect 2 0 5 2;
#X connect 2 0 6 2;
#X connect 4 0 5 0;
#X connect 4 1 6 0;
#X connect 5 0 3 0;
#X connect 6 0 3 0;
#X connect 7 0 4 1;
#X connect 8 0 6 0;
#X connect 8 0 5 0;
#X restore 127 188 pd random;
#X f 10;
#X obj 67 85 route float;
#X connect 0 0 8 1;
#X connect 1 0 10 0;
#X connect 3 0 4 0;
#X connect 3 1 9 0;
#X connect 4 0 2 0;
#X connect 8 0 9 1;
#X connect 8 1 9 2;
#X connect 9 0 4 1;
#X connect 10 0 3 0;
#X connect 10 1 8 0;
