#N canvas 393 39 572 675 12;
#X obj 96 291 - 60;
#X obj 64 45 inlet;
#X obj 130 45 inlet;
#X obj 145 279 r \$0-base;
#X text 260 162 Part of ELSE \; https://github.com/porres/pd-else;
#X text 262 143 Alexandre Torres Porres (2020);
#X obj 244 331 r size_\$0;
#X obj 96 401 tabread \$0-scale;
#X obj 226 401 div;
#X obj 96 437 / 100;
#X obj 226 443 *;
#X obj 267 407 r max_\$0;
#X obj 208 480 +;
#X obj 244 365 - 1;
#X obj 96 331 trigger float float;
#N canvas 332 93 560 344 load-list 0;
#X obj 126 54 inlet;
#X obj 291 192 array define \$0-scale;
#X obj 126 198 array max \$0-scale;
#X obj 126 226 / 100;
#X obj 126 106 t b l l;
#X obj 149 166 array set \$0-scale;
#X obj 200 85 list length;
#X obj 200 139 array size \$0-scale;
#X obj 217 113 s size_\$0;
#X obj 126 257 s max_\$0;
#X connect 0 0 4 0;
#X connect 2 0 3 0;
#X connect 3 0 9 0;
#X connect 4 0 2 0;
#X connect 4 1 5 0;
#X connect 4 2 6 0;
#X connect 6 0 7 0;
#X connect 6 0 8 0;
#X restore 130 118 pd load-list;
#N canvas 496 133 576 426 init 0;
#X obj 208 361 outlet;
#X msg 300 261 0 100 200 300 400 500 600 700 800 900 1000 1100 1200, f 26;
#X obj 107 152 route bang list -base;
#X obj 203 183 list split 1;
#X obj 208 267 route bang;
#X obj 103 265 s \$0-base;
#X obj 107 88 else/lb 2, f 28;
#X obj 107 118 else/args -;
#X connect 1 0 0 0;
#X connect 2 1 0 0;
#X connect 2 2 3 0;
#X connect 3 0 5 0;
#X connect 3 1 4 0;
#X connect 4 1 0 0;
#X connect 6 0 7 0;
#X connect 6 1 1 0;
#X connect 7 0 2 0;
#X restore 152 85 pd init;
#X obj 64 618 outlet;
#X obj 254 480 r \$0-base;
#X obj 208 512 + 60;
#X obj 64 160 route list float base;
#X obj 160 197 s \$0-base;
#X obj 96 365 else/wrap2 0 12;
#X obj 96 251 else/rint;
#X obj 145 302 int;
#X obj 64 197 t b l;
#X obj 64 571 else/group;
#X obj 96 228 else/iterate;
#X connect 0 0 14 0;
#X connect 1 0 20 0;
#X connect 2 0 15 0;
#X connect 3 0 24 0;
#X connect 6 0 13 0;
#X connect 7 0 9 0;
#X connect 8 0 10 0;
#X connect 9 0 12 0;
#X connect 10 0 12 1;
#X connect 11 0 10 1;
#X connect 12 0 19 0;
#X connect 13 0 8 1;
#X connect 13 0 22 2;
#X connect 14 0 22 0;
#X connect 14 1 8 0;
#X connect 16 0 15 0;
#X connect 18 0 19 1;
#X connect 19 0 26 0;
#X connect 20 0 25 0;
#X connect 20 1 25 0;
#X connect 20 2 21 0;
#X connect 22 0 7 0;
#X connect 23 0 0 0;
#X connect 24 0 0 1;
#X connect 25 0 26 0;
#X connect 25 1 27 0;
#X connect 26 0 17 0;
#X connect 27 0 23 0;
