#N canvas 216 105 449 239 10;
#X text 225 115 Part of ELSE \; https://github.com/porres/pd-else;
#X text 227 96 Alexandre Torres Porres (2017);
#X obj 86 37 inlet;
#X obj 86 164 outlet;
#X obj 86 134 *;
#X obj 86 103 else/hot;
#N canvas 405 147 261 223 sr 0;
#X obj 80 71 change;
#X obj 80 47 else/sr~ -ms;
#X obj 80 95 else/nmess 1;
#X msg 80 118 set \$1;
#X obj 149 159 outlet;
#X obj 193 18 inlet;
#X obj 161 129 spigot;
#X msg 209 87 1;
#X connect 0 0 2 0;
#X connect 1 0 0 0;
#X connect 2 0 3 0;
#X connect 2 1 6 0;
#X connect 3 0 4 0;
#X connect 5 0 7 0;
#X connect 6 0 4 0;
#X connect 7 0 6 1;
#X restore 131 81 pd sr -ms;
#X obj 84 67 t f b;
#X connect 2 0 7 0;
#X connect 4 0 3 0;
#X connect 5 0 4 0;
#X connect 5 1 4 1;
#X connect 6 0 5 1;
#X connect 7 0 5 0;
#X connect 7 1 6 0;
