#N canvas 477 91 581 475 12;
#X obj 64 404 outlet;
#X obj 83 34 inlet;
#X obj 184 404 outlet;
#N canvas 402 277 696 469 score 0;
#X msg 236 165 close;
#X obj 112 25 inlet;
#X obj 478 246 s \$0-text;
#X obj 446 128 list;
#X obj 446 187 moses;
#X msg 478 217 line \$1;
#X obj 293 253 text define \$0-score;
#X f 22;
#X obj 446 157 text search \$0-score;
#N canvas 386 71 751 358 init 0;
#X obj 92 284 outlet;
#X msg 170 217 \$1 file not found;
#X obj 170 247 print [score];
#X msg 92 232 read \$1;
#X obj 92 183 file which;
#X obj 92 150 list append 1;
#X obj 92 81 else/args -;
#X obj 529 185 else/canvas.setname \$0-parent 1 1, f 19;
#X obj 408 118 text tolist \$0-score, f 22;
#X obj 348 90 savestate;
#X obj 408 174 spigot;
#X obj 447 149 r \$0-keep;
#X obj 347 229 text fromlist \$0-score;
#N canvas 627 129 617 440 route-flags 0;
#X obj 173 68 inlet;
#X obj 71 187 route bang;
#X msg 170 265 1;
#X obj 170 291 s \$0-keep;
#X obj 179 166 route bang;
#X msg 256 264 1;
#X obj 256 292 s \$0-loop;
#X obj 138 215 t a b;
#X obj 246 206 t a b;
#X obj 483 356 outlet;
#X obj 416 146 route bang;
#X obj 173 108 route -k -loop -speed;
#X obj 333 295 s \$0-speed;
#X obj 333 258 / 100;
#X obj 339 207 route bang;
#X obj 299 157 list split 1;
#X connect 0 0 11 0;
#X connect 1 0 2 0;
#X connect 1 1 7 0;
#X connect 2 0 3 0;
#X connect 4 0 5 0;
#X connect 4 1 8 0;
#X connect 5 0 6 0;
#X connect 7 0 11 0;
#X connect 7 1 2 0;
#X connect 8 0 11 0;
#X connect 8 1 5 0;
#X connect 10 1 9 0;
#X connect 11 0 1 0;
#X connect 11 1 4 0;
#X connect 11 2 15 0;
#X connect 11 3 10 0;
#X connect 13 0 12 0;
#X connect 14 1 11 0;
#X connect 15 0 13 0;
#X connect 15 1 14 0;
#X restore 92 115 pd route-flags;
#X obj 92 47 else/loadbanger 2;
#X obj 208 105 s \$0-speed;
#X msg 208 77 set 1;
#X connect 1 0 2 0;
#X connect 3 0 0 0;
#X connect 4 0 3 0;
#X connect 4 1 1 0;
#X connect 5 0 4 0;
#X connect 6 0 13 0;
#X connect 8 0 10 0;
#X connect 9 0 12 0;
#X connect 9 1 8 0;
#X connect 10 0 9 0;
#X connect 11 0 10 1;
#X connect 13 0 5 0;
#X connect 14 0 6 0;
#X connect 14 1 16 0;
#X connect 16 0 15 0;
#X restore 316 222 pd init;
#N canvas 406 163 286 477 open 0;
#X obj 136 215 pdcontrol;
#X msg 136 188 dir 1;
#X obj 136 241 pack s s;
#X obj 136 161 t b s, f 10;
#X obj 55 97 route bang, f 12;
#X obj 136 133 symbol;
#X obj 55 182 pdcontrol;
#X msg 55 155 dir 1;
#X obj 136 312 outlet;
#X obj 55 56 inlet;
#X msg 55 253 read \$1;
#X msg 136 267 read \$1/\$2;
#X obj 55 213 openpanel;
#X obj 63 128 r \$0-open;
#X connect 0 0 2 0;
#X connect 1 0 0 0;
#X connect 2 0 11 0;
#X connect 3 0 1 0;
#X connect 3 1 2 1;
#X connect 4 0 7 0;
#X connect 4 1 5 0;
#X connect 5 0 3 0;
#X connect 6 0 12 0;
#X connect 7 0 6 0;
#X connect 9 0 4 0;
#X connect 10 0 8 0;
#X connect 11 0 8 0;
#X connect 12 0 10 0;
#X connect 13 0 7 0;
#X restore 172 165 pd open;
#N canvas 454 38 286 477 save 0;
#X obj 136 215 pdcontrol;
#X msg 136 188 dir 1;
#X obj 136 241 pack s s;
#X obj 136 161 t b s, f 10;
#X obj 55 213 savepanel;
#X obj 55 97 route bang, f 12;
#X msg 55 253 write \$1;
#X obj 136 133 symbol;
#X obj 55 182 pdcontrol;
#X msg 55 155 dir 1;
#X obj 136 312 outlet;
#X msg 136 267 write \$1/\$2;
#X obj 55 56 inlet;
#X obj 64 128 r \$0-save;
#X connect 0 0 2 0;
#X connect 1 0 0 0;
#X connect 2 0 11 0;
#X connect 3 0 1 0;
#X connect 3 1 2 1;
#X connect 4 0 6 0;
#X connect 5 0 9 0;
#X connect 5 1 7 0;
#X connect 6 0 10 0;
#X connect 7 0 3 0;
#X connect 8 0 4 0;
#X connect 9 0 8 0;
#X connect 11 0 10 0;
#X connect 12 0 5 0;
#X connect 13 0 9 0;
#X restore 112 165 pd save;
#X obj 444 287 route updated;
#X msg 444 369 dirty 1;
#X obj 444 393 s \$0-parent;
#X obj 444 342 spigot;
#X obj 483 317 r \$0-keep;
#N canvas 222 137 455 351 click 0;
#N canvas 890 239 478 490 modifiers 0;
#X obj 99 110 else/keypress -toggle Shift_L, f 15;
#X obj 125 156 else/keypress -toggle Shift_R, f 15;
#X obj 99 228 ||;
#X obj 125 194 t b f;
#X obj 298 368 outlet;
#X obj 297 233 ||;
#X obj 319 196 t b f;
#X obj 297 115 else/keypress -toggle Alt_L, f 13;
#X obj 319 158 else/keypress -toggle Alt_R, f 13;
#X obj 297 257 * 2;
#X obj 297 290 t b f;
#X obj 298 330 +;
#X obj 54 296 r \$0-open;
#X obj 54 329 s clear-open-for-score;
#X obj 31 81 r clear-open-for-score;
#X obj 31 105 t f f;
#X obj 54 366 r \$0-save;
#X obj 54 399 s clear-save-for-score;
#X obj 240 102 t f f;
#X obj 240 78 r clear-save-for-score;
#X connect 0 0 2 0;
#X connect 1 0 3 0;
#X connect 2 0 11 0;
#X connect 3 0 2 0;
#X connect 3 1 2 1;
#X connect 5 0 9 0;
#X connect 6 0 5 0;
#X connect 6 1 5 1;
#X connect 7 0 5 0;
#X connect 8 0 6 0;
#X connect 9 0 10 0;
#X connect 10 0 11 0;
#X connect 10 1 11 1;
#X connect 11 0 4 0;
#X connect 12 0 13 0;
#X connect 14 0 15 0;
#X connect 15 0 2 0;
#X connect 15 1 2 1;
#X connect 16 0 17 0;
#X connect 18 0 5 0;
#X connect 18 1 5 1;
#X connect 19 0 18 0;
#X restore 229 106 pd modifiers;
#X obj 141 137 else/router 3;
#X msg 141 103 click;
#X obj 141 70 else/click;
#X obj 84 31 inlet;
#X obj 140 281 outlet;
#X obj 229 199 s \$0-save;
#X obj 185 235 s \$0-open;
#X obj 229 169 b;
#X obj 185 169 b;
#X connect 0 0 1 1;
#X connect 1 0 5 0;
#X connect 1 1 9 0;
#X connect 1 2 8 0;
#X connect 2 0 1 0;
#X connect 3 0 2 0;
#X connect 4 0 2 0;
#X connect 8 0 6 0;
#X connect 9 0 7 0;
#X restore 293 165 pd click;
#X obj 112 64 route save open show hide goto speed;
#X obj 416 80 s \$0-speed;
#X obj 416 55 / 100;
#X connect 0 0 6 0;
#X connect 1 0 17 0;
#X connect 3 0 7 0;
#X connect 4 1 5 0;
#X connect 5 0 2 0;
#X connect 6 1 11 0;
#X connect 7 0 4 0;
#X connect 8 0 6 0;
#X connect 9 0 6 0;
#X connect 10 0 6 0;
#X connect 11 0 14 0;
#X connect 12 0 13 0;
#X connect 14 0 12 0;
#X connect 15 0 14 1;
#X connect 16 0 6 0;
#X connect 17 0 10 0;
#X connect 17 1 9 0;
#X connect 17 2 16 0;
#X connect 17 3 0 0;
#X connect 17 5 19 0;
#X connect 19 0 18 0;
#X restore 178 97 pd score;
#X text 268 90 Part of ELSE \; https://github.com/porres/pd-else;
#X text 270 71 Alexandre Torres Porres (2022);
#N canvas 561 60 713 577 play 0;
#X obj 187 43 inlet;
#X obj 339 364 spigot;
#X obj 188 243 != 0;
#X msg 236 110 1;
#X msg 335 110 0;
#X msg 378 321 1;
#X obj 408 261 sel 1;
#X obj 408 235 v pause_\$0;
#X msg 385 173 1;
#X msg 331 173 0;
#X obj 408 501 outlet;
#X obj 534 501 outlet;
#X obj 385 206 &&;
#X obj 434 110 t b b;
#X obj 484 263 t b b;
#X msg 355 274 0;
#X obj 226 341 s \$0-rewind;
#X obj 158 342 t b b;
#X obj 188 311 sel 1 0, f 9;
#X obj 416 327 r \$0-next;
#X obj 218 366 s \$0-stop-delay;
#X obj 72 275 r \$0-restart;
#X obj 498 136 != 0;
#X obj 498 160 s \$0-loop;
#X obj 158 406 t b b;
#N canvas 512 99 548 776 goto 0;
#X obj 91 31 inlet;
#X obj 356 694 s \$0-goto-point;
#X obj 108 65 r \$0-goto;
#X obj 219 351 text sequence \$0-score, f 8;
#X obj 164 241 until;
#X msg 286 241 0;
#X msg 219 241 line 0;
#X obj 268 505 f;
#X obj 303 513 + 1;
#X obj 108 94 int;
#X obj 91 163 v goto_n_\$0;
#X obj 164 199 trigger bang bang float;
#X obj 303 572 select;
#X obj 378 338 f;
#X obj 413 346 + 1;
#X obj 356 645 f;
#X obj 164 265 t b b;
#X msg 164 296 step;
#X obj 108 123 max 1;
#X obj 71 229 moses 2;
#X obj 421 544 f;
#X obj 303 596 t b b b;
#X obj 421 589 s \$0-tempo;
#X obj 439 517 t f;
#X floatatom 352 231 5 0 0 0 - - - 0;
#X obj 172 417 else/route2 | tempo, f 12;
#X obj 117 337 v bar_\$0;
#X obj 117 296 - 1;
#X connect 0 0 10 0;
#X connect 2 0 9 0;
#X connect 3 0 25 0;
#X connect 3 1 4 1;
#X connect 4 0 16 0;
#X connect 5 0 7 1;
#X connect 5 0 13 1;
#X connect 6 0 3 0;
#X connect 7 0 8 0;
#X connect 8 0 7 1;
#X connect 8 0 12 0;
#X connect 9 0 18 0;
#X connect 10 0 19 0;
#X connect 11 0 4 0;
#X connect 11 1 5 0;
#X connect 11 1 6 0;
#X connect 11 2 12 1;
#X connect 11 2 24 0;
#X connect 12 0 21 0;
#X connect 13 0 14 0;
#X connect 13 0 15 1;
#X connect 14 0 13 1;
#X connect 15 0 1 0;
#X connect 16 0 17 0;
#X connect 16 1 13 0;
#X connect 17 0 3 0;
#X connect 18 0 10 0;
#X connect 19 1 11 0;
#X connect 19 1 27 0;
#X connect 20 0 22 0;
#X connect 21 0 15 0;
#X connect 21 1 20 0;
#X connect 21 2 4 1;
#X connect 23 0 20 1;
#X connect 25 0 7 0;
#X connect 25 1 23 0;
#X connect 27 0 26 0;
#X restore 219 408 pd goto;
#X obj 623 186 s \$0-goto;
#X obj 187 78 route float bang start stop pause continue play loop bar;
#X obj 188 276 t f f;
#X connect 0 0 27 0;
#X connect 1 0 10 0;
#X connect 2 0 12 1;
#X connect 2 0 28 0;
#X connect 3 0 2 0;
#X connect 4 0 2 0;
#X connect 5 0 1 1;
#X connect 5 0 12 1;
#X connect 6 0 5 0;
#X connect 6 0 10 0;
#X connect 7 0 6 0;
#X connect 8 0 12 0;
#X connect 9 0 12 0;
#X connect 12 0 7 0;
#X connect 13 0 9 0;
#X connect 13 1 7 0;
#X connect 14 0 5 0;
#X connect 14 1 10 0;
#X connect 15 0 1 1;
#X connect 17 0 24 0;
#X connect 17 1 16 0;
#X connect 18 0 17 0;
#X connect 18 1 9 0;
#X connect 18 1 16 0;
#X connect 18 1 20 0;
#X connect 19 0 1 0;
#X connect 21 0 17 0;
#X connect 22 0 23 0;
#X connect 24 0 10 0;
#X connect 24 1 25 0;
#X connect 27 0 2 0;
#X connect 27 1 3 0;
#X connect 27 2 3 0;
#X connect 27 3 4 0;
#X connect 27 4 8 0;
#X connect 27 4 15 0;
#X connect 27 5 13 0;
#X connect 27 6 14 0;
#X connect 27 7 22 0;
#X connect 27 8 26 0;
#X connect 27 9 11 0;
#X connect 28 0 18 0;
#X connect 28 1 1 1;
#X restore 83 67 pd play;
#X f 14;
#X obj 288 404 outlet;
#X obj 288 183 r \$0-end;
#X text 176 427 score data;
#X text 62 427 event data;
#X text 292 427 end;
#N canvas 719 122 418 506 text-get 0;
#X obj 107 130 until;
#X obj 139 99 r \$0-stop;
#X obj 160 204 + 1;
#X msg 221 115 0;
#X obj 223 293 sel 2;
#X obj 107 203 float;
#X obj 165 303 != 2;
#X obj 126 332 spigot;
#X obj 126 409 outlet;
#X obj 107 28 inlet;
#X obj 221 84 r \$0-rewind;
#X obj 281 320 s \$0-stop;
#X obj 223 377 s \$0-rewind;
#X obj 277 292 v type_\$0;
#X obj 31 130 r \$0-rest;
#X obj 221 188 s \$0-route;
#X obj 107 263 text get \$0-score;
#X obj 107 234 t f f;
#X obj 162 234 v line_n_\$0;
#X obj 233 146 r \$0-goto-point;
#X obj 223 320 t b b;
#X obj 223 346 s \$0-end;
#X connect 0 0 5 0;
#X connect 1 0 0 1;
#X connect 2 0 5 1;
#X connect 3 0 5 1;
#X connect 3 0 15 0;
#X connect 4 0 20 0;
#X connect 4 1 13 0;
#X connect 5 0 2 0;
#X connect 5 0 17 0;
#X connect 6 0 7 1;
#X connect 7 0 8 0;
#X connect 9 0 0 0;
#X connect 10 0 3 0;
#X connect 14 0 5 0;
#X connect 16 0 7 0;
#X connect 16 1 4 0;
#X connect 16 1 6 0;
#X connect 17 0 16 0;
#X connect 17 1 18 0;
#X connect 19 0 5 1;
#X connect 20 0 21 0;
#X connect 20 1 11 0;
#X restore 83 97 pd text-get;
#X obj 64 182 r \$0-event-data;
#X obj 184 183 r \$0-data-out;
#N canvas 770 146 335 256 parse 0;
#X obj 194 95 list trim;
#X obj 89 95 list split 1;
#X obj 48 169 else/message;
#N canvas 524 56 800 854 delay 0;
#X obj 140 203 - 1;
#X obj 140 274 t f f;
#X obj 172 305 -;
#X msg 190 274 0;
#X obj 190 240 r \$0-rewind;
#X obj 172 397 t b b;
#X obj 271 804 outlet;
#X obj 140 24 inlet;
#X obj 288 24 inlet;
#X obj 623 230 + 1;
#X msg 665 231 0;
#X obj 665 204 r \$0-rewind;
#X obj 46 199 r \$0-bar-n;
#X obj 140 244 +;
#X obj 541 481 s \$0-stop;
#X obj 509 511 s \$0-bar-n;
#X obj 509 452 t f b;
#X obj 204 551 else/nmess;
#X msg 271 521 1;
#X obj 50 466 v type_\$0;
#X obj 50 497 t f f;
#X obj 114 500 == 1;
#X obj 114 528 s \$0-route;
#X obj 50 595 s \$0-rest;
#X obj 73 565 s \$0-next;
#X obj 50 529 sel 1 0;
#X obj 50 383 r \$0-check-type;
#N canvas 328 38 884 831 get-tempo 0;
#X obj 405 17 inlet;
#X obj 247 372 -;
#X obj 215 341 t f f;
#X obj 215 314 * 60000;
#X obj 487 110 list split 2;
#X obj 487 194 list append;
#X obj 487 138 trigger bang list;
#X obj 487 168 v bpm_\$0;
#X obj 623 198 unpack f f f, f 18;
#X obj 141 174 else/add;
#X msg 279 340 0;
#X obj 29 17 inlet;
#X obj 510 345 s \$0-init;
#X obj 279 314 r \$0-init;
#X obj 29 142 else/router;
#X obj 141 85 r \$0-init;
#X msg 153 115 1;
#X obj 105 306 s \$0-finished;
#X obj 103 58 r \$0-finished;
#X msg 103 82 0;
#X obj 29 769 outlet;
#X obj 141 202 t f f;
#X obj 141 231 else/router;
#X obj 73 271 t f b;
#X obj 405 79 route float list, f 24;
#X obj 804 345 v Q_\$0;
#X obj 697 345 v ln_Q_\$0;
#X obj 590 345 v T_\$0;
#X obj 767 199 v N_\$0;
#X obj 684 227 v S2_\$0;
#X obj 623 227 v S1_\$0;
#X obj 215 205 expr $f1 <= N_\$0;
#X obj 215 258 expr T_\$0 / ln_Q_\$0 * ln(($f1 * ln_Q_\$0 / (T_\$0 * S1_\$0 ))+1), f 21;
#X text 192 107 considering tempos that sum up to N exactly, f 11;
#X msg 481 443 tempo \$1;
#X obj 752 256 v delta_\$0;
#X obj 487 288 sel 1;
#X obj 487 224 t b l;
#X obj 487 256 expr (delta_\$0 = S2_\$0 - S1_\$0) != 0;
#X obj 487 315 t b b b;
#N canvas 860 81 490 523 beats 0;
#X obj 132 22 inlet;
#X obj 203 335 -;
#X obj 171 304 t f f;
#X obj 171 275 * 60000;
#X msg 239 335 0;
#X obj 239 308 r \$0-init;
#X obj 171 219 expr T_\$0 / ln_Q_\$0 * ln(($f1 * ln_Q_\$0 / (T_\$0 * S1_\$0 ))+1), f 21;
#X obj 203 108 r N_\$0;
#X obj 150 84 r \$0-init;
#X obj 132 140 f;
#X obj 171 149 + 1;
#X obj 171 180 moses;
#X obj 203 142 + 1;
#X obj 343 183 v S2_\$0;
#X msg 150 108 0;
#X obj 120 375 delay;
#X obj 203 375 else/bpm;
#X obj 367 230 v bpm_\$0;
#X obj 407 469 outlet;
#X obj 343 150 b;
#X obj 343 470 outlet;
#X obj 120 409 s \$0-next-beat;
#X obj 144 52 r \$0-next-beat;
#X obj 45 288 r \$0-stop-delay;
#X msg 45 322 stop;
#X connect 0 0 9 0;
#X connect 1 0 15 0;
#X connect 1 0 16 0;
#X connect 2 0 1 1;
#X connect 2 1 1 0;
#X connect 3 0 2 0;
#X connect 4 0 1 1;
#X connect 5 0 4 0;
#X connect 6 0 3 0;
#X connect 7 0 12 0;
#X connect 8 0 14 0;
#X connect 9 0 10 0;
#X connect 10 0 9 1;
#X connect 10 0 11 0;
#X connect 11 0 6 0;
#X connect 11 1 19 0;
#X connect 12 0 11 1;
#X connect 13 0 17 0;
#X connect 13 0 18 0;
#X connect 13 0 20 0;
#X connect 14 0 9 1;
#X connect 15 0 21 0;
#X connect 16 0 18 0;
#X connect 19 0 13 0;
#X connect 22 0 9 0;
#X connect 23 0 24 0;
#X connect 24 0 15 0;
#X restore 487 379 pd beats;
#X obj 746 227 s N_\$0;
#X obj 481 476 s \$0-data-out;
#X obj 247 432 else/bpm;
#X obj 247 463 expr bpm_\$0 / $f1;
#X obj 73 347 expr $f1 - N_\$0, f 16;
#X obj 590 286 expr N_\$0 * ln_Q_\$0 / delta_\$0 \; ln(Q_\$0) \; S2_\$0/S1_\$0;
#X obj 215 404 sel 0;
#X msg 215 441 0;
#X obj 448 516 else/initmess 120;
#X obj 409 558 else/hot;
#X obj 409 592 * 1;
#X msg 409 623 tempo \$1 permin;
#X obj 485 557 r \$0-speed;
#X obj 422 50 r \$0-tempo;
#X connect 0 0 24 0;
#X connect 1 0 47 0;
#X connect 2 0 1 1;
#X connect 2 1 1 0;
#X connect 3 0 2 0;
#X connect 4 0 6 0;
#X connect 5 0 37 0;
#X connect 6 0 7 0;
#X connect 6 1 5 1;
#X connect 7 0 5 0;
#X connect 8 0 30 0;
#X connect 8 1 29 0;
#X connect 8 2 41 0;
#X connect 9 0 21 0;
#X connect 10 0 1 1;
#X connect 11 0 14 0;
#X connect 13 0 10 0;
#X connect 14 0 20 0;
#X connect 14 1 9 0;
#X connect 15 0 16 0;
#X connect 15 0 9 0;
#X connect 16 0 14 1;
#X connect 18 0 19 0;
#X connect 19 0 14 1;
#X connect 21 0 22 0;
#X connect 21 1 31 0;
#X connect 22 0 23 0;
#X connect 22 1 32 0;
#X connect 23 0 45 0;
#X connect 23 1 17 0;
#X connect 24 0 7 0;
#X connect 24 0 34 0;
#X connect 24 0 50 0;
#X connect 24 1 4 0;
#X connect 31 0 22 1;
#X connect 32 0 3 0;
#X connect 34 0 42 0;
#X connect 36 0 39 0;
#X connect 37 0 38 0;
#X connect 37 1 8 0;
#X connect 38 0 36 0;
#X connect 39 0 40 0;
#X connect 39 1 12 0;
#X connect 39 2 46 0;
#X connect 40 0 50 0;
#X connect 40 1 34 0;
#X connect 43 0 44 0;
#X connect 44 0 20 0;
#X connect 45 0 20 0;
#X connect 46 0 27 0;
#X connect 46 1 26 0;
#X connect 46 2 25 0;
#X connect 47 0 48 0;
#X connect 47 1 43 0;
#X connect 48 0 20 0;
#X connect 49 0 50 0;
#X connect 50 0 51 0;
#X connect 50 1 51 1;
#X connect 51 0 52 0;
#X connect 52 0 20 0;
#X connect 53 0 50 1;
#X connect 54 0 24 0;
#X restore 172 333 pd get-tempo;
#X obj 14 275 r \$0-stop-delay;
#X msg 14 299 stop;
#X obj 463 615 s \$0-data-out;
#X msg 463 588 bar \$1;
#X obj 665 263 v bar_\$0;
#X obj 463 561 v bar_\$0;
#X obj 509 429 f;
#X msg 527 391 0;
#X obj 527 364 r \$0-rewind;
#N canvas 186 236 340 403 check-timesig 0;
#X obj 109 75 inlet;
#X obj 109 121 v line_n_\$0;
#X obj 109 181 text get \$0-score;
#X obj 109 145 + 1;
#X obj 109 215 list trim;
#X obj 109 243 route timesig;
#X obj 109 278 b;
#X obj 109 317 s \$0-rest;
#X connect 0 0 1 0;
#X connect 1 0 3 0;
#X connect 2 0 4 0;
#X connect 3 0 2 0;
#X connect 4 0 5 0;
#X connect 5 0 6 0;
#X connect 6 0 7 0;
#X restore 539 303 pd check-timesig;
#X obj 464 268 trigger bang bang bang;
#X obj 285 591 t b b;
#X obj 366 697 else/message;
#X obj 447 657 r \$0-time-sig;
#X obj 386 728 else/changed;
#X obj 588 759 s \$0-data-out;
#X obj 172 362 delay;
#X obj 288 236 route beat tempo timesig |, f 34;
#X obj 366 301 else/frac2dec;
#X obj 340 376 / 0.25;
#X obj 378 347 else/frac2dec;
#X obj 547 430 + 4;
#X obj 367 58 else/routeall timesig beat, f 31;
#X obj 474 174 s \$0-data-out;
#X obj 555 87 r \$0-rewind;
#X obj 367 121 else/nmess 1;
#X obj 474 121 else/nmess 1;
#X obj 448 203 s \$0-time-sig;
#X obj 555 147 s \$0-beat-length;
#X obj 480 691 else/message;
#X obj 500 728 else/changed;
#X obj 581 694 r \$0-rewind;
#X obj 561 654 r \$0-beat-length;
#X obj 366 663 t b b;
#X obj 366 608 r \$0-rewind;
#X obj 285 632 else/nmess 1;
#X obj 500 762 route bang;
#X obj 288 169 t a a;
#X obj 393 375 s \$0-beat;
#X connect 0 0 13 0;
#X connect 1 0 2 1;
#X connect 1 1 2 0;
#X connect 2 0 27 0;
#X connect 3 0 2 1;
#X connect 4 0 3 0;
#X connect 5 0 19 0;
#X connect 5 1 17 0;
#X connect 7 0 0 0;
#X connect 8 0 65 0;
#X connect 9 0 32 0;
#X connect 10 0 32 0;
#X connect 11 0 10 0;
#X connect 12 0 1 0;
#X connect 12 0 13 1;
#X connect 13 0 1 0;
#X connect 16 0 15 0;
#X connect 16 1 14 0;
#X connect 16 1 18 0;
#X connect 17 0 39 0;
#X connect 17 1 6 0;
#X connect 18 0 17 1;
#X connect 19 0 20 0;
#X connect 20 0 25 0;
#X connect 20 1 21 0;
#X connect 21 0 22 0;
#X connect 25 0 23 0;
#X connect 25 1 24 0;
#X connect 26 0 19 0;
#X connect 27 0 44 0;
#X connect 28 0 29 0;
#X connect 29 0 44 0;
#X connect 31 0 30 0;
#X connect 32 0 9 0;
#X connect 33 0 31 0;
#X connect 34 0 16 0;
#X connect 34 0 49 0;
#X connect 35 0 34 1;
#X connect 36 0 35 0;
#X connect 38 0 34 0;
#X connect 38 1 37 0;
#X connect 38 2 32 0;
#X connect 39 0 63 0;
#X connect 39 1 33 0;
#X connect 40 0 42 0;
#X connect 41 0 40 1;
#X connect 42 0 64 0;
#X connect 44 0 5 0;
#X connect 45 0 48 0;
#X connect 45 1 27 1;
#X connect 45 2 46 0;
#X connect 45 3 38 0;
#X connect 46 0 47 0;
#X connect 47 0 49 1;
#X connect 48 0 47 1;
#X connect 48 0 66 0;
#X connect 49 0 34 1;
#X connect 50 0 53 0;
#X connect 50 1 54 0;
#X connect 52 0 54 1;
#X connect 52 0 53 1;
#X connect 53 0 51 0;
#X connect 53 1 55 0;
#X connect 54 0 51 0;
#X connect 54 1 56 0;
#X connect 57 0 58 0;
#X connect 58 0 64 0;
#X connect 59 0 58 1;
#X connect 59 0 42 1;
#X connect 60 0 57 1;
#X connect 61 0 40 0;
#X connect 61 1 57 0;
#X connect 62 0 63 1;
#X connect 63 1 61 0;
#X connect 64 1 43 0;
#X connect 65 0 45 0;
#X connect 65 1 50 0;
#X restore 48 136 pd delay;
#N canvas 716 220 599 488 route 0;
#X obj 201 38 inlet;
#X obj 53 401 outlet;
#X obj 162 401 outlet;
#X obj 88 201 list split 1;
#X obj 88 228 route float;
#X obj 201 261 list;
#X obj 201 149 t b l l;
#X obj 53 300 else/router, f 16;
#X obj 85 367 s \$0-stop;
#X obj 201 117 else/router;
#X obj 305 83 r \$0-route;
#X text 167 425 data;
#X text 58 425 event;
#X obj 275 149 trigger bang anything;
#X obj 53 340 t a b;
#X obj 275 182 s \$0-check-type;
#X obj 419 182 s \$0-event-data;
#X msg 88 258 0;
#X msg 162 255 1;
#X text 391 81 ????????;
#N canvas 319 56 481 389 check 0;
#X obj 105 57 inlet;
#X obj 105 98 list split 1, f 43;
#X obj 105 129 route float symbol, f 19;
#X obj 170 226 list append;
#N canvas 504 97 684 643 check 0;
#X obj 150 54 inlet;
#X obj 355 599 outlet;
#X obj 182 515 +;
#X obj 222 509 else/frac2dec;
#X obj 182 476 else/unmerge;
#X obj 333 147 list length;
#X obj 333 174 == 2;
#X obj 182 201 route float, f 5;
#X obj 182 176 else/unmerge, f 15;
#X obj 233 201 route symbol, f 6;
#X msg 182 240 1, f 1;
#X msg 214 240 0, f 1;
#X msg 272 240 0, f 1;
#X obj 182 356 expr $f1 && $f2 && $f3;
#X obj 108 385 else/router;
#X obj 233 267 else/frac2dec;
#X obj 233 294 route float;
#X msg 233 318 1, f 1;
#X msg 307 318 0, f 1;
#X obj 182 439 else/separate .;
#X obj 150 97 t s s;
#X obj 182 124 else/separate .;
#X obj 182 148 t l l;
#X obj 580 227 list length;
#X obj 580 254 == 2;
#X obj 429 281 route float, f 5;
#X obj 429 256 else/unmerge, f 15;
#X obj 480 281 route symbol, f 6;
#X msg 429 320 1, f 1;
#X msg 461 320 0, f 1;
#X msg 519 320 0, f 1;
#X obj 429 436 expr $f1 && $f2 && $f3;
#X obj 480 347 else/frac2dec;
#X obj 480 374 route float;
#X msg 480 398 1, f 1;
#X msg 554 398 0, f 1;
#X obj 429 228 t l l;
#X obj 429 204 else/separate +;
#X obj 355 424 t s s;
#X obj 355 470 else/router;
#X obj 462 526 +;
#X obj 502 526 else/frac2dec;
#X obj 462 497 else/unmerge;
#X obj 462 470 else/separate +;
#X obj 502 554 / 0.25;
#X obj 555 554 r \$0-beat;
#X connect 0 0 20 0;
#X connect 2 0 1 0;
#X connect 3 0 2 1;
#X connect 4 0 2 0;
#X connect 4 1 3 0;
#X connect 5 0 6 0;
#X connect 6 0 13 2;
#X connect 7 0 10 0;
#X connect 7 1 11 0;
#X connect 8 0 7 0;
#X connect 8 1 9 0;
#X connect 9 0 15 0;
#X connect 9 1 12 0;
#X connect 10 0 13 0;
#X connect 11 0 13 0;
#X connect 12 0 13 1;
#X connect 13 0 14 1;
#X connect 14 0 38 0;
#X connect 14 1 19 0;
#X connect 15 0 16 0;
#X connect 16 0 17 0;
#X connect 16 1 18 0;
#X connect 17 0 13 1;
#X connect 18 0 13 1;
#X connect 19 0 4 0;
#X connect 20 0 14 0;
#X connect 20 1 21 0;
#X connect 21 0 22 0;
#X connect 22 0 8 0;
#X connect 22 1 5 0;
#X connect 23 0 24 0;
#X connect 24 0 31 2;
#X connect 25 0 28 0;
#X connect 25 1 29 0;
#X connect 26 0 25 0;
#X connect 26 1 27 0;
#X connect 27 0 32 0;
#X connect 27 1 30 0;
#X connect 28 0 31 0;
#X connect 29 0 31 0;
#X connect 30 0 31 1;
#X connect 31 0 39 1;
#X connect 32 0 33 0;
#X connect 33 0 34 0;
#X connect 33 1 35 0;
#X connect 34 0 31 1;
#X connect 35 0 31 1;
#X connect 36 0 26 0;
#X connect 36 1 23 0;
#X connect 37 0 36 0;
#X connect 38 0 39 0;
#X connect 38 1 37 0;
#X connect 39 0 1 0;
#X connect 39 1 43 0;
#X connect 40 0 1 0;
#X connect 41 0 44 0;
#X connect 42 0 40 0;
#X connect 42 1 41 0;
#X connect 43 0 42 0;
#X connect 44 0 40 1;
#X connect 45 0 44 1;
#X restore 170 159 pd check \; convert;
#X obj 168 277 outlet;
#X connect 0 0 1 0;
#X connect 1 0 2 0;
#X connect 1 1 3 1;
#X connect 2 0 3 0;
#X connect 2 1 4 0;
#X connect 3 0 5 0;
#X connect 4 0 3 0;
#X restore 201 82 pd check;
#X connect 0 0 20 0;
#X connect 3 0 4 0;
#X connect 4 0 17 0;
#X connect 4 1 18 0;
#X connect 5 0 7 0;
#X connect 6 0 5 0;
#X connect 6 1 3 0;
#X connect 6 2 5 1;
#X connect 7 0 14 0;
#X connect 7 1 2 0;
#X connect 9 0 6 0;
#X connect 9 1 13 0;
#X connect 10 0 9 1;
#X connect 13 0 15 0;
#X connect 13 1 16 0;
#X connect 14 0 1 0;
#X connect 14 1 8 0;
#X connect 17 0 7 1;
#X connect 18 0 7 1;
#X connect 20 0 9 0;
#X restore 141 53 pd route;
#X obj 48 202 s \$0-event-data;
#X obj 141 23 inlet;
#X connect 0 0 3 1;
#X connect 1 0 3 0;
#X connect 1 1 2 1;
#X connect 2 0 5 0;
#X connect 3 0 2 0;
#X connect 4 0 1 0;
#X connect 4 1 0 0;
#X connect 6 0 4 0;
#X restore 83 127 pd parse;
#X obj 362 184 r \$0-loop;
#X obj 288 215 else/router;
#X obj 362 368 s \$0-restart;
#X obj 362 241 t b b;
#X obj 288 241 t b b;
#X msg 199 347 end;
#X obj 64 206 t b a;
#X msg 103 245 1;
#X obj 362 340 spigot;
#X obj 401 285 r \$0-rewind;
#X msg 401 312 0;
#X connect 1 0 6 0;
#X connect 6 0 12 0;
#X connect 6 1 3 0;
#X connect 8 0 17 0;
#X connect 12 0 15 0;
#X connect 13 0 22 0;
#X connect 14 0 2 0;
#X connect 16 0 17 1;
#X connect 17 0 20 0;
#X connect 17 1 19 0;
#X connect 19 0 24 0;
#X connect 19 1 7 0;
#X connect 20 0 7 0;
#X connect 20 1 21 0;
#X connect 21 0 2 0;
#X connect 22 0 23 0;
#X connect 22 1 0 0;
#X connect 23 0 24 1;
#X connect 24 0 18 0;
#X connect 25 0 26 0;
#X connect 26 0 24 1;
