#N canvas 827 239 844 509 12;
#X declare -lib else;
#X obj -317 -262 inlet;
#X obj -1 373 outlet;
#X obj 430 332 declare -lib else;
#X obj 182 -88 route size;
#X obj 312 -35 else/args;
#X obj 312 0 else/routetype list;
#X obj 248 -225 else/lb -init;
#X obj 442 92 else/routetype float;
#X obj -50 -83 r \$0-flags;
#X msg 442 48 \$1;
#X obj 0 0 circle-gui;
#X obj 248 -156 t b b, f 12;
#X obj 273 332 namecanvas \$0-cnv;
#X obj -317 -32 route send receive;
#N canvas 733 172 450 300 flags 0;
#X msg 211 100 size \$1;
#X msg 277 100 range \$1 \$2;
#X msg 368 100 xrange \$1 \$2;
#X msg 467 100 yrange \$1 \$2;
#X msg 566 100 line \$1;
#X msg 628 100 grid \$1;
#X msg 803 100 bgcolor1 \$1 \$2 \$3;
#X msg 930 100 bgcolor2 \$1 \$2 \$3;
#X msg 1061 100 fgcolor \$1 \$2 \$3;
#X msg 1179 100 clip \$1;
#X msg 1245 100 savestate \$1;
#X obj 211 145 t a;
#X obj 211 1 else/args -;
#X obj 211 178 s \$0-flags;
#X obj 211 -39 inlet;
#X obj 139 178 outlet;
#X obj 211 47 route -size -range -xrange -yrange -line -grid -bgcolor -bgcolor1 -bgcolor2 -fgcolor -clip -savestate -jump, f 148;
#X msg 1343 100 jump \$1;
#X connect 0 0 11 0;
#X connect 1 0 11 0;
#X connect 2 0 11 0;
#X connect 3 0 11 0;
#X connect 4 0 11 0;
#X connect 5 0 11 0;
#X connect 6 0 11 0;
#X connect 7 0 11 0;
#X connect 8 0 11 0;
#X connect 9 0 11 0;
#X connect 10 0 11 0;
#X connect 11 0 13 0;
#X connect 12 0 16 0;
#X connect 14 0 12 0;
#X connect 16 0 0 0;
#X connect 16 0 15 0;
#X connect 16 1 1 0;
#X connect 16 2 2 0;
#X connect 16 3 3 0;
#X connect 16 4 4 0;
#X connect 16 5 5 0;
#X connect 16 6 6 0;
#X connect 16 6 7 0;
#X connect 16 7 6 0;
#X connect 16 8 7 0;
#X connect 16 9 8 0;
#X connect 16 10 9 0;
#X connect 16 11 10 0;
#X connect 16 12 17 0;
#X connect 17 0 11 0;
#X restore 248 -125 pd flags;
#X obj 26 -83 r \$0-r-sym;
#X obj -203 35 s \$0-set-r-sym;
#X obj -317 35 s \$0-set-s-sym;
#X obj -266 -295 r \$0-set-r-sym;
#X obj 58 366 send;
#X obj 74 253 r \$0-set-s-sym;
#X obj -244 0 tosymbol;
#X obj -317 0 tosymbol;
#X obj 654 177 s \$0-set-r-sym;
#X obj 782 177 s \$0-set-s-sym;
#X obj 593 105 sel 0;
#X obj 609 138 sel empty;
#X obj 721 105 sel 0;
#X obj 737 138 sel empty;
#X msg 590 69 symbol \$20;
#X msg 681 69 symbol \$21;
#X obj 590 -42 list length;
#X obj 590 -10 > 19;
#X obj 568 -72 t a a;
#X obj 274 228 pack f \$0;
#X msg 274 273 \; \$2-cnv donecanvasdialog 1 -1 3 0 \$1 \$1 0 \$1 \$1 0 0 \;, f 70;
#X obj 248 -192 delay 40;
#X obj -266 -262 else/receiver;
#X obj 568 30 else/router;
#X obj -317 -206 t a a a, f 72;
#X text 766 68 extract send and receive symbols;
#X obj -161 396 s \$0-args;
#X obj 358 -114 r \$0-args;
#X obj 312 48 list prepend _state;
#X obj -5 146 else/routetype list;
#X obj 24 314 t a;
#X obj -177 262 list split 1;
#X obj -221 292 sel state;
#X obj -160 364 list;
#X obj -97 325 list;
#X obj -97 289 t b;
#X obj -5 185 t a a;
#X obj 444 -160 router;
#X msg 441 -131 shift \$1;
#X obj 439 -105 s shift;
#X obj 110 -83 r shift;
#X obj 444 -254 keyname;
#X obj 483 -226 sel Shift_L Shift_R;
#X msg 484 -200 0;
#X msg 530 -200 0;
#X msg 570 -200 -1;
#X connect 0 0 39 0;
#X connect 3 0 34 0;
#X connect 4 0 5 0;
#X connect 5 0 9 0;
#X connect 5 0 33 0;
#X connect 5 0 43 0;
#X connect 6 0 36 0;
#X connect 7 0 34 0;
#X connect 8 0 10 0;
#X connect 9 0 7 0;
#X connect 10 0 44 0;
#X connect 11 0 14 0;
#X connect 11 1 4 0;
#X connect 13 0 22 0;
#X connect 13 1 21 0;
#X connect 14 0 34 0;
#X connect 15 0 10 0;
#X connect 18 0 37 0;
#X connect 20 0 19 1;
#X connect 21 0 16 0;
#X connect 22 0 17 0;
#X connect 25 1 26 0;
#X connect 26 1 23 0;
#X connect 27 1 28 0;
#X connect 28 1 24 0;
#X connect 29 0 25 0;
#X connect 30 0 27 0;
#X connect 31 0 32 0;
#X connect 32 0 38 1;
#X connect 33 0 38 0;
#X connect 33 1 31 0;
#X connect 34 0 35 0;
#X connect 36 0 11 0;
#X connect 37 0 39 0;
#X connect 38 1 29 0;
#X connect 38 1 30 0;
#X connect 39 0 13 0;
#X connect 39 1 10 0;
#X connect 39 2 3 0;
#X connect 42 0 4 0;
#X connect 43 0 10 0;
#X connect 44 0 51 0;
#X connect 44 1 45 0;
#X connect 45 0 19 0;
#X connect 45 0 1 0;
#X connect 46 0 47 0;
#X connect 46 1 48 1;
#X connect 47 0 48 0;
#X connect 47 1 50 0;
#X connect 48 0 41 0;
#X connect 49 0 45 0;
#X connect 50 0 49 0;
#X connect 51 0 46 0;
#X connect 51 1 49 1;
#X connect 52 0 53 0;
#X connect 53 0 54 0;
#X connect 55 0 10 0;
#X connect 56 0 52 0;
#X connect 56 1 57 0;
#X connect 57 0 58 0;
#X connect 57 1 59 0;
#X connect 57 2 60 0;
#X connect 58 0 52 1;
#X connect 59 0 52 1;
#X connect 60 0 52 1;
#X coords 0 127 127 0 127 127 2 0 0;
