#N canvas 145 122 990 581 12;
#X declare -path else;
#X obj 258 517 outlet;
#X obj 711 254 else/canvas.setname \$0-patch 1, f 31;
#X obj 375 47 inlet;
#X text 706 317 Part of ELSE \; https://github.com/porres/pd-else;
#X obj 411 517 outlet;
#X obj 533 321 else/message;
#X obj 533 262 else/nmess;
#X msg 600 231 1;
#X obj 533 430 s \$0-patch;
#X msg 533 400 dirty 1;
#X obj 533 364 else/changed;
#X obj 458 260 t b b;
#X obj 753 217 declare -path else;
#X obj 487 220 keyname;
#X obj 149 172 keyname;
#X obj 156 301 symbol;
#X obj 149 269 sel 1;
#N canvas 110 74 450 300 filter 0;
#X obj 106 108 else/combine 10;
#X obj 106 131 route float;
#X obj 106 155 change;
#X obj 106 81 change;
#X obj 105 48 inlet;
#X obj 106 238 outlet;
#X obj 206 58 inlet;
#X connect 0 0 1 0;
#X connect 1 0 2 0;
#X connect 2 0 5 0;
#X connect 3 0 0 0;
#X connect 4 0 3 0;
#X connect 6 0 3 0;
#X restore 156 366 pd filter;
#X obj 195 270 spigot;
#X obj 149 205 spigot;
#X obj 156 334 else/equal -1;
#X obj 411 472 symbol;
#X obj 156 471 sel 1;
#X obj 556 125 != 0;
#X text 708 298 Alexandre Torres Porres (2023);
#X obj 156 438 else/router 2 0;
#X obj 389 169 route bang;
#X obj 375 96 route set query learn toggle, f 40;
#N canvas 605 86 460 551 save 0;
#X obj 293 169 else/message;
#X obj 283 74 inlet;
#X obj 185 251 list trim;
#X obj 202 74 inlet;
#X obj 202 213 else/message;
#X obj 153 213 t a a;
#X obj 252 454 outlet;
#X obj 185 281 route bang;
#X msg 185 310 none;
#X obj 97 74 inlet;
#X obj 96 229 symbol;
#X obj 27 369 s \$0-set;
#X obj 96 370 s \$0-save;
#X connect 0 0 4 1;
#X connect 1 0 0 1;
#X connect 1 0 4 1;
#X connect 1 0 5 0;
#X connect 2 0 7 0;
#X connect 3 0 4 0;
#X connect 4 0 2 0;
#X connect 5 0 12 0;
#X connect 5 0 11 0;
#X connect 5 1 2 0;
#X connect 7 0 8 0;
#X connect 7 1 6 0;
#X connect 8 0 6 0;
#X connect 9 0 0 1;
#X connect 9 0 10 0;
#X connect 10 0 11 0;
#X connect 10 0 12 0;
#X restore 411 386 pd save;
#X obj 234 214 else/canvas.edit 1;
#X obj 234 241 == 0;
#X obj 243 304 r \$0-set;
#X obj 601 293 s \$0-set;
#N canvas 279 74 646 505 init 0;
#X obj 191 57 loadbang;
#X obj 191 131 else/args;
#X msg 416 302 1;
#X obj 272 189 list trim;
#X obj 273 267 route symbol;
#X obj 191 160 route symbol;
#X obj 272 215 route -toggle;
#X obj 273 332 s \$0-set;
#X obj 217 94 r \$0-save;
#X obj 272 241 trigger anything bang;
#X obj 416 396 outlet;
#X connect 0 0 1 0;
#X connect 1 0 5 0;
#X connect 2 0 10 0;
#X connect 3 0 6 0;
#X connect 4 0 7 0;
#X connect 5 0 7 0;
#X connect 5 1 3 0;
#X connect 6 0 9 0;
#X connect 8 0 1 0;
#X connect 9 0 4 0;
#X connect 9 1 2 0;
#X restore 258 357 pd init;
#X obj 312 167 s \$0-save;
#X connect 2 0 27 0;
#X connect 5 0 28 2;
#X connect 5 0 10 0;
#X connect 6 0 5 0;
#X connect 6 0 32 0;
#X connect 7 0 6 1;
#X connect 9 0 8 0;
#X connect 10 0 9 0;
#X connect 11 0 5 0;
#X connect 11 1 5 1;
#X connect 13 1 6 0;
#X connect 14 0 19 0;
#X connect 14 1 18 0;
#X connect 15 0 20 0;
#X connect 16 0 15 0;
#X connect 16 1 17 1;
#X connect 17 0 25 0;
#X connect 18 0 15 1;
#X connect 19 0 16 0;
#X connect 20 0 17 0;
#X connect 21 0 4 0;
#X connect 22 0 0 0;
#X connect 23 0 25 1;
#X connect 25 0 22 0;
#X connect 25 1 0 0;
#X connect 26 0 11 0;
#X connect 26 1 28 0;
#X connect 27 0 26 0;
#X connect 27 0 34 0;
#X connect 27 1 28 1;
#X connect 27 2 7 0;
#X connect 27 3 23 0;
#X connect 28 0 10 1;
#X connect 28 0 21 0;
#X connect 29 0 30 0;
#X connect 30 0 18 1;
#X connect 30 0 19 1;
#X connect 31 0 20 1;
#X connect 33 0 25 1;
