#N canvas 522 119 593 300 12;
#X declare -path else;
#X obj 218 59 inlet;
#X obj 129 59 inlet;
#X obj 51 59 inlet;
#N canvas 332 105 445 466 guts 0;
#X obj 158 184 unpack f f f;
#X obj 101 251 until;
#X obj 78 367 else/group;
#X msg 287 223 *;
#X msg 252 222 +;
#X obj 178 325 else/op;
#X obj 78 409 outlet;
#X obj 78 18 inlet;
#X obj 264 163 != 0;
#X obj 264 187 sel 0 1;
#X obj 101 224 v n_\$0;
#X obj 245 294 r \$0-step;
#X obj 140 282 f;
#X obj 78 85 route bang list ratio;
#X obj 126 120 t b l;
#X obj 158 235 f;
#X obj 78 167 t b b b;
#N canvas 529 141 420 330 init 0;
#X obj 97 45 loadbang;
#X obj 97 80 else/args -;
#X obj 97 124 route -r, f 17;
#X obj 97 161 t a b;
#X obj 129 192 s \$0-ratio;
#X obj 97 223 route bang;
#X obj 213 266 s \$0-args;
#X connect 0 0 1 0;
#X connect 1 0 2 0;
#X connect 2 0 3 0;
#X connect 2 1 6 0;
#X connect 3 0 5 0;
#X connect 3 1 4 0;
#X connect 5 1 6 0;
#X restore 331 120 pd init;
#X obj 328 188 r \$0-ratio;
#X obj 173 156 r \$0-args;
#X connect 0 0 15 0;
#X connect 0 1 5 1;
#X connect 0 2 10 0;
#X connect 1 0 12 0;
#X connect 2 0 6 0;
#X connect 3 0 5 0;
#X connect 4 0 5 0;
#X connect 5 0 12 1;
#X connect 7 0 13 0;
#X connect 8 0 9 0;
#X connect 9 0 4 0;
#X connect 9 1 3 0;
#X connect 10 0 1 0;
#X connect 11 0 5 1;
#X connect 12 0 2 0;
#X connect 12 0 5 0;
#X connect 13 0 16 0;
#X connect 13 1 14 0;
#X connect 13 2 8 0;
#X connect 14 0 16 0;
#X connect 14 1 0 0;
#X connect 15 0 12 1;
#X connect 16 0 2 0;
#X connect 16 1 10 0;
#X connect 16 2 15 0;
#X connect 18 0 3 0;
#X connect 19 0 0 0;
#X restore 51 129 pd guts;
#X obj 218 129 v n_\$0;
#X obj 129 129 s \$0-step;
#X obj 51 223 outlet;
#X text 295 162 Part of ELSE \; https://github.com/porres/pd-else;
#X obj 335 90 declare -path else;
#X text 297 143 Alexandre Torres Porres (2023);
#X connect 0 0 4 0;
#X connect 1 0 5 0;
#X connect 2 0 3 0;
#X connect 3 0 6 0;
