#N canvas 519 74 650 396 12;
#X declare -path else;
#X obj 377 215 setdsp~;
#X obj 428 28 declare -path else;
#X obj 96 235 trig.delay~ 1000;
#X obj 96 278 trig2bang~;
#X obj 96 153 bng 19 250 50 0 empty empty empty 0 -10 0 12 #dfdfdf #000000 #000000;
#X obj 96 184 float2imp~;
#X obj 96 312 bng 21 250 50 0 empty empty empty 0 -10 0 12 #dfdfdf #000000 #000000;
#X obj 479 193 tgl 21 0 empty empty empty 0 -10 0 12 #dfdfdf #000000 #000000 0 1;
#X obj 479 225 sig~;
#X obj 479 292 numbox~ 6 12 100 #C0C0C4 #440008 10 0 0 0;
#X obj 479 256 gatedelay~ 500;
#X text 355 69 The [gatedelay~] object delays the gate on value \, but the gate off value comes out right away (you can comnine it with [gatehold~] and [gaterelease~] for more complex gate management., f 34;
#X obj 513 336 gatedelay;
#X text 392 329 there's also a control version, f 15;
#X text 31 30 The [trig.delay~] delays an impulse trigger. By default \, new impulses before the delayed trigger is output reset the delay \, but you can set to ignore mode in which they get ingored., f 42;
#X msg 205 190 ignore \$1;
#X obj 205 159 tgl 19 0 empty empty empty 0 -10 0 12 #dfdfdf #000000 #000000 0 1;
#X connect 2 0 3 0;
#X connect 3 0 6 0;
#X connect 4 0 5 0;
#X connect 5 0 2 0;
#X connect 7 0 8 0;
#X connect 8 0 10 0;
#X connect 10 0 9 0;
#X connect 15 0 2 0;
#X connect 16 0 15 0;
