#N canvas 639 80 680 548 12;
#N canvas 243 43 668 491 preset 0;
#X obj 125 121 else/sender 1 \\\$0-presets;
#X msg 125 86 name \$1;
#X obj 90 171 else/receiver;
#X obj 123 215 route list;
#N canvas 468 182 491 352 id-name-init 0;
#X obj 165 113 + 1;
#X obj 257 100 else/dollsym 1;
#X obj 141 80 value;
#X obj 141 252 outlet;
#X obj 141 51 else/loadbanger 2;
#X obj 141 201 else/dollsym 1;
#X obj 257 76 symbol vca-id_\\\$0;
#X obj 141 166 makefilename \\\$0-vca-%d;
#X connect 0 0 2 0;
#X connect 1 0 2 1;
#X connect 2 0 0 0;
#X connect 2 0 7 0;
#X connect 4 0 2 0;
#X connect 4 1 6 0;
#X connect 5 0 3 0;
#X connect 6 0 1 0;
#X connect 7 0 5 0;
#X restore 90 39 pd id-name-init;
#X obj 123 247 else/dispatch \$0-set-bpm \$0-set-mul \$0-set-run \$0-set-step1 \$0-set-step2 \$0-set-step3 \$0-set-step4 \$0-set-step5 \$0-set-step6 \$0-set-step7 \$0-set-step8 \$0-trig1-set \$0-trig2-set \$0-trig3-set \$0-trig4-set \$0-trig5-set \$0-trig6-set \$0-trig7-set \$0-trig8-set, f 65;
#X obj 90 321 else/var \$0-bpm \$0-mul \$0-run \$0-step1 \$0-step2 \$0-step3 \$0-step4 \$0-step5 \$0-step6 \$0-step7 \$0-step8 \$0-trig1 \$0-trig2 \$0-trig3 \$0-trig4 \$0-trig5 \$0-trig6 \$0-trig7 \$0-trig8, f 44;
#X connect 1 0 0 0;
#X connect 2 0 3 0;
#X connect 2 0 6 0;
#X connect 3 0 5 0;
#X connect 4 0 1 0;
#X connect 4 0 2 0;
#X restore 337 347 pd preset;
#N canvas 724 353 746 335 init-savestate 0;
#X obj 147 60 savestate;
#X obj 49 125 list;
#X obj 49 43 loadbang;
#X obj 99 120 route list;
#X obj 99 94 list trim;
#X obj 49 171 else/default 60 4 0 0 0 0 0 0 0 0 0 1 1 1 1 1 1 1 1;
#X obj 49 222 else/dispatch \$0-set-bpm \$0-set-mul \$0-set-run \$0-set-step1 \$0-set-step2 \$0-set-step3 \$0-set-step4 \$0-set-step5 \$0-set-step6 \$0-set-step7 \$0-set-step8 \$0-trig1-set \$0-trig2-set \$0-trig3-set \$0-trig4-set \$0-trig5-set \$0-trig6-set \$0-trig7-set \$0-trig8-set, f 64;
#X obj 207 92 else/var \$0-bpm \$0-mul \$0-run \$0-step1 \$0-step2 \$0-step3 \$0-step4 \$0-step5 \$0-step6 \$0-step7 \$0-step8 \$0-trig1 \$0-trig2 \$0-trig3 \$0-trig4 \$0-trig5 \$0-trig6 \$0-trig7 \$0-trig8, f 44;
#X connect 0 0 4 0;
#X connect 0 1 7 0;
#X connect 1 0 5 0;
#X connect 2 0 1 0;
#X connect 3 0 1 1;
#X connect 4 0 3 0;
#X connect 5 0 6 0;
#X connect 7 0 0 0;
#X restore 279 314 pd init-savestate;
#N canvas 200 115 347 203 GUI 0;
#X restore 277 347 pd GUI;
#N canvas 407 88 591 511 (subpatch) 1;
#X obj 112 112 cnv 15 220 130 empty empty empty 20 12 0 14 #dbdbdb #373737 0;
#X floatatom 267 174 5 0 0 0 - \$0-set-bpm \$0-bpm 16;
#X text 239 176 BPM;
#X obj 160 167 tgl 25 0 \$0-run \$0-set-run empty 0 -10 0 12 #202020 #ffffff #ffffff 0 1;
#X text 132 171 RUN;
#X obj 160 196 bng 25 250 50 0 \$0-reset \$0-set-reset empty 0 -10 0 12 #000000 #ffffff #000000;
#X text 118 200 Reset;
#X floatatom 267 200 3 1 8 0 - \$0-set-mul \$0-mul 16;
#X text 239 202 MUL;
#X obj 159 121 else/note 117 18 Inter empty 5 54 54 54 0 187 187 187 1 1 CLOCK;
#X floatatom 198 170 3 1 8 0 - \$0-set-steps \$0-steps 16;
#X text 195 150 Steps;
#X floatatom 198 196 3 1 8 0 - \$0-set-count \$0-count 16;
#X text 193 220 Count;
#X coords 0 1 100 -1 222 132 1 111 111;
#X restore 210 85 graph;
#N canvas 402 50 780 704 seq 0;
#X obj 159 276 v;
#X obj 159 175 t b b;
#X msg 268 170 goto 1;
#X obj 192 113 r \$0-bpm;
#X obj 175 87 r \$0-run;
#X obj 268 139 r \$0-reset;
#X obj 159 623 outlet;
#X msg 159 58 mul \$1;
#X obj 159 28 r \$0-mul;
#X obj 268 355 sel \$0-step1 \$0-step2 \$0-step3 \$0-step4 \$0-step5 \$0-step6 \$0-step7 \$0-step8, f 39;
#X obj 363 582 s \$0-set-b1;
#X obj 383 558 s \$0-set-b2;
#X obj 413 535 s \$0-set-b3;
#X obj 433 509 s \$0-set-b4;
#X obj 459 485 s \$0-set-b5;
#X obj 479 461 s \$0-set-b6;
#X obj 484 428 s \$0-set-b7;
#X obj 504 402 s \$0-set-b8;
#X obj 159 144 else/tempo;
#X obj 268 307 else/list.seq -loop \$0-step1 \$0-step2 \$0-step3 \$0-step4 \$0-step5 \$0-step6 \$0-step7 \$0-step8, f 46;
#X obj 221 339 v;
#X obj 221 623 outlet;
#X obj 293 212 else/list.seq -loop \$0-trig1 \$0-trig2 \$0-trig3 \$0-trig4 \$0-trig5 \$0-trig6 \$0-trig7 \$0-trig8, f 46;
#X obj 71 120 r \$0-clock;
#X connect 0 0 6 0;
#X connect 1 0 0 0;
#X connect 1 0 20 0;
#X connect 1 1 19 0;
#X connect 1 1 22 0;
#X connect 2 0 19 0;
#X connect 2 0 22 0;
#X connect 3 0 18 1;
#X connect 4 0 18 0;
#X connect 5 0 2 0;
#X connect 7 0 18 0;
#X connect 8 0 7 0;
#X connect 9 0 10 0;
#X connect 9 1 11 0;
#X connect 9 2 12 0;
#X connect 9 3 13 0;
#X connect 9 4 14 0;
#X connect 9 5 15 0;
#X connect 9 6 16 0;
#X connect 9 7 17 0;
#X connect 18 0 1 0;
#X connect 19 0 0 1;
#X connect 19 0 9 0;
#X connect 20 0 21 0;
#X connect 22 0 20 1;
#X connect 23 0 1 0;
#X restore 23 115 pd seq;
#X obj 23 22 inlet;
#N canvas 203 105 568 377 route 0;
#X obj 60 61 inlet;
#X obj 129 299 s \$0-set-reset;
#X obj 115 327 s \$0-set-run;
#X obj 154 273 s \$0-set-bpm;
#X obj 171 244 s \$0-set-mul;
#X obj 60 95 route run reset bpm mul set bang;
#X obj 246 127 s \$0-clock;
#X connect 0 0 5 0;
#X connect 5 0 2 0;
#X connect 5 1 1 0;
#X connect 5 2 3 0;
#X connect 5 3 4 0;
#X connect 5 5 6 0;
#X restore 23 69 pd route;
#N canvas 637 317 236 253 MIDI-learn 0;
#N canvas 776 312 577 472 step1-knob 0;
#X msg 114 218 forget;
#X obj 240 221 savestate;
#X obj 300 268 list;
#X obj 240 326 else/insert teach;
#X obj 96 270 else/midi.learn 1;
#A saved;
#X obj 113 91 print [seq8.m~]:;
#X obj 127 189 print [seq8.m~]:;
#X obj 94 34 r \$0-step1-learn;
#X msg 113 64 MIDI-learn for step1 knob activated;
#X msg 127 164 MIDI-forget for step1 knob;
#X obj 325 243 list prepend step1-learn;
#X obj 240 297 else/route2 step1-learn;
#X obj 96 366 else/rescale -2 2;
#X obj 114 130 r \$0-step1-forget;
#X obj 96 405 s \$0-set-step1;
#X connect 0 0 4 0;
#X connect 1 0 11 0;
#X connect 1 1 2 0;
#X connect 2 0 1 0;
#X connect 3 0 4 0;
#X connect 4 0 12 0;
#X connect 4 1 10 0;
#X connect 7 0 8 0;
#X connect 7 0 4 0;
#X connect 8 0 5 0;
#X connect 9 0 6 0;
#X connect 10 0 2 1;
#X connect 11 0 3 0;
#X connect 12 0 14 0;
#X connect 13 0 0 0;
#X connect 13 0 9 0;
#X restore 54 26 pd step1-knob;
#N canvas 776 312 577 472 step2-knob 0;
#X msg 114 218 forget;
#X obj 240 221 savestate;
#X obj 300 268 list;
#X obj 240 326 else/insert teach;
#X obj 96 270 else/midi.learn 1;
#A saved;
#X obj 113 91 print [seq8.m~]:;
#X obj 127 189 print [seq8.m~]:;
#X obj 96 366 else/rescale -2 2;
#X obj 94 34 r \$0-step2-learn;
#X msg 113 64 MIDI-learn for step2 knob activated;
#X obj 114 130 r \$0-step2-forget;
#X msg 127 164 MIDI-forget for step2 knob;
#X obj 325 243 list prepend step2-learn;
#X obj 240 297 else/route2 step2-learn;
#X obj 96 405 s \$0-set-step2;
#X connect 0 0 4 0;
#X connect 1 0 13 0;
#X connect 1 1 2 0;
#X connect 2 0 1 0;
#X connect 3 0 4 0;
#X connect 4 0 7 0;
#X connect 4 1 12 0;
#X connect 7 0 14 0;
#X connect 8 0 9 0;
#X connect 8 0 4 0;
#X connect 9 0 5 0;
#X connect 10 0 0 0;
#X connect 10 0 11 0;
#X connect 11 0 6 0;
#X connect 12 0 2 1;
#X connect 13 0 3 0;
#X restore 54 50 pd step2-knob;
#N canvas 776 312 577 472 step3-knob 0;
#X msg 114 218 forget;
#X obj 240 221 savestate;
#X obj 300 268 list;
#X obj 240 326 else/insert teach;
#X obj 96 270 else/midi.learn 1;
#A saved;
#X obj 113 91 print [seq8.m~]:;
#X obj 127 189 print [seq8.m~]:;
#X obj 96 366 else/rescale -2 2;
#X obj 94 34 r \$0-step3-learn;
#X msg 113 64 MIDI-learn for step3 knob activated;
#X obj 114 130 r \$0-step3-forget;
#X msg 127 164 MIDI-forget for step3 knob;
#X obj 325 243 list prepend step3-learn;
#X obj 240 297 else/route2 step3-learn;
#X obj 96 405 s \$0-set-step3;
#X connect 0 0 4 0;
#X connect 1 0 13 0;
#X connect 1 1 2 0;
#X connect 2 0 1 0;
#X connect 3 0 4 0;
#X connect 4 0 7 0;
#X connect 4 1 12 0;
#X connect 7 0 14 0;
#X connect 8 0 9 0;
#X connect 8 0 4 0;
#X connect 9 0 5 0;
#X connect 10 0 0 0;
#X connect 10 0 11 0;
#X connect 11 0 6 0;
#X connect 12 0 2 1;
#X connect 13 0 3 0;
#X restore 54 75 pd step3-knob;
#N canvas 776 312 577 472 step4-knob 0;
#X msg 114 218 forget;
#X obj 240 221 savestate;
#X obj 300 268 list;
#X obj 240 326 else/insert teach;
#X obj 96 270 else/midi.learn 1;
#A saved;
#X obj 113 91 print [seq8.m~]:;
#X obj 127 189 print [seq8.m~]:;
#X obj 96 366 else/rescale -2 2;
#X obj 94 34 r \$0-step4-learn;
#X msg 113 64 MIDI-learn for step4 knob activated;
#X obj 114 130 r \$0-step4-forget;
#X msg 127 164 MIDI-forget for step4 knob;
#X obj 325 243 list prepend step4-learn;
#X obj 240 297 else/route2 step4-learn;
#X obj 96 405 s \$0-set-step4;
#X connect 0 0 4 0;
#X connect 1 0 13 0;
#X connect 1 1 2 0;
#X connect 2 0 1 0;
#X connect 3 0 4 0;
#X connect 4 0 7 0;
#X connect 4 1 12 0;
#X connect 7 0 14 0;
#X connect 8 0 9 0;
#X connect 8 0 4 0;
#X connect 9 0 5 0;
#X connect 10 0 0 0;
#X connect 10 0 11 0;
#X connect 11 0 6 0;
#X connect 12 0 2 1;
#X connect 13 0 3 0;
#X restore 54 99 pd step4-knob;
#N canvas 776 312 577 472 step5-knob 0;
#X msg 114 218 forget;
#X obj 240 221 savestate;
#X obj 300 268 list;
#X obj 240 326 else/insert teach;
#X obj 96 270 else/midi.learn 1;
#A saved;
#X obj 113 91 print [seq8.m~]:;
#X obj 127 189 print [seq8.m~]:;
#X obj 96 366 else/rescale -2 2;
#X obj 94 34 r \$0-step5-learn;
#X msg 113 64 MIDI-learn for step5 knob activated;
#X obj 114 130 r \$0-step5-forget;
#X msg 127 164 MIDI-forget for step5 knob;
#X obj 325 243 list prepend step5-learn;
#X obj 240 297 else/route2 step5-learn;
#X obj 96 405 s \$0-set-step5;
#X connect 0 0 4 0;
#X connect 1 0 13 0;
#X connect 1 1 2 0;
#X connect 2 0 1 0;
#X connect 3 0 4 0;
#X connect 4 0 7 0;
#X connect 4 1 12 0;
#X connect 7 0 14 0;
#X connect 8 0 9 0;
#X connect 8 0 4 0;
#X connect 9 0 5 0;
#X connect 10 0 0 0;
#X connect 10 0 11 0;
#X connect 11 0 6 0;
#X connect 12 0 2 1;
#X connect 13 0 3 0;
#X restore 54 126 pd step5-knob;
#N canvas 776 312 577 472 step6-knob 0;
#X msg 114 218 forget;
#X obj 240 221 savestate;
#X obj 300 268 list;
#X obj 240 326 else/insert teach;
#X obj 96 270 else/midi.learn 1;
#A saved;
#X obj 113 91 print [seq8.m~]:;
#X obj 127 189 print [seq8.m~]:;
#X obj 96 366 else/rescale -2 2;
#X obj 94 34 r \$0-step6-learn;
#X msg 113 64 MIDI-learn for step6 knob activated;
#X obj 114 130 r \$0-step6-forget;
#X msg 127 164 MIDI-forget for step6 knob;
#X obj 325 243 list prepend step6-learn;
#X obj 240 297 else/route2 step6-learn;
#X obj 96 405 s \$0-set-step6;
#X connect 0 0 4 0;
#X connect 1 0 13 0;
#X connect 1 1 2 0;
#X connect 2 0 1 0;
#X connect 3 0 4 0;
#X connect 4 0 7 0;
#X connect 4 1 12 0;
#X connect 7 0 14 0;
#X connect 8 0 9 0;
#X connect 8 0 4 0;
#X connect 9 0 5 0;
#X connect 10 0 0 0;
#X connect 10 0 11 0;
#X connect 11 0 6 0;
#X connect 12 0 2 1;
#X connect 13 0 3 0;
#X restore 54 150 pd step6-knob;
#N canvas 776 312 577 472 step7-knob 0;
#X msg 114 218 forget;
#X obj 240 221 savestate;
#X obj 300 268 list;
#X obj 240 326 else/insert teach;
#X obj 96 270 else/midi.learn 1;
#A saved;
#X obj 113 91 print [seq8.m~]:;
#X obj 127 189 print [seq8.m~]:;
#X obj 96 366 else/rescale -2 2;
#X obj 94 34 r \$0-step7-learn;
#X msg 113 64 MIDI-learn for step7 knob activated;
#X obj 114 130 r \$0-step7-forget;
#X msg 127 164 MIDI-forget for step7 knob;
#X obj 325 243 list prepend step7-learn;
#X obj 240 297 else/route2 step7-learn;
#X obj 96 405 s \$0-set-step7;
#X connect 0 0 4 0;
#X connect 1 0 13 0;
#X connect 1 1 2 0;
#X connect 2 0 1 0;
#X connect 3 0 4 0;
#X connect 4 0 7 0;
#X connect 4 1 12 0;
#X connect 7 0 14 0;
#X connect 8 0 9 0;
#X connect 8 0 4 0;
#X connect 9 0 5 0;
#X connect 10 0 0 0;
#X connect 10 0 11 0;
#X connect 11 0 6 0;
#X connect 12 0 2 1;
#X connect 13 0 3 0;
#X restore 54 175 pd step7-knob;
#N canvas 776 312 577 472 step8-knob 0;
#X msg 114 218 forget;
#X obj 240 221 savestate;
#X obj 300 268 list;
#X obj 240 326 else/insert teach;
#X obj 96 270 else/midi.learn 1;
#A saved;
#X obj 113 91 print [seq8.m~]:;
#X obj 127 189 print [seq8.m~]:;
#X obj 96 366 else/rescale -2 2;
#X obj 114 130 r \$0-step1-forget;
#X obj 94 34 r \$0-step8-learn;
#X msg 113 64 MIDI-learn for step8 knob activated;
#X msg 127 164 MIDI-forget for step8 knob;
#X obj 325 243 list prepend step8-learn;
#X obj 240 297 else/route2 step8-learn;
#X obj 96 405 s \$0-set-step8;
#X connect 0 0 4 0;
#X connect 1 0 13 0;
#X connect 1 1 2 0;
#X connect 2 0 1 0;
#X connect 3 0 4 0;
#X connect 4 0 7 0;
#X connect 4 1 12 0;
#X connect 7 0 14 0;
#X connect 8 0 0 0;
#X connect 8 0 11 0;
#X connect 9 0 10 0;
#X connect 9 0 4 0;
#X connect 10 0 5 0;
#X connect 11 0 6 0;
#X connect 12 0 2 1;
#X connect 13 0 3 0;
#X restore 54 199 pd step8-knob;
#X restore 299 382 pd MIDI-learn;
#X obj 83 445 outlet;
#X obj 23 445 outlet;
#X connect 4 0 9 0;
#X connect 4 1 8 0;
#X connect 5 0 6 0;
#X coords 0 1 100 -1 240 156 2 200 75;
