#N canvas 376 58 1094 723 12;
#X declare -path else;
#N canvas 243 43 499 411 preset 0;
#X obj 125 121 else/sender 1 \\\$0-presets;
#X msg 125 86 name \$1;
#X obj 90 171 else/receiver;
#X obj 123 220 route list;
#N canvas 468 182 491 352 id-name-init 0;
#X obj 165 113 + 1;
#X obj 257 100 else/dollsym 1;
#X obj 141 80 value;
#X obj 141 252 outlet;
#X obj 141 51 else/loadbanger 2;
#X obj 141 201 else/dollsym 1;
#X obj 141 166 makefilename \\\$0-instr-%d;
#X obj 257 76 symbol instr-id_\\\$0;
#X connect 0 0 2 0;
#X connect 1 0 2 1;
#X connect 2 0 0 0;
#X connect 2 0 6 0;
#X connect 4 0 2 0;
#X connect 4 1 7 0;
#X connect 5 0 3 0;
#X connect 6 0 5 0;
#X connect 7 0 1 0;
#X restore 90 39 pd id-name-init;
#X obj 123 257 else/dispatch \$0-set-pgm, f 25;
#X obj 90 311 else/var \$0-pgm;
#X connect 1 0 0 0;
#X connect 2 0 3 0;
#X connect 2 0 6 0;
#X connect 3 0 5 0;
#X connect 4 0 1 0;
#X connect 4 0 2 0;
#X restore 363 539 pd preset;
#N canvas 171 120 601 317 init-savestate 0;
#X obj 74 87 savestate;
#X obj 320 171 declare -path else;
#X obj 49 125 list;
#X obj 49 43 loadbang;
#X obj 134 119 else/var \$0-pgm;
#X obj 49 222 else/dispatch \$0-set-pgm, f 50;
#X obj 49 171 else/default 1;
#X connect 0 0 2 1;
#X connect 0 1 4 0;
#X connect 2 0 6 0;
#X connect 3 0 2 0;
#X connect 4 0 0 0;
#X connect 6 0 5 0;
#X restore 313 504 pd init-savestate;
#N canvas 238 198 628 377 GUI 0;
#X msg 123 147 set \$1;
#X obj 331 133 savestate;
#X obj 295 98 else/midi.learn;
#A saved;
#A saved ctlin 15 12;
#X obj 295 278 rescale -1 1;
#X obj 416 133 list prepend teach;
#X obj 391 163 list;
#X obj 331 233 list trim;
#X obj 331 191 else/routeall teach, f 13;
#X obj 440 234 s \$0-patch;
#X msg 440 204 dirty 1;
#X obj 440 163 else/changed;
#X obj 295 310 s \$0-set-pgm;
#X obj 123 187 s \$0-set-pgm;
#X obj 123 109 r \$0-pgm;
#X obj 295 61 r \$0-pgm-learn;
#X connect 0 0 12 0;
#X connect 1 0 7 0;
#X connect 1 1 5 0;
#X connect 2 0 3 0;
#X connect 2 1 4 0;
#X connect 3 0 11 0;
#X connect 4 0 5 1;
#X connect 4 0 10 0;
#X connect 5 0 1 0;
#X connect 6 0 2 0;
#X connect 7 0 6 0;
#X connect 7 0 10 1;
#X connect 9 0 8 0;
#X connect 10 0 9 0;
#X connect 13 0 0 0;
#X connect 14 0 2 0;
#X restore 363 476 pd GUI;
#X text 214 158 IN;
#N canvas 224 82 499 364 (subpatch) 0;
#X obj 112 111 cnv 15 215 83 empty empty empty 20 12 0 14 #dbdbdb #373737 0;
#X obj 147 119 note 160 24 Inter empty 5 54 54 54 0 187 187 187 1 1 SFONT;
#X obj 120 205 note 200 12 Menlo \$0-filename 1 0 0 0 1 223 223 223 1 1 GeneralUser_GS.sf3;
#X obj 125 160 else/popmenu 200 26 12 #dfdfdf black \  \$0-set-pgm \$0-pgm empty empty 0 0 -1 1 0 0 0 0 0 0 0;
#X coords 0 1 100 -1 228 125 1 111 110;
#X restore 215 178 graph;
#X obj 64 63 inlet;
#X obj 91 628 outlet~;
#X obj 205 628 outlet~;
#X msg 601 177 dump;
#X msg 647 245 clear;
#X msg 715 85 open sf/GeneralUser_GS.sf3;
#X obj 601 206 t b a b;
#X msg 601 245 set 0;
#N canvas 102 452 481 346 dump 0;
#X obj 61 31 inlet;
#X obj 69 101 file splitext;
#X msg 60 136 set \$1;
#X obj 60 166 s \$0-filename;
#X obj 218 208 s \$0-set-pgm;
#X msg 218 176 add (\$1)\\\ \$2-\$3;
#X obj 60 74 else/route2 name preset;
#X obj 233 118 s \$0-store;
#X connect 0 0 6 0;
#X connect 2 0 3 0;
#X connect 5 0 4 0;
#X connect 6 0 2 0;
#X connect 6 2 5 0;
#X connect 6 2 7 0;
#X restore 319 575 pd dump;
#X obj 698 245 s \$0-sfont;
#X obj 91 449 r \$0-sfont;
#X obj 647 276 s \$0-set-pgm;
#X obj 715 53 loadbang;
#X msg 115 495 info;
#X msg 193 500 verbose \$1;
#X obj 297 325 tgl 19 0 empty empty empty 0 -10 0 12 #fcfcfc #000000 #000000 0 1;
#X msg 783 215 clear;
#X obj 715 115 t b a b, f 10;
#X obj 783 273 else/store;
#A saved;
#X obj 876 275 r \$0-store;
#X obj 836 209 r \$0-pgm;
#X msg 836 233 goto \$1 \, bang;
#X obj 783 543 s \$0-sfont;
#X msg 612 81 open \$1;
#X obj 394 318 bng 19 250 50 0 empty empty empty 0 -10 0 12 #fcfcfc #000000 #000000;
#X text 357 319 open;
#X obj 612 53 openpanel;
#X floatatom 230 324 5 1 16 0 - - - 0;
#X obj 64 103 s \$0-sfont;
#X obj 783 471 list append 1;
#X obj 91 533 else/sfont~ -g 1, f 33;
#X obj 783 303 else/slice 2;
#X obj 783 334 unpack float float, f 22;
#X obj 783 420 pack float float float;
#X msg 783 510 ctl \$1 0 \$4 \, ctl \$2 32 \$4 \, pgm \$3 \$4;
#X obj 783 366 expr int($f1 / 128) \; $f1 % 128;
#X obj 489 438 vsl 19 128 0 127 0 0 empty empty empty 0 -9 0 12 #fcfcfc #000000 #000000 0 1;
#X obj 682 435 vsl 19 128 0 127 0 0 empty empty empty 0 -9 0 12 #fcfcfc #000000 #000000 0 1;
#X msg 489 632 ctl \$1 0;
#X obj 577 681 s \$0-sfont;
#X msg 682 632 pgm \$1;
#X floatatom 485 589 5 0 0 0 - - - 0;
#X floatatom 684 581 5 0 0 0 - - - 0;
#X obj 653 458 bng 19 250 50 0 empty empty empty 0 -10 0 12 #fcfcfc #000000 #000000;
#X obj 684 604 change;
#X obj 606 441 vsl 19 128 0 127 0 0 empty empty empty 0 -9 0 12 #fcfcfc #000000 #000000 0 1;
#X floatatom 602 592 5 0 0 0 - - - 0;
#X msg 605 633 ctl \$1 32;
#X obj 568 575 tgl 19 0 empty empty empty 0 -10 0 12 #fcfcfc #000000 #000000 0 1;
#X obj 455 573 tgl 19 0 empty empty empty 0 -10 0 12 #fcfcfc #000000 #000000 0 1;
#X obj 449 598 f;
#X obj 561 601 f;
#X obj 557 538 bng 19 250 50 0 empty empty empty 0 -10 0 12 #fcfcfc #000000 #000000;
#X obj 445 545 bng 19 250 50 0 empty empty empty 0 -10 0 12 #fcfcfc #000000 #000000;
#X msg 794 597 ctl \$2 32 \$4 \, ctl \$1 0 \$4 \, pgm \$3 \$4;
#X obj 736 379 bng 19 250 50 0 empty empty empty 0 -10 0 12 #fcfcfc #000000 #000000;
#X text 319 325 v;
#X msg 280 679 ctl \$1 0 \$4 \, ctl \$2 32 \$4 \, pgm \$3 \$4;
#X listbox 904 464 20 0 0 0 - - - 0;
#X msg 753 648 bank 128;
#X connect 5 0 33 0;
#X connect 8 0 11 0;
#X connect 9 0 16 0;
#X connect 10 0 22 0;
#X connect 11 0 12 0;
#X connect 11 1 14 0;
#X connect 11 2 9 0;
#X connect 12 0 16 0;
#X connect 15 0 35 0;
#X connect 17 0 10 0;
#X connect 18 0 35 0;
#X connect 19 0 35 0;
#X connect 20 0 19 0;
#X connect 21 0 23 0;
#X connect 22 0 8 0;
#X connect 22 1 14 0;
#X connect 22 2 21 0;
#X connect 23 0 36 0;
#X connect 24 0 23 1;
#X connect 25 0 26 0;
#X connect 26 0 23 0;
#X connect 28 0 22 0;
#X connect 29 0 31 0;
#X connect 31 0 28 0;
#X connect 32 0 34 1;
#X connect 34 0 39 0;
#X connect 34 0 63 0;
#X connect 35 0 6 0;
#X connect 35 1 7 0;
#X connect 35 2 13 0;
#X connect 36 0 37 0;
#X connect 37 0 40 0;
#X connect 37 1 38 2;
#X connect 38 0 34 0;
#X connect 39 0 27 0;
#X connect 40 0 38 0;
#X connect 40 1 38 1;
#X connect 41 0 46 0;
#X connect 42 0 47 0;
#X connect 43 0 44 0;
#X connect 45 0 44 0;
#X connect 46 0 43 0;
#X connect 47 0 49 0;
#X connect 48 0 42 0;
#X connect 49 0 45 0;
#X connect 50 0 51 0;
#X connect 51 0 52 0;
#X connect 52 0 44 0;
#X connect 53 0 56 0;
#X connect 54 0 55 0;
#X connect 55 0 43 0;
#X connect 56 0 52 0;
#X connect 57 0 56 0;
#X connect 58 0 55 0;
#X connect 60 0 38 0;
#X connect 64 0 44 0;
#X coords 0 1 100 -1 242 202 2 208 154;
