#N canvas 139 119 1126 599 12;
#X obj 379 156 out~;
#N canvas 410 74 554 599 eq 0;
#X obj 164 545 outlet~;
#X obj 204 36 inlet~;
#X obj 83 432 lowshelf~ 300 0.5, f 9;
#X obj 328 431 highshelf~ 5000 0.5, f 10;
#X obj 241 442 eq~ 2000 1;
#X obj 164 442 eq~ 600 1;
#X obj 356 176 r \$0-mid-low;
#X obj 365 263 r \$0-mid-high;
#X obj 394 347 r \$0-high;
#X obj 344 147 else/f2s~ 10;
#X obj 356 232 else/f2s~ 10;
#X obj 365 317 else/f2s~ 10;
#X obj 394 394 else/f2s~ 10;
#X obj 344 98 r \$0-low;
#X obj 344 122 else/lin2db;
#X obj 356 201 else/lin2db;
#X obj 366 288 else/lin2db;
#X obj 394 371 else/lin2db;
#X connect 1 0 2 0;
#X connect 1 0 5 0;
#X connect 1 0 4 0;
#X connect 1 0 3 0;
#X connect 2 0 0 0;
#X connect 3 0 0 0;
#X connect 4 0 0 0;
#X connect 5 0 0 0;
#X connect 6 0 15 0;
#X connect 7 0 16 0;
#X connect 8 0 17 0;
#X connect 9 0 2 3;
#X connect 10 0 5 3;
#X connect 11 0 4 3;
#X connect 12 0 3 3;
#X connect 13 0 14 0;
#X connect 14 0 9 0;
#X connect 15 0 10 0;
#X connect 16 0 11 0;
#X connect 17 0 12 0;
#X restore 394 107 pd eq;
#X obj 306 174 else/knob 40 0.1 10 1 1 \$0-low \$0-low-set #000000 #404040 #ffffff 0 0 0 0 1 320 0 0 1 empty empty 0 8 0 0 0 0 0 0;
#X obj 306 37 else/knob 40 0.1 10 1 1 \$0-high \$0-high-set #000000 #404040 #ffffff 0 0 0 0 1 320 0 0 1 empty empty 0 8 0 0 0 0 0 0;
#X obj 306 82 else/knob 40 0.1 10 1 1 \$0-high \$0-mid-high #000000 #404040 #ffffff 0 0 0 0 1 320 0 0 1 empty empty 0 8 0 0 0 0 0 0;
#X obj 306 128 else/knob 40 0.1 10 1 1 \$0-mid-low \$0-mid-low-set #000000 #404040 #ffffff 0 0 0 0 1 320 0 0 1 empty empty 0 8 0 0 0 0 0 0;
#X obj 164 267 biplot;
#X obj 841 97 highshelf~ 5000 0.5;
#X obj 754 108 eq~ 2000 1;
#X obj 677 108 eq~ 600 1;
#X obj 755 146 lin2db;
#X obj 812 179 lin2db;
#X obj 640 205 bicoeff2 eq 400 0.5;
#X obj 584 172 bicoeff2 lowshelf 200 1;
#X obj 693 48 lin2db;
#X obj 521 75 bicoeff2 eq 1500 0.5;
#X obj 851 206 lin2db;
#X obj 558 231 merge 4;
#X obj 562 206 hot 4;
#X obj 680 232 bicoeff2 highshelf 5000 0.5;
#X obj 399 43 play.file~ didge.flac 1 1;
#X connect 1 0 0 0;
#X connect 2 0 10 0;
#X connect 3 0 16 0;
#X connect 4 0 14 0;
#X connect 5 0 11 0;
#X connect 10 0 13 2;
#X connect 11 0 12 2;
#X connect 12 0 18 1;
#X connect 13 0 18 0;
#X connect 14 0 15 2;
#X connect 15 0 18 2;
#X connect 16 0 19 2;
#X connect 17 0 6 0;
#X connect 18 0 17 0;
#X connect 18 1 17 1;
#X connect 18 2 17 2;
#X connect 18 3 17 3;
#X connect 19 0 18 3;
#X connect 20 0 1 0;
