#N canvas 733 42 598 555 12;
#X obj 276 94 inlet~;
#X obj 276 259 outlet~;
#N canvas 316 126 606 686 GUI 0;
#N canvas 651 231 811 536 collapse 0;
#X obj 28 155 r \$0-uncollapse;
#X obj 28 21 r \$0-collapse;
#X obj 290 427 r \$0-detatch;
#X obj 232 158 else/canvas.setname \$0-m 2;
#X obj 290 309 r \$0-set-GUI;
#X obj 290 393 s \$0-uncollapse;
#X obj 313 366 s \$0-collapse;
#X obj 290 338 sel 1 0;
#X obj 487 52 r \$0-detatch-hover;
#X obj 562 418 s \$0-label-collapsed;
#X obj 539 284 sel 0 1;
#X msg 562 317 label ⤢ \, label_font 0 48 \, label_pos 34 12, f 25;
#X obj 469 282 loadbang;
#X obj 507 81 else/canvas.edit 3;
#X obj 539 256 change;
#X obj 507 167 sel 1;
#X obj 487 194 f;
#X obj 507 140 t f f, f 10;
#X obj 507 110 == 0;
#X obj 487 220 spigot;
#X msg 537 366 label TRANSP \, label_font 0 24 \, label_pos 25 15, f 27;
#X obj 290 454 message \; pd-\$0-TRANSP vis 1;
#X obj 28 50 else/message \; \$0-button readonly 1 \, transparent 3 \; pd-\$0-TRANSP donecanvasdialog 1 1 0 0 0 1 1 161 277 15 15 \; \$0-cnv color #dfdfdf #000000 #dfdfdf \; \$0-m goprect 50 400 132 43 \, dirty 0 \; \$0-GUI 0;
#X obj 28 189 else/message \; \$0-button readonly 0 \, transparent 2 \; pd-\$0-TRANSP donecanvasdialog 1 1 1 0 0 1 1 161 301 15 15 \, vis 0 \; \$0-cnv color #bbbbbb #000000 #000000 \; \$0-m goprect 50 50 178 330 \, dirty 0 \; \$0-GUI 1;
#X connect 0 0 23 0;
#X connect 1 0 22 0;
#X connect 2 0 21 0;
#X connect 4 0 7 0;
#X connect 7 0 5 0;
#X connect 7 1 6 0;
#X connect 8 0 16 0;
#X connect 10 0 20 0;
#X connect 10 1 11 0;
#X connect 11 0 9 0;
#X connect 12 0 20 0;
#X connect 13 0 18 0;
#X connect 14 0 10 0;
#X connect 15 0 16 0;
#X connect 15 1 14 0;
#X connect 16 0 19 0;
#X connect 17 0 15 0;
#X connect 17 1 19 1;
#X connect 18 0 17 0;
#X connect 19 0 14 0;
#X connect 20 0 9 0;
#X restore 441 416 pd collapse;
#X obj 59 101 int;
#X msg 111 139 set \$1;
#X obj 112 258 / 100;
#X obj 253 66 else/frac2dec;
#X obj 295 136 else/ratio2cents;
#X obj 295 163 / 100;
#X msg 295 228 set \$1;
#X obj 295 200 int;
#X obj 410 222 wrap;
#X msg 410 282 set \$1;
#X obj 410 255 * 100;
#X obj 410 312 s \$0-set-cents;
#X obj 59 314 else/hot;
#X obj 59 340 +;
#X obj 249 589 else/f2s~ 10;
#X obj 59 394 else/cents2ratio;
#X obj 59 368 * 100;
#X msg 164 320 set \$1;
#X obj 59 66 clip -60 60;
#X obj 112 202 r \$0-cents;
#X obj 112 229 clip -100 100;
#X obj 253 95 clip 0.0294961 33.9028;
#X obj 253 37 r \$0-ratiobox;
#X obj 249 638 s~ \$0-ratiomul;
#X obj 263 552 s \$0-set-ratiobox;
#X msg 263 491 set \$1;
#X obj 279 464 s \$0-ratio;
#X obj 289 520 r \$0-set-ratio;
#X obj 59 31 r \$0-st;
#X obj 111 166 s \$0-set-st;
#X obj 295 312 s \$0-set-st;
#X connect 1 0 2 0;
#X connect 1 0 13 0;
#X connect 2 0 30 0;
#X connect 3 0 13 1;
#X connect 4 0 22 0;
#X connect 5 0 6 0;
#X connect 6 0 8 0;
#X connect 6 0 9 0;
#X connect 7 0 13 0;
#X connect 7 0 31 0;
#X connect 8 0 7 0;
#X connect 9 0 11 0;
#X connect 9 0 18 0;
#X connect 10 0 12 0;
#X connect 11 0 10 0;
#X connect 13 0 14 0;
#X connect 13 1 14 1;
#X connect 14 0 17 0;
#X connect 15 0 24 0;
#X connect 16 0 15 0;
#X connect 16 0 26 0;
#X connect 16 0 27 0;
#X connect 17 0 16 0;
#X connect 18 0 13 1;
#X connect 19 0 1 0;
#X connect 20 0 21 0;
#X connect 21 0 3 0;
#X connect 22 0 5 0;
#X connect 22 0 15 0;
#X connect 22 0 26 0;
#X connect 22 0 27 0;
#X connect 23 0 4 0;
#X connect 26 0 25 0;
#X connect 28 0 25 0;
#X connect 29 0 19 0;
#X restore 379 233 pd GUI;
#X text 279 71 pitch;
#N canvas 572 333 505 414 preset 0;
#X msg 121 98 name \$1;
#X obj 98 182 else/receiver;
#X obj 123 222 route list;
#N canvas 596 76 470 347 id-name-init 0;
#X obj 165 113 + 1;
#X obj 257 100 else/dollsym 1;
#X obj 141 80 value;
#X obj 141 252 outlet;
#X obj 141 51 else/loadbanger 2;
#X obj 141 201 else/dollsym 1;
#X obj 257 76 symbol transp-id_\\\$0;
#X obj 141 166 makefilename \\\$0-transp-%d;
#X connect 0 0 2 0;
#X connect 1 0 2 1;
#X connect 2 0 0 0;
#X connect 2 0 7 0;
#X connect 4 0 2 0;
#X connect 4 1 6 0;
#X connect 5 0 3 0;
#X connect 6 0 1 0;
#X connect 7 0 5 0;
#X restore 97 46 pd id-name-init;
#X obj 121 133 else/sender 1 \$0-presets;
#X obj 123 258 else/dispatch \$0-set-ratio \$0-set-detune;
#X obj 98 311 else/var \$0-ratio \$0-detune;
#X connect 0 0 4 0;
#X connect 1 0 2 0;
#X connect 1 0 6 0;
#X connect 2 0 5 0;
#X connect 3 0 0 0;
#X connect 3 0 1 0;
#X restore 437 233 pd preset;
#N canvas 892 275 409 419 init-savestate 0;
#X obj 71 117 savestate;
#X obj 46 60 loadbang;
#X obj 46 208 list;
#X obj 71 150 list trim;
#X obj 71 180 route list;
#X obj 171 286 s \$0-set-GUI;
#X obj 46 303 else/pipe2 1;
#X obj 46 329 else/dispatch \$0-set-ratio \$0-set-detune;
#X obj 46 248 else/default 1 0 1;
#X obj 46 279 else/delete 3 1;
#X obj 171 54 else/var \$0-ratio \$0-detune \$0-GUI, f 9;
#X connect 0 0 3 0;
#X connect 0 1 10 0;
#X connect 1 0 2 0;
#X connect 2 0 8 0;
#X connect 3 0 4 0;
#X connect 4 0 2 1;
#X connect 6 0 7 0;
#X connect 8 0 9 0;
#X connect 9 0 6 0;
#X connect 9 1 5 0;
#X connect 10 0 0 0;
#X restore 380 204 pd init-savestate;
#N canvas 419 103 414 388 route 0;
#X obj 78 22 inlet;
#X obj 178 246 s \$0-set-GUI;
#X obj 178 221 != 0;
#X obj 145 279 s \$0-set-detune;
#X obj 228 202 s \$0-set-cents;
#X obj 249 145 else/frac2dec;
#X obj 249 109 list;
#X obj 249 176 s \$0-set-ratiobox;
#X obj 130 317 s \$0-set-st;
#X obj 78 56 route st detune gui cents ratio;
#X connect 0 0 9 0;
#X connect 2 0 1 0;
#X connect 5 0 7 0;
#X connect 6 0 5 0;
#X connect 9 0 8 0;
#X connect 9 1 3 0;
#X connect 9 2 2 0;
#X connect 9 3 4 0;
#X connect 9 4 6 0;
#X restore 315 129 pd route;
#X obj 56 408 cnv 19 95 29 empty \$0-label-collapsed TRANSP 25 15 0 24 #bbbbbb #000000 0;
#X obj 158 408 cnv 10 17 15 empty empty ▲ 5 8 0 12 #bbbbbb #000000 0;
#X obj 158 422 cnv 10 17 15 empty empty ▼ 5 5 0 12 #bbbbbb #000000 0;
#X obj 157 407 else/button 19 31 #e0e0e0 #808080 2 1 2 0 0 \$0-uncollapse empty;
#X obj 55 407 else/button 97 31 #bbbbbb #bbbbbb 2 1 2 0 0 \$0-detatch \$0-uncollapse-set;
#N canvas 236 38 364 376 guts 0;
#X obj 122 52 inlet~;
#X obj 122 103 mtof~;
#X obj 122 284 outlet~;
#X obj 122 249 ftom~;
#X obj 122 187 +~;
#X obj 162 178 r \$0-detune;
#X obj 122 146 *~;
#X obj 157 142 r~ \$0-ratiomul;
#X obj 162 202 else/f2s~;
#X connect 0 0 1 0;
#X connect 1 0 6 0;
#X connect 3 0 2 0;
#X connect 4 0 3 0;
#X connect 5 0 8 0;
#X connect 6 0 4 0;
#X connect 7 0 6 1;
#X connect 8 0 4 1;
#X restore 276 177 pd guts;
#N canvas 594 147 193 335 \$0-TRANSP 0;
#N canvas 381 109 270 392 (subpatch) 0;
#X obj 51 51 cnv 19 159 299 empty empty empty 20 12 0 12 #dfdfdf #404040 0;
#X obj 61 59 else/note 111 24 Inter empty 5 54 54 54 0 187 187 187 1 1 TRANSP;
#X obj 183 59 else/button 19 31 #e0e0e0 #808080 2 1 2 0 0 \$0-collapse \$0-button;
#X obj 184 60 cnv 10 17 15 empty \$0-cnv ▼ 5 8 0 12 #bbbbbb #000000 0;
#X obj 184 74 cnv 10 17 15 empty \$0-cnv ▲ 5 5 0 12 #bbbbbb #000000 0;
#X floatatom 132 105 6 0 0 0 - \$0-set-detune \$0-detune 0;
#X floatatom 148 153 3 -60 60 0 - \$0-set-st \$0-st 0;
#X floatatom 120 174 7 -100 100 0 - \$0-set-cents \$0-cents 0;
#X text 79 105 Detune;
#X listbox 120 195 7 0.03125 32 0 - \$0-set-ratiobox \$0-ratiobox 0;
#X text 81 174 Cents;
#X text 81 195 Ratio;
#X text 81 153 Semitones;
#X text 80 133 TRANSPOSITION;
#X coords 0 1 100 -1 161 301 1 50 50;
#X restore 15 15 graph;
#X coords 0 0 1 1 161 301 1 15 15;
#X restore 58 71 pd \$0-TRANSP;
#X text 50 50 IN;
#X connect 0 0 12 0;
#X connect 0 1 6 0;
#X connect 12 0 1 0;
#X coords 0 0 1 1 178 330 2 50 50;
