#N struct 1044-point float x0 float y0 float xs float ys float fg float in float gridx float gridy;
#N canvas 312 51 773 583 12;
#X declare -path else;
#X obj 212 207 noise~;
#X obj 76 259 pan2~;
#X obj 487 272 noise~;
#X text 543 308 X;
#X text 697 309 Y;
#X obj 559 281 unpack f f;
#X obj 142 222 f2s~ 20;
#X obj 487 339 pan4~, f 21;
#X obj 559 169 slider2d 100 100 -1 1 -1 1 0 210 210 210 0 0 0 1 0 1 0 0 empty empty;
#X obj 616 17 declare -path else;
#X obj 506 380 meter4~;
#X obj 559 141 initmess 0 0;
#X text 461 142 middle point;
#X obj 142 156 knob 50 -1 1 0 0 empty \$0-xpan #dfdfdf #7c7c7c black 1 0 0 0 1 320 0 0 0;
#X obj 212 259 pan2~;
#X obj 306 222 f2s~ 20;
#X obj 306 156 knob 50 -1 1 0 0 empty \$0-ypan #dfdfdf #7c7c7c black 1 0 0 0 1 320 0 0 0;
#X text 149 131 xpan;
#X text 179 259 back;
#X text 250 258 front;
#X text 314 131 ypan;
#X obj 76 185 sig~ 1;
#X obj 76 339 *~;
#X obj 86 380 meter4~;
#X obj 109 339 *~;
#X obj 161 339 *~;
#X obj 194 339 *~;
#X obj 345 378 setdsp~;
#X text 43 259 left;
#X text 115 259 right;
#X obj 559 309 nbx 5 17 -1e+37 1e+37 0 0 \$0-xpan empty empty 0 -10 0 12 #dfdfdf #000000 #000000 0 256;
#X obj 631 309 nbx 5 17 -1e+37 1e+37 0 0 \$0-ypan empty empty 0 -10 0 12 #dfdfdf #000000 #000000 0 256;
#X text 94 526 left;
#X text 91 542 front;
#X text 134 542 front;
#X text 134 526 right;
#X text 51 526 left;
#X text 178 526 right;
#X text 52 542 back;
#X text 181 542 back;
#X text 445 50 Using a 2D slider makes as below makes more sense. Compare the outputs and check the object's help file. Note it can also output a multichannel connection., f 41;
#X text 520 526 left;
#X text 517 542 front;
#X text 560 542 front;
#X text 560 526 right;
#X text 477 526 left;
#X text 604 526 right;
#X text 478 542 back;
#X text 607 542 back;
#X text 49 23 The [pan4~] object is a 4 speakers panning object. It can be implemented by joining 2 [pan2~] objects \, one for each dimension. The 'x' pan controls the horizontal Left-Right position while the 'y' pan controls the vertical Back-Front position., f 44;
#X connect 0 0 14 0;
#X connect 1 0 22 0;
#X connect 1 0 24 0;
#X connect 1 1 25 0;
#X connect 1 1 26 0;
#X connect 2 0 7 0;
#X connect 5 0 30 0;
#X connect 5 1 31 0;
#X connect 6 0 1 1;
#X connect 7 0 10 0;
#X connect 7 1 10 1;
#X connect 7 2 10 2;
#X connect 7 3 10 3;
#X connect 8 0 5 0;
#X connect 11 0 8 0;
#X connect 13 0 6 0;
#X connect 14 0 22 1;
#X connect 14 0 26 1;
#X connect 14 1 24 1;
#X connect 14 1 25 1;
#X connect 15 0 14 1;
#X connect 16 0 15 0;
#X connect 21 0 1 0;
#X connect 22 0 23 0;
#X connect 24 0 23 1;
#X connect 25 0 23 2;
#X connect 26 0 23 3;
#X connect 30 0 7 1;
#X connect 31 0 7 2;
