#N canvas 491 594 588 300 12;
#X obj 84 178 lua_sig;
#X floatatom 162 52 5 0 0 0 - - - 0;
#X floatatom 232 52 5 0 0 0 - - - 0;
#N canvas 0 50 450 250 (subpatch) 0;
#X array scope 4800 float 0;
#X coords 0 1 4799 -1 200 140 1 0 0;
#X restore 316 74 graph;
#X obj 218 179 tgl 20 0 empty empty empty 0 -10 0 12 #fcfcfc #000000 #000000 0 1;
#X obj 218 204 metro 100;
#X floatatom 85 22 5 0 0 0 - - - 0;
#X obj 83 233 tabwrite~ scope;
#X obj 35 233 dac~;
#X obj 85 52 osc~ 110;
#X obj 162 101 line;
#X obj 232 101 line;
#X msg 162 76 \$1 50 1;
#X msg 232 76 \$1 50 1;
#X obj 232 21 tgl 20 0 empty empty empty 0 -10 0 12 #fcfcfc #000000 #000000 0 0.1;
#X msg 162 132 freq \$1;
#X msg 232 131 amp \$1;
#X connect 0 0 7 0;
#X connect 0 0 8 0;
#X connect 0 0 8 1;
#X connect 1 0 12 0;
#X connect 2 0 13 0;
#X connect 4 0 5 0;
#X connect 5 0 7 0;
#X connect 6 0 9 0;
#X connect 9 0 0 0;
#X connect 10 0 15 0;
#X connect 11 0 16 0;
#X connect 12 0 10 0;
#X connect 13 0 11 0;
#X connect 14 0 2 0;
#X connect 15 0 0 0;
#X connect 16 0 0 0;
