#N canvas 171 212 323 395 10;
#X obj 121 118 inlet;
#X obj 178 228 tgl 15 0 empty empty empty 17 7 0 10 -262144 -1 -1 1
1;
#X msg 151 157 open ./;
#X obj 178 259 print;
#X obj 121 200 ./dir test;
#X connect 0 0 4 0;
#X connect 1 0 3 0;
#X connect 2 0 4 0;
#X connect 4 3 1 0;
