#N canvas 370 189 555 415 12;
#X obj 146 221 else/op~ > 0;
#X obj 76 31 inlet~;
#X obj 171 31 inlet;
#X obj 171 108 != 0;
#X obj 100 147 == 0;
#X obj 75 181 *~ 0;
#X obj 146 147 *~ 1;
#X obj 146 343 outlet~;
#X text 253 141 Part of ELSE \; https://github.com/porres/pd-else;
#X text 255 122 Alexandre Torres Porres (2026);
#N canvas 142 130 340 311 init 1;
#X obj 124 29 loadbang;
#X obj 112 205 outlet;
#X obj 124 57 else/args -;
#X obj 124 91 route -off float;
#X obj 80 128 t a b;
#X msg 112 155 0;
#X obj 178 144 sel 0;
#X obj 178 117 max 0;
#X obj 210 176 s \$0-norm;
#X connect 0 0 2 0;
#X connect 2 0 3 0;
#X connect 3 0 4 0;
#X connect 3 1 7 0;
#X connect 4 0 3 0;
#X connect 4 1 5 0;
#X connect 5 0 1 0;
#X connect 6 1 8 0;
#X connect 7 0 6 0;
#X restore 190 69 pd init;
#X obj 146 303 *~ 1;
#X obj 190 303 r \$0-norm;
#N canvas 142 130 337 257 set 0;
#X obj 120 71 inlet;
#X obj 120 108 route set;
#X obj 152 197 s \$0-norm;
#X obj 120 169 sel 0;
#X obj 120 138 max 0;
#X connect 0 0 1 0;
#X connect 1 0 4 0;
#X connect 3 1 2 0;
#X connect 4 0 3 0;
#X restore 115 61 pd set;
#X obj 253 220 else/sign~;
#X obj 146 191 abs~;
#X obj 146 275 *~;
#X connect 0 0 16 0;
#X connect 1 0 6 0;
#X connect 1 0 5 0;
#X connect 1 1 13 0;
#X connect 2 0 3 0;
#X connect 3 0 4 0;
#X connect 3 0 6 1;
#X connect 4 0 5 1;
#X connect 5 0 7 0;
#X connect 6 0 15 0;
#X connect 6 0 14 0;
#X connect 10 0 3 0;
#X connect 11 0 7 0;
#X connect 12 0 11 1;
#X connect 14 0 16 1;
#X connect 15 0 0 0;
#X connect 16 0 11 0;
