#N canvas 499 23 867 595 12;
#X obj 401 379 f;
#X obj 439 372 + 1;
#X obj 155 20 bng 15 250 50 0 empty empty empty 17 7 0 10 #fcfcfc #000000
#000000;
#X obj 425 274 t f b;
#X msg 457 313 0;
#N canvas 802 324 302 386 init 0;
#X obj 106 305 +;
#X obj 101 125 t f f b;
#X obj 101 23 inlet;
#X obj 101 93 * -1;
#X obj 231 217 * 100;
#X obj 124 273 +;
#X obj 124 243 *;
#X obj 106 342 outlet;
#X obj 124 198 div;
#X obj 161 192 tabread scale_\$0, f 8;
#X obj 51 259 tabread scale_\$0, f 8;
#X obj 147 156 v n_m1;
#X obj 51 192 mod;
#X obj 63 228 v count;
#X obj 101 57 trigger flaot float;
#X floatatom 154 308 12 0 0 0 - - - 0;
#X floatatom 30 330 7 0 0 0 - - - 0;
#X floatatom 182 348 7 0 0 0 - - - 0;
#X floatatom 14 228 5 0 0 0 - - - 0;
#X connect 0 0 7 0;
#X connect 0 0 17 0;
#X connect 1 0 12 0;
#X connect 1 1 8 0;
#X connect 1 2 11 0;
#X connect 2 0 14 0;
#X connect 3 0 1 0;
#X connect 4 0 5 1;
#X connect 5 0 0 1;
#X connect 5 0 15 0;
#X connect 6 0 5 0;
#X connect 8 0 6 0;
#X connect 9 0 6 1;
#X connect 10 0 0 0;
#X connect 10 0 16 0;
#X connect 11 0 8 1;
#X connect 11 0 9 0;
#X connect 11 0 12 1;
#X connect 12 0 10 0;
#X connect 12 0 13 0;
#X connect 12 0 18 0;
#X connect 14 0 3 0;
#X connect 14 1 4 0;
#X restore 277 349 pd init;
#X msg 587 210 2 24;
#X msg 576 187 3 13;
#X text 600 161 equal temperament;
#X text 610 188 bohlen-pierce;
#X text 623 209 quarter tones;
#X obj 533 194 bng 18 250 50 0 empty empty empty 17 7 0 10 #dcdcdc
#000000 #000000;
#X obj 564 238 else/eqdiv 2 7;
#X obj 425 231 f 60;
#X msg 469 207 57;
#X msg 462 180 60;
#X obj 285 423 tabwrite \$0-remap;
#X obj 79 97 array get \$0-remap;
#X obj 626 268 loadbang;
#X obj 77 463 outlet;
#X obj 274 17 inlet;
#X obj 79 124 else/insert remap;
#X obj 448 101 array define \$0-remap 128;
#X msg 564 161 2 48;
#X obj 224 388 / 100;
#X text 555 540 works between 0 and 127;
#X msg 582 323 0 180 350 500 700 850 1030 1200;
#X obj 449 75 array define scale_\$0;
#X obj 568 349 else/buffer scale_\$0;
#X obj 350 127 v dif_\$0;
#X obj 277 389 v sum_\$0;
#X msg 450 149 0;
#X obj 568 384 list length;
#X obj 568 413 - 1;
#X obj 568 444 v n_m1;
#X obj 194 265 trigger float bang, f 30;
#X obj 194 155 else/loop -b 127;
#X obj 274 50 trigger bang bang bang;
#X obj 350 152 v count;
#X obj 99 347 print;
#X obj 194 185 expr sum_\$0 = sum_\$0 + dif_\$0 \; dif_\$0 = scale_\$0[count]
- scale_\$0[count-1] \; count = (count % n_m1) + 1, f 31;
#X obj 390 534 ./sfont~;
#X obj 467 482 else/insert scale;
#X msg 659 54 60 7;
#X obj 659 78 /;
#X floatatom 659 102 5 0 0 0 - - - 0;
#X msg 780 52 60 7;
#X floatatom 780 100 5 0 0 0 - - - 0;
#X obj 780 76 div;
#X floatatom 721 94 5 0 0 0 - - - 0;
#X obj 721 70 div;
#X msg 721 46 -60 7;
#X msg 328 494 base \$1;
#X connect 0 0 1 0;
#X connect 0 0 16 1;
#X connect 1 0 0 1;
#X connect 2 0 37 0;
#X connect 3 0 5 0;
#X connect 3 1 4 0;
#X connect 4 0 0 0;
#X connect 5 0 24 0;
#X connect 5 0 30 0;
#X connect 6 0 12 0;
#X connect 7 0 12 0;
#X connect 11 0 12 0;
#X connect 12 0 28 0;
#X connect 13 0 3 0;
#X connect 14 0 13 1;
#X connect 14 0 52 0;
#X connect 15 0 13 1;
#X connect 15 0 52 0;
#X connect 17 0 21 0;
#X connect 18 0 6 0;
#X connect 20 0 37 0;
#X connect 21 0 19 0;
#X connect 23 0 12 0;
#X connect 24 0 16 0;
#X connect 26 0 28 0;
#X connect 28 0 32 0;
#X connect 28 0 42 0;
#X connect 31 0 13 1;
#X connect 31 0 52 0;
#X connect 32 0 33 0;
#X connect 33 0 34 0;
#X connect 35 0 24 0;
#X connect 35 1 0 0;
#X connect 36 0 40 0;
#X connect 37 0 17 0;
#X connect 37 1 36 0;
#X connect 37 2 13 0;
#X connect 40 0 35 0;
#X connect 42 0 41 0;
#X connect 43 0 44 0;
#X connect 44 0 45 0;
#X connect 46 0 48 0;
#X connect 48 0 47 0;
#X connect 50 0 49 0;
#X connect 51 0 50 0;
#X connect 52 0 41 0;
