#N canvas 536 130 329 362 12;
#X obj 66 49 inlet~;
#X obj 66 301 outlet~;
#X obj 97 110 route seed;
#X obj 97 134 route bang float;
#X msg 97 178 seed;
#X msg 147 209 seed \$1;
#X obj 147 166 + \$1;
#X obj 66 247 stepnoise~;
#X connect 0 0 7 0;
#X connect 0 1 2 0;
#X connect 2 0 3 0;
#X connect 3 0 4 0;
#X connect 3 1 6 0;
#X connect 4 0 7 0;
#X connect 5 0 7 0;
#X connect 6 0 5 0;
#X connect 7 0 1 0;
