#N canvas 350 96 396 362 10;
#X obj 40 42 inlet~;
#X obj 40 110 env~;
#X obj 87 160 dbtorms;
#X obj 40 256 *;
#X obj 87 256 *;
#X obj 154 209 expr 1 - $f1;
#X obj 40 160 - 100;
#X obj 154 104 route symbol;
#X obj 154 127 sel db;
#X obj 154 82 list append \$1;
#X msg 154 160 1;
#X msg 187 160 0;
#X obj 154 188 f;
#X obj 154 59 loadbang;
#X obj 40 318 outlet;
#X obj 40 284 +;
#X connect 0 0 1 0;
#X connect 1 0 2 0;
#X connect 1 0 6 0;
#X connect 2 0 4 0;
#X connect 3 0 15 0;
#X connect 4 0 15 1;
#X connect 5 0 4 1;
#X connect 6 0 3 0;
#X connect 7 0 8 0;
#X connect 7 1 11 0;
#X connect 8 0 10 0;
#X connect 8 1 11 0;
#X connect 9 0 7 0;
#X connect 10 0 12 0;
#X connect 11 0 12 0;
#X connect 12 0 5 0;
#X connect 12 0 3 1;
#X connect 13 0 9 0;
#X connect 15 0 14 0;
