#N canvas 902 238 626 346 10;
#X text 97 253 list of arguments =>;
#X obj 244 293 outlet;
#X obj 295 294 outlet;
#X obj 244 104 inlet;
#X text 304 251 <= bang if there are no arguments;
#X obj 244 204 route list bang;
#X obj 244 167 else/args;
#X text 87 36 This is an example of an abstraction with [else/args]
\, used in its help file (args-help.pd).;
#X connect 3 0 6 0;
#X connect 5 0 1 0;
#X connect 5 1 2 0;
#X connect 6 0 5 0;
