#N canvas 458 348 632 388 10;
#X obj 192 281 outlet~;
#X obj 79 20 inlet;
#X obj 29 20 inlet~;
#X obj 120 21 inlet;
#X obj 207 20 inlet;
#X obj 192 179 *~;
#X obj 292 24 inlet;
#X text 374 66 Part of ELSE \; https://github.com/porres/pd-else;
#X text 376 47 Alexandre Torres Porres (2017);
#X obj 279 226 sel 0;
#X obj 279 179 loadbang;
#X msg 279 250 1;
#X obj 56 134 else/bandpass~;
#X obj 207 148 else/float2sig~;
#X obj 279 202 f \$1;
#X obj 192 231 /~ \$1;
#X text 378 111 This is an abstraction used on the [bpbank~] object
, f 27;
#X obj 79 98 else/float2sig~;
#X obj 92 59 else/float2sig~;
#X connect 1 0 17 0;
#X connect 2 0 12 0;
#X connect 3 0 18 0;
#X connect 4 0 13 0;
#X connect 5 0 15 0;
#X connect 6 0 13 1;
#X connect 6 0 17 1;
#X connect 6 0 18 1;
#X connect 9 0 11 0;
#X connect 10 0 14 0;
#X connect 11 0 15 1;
#X connect 12 0 5 0;
#X connect 13 0 5 1;
#X connect 14 0 9 0;
#X connect 15 0 0 0;
#X connect 17 0 12 1;
#X connect 18 0 12 2;
