#N canvas 706 104 769 329 10;
#X obj 84 73 inlet~;
#X obj 169 72 inlet;
#X text 82 53 in;
#X text 166 53 predelay;
#X obj 311 71 inlet;
#X obj 431 69 inlet;
#X obj 431 97 clip 0 1;
#X obj 537 68 inlet;
#X obj 537 91 clip 0 1;
#X text 535 50 gain;
#X obj 624 73 inlet;
#X obj 84 268 outlet~;
#X obj 151 268 outlet~;
#X text 617 50 dry/wet;
#X obj 537 117 s \$0-gain;
#X obj 431 119 s \$0-damping;
#X obj 624 101 s \$0-mix;
#N canvas 4 23 450 300 dry-wet 0;
#X obj 82 205 else/xfade~ 2;
#X obj 222 157 - 1;
#X obj 222 134 * 0.02;
#X obj 222 184 else/float2sig~ 10;
#X obj 222 109 r \$0-mix;
#X obj 157 239 outlet~;
#X obj 81 241 outlet~;
#X obj 51 41 inlet~;
#X obj 127 47 inlet~;
#X obj 194 48 inlet~;
#X connect 0 0 6 0;
#X connect 0 1 5 0;
#X connect 1 0 3 0;
#X connect 2 0 1 0;
#X connect 3 0 0 4;
#X connect 4 0 2 0;
#X connect 7 0 0 0;
#X connect 7 0 0 1;
#X connect 8 0 0 2;
#X connect 9 0 0 3;
#X restore 84 229 pd dry-wet;
#N canvas 349 23 730 640 delread 0;
#X obj 131 341 +~;
#X obj 141 364 -~;
#X obj 154 390 +~;
#X obj 168 415 -~;
#X obj 185 441 -~;
#X obj 196 468 -~;
#X obj 404 348 +~;
#X obj 414 371 -~;
#X obj 427 397 +~;
#X obj 441 422 -~;
#X obj 458 448 -~;
#X obj 469 475 -~;
#X obj 196 497 *~ 0.125;
#X obj 474 498 *~ 0.125;
#X obj 330 213 *~;
#X obj 165 216 *~;
#X obj 165 116 delread~ \$0-dela 141.69, f 14;
#X obj 330 117 delread~ \$0-deld 149.62, f 14;
#X obj 165 240 delwrite~ \$0-delc 200, f 11;
#X obj 330 243 delwrite~ \$0-delf 200, f 11;
#X obj 130 296 delread~ \$0-dela 8.9;
#X obj 149 319 delread~ \$0-dela 99.8;
#X obj 172 365 delread~ \$0-delc 67;
#X obj 186 390 delread~ \$0-deld 66.8;
#X obj 214 440 delread~ \$0-delf 35.8;
#X obj 487 450 delread~ \$0-delc 4.1;
#X obj 459 397 delread~ \$0-dela 70.8;
#X obj 445 372 delread~ \$0-delf 89.7;
#X obj 422 324 delread~ \$0-deld 121.7;
#X obj 404 303 delread~ \$0-deld 11.8;
#N canvas 313 48 527 392 AP-2tap 0;
#X obj 42 36 inlet~;
#X obj 42 178 +~;
#X text 42 17 sound;
#X obj 134 249 +~;
#X obj 134 308 outlet~;
#X obj 243 320 outlet~;
#X obj 348 323 outlet~;
#X obj 317 108 block~ 1;
#X obj 42 245 delwrite~ \$0-ap1 100, f 11;
#X obj 133 82 delread~ \$0-ap1 89.24, f 13;
#X obj 60 149 *~ 0.5;
#X obj 152 228 *~ -0.5;
#X obj 243 192 delread~ \$0-ap1 64.2, f 11;
#X obj 348 191 delread~ \$0-ap1 11.2, f 12;
#X connect 0 0 1 0;
#X connect 1 0 8 0;
#X connect 1 0 11 0;
#X connect 3 0 4 0;
#X connect 9 0 3 0;
#X connect 9 0 10 0;
#X connect 10 0 1 1;
#X connect 11 0 3 1;
#X connect 12 0 5 0;
#X connect 13 0 6 0;
#X restore 165 190 pd AP-2tap;
#N canvas 313 48 527 392 AP-2tap 0;
#X obj 42 36 inlet~;
#X obj 42 178 +~;
#X text 42 17 sound;
#X obj 134 249 +~;
#X obj 134 308 outlet~;
#X obj 243 320 outlet~;
#X obj 348 323 outlet~;
#X obj 317 108 block~ 1;
#X obj 60 149 *~ 0.5;
#X obj 152 228 *~ -0.5;
#X obj 42 245 delwrite~ \$0-ap2 100, f 11;
#X obj 133 82 delread~ \$0-ap2 60.48, f 13;
#X obj 243 192 delread~ \$0-ap2 6.3, f 11;
#X obj 348 191 delread~ \$0-ap2 41.2, f 12;
#X connect 0 0 1 0;
#X connect 1 0 9 0;
#X connect 1 0 10 0;
#X connect 3 0 4 0;
#X connect 8 0 1 1;
#X connect 9 0 3 1;
#X connect 11 0 3 0;
#X connect 11 0 8 0;
#X connect 12 0 5 0;
#X connect 13 0 6 0;
#X restore 330 182 pd AP-2tap;
#X obj 363 214 r \$0-gain;
#X obj 198 217 r \$0-gain;
#N canvas 190 86 450 300 damping 0;
#X obj 140 125 - 1;
#X obj 140 148 * -1;
#X obj 122 200 rpole~;
#X obj 122 176 *~;
#X obj 198 99 r \$0-damping;
#X obj 119 57 inlet~;
#X obj 124 235 outlet~;
#X connect 0 0 1 0;
#X connect 1 0 3 1;
#X connect 2 0 6 0;
#X connect 3 0 2 0;
#X connect 4 0 2 1;
#X connect 4 0 0 0;
#X connect 5 0 3 0;
#X restore 330 154 pd damping;
#N canvas 190 86 450 300 damping 0;
#X obj 140 125 - 1;
#X obj 140 148 * -1;
#X obj 122 200 rpole~;
#X obj 122 176 *~;
#X obj 198 99 r \$0-damping;
#X obj 119 57 inlet~;
#X obj 124 235 outlet~;
#X connect 0 0 1 0;
#X connect 1 0 3 1;
#X connect 2 0 6 0;
#X connect 3 0 2 0;
#X connect 4 0 2 1;
#X connect 4 0 0 0;
#X connect 5 0 3 0;
#X restore 165 161 pd damping;
#X obj 198 532 outlet~;
#X obj 475 538 outlet~;
#X obj 167 41 inlet~;
#X connect 0 0 1 0;
#X connect 1 0 2 0;
#X connect 2 0 3 0;
#X connect 3 0 4 0;
#X connect 4 0 5 0;
#X connect 5 0 12 0;
#X connect 6 0 7 0;
#X connect 7 0 8 0;
#X connect 8 0 9 0;
#X connect 9 0 10 0;
#X connect 10 0 11 0;
#X connect 11 0 13 0;
#X connect 12 0 36 0;
#X connect 13 0 37 0;
#X connect 14 0 19 0;
#X connect 15 0 18 0;
#X connect 16 0 35 0;
#X connect 17 0 34 0;
#X connect 20 0 0 0;
#X connect 21 0 0 1;
#X connect 22 0 2 1;
#X connect 23 0 3 1;
#X connect 24 0 5 1;
#X connect 25 0 11 1;
#X connect 26 0 9 1;
#X connect 27 0 8 1;
#X connect 28 0 6 1;
#X connect 29 0 6 0;
#X connect 30 0 15 0;
#X connect 30 1 1 1;
#X connect 30 2 10 1;
#X connect 31 0 14 0;
#X connect 31 1 4 1;
#X connect 31 2 7 1;
#X connect 32 0 14 1;
#X connect 33 0 15 1;
#X connect 34 0 31 0;
#X connect 35 0 30 0;
#X restore 117 199 pd delread;
#X obj 311 120 s \$0-bandwitdh;
#X obj 311 94 clip 0 1;
#X text 308 50 bandwitdh;
#X text 429 50 damping;
#N canvas 266 34 459 416 delwrite 1;
#X obj 239 238 *~;
#X obj 189 158 *~;
#X obj 189 244 +~;
#X obj 91 231 +~;
#X obj 189 111 delread~ \$0-delf 125, f 11;
#X obj 239 196 delread~ \$0-delc 106.28, f 14;
#N canvas 223 171 450 300 4-stage 0;
#X obj 113 132 cyclone/allpass~ 4 3.595 0.75;
#X obj 113 108 cyclone/allpass~ 5 4.771 0.75;
#X obj 113 157 cyclone/allpass~ 13 12.73 0.625;
#X obj 114 177 cyclone/allpass~ 10 9.307 0.625;
#X obj 114 78 inlet~;
#X obj 115 212 outlet~;
#X connect 0 0 2 0;
#X connect 1 0 0 0;
#X connect 2 0 3 0;
#X connect 3 0 5 0;
#X connect 4 0 1 0;
#X restore 78 152 pd 4-stage \; Allpass;
#N canvas 142 35 345 283 AP-Mod 0;
#X obj 86 37 inlet~;
#X obj 92 154 cyclone/allpass~ 35 0 0.7, f 16;
#X obj 146 96 osc~ 0.1;
#X obj 146 118 else/rescale~ 26.51 34.51, f 13;
#X obj 94 213 outlet~;
#X connect 0 0 1 0;
#X connect 1 0 4 0;
#X connect 2 0 3 0;
#X connect 3 0 1 1;
#X restore 91 269 pd AP-Mod;
#N canvas 158 31 308 269 AP-Mod 0;
#X obj 76 151 cyclone/allpass~ 35 0 0.7, f 16;
#X obj 130 90 osc~ 0.07;
#X obj 130 112 else/rescale~ 18.58 26.58, f 14;
#X obj 74 54 inlet~;
#X obj 76 195 outlet~;
#X connect 0 0 4 0;
#X connect 1 0 2 0;
#X connect 2 0 0 1;
#X connect 3 0 0 0;
#X restore 189 271 pd AP-Mod;
#X obj 189 305 delwrite~ \$0-deld 200, f 12;
#X obj 91 301 delwrite~ \$0-dela 200, f 11;
#X obj 274 239 r \$0-gain;
#X obj 227 158 r \$0-gain;
#N canvas 4 23 455 400 bandwidth 1;
#X obj 165 249 rpole~;
#X obj 166 211 *~;
#X obj 334 149 - 1;
#X obj 334 172 * -1;
#X obj 176 104 inlet~;
#X obj 170 285 outlet~;
#X obj 334 122 r \$0-bandwitdh;
#X connect 0 0 5 0;
#X connect 1 0 0 0;
#X connect 2 0 3 0;
#X connect 3 0 0 1;
#X connect 4 0 1 0;
#X connect 6 0 1 1;
#X connect 6 0 2 0;
#X restore 78 108 pd bandwidth;
#X obj 77 71 inlet~;
#X obj 119 354 outlet~;
#X connect 0 0 2 1;
#X connect 1 0 3 1;
#X connect 2 0 8 0;
#X connect 3 0 7 0;
#X connect 4 0 1 0;
#X connect 5 0 0 0;
#X connect 6 0 3 0;
#X connect 6 0 2 0;
#X connect 7 0 10 0;
#X connect 8 0 9 0;
#X connect 11 0 0 1;
#X connect 12 0 1 1;
#X connect 13 0 6 0;
#X connect 14 0 13 0;
#X restore 117 175 pd delwrite;
#N canvas 107 23 450 300 pre-delay 0;
#N canvas 4 23 450 300 pre-delay-write 0;
#X obj 92 100 *~ 0.5;
#X obj 92 126 delwrite~ \$0-predelay 200, f 16;
#X obj 92 72 inlet~;
#X obj 98 189 outlet~;
#X connect 0 0 1 0;
#X connect 2 0 0 0;
#X restore 124 128 pd pre-delay-write;
#X obj 126 74 inlet~;
#X obj 123 230 outlet~;
#N canvas 602 273 450 300 pre-delay-read 0;
#X obj 131 148 clip 0 200;
#X obj 131 186 delread~ \$0-predelay;
#X obj 127 80 inlet~;
#X obj 133 232 outlet~;
#X obj 136 120 r \$0-predelay;
#X connect 0 0 1 0;
#X connect 1 0 3 0;
#X connect 4 0 0 0;
#X restore 125 173 pd pre-delay-read;
#X connect 0 0 3 0;
#X connect 1 0 0 0;
#X connect 3 0 2 0;
#X restore 117 145 pd pre-delay;
#X obj 172 94 s \$0-predelay;
#X connect 0 0 17 0;
#X connect 0 0 24 0;
#X connect 1 0 25 0;
#X connect 4 0 20 0;
#X connect 5 0 6 0;
#X connect 6 0 15 0;
#X connect 7 0 8 0;
#X connect 8 0 14 0;
#X connect 10 0 16 0;
#X connect 17 0 11 0;
#X connect 17 1 12 0;
#X connect 18 0 17 1;
#X connect 18 1 17 2;
#X connect 20 0 19 0;
#X connect 23 0 18 0;
#X connect 24 0 23 0;
