#N canvas 469 373 831 388 10;
#X obj 404 273 s \$0-display;
#X msg 404 243 label \$1;
#X obj 268 154 loadbang;
#X obj 337 198 symbol;
#X obj 101 101 cnv 15 89 20 empty \$0-display empty 3 10 0 12 -233017
-66577 0;
#X obj 101 101 cnv 1 6 1 empty empty empty 20 12 0 14 -1 -66577 0;
#X obj 404 122 list fromsymbol;
#X obj 404 187 list tosymbol;
#X obj 100 133 namecanvas \$0-canvas;
#X obj 582 241 s \$0-display;
#X obj 582 150 * 7;
#X msg 582 211 vis_size \$1 20;
#X obj 582 176 + 5;
#X obj 532 302 send \$0-canvas;
#X obj 531 226 + 2;
#N canvas 4 23 450 300 init 0;
#X obj 98 93 float \$1;
#X obj 98 142 moses;
#X obj 98 118 int;
#X obj 129 163 sel 0;
#X msg 98 195 12;
#X obj 98 67 loadbang;
#X obj 161 237 s \$0-size;
#X connect 0 0 2 0;
#X connect 1 0 4 0;
#X connect 1 1 3 0;
#X connect 2 0 1 0;
#X connect 3 0 4 0;
#X connect 3 1 6 0;
#X connect 4 0 6 0;
#X connect 5 0 0 0;
#X restore 651 161 pd init;
#X obj 582 113 r \$0-size;
#X obj 404 156 list split;
#X obj 337 39 inlet;
#X floatatom 515 159 5 0 0 0 - - -, f 5;
#X obj 373 162 bng 15 250 50 0 empty empty empty 17 7 0 10 -262144
-1 -1;
#X obj 97 300 send \$0-display;
#X msg 104 260 label_pos 3 10;
#X msg 71 213 label_font 0 12;
#X obj 404 92 else/any2symbol;
#X msg 532 278 coords 0 1 1 -1 \$1 22 1 100 100 1;
#X msg 669 119 12;
#X connect 1 0 0 0;
#X connect 2 0 3 0;
#X connect 3 0 1 0;
#X connect 6 0 17 0;
#X connect 7 0 1 0;
#X connect 10 0 12 0;
#X connect 11 0 9 0;
#X connect 12 0 11 0;
#X connect 12 0 14 0;
#X connect 16 0 10 0;
#X connect 16 0 17 1;
#X connect 16 0 19 0;
#X connect 17 0 7 0;
#X connect 17 2 7 0;
#X connect 18 0 24 0;
#X connect 20 0 3 0;
#X connect 22 0 21 0;
#X connect 23 0 21 0;
#X connect 24 0 6 0;
#X connect 25 0 13 0;
#X connect 26 0 10 0;
#X coords 0 1 1 -1 91 22 1 100 100;
