#N canvas 201 173 558 394 10;
#X obj 101 101 cnv 10 110 20 empty \$0-display empty 2 10 0 12 -233017
-66577 0;
#X obj 101 101 cnv 1 6 1 empty empty empty 20 12 0 14 -1 -66577 0;
#X obj 101 136 namecanvas \$0-canvas, f 11;
#X obj 248 56 inlet;
#X obj 343 111 else/any2symbol;
#N canvas 753 86 615 416 init 0;
#X obj 97 139 float \$1;
#X obj 97 188 moses;
#X obj 97 164 int;
#X obj 129 209 sel 0;
#X obj 97 81 loadbang;
#X obj 161 308 s \$0-size;
#X obj 161 233 t f b;
#X msg 97 241 1;
#X msg 193 256 1;
#X obj 193 282 s \$0-fixed;
#X msg 63 241 0;
#X obj 213 205 s \$0-display;
#X obj 213 145 symbol;
#X obj 97 112 trigger bang bang;
#N canvas 271 23 463 403 resize 0;
#X obj 170 256 s \$0-display;
#X obj 170 165 * 7;
#X msg 170 226 vis_size \$1 20;
#X obj 170 191 + 5;
#X obj 120 317 send \$0-canvas;
#X obj 119 241 + 2;
#X msg 120 293 coords 0 1 1 -1 \$1 22 2 100 100 1;
#X obj 170 95 inlet;
#X connect 1 0 3 0;
#X connect 2 0 0 0;
#X connect 3 0 2 0;
#X connect 3 0 5 0;
#X connect 5 0 6 0;
#X connect 6 0 4 0;
#X connect 7 0 1 0;
#X restore 97 346 pd resize;
#X msg 213 175 label_font 0 12 \, label_pos 2 10 \, size 10 \, label
\$1;
#X obj 368 223 else/sr~ khz;
#X obj 368 340 metro;
#X obj 368 367 s \$0-bang;
#X obj 368 249 expr 64 / $f1 \; if(\$2 <= 0 \, 100 \, \$2);
#X obj 368 292 expr if($f2 < $f1 \, $f1 \, $f2);
#X obj 368 315 t b f;
#X connect 0 0 2 0;
#X connect 1 0 7 0;
#X connect 1 0 10 0;
#X connect 1 1 3 0;
#X connect 2 0 1 0;
#X connect 3 0 7 0;
#X connect 3 0 10 0;
#X connect 3 1 6 0;
#X connect 4 0 13 0;
#X connect 6 0 5 0;
#X connect 6 0 14 0;
#X connect 6 1 8 0;
#X connect 7 0 5 0;
#X connect 7 0 14 0;
#X connect 8 0 9 0;
#X connect 10 0 9 0;
#X connect 12 0 15 0;
#X connect 13 0 0 0;
#X connect 13 1 12 0;
#X connect 15 0 11 0;
#X connect 16 0 19 0;
#X connect 17 0 18 0;
#X connect 19 0 20 0;
#X connect 19 1 20 1;
#X connect 20 0 21 0;
#X connect 21 0 17 0;
#X connect 21 1 17 1;
#X restore 391 65 pd init;
#X obj 304 185 list prepend;
#X obj 385 160 r \$0-fixed;
#X obj 304 214 route 0 1;
#N canvas 0 22 555 407 not-fixed 0;
#X obj 215 95 inlet;
#X obj 215 214 s \$0-display;
#X msg 215 184 label \$1;
#N canvas 271 23 463 403 resize 0;
#X obj 170 256 s \$0-display;
#X obj 170 165 * 7;
#X msg 170 226 vis_size \$1 20;
#X obj 170 191 + 5;
#X obj 120 317 send \$0-canvas;
#X obj 119 241 + 2;
#X msg 120 293 coords 0 1 1 -1 \$1 22 2 100 100 1;
#X obj 170 136 list length;
#X obj 170 75 inlet;
#X obj 170 107 list fromsymbol;
#X connect 1 0 3 0;
#X connect 2 0 0 0;
#X connect 3 0 2 0;
#X connect 3 0 5 0;
#X connect 5 0 6 0;
#X connect 6 0 4 0;
#X connect 7 0 1 0;
#X connect 8 0 9 0;
#X connect 9 0 7 0;
#X restore 263 156 pd resize;
#X obj 215 156 t s s;
#X obj 215 123 symbol;
#X connect 0 0 5 0;
#X connect 2 0 1 0;
#X connect 4 0 2 0;
#X connect 4 1 3 0;
#X connect 5 0 4 0;
#X restore 304 285 pd not-fixed;
#N canvas 0 22 555 407 fixed 0;
#X obj 215 95 inlet;
#X obj 301 192 r \$0-size;
#X obj 215 159 list fromsymbol;
#X obj 215 224 list tosymbol;
#X obj 215 193 list split;
#X obj 215 283 s \$0-display;
#X msg 215 253 label \$1;
#X obj 215 126 symbol;
#X connect 0 0 7 0;
#X connect 1 0 4 1;
#X connect 2 0 4 0;
#X connect 3 0 6 0;
#X connect 4 0 3 0;
#X connect 4 2 3 0;
#X connect 6 0 5 0;
#X connect 7 0 2 0;
#X restore 334 247 pd fixed;
#X obj 247 329 outlet;
#X obj 101 121 cnv 1 6 1 empty empty empty 20 12 0 14 -1 -66577 0;
#X obj 262 112 r \$0-bang;
#X obj 108 203 block~ 64;
#X obj 304 154 symbol;
#X connect 3 0 11 0;
#X connect 3 0 4 0;
#X connect 4 0 15 1;
#X connect 6 0 8 0;
#X connect 7 0 6 1;
#X connect 8 0 9 0;
#X connect 8 1 10 0;
#X connect 13 0 15 0;
#X connect 15 0 6 0;
#X coords 0 1 1 -1 112 22 2 100 100;
