#N canvas 589 23 279 448 10;
#X text 145 332 porres 2017 \, for else library, f 12;
#X obj 45 402 outlet~;
#X obj 45 33 noise~;
#X obj 45 90 *~ 2400;
#X obj 45 60 else/sh~;
#X obj 45 132 else/cents2ratio~;
#X obj 45 222 else/imp~;
#X obj 174 100 inlet;
#X obj 174 151 f \$1;
#X obj 187 125 loadbang;
#X obj 66 254 delwrite~ \$0-fb 1;
#X obj 90 34 delread~ \$0-fb 0;
#X obj 45 317 *~;
#X obj 60 292 noise~;
#X obj 45 349 abs~;
#X obj 45 183 *~ 1;
#X connect 2 0 4 0;
#X connect 3 0 5 0;
#X connect 4 0 3 0;
#X connect 5 0 15 0;
#X connect 6 0 10 0;
#X connect 6 0 12 0;
#X connect 7 0 8 0;
#X connect 8 0 15 1;
#X connect 9 0 8 0;
#X connect 11 0 4 1;
#X connect 12 0 14 0;
#X connect 13 0 12 1;
#X connect 14 0 1 0;
#X connect 15 0 6 0;
