#N canvas 589 23 516 292 10;
#X text 63 68 Part of ELSE \; https://github.com/porres/pd-else;
#X text 65 49 Alexandre Torres Porres (2017);
#X obj 53 136 noise~;
#X obj 53 165 else/rescale~;
#X obj 304 93 *~;
#X obj 53 197 expr~ if($v1 < $v2 \, $v1 * $v3 \, 0);
#X obj 319 70 else/sr~ -sec;
#X obj 53 245 outlet~;
#X obj 304 26 inlet~;
#X obj 395 150 /~;
#X obj 395 113 sig~ 1;
#X obj 248 174 expr~ if($v1 > 0 \, $v2 \, 0);
#X connect 2 0 3 0;
#X connect 3 0 5 0;
#X connect 4 0 5 1;
#X connect 4 0 9 1;
#X connect 4 0 11 0;
#X connect 5 0 7 0;
#X connect 6 0 4 1;
#X connect 8 0 4 0;
#X connect 9 0 11 1;
#X connect 10 0 9 0;
#X connect 11 0 5 2;
