#N canvas 589 23 457 497 10;
#X obj 45 432 outlet~;
#X obj 60 63 noise~;
#X obj 82 140 *~ 2400;
#X obj 82 110 else/sh~;
#X obj 82 182 else/cents2ratio~;
#X obj 82 272 else/imp~;
#X obj 241 30 inlet;
#X obj 241 191 f \$1;
#X obj 254 165 loadbang;
#X obj 82 324 delwrite~ \$0-fb 1;
#X obj 127 84 delread~ \$0-fb 0;
#X obj 45 367 *~;
#X obj 82 233 *~;
#X obj 45 398 abs~;
#X text 229 325 Part of ELSE \; https://github.com/porres/pd-else;
#X text 231 306 Alexandre Torres Porres (2017);
#X connect 1 0 3 0;
#X connect 1 0 11 1;
#X connect 2 0 4 0;
#X connect 3 0 2 0;
#X connect 4 0 12 0;
#X connect 5 0 9 0;
#X connect 5 0 11 0;
#X connect 6 0 7 0;
#X connect 7 0 12 1;
#X connect 8 0 7 0;
#X connect 10 0 3 1;
#X connect 11 0 13 0;
#X connect 12 0 5 0;
#X connect 13 0 0 0;
