#N canvas 589 23 685 629 10;
#X obj 40 112 noise~;
#X obj 114 79 f \$1;
#X obj 114 136 else/imp~;
#X obj 69 172 else/sh~;
#X obj 127 53 loadbang;
#X text 207 119 porres 2017 \, for else library, f 12;
#X obj 114 108 * 2;
#X obj 457 541 outlet~;
#X obj 69 206 fexpr~ if($x1[0] > 0 && $x1[-1] <= 0 || $x1[0] < 0 &&
$x1[-1] >= 0 \, abs($x1[0]) \, 0);
#X obj 80 436 metro;
#X obj 447 172 noise~;
#X obj 447 229 *~ 2400;
#X obj 447 199 else/sh~;
#X obj 447 271 else/cents2ratio~;
#X obj 447 361 else/imp~;
#X obj 576 239 inlet;
#X obj 576 290 f \$1;
#X obj 589 264 loadbang;
#X obj 468 393 delwrite~ \$0-fb 1;
#X obj 492 173 delread~ \$0-fb 0;
#X obj 450 456 *~;
#X obj 466 431 noise~;
#X obj 450 488 abs~;
#X obj 447 322 *~ 1;
#X connect 0 0 3 0;
#X connect 1 0 6 0;
#X connect 2 0 3 1;
#X connect 3 0 8 0;
#X connect 4 0 1 0;
#X connect 6 0 2 0;
#X connect 10 0 12 0;
#X connect 11 0 13 0;
#X connect 12 0 11 0;
#X connect 13 0 23 0;
#X connect 14 0 18 0;
#X connect 14 0 20 0;
#X connect 15 0 16 0;
#X connect 16 0 23 1;
#X connect 17 0 16 0;
#X connect 19 0 12 1;
#X connect 20 0 22 0;
#X connect 21 0 20 1;
#X connect 22 0 7 0;
#X connect 23 0 14 0;
