#N canvas 241 65 610 504 10;
#X obj 121 265 b;
#X obj 121 66 inlet;
#X msg 191 240 1;
#X obj 191 336 f;
#X obj 248 407 outlet;
#X obj 264 64 inlet;
#X text 295 195 Part of ELSE \; https://github.com/porres/pd-else;
#X text 297 176 Alexandre Torres Porres (2017);
#X obj 145 151 else/args;
#X obj 145 173 route bang float;
#X obj 145 128 loadbang;
#X obj 191 206 t b f;
#X obj 283 281 else/click;
#X obj 248 371 * 1;
#X obj 191 268 exp;
#X connect 0 0 3 0;
#X connect 1 0 0 0;
#X connect 2 0 14 0;
#X connect 3 0 13 0;
#X connect 5 0 13 1;
#X connect 8 0 9 0;
#X connect 9 0 2 0;
#X connect 9 1 11 0;
#X connect 10 0 8 0;
#X connect 11 0 2 0;
#X connect 11 1 13 1;
#X connect 12 0 3 0;
#X connect 13 0 4 0;
#X connect 14 0 3 0;
