#N canvas 467 23 456 326 10;
#X obj 107 63 loadbang;
#X obj 57 143 b;
#X obj 57 34 inlet;
#X msg 107 108 1;
#X obj 107 269 outlet;
#X obj 168 32 inlet;
#X obj 168 121 f \$1;
#X obj 107 84 t b b;
#X obj 168 150 expr if($f1 <= 0 \, 1 \, $f1);
#X obj 107 147 exp;
#X text 186 217 Part of ELSE \; https://github.com/porres/pd-else;
#X text 188 198 Alexandre Torres Porres (2017);
#X obj 107 196 f;
#X obj 107 239 *;
#X connect 0 0 7 0;
#X connect 1 0 12 0;
#X connect 2 0 1 0;
#X connect 3 0 9 0;
#X connect 5 0 6 0;
#X connect 6 0 8 0;
#X connect 7 0 3 0;
#X connect 7 1 6 0;
#X connect 8 0 13 1;
#X connect 9 0 12 0;
#X connect 12 0 13 0;
#X connect 13 0 4 0;
