#N canvas 307 75 515 334 12;
#X obj 67 141 tgl 15 0 empty empty empty 17 7 0 10 -262144 -1 -1 1
1;
#X obj 67 172 metro 1;
#X obj 147 70 inlet;
#X obj 229 72 inlet;
#N canvas 196 162 639 375 init 0;
#X obj 269 116 f \$1;
#X obj 269 152 / 1000;
#X obj 301 207 v inc_\$0;
#X obj 269 266 v dir_\$0;
#X obj 269 182 t b f;
#X obj 84 43 loadbang;
#X obj 84 82 t b b b;
#X obj 84 309 outlet;
#X obj 269 239 expr if(inc_\$0 >= 0 \, 1 \, if(inc_\$0 < 0 \, -1 \,
0));
#X obj 329 156 v phase_\$0;
#X obj 329 103 f \$2;
#X obj 329 127 wrap;
#X obj 107 246 v phase_\$0;
#X msg 107 216 1;
#X obj 107 186 sel 1;
#X obj 107 148 expr phase_\$0 == 0 && dir_\$0 == 1, f 18;
#X connect 0 0 1 0;
#X connect 1 0 4 0;
#X connect 4 0 8 0;
#X connect 4 1 2 0;
#X connect 5 0 6 0;
#X connect 6 0 7 0;
#X connect 6 1 15 0;
#X connect 6 2 0 0;
#X connect 6 2 10 0;
#X connect 8 0 3 0;
#X connect 10 0 11 0;
#X connect 11 0 9 0;
#X connect 13 0 12 0;
#X connect 14 0 13 0;
#X connect 15 0 14 0;
#X restore 67 106 pd init;
#N canvas 188 66 450 300 inc 0;
#X obj 77 96 / 1000;
#X obj 109 151 v inc_\$0;
#X obj 77 210 v dir_\$0;
#X obj 77 126 t b f;
#X obj 76 64 inlet;
#X obj 77 183 expr if(inc_\$0 >= 0 \, 1 \, if(inc_\$0 < 0 \, -1 \,
0));
#X connect 0 0 3 0;
#X connect 3 0 5 0;
#X connect 3 1 1 0;
#X connect 4 0 0 0;
#X connect 5 0 2 0;
#X restore 147 104 pd inc;
#N canvas 271 120 435 350 phase_sync 0;
#X obj 89 37 inlet;
#X obj 89 73 wrap;
#X obj 89 105 t f f;
#X obj 134 106 v f_\$0;
#X msg 89 218 1;
#X obj 150 298 v phase_\$0;
#X obj 89 175 sel 1 0;
#X obj 89 141 expr dir_\$0 == 1 && f_\$0 == 0;
#X obj 150 208 expr dir_\$0 == -1 && f_\$0 == 0;
#X msg 150 263 0;
#X obj 150 235 sel 1 0;
#X obj 195 263 v f_\$0;
#X connect 0 0 1 0;
#X connect 1 0 2 0;
#X connect 2 0 7 0;
#X connect 2 1 3 0;
#X connect 4 0 5 0;
#X connect 6 0 4 0;
#X connect 6 1 8 0;
#X connect 7 0 6 0;
#X connect 8 0 10 0;
#X connect 9 0 5 0;
#X connect 10 0 9 0;
#X connect 10 1 11 0;
#X connect 11 0 5 0;
#X restore 229 103 pd phase_sync;
#N canvas 180 42 575 449 impulse 0;
#X obj 121 122 expr dir_\$0 == 1 && phase_\$0 >= 1;
#X obj 149 198 expr dir_\$0 == -1 && phase_\$0 <= 0;
#X obj 149 232 sel 1 0;
#X obj 237 298 v phase_\$0;
#X obj 194 298 wrap;
#X obj 121 272 trigger bang bang;
#X obj 172 335 expr phase_\$0 = phase_\$0 + inc_\$0;
#X obj 121 366 outlet;
#X obj 121 161 sel 1 0;
#X obj 121 88 inlet;
#X connect 0 0 8 0;
#X connect 1 0 2 0;
#X connect 2 0 5 0;
#X connect 2 1 6 0;
#X connect 3 0 4 0;
#X connect 4 0 3 0;
#X connect 5 0 6 0;
#X connect 5 0 7 0;
#X connect 5 1 3 0;
#X connect 8 0 5 0;
#X connect 8 1 1 0;
#X connect 9 0 0 0;
#X restore 67 206 pd impulse;
#X obj 67 247 outlet;
#X text 206 185 Part of ELSE \; https://github.com/porres/pd-else;
#X text 208 166 Alexandre Torres Porres (2018);
#X connect 0 0 1 0;
#X connect 1 0 7 0;
#X connect 2 0 5 0;
#X connect 3 0 6 0;
#X connect 4 0 0 0;
#X connect 7 0 8 0;
