#N canvas 460 128 495 280 10;
#X obj 53 112 noise~;
#X obj 69 208 outlet~;
#X obj 114 58 inlet;
#X obj 114 109 f \$1;
#X obj 114 136 else/imp~;
#X obj 69 172 else/sh~;
#X obj 127 83 loadbang;
#X text 206 137 Part of ELSE \; https://github.com/porres/pd-else;
#X text 208 118 Alexandre Torres Porres (2017);
#X connect 0 0 5 0;
#X connect 2 0 3 0;
#X connect 3 0 4 0;
#X connect 4 0 5 1;
#X connect 5 0 1 0;
#X connect 6 0 3 0;
