#N canvas 433 57 312 419 10;
#X obj 51 101 cnv 15 50 134 empty empty empty 20 12 0 14 -233017 -66577
0;
#X obj 54 107 vu 15 120 \$0-m empty -1 -8 0 10 -1 -1 1 0;
#X obj 135 71 inlet~;
#X obj 164 150 s \$0-m;
#X obj 150 127 pack;
#X obj 150 99 else/vu~ \$1 \$2;
#X text 47 282 Alexandre Torres Porres (2016);
#X text 45 301 Part of ELSE \; https://github.com/porres/pd-else;
#X text 47 262 [meter~]: Mono Vu meter;
#X obj 135 199 outlet~;
#X obj 51 234 cnv 1 6 1 empty empty empty 20 12 0 14 -1 -66577 0;
#X obj 51 101 cnv 1 6 1 empty empty empty 20 12 0 14 -1 -66577 0;
#X obj 95 234 cnv 1 6 1 empty empty empty 20 12 0 14 -1 -66577 0;
#X obj 150 174 outlet;
#X connect 2 0 5 0;
#X connect 2 0 9 0;
#X connect 4 0 3 0;
#X connect 4 0 13 0;
#X connect 5 0 4 0;
#X connect 5 1 4 1;
#X coords 0 -1 1 1 52 136 2 50 100;
