#N canvas 800 70 312 419 10;
#X obj 51 103 cnv 15 50 130 empty empty empty 20 12 0 14 -233017 -66577
0;
#X obj 54 107 vu 15 120 \$0-m empty -1 -8 0 10 -1 -1 1 0;
#X obj 135 71 inlet~;
#N canvas 0 22 450 278 (subpatch) 0;
#X coords 0 1 100 -1 52 134 1 0 0;
#X restore 50 100 graph;
#X obj 135 194 s \$0-m;
#X obj 135 167 pack;
#X obj 135 139 else/vu~ \$1 \$2;
#X obj 58 101 cnv 1 43 1 empty empty empty 20 12 0 14 -233017 -66577
0;
#X text 47 282 Alexandre Torres Porres (2016);
#X text 45 301 Part of ELSE \; https://github.com/porres/pd-else;
#X text 47 262 [meter~]: Mono Vu meter;
#X connect 2 0 6 0;
#X connect 5 0 4 0;
#X connect 6 0 5 0;
#X connect 6 1 5 1;
#X coords 0 -1 1 1 52 134 2 50 100;
