#N canvas 321 78 478 517 10;
#X obj 82 27 inlet;
#X obj 219 409 outlet;
#X text 340 333 porres 2017 \, for else library, f 12;
#X obj 219 136 route float symbol;
#X obj 219 176 sel 0;
#X obj 271 176 select hz khz;
#X obj 219 100 list append \$1;
#X obj 219 294 t b f;
#X obj 219 66 loadbang;
#X obj 219 335 samplerate~;
#X obj 219 370 /;
#X obj 82 175 route bang hz khz;
#X msg 219 258 2;
#X msg 308 257 2000;
#X connect 0 0 11 0;
#X connect 3 0 4 0;
#X connect 3 1 5 0;
#X connect 4 0 12 0;
#X connect 5 0 12 0;
#X connect 5 1 13 0;
#X connect 6 0 3 0;
#X connect 7 0 9 0;
#X connect 7 1 10 1;
#X connect 8 0 6 0;
#X connect 9 0 10 0;
#X connect 10 0 1 0;
#X connect 11 0 9 0;
#X connect 11 1 12 0;
#X connect 11 2 13 0;
#X connect 12 0 7 0;
#X connect 13 0 7 0;
