#N canvas 321 78 593 507 10;
#X obj 82 27 inlet;
#X obj 219 409 outlet;
#X obj 219 136 route float symbol;
#X obj 219 176 sel 0;
#X obj 271 176 select hz khz;
#X obj 219 100 list append \$1;
#X obj 219 294 t b f;
#X obj 219 66 loadbang;
#X obj 219 335 samplerate~;
#X obj 219 370 /;
#X obj 82 175 route bang hz khz;
#X msg 219 258 2;
#X msg 308 257 2000;
#X text 325 349 Part of ELSE \; https://github.com/porres/pd-else;
#X text 327 330 Alexandre Torres Porres (2017);
#X connect 0 0 10 0;
#X connect 2 0 3 0;
#X connect 2 1 4 0;
#X connect 3 0 11 0;
#X connect 4 0 11 0;
#X connect 4 1 12 0;
#X connect 5 0 2 0;
#X connect 6 0 8 0;
#X connect 6 1 9 1;
#X connect 7 0 5 0;
#X connect 8 0 9 0;
#X connect 9 0 1 0;
#X connect 10 0 8 0;
#X connect 10 1 11 0;
#X connect 10 2 12 0;
#X connect 11 0 6 0;
#X connect 12 0 6 0;
