#N canvas 845 153 536 309 10;
#X obj 70 239 outlet~;
#X obj 95 17 inlet;
#X obj 95 88 else/order;
#X obj 176 89 else/order;
#X obj 255 90 else/order;
#X text 212 218 Part of ELSE \; https://github.com/porres/pd-else;
#X text 214 199 Alexandre Torres Porres (2017);
#X obj 341 90 else/order;
#X obj 423 78 f \$2;
#X obj 423 101 sel 0;
#X msg 423 147 all 10;
#X obj 423 54 loadbang;
#X obj 450 123 moses 0;
#X obj 43 17 inlet~;
#X msg 151 186 all 1;
#X obj 152 158 loadbang;
#X obj 95 50 route ratio phase amp ramp;
#X obj 70 130 clone \$1 ./oscclone \$1 \$2;
#X connect 1 0 16 0;
#X connect 2 0 17 1;
#X connect 3 0 17 2;
#X connect 4 0 17 3;
#X connect 7 0 17 4;
#X connect 8 0 9 0;
#X connect 9 0 10 0;
#X connect 9 1 12 0;
#X connect 10 0 17 4;
#X connect 11 0 8 0;
#X connect 12 0 10 0;
#X connect 13 0 17 0;
#X connect 14 0 17 1;
#X connect 15 0 14 0;
#X connect 16 0 2 0;
#X connect 16 1 3 0;
#X connect 16 2 4 0;
#X connect 16 3 7 0;
#X connect 17 0 0 0;
