#N canvas 996 182 432 329 10;
#X obj 92 162 outlet~;
#X obj 145 61 inlet;
#X text 108 248 Part of ELSE \; https://github.com/porres/pd-else;
#X text 108 227 Alexandre Torres Porres (2017);
#X obj 92 61 inlet~;
#N canvas 1044 230 395 327 clone 0;
#N canvas 409 463 1167 637 load_args 0;
#X obj 81 306 else/order;
#X obj 162 307 else/order;
#X obj 241 308 else/order;
#X obj 327 308 else/order;
#X obj 459 318 sel 0;
#X obj 135 195 route -ratio -phase -amp -ramp;
#X obj 135 170 else/break -;
#X obj 373 247 list split 1;
#X msg 413 348 10;
#X obj 413 294 moses 0;
#X msg 415 372 all \$1;
#X obj 413 271 route float;
#X msg 419 151 all 1;
#X obj 135 144 trigger anything bang;
#X obj 414 434 outlet;
#X obj 241 431 outlet;
#X obj 161 429 outlet;
#X obj 81 430 outlet;
#X obj 69 101 route bang;
#X obj 69 62 r \$0-args;
#X connect 0 0 17 0;
#X connect 1 0 16 0;
#X connect 2 0 15 0;
#X connect 3 0 14 0;
#X connect 4 0 8 0;
#X connect 4 1 10 0;
#X connect 5 0 0 0;
#X connect 5 1 1 0;
#X connect 5 2 2 0;
#X connect 5 3 3 0;
#X connect 5 4 7 0;
#X connect 6 0 5 0;
#X connect 7 1 11 0;
#X connect 8 0 10 0;
#X connect 9 0 8 0;
#X connect 9 1 4 0;
#X connect 10 0 14 0;
#X connect 11 0 9 0;
#X connect 12 0 17 0;
#X connect 12 0 15 0;
#X connect 13 0 6 0;
#X connect 13 1 12 0;
#X connect 18 0 12 0;
#X connect 18 0 8 0;
#X connect 18 1 13 0;
#X connect 19 0 18 0;
#X restore 200 111 pd load_args;
#N canvas 284 164 483 412 route 0;
#X obj 83 184 else/order;
#X obj 164 185 else/order;
#X obj 243 186 else/order;
#X obj 329 186 else/order;
#X obj 328 280 outlet;
#X obj 243 273 outlet;
#X obj 168 273 outlet;
#X obj 93 279 outlet;
#X obj 138 120 route ratio phase amp ramp;
#X obj 137 83 inlet;
#X connect 0 0 7 0;
#X connect 1 0 6 0;
#X connect 2 0 5 0;
#X connect 3 0 4 0;
#X connect 8 0 0 0;
#X connect 8 1 1 0;
#X connect 8 2 2 0;
#X connect 8 3 3 0;
#X connect 9 0 8 0;
#X restore 122 111 pd route;
#X obj 122 70 inlet;
#X obj 53 68 inlet~;
#X obj 71 215 outlet~;
#X obj 71 169 clone -x \$1 ./oscclone \$1;
#X connect 0 0 5 1;
#X connect 0 1 5 2;
#X connect 0 2 5 3;
#X connect 0 3 5 4;
#X connect 1 0 5 1;
#X connect 1 1 5 2;
#X connect 1 2 5 3;
#X connect 1 3 5 4;
#X connect 2 0 1 0;
#X connect 3 0 5 0;
#X connect 5 0 4 0;
#X restore 92 112 pd clone;
#X obj 247 115 else/args;
#X obj 247 142 s \$0-args;
#X obj 247 84 else/loadbanger;
#X connect 1 0 5 1;
#X connect 4 0 5 0;
#X connect 5 0 0 0;
#X connect 6 0 7 0;
#X connect 8 0 6 0;
