#N canvas 110 289 581 298 10;
#X obj 44 59 inlet~;
#X obj 158 58 inlet~;
#X obj 237 58 inlet~;
#X obj 158 212 outlet~;
#X obj 101 213 outlet~;
#X obj 215 211 outlet~;
#X obj 272 209 outlet~;
#X text 167 231 F-L;
#X text 110 231 B-L;
#X text 283 231 F-R;
#X text 226 231 B-R;
#X obj 44 116 else/pan2~;
#X obj 215 178 else/pan2~;
#X obj 101 178 else/pan2~;
#X text 303 129 Part of ELSE \; https://github.com/porres/pd-else;
#X text 305 110 Alexandre Torres Porres (2017);
#X connect 0 0 11 0;
#X connect 1 0 12 1;
#X connect 1 0 13 1;
#X connect 2 0 11 1;
#X connect 11 0 12 0;
#X connect 11 1 13 0;
#X connect 12 0 5 0;
#X connect 12 1 6 0;
#X connect 13 0 4 0;
#X connect 13 1 3 0;
