#N canvas 706 104 792 369 10;
#X obj 84 73 inlet~;
#X obj 169 72 inlet;
#X text 82 53 in;
#X text 166 53 predelay;
#X obj 311 71 inlet;
#X obj 431 69 inlet;
#X obj 431 97 clip 0 1;
#X obj 537 68 inlet;
#X obj 537 91 clip 0 1;
#X text 535 50 gain;
#X obj 624 73 inlet;
#X obj 84 298 outlet~;
#X obj 151 298 outlet~;
#X text 617 50 dry/wet;
#X obj 431 119 s \$0-damping;
#X obj 624 101 s \$0-mix;
#N canvas 838 344 450 300 dry-wet 0;
#X obj 82 205 else/xfade~ 2;
#X obj 222 157 - 1;
#X obj 222 184 else/float2sig~ 10;
#X obj 222 109 r \$0-mix;
#X obj 157 239 outlet~;
#X obj 81 241 outlet~;
#X obj 51 41 inlet~;
#X obj 127 47 inlet~;
#X obj 194 48 inlet~;
#X obj 222 134 * 2;
#X connect 0 0 5 0;
#X connect 0 1 4 0;
#X connect 1 0 2 0;
#X connect 2 0 0 4;
#X connect 3 0 9 0;
#X connect 6 0 0 0;
#X connect 6 0 0 1;
#X connect 7 0 0 2;
#X connect 8 0 0 3;
#X connect 9 0 1 0;
#X restore 84 259 pd dry-wet;
#N canvas 349 23 666 713 delread 0;
#X obj 57 262 +~;
#X obj 94 312 -~;
#X obj 95 375 +~;
#X obj 114 421 -~;
#X obj 202 454 -~;
#X obj 222 493 -~;
#X obj 442 352 +~;
#X obj 402 389 -~;
#X obj 433 434 +~;
#X obj 447 459 -~;
#X obj 426 507 -~;
#X obj 454 550 -~;
#X obj 222 522 *~ 0.125;
#X obj 454 577 *~ 0.125;
#X obj 427 210 *~;
#X obj 193 278 *~;
#X obj 193 114 delread~ \$0-dela 141.69, f 14;
#X obj 340 108 delread~ \$0-deld 149.62, f 14;
#X obj 193 302 delwrite~ \$0-delc 200, f 11;
#X obj 427 236 delwrite~ \$0-delf 200, f 11;
#X obj 57 179 delread~ \$0-dela 8.9, f 11;
#X obj 75 220 delread~ \$0-dela 99.8, f 12;
#X obj 113 341 delread~ \$0-delc 67, f 10;
#X obj 132 383 delread~ \$0-deld 66.8, f 12;
#X obj 240 453 delread~ \$0-delf 35.8, f 13;
#X obj 472 497 delread~ \$0-delc 4.1, f 11;
#X obj 465 422 delread~ \$0-dela 70.8, f 12;
#X obj 451 379 delread~ \$0-delf 89.7, f 13;
#X obj 460 312 delread~ \$0-deld 121.7, f 13;
#X obj 442 271 delread~ \$0-deld 11.8, f 12;
#N canvas 313 48 527 392 AP-2tap 0;
#X obj 42 36 inlet~;
#X obj 42 178 +~;
#X text 42 17 sound;
#X obj 134 249 +~;
#X obj 134 308 outlet~;
#X obj 243 320 outlet~;
#X obj 348 323 outlet~;
#X obj 317 108 block~ 1;
#X obj 42 245 delwrite~ \$0-ap1 100, f 11;
#X obj 133 82 delread~ \$0-ap1 89.24, f 13;
#X obj 60 149 *~ 0.5;
#X obj 152 228 *~ -0.5;
#X obj 243 192 delread~ \$0-ap1 64.2, f 11;
#X obj 348 191 delread~ \$0-ap1 11.2, f 12;
#X connect 0 0 1 0;
#X connect 1 0 8 0;
#X connect 1 0 11 0;
#X connect 3 0 4 0;
#X connect 9 0 3 0;
#X connect 9 0 10 0;
#X connect 10 0 1 1;
#X connect 11 0 3 1;
#X connect 12 0 5 0;
#X connect 13 0 6 0;
#X restore 193 188 pd AP-2tap;
#N canvas 313 48 527 392 AP-2tap 0;
#X obj 42 36 inlet~;
#X obj 42 178 +~;
#X text 42 17 sound;
#X obj 134 249 +~;
#X obj 134 308 outlet~;
#X obj 243 320 outlet~;
#X obj 348 323 outlet~;
#X obj 317 108 block~ 1;
#X obj 60 149 *~ 0.5;
#X obj 152 228 *~ -0.5;
#X obj 42 245 delwrite~ \$0-ap2 100, f 11;
#X obj 133 82 delread~ \$0-ap2 60.48, f 13;
#X obj 243 192 delread~ \$0-ap2 6.3, f 11;
#X obj 348 191 delread~ \$0-ap2 41.2, f 12;
#X connect 0 0 1 0;
#X connect 1 0 9 0;
#X connect 1 0 10 0;
#X connect 3 0 4 0;
#X connect 8 0 1 1;
#X connect 9 0 3 1;
#X connect 11 0 3 0;
#X connect 11 0 8 0;
#X connect 12 0 5 0;
#X connect 13 0 6 0;
#X restore 340 173 pd AP-2tap;
#N canvas 190 86 450 300 damping 0;
#X obj 140 125 - 1;
#X obj 140 148 * -1;
#X obj 122 200 rpole~;
#X obj 122 176 *~;
#X obj 198 99 r \$0-damping;
#X obj 119 57 inlet~;
#X obj 124 235 outlet~;
#X connect 0 0 1 0;
#X connect 1 0 3 1;
#X connect 2 0 6 0;
#X connect 3 0 2 0;
#X connect 4 0 2 1;
#X connect 4 0 0 0;
#X connect 5 0 3 0;
#X restore 340 145 pd damping;
#N canvas 190 86 450 300 damping 0;
#X obj 140 125 - 1;
#X obj 140 148 * -1;
#X obj 122 200 rpole~;
#X obj 122 176 *~;
#X obj 198 99 r \$0-damping;
#X obj 119 57 inlet~;
#X obj 124 235 outlet~;
#X connect 0 0 1 0;
#X connect 1 0 3 1;
#X connect 2 0 6 0;
#X connect 3 0 2 0;
#X connect 4 0 2 1;
#X connect 4 0 0 0;
#X connect 5 0 3 0;
#X restore 193 159 pd damping;
#X obj 222 627 outlet~;
#X obj 454 608 outlet~;
#X obj 225 43 inlet~;
#X obj 445 177 r \$0-fbgain;
#X connect 0 0 1 0;
#X connect 1 0 2 0;
#X connect 2 0 3 0;
#X connect 3 0 4 0;
#X connect 4 0 5 0;
#X connect 5 0 12 0;
#X connect 6 0 7 0;
#X connect 7 0 8 0;
#X connect 8 0 9 0;
#X connect 9 0 10 0;
#X connect 10 0 11 0;
#X connect 11 0 13 0;
#X connect 12 0 34 0;
#X connect 13 0 35 0;
#X connect 14 0 19 0;
#X connect 15 0 18 0;
#X connect 16 0 33 0;
#X connect 17 0 32 0;
#X connect 20 0 0 0;
#X connect 21 0 0 1;
#X connect 22 0 2 1;
#X connect 23 0 3 1;
#X connect 24 0 5 1;
#X connect 25 0 11 1;
#X connect 26 0 9 1;
#X connect 27 0 8 1;
#X connect 28 0 6 1;
#X connect 29 0 6 0;
#X connect 30 0 15 0;
#X connect 30 1 1 1;
#X connect 30 2 10 1;
#X connect 31 0 14 0;
#X connect 31 1 4 1;
#X connect 31 2 7 1;
#X connect 32 0 31 0;
#X connect 33 0 30 0;
#X connect 37 0 14 1;
#X connect 37 0 15 1;
#X restore 117 229 pd delread;
#X obj 311 94 clip 0 1;
#X text 308 50 bandwitdh;
#X text 429 50 damping;
#N canvas 343 134 396 386 delwrite 0;
#X obj 247 144 *~;
#X obj 155 118 *~;
#X obj 155 194 +~;
#X obj 62 186 +~;
#X obj 155 71 delread~ \$0-delf 125, f 11;
#X obj 247 81 delread~ \$0-delc 106.28, f 14;
#N canvas 736 80 346 233 4-stage 0;
#X obj 57 44 inlet~;
#X obj 57 175 outlet~;
#X obj 57 74 else/apass2~ 4.771 0.75 1;
#X obj 57 98 else/apass2~ 3.595 0.75 1;
#X obj 57 120 else/apass2~ 12.73 0.625 1;
#X obj 57 143 else/apass2~ 9.307 0.625 1;
#X connect 0 0 2 0;
#X connect 2 0 3 0;
#X connect 3 0 4 0;
#X connect 4 0 5 0;
#X connect 5 0 1 0;
#X restore 44 112 pd 4-stage \; Allpass;
#N canvas 883 103 345 283 AP-Mod 0;
#X obj 86 37 inlet~;
#X obj 164 93 osc~ 0.1;
#X obj 164 115 else/rescale~ 26.51 34.51, f 13;
#X obj 94 213 outlet~;
#X obj 92 154 else/apass2~ 35 0.7 1;
#X connect 0 0 4 0;
#X connect 1 0 2 0;
#X connect 2 0 4 1;
#X connect 4 0 3 0;
#X restore 62 224 pd AP-Mod;
#N canvas 591 103 308 269 AP-Mod 0;
#X obj 148 89 osc~ 0.07;
#X obj 148 111 else/rescale~ 18.58 26.58, f 14;
#X obj 74 54 inlet~;
#X obj 76 195 outlet~;
#X obj 76 151 else/apass2~ 35 0.7 1;
#X connect 0 0 1 0;
#X connect 1 0 4 1;
#X connect 2 0 4 0;
#X connect 4 0 3 0;
#X restore 155 221 pd AP-Mod;
#X obj 155 255 delwrite~ \$0-deld 200, f 12;
#X obj 62 256 delwrite~ \$0-dela 200, f 11;
#X obj 44 31 inlet~;
#X obj 139 320 outlet~;
#X obj 265 118 r \$0-fbgain;
#X connect 0 0 2 1;
#X connect 1 0 3 1;
#X connect 2 0 8 0;
#X connect 3 0 7 0;
#X connect 4 0 1 0;
#X connect 5 0 0 0;
#X connect 6 0 3 0;
#X connect 6 0 2 0;
#X connect 7 0 10 0;
#X connect 8 0 9 0;
#X connect 11 0 6 0;
#X connect 13 0 1 1;
#X connect 13 0 0 1;
#X restore 117 205 pd delwrite;
#N canvas 411 180 293 213 pre-delay 0;
#N canvas 4 23 450 300 pre-delay-write 0;
#X obj 92 100 *~ 0.5;
#X obj 92 126 delwrite~ \$0-predelay 200, f 16;
#X obj 92 72 inlet~;
#X obj 98 189 outlet~;
#X connect 0 0 1 0;
#X connect 2 0 0 0;
#X restore 81 83 pd pre-delay-write;
#X obj 81 49 inlet~;
#X obj 81 148 outlet~;
#N canvas 602 273 279 218 pre-delay-read 0;
#X obj 63 102 clip 0 200;
#X obj 63 130 delread~ \$0-predelay;
#X obj 87 33 inlet~;
#X obj 63 156 outlet~;
#X obj 63 74 r \$0-predelay;
#X connect 0 0 1 0;
#X connect 1 0 3 0;
#X connect 4 0 0 0;
#X restore 81 114 pd pre-delay-read;
#X connect 0 0 3 0;
#X connect 1 0 0 0;
#X connect 3 0 2 0;
#X restore 117 145 pd pre-delay;
#X obj 172 94 s \$0-predelay;
#N canvas 573 92 450 300 init 0;
#X obj 219 89 f \$1;
#X obj 129 47 loadbang;
#X obj 218 120 s \$0-predelay;
#X obj 129 93 t b b b b b;
#X obj 131 68 del 10;
#X obj 223 155 f \$2;
#X obj 185 186 f \$3;
#X obj 184 217 s \$0-damping;
#X obj 142 212 f \$4;
#X obj 141 243 s \$0-gain;
#X obj 96 136 f \$5;
#X obj 71 184 s \$0-mix;
#X obj 222 186 s \$0-cutoff;
#X connect 0 0 2 0;
#X connect 1 0 4 0;
#X connect 1 0 3 0;
#X connect 3 0 10 0;
#X connect 3 1 8 0;
#X connect 3 2 6 0;
#X connect 3 3 5 0;
#X connect 3 4 0 0;
#X connect 5 0 12 0;
#X connect 6 0 7 0;
#X connect 8 0 9 0;
#X connect 10 0 11 0;
#X restore 228 145 pd init;
#N canvas 266 23 331 244 cutoff 0;
#X obj 97 136 rpole~;
#X obj 98 98 *~;
#X obj 173 116 - 1;
#X obj 173 139 * -1;
#X obj 98 60 inlet~;
#X obj 97 173 outlet~;
#X obj 173 89 r \$0-cutoff;
#X connect 0 0 5 0;
#X connect 1 0 0 0;
#X connect 2 0 3 0;
#X connect 3 0 0 1;
#X connect 4 0 1 0;
#X connect 6 0 1 1;
#X connect 6 0 2 0;
#X restore 117 174 pd cutoff;
#X obj 311 120 s \$0-cutoff;
#X obj 537 116 s \$0-fbgain;
#X connect 0 0 16 0;
#X connect 0 0 22 0;
#X connect 1 0 23 0;
#X connect 4 0 18 0;
#X connect 5 0 6 0;
#X connect 6 0 14 0;
#X connect 7 0 8 0;
#X connect 8 0 27 0;
#X connect 10 0 15 0;
#X connect 16 0 11 0;
#X connect 16 1 12 0;
#X connect 17 0 16 1;
#X connect 17 1 16 2;
#X connect 18 0 26 0;
#X connect 21 0 17 0;
#X connect 22 0 25 0;
#X connect 25 0 21 0;
