#N canvas 58 93 493 349 10;
#X obj 76 28 inlet;
#N canvas 516 194 539 338 messages 0;
#X obj 82 35 inlet;
#N canvas 744 85 353 273 norm 0;
#X obj 60 32 inlet;
#X obj 60 124 v ch_\$0;
#X obj 60 96 trigger bang float;
#X obj 60 152 else/loop;
#X msg 249 155 set \$1;
#X obj 60 180 else/pack2 float buffer_\$0 float;
#X msg 60 204 \; \$1-\$2 normalize \$3;
#X obj 60 69 route float;
#X connect 0 0 7 0;
#X connect 1 0 3 0;
#X connect 2 0 1 0;
#X connect 2 1 4 0;
#X connect 3 0 5 0;
#X connect 4 0 5 2;
#X connect 5 0 6 0;
#X connect 7 0 2 0;
#X restore 228 121 pd norm;
#X msg 82 168 vis \$1;
#X msg 82 141 1;
#X msg 118 141 0;
#X obj 82 194 send pd-\$0-buffers;
#X obj 191 145 s \$0-sr;
#N canvas 117 369 458 396 load-file 0;
#X obj 130 120 symbol;
#X obj 61 59 route bang, f 12;
#X obj 130 149 list prepend read;
#X obj 61 86 openpanel;
#X obj 148 92 r \$0-file;
#X obj 61 23 inlet;
#X obj 229 100 r \$0-resize;
#X msg 229 126 read -resize -maxsize 1e+18;
#X obj 130 216 list trim;
#X obj 209 257 r \$0-resize;
#X obj 130 250 soundfiler;
#X msg 209 281 1;
#X obj 130 285 spigot;
#X obj 130 318 s \$0-size;
#X obj 130 186 list append;
#X obj 214 186 r \$0-buflist;
#X connect 0 0 2 0;
#X connect 1 0 3 0;
#X connect 1 1 0 0;
#X connect 2 0 14 0;
#X connect 3 0 0 0;
#X connect 4 0 0 0;
#X connect 5 0 1 0;
#X connect 6 0 7 0;
#X connect 7 0 2 1;
#X connect 8 0 10 0;
#X connect 9 0 11 0;
#X connect 10 0 12 0;
#X connect 11 0 12 1;
#X connect 12 0 13 0;
#X connect 14 0 8 0;
#X connect 15 0 14 1;
#X restore 155 169 pd load-file;
#N canvas 871 121 479 442 \$0-buffers 0;
#X obj 6 20 cnv 15 448 80 empty empty empty 3 10 2 14 -233017 -66577
0;
#N canvas 0 22 450 300 ch0_1005 0;
#X array 0-buffer_1005 87741 float 2;
#X coords 0 1 87741 -1 450 82 2 0 0;
#X restore 5 19 pd ch0_1005;
#X obj 6 120 cnv 15 448 80 empty empty empty 3 10 2 14 -233017 -66577
0;
#N canvas 0 22 450 300 ch1_1005 0;
#X array 1-buffer_1005 87741 float 2;
#X coords 0 1 87741 -1 450 82 2 0 0;
#X restore 5 119 pd ch1_1005;
#X coords 0 0 0 0 10 20 0;
#X restore 266 171 pd \$0-buffers;
#X obj 82 68 route show hide open sr norm, f 31;
#N canvas 268 42 490 410 ramp~ 0;
#X obj 128 328 s~ \$0-tabread4~;
#X obj 233 272 r \$0-size;
#X obj 163 271 *~;
#X obj 230 241 sig~ 1;
#X obj 230 216 / 100;
#X obj 128 179 t b b;
#X msg 155 223 1;
#X msg 183 223 0;
#X obj 128 119 route start pause continue speed loop;
#X obj 303 147 route float;
#X obj 303 177 sel 0 1;
#X msg 322 212 mode 0;
#X msg 303 234 mode 2;
#X obj 315 264 s \$0-ramp;
#X obj 68 270 r \$0-ramp;
#X obj 71 32 inlet;
#X obj 128 296 else/ramp~ -mode 2;
#X obj 71 61 route bang;
#X msg 71 88 start;
#X obj 66 247 s \$0-ramp;
#X obj 47 176 sel 0 1;
#X msg 36 201 0;
#X obj 248 297 v size_\$0;
#X obj 66 201 v size_\$0;
#X msg 66 225 set %1;
#X obj 47 152 < 0;
#X obj 233 330 s \$0-didit;
#X connect 1 0 16 3;
#X connect 1 0 22 0;
#X connect 2 0 16 1;
#X connect 3 0 2 0;
#X connect 4 0 3 0;
#X connect 5 0 16 0;
#X connect 5 1 6 0;
#X connect 6 0 2 1;
#X connect 7 0 2 1;
#X connect 8 0 5 0;
#X connect 8 1 7 0;
#X connect 8 2 6 0;
#X connect 8 3 4 0;
#X connect 8 3 25 0;
#X connect 8 4 9 0;
#X connect 9 0 10 0;
#X connect 10 0 12 0;
#X connect 10 1 11 0;
#X connect 11 0 13 0;
#X connect 12 0 13 0;
#X connect 14 0 16 0;
#X connect 15 0 17 0;
#X connect 16 0 0 0;
#X connect 16 1 26 0;
#X connect 17 0 18 0;
#X connect 17 1 8 0;
#X connect 18 0 8 0;
#X connect 20 0 21 0;
#X connect 20 1 23 0;
#X connect 21 0 24 0;
#X connect 23 0 24 0;
#X connect 24 0 19 0;
#X connect 25 0 20 0;
#X restore 265 93 pd ramp~;
#X connect 0 0 9 0;
#X connect 2 0 5 0;
#X connect 3 0 2 0;
#X connect 4 0 2 0;
#X connect 9 0 3 0;
#X connect 9 1 4 0;
#X connect 9 2 7 0;
#X connect 9 3 6 0;
#X connect 9 4 1 0;
#X connect 9 5 10 0;
#X restore 76 59 pd messages;
#X obj 71 91 namecanvas \$0-sampler;
#N canvas 46 521 895 258 \$0-readsf 0;
#X restore 74 162 pd \$0-readsf;
#N canvas 453 92 558 565 dynamic 0;
#X obj 291 337 s pd-\$0-readsf;
#X obj 193 219 else/loop;
#X obj 193 276 * 60;
#X obj 193 305 + 20;
#X obj 255 307 + 5;
#X obj 193 250 t f f;
#X obj 291 158 else/loop;
#N canvas 751 126 563 524 load-args 0;
#X obj 213 120 samplerate~;
#X obj 213 149 s \$0-sr;
#X obj 247 89 send pd-\$0-buffers;
#X msg 247 42 clear;
#X obj 127 143 list length;
#X obj 127 121 else/args;
#X obj 142 190 else/args;
#X obj 142 314 s \$0-file;
#X obj 204 225 s \$0-resize;
#N canvas 161 42 356 291 get-channels 0;
#X obj 65 123 soundfiler;
#X msg 122 147 \$3;
#X obj 149 190 v ch_\$0;
#X obj 65 95 else/pack2 read s \$0-dummy_buffer;
#X obj 149 123 table \$0-dummy_buffer 1;
#X obj 162 44 inlet;
#X obj 122 168 t f f;
#X obj 124 227 outlet;
#X connect 0 1 1 0;
#X connect 1 0 6 0;
#X connect 3 0 0 0;
#X connect 5 0 3 1;
#X connect 6 0 7 0;
#X connect 6 1 2 0;
#X restore 161 254 pd get-channels;
#X obj 380 287 r \$0-size;
#X obj 239 307 else/loop;
#X obj 239 337 else/pack2 f buffer_\$0 f;
#X msg 380 313 set \$1;
#X obj 161 279 s \$0-loop;
#X obj 239 283 r \$0-loop;
#X obj 142 226 t s s b;
#X text 288 36 if abstraction got corrupted, f 14;
#N canvas 266 331 522 301 init-buffers 0;
#X obj 134 200 send pd-\$0-buffers;
#X msg 134 69 \$1;
#X obj 107 45 t l l;
#X obj 107 15 inlet;
#X obj 232 107 - 1;
#X obj 183 82 + 20;
#X obj 183 104 t f f;
#X obj 183 59 * 100;
#X obj 134 133 pack float float float \$0;
#X obj 31 167 list append \$0;
#X obj 134 91 t f f;
#X msg 134 162 obj 6 \$2 cnv 15 448 80 empty empty empty 3 10 2 14
-233017 -66577 0 \, obj 5 \$3 pd ch\$1_\$4;
#X msg 70 230 \; pd-ch\$1_\$4 array \$1-\$2 \$3 float 2 \, coords 0
1 \$3 -1 450 82 2 0 0 \, vis 0;
#X connect 1 0 10 0;
#X connect 2 0 9 0;
#X connect 2 1 1 0;
#X connect 3 0 2 0;
#X connect 4 0 8 2;
#X connect 5 0 6 0;
#X connect 6 0 8 1;
#X connect 6 1 4 0;
#X connect 7 0 5 0;
#X connect 8 0 11 0;
#X connect 9 0 12 0;
#X connect 10 0 8 0;
#X connect 10 1 7 0;
#X connect 11 0 0 0;
#X connect 12 0 0 0;
#X restore 239 370 pd init-buffers;
#X obj 193 398 list prepend;
#X obj 193 422 list;
#X msg 193 370 \$1-\$2;
#X obj 193 445 s \$0-buflist;
#X obj 127 167 sel 0 1 2 3;
#X obj 127 44 inlet;
#X obj 127 90 trigger b b;
#X obj 86 67 bng 15 250 50 0 empty empty empty 17 7 0 10 -262144 -1
-1;
#X obj 290 115 s \$0-init-buflist;
#X obj 280 397 r \$0-init-buflist;
#X obj 260 68 send pd-\$0-readsf;
#X connect 0 0 1 0;
#X connect 3 0 2 0;
#X connect 3 0 29 0;
#X connect 4 0 23 0;
#X connect 5 0 4 0;
#X connect 6 0 16 0;
#X connect 9 0 14 0;
#X connect 10 0 13 0;
#X connect 11 0 12 0;
#X connect 12 0 18 0;
#X connect 12 0 21 0;
#X connect 13 0 12 2;
#X connect 15 0 11 0;
#X connect 16 0 7 0;
#X connect 16 1 9 0;
#X connect 16 2 8 0;
#X connect 19 0 20 0;
#X connect 20 0 19 1;
#X connect 20 0 22 0;
#X connect 21 0 19 0;
#X connect 23 1 6 0;
#X connect 24 0 25 0;
#X connect 25 0 5 0;
#X connect 25 1 0 0;
#X connect 25 1 3 0;
#X connect 25 1 27 0;
#X connect 26 0 25 0;
#X connect 28 0 19 1;
#X restore 381 78 pd load-args;
#X obj 291 136 v ch_\$0;
#X obj 291 236 + 20;
#X obj 291 213 * 150;
#X obj 193 186 v ch_\$0;
#X obj 291 180 trigger float float;
#X obj 291 257 pack f f \$0 f f;
#X obj 402 252 + 1;
#X obj 402 223 + 1;
#X obj 402 203 * 2;
#X msg 291 282 obj \$1 100 tabread4~ \$2-buffer_\$3 \, connect 0 0
\$4 0 \, obj \$1 200 outlet~ \, connect \$4 0 \$5 0, f 37;
#X obj 198 394 s \$0-sampler;
#X msg 198 366 obj \$1 200 outlet~ \, connect 3 \$2 \$3 0;
#X obj 198 333 pack f f f;
#X obj 360 153 s pd-\$0-readsf;
#X obj 360 106 f \$0;
#X msg 360 128 obj 20 20 r~ \$1-tabread4~;
#X obj 78 401 * 60;
#X obj 78 428 + 20;
#X obj 158 429 + 5;
#X obj 128 428 + 6;
#X obj 28 423 f \$0;
#X obj 28 366 trigger bang float;
#X obj 28 452 pack float float float float float;
#X text 175 17 Dynamic Patching;
#X obj 160 48 else/loadbanger -init 5;
#X obj 28 337 v ch_\$0;
#X msg 27 484 \; \$1-sampler obj \$2 200 r \$1-didit \, obj \$2 240
outlet \, connect \$4 0 \$3 0, f 55;
#X connect 1 0 5 0;
#X connect 2 0 3 0;
#X connect 3 0 20 0;
#X connect 4 0 20 2;
#X connect 5 0 2 0;
#X connect 5 1 4 0;
#X connect 5 1 20 1;
#X connect 6 0 12 0;
#X connect 8 0 6 0;
#X connect 9 0 13 0;
#X connect 10 0 9 0;
#X connect 11 0 1 0;
#X connect 12 0 10 0;
#X connect 12 1 13 1;
#X connect 12 1 16 0;
#X connect 13 0 17 0;
#X connect 14 0 13 4;
#X connect 15 0 13 3;
#X connect 15 0 14 0;
#X connect 16 0 15 0;
#X connect 17 0 0 0;
#X connect 19 0 18 0;
#X connect 20 0 19 0;
#X connect 22 0 23 0;
#X connect 23 0 21 0;
#X connect 24 0 25 0;
#X connect 25 0 30 1;
#X connect 26 0 30 3;
#X connect 27 0 30 2;
#X connect 28 0 30 0;
#X connect 29 0 28 0;
#X connect 29 1 26 0;
#X connect 29 1 27 0;
#X connect 29 1 24 0;
#X connect 29 1 30 4;
#X connect 30 0 34 0;
#X connect 32 0 33 0;
#X connect 32 1 11 0;
#X connect 32 2 8 0;
#X connect 32 3 22 0;
#X connect 32 4 7 0;
#X connect 33 0 29 0;
#X restore 73 121 pd dynamic patching;
#X connect 0 0 1 0;
