#N canvas 373 85 493 349 10;
#X obj 76 28 inlet;
#N canvas 252 297 654 423 messages 0;
#X obj 322 34 inlet;
#X obj 201 298 s~ \$0-tabread4~;
#N canvas 744 85 353 273 norm 0;
#X obj 60 32 inlet;
#X obj 60 124 v ch_\$0;
#X obj 60 96 trigger bang float;
#X obj 60 152 else/loop;
#X msg 249 155 set \$1;
#X obj 60 180 else/pack2 float buffer_\$0 float;
#X msg 60 204 \; \$1-\$2 normalize \$3;
#X obj 60 69 route float;
#X connect 0 0 7 0;
#X connect 1 0 3 0;
#X connect 2 0 1 0;
#X connect 2 1 4 0;
#X connect 3 0 5 0;
#X connect 4 0 5 2;
#X connect 5 0 6 0;
#X connect 7 0 2 0;
#X restore 468 90 pd norm;
#X msg 322 137 vis \$1;
#X msg 322 110 1;
#X msg 358 110 0;
#X obj 322 163 send pd-\$0-buffers;
#X obj 431 114 s \$0-sr;
#N canvas 117 369 458 396 load-file 0;
#X obj 130 120 symbol;
#X obj 61 59 route bang, f 12;
#X obj 130 149 list prepend read;
#X obj 61 86 openpanel;
#X obj 148 92 r \$0-file;
#X obj 61 23 inlet;
#X obj 229 100 r \$0-resize;
#X msg 229 126 read -resize -maxsize 1e+18;
#X obj 130 216 list trim;
#X obj 209 257 r \$0-resize;
#X obj 130 250 soundfiler;
#X msg 209 281 1;
#X obj 130 285 spigot;
#X obj 130 318 s \$0-size;
#X obj 130 186 list append;
#X obj 214 186 r \$0-buflist;
#X connect 0 0 2 0;
#X connect 1 0 3 0;
#X connect 1 1 0 0;
#X connect 2 0 14 0;
#X connect 3 0 0 0;
#X connect 4 0 0 0;
#X connect 5 0 1 0;
#X connect 6 0 7 0;
#X connect 7 0 2 1;
#X connect 8 0 10 0;
#X connect 9 0 11 0;
#X connect 10 0 12 0;
#X connect 11 0 12 1;
#X connect 12 0 13 0;
#X connect 14 0 8 0;
#X connect 15 0 14 1;
#X restore 395 138 pd load-file;
#X obj 322 68 route open close read sr norm, f 31;
#N canvas 961 127 479 442 \$0-buffers 1;
#X obj 6 20 cnv 15 448 80 empty empty empty 3 10 2 14 -233017 -66577
0;
#N canvas 0 22 450 300 ch0_1016 0;
#X array 0-buffer_1016 87741 float 2;
#X coords 0 1 87741 -1 450 82 2 0 0;
#X restore 5 19 pd ch0_1016;
#X obj 6 120 cnv 15 448 80 empty empty empty 3 10 2 14 -233017 -66577
0;
#N canvas 0 22 450 300 ch1_1016 0;
#X array 1-buffer_1016 87741 float 2;
#X coords 0 1 87741 -1 450 82 2 0 0;
#X restore 5 119 pd ch1_1016;
#X coords 0 0 0 0 10 20 0;
#X restore 485 146 pd \$0-buffers;
#X obj 258 239 r \$0-size;
#X obj 201 266 else/ramp~;
#X obj 190 218 bng 15 250 50 0 empty empty empty 17 7 0 10 -262144
-1 -1;
#X obj 220 209 sig~ 1;
#X connect 0 0 9 0;
#X connect 3 0 6 0;
#X connect 4 0 3 0;
#X connect 5 0 3 0;
#X connect 9 0 4 0;
#X connect 9 1 5 0;
#X connect 9 2 8 0;
#X connect 9 3 7 0;
#X connect 9 4 2 0;
#X connect 11 0 12 3;
#X connect 12 0 1 0;
#X connect 13 0 12 0;
#X connect 14 0 12 1;
#X restore 76 59 pd messages;
#X obj 71 91 namecanvas \$0-sampler;
#N canvas 75 410 897 372 \$0-readsf 0;
#X obj 20 21 r~ \$0-tabread4~;
#X restore 74 162 pd \$0-readsf;
#N canvas 619 174 817 637 dynamic 1;
#X obj 346 309 s pd-\$0-readsf;
#X obj 248 191 else/loop;
#X obj 248 248 * 60;
#X obj 248 277 + 20;
#X text 260 29 Dynamic Patching;
#X obj 310 279 + 5;
#N canvas 221 125 315 238 load 0;
#X obj 85 76 v sym_\$0;
#X obj 85 49 inlet;
#N canvas 272 237 425 422 1st_is_not_filename 0;
#X obj 87 31 inlet;
#X obj 108 63 r \$0-arg-list;
#X obj 87 86 list;
#X obj 154 289 s \$0-spigot;
#X text 222 347 3nd is autostart;
#X text 229 288 4th is loop;
#X obj 121 263 unpack;
#X obj 121 316 sel 1;
#X obj 121 344 s \$0-to_symbol;
#X obj 114 133 list split 1;
#X obj 87 110 t a a;
#X obj 87 236 list split 2;
#X msg 205 184 \$1;
#X obj 205 254 s \$0-symbol_arg;
#X obj 148 161 route bang;
#X obj 205 206 else/routetype anything;
#X obj 66 61 bng 15 250 50 0 empty empty empty 17 7 0 10 -262144 -1
-1;
#X obj 205 230 symbol;
#X text 239 184 2nd is filename;
#X connect 0 0 2 0;
#X connect 1 0 2 1;
#X connect 2 0 10 0;
#X connect 6 0 7 0;
#X connect 6 1 3 0;
#X connect 7 0 8 0;
#X connect 9 1 14 0;
#X connect 10 0 11 0;
#X connect 10 1 9 0;
#X connect 11 1 6 0;
#X connect 12 0 15 0;
#X connect 14 1 12 0;
#X connect 15 0 17 0;
#X connect 16 0 2 0;
#X connect 17 0 13 0;
#X restore 85 175 pd 1st_is_not_filename;
#N canvas 678 327 358 270 1st_is_filename 0;
#X obj 64 35 inlet;
#X obj 98 170 sel 1;
#X text 197 206 2nd is autostart;
#X text 223 172 3nd is loop;
#X obj 98 202 s \$0-to_symbol;
#X obj 103 78 r \$0-arg-list;
#X obj 64 78 list;
#X obj 147 173 s \$0-spigot;
#X obj 64 108 list split 1;
#X obj 98 137 unpack;
#X connect 0 0 6 0;
#X connect 1 0 4 0;
#X connect 5 0 6 1;
#X connect 6 0 8 0;
#X connect 8 1 9 0;
#X connect 9 0 1 0;
#X connect 9 1 7 0;
#X restore 104 140 pd 1st_is_filename;
#X obj 85 109 sel 0 1;
#X connect 0 0 4 0;
#X connect 1 0 0 0;
#X connect 4 0 2 0;
#X connect 4 1 3 0;
#X restore 174 96 pd load \; args;
#X obj 245 60 else/loadbanger -init 5;
#X obj 248 222 t f f;
#X obj 346 130 else/loop;
#N canvas 524 27 563 524 load-args 0;
#X obj 213 120 samplerate~;
#X obj 213 149 s \$0-sr;
#X obj 247 89 send pd-\$0-buffers;
#X msg 247 61 clear;
#X obj 127 143 list length;
#X obj 127 121 else/args;
#X obj 142 190 else/args;
#X obj 142 314 s \$0-file;
#X obj 204 225 s \$0-resize;
#N canvas 161 42 356 291 get-channels 0;
#X obj 65 123 soundfiler;
#X msg 122 147 \$3;
#X obj 149 190 v ch_\$0;
#X obj 65 95 else/pack2 read s \$0-dummy_buffer;
#X obj 149 123 table \$0-dummy_buffer 1;
#X obj 162 44 inlet;
#X obj 122 168 t f f;
#X obj 124 227 outlet;
#X connect 0 1 1 0;
#X connect 1 0 6 0;
#X connect 3 0 0 0;
#X connect 5 0 3 1;
#X connect 6 0 7 0;
#X connect 6 1 2 0;
#X restore 161 254 pd get-channels;
#X obj 380 287 r \$0-size;
#X obj 239 307 else/loop;
#X obj 239 337 else/pack2 f buffer_\$0 f;
#X msg 380 313 set \$1;
#X obj 161 279 s \$0-loop;
#X obj 239 283 r \$0-loop;
#X obj 142 226 t s s b;
#X text 288 55 if abstraction got corrupted, f 14;
#N canvas 266 331 522 301 init-buffers 0;
#X obj 134 200 send pd-\$0-buffers;
#X msg 134 69 \$1;
#X obj 107 45 t l l;
#X obj 107 15 inlet;
#X obj 232 107 - 1;
#X obj 183 82 + 20;
#X obj 183 104 t f f;
#X obj 183 59 * 100;
#X obj 134 133 pack float float float \$0;
#X obj 31 167 list append \$0;
#X obj 134 91 t f f;
#X msg 134 162 obj 6 \$2 cnv 15 448 80 empty empty empty 3 10 2 14
-233017 -66577 0 \, obj 5 \$3 pd ch\$1_\$4;
#X msg 70 230 \; pd-ch\$1_\$4 array \$1-\$2 \$3 float 2 \, coords 0
1 \$3 -1 450 82 2 0 0 \, vis 0;
#X connect 1 0 10 0;
#X connect 2 0 9 0;
#X connect 2 1 1 0;
#X connect 3 0 2 0;
#X connect 4 0 8 2;
#X connect 5 0 6 0;
#X connect 6 0 8 1;
#X connect 6 1 4 0;
#X connect 7 0 5 0;
#X connect 8 0 11 0;
#X connect 9 0 12 0;
#X connect 10 0 8 0;
#X connect 10 1 7 0;
#X connect 11 0 0 0;
#X connect 12 0 0 0;
#X restore 239 370 pd init-buffers;
#X obj 193 398 list prepend;
#X obj 193 422 list;
#X msg 193 370 \$1-\$2;
#X obj 193 445 s \$0-buflist;
#X obj 127 167 sel 0 1 2 3;
#X obj 128 44 inlet;
#X obj 128 90 trigger b b;
#X obj 87 67 bng 15 250 50 0 empty empty empty 17 7 0 10 -262144 -1
-1;
#X obj 290 115 s \$0-init-buflist;
#X obj 280 397 r \$0-init-buflist;
#X connect 0 0 1 0;
#X connect 3 0 2 0;
#X connect 4 0 23 0;
#X connect 5 0 4 0;
#X connect 6 0 16 0;
#X connect 9 0 14 0;
#X connect 10 0 13 0;
#X connect 11 0 12 0;
#X connect 12 0 18 0;
#X connect 12 0 21 0;
#X connect 13 0 12 2;
#X connect 15 0 11 0;
#X connect 16 0 7 0;
#X connect 16 1 9 0;
#X connect 16 2 8 0;
#X connect 19 0 20 0;
#X connect 20 0 19 1;
#X connect 20 0 22 0;
#X connect 21 0 19 0;
#X connect 23 1 6 0;
#X connect 24 0 25 0;
#X connect 25 0 5 0;
#X connect 25 1 0 0;
#X connect 25 1 3 0;
#X connect 25 1 27 0;
#X connect 26 0 25 0;
#X connect 28 0 19 1;
#X restore 380 84 pd load-args;
#X obj 346 108 v ch_\$0;
#X obj 346 208 + 20;
#X obj 346 185 * 150;
#X obj 248 158 v ch_\$0;
#X obj 346 152 trigger float float;
#X obj 346 229 pack f f \$0 f f;
#X obj 457 224 + 1;
#X obj 457 195 + 1;
#X obj 457 175 * 2;
#X msg 346 254 obj \$1 100 tabread4~ \$2-buffer_\$3 \, connect 0 0
\$4 0 \, obj \$1 200 outlet~ \, connect \$4 0 \$5 0, f 37;
#X obj 253 366 s \$0-sampler;
#X msg 253 338 obj \$1 200 outlet~ \, connect 3 \$2 \$3 0;
#X obj 253 305 pack f f f;
#X connect 1 0 8 0;
#X connect 2 0 3 0;
#X connect 3 0 23 0;
#X connect 5 0 23 2;
#X connect 7 2 14 0;
#X connect 7 3 11 0;
#X connect 7 4 10 0;
#X connect 8 0 2 0;
#X connect 8 1 5 0;
#X connect 8 1 23 1;
#X connect 9 0 15 0;
#X connect 11 0 9 0;
#X connect 12 0 16 0;
#X connect 13 0 12 0;
#X connect 14 0 1 0;
#X connect 15 0 13 0;
#X connect 15 1 16 1;
#X connect 15 1 19 0;
#X connect 16 0 20 0;
#X connect 17 0 16 4;
#X connect 18 0 16 3;
#X connect 18 0 17 0;
#X connect 19 0 18 0;
#X connect 20 0 0 0;
#X connect 22 0 21 0;
#X connect 23 0 22 0;
#X restore 73 121 pd dynamic patching;
#X connect 0 0 1 0;
