#N canvas 414 373 515 323 12;
#X obj 67 141 tgl 15 0 empty empty empty 17 7 0 10 -262144 -1 -1 1
1;
#X obj 67 172 metro 1;
#X obj 147 50 inlet;
#X obj 229 52 inlet;
#N canvas 353 65 538 607 init 0;
#X obj 159 191 / 1000;
#X obj 191 246 v inc_\$0;
#X obj 159 305 v dir_\$0;
#X obj 159 221 t b f;
#X obj 35 43 loadbang;
#X obj 35 536 outlet;
#X obj 159 278 expr if(inc_\$0 >= 0 \, 1 \, if(inc_\$0 < 0 \, -1 \,
0));
#X obj 324 233 v phase_\$0;
#X obj 324 184 wrap;
#X obj 368 211 v width_\$0;
#X obj 159 128 else/args;
#X msg 368 159 0.5;
#X obj 241 183 clip 0 1;
#X obj 159 156 unpack float float float;
#X obj 97 479 v phase_\$0;
#X obj 97 375 sel 1 0;
#X obj 97 342 expr dir_\$0 == 1;
#X obj 120 406 expr if(f_\$0 == 1 \, 0 \, phase_\$0);
#X obj 97 438 expr if(f_\$0 == 0 \, 1 \, phase_\$0);
#X obj 35 80 trigger bang bang bang bang;
#X connect 0 0 3 0;
#X connect 3 0 6 0;
#X connect 3 1 1 0;
#X connect 4 0 19 0;
#X connect 6 0 2 0;
#X connect 8 0 7 0;
#X connect 10 0 13 0;
#X connect 11 0 9 0;
#X connect 12 0 9 0;
#X connect 13 0 0 0;
#X connect 13 1 12 0;
#X connect 13 2 8 0;
#X connect 15 0 18 0;
#X connect 15 1 17 0;
#X connect 16 0 15 0;
#X connect 17 0 14 0;
#X connect 18 0 14 0;
#X connect 19 0 5 0;
#X connect 19 1 16 0;
#X connect 19 2 10 0;
#X connect 19 3 11 0;
#X restore 67 106 pd init;
#N canvas 188 66 450 300 inc 0;
#X obj 77 96 / 1000;
#X obj 109 151 v inc_\$0;
#X obj 77 210 v dir_\$0;
#X obj 77 126 t b f;
#X obj 76 64 inlet;
#X obj 77 183 expr if(inc_\$0 >= 0 \, 1 \, if(inc_\$0 < 0 \, -1 \,
0));
#X connect 0 0 3 0;
#X connect 3 0 5 0;
#X connect 3 1 1 0;
#X connect 4 0 0 0;
#X connect 5 0 2 0;
#X restore 147 94 pd inc;
#N canvas 179 111 583 448 phase_sync 0;
#X obj 89 37 inlet;
#X obj 89 279 v phase_\$0;
#X obj 89 175 sel 1 0;
#X obj 89 73 clip 0 1;
#X obj 89 142 expr dir_\$0 == 1;
#X obj 155 108 v f_\$0;
#X obj 89 107 t b f;
#X obj 89 234 expr if(f_\$0 == 0 \, 1 \, f_\$0);
#X obj 111 206 expr if(f_\$0 == 1 \, 0 \, f_\$0);
#X connect 0 0 3 0;
#X connect 2 0 7 0;
#X connect 2 1 8 0;
#X connect 3 0 6 0;
#X connect 4 0 2 0;
#X connect 6 0 4 0;
#X connect 6 1 5 0;
#X connect 7 0 1 0;
#X connect 8 0 1 0;
#X restore 334 92 pd phase_sync;
#X obj 67 247 outlet;
#X text 186 203 Part of ELSE \; https://github.com/porres/pd-else;
#X text 188 184 Alexandre Torres Porres (2018);
#N canvas 599 44 363 420 pulse 0;
#X obj 145 165 sel 1 0;
#X obj 113 42 inlet;
#X obj 120 336 outlet;
#X obj 113 103 t b b;
#X obj 145 131 expr dir_\$0 >0;
#X obj 120 296 change -1;
#N canvas 80 40 562 380 positive 0;
#X obj 111 68 expr phase_\$0 >= 1;
#X msg 143 164 1;
#X obj 111 134 t b b;
#X obj 111 239 v phase_\$0;
#X obj 68 239 wrap;
#X obj 111 99 select 1 0;
#X obj 222 155 expr (phase_\$0 + inc_\$0) >= 1;
#X obj 222 194 sel 1 0;
#X obj 143 195 v out_\$0;
#X obj 245 224 expr phase_\$0 = (phase_\$0 + inc_\$0) \; out_\$0 =
phase_\$0 <= width_\$0;
#X obj 111 29 inlet;
#X obj 222 275 expr phase_\$0 = (phase_\$0 + inc_\$0) \; out_\$0 =
0;
#X connect 0 0 5 0;
#X connect 1 0 8 0;
#X connect 2 0 3 0;
#X connect 2 1 1 0;
#X connect 3 0 4 0;
#X connect 4 0 3 0;
#X connect 5 0 2 0;
#X connect 5 1 6 0;
#X connect 6 0 7 0;
#X connect 7 0 11 0;
#X connect 7 1 9 0;
#X connect 10 0 0 0;
#X restore 145 234 pd positive;
#N canvas 633 410 562 380 negative 0;
#X obj 102 134 t b b;
#X obj 102 229 v phase_\$0;
#X obj 59 229 wrap;
#X obj 102 99 select 1 0;
#X obj 213 204 sel 1 0;
#X obj 134 192 v out_\$0;
#X obj 236 234 expr phase_\$0 = (phase_\$0 + inc_\$0) \; out_\$0 =
phase_\$0 <= width_\$0;
#X obj 102 27 inlet;
#X obj 102 68 expr phase_\$0 <= 0;
#X msg 134 164 0;
#X obj 213 163 expr (phase_\$0 + inc_\$0) <= 0;
#X obj 213 285 expr phase_\$0 = (phase_\$0 + inc_\$0) \; out_\$0 =
1;
#X connect 0 0 1 0;
#X connect 0 1 9 0;
#X connect 1 0 2 0;
#X connect 2 0 1 0;
#X connect 3 0 0 0;
#X connect 3 1 10 0;
#X connect 4 0 11 0;
#X connect 4 1 6 0;
#X connect 7 0 8 0;
#X connect 8 0 3 0;
#X connect 9 0 5 0;
#X connect 10 0 4 0;
#X restore 168 203 pd negative;
#X obj 122 270 v out_\$0;
#X connect 0 0 6 0;
#X connect 0 1 7 0;
#X connect 1 0 3 0;
#X connect 3 0 8 0;
#X connect 3 1 4 0;
#X connect 4 0 0 0;
#X connect 5 0 2 0;
#X connect 8 0 5 0;
#X restore 67 206 pd pulse;
#X obj 229 92 clip 0 1;
#X obj 229 119 v width_\$0;
#X obj 334 52 inlet;
#X connect 0 0 1 0;
#X connect 1 0 10 0;
#X connect 2 0 5 0;
#X connect 3 0 11 0;
#X connect 4 0 0 0;
#X connect 10 0 7 0;
#X connect 11 0 12 0;
#X connect 13 0 6 0;
