#N canvas 341 23 707 449 10;
#N canvas 783 40 353 220 guts 0;
#N canvas 707 96 530 430 messages 0;
#X obj 29 64 inlet;
#X obj 304 371 s \$0-write;
#X obj 391 230 makefilename;
#X obj 410 204 r \$0-set-path;
#X obj 391 182 r \$0-filename;
#X obj 345 193 symbol;
#X obj 254 315 del 10;
#X msg 254 336 stop;
#X msg 220 321 0;
#X obj 188 354 s \$0-fade;
#X msg 188 321 1;
#X obj 188 244 sel 1 0;
#X msg 188 162 1;
#X msg 224 162 0;
#X obj 29 123 != 0;
#X obj 261 162 route bang;
#X obj 261 228 savepanel;
#X obj 346 157 else/click;
#X obj 304 315 pack2;
#X msg 304 260 set \$1;
#X msg 366 282 set \$1;
#X obj 387 254 else/sr~;
#X msg 304 342 open -rate \$1 \$2 \, start;
#X obj 29 87 route float fade;
#X msg 75 313 fade \$1;
#X obj 75 292 max 1;
#X obj 188 104 route start stop set rate maxtime;
#X obj 188 193 tgl 15 0 empty empty empty 17 7 0 10 -262144 -1 -1 0
1;
#X obj 188 220 change;
#N canvas 670 434 271 334 maxtime 0;
#X obj 81 65 v max_time_\$0;
#X obj 81 93 >= 0;
#X obj 81 115 sel 1;
#X obj 81 140 expr max_time_\$0 - fade_\$0;
#X obj 81 168 moses 0;
#X obj 120 193 del;
#X obj 81 31 inlet;
#X obj 120 266 outlet;
#X obj 120 219 v status_\$0;
#X obj 120 242 sel 1;
#X connect 0 0 1 0;
#X connect 1 0 2 0;
#X connect 2 0 3 0;
#X connect 3 0 4 0;
#X connect 4 1 5 0;
#X connect 5 0 8 0;
#X connect 6 0 0 0;
#X connect 8 0 9 0;
#X connect 9 0 7 0;
#X restore 116 272 pd maxtime;
#X obj 344 128 v max_time_\$0;
#X obj 211 198 v status_\$0;
#X connect 0 0 23 0;
#X connect 2 0 19 0;
#X connect 3 0 2 0;
#X connect 4 0 2 0;
#X connect 5 0 2 0;
#X connect 6 0 7 0;
#X connect 7 0 1 0;
#X connect 8 0 9 0;
#X connect 10 0 9 0;
#X connect 11 0 10 0;
#X connect 11 0 18 0;
#X connect 11 0 29 0;
#X connect 11 1 8 0;
#X connect 11 1 6 0;
#X connect 12 0 27 0;
#X connect 13 0 27 0;
#X connect 14 0 27 0;
#X connect 15 0 16 0;
#X connect 15 1 5 0;
#X connect 16 0 19 0;
#X connect 17 0 16 0;
#X connect 18 0 22 0;
#X connect 19 0 18 1;
#X connect 20 0 18 0;
#X connect 21 0 20 0;
#X connect 22 0 1 0;
#X connect 23 0 14 0;
#X connect 23 1 25 0;
#X connect 23 2 26 0;
#X connect 24 0 9 0;
#X connect 25 0 24 0;
#X connect 26 0 12 0;
#X connect 26 1 13 0;
#X connect 26 2 15 0;
#X connect 26 3 20 0;
#X connect 26 4 30 0;
#X connect 27 0 28 0;
#X connect 27 0 31 0;
#X connect 28 0 11 0;
#X connect 29 0 27 0;
#X restore 65 89 pd messages;
#X obj 65 54 inlet;
#N canvas 584 181 757 500 dynamic-patching 0;
#X obj 310 153 else/loop;
#X obj 310 231 + 20;
#X obj 310 176 t f f, f 6;
#X obj 321 374 s \$0-sampler;
#X obj 310 202 * 15;
#X obj 189 237 + 20;
#X obj 189 215 * 15;
#X obj 379 229 + 1;
#X obj 321 259 pack f f f f, f 15;
#X obj 189 272 pack f f f;
#X obj 408 223 + 7;
#X obj 228 237 + 7;
#N canvas 626 174 550 419 load_args 0;
#X obj 78 31 inlet;
#X obj 314 187 s \$0-filename;
#X obj 349 129 else/dir 1;
#X msg 406 181 set \$1;
#X obj 406 157 makefilename %s/%%s;
#X obj 314 102 t s b;
#X obj 406 208 s \$0-set-path;
#X obj 78 135 else/args;
#X obj 78 189 else/break -;
#X obj 252 185 v ch_\$0;
#X msg 252 158 1;
#X obj 78 163 trigger abything bang;
#X obj 163 304 v ch_\$0;
#X obj 163 281 clip 1 64;
#X obj 78 218 route bang symbol float list -fade -maxtime;
#X obj 120 329 s \$0-filename;
#X obj 127 248 unpack s f;
#X obj 248 299 v fade_\$0;
#X msg 314 68 symbol file.wav;
#X msg 201 187 10;
#X obj 290 272 v max_time_\$0;
#X obj 290 244 max 0;
#X connect 0 0 7 0;
#X connect 2 1 4 0;
#X connect 3 0 6 0;
#X connect 4 0 3 0;
#X connect 5 0 1 0;
#X connect 5 1 2 0;
#X connect 7 0 11 0;
#X connect 8 0 14 0;
#X connect 10 0 9 0;
#X connect 11 0 8 0;
#X connect 11 1 10 0;
#X connect 11 1 18 0;
#X connect 11 1 19 0;
#X connect 13 0 12 0;
#X connect 14 1 15 0;
#X connect 14 2 13 0;
#X connect 14 3 16 0;
#X connect 14 4 17 0;
#X connect 14 5 21 0;
#X connect 16 0 15 0;
#X connect 16 1 13 0;
#X connect 18 0 5 0;
#X connect 19 0 17 0;
#X connect 21 0 20 0;
#X restore 281 89 pd load_args;
#X obj 213 117 trigger float float float, f 33;
#X obj 213 89 v ch_\$0;
#X msg 321 284 obj \$1 50 inlet~ \, connect \$4 0 5 \$3 \, connect
5 \$2 6 \$2, f 18;
#X msg 189 297 obj \$1 50 inlet \, connect \$2 0 0 0 \, connect 5 \$3
3 0, f 19;
#X obj 146 59 else/loadbanger -init 3;
#X msg 471 305 obj 150 200 else/autofade~ 10 \$1 \, obj 150 275 writesf~
\$1 \, connect 1 0 5 0 \, connect 2 0 6 0, f 33;
#X obj 154 386 s \$0-fade;
#X msg 154 358 fade \$1;
#X obj 115 329 moses 1;
#X obj 115 294 v fade_\$0;
#X connect 0 0 2 0;
#X connect 1 0 8 0;
#X connect 2 0 4 0;
#X connect 2 1 7 0;
#X connect 2 1 8 1;
#X connect 2 1 10 0;
#X connect 4 0 1 0;
#X connect 5 0 9 0;
#X connect 6 0 5 0;
#X connect 7 0 8 2;
#X connect 8 0 15 0;
#X connect 9 0 16 0;
#X connect 10 0 8 3;
#X connect 11 0 9 1;
#X connect 13 0 6 0;
#X connect 13 1 0 0;
#X connect 13 1 9 2;
#X connect 13 1 11 0;
#X connect 13 2 18 0;
#X connect 14 0 13 0;
#X connect 15 0 3 0;
#X connect 16 0 3 0;
#X connect 17 0 22 0;
#X connect 17 1 14 0;
#X connect 17 2 12 0;
#X connect 18 0 3 0;
#X connect 20 0 19 0;
#X connect 21 1 20 0;
#X connect 22 0 21 0;
#X restore 178 90 pd dynamic-patching;
#X obj 109 137 else/name \$0-sampler;
#X connect 1 0 0 0;
#X restore 363 118 pd guts;
#X obj 77 167 r \$0-fade;
#X obj 74 234 r \$0-write;
#X obj 364 302 sel 0;
#X obj 364 332 outlet;
#X connect 3 0 4 0;
