#N canvas 591 291 495 409 10;
#X obj 292 365 outlet~;
#X obj 79 27 inlet;
#X obj 292 283 /~ \$2;
#X obj 29 27 inlet~;
#X obj 120 28 inlet;
#X obj 303 27 inlet;
#X obj 292 232 *~;
#X obj 158 114 else/float2sig~ \$3;
#X obj 145 153 else/float2sig~ \$3;
#X obj 307 201 else/float2sig~ \$3 1;
#X obj 354 28 inlet;
#X text 59 271 Part of ELSE \; https://github.com/porres/pd-else;
#X text 61 252 Alexandre Torres Porres (2017);
#X obj 379 256 f \$2;
#X obj 379 279 sel 0;
#X obj 379 232 loadbang;
#X msg 379 303 1;
#X obj 122 189 else/resonant2~;
#X obj 177 25 inlet;
#X obj 177 62 else/float2sig~ \$3;
#X text 63 316 This is an abstraction used on the [resonbank2~] object
, f 27;
#X connect 1 0 8 0;
#X connect 2 0 0 0;
#X connect 3 0 17 0;
#X connect 4 0 7 0;
#X connect 5 0 9 0;
#X connect 6 0 2 0;
#X connect 7 0 17 2;
#X connect 8 0 17 1;
#X connect 9 0 6 1;
#X connect 10 0 7 1;
#X connect 10 0 8 1;
#X connect 10 0 9 1;
#X connect 13 0 14 0;
#X connect 14 0 16 0;
#X connect 15 0 13 0;
#X connect 16 0 2 1;
#X connect 17 0 6 0;
#X connect 18 0 19 0;
#X connect 19 0 17 3;
