#N canvas 219 77 396 305 10;
#X obj 57 24 inlet~;
#X obj 67 231 outlet~;
#X obj 106 25 inlet;
#X obj 106 114 else/order;
#X obj 143 84 else/order;
#X obj 180 114 else/order;
#X obj 106 59 route freq decay amp ramp;
#X obj 309 81 f \$2;
#X obj 309 104 sel 0;
#X msg 309 150 all 10;
#X obj 309 57 loadbang;
#X obj 336 126 moses 0;
#X obj 217 85 else/order;
#X text 157 215 Part of ELSE \; https://github.com/porres/pd-else;
#X text 159 196 Alexandre Torres Porres (2017);
#X obj 67 140 clone \$1 ./resonclone \$1 \$2;
#X connect 0 0 15 0;
#X connect 2 0 6 0;
#X connect 3 0 15 1;
#X connect 4 0 15 2;
#X connect 5 0 15 3;
#X connect 6 0 3 0;
#X connect 6 1 4 0;
#X connect 6 2 5 0;
#X connect 6 3 12 0;
#X connect 7 0 8 0;
#X connect 8 0 9 0;
#X connect 8 1 11 0;
#X connect 9 0 15 4;
#X connect 10 0 7 0;
#X connect 11 0 9 0;
#X connect 12 0 15 4;
#X connect 15 0 1 0;
