#N canvas 636 73 482 290 10;
#X obj 57 24 inlet~;
#X obj 88 234 outlet~;
#X obj 106 25 inlet;
#X obj 106 142 else/order;
#X obj 137 112 else/order;
#X obj 179 144 else/order;
#X obj 337 112 f \$2;
#X obj 337 135 sel 0;
#X msg 337 181 all 10;
#X obj 337 88 loadbang;
#X obj 364 157 moses 0;
#X obj 88 168 clone \$1 resonclone2 \$1 \$2;
#X obj 106 59 route freq attack decay amp ramp;
#X obj 210 112 else/order;
#X obj 257 144 else/order;
#X connect 0 0 11 0;
#X connect 2 0 12 0;
#X connect 3 0 11 1;
#X connect 4 0 11 2;
#X connect 5 0 11 3;
#X connect 6 0 7 0;
#X connect 7 0 8 0;
#X connect 7 1 10 0;
#X connect 8 0 11 5;
#X connect 9 0 6 0;
#X connect 10 0 8 0;
#X connect 11 0 1 0;
#X connect 12 0 3 0;
#X connect 12 1 4 0;
#X connect 12 2 5 0;
#X connect 12 3 13 0;
#X connect 12 4 14 0;
#X connect 13 0 11 4;
#X connect 14 0 11 5;
