#N canvas 136 275 853 361 10;
#X obj 76 28 inlet;
#N canvas 644 372 636 406 messages 0;
#X obj 59 132 openpanel;
#X obj 123 225 select symbol;
#X msg 211 250 open \$1 \, 1;
#X msg 341 237 stop;
#X msg 384 141 bang;
#X obj 59 105 route bang;
#X obj 298 211 route float;
#X obj 211 336 s \$0-readsf~;
#X obj 298 301 s \$0-spigot;
#X obj 256 32 inlet;
#X obj 164 126 r \$0-symbol_arg;
#X obj 123 189 symbol;
#X obj 152 102 r \$0-to_symbol;
#X obj 256 59 route open loop stop start bang float;
#X obj 468 87 != 0;
#X obj 466 112 sel 1 0;
#X connect 0 0 11 0;
#X connect 1 1 2 0;
#X connect 2 0 7 0;
#X connect 3 0 7 0;
#X connect 4 0 11 0;
#X connect 5 0 0 0;
#X connect 5 1 11 0;
#X connect 6 0 8 0;
#X connect 9 0 13 0;
#X connect 10 0 11 1;
#X connect 11 0 1 0;
#X connect 12 0 11 0;
#X connect 13 0 5 0;
#X connect 13 1 6 0;
#X connect 13 2 3 0;
#X connect 13 3 4 0;
#X connect 13 4 4 0;
#X connect 13 5 14 0;
#X connect 14 0 15 0;
#X connect 15 0 4 0;
#X connect 15 1 3 0;
#X restore 76 59 pd messages;
#X obj 71 102 namecanvas \$0-sampler;
#N canvas 105 383 897 372 \$0-readsf 0;
#X obj 20 21 r \$0-readsf~;
#X obj 390 56 r \$0-spigot;
#X obj 351 78 spigot;
#X obj 351 105 s \$0-to_symbol;
#X connect 1 0 2 1;
#X connect 2 0 3 0;
#X restore 74 153 pd \$0-readsf;
#N canvas 561 25 593 557 dynamic 0;
#X obj 347 259 s pd-\$0-readsf;
#X obj 211 111 v n_ch_\$0;
#X obj 211 144 else/loop;
#X obj 211 201 * 60;
#X obj 211 230 + 20;
#X obj 347 176 v n_ch_\$0;
#X obj 306 231 f \$0;
#X text 182 26 Dynamic Patching;
#X obj 273 232 + 5;
#X msg 347 204 obj 20 100 readsf~ \$1 \, connect 0 0 4 0 \, connect
4 \$1 2 0, f 22;
#X msg 227 290 \; pd-\$4-readsf obj \$1 200 outlet~ \, connect 4 \$2
\$3 0 \; \$4-sampler obj \$1 200 outlet~ \, connect 3 \$2 \$3 0;
#N canvas 649 332 631 446 get_n_ch 0;
#X obj 80 54 inlet;
#X obj 80 85 else/args;
#X obj 238 260 v n_ch_\$0;
#X msg 148 231 1;
#X msg 238 135 \$1;
#X msg 349 223 1;
#X obj 349 255 v sym_\$0;
#X obj 238 188 int;
#X obj 238 220 clip 1 64;
#X obj 317 322 s \$0-symbol_arg;
#X obj 317 194 t a b;
#X obj 317 298 symbol;
#X text 385 223 1st arg is symbol;
#X obj 80 112 else/break -;
#X obj 80 140 route bang -loop;
#X obj 134 190 s \$0-spigot;
#X obj 238 162 route float;
#X obj 239 106 s \$0-arg-list;
#X msg 134 163 1;
#X obj 64 223 v n_ch_\$0;
#X obj 92 253 sel 0;
#X msg 92 279 1;
#X obj 64 201 b;
#X connect 0 0 1 0;
#X connect 1 0 13 0;
#X connect 3 0 2 0;
#X connect 4 0 16 0;
#X connect 5 0 6 0;
#X connect 5 0 2 0;
#X connect 7 0 8 0;
#X connect 8 0 2 0;
#X connect 10 0 11 0;
#X connect 10 1 5 0;
#X connect 11 0 9 0;
#X connect 13 0 14 0;
#X connect 14 0 3 0;
#X connect 14 1 18 0;
#X connect 14 1 22 0;
#X connect 14 2 17 0;
#X connect 14 2 4 0;
#X connect 16 0 7 0;
#X connect 16 1 10 0;
#X connect 18 0 15 0;
#X connect 19 0 20 0;
#X connect 20 0 21 0;
#X connect 21 0 19 0;
#X connect 22 0 19 0;
#X restore 425 170 pd get_n_ch;
#N canvas 401 332 315 238 load 0;
#X obj 85 76 v sym_\$0;
#X obj 85 49 inlet;
#N canvas 821 104 377 458 1st_is_not_filename 0;
#X obj 85 31 inlet;
#X obj 106 63 r \$0-arg-list;
#X obj 85 86 list;
#X obj 152 289 s \$0-spigot;
#X text 220 347 3nd is autostart;
#X text 227 288 4th is loop;
#X obj 119 263 unpack;
#X obj 119 316 sel 1;
#X obj 119 344 s \$0-to_symbol;
#X obj 112 133 list split 1;
#X obj 85 110 t a a;
#X obj 85 236 list split 2;
#X msg 203 184 \$1;
#X obj 203 254 s \$0-symbol_arg;
#X obj 146 161 route bang;
#X obj 203 206 else/routetype anything;
#X msg 203 230 symbol \$1;
#X connect 0 0 2 0;
#X connect 1 0 2 1;
#X connect 2 0 10 0;
#X connect 6 0 7 0;
#X connect 6 1 3 0;
#X connect 7 0 8 0;
#X connect 9 1 14 0;
#X connect 10 0 11 0;
#X connect 10 1 9 0;
#X connect 11 1 6 0;
#X connect 12 0 15 0;
#X connect 14 1 12 0;
#X connect 15 0 16 0;
#X connect 16 0 13 0;
#X restore 85 175 pd 1st_is_not_filename;
#N canvas 678 327 358 270 1st_is_filename 0;
#X obj 64 35 inlet;
#X obj 98 170 sel 1;
#X text 197 206 2nd is autostart;
#X text 223 172 3nd is loop;
#X obj 98 202 s \$0-to_symbol;
#X obj 103 78 r \$0-arg-list;
#X obj 64 78 list;
#X obj 147 173 s \$0-spigot;
#X obj 64 108 list split 1;
#X obj 98 137 unpack;
#X connect 0 0 6 0;
#X connect 1 0 4 0;
#X connect 5 0 6 1;
#X connect 6 0 8 0;
#X connect 8 1 9 0;
#X connect 9 0 1 0;
#X connect 9 1 7 0;
#X restore 104 140 pd 1st_is_filename;
#X obj 85 109 sel 0 1;
#X connect 0 0 4 0;
#X connect 1 0 0 0;
#X connect 4 0 2 0;
#X connect 4 1 3 0;
#X restore 76 313 pd load \; args;
#X obj 190 376 * 60;
#X obj 190 403 + 20;
#X obj 270 404 + 5;
#X obj 140 312 v n_ch_\$0;
#X obj 240 403 + 6;
#X obj 168 57 else/loadbanger -init 5;
#X obj 211 175 t f f;
#X obj 140 398 f \$0;
#X obj 140 341 trigger bang float;
#X obj 140 427 pack float float float float float;
#X msg 140 459 \; pd-\$1-readsf obj \$2 200 s \$1-didit \, connect
4 \$5 \$4 0 \; \$1-sampler obj \$2 200 r \$1-didit \, obj \$2 240 outlet
\, connect \$4 0 \$3 0, f 55;
#X obj 227 258 pack f f f f;
#X connect 1 0 2 0;
#X connect 2 0 19 0;
#X connect 3 0 4 0;
#X connect 4 0 24 0;
#X connect 5 0 9 0;
#X connect 6 0 24 3;
#X connect 8 0 24 2;
#X connect 9 0 0 0;
#X connect 13 0 14 0;
#X connect 14 0 22 1;
#X connect 15 0 22 3;
#X connect 16 0 21 0;
#X connect 17 0 22 2;
#X connect 18 0 12 0;
#X connect 18 1 16 0;
#X connect 18 2 1 0;
#X connect 18 3 5 0;
#X connect 18 3 6 0;
#X connect 18 4 11 0;
#X connect 19 0 3 0;
#X connect 19 1 8 0;
#X connect 19 1 24 1;
#X connect 20 0 22 0;
#X connect 21 0 20 0;
#X connect 21 1 15 0;
#X connect 21 1 17 0;
#X connect 21 1 13 0;
#X connect 21 1 22 4;
#X connect 22 0 23 0;
#X connect 24 0 10 0;
#X restore 246 138 pd dynamic patching;
#X connect 0 0 1 0;
