#N canvas 510 427 853 361 10;
#X obj 76 28 inlet;
#N canvas 736 427 636 406 messages 0;
#X obj 59 132 openpanel;
#X obj 123 225 select symbol;
#X msg 211 250 open \$1 \, 1;
#X msg 341 237 stop;
#X msg 384 141 bang;
#X obj 59 105 route bang;
#X obj 298 211 route float;
#X obj 211 336 s \$0-readsf~;
#X obj 298 301 s \$0-spigot;
#X obj 256 32 inlet;
#X obj 164 126 r \$0-symbol_arg;
#X obj 123 189 symbol;
#X obj 152 102 r \$0-to_symbol;
#X obj 256 59 route open loop stop start bang float;
#X obj 468 87 != 0;
#X obj 466 112 sel 1 0;
#X connect 0 0 11 0;
#X connect 1 1 2 0;
#X connect 2 0 7 0;
#X connect 3 0 7 0;
#X connect 4 0 11 0;
#X connect 5 0 0 0;
#X connect 5 1 11 0;
#X connect 6 0 8 0;
#X connect 9 0 13 0;
#X connect 10 0 11 1;
#X connect 11 0 1 0;
#X connect 12 0 11 0;
#X connect 13 0 5 0;
#X connect 13 1 6 0;
#X connect 13 2 3 0;
#X connect 13 3 4 0;
#X connect 13 4 4 0;
#X connect 13 5 14 0;
#X connect 14 0 15 0;
#X connect 15 0 4 0;
#X connect 15 1 3 0;
#X restore 76 59 pd messages;
#X obj 71 102 namecanvas \$0-sampler;
#N canvas 521 454 897 372 \$0-readsf 0;
#X obj 20 21 r \$0-readsf~;
#X obj 390 56 r \$0-spigot;
#X obj 351 78 spigot;
#X obj 351 105 s \$0-to_symbol;
#X connect 1 0 2 1;
#X connect 2 0 3 0;
#X restore 74 153 pd \$0-readsf;
#N canvas 1084 532 507 464 dynamic 0;
#X obj 310 266 s pd-\$0-readsf;
#X obj 66 170 v n_ch_\$0;
#X obj 66 203 else/loop;
#X obj 66 260 * 60;
#X obj 66 289 + 20;
#X obj 66 234 trigger float float;
#X obj 310 179 v n_ch_\$0;
#X obj 66 317 pack float float float float;
#X obj 259 291 f \$0;
#X text 189 23 Dynamic Patching;
#X obj 194 280 + 5;
#X msg 310 207 obj 20 100 readsf~ \$1 \, connect 0 0 4 0 \, connect
4 \$1 2 0, f 22;
#X msg 66 350 \; pd-\$4-readsf obj \$1 200 outlet~ \, connect 4 \$2
\$3 0 \; \$4-sampler obj \$1 200 outlet~ \, connect 3 \$2 \$3 0;
#N canvas 819 284 684 459 get_n_ch 0;
#X obj 75 53 inlet;
#X obj 75 84 else/args;
#X obj 170 258 v n_ch_\$0;
#X msg 75 165 1;
#X msg 170 133 \$1;
#X msg 350 223 1;
#X obj 350 255 v sym_\$0;
#X obj 170 186 int;
#X obj 170 218 clip 1 64;
#X obj 318 322 s \$0-symbol_arg;
#X obj 318 194 t a b;
#X obj 318 298 symbol;
#X text 386 223 1st arg is symbol;
#X obj 205 133 s \$0-arg-list;
#X msg 261 221 1;
#X obj 75 108 route bang;
#X obj 170 107 t a a;
#X obj 170 160 route float -loop;
#X connect 0 0 1 0;
#X connect 1 0 15 0;
#X connect 3 0 2 0;
#X connect 4 0 17 0;
#X connect 5 0 6 0;
#X connect 5 0 2 0;
#X connect 7 0 8 0;
#X connect 8 0 2 0;
#X connect 10 0 11 0;
#X connect 10 1 5 0;
#X connect 11 0 9 0;
#X connect 14 0 2 0;
#X connect 15 0 3 0;
#X connect 15 1 16 0;
#X connect 16 0 4 0;
#X connect 16 1 13 0;
#X connect 17 0 7 0;
#X connect 17 1 14 0;
#X connect 17 2 10 0;
#X restore 340 108 pd get_n_ch;
#N canvas 401 332 315 238 load 0;
#X obj 85 76 v sym_\$0;
#X obj 85 49 inlet;
#X obj 85 109 select 0 1;
#N canvas 270 383 659 338 1st_is_not_filename 0;
#X obj 82 28 inlet;
#X obj 107 60 r \$0-arg-list;
#X obj 82 83 list;
#X obj 82 111 else/break -;
#X obj 182 260 s \$0-spigot;
#X msg 183 228 1;
#X text 446 282 3nd is autostart;
#X text 183 285 4th is loop;
#X obj 257 126 list split 1;
#X obj 297 193 list split 1;
#X obj 337 219 unpack;
#X obj 337 252 sel 1;
#X obj 337 280 s \$0-to_symbol;
#X obj 82 138 route symbol;
#X obj 82 182 route -loop;
#X msg 82 159 \$1;
#X obj 183 100 route -loop;
#X obj 297 157 t a a;
#X obj 366 127 list split 1;
#X text 498 182 2nd is symbol;
#X obj 440 207 s \$0-symbol_arg;
#X obj 366 154 route float;
#X obj 440 182 symbol;
#X connect 0 0 2 0;
#X connect 1 0 2 1;
#X connect 2 0 3 0;
#X connect 3 0 13 0;
#X connect 5 0 4 0;
#X connect 8 1 17 0;
#X connect 9 1 10 0;
#X connect 10 0 11 0;
#X connect 10 1 4 0;
#X connect 11 0 12 0;
#X connect 13 0 15 0;
#X connect 13 1 16 0;
#X connect 14 0 5 0;
#X connect 15 0 14 0;
#X connect 16 0 5 0;
#X connect 16 1 8 0;
#X connect 17 0 9 0;
#X connect 17 1 18 0;
#X connect 18 0 21 0;
#X connect 21 1 22 0;
#X connect 22 0 20 0;
#X restore 85 175 pd 1st_is_not_filename;
#N canvas 446 319 440 309 1st_is_filename 0;
#X obj 63 44 inlet;
#X obj 211 221 sel 1;
#X text 266 185 2nd is autostart;
#X text 271 204 3nd is loop;
#X obj 211 253 s \$0-to_symbol;
#X obj 122 56 r \$0-arg-list;
#X obj 97 79 list;
#X obj 97 107 else/break -;
#X obj 97 135 route -loop;
#X obj 97 219 s \$0-spigot;
#X msg 97 166 1;
#X obj 171 159 list split 1;
#X obj 211 188 unpack;
#X connect 0 0 6 0;
#X connect 1 0 4 0;
#X connect 5 0 6 1;
#X connect 6 0 7 0;
#X connect 7 0 8 0;
#X connect 8 0 10 0;
#X connect 8 1 11 0;
#X connect 10 0 9 0;
#X connect 11 1 12 0;
#X connect 12 0 1 0;
#X connect 12 1 9 0;
#X restore 118 140 pd 1st_is_filename;
#X connect 0 0 2 0;
#X connect 1 0 0 0;
#X connect 2 0 3 0;
#X connect 2 1 4 0;
#X restore 182 141 pd load \; args;
#X obj 182 80 else/loadbanger -init 4;
#X connect 1 0 2 0;
#X connect 2 0 5 0;
#X connect 3 0 4 0;
#X connect 4 0 7 0;
#X connect 5 0 3 0;
#X connect 5 1 7 1;
#X connect 5 1 10 0;
#X connect 6 0 11 0;
#X connect 7 0 12 0;
#X connect 8 0 7 3;
#X connect 10 0 7 2;
#X connect 11 0 0 0;
#X connect 15 0 14 0;
#X connect 15 1 1 0;
#X connect 15 2 6 0;
#X connect 15 2 8 0;
#X connect 15 3 13 0;
#X restore 246 138 pd dynamic patching;
#X connect 0 0 1 0;
