#N canvas 996 116 536 470 10;
#X obj 118 192 symbol \$1;
#X obj 206 191 symbol;
#X obj 174 126 loadbang;
#X obj 174 155 t b b;
#X obj 19 140 openpanel;
#X obj 118 223 select symbol;
#X obj 206 289 readsf~;
#X obj 206 373 outlet~;
#X obj 270 39 inlet;
#X msg 206 253 open \$1 \, 1;
#X msg 355 254 stop;
#X msg 398 133 bang;
#X obj 270 71 route open loop stop start bang;
#X obj 118 137 f \$2;
#X obj 118 161 sel 1;
#X obj 252 320 spigot \$3;
#X obj 19 113 route bang;
#X obj 252 222 route bang;
#X connect 0 0 5 0;
#X connect 1 0 5 1;
#X connect 2 0 3 0;
#X connect 3 0 13 0;
#X connect 3 1 1 0;
#X connect 4 0 0 0;
#X connect 5 1 9 0;
#X connect 6 0 7 0;
#X connect 6 1 15 0;
#X connect 8 0 12 0;
#X connect 9 0 6 0;
#X connect 10 0 6 0;
#X connect 11 0 0 0;
#X connect 12 0 16 0;
#X connect 12 1 17 0;
#X connect 12 2 10 0;
#X connect 12 3 11 0;
#X connect 12 4 11 0;
#X connect 13 0 14 0;
#X connect 14 0 0 0;
#X connect 15 0 0 0;
#X connect 16 0 4 0;
#X connect 16 1 0 0;
#X connect 17 1 15 1;
