#N canvas 259 549 552 340 10;
#X obj 71 22 inlet;
#X obj 282 117 list prepend set;
#X obj 282 140 list trim;
#X obj 71 221 outlet;
#X text 233 223 Part of ELSE \; https://github.com/porres/pd-else;
#X text 231 202 Alexandre Torres Porres (2017);
#X obj 124 22 inlet;
#X obj 71 114 != 0;
#X obj 71 137 sel 1;
#X obj 71 90 float \$1;
#X obj 71 59 trigger bang anything;
#X obj 215 86 route bang;
#X msg 194 127 set bang;
#X connect 0 0 10 0;
#X connect 1 0 2 0;
#X connect 2 0 3 0;
#X connect 6 0 9 1;
#X connect 7 0 8 0;
#X connect 8 0 3 0;
#X connect 9 0 7 0;
#X connect 10 0 9 0;
#X connect 10 1 11 0;
#X connect 11 0 12 0;
#X connect 11 1 1 0;
#X connect 12 0 3 0;
