#N canvas 865 23 477 377 10;
#X obj 67 35 inlet~;
#X obj 175 154 metro;
#X obj 67 200 snapshot~;
#X obj 67 296 outlet;
#X msg 125 120 stop;
#X obj 268 108 f \$1;
#X obj 125 34 inlet;
#X obj 125 60 route stop start float;
#X obj 187 97 loadbang;
#X text 195 215 Part of ELSE \; https://github.com/porres/pd-else;
#X text 197 196 Alexandre Torres Porres (2017);
#X obj 268 130 max 1;
#X obj 67 242 change;
#X obj 187 120 t b b;
#X connect 0 0 2 0;
#X connect 1 0 2 0;
#X connect 2 0 12 0;
#X connect 4 0 1 0;
#X connect 5 0 11 0;
#X connect 6 0 7 0;
#X connect 7 0 4 0;
#X connect 7 1 1 0;
#X connect 7 2 5 0;
#X connect 8 0 13 0;
#X connect 11 0 1 1;
#X connect 12 0 3 0;
#X connect 13 0 1 0;
#X connect 13 1 5 0;
#X connect 13 1 12 0;
