#N canvas 346 277 620 299 10;
#N canvas 46 445 1192 433 \$0-arrays-cnv 0;
#X restore 190 100 pd \$0-arrays-cnv;
#N canvas 900 380 355 216 \$0-point 0;
#X obj 97 61 filledcurve 0 0 8 x0 y0 x0 y0 x0 y0;
#X obj 53 31 struct \$0-point float x0 float y0 float s;
#X obj 53 146 outlet;
#X obj 97 86 drawpolygon 0 2 x0 0 x0 s;
#X obj 97 111 drawpolygon 0 2 0 y0 s y0;
#X connect 1 0 2 0;
#X restore 45 172 pd \$0-point;
#X obj 23 13 inlet;
#N canvas 409 413 301 229 init 0;
#X obj 42 46 loadbang;
#N canvas 876 66 518 433 draw-point 0;
#X msg 301 157 traverse \$1 \, bang;
#X obj 300 184 pointer;
#X obj 301 135 symbol pd-\$0-point-cnv;
#X obj 120 168 list append 0 0;
#X obj 221 166 r \$0-coords;
#X obj 56 75 inlet;
#X obj 56 290 outlet;
#X obj 121 196 list append;
#X obj 202 196 r \$0-size;
#X obj 121 225 append \$0-point x0 y0 s;
#X obj 56 141 trigger bang bang bang;
#X obj 121 247 s \$0-pointer;
#X connect 0 0 1 0;
#X connect 1 0 9 3;
#X connect 2 0 0 0;
#X connect 3 0 7 0;
#X connect 4 0 3 1;
#X connect 5 0 10 0;
#X connect 7 0 9 0;
#X connect 8 0 7 1;
#X connect 9 0 11 0;
#X connect 10 0 6 0;
#X connect 10 1 3 0;
#X connect 10 2 2 0;
#X restore 31 160 pd draw-point;
#N canvas 662 160 497 215 GOP 0;
#X obj 35 38 inlet;
#X obj 35 74 pack \$0 f f;
#X obj 84 51 r \$0-width;
#X obj 116 72 r \$0-height;
#X msg 35 97 \; pd-\$1-point-cnv donecanvasdialog 1 -1 3 0 \$3 \$2
0 \$2 \$3 0 0 \; pd-\$1-arrays-cnv donecanvasdialog 1 -1 3 0 \$3 \$2
0 \$2 \$3 100 20 \; pd-\$1-graph1 donecanvasdialog 1 -1 3 0 \$3 \$2
0 \$2 \$3 0 0 \; pd-\$1-graph2 donecanvasdialog 1 -1 3 0 0 \$2 \$3
\$2 \$3 0 0 \; \$1-this-patch donecanvasdialog 1 -1 3 0 \$3 \$2 0 \$2
\$3 190 100 \, dirty 0, f 65;
#X connect 0 0 1 0;
#X connect 1 0 4 0;
#X connect 2 0 1 1;
#X connect 3 0 1 2;
#X restore 31 182 pd GOP;
#N canvas 625 66 552 696 args-setup 0;
#X obj 48 26 inlet;
#X obj 112 96 else/args;
#X obj 112 121 else/break -;
#X obj 170 318 max 18;
#X msg 127 318 127;
#X obj 48 272 spigot 1;
#X obj 143 193 t b f;
#X msg 93 250 0;
#X obj 170 636 outlet;
#X obj 327 307 unpack;
#X obj 327 370 s \$0-min;
#X obj 360 327 s \$0-max;
#X obj 280 262 list;
#X obj 202 197 list length;
#X obj 202 221 sel 2;
#X obj 202 169 trigger list list;
#X obj 230 345 print slider2d;
#X msg 230 312 -range needs 2 floats, f 12;
#X obj 112 145 route bang -size -range;
#X obj 100 192 t b b;
#X obj 396 307 v max_\$0;
#X obj 345 347 v min_\$0;
#X msg 327 162 0 127;
#X obj 418 601 s \$0-height;
#X obj 466 486 s \$0-size;
#X obj 457 518 v size_\$0;
#X obj 443 548 s \$0-width;
#X obj 170 417 trigger bang bang float;
#X obj 48 57 trigger bang bang bang, f 47;
#X obj 430 576 v width_\$0;
#X obj 305 548 r \$0-name1;
#X obj 318 575 r \$0-name2;
#X obj 248 571 array size;
#X obj 237 597 array size, f 14;
#X obj 237 548 v width_\$0;
#X obj 352 397 r \$0-setsize;
#X obj 348 257 r \$0-set-range;
#X obj 352 420 trigger bang float;
#X obj 238 85 r \$0-setsize;
#X msg 238 114 -size \$1;
#X connect 0 0 28 0;
#X connect 1 0 2 0;
#X connect 2 0 18 0;
#X connect 3 0 27 0;
#X connect 4 0 27 0;
#X connect 5 0 4 0;
#X connect 6 0 7 0;
#X connect 6 1 3 0;
#X connect 7 0 5 1;
#X connect 9 0 10 0;
#X connect 9 0 21 0;
#X connect 9 1 11 0;
#X connect 9 1 20 0;
#X connect 12 0 9 0;
#X connect 13 0 14 0;
#X connect 14 0 12 0;
#X connect 14 1 17 0;
#X connect 15 0 13 0;
#X connect 15 1 12 1;
#X connect 17 0 16 0;
#X connect 18 0 19 0;
#X connect 18 1 6 0;
#X connect 18 2 15 0;
#X connect 19 0 7 0;
#X connect 19 1 4 0;
#X connect 22 0 9 0;
#X connect 27 0 8 0;
#X connect 27 1 34 0;
#X connect 27 2 24 0;
#X connect 27 2 25 0;
#X connect 27 2 26 0;
#X connect 27 2 23 0;
#X connect 27 2 29 0;
#X connect 28 0 5 0;
#X connect 28 1 1 0;
#X connect 28 2 22 0;
#X connect 30 0 32 1;
#X connect 31 0 33 1;
#X connect 34 0 32 0;
#X connect 34 0 33 0;
#X connect 35 0 37 0;
#X connect 36 0 9 0;
#X connect 37 0 34 0;
#X connect 37 1 24 0;
#X connect 37 1 25 0;
#X connect 37 1 26 0;
#X connect 37 1 29 0;
#X connect 37 1 23 0;
#X connect 38 0 39 0;
#X connect 39 0 1 0;
#X restore 31 92 pd args-setup;
#X obj 132 118 t b b;
#X obj 151 92 r \$0-reset;
#N canvas 255 23 450 300 cnv 0;
#X obj 151 50 inlet;
#X obj 159 200 outlet;
#X obj 214 124 s \$0-cnv;
#X obj 264 178 cnv 15 64 64 empty \$0-cnv empty 20 12 0 14 -228856
-66577 0;
#X text 261 77 not yet;
#X connect 0 0 1 0;
#X restore 31 118 pd cnv;
#X obj 132 21 inlet;
#N canvas 242 102 511 370 init-arrays 0;
#X obj 79 119 t b b;
#X obj 135 145 s pd-\$0-arrays-cnv;
#X text 170 101 Create graphs;
#X msg 135 123 graph \$1-graph2 \, graph \$1-graph1;
#X obj 79 18 inlet;
#X obj 135 99 f \$0;
#X obj 79 227 t b b;
#X text 289 211 Insert arrays into graphs;
#X obj 79 321 outlet;
#X obj 192 188 r \$0-name1;
#X obj 263 189 r \$0-name2;
#X msg 131 234 \; pd-\$1-graph1 pop \, array \$2 0 float 1 \; pd-\$1-graph2
pop \, array \$3 0 float 1 \;;
#N canvas 295 106 668 461 create-names 0;
#X obj 365 329 s \$0-name2;
#X obj 484 189 t b f;
#X obj 454 233 list split;
#X obj 482 255 list split 1;
#X obj 435 145 t f f;
#X obj 435 167 div 2;
#X obj 484 167 mod 2;
#X msg 454 211 32 160;
#X obj 365 305 list tosymbol;
#X obj 52 406 outlet;
#X obj 54 38 inlet;
#X obj 196 82 expr \$0 * 1000 + 1 \; \$0 * 1000 + 2;
#X obj 435 123 trigger float bang, f 19;
#X obj 482 277 list append, f 15;
#X obj 482 301 trigger list;
#X obj 365 281 list append;
#X obj 365 209 sel 0;
#X obj 245 189 t b f;
#X obj 215 233 list split;
#X obj 243 255 list split 1;
#X obj 196 145 t f f;
#X obj 196 167 div 2;
#X obj 245 167 mod 2;
#X msg 215 211 32 160;
#X obj 126 310 list tosymbol;
#X obj 196 123 trigger float bang, f 19;
#X obj 243 277 list append, f 15;
#X obj 243 301 trigger list;
#X obj 126 281 list append;
#X obj 126 209 sel 0;
#X obj 126 333 s \$0-name1;
#X obj 54 110 trigger bang bang;
#X connect 1 0 7 0;
#X connect 1 1 2 1;
#X connect 2 1 3 0;
#X connect 3 0 13 0;
#X connect 4 0 5 0;
#X connect 4 1 6 0;
#X connect 5 0 16 0;
#X connect 6 0 1 0;
#X connect 7 0 2 0;
#X connect 8 0 0 0;
#X connect 10 0 31 0;
#X connect 11 0 25 0;
#X connect 11 1 12 0;
#X connect 12 0 4 0;
#X connect 12 1 13 1;
#X connect 13 0 14 0;
#X connect 14 0 13 1;
#X connect 14 0 15 1;
#X connect 15 0 8 0;
#X connect 16 0 15 0;
#X connect 16 1 4 0;
#X connect 17 0 23 0;
#X connect 17 1 18 1;
#X connect 18 1 19 0;
#X connect 19 0 26 0;
#X connect 20 0 21 0;
#X connect 20 1 22 0;
#X connect 21 0 29 0;
#X connect 22 0 17 0;
#X connect 23 0 18 0;
#X connect 24 0 30 0;
#X connect 25 0 20 0;
#X connect 25 1 26 1;
#X connect 26 0 27 0;
#X connect 27 0 26 1;
#X connect 27 0 28 1;
#X connect 28 0 24 0;
#X connect 29 0 28 0;
#X connect 29 1 20 0;
#X connect 31 0 9 0;
#X connect 31 1 11 0;
#X restore 79 55 pd create-names;
#X obj 131 213 pack \$0 symbol symbol;
#X connect 0 0 6 0;
#X connect 0 1 5 0;
#X connect 3 0 1 0;
#X connect 4 0 12 0;
#X connect 5 0 3 0;
#X connect 6 0 8 0;
#X connect 6 1 13 0;
#X connect 9 0 13 1;
#X connect 10 0 13 2;
#X connect 12 0 0 0;
#X connect 13 0 11 0;
#X restore 31 70 pd init-arrays;
#X obj 159 166 s pd-\$0-point-cnv;
#X obj 31 22 inlet;
#X msg 159 143 clear;
#X connect 0 0 8 0;
#X connect 1 0 2 0;
#X connect 3 0 6 0;
#X connect 4 0 1 0;
#X connect 4 1 11 0;
#X connect 5 0 4 0;
#X connect 6 0 1 0;
#X connect 7 0 4 0;
#X connect 8 0 3 0;
#X connect 10 0 8 0;
#X connect 11 0 9 0;
#X restore 140 56 pd init;
#X obj 26 110 namecanvas \$0-this-patch, f 13;
#X obj 230 30 bng 15 250 50 0 empty empty empty 17 7 0 10 -262144 -1
-1;
#X obj 179 35 bng 15 250 50 0 empty empty empty 17 7 0 10 -262144 -1
-1;
#X obj 45 242 outlet;
#N canvas 115 204 614 250 clear 0;
#X obj 78 17 inlet;
#X obj 78 176 s pd-\$0-arrays-cnv;
#X obj 90 154 s pd-\$0-point-cnv;
#X msg 78 126 clear \, donecanvasdialog 1 -1 0 0 0 0 0 0 0 0 0;
#X text 221 175 <= just arrays need to be cleared before saving;
#X obj 138 69 s \$0-this-patch;
#X msg 138 48 donecanvasdialog 1 -1 0 0 0 0 0 0 0 0 0;
#X obj 78 63 t b b;
#X text 394 41 totally optional;
#X text 397 54 useful for recreating abstraction in parent, f 21;
#X text 224 153 <= doesn't need to clear before saving either;
#X msg 25 126 clear;
#X connect 0 0 7 0;
#X connect 3 0 1 0;
#X connect 3 0 2 0;
#X connect 6 0 5 0;
#X connect 7 0 3 0;
#X connect 7 1 6 0;
#X connect 11 0 1 0;
#X connect 11 0 2 0;
#X restore 230 50 pd clear;
#X text 389 45 Part of ELSE \; https://github.com/porres/pd-else;
#X text 391 26 Alexandre Torres Porres (2018);
#N canvas 446 63 450 300 \$0-point-cnv 0;
#X restore 190 100 pd \$0-point-cnv;
#X obj 140 36 bng 15 250 50 0 empty empty empty 17 7 0 10 -262144 -1
-1;
#X text 251 31 before saving;
#X text 113 16 re-init;
#X text 165 17 reset;
#N canvas 388 279 576 196 route 0;
#X obj 73 28 inlet;
#N canvas 803 202 367 410 set-size 0;
#X obj 58 33 inlet;
#X obj 58 91 route float;
#X obj 58 304 s \$0-reset;
#X obj 58 194 float;
#X obj 58 169 sel 1;
#X obj 58 114 max 18;
#X obj 58 136 expr $f1 != size_\$0 \; $f1;
#X obj 58 221 t b b f;
#X obj 120 223 s \$0-setsize;
#X obj 68 277 s \$0-resize;
#X connect 0 0 1 0;
#X connect 1 0 5 0;
#X connect 3 0 7 0;
#X connect 4 0 3 0;
#X connect 5 0 6 0;
#X connect 6 0 4 0;
#X connect 6 1 3 1;
#X connect 7 0 2 0;
#X connect 7 1 9 0;
#X connect 7 2 8 0;
#X restore 144 136 pd set-size;
#N canvas 665 23 519 410 coords 0;
#X obj 147 105 unpack;
#X obj 210 102 r \$0-min;
#X obj 276 103 r \$0-max;
#X obj 198 157 clip 0 127;
#X obj 123 150 clip 0 127;
#X obj 385 285 v range_\$0;
#X obj 154 239 expr ($f1 - min_\$0) * size_\$0/range_\$0 \; ($f2 -
min_\$0) * size_\$0/range_\$0 \; max_\$0 - min_\$0;
#X obj 152 185 pack;
#X obj 66 255 s \$0-output;
#X obj 66 231 list;
#X obj 107 84 t b l;
#N canvas 500 53 512 267 resize 0;
#X obj 47 100 r \$0-resize;
#X obj 47 149 list append 0 0;
#X obj 134 126 pack;
#X obj 133 58 r \$0-coords;
#X obj 134 78 expr (($f1 / size_\$0) * range_\$0) + min_\$0 \; (($f2
/ size_\$0) * range_\$0) + min_\$0 \; max_\$0 - min_\$0;
#X obj 386 127 v range_\$0;
#X obj 46 184 outlet;
#X connect 0 0 1 0;
#X connect 1 0 6 0;
#X connect 2 0 1 1;
#X connect 3 0 4 0;
#X connect 4 0 2 0;
#X connect 4 1 2 1;
#X connect 4 2 5 0;
#X restore 163 81 pd resize;
#X obj 108 37 inlet;
#X obj 147 37 inlet;
#X obj 154 297 pack float float;
#X obj 154 323 s \$0-set-coords;
#X connect 0 0 4 0;
#X connect 0 1 3 0;
#X connect 1 0 3 1;
#X connect 1 0 4 1;
#X connect 2 0 3 2;
#X connect 2 0 4 2;
#X connect 3 0 6 1;
#X connect 3 0 7 1;
#X connect 4 0 6 0;
#X connect 4 0 7 0;
#X connect 6 0 14 0;
#X connect 6 1 14 1;
#X connect 6 2 5 0;
#X connect 7 0 9 1;
#X connect 9 0 8 0;
#X connect 10 0 9 0;
#X connect 10 1 0 0;
#X connect 11 0 0 0;
#X connect 12 0 10 0;
#X connect 13 0 0 0;
#X connect 14 0 15 0;
#X restore 73 125 pd coords;
#X obj 179 112 s \$0-set-range;
#X obj 73 62 route list set size range bang;
#N canvas 178 30 284 204 bang 0;
#X obj 69 33 inlet;
#X obj 68 121 s \$0-bang;
#X obj 143 131 s \$0-changed;
#X msg 143 109 set reset;
#X obj 69 79 t b b;
#X connect 0 0 4 0;
#X connect 3 0 2 0;
#X connect 4 0 1 0;
#X connect 4 1 3 0;
#X restore 214 86 pd bang;
#X obj 334 30 inlet;
#N canvas 4 23 450 300 properties 0;
#X obj 199 167 print slider2d;
#X msg 200 134 properties coming soon;
#X obj 197 92 inlet;
#X connect 1 0 0 0;
#X connect 2 0 1 0;
#X restore 334 71 pd properties;
#X connect 0 0 4 0;
#X connect 4 0 2 0;
#X connect 4 1 2 1;
#X connect 4 2 1 0;
#X connect 4 3 3 0;
#X connect 4 4 5 0;
#X connect 6 0 7 0;
#X restore 23 70 pd route;
#N canvas 155 288 366 386 xy-out 0;
#X obj 56 335 outlet;
#X obj 148 103 get \$0-point x0 y0, f 12;
#X obj 274 116 r \$0-size;
#X obj 148 143 clip 0 127;
#X obj 217 151 clip 0 127;
#X obj 88 34 inlet;
#X obj 57 271 else/changed;
#X obj 88 70 route click change, f 21;
#X obj 80 241 r \$0-changed;
#X obj 74 302 r \$0-output;
#N canvas 128 125 413 428 click 0;
#X msg 59 147 const 0;
#X obj 251 132 r \$0-name1;
#X obj 269 156 r \$0-name2;
#X obj 200 151 array max;
#X obj 172 213 array max;
#X obj 115 147 r \$0-name1;
#X obj 114 176 r \$0-name2;
#X obj 200 173 sel 0;
#X obj 71 177 send;
#X obj 59 202 send, f 7;
#X obj 254 266 swap;
#X msg 172 236 0;
#X obj 217 97 s \$0-changed;
#X msg 217 75 set reset;
#X obj 60 31 inlet;
#X obj 60 83 trigger bang bang bang;
#X obj 275 361 outlet;
#X obj 225 361 outlet;
#X connect 0 0 8 0;
#X connect 0 0 9 0;
#X connect 1 0 3 2;
#X connect 2 0 4 2;
#X connect 3 0 7 0;
#X connect 3 1 10 1;
#X connect 4 0 11 0;
#X connect 4 1 10 1;
#X connect 5 0 8 1;
#X connect 6 0 9 1;
#X connect 7 0 4 0;
#X connect 7 1 10 0;
#X connect 10 0 17 0;
#X connect 10 1 16 0;
#X connect 11 0 10 0;
#X connect 13 0 12 0;
#X connect 14 0 15 0;
#X connect 15 0 0 0;
#X connect 15 1 3 0;
#X connect 15 2 13 0;
#X restore 88 135 pd click;
#N canvas 113 43 376 256 set-range 0;
#X obj 63 169 pack float float;
#X obj 244 97 r \$0-min;
#X obj 279 117 r \$0-max;
#X obj 63 142 else/rescale;
#X obj 210 142 else/rescale;
#X obj 63 83 expr $f1 * 127 / size_\$0 \; $f2 * 127 / size_\$0 \;;
#X obj 63 203 outlet;
#X obj 63 46 inlet;
#X connect 0 0 6 0;
#X connect 1 0 3 1;
#X connect 1 0 4 1;
#X connect 2 0 3 2;
#X connect 2 0 4 2;
#X connect 3 0 0 0;
#X connect 4 0 0 1;
#X connect 5 0 3 0;
#X connect 5 1 4 0;
#X connect 7 0 5 0;
#X restore 57 213 pd set-range;
#N canvas 715 360 447 305 set-coords 0;
#X obj 66 79 pack float float;
#X obj 187 182 s \$0-coords;
#X obj 203 149 set \$0-point x0 y0;
#X obj 308 126 receive \$0-pointer;
#X obj 67 33 inlet;
#X obj 159 33 inlet;
#X obj 66 242 outlet;
#X obj 77 196 list append 0 0;
#X obj 187 105 r \$0-set-coords;
#X obj 77 173 r \$0-bang;
#X connect 0 0 2 0;
#X connect 0 0 1 0;
#X connect 0 0 6 0;
#X connect 0 0 7 1;
#X connect 3 0 2 2;
#X connect 4 0 0 0;
#X connect 5 0 0 1;
#X connect 7 0 6 0;
#X connect 8 0 2 0;
#X connect 8 0 7 1;
#X connect 8 0 1 0;
#X connect 9 0 7 0;
#X restore 57 173 pd set-coords;
#X connect 1 0 3 0;
#X connect 1 1 4 0;
#X connect 2 0 3 2;
#X connect 2 0 4 2;
#X connect 3 0 12 0;
#X connect 4 0 12 1;
#X connect 5 0 7 0;
#X connect 6 0 0 0;
#X connect 7 0 10 0;
#X connect 7 1 1 0;
#X connect 8 0 6 0;
#X connect 9 0 0 0;
#X connect 10 0 12 0;
#X connect 10 1 12 1;
#X connect 11 0 6 0;
#X connect 12 0 11 0;
#X restore 45 204 pd xy-out;
#X obj 47 44 else/brat;
#X connect 1 0 17 0;
#X connect 2 0 16 0;
#X connect 5 0 8 0;
#X connect 6 0 3 1;
#X connect 12 0 3 0;
#X connect 17 0 7 0;
#X connect 18 0 16 1;
