#N canvas 794 102 476 410 10;
#X obj 27 221 tgl 15 0 empty empty empty 17 7 0 10 -262144 -1 -1 1
1;
#X obj 73 282 metro;
#X msg 117 319 tempo \$1 permin;
#X obj 117 246 else/randf -1 1;
#X obj 117 295 change -1;
#X obj 117 271 expr bpm_\$0 * exp(log((swing_\$0 / 100) + 1) * $f1)
;
#X obj 27 33 inlet;
#X text 31 9 gate;
#X obj 89 192 sel -on;
#X obj 89 149 else/routetype a;
#X obj 89 171 symbol;
#X obj 89 127 else/break -;
#X obj 182 169 unpack;
#X obj 225 230 v bpm_\$0;
#X obj 282 230 v swing_\$0;
#X obj 282 205 max 0;
#X obj 225 205 max 0;
#X text 272 13 swing (%);
#X text 227 13 BPM;
#X obj 225 33 inlet;
#X obj 282 34 inlet;
#X obj 73 361 outlet;
#X obj 89 106 else/args;
#X obj 89 85 loadbang;
#X text 237 327 Part of ELSE \; https://github.com/porres/pd-else;
#X text 239 308 Alexandre Torres Porres (2018);
#X obj 27 60 route float bang;
#X obj 27 91 != 0;
#X obj 27 251 change;
#X connect 0 0 28 0;
#X connect 1 0 3 0;
#X connect 1 0 21 0;
#X connect 2 0 1 0;
#X connect 3 0 5 0;
#X connect 4 0 2 0;
#X connect 5 0 4 0;
#X connect 6 0 26 0;
#X connect 8 0 0 0;
#X connect 9 0 10 0;
#X connect 9 1 12 0;
#X connect 10 0 8 0;
#X connect 11 0 9 0;
#X connect 12 0 16 0;
#X connect 12 1 15 0;
#X connect 15 0 14 0;
#X connect 16 0 13 0;
#X connect 19 0 16 0;
#X connect 20 0 15 0;
#X connect 22 0 11 0;
#X connect 23 0 22 0;
#X connect 26 0 27 0;
#X connect 26 1 1 0;
#X connect 27 0 0 0;
#X connect 28 0 1 0;
