#N canvas 554 295 608 360 10;
#X obj 60 239 *~;
#X obj 60 36 inlet~;
#X obj 106 36 inlet;
#X obj 60 322 outlet~;
#X obj 106 231 *~;
#X text 176 16 Depth;
#X obj 106 258 +~;
#X obj 177 236 else/float2sig~ 10;
#X obj 177 262 expr~ 1 - $v1;
#X obj 177 35 inlet;
#X obj 177 211 clip 0 1;
#X text 108 16 Hz;
#X text 60 16 input;
#X text 347 171 Part of ELSE \; https://github.com/porres/pd-else;
#X text 349 152 Alexandre Torres Porres (2018);
#X obj 190 96 else/args;
#X obj 190 123 route bang float list;
#X obj 231 154 unpack;
#X msg 190 146 1;
#X obj 106 186 osc~;
#X obj 190 71 loadbang;
#X connect 0 0 3 0;
#X connect 1 0 0 0;
#X connect 2 0 19 0;
#X connect 4 0 6 0;
#X connect 6 0 0 1;
#X connect 7 0 8 0;
#X connect 7 0 4 1;
#X connect 8 0 6 1;
#X connect 9 0 10 0;
#X connect 10 0 7 0;
#X connect 15 0 16 0;
#X connect 16 0 18 0;
#X connect 16 1 17 0;
#X connect 16 2 17 0;
#X connect 17 0 19 0;
#X connect 17 1 10 0;
#X connect 18 0 10 0;
#X connect 19 0 4 0;
#X connect 20 0 15 0;
