#N canvas 481 85 434 428 12;
#X declare -path else;
#X obj 240 24 declare -path else;
#X obj 123 189 sigs~ 200 300 400 500 600;
#X obj 123 233 +~;
#X obj 184 231 rampnoise~ 1;
#X obj 184 255 *~ 10;
#X obj 123 298 osc.mc~ -sum;
#X obj 123 334 out~;
#X text 41 63 The [osc.mc~] object from ELSE library is a bank of oscillators made of [sine~] objects that take and generate multichannel signals. As such \, you can perform hard sync \, frequency and phase modulation \, which isn't possible in the previous oscillator bank options. Check it help file for more details., f 51;
#X connect 1 0 2 0;
#X connect 2 0 5 0;
#X connect 3 0 4 0;
#X connect 4 0 2 1;
#X connect 5 0 6 0;
