#N canvas 459 87 554 442 12;
#X declare -lib pdlua;
#X obj 147 100 bng 20 250 50 0 empty empty empty 17 7 0 10 #dfdfdf #000000 #000000;
#X floatatom 147 263 5 0 0 0 - - - 0;
#X obj 147 171 fibs, f 18;
#X floatatom 147 326 5 0 0 0 - - - 0;
#X obj 147 231 spigot;
#X floatatom 270 263 5 0 0 0 - - - 0;
#X floatatom 270 326 5 0 0 0 - - - 0;
#X obj 270 231 spigot;
#X obj 309 201 tgl 20 1 empty empty empty 17 7 0 10 #dfdfdf #000000 #000000 0 1;
#X obj 147 389 noteout 1;
#X obj 270 389 noteout 2;
#X text 89 67 <-- click me to play the sequence!;
#X text 251 138 <-- change the modulus;
#X obj 147 294 + 48;
#X obj 270 294 + 55;
#X obj 66 100 metro 200;
#X text 333 201 <-- activate the 2nd voice;
#X obj 147 357 makenote 64 200;
#X obj 270 357 makenote 64 200;
#X obj 318 19 declare -lib pdlua;
#X obj 186 201 tgl 20 1 empty empty empty 17 7 0 10 #dfdfdf #000000 #000000 0 1;
#X obj 66 67 tgl 20 1 empty empty empty 17 7 0 10 #dfdfdf #000000 #000000 0 1;
#X floatatom 210 137 5 0 0 0 - - - 0;
#X msg 179 100 10;
#X msg 210 100 23;
#X msg 241 100 4;
#X msg 272 100 3;
#X connect 0 0 2 0;
#X connect 1 0 13 0;
#X connect 2 0 4 0;
#X connect 2 1 7 0;
#X connect 3 0 17 0;
#X connect 4 0 1 0;
#X connect 5 0 14 0;
#X connect 6 0 18 0;
#X connect 7 0 5 0;
#X connect 8 0 7 1;
#X connect 13 0 3 0;
#X connect 14 0 6 0;
#X connect 15 0 2 0;
#X connect 17 0 9 0;
#X connect 17 1 9 1;
#X connect 18 0 10 0;
#X connect 18 1 10 1;
#X connect 20 0 4 1;
#X connect 21 0 15 0;
#X connect 22 0 2 0;
#X connect 23 0 22 0;
#X connect 24 0 22 0;
#X connect 25 0 22 0;
#X connect 26 0 22 0;
