#N canvas 465 53 460 527 12;
#X declare -path else;
#X obj 149 329 hsl 140 17 500 2000 1 0 empty \$0-freq-set empty 5 9 0 10 #dcdcdc #000000 #000000 0 0;
#X obj 221 359 hsl 128 17 100 1500 1 0 empty \$0-Q-set empty 5 9 0 10 #dcdcdc #000000 #000000 0 0;
#X obj 218 381 nbx 8 14 -1e+37 1e+37 0 0 \$0-Q empty empty 0 -8 0 10 #dcdcdc #000000 #000000 0 256;
#X obj 146 362 nbx 5 14 -1e+37 1e+37 0 0 \$0-freq empty empty 0 -8 0 10 #dcdcdc #000000 #000000 0 256;
#X text 157 329 Resonant Frequency;
#X obj 215 41 declare -path else;
#X obj 106 420 out~;
#X obj 106 387 resonator~, f 12;
#X text 234 359 t60/Resonance;
#X obj 106 288 imp~ 1;
#X text 66 174 We'll get back to this later in this tutorial when we treat filters more in depth and present other such kinds of filters like the comb filter. For now \, check its help file for more details., f 45;
#X text 66 96 The [resonator~] object from ELSE is actually the same as a [resonant~] filter \, but instead of a 'Q' parameter \, we set the resonance as the reverberating time in 't60' \, which is the time in ms it takes to decay 60dB., f 45;
#X connect 0 0 3 0;
#X connect 1 0 2 0;
#X connect 2 0 7 2;
#X connect 3 0 7 1;
#X connect 7 0 6 0;
#X connect 9 0 7 0;
