#N canvas 254 73 853 473 12;
#X declare -path else;
#X obj 727 351 vsl 15 80 0 1 0 0 empty empty empty 0 -9 0 10 -228856
-1 -1 2649 1;
#X obj 531 258 osc~ 440;
#X obj 607 335 *~;
#X obj 52 289 vsl 15 80 0 1 0 0 empty empty empty 0 -9 0 10 -228856
-1 -1 87 1;
#X obj 310 322 vsl 15 80 0 1 0 0 empty empty empty 0 -9 0 10 -228856
-1 -1 87 1;
#X obj 607 375 out~;
#X obj 179 305 vsl 15 80 0 1 0 0 empty empty empty 0 -9 0 10 -228856
-1 -1 87 1;
#X obj 52 227 tabosc4~ \$0-hann;
#X obj 179 243 table~ \$0-hann;
#X obj 179 197 phasor~;
#X obj 179 165 nbx 5 14 -1e+37 1e+37 0 0 empty empty empty 0 -8 0 10
-228856 -1 -1 2 256;
#X obj 310 237 envelope~ hann;
#X obj 625 216 nbx 5 14 -1e+37 1e+37 0 0 empty empty empty 0 -8 0 10
-228856 -1 -1 2 256;
#X obj 625 241 phasor~;
#X obj 340 158 initmess \; \$0-hann cosinesum 1024 0.5 -0.5;
#X obj 466 196 table \$0-hann;
#X obj 625 183 initmess 2;
#X obj 179 132 initmess 2;
#X obj 625 269 function~ 0 0.1 1 0.9 0;
#X text 341 194 generate hann;
#X text 28 25 One thing particularly interesting for envelope tables
is that we can read them in a loop \, sort of like an LFO. For that
\, instead of using something like [envgen~] to read the table \, we
have a [phasor~] object., f 56;
#X text 465 91 For now let's relate this to amplitude modulation and
also see how we can generate rythmic patterns., f 50;
#X text 465 57 This is the basis of granular techniques we'll see in
the vol. 2 of this tutorial., f 50;
#X obj 310 295 s2f~;
#X obj 179 278 s2f~;
#X obj 52 262 s2f~;
#X obj 727 324 s2f~;
#X obj 660 20 declare -path else;
#X connect 1 0 2 0;
#X connect 2 0 5 0;
#X connect 7 0 25 0;
#X connect 8 0 24 0;
#X connect 9 0 8 0;
#X connect 9 0 11 0;
#X connect 10 0 9 0;
#X connect 10 0 7 0;
#X connect 11 0 23 0;
#X connect 12 0 13 0;
#X connect 13 0 18 0;
#X connect 16 0 12 0;
#X connect 17 0 10 0;
#X connect 18 0 2 1;
#X connect 18 0 26 0;
#X connect 23 0 4 0;
#X connect 24 0 6 0;
#X connect 25 0 3 0;
#X connect 26 0 0 0;
