#N canvas 322 32 964 670 12;
#X declare -path else;
#X obj 190 301 + 1;
#X obj 506 254 bng 15 250 50 0 empty empty empty 17 7 0 10 -228856
-1 -1;
#X obj 681 175 cnv 15 198 138 empty empty empty 20 12 0 14 -228856
-66577 0;
#N canvas 91 30 450 300 (subpatch) 0;
#X array sequencer 16 float 2;
#X coords 0 12 16 -12 200 140 1;
#X restore 680 174 graph;
#X obj 144 325 mod 16;
#X floatatom 144 348 5 0 0 0 - - -;
#X text 883 302 -12;
#X text 884 170 12;
#X obj 144 371 tabread sequencer;
#X obj 181 417 nbx 5 14 -1e+37 1e+37 0 0 empty \$0-base empty 0 -8
0 10 -228856 -1 -1 60 256;
#X obj 144 415 +;
#X floatatom 144 392 5 0 0 0 - - -;
#X obj 144 459 mtof;
#X obj 144 510 osc~;
#X obj 173 538 *~;
#X obj 144 484 t f b;
#X floatatom 144 436 5 0 0 0 - - -;
#X obj 709 498 mtof;
#X obj 709 553 osc~;
#X obj 556 537 nbx 5 14 -1e+37 1e+37 0 0 empty \$0-base empty 0 -8
0 10 -228856 -1 -1 60 256;
#X obj 776 498 nbx 5 14 0 200 0 0 empty empty empty 0 -8 0 10 -228856
-1 -1 0 256;
#X text 770 479 portamento;
#X obj 173 569 out~;
#X obj 709 583 out~;
#X obj 506 281 array get sequencer;
#X obj 144 301 float;
#X obj 191 511 decay2~ 50 500;
#X obj 500 161 array set sequencer;
#X obj 709 524 glide~ 100;
#X obj 544 432 tempo 180 -on;
#X text 29 95 The native [tabread] object is used to read values from
the array \, then we sum it to the base value and convert to hz. Note
we're using floats \, not integers \, hence our sequence is out of
the 12 tone equally tempered scale., f 62;
#X obj 144 277 metro 350;
#X text 74 247 Play/Stop;
#X text 67 312 counter =>;
#X text 68 348 0 to 15 =>;
#X text 29 157 We need a metronome and a counter to generate indexes
of our sequence stored in the array. The sequence has 16 elements (so
the indexes need to be from 0 to 15). The native metro object is used
and we also have a counter with the native [mod] object to keep values
in the desired range (0 to 15)., f 62;
#X obj 302 314 tempo 160 -on;
#X floatatom 302 363 5 0 0 0 - - -;
#X obj 302 338 count 15;
#X text 246 267 An alternative with ELSE objects could use [tempo]
and [count], f 19;
#X obj 144 244 tgl 25 0 empty \$0-metro empty 17 7 0 10 -228856 -1
-1 1 1;
#X obj 500 122 initmess -5.14286 -7.88572 -7.2 -2.4 -7.2 1.2 4.8 4.11429
-2.4 -4.28572 -4.28572 -0.685715 2.22857 6.17143 7.3 7.1;
#X text 527 252 get values, f 13;
#X obj 554 505 value i;
#X text 606 506 (index);
#X text 483 371 Now here's an alternative with [expr] \, which can
read values from a table and use variables from a [value] object.;
#X text 240 412 transposition (base value), f 13;
#X obj 60 558 initmess \; \$0-base 60 \; \$0-metro 1;
#X obj 556 562 v base;
#X obj 544 455 expr i = (i + 1) % 16 \; int(sequencer[i] + base);
#X msg 506 327 -5.14286 -7.88572 -7.2 -2.4 -7.2 1.2 4.8 4.11429 -2.4
-4.28572 -4.28572 -0.685715 2.22857 6.17143 7.3 7.1;
#X text 497 45 Find below the array used as a sequencer. It is initiaized
with the native [array set] object. You can also change the values
with your mouse and retrieve the values with [array get].;
#X obj 783 13 declare -path else;
#X obj 506 304 setmess set;
#X text 29 18 Let's implement a sequencer using arrays to store values
\, which could be used to control any parameter in a patch but here
we just control the MIDI pitch of an oscillator. In this example \,
we store values from -12 to 12 and add it to base value (initially
60 \, which is middle C)., f 62;
#X connect 0 0 25 1;
#X connect 1 0 24 0;
#X connect 4 0 5 0;
#X connect 4 0 0 0;
#X connect 5 0 8 0;
#X connect 8 0 11 0;
#X connect 9 0 10 1;
#X connect 10 0 16 0;
#X connect 11 0 10 0;
#X connect 12 0 15 0;
#X connect 13 0 14 0;
#X connect 14 0 22 0;
#X connect 15 0 13 0;
#X connect 15 1 26 0;
#X connect 16 0 12 0;
#X connect 17 0 28 0;
#X connect 18 0 23 0;
#X connect 19 0 48 0;
#X connect 20 0 28 1;
#X connect 24 0 53 0;
#X connect 25 0 4 0;
#X connect 26 0 14 1;
#X connect 28 0 18 0;
#X connect 29 0 49 0;
#X connect 31 0 25 0;
#X connect 36 0 38 0;
#X connect 38 0 37 0;
#X connect 40 0 31 0;
#X connect 41 0 27 0;
#X connect 49 1 17 0;
#X connect 53 0 50 0;
