#N canvas 477 55 426 267 10;
#X declare -lib pdlua;
#X obj 58 171 errors;
#X msg 31 64 moo;
#X msg 100 100 list moo baa;
#X msg 130 132 1;
#X msg 70 67 symbol baa;
#X obj 221 137 declare -lib pdlua;
#X connect 1 0 0 0;
#X connect 2 0 0 2;
#X connect 3 0 0 3;
#X connect 4 0 0 1;
