#N canvas 269 60 847 624 12;
#X declare -path else;
#X obj 156 238 mtof;
#X floatatom 156 262 0 0 0 0 - - - 0;
#X floatatom 188 327 0 0 0 0 - - - 0;
#X obj 188 378 *~ 0.1;
#X obj 156 427 *~ 0.5;
#X obj 124 475 *~ 0.8;
#X text 137 263 Hz;
#X floatatom 99 386 0 0 0 0 - - - 0;
#X floatatom 42 386 0 0 0 0 - - - 0;
#X obj 656 211 mtof;
#X floatatom 656 235 0 0 0 0 - - - 0;
#X text 635 235 Hz;
#X obj 625 445 +~;
#X obj 582 387 *~ 0.6;
#X obj 689 387 *~ 0.5;
#X obj 550 314 / 3.01;
#X obj 657 286 * 2.01;
#X obj 714 278 * 3.01;
#X obj 92 540 out~;
#X obj 124 451 sine~;
#X obj 156 403 sine~;
#X obj 550 411 sine~;
#X obj 607 313 sine~;
#X obj 657 412 sine~;
#X obj 714 310 sine~;
#X obj 625 488 out~;
#X obj 92 501 sine~;
#X obj 656 159 tempo 60 -on;
#X floatatom 297 306 8 0 0 0 - - - 0;
#X obj 392 403 *~ 0.5;
#X text 278 307 Hz;
#X floatatom 297 403 8 0 0 0 - - - 0;
#X obj 297 473 out~;
#X obj 188 352 sine~;
#X obj 156 184 tempo 60 -on;
#X obj 582 363 tri~;
#X obj 689 361 saw~;
#X obj 607 337 *~ 0.3;
#X obj 714 336 *~ 0.4;
#X text 235 378 index;
#X text 203 428 index;
#X text 169 475 index;
#X text 441 403 index;
#X text 760 336 index;
#X text 735 388 index;
#X text 251 209 random values from 35 to 60, f 13;
#X text 36 10 So far we've only seen examples with a pair of oscillators \, but it's common to use more. The classic DX7 synth contains 6 oscillators \, for instance. The more oscillators we have \, the more complex the resulting sound is.;
#X text 508 66 The next example below has 6 oscillators \, where we have two chains in parallel \, each containing 3 oscillators in series. Note we're not only using sine wave oscillators., f 43;
#X obj 156 215 rand.i 35 60;
#X obj 656 185 rand.i 45 60;
#X obj 636 22 declare -path else;
#X obj 392 374 pm~ 0 0.501 0.1;
#X obj 297 370 * 0.499;
#X obj 99 307 * 0.499;
#X obj 99 350 * 1.01;
#X obj 297 437 pm~ 0 1.01 0.8;
#X obj 333 275 bng 19 250 50 0 empty empty empty 0 -10 0 12 #fcfcfc #000000 #000000;
#X obj 241 255 bng 19 250 50 0 empty empty empty 0 -10 0 12 #fcfcfc #000000 #000000;
#X obj 188 301 * 0.501;
#X text 36 75 The example below contains 4 oscillators in series. Note they have slightly inharmonic relationships \, which generates a rather harmonic result but with beatings. The same patch is implemented in two different ways. On the left we have four [sine~] objects and the other contains two [pm~] objects., f 59;
#X connect 0 0 1 0;
#X connect 1 0 20 0;
#X connect 1 0 28 0;
#X connect 1 0 53 0;
#X connect 1 0 58 0;
#X connect 2 0 33 0;
#X connect 3 0 20 2;
#X connect 4 0 19 2;
#X connect 5 0 26 2;
#X connect 7 0 19 0;
#X connect 8 0 26 0;
#X connect 9 0 10 0;
#X connect 10 0 15 0;
#X connect 10 0 16 0;
#X connect 10 0 17 0;
#X connect 10 0 22 0;
#X connect 12 0 25 0;
#X connect 13 0 21 2;
#X connect 14 0 23 2;
#X connect 15 0 21 0;
#X connect 15 0 35 0;
#X connect 16 0 23 0;
#X connect 16 0 36 0;
#X connect 17 0 24 0;
#X connect 19 0 5 0;
#X connect 20 0 4 0;
#X connect 21 0 12 0;
#X connect 22 0 37 0;
#X connect 23 0 12 1;
#X connect 24 0 38 0;
#X connect 26 0 18 0;
#X connect 27 0 49 0;
#X connect 28 0 51 0;
#X connect 28 0 52 0;
#X connect 29 0 55 3;
#X connect 31 0 55 0;
#X connect 33 0 3 0;
#X connect 35 0 13 0;
#X connect 36 0 14 0;
#X connect 37 0 35 2;
#X connect 38 0 36 2;
#X connect 48 0 0 0;
#X connect 49 0 9 0;
#X connect 51 0 29 0;
#X connect 52 0 31 0;
#X connect 53 0 8 0;
#X connect 53 0 54 0;
#X connect 54 0 7 0;
#X connect 55 0 32 0;
#X connect 56 0 28 0;
#X connect 57 0 1 0;
#X connect 58 0 2 0;
