#N canvas 296 95 911 628 12;
#X declare -path else;
#X obj 259 228 *~ 0.5;
#X obj 259 191 +~;
#X obj 259 267 out~;
#X obj 691 25 declare -path else;
#X obj 49 141 sine~ -mc 220 440;
#X obj 49 267 out~;
#X obj 49 212 group~ 1 1;
#X obj 200 135 osc~ 220;
#X obj 277 135 osc~ 440;
#X text 17 32 These objects are for multichannel inputs. The [group~] object takes an argument for number of outputs and a second non zero argument for gain compensation. The two examples below are equivalent., f 55;
#X listbox 181 583 14 0 0 0 - - - 0;
#X msg 199 444 n 3;
#X msg 215 493 n 1;
#X msg 207 468 n 2;
#X obj 115 448 tgl 21 0 empty empty empty 0 -8 0 10 #dfdfdf #000000 #000000 0 1;
#X msg 115 477 gain \$1;
#X obj 181 555 else/s2f~;
#X obj 181 418 sig~ 1 2 3 4 5 6;
#X obj 181 524 group~;
#X text 37 361 You can also set the number of outputs and gain compensation via messages. Check the help file for more details., f 48;
#X obj 603 141 else/multi.vsl 200 127 0 1 8 empty empty empty 247 247 247 220 220 220 0 0 0 0 0 1 holder holder 0 0 0 0.015748 0.023622 0 0 0;
#X obj 511 322 pow~ 4;
#X obj 603 268 knob 25 -1 1 0 0 empty empty #dfdfdf #7c7c7c black 1 0 0 0 1 320 0 0 0 empty empty 0 12 6 -15 0 1 0 0 0 0;
#X obj 628 268 knob 25 -1 1 0 0 empty empty #dfdfdf #7c7c7c black 1 0 0 0 1 320 0 0 0 empty empty 0 12 6 -15 0 1 0 0 0 0;
#X obj 653 268 knob 25 -1 1 0 0 empty empty #dfdfdf #7c7c7c black 1 0 0 0 1 320 0 0 0 empty empty 0 12 6 -15 0 1 0 0 0 0;
#X obj 678 268 knob 25 -1 1 0 0 empty empty #dfdfdf #7c7c7c black 1 0 0 0 1 320 0 0 0 empty empty 0 12 6 -15 0 1 0 0 0 0;
#X obj 703 268 knob 25 -1 1 0 0 empty empty #dfdfdf #7c7c7c black 1 0 0 0 1 320 0 0 0 empty empty 0 12 6 -15 0 1 0 0 0 0;
#X obj 728 268 knob 25 -1 1 0 0 empty empty #dfdfdf #7c7c7c black 1 0 0 0 1 320 0 0 0 empty empty 0 12 6 -15 0 1 0 0 0 0;
#X obj 753 268 knob 25 -1 1 0 0 empty empty #dfdfdf #7c7c7c black 1 0 0 0 1 320 0 0 0 empty empty 0 12 6 -15 0 1 0 0 0 0;
#X obj 778 268 knob 25 -1 1 0 0 empty empty #dfdfdf #7c7c7c black 1 0 0 0 1 320 0 0 0 empty empty 0 12 6 -15 0 1 0 0 0 0;
#X obj 481 440 else/meter2~;
#X obj 603 328 pack2 0 0 0 0 0 0 0 0;
#X obj 603 354 f2s~ 10;
#X obj 511 297 f2s~ 10;
#X obj 481 351 mix~, f 9;
#X obj 578 434 out~;
#X text 447 62 The [mix~] object takes a multichannel input and sums them into a stereo field. The mid inlet controls the gain of each channel. We need to get back to it a bit later when we talk about panning.;
#X obj 481 204 sine~ -mc 300 400 500 600 700 800 900 1000, f 11;
#X connect 0 0 2 0;
#X connect 1 0 0 0;
#X connect 4 0 6 0;
#X connect 6 0 5 0;
#X connect 7 0 1 0;
#X connect 8 0 1 1;
#X connect 11 0 18 0;
#X connect 12 0 18 0;
#X connect 13 0 18 0;
#X connect 14 0 15 0;
#X connect 15 0 18 0;
#X connect 16 0 10 0;
#X connect 17 0 18 0;
#X connect 18 0 16 0;
#X connect 20 0 33 0;
#X connect 21 0 34 1;
#X connect 22 0 31 0;
#X connect 23 0 31 1;
#X connect 24 0 31 2;
#X connect 25 0 31 3;
#X connect 26 0 31 4;
#X connect 27 0 31 5;
#X connect 28 0 31 6;
#X connect 29 0 31 7;
#X connect 31 0 32 0;
#X connect 32 0 34 2;
#X connect 33 0 21 0;
#X connect 34 0 30 0;
#X connect 34 0 35 0;
#X connect 34 1 30 1;
#X connect 34 1 35 1;
#X connect 37 0 34 0;
