#N struct 1333-cell float x float y float cellsize float color;
#N struct 1340-point float x0 float y0 float xs float ys float fg float
in float gridx float gridy;
#N struct 1364-slot float x float y float slotsize float color float
width float bordercolor;
#N struct 1394-point float x0 float y0 float size float fg float in
float grid;
#N canvas 782 59 534 851 10;
#X declare -path else;
#X text 56 79 Assorted:;
#X obj 56 133 table~;
#X obj 56 159 nbang;
#X text 56 285 FFT:;
#X obj 56 309 hann~;
#X obj 56 335 bin.shift~;
#X obj 56 571 args;
#X obj 56 597 blocksize~;
#X obj 56 877 properties;
#X obj 56 956 loadbanger;
#X obj 169 956 lb;
#X obj 54 1638 initmess;
#X obj 54 1027 break;
#X obj 54 1516 any2symbol;
#X obj 54 1564 changed;
#X obj 54 1052 order;
#X obj 54 1590 hot;
#X obj 54 1688 pack2;
#X obj 54 1788 routeall;
#X obj 54 1813 routetype;
#X obj 54 1910 sig2float~;
#X obj 165 1910 s2f~;
#X obj 54 1936 float2sig~;
#X obj 165 1936 f2s~;
#X obj 54 2017 dir;
#X text 54 2069 MIDI:;
#X obj 54 2093 sysrt.in;
#X obj 54 2119 sysrt.out;
#X obj 54 2145 ctl.in;
#X obj 54 2171 ctl.out;
#X obj 54 2197 touch.in;
#X obj 54 2223 touch.out;
#X obj 54 2249 pgm.in;
#X obj 54 2275 pgm.out;
#X obj 54 2301 bend.in;
#X obj 54 2327 bend.out;
#X obj 54 2353 note.in;
#X obj 54 2379 note.out;
#X obj 54 2405 clock;
#X obj 54 2431 panic;
#X obj 54 2457 mono;
#X obj 54 2509 suspedal;
#X text 54 2556 Math functions:;
#X obj 54 2583 add;
#X obj 54 2609 add~;
#X obj 54 2635 median;
#X obj 54 2737 count;
#X obj 54 2763 ceil;
#X obj 54 2788 ceil~;
#X obj 54 2836 floor;
#X obj 54 2862 floor~;
#X obj 54 2888 int~;
#X obj 54 2940 rint~;
#X obj 54 2914 rint;
#X obj 54 2966 quantizer;
#X obj 54 2992 quantizer~;
#X obj 54 3021 fold;
#X obj 54 3047 fold~;
#X obj 54 3073 lastvalue;
#X obj 54 3099 mag;
#X obj 54 3125 mag~;
#X obj 54 3151 sin~;
#X obj 54 3177 wrap2;
#X obj 54 3203 wrap2~;
#X text 54 3277 Math (conversion):;
#X obj 54 3301 hex2dec;
#X obj 54 3353 bpm;
#X obj 54 3327 dec2hex;
#X obj 54 3379 car2pol;
#X obj 54 3405 car2pol~;
#X obj 54 3483 cents2ratio;
#X obj 54 3509 cents2ratio~;
#X obj 54 3587 ms2samps;
#X obj 54 3613 ms2samps~;
#X obj 54 3691 db2lin;
#X obj 54 3717 db2lin~;
#X obj 54 3743 float2bits;
#X obj 54 3769 hz2rad;
#X obj 54 3795 hz2rad~;
#X obj 54 3873 lin2db;
#X obj 54 3899 lin2db~;
#X obj 54 3821 rad2hz;
#X obj 54 3847 rad2hz~;
#X obj 54 3535 ratio2cents;
#X obj 54 3561 ratio2cents~;
#X obj 54 3639 samps2ms;
#X obj 54 3665 samps2ms~;
#X obj 54 3431 pol2car;
#X obj 54 3457 pol2car~;
#X obj 54 3925 rescale;
#X obj 54 3951 rescale~;
#X text 53 4003 Math (connstant values):;
#X obj 54 4031 sr~;
#X obj 54 4057 nyquist~;
#X obj 54 4083 pi;
#X obj 54 4109 e;
#X text 54 4156 Math (random):;
#X obj 54 4334 loop;
#X text 52 4310 Math (logic):;
#X obj 53 4408 downsample~;
#X obj 54 5204 allpass.rev~;
#X obj 54 5230 comb.rev~;
#X obj 54 4512 fbdelay~;
#X obj 54 4538 ffdelay~;
#X obj 54 4564 shaper~;
#X obj 54 4592 crusher~;
#X obj 54 4620 drive~;
#X obj 54 4650 flanger~;
#X obj 48 5095 noisegate~;
#X obj 48 5121 norm~;
#X obj 54 4681 freq.shift~;
#X obj 54 4709 pitch.shift~;
#X obj 54 4738 ping.pong~;
#X obj 54 4794 rm~;
#X obj 54 4824 tremolo~;
#X obj 54 4852 vibrato~;
#X obj 54 4879 vocoder~ 16;
#X obj 54 4907 morph~;
#X obj 54 4933 freeze~;
#X obj 54 4960 pvoc.freeze~;
#X text 53 5438 Audio Processing (filters):;
#X obj 54 5462 allpass.2nd~;
#X obj 54 5518 comb.filt~;
#X obj 54 5544 lop.bw~;
#X obj 54 5570 hip.bw~;
#X obj 54 5596 biquads~;
#X obj 54 5622 bandpass~;
#X obj 54 5649 bandstop~;
#X obj 54 5675 crossover~;
#X obj 54 5701 bpbank~ 16;
#X obj 54 5727 bicoeff;
#X obj 54 5753 brickwall~;
#X obj 54 5779 eq~;
#X obj 54 5805 highpass~;
#X obj 54 5831 highshelf~;
#X obj 54 5860 lowpass~;
#X obj 54 5886 lowshelf~;
#X obj 54 5912 mov.avg~;
#X obj 54 5938 resonbank~ 16;
#X obj 54 5964 resonbank2~ 16;
#X obj 54 5991 resonant~;
#X obj 54 6018 resonant2~;
#X obj 54 6045 svfilter~;
#X text 53 6095 Sampling/Playing/Granulation:;
#X obj 54 6251 pvoc.player~;
#X obj 54 6226 gran.player~;
#X obj 54 6152 player~;
#X obj 54 6352 rec.file~;
#X obj 54 6426 play.file~;
#X text 52 6556 Physical Modelling:;
#X obj 54 6586 pluck~;
#X text 50 6636 Oscillators (Deterministic Generators):;
#X obj 54 6670 cosine~;
#X obj 54 6698 impulse~;
#X obj 156 6696 imp~;
#X obj 54 6726 impulse2~;
#X obj 156 6724 imp2~;
#X obj 54 6752 parabolic~;
#X obj 54 6780 pulse~;
#X obj 54 6808 saw~;
#X obj 54 6837 saw2~;
#X obj 54 6865 oscbank~ 16;
#X obj 54 6893 oscbank2~ 16;
#X obj 54 6921 sine~;
#X obj 54 6949 square~;
#X obj 55 6978 tri~;
#X obj 55 7006 vsaw~;
#X obj 55 7034 pmosc~;
#X obj 55 7062 wavetable~;
#X obj 169 7062 wt~;
#X obj 55 7090 bl.imp~;
#X obj 55 7118 bl.imp2~;
#X obj 55 7146 bl.saw~;
#X obj 55 7174 bl.saw2~;
#X obj 55 7202 bl.sine~;
#X obj 55 7230 bl.square~;
#X obj 55 7258 bl.tri~;
#X obj 55 7286 bl.vsaw~;
#X obj 55 7314 bl.wavetable~;
#X text 50 7364 Chaotic Generators:;
#X obj 55 7396 brown~;
#X obj 55 7426 clipnoise~;
#X obj 55 7455 crackle~;
#X obj 55 7518 cusp~;
#X obj 55 7547 fbsine~;
#X obj 55 7580 fbsine2~;
#X obj 55 7609 gbman~;
#X obj 55 7637 gray~;
#X obj 55 7666 henon~;
#X obj 55 7695 ikeda~;
#X obj 55 7722 latoocarfian~;
#X obj 54 7750 lorenz~;
#X obj 53 7780 lfnoise~;
#X obj 53 7808 lincong~;
#X obj 53 7836 logistic~;
#X obj 52 7864 quad~;
#X obj 52 7892 rampnoise~;
#X obj 52 7920 randpulse~;
#X obj 52 7950 randpulse2~;
#X obj 52 7979 standard~;
#X obj 53 8008 stepnoise~;
#X obj 53 8037 pinknoise~;
#X obj 53 8067 xmod~;
#X text 49 8139 Signal Routing:;
#X obj 53 8168 balance~;
#X obj 53 8196 pan2~;
#X obj 53 8225 pan4~;
#X obj 53 8278 spread~;
#X obj 53 8306 rotate~;
#X obj 53 8335 xfade~;
#X obj 53 8365 xgate~;
#X obj 53 8394 xgate2~;
#X obj 53 8424 xselect~;
#X obj 53 8454 xselect2~;
#X obj 53 8484 mtx~;
#X text 55 8534 Control:;
#X obj 53 8568 adsr~;
#X obj 53 8598 asr~;
#X obj 53 8628 autofade~;
#X obj 53 8658 autofade2~;
#X obj 53 8688 decay~;
#X obj 53 8718 decay2~;
#X obj 53 8748 envelope~;
#X obj 53 8778 envgen~;
#X obj 53 8809 fader~;
#X obj 53 8839 function~;
#X obj 53 8869 glide~;
#X obj 53 8899 glide2~;
#X obj 53 8929 ramp~;
#X obj 53 9015 susloop~;
#X obj 53 9069 sequencer~;
#X obj 53 9045 sequencer;
#X obj 53 9095 impseq~;
#X obj 54 9122 lfo;
#X obj 54 9147 impulse;
#X obj 54 9177 pulse;
#X text 54 9510 Triggers:;
#X obj 54 9595 bangdiv;
#X obj 54 9685 dust~;
#X obj 54 9715 dust2~;
#X obj 54 9745 gatehold~;
#X obj 54 9775 gate2imp~;
#X obj 54 9805 pimp~;
#X obj 54 9835 tempo;
#X obj 54 9865 tempo~;
#X obj 54 9895 pulsecount~;
#X obj 54 9925 pulsediv~;
#X obj 54 9955 sh~;
#X obj 54 9985 schmitt;
#X obj 54 10015 schmitt~;
#X obj 54 10045 status;
#X obj 54 10075 status~;
#X obj 54 10105 trig.delay~;
#X obj 54 10135 trig.delay2~;
#X obj 54 10165 toggleff~;
#X obj 54 10195 timed.gate~;
#X obj 54 10255 match~;
#X obj 54 10285 trig2bang~;
#X obj 54 10338 trighold~;
#X obj 58 10414 changed~;
#X obj 58 10439 changed2~;
#X obj 58 10465 detect~;
#X obj 59 10490 lastvalue;
#X obj 59 10515 median~;
#X obj 59 10592 peak~;
#X obj 59 10617 rms~;
#X obj 59 10643 mov.rms~;
#X obj 59 10669 vu~;
#X obj 59 10695 zerocross~;
#N canvas 755 48 978 936 GUI 0;
#X obj 145 69 mtx.ctl;
#X obj 40 179 biplot;
#X text 40 156 [biplot];
#X text 258 103 [pic] =>;
#X obj 571 99 colors;
#X obj 710 47 function 200 100 empty empty 0 1 220 220 220 50 50 50
0 0 0 0 0 1000 0;
#X text 619 54 [function] =>;
#X obj 74 510 slider2d 127 127 0 127 0 127 1 255 255 255 0 0 0 0 0
0 0 0 empty empty;
#X obj 907 1152 display;
#X obj 908 1184 display~;
#X text 825 1154 [display] =>;
#X text 817 1187 [display~] =>;
#X text 70 486 [slider2d];
#X obj 587 1103 gain~;
#X text 616 1116 <= [gain~];
#X obj 732 1102 gain2~;
#X text 656 1177 [gain2~] =>;
#X obj 47 940 graph~;
#X text 49 916 [graph~];
#X obj 419 697 meter~;
#X obj 492 697 meter2~;
#X obj 61 697 mix2~;
#X obj 165 697 mix4~;
#X text 54 672 [mix2~];
#X text 164 671 [mix4~];
#X obj 570 133 openfile;
#X obj 623 969 setdsp~;
#X text 446 494 [keyboard];
#X obj 832 1099 note 720 20 helvetica empty 0 0 0 0 0 255 255 255 0
0 note;
#X text 829 1084 [note];
#X obj 259 940 spectrograph~;
#X text 261 917 [spectrograph~];
#X obj 754 890 drum.seq;
#X text 750 869 [drumseq];
#X text 777 1046 [button] =>;
#X obj 854 1044 button 20 20 255 255 255 128 128 159;
#X obj 682 632 range.hsl;
#X text 585 632 [range.hsl] =>;
#X obj 575 698 meter4~;
#X obj 692 698 meter8~;
#X text 410 679 [meter~];
#X text 491 679 [meter2~];
#X text 578 679 [meter4~];
#X text 691 679 [meter8~];
#X text 617 950 [setdsp~];
#X obj 280 1140 out4~;
#X obj 390 1140 out8~;
#X obj 37 79 gui;
#X text 142 47 [mtx.ctl];
#X text 265 485 [circle];
#X obj 320 99 pic 0 empty empty empty 0 0;
#X obj 265 508 circle 127 -1 1 -1 1 1 255 255 255 255 255 255 0 0 0
1 0 0 63.5 63.5 empty empty 1;
#X obj 60 1140 out1~;
#X obj 170 1140 out~;
#X obj 762 969 messbox 150 50 235 235 235 0 0 0 0 10;
#X text 757 948 [messbox];
#X obj 399 35 pad 127 127 255 255 255;
#X text 335 51 [pad] =>;
#X obj 447 519 keyboard 17 80 4 3 0 0 empty empty;
#X text 248 1295 oscilloscope~ =>;
#X obj 369 1249 else/oscilloscope~ 200 100 256 3 128 -1 1 0 0 0 0 30
30 30 190 190 190 160 160 160 0 empty;
#X restore 65 10784 pd GUI;
#X text 56 547 Patch/subpatch management:;
#X text 53 1419 Message management:;
#X text 51 1993 File management:;
#X text 60 10755 GUI:;
#X text 22 10818 =============================================================================
, f 77;
#X text 22 10729 =============================================================================
, f 77;
#X text 22 10362 =============================================================================
, f 77;
#X text 22 9491 =============================================================================
, f 77;
#X text 22 8509 =============================================================================
, f 77;
#X text 22 8118 =============================================================================
, f 77;
#X text 22 7339 =============================================================================
, f 77;
#X text 22 6612 =============================================================================
, f 77;
#X text 22 6532 =============================================================================
, f 77;
#X text 22 6070 =============================================================================
, f 77;
#X text 22 5410 =============================================================================
, f 77;
#X text 22 5154 =============================================================================
, f 77;
#X text 22 4364 =============================================================================
, f 77;
#X text 22 4288 =============================================================================
, f 77;
#X text 22 4135 =============================================================================
, f 77;
#X text 31 3982 =============================================================================
, f 77;
#X text 31 3251 =============================================================================
, f 77;
#X text 31 2533 =============================================================================
, f 77;
#X text 31 2049 =============================================================================
, f 77;
#X text 31 1969 =============================================================================
, f 77;
#X text 30 1397 =============================================================================
, f 77;
#X text 30 361 =============================================================================
, f 77;
#X text 30 265 =============================================================================
, f 77;
#X text 29 56 =============================================================================
, f 77;
#X obj 59 10887 cmul~;
#X text 22 10981 =============================================================================
, f 77;
#X text 56 10849 Extra:;
#X obj 54 6128 sample~;
#X obj 54 1491 separate;
#X obj 53 4433 conv~;
#X obj 53 8095 xmod2~;
#X text 51 5178 Audio Processing (reverberation):;
#X obj 54 5387 fdn.rev~;
#X obj 54 5361 free.rev~;
#X obj 54 5310 plate.rev~;
#X obj 54 5334 giga.rev~;
#X obj 54 9535 above;
#X obj 54 9565 above~;
#X obj 54 5258 mono.rev~;
#X obj 54 5282 stereo.rev~;
#X text 19 4989 =============================================================================
, f 77;
#X text 48 5013 Audio Processing (dynamics):;
#X obj 48 5069 duck~;
#X text 51 4384 Audio Processing (assorted):;
#X obj 56 185 meter;
#X text 56 34 ALL OBJECTS IN THE ELSE LIBRARY:;
#X obj 58 10920 output~;
#X obj 48 5041 compress~;
#X obj 54 1762 router;
#X obj 54 1837 selector;
#X obj 54 2662 avg;
#X obj 54 2688 mov.avg;
#X obj 54 1371 unmerge;
#X obj 54 1345 merge;
#X obj 53 4458 chorus~;
#X obj 54 1884 trigger2;
#X obj 166 1884 t2;
#X text 30 981 =============================================================================
, f 77;
#X obj 54 1123 scramble;
#X obj 54 1148 sort;
#X obj 54 1713 pick;
#X obj 54 4765 phaser~;
#X obj 54 5488 allpass.filt~;
#X obj 54 4185 rand.f;
#X obj 54 4211 rand.f~;
#X obj 54 4237 rand.i;
#X obj 54 4263 rand.i~;
#X obj 54 1662 message;
#X obj 54 1861 stack;
#A saved;
#X obj 56 928 receiver;
#X obj 53 1221 reverse;
#X text 54 1003 Message/List management:;
#X obj 53 1246 rotate;
#X obj 54 1171 iterate;
#X obj 53 1270 sum;
#X obj 53 1318 stream;
#X obj 53 1294 slice;
#X obj 53 8958 lag~;
#X obj 53 8984 lag2~;
#X obj 56 211 mouse;
#X obj 54 2812 factor;
#X obj 54 2711 common.div;
#X obj 54 3228 op~;
#X obj 59 10567 range~;
#X text 56 10385 Analysis:;
#X obj 59 10540 range;
#X obj 53 8251 pan8~, f 14;
#X obj 53 9441 lfnoise;
#X obj 53 9415 rampnoise;
#X obj 53 9389 stepnoise;
#X obj 56 755 canvas.name;
#X obj 53 9337 randpulse;
#X obj 53 9363 randpulse2;
#X obj 56 779 canvas.wname;
#X obj 54 10224 timed.gate;
#X obj 54 10311 trig2bang;
#X obj 56 651 canvas.active;
#X obj 54 1614 limit;
#X obj 56 705 canvas.vis;
#X obj 56 729 canvas.edit;
#X obj 56 803 canvas.setname;
#X obj 56 827 canvas.zoom;
#X obj 56 677 canvas.bounds;
#X obj 57 106 else;
#X obj 54 1445 format;
#X obj 56 902 dollsym;
#X obj 56 623 fontsize;
#X obj 54 6377 batch.rec~;
#X obj 54 6177 tabplayer~;
#X obj 55 7485 perlin~;
#X obj 54 6277 pvoc.live~;
#X obj 54 6201 tabwriter~;
#X obj 54 6401 batch.write~;
#X obj 54 1468 unite;
#X obj 54 1540 symbol2any;
#X obj 56 851 click;
#X obj 326 33 declare -path else;
#X obj 54 2483 voices;
#X obj 54 1077 group;
#X obj 54 1100 combine;
#X obj 53 9285 drunkard;
#X obj 53 9311 drunkard~;
#X obj 53 9259 rand.seq;
#X text 24 9202 =============================================================================
, f 77;
#X text 38 9227 Control Random:;
#X obj 53 9467 markov;
#X obj 54 1196 insert;
#X obj 56 236 euclid;
#X obj 54 1738 spread;
#X obj 54 9625 chance;
#X obj 54 9655 chance~;
#X obj 59 382 autotune;
#X obj 59 429 retune;
#X obj 59 452 eqdiv;
#X obj 59 475 frac2ratio;
#X obj 59 497 midi2freq;
#X text 30 523 =============================================================================
, f 77;
#X obj 59 406 autotune2;
#X obj 54 6301 grain.live~;
#X obj 54 6326 grain.sampler~;
#X obj 56 6501 grain.synth~;
#X text 22 6450 =============================================================================
, f 77;
#X text 52 6474 Granular synthesys:;
#X obj 54 4484 else/del~ in \$0;
#X obj 155 4484 else/del~ out \$0;
