#N canvas 548 40 501 784 12;
#X obj 281 506 envelope~;
#X obj 281 471 envgen~;
#X obj 404 414 tgl 15 0 empty empty empty 17 7 0 10 -262144 -1 -1 0
1;
#X obj 404 441 switch~;
#X obj 177 614 *~;
#X obj 209 283 limit;
#X obj 123 33 inlet;
#X obj 177 651 pan2~;
#X obj 177 715 outlet~;
#X obj 209 684 outlet~;
#X obj 209 314 t b f b, f 21;
#X msg 281 444 0 \$1 1;
#N canvas 166 247 842 634 route 0;
#X obj 156 525 s \$0-sizes;
#X obj 114 49 inlet;
#X obj 114 568 outlet;
#X obj 198 461 max 50;
#X obj 283 400 s \$0-pan;
#X obj 326 374 s \$0-amps;
#X obj 368 348 s \$0-set;
#X msg 368 321 set \$1;
#X obj 368 295 symbol;
#X obj 411 264 s \$0-autotune;
#X obj 453 235 s \$0-scale;
#X obj 241 430 s \$0-transp;
#X obj 495 201 s \$0-length;
#X obj 531 169 s \$0-pos;
#X obj 198 488 s \$0-dur;
#X obj 114 100 route bang size dur transp pan amp set autotune scale
length pos float sync, f 76;
#X obj 562 137 s \$0-n;
#X obj 627 131 + 1;
#X obj 627 165 s \$0-mode;
#X connect 1 0 15 0;
#X connect 3 0 14 0;
#X connect 7 0 6 0;
#X connect 8 0 7 0;
#X connect 15 0 2 0;
#X connect 15 1 0 0;
#X connect 15 2 3 0;
#X connect 15 3 11 0;
#X connect 15 4 4 0;
#X connect 15 5 5 0;
#X connect 15 6 8 0;
#X connect 15 7 9 0;
#X connect 15 8 10 0;
#X connect 15 9 12 0;
#X connect 15 10 13 0;
#X connect 15 11 16 0;
#X connect 15 12 17 0;
#X connect 17 0 18 0;
#X restore 123 67 pd route;
#N canvas 410 95 337 239 pan 0;
#X obj 133 46 r \$0-pan;
#X obj 200 119 clip -1 1;
#X obj 114 119 clip -1 1;
#X obj 114 159 outlet;
#X obj 200 159 outlet;
#X obj 133 78 unpack f f;
#X connect 0 0 5 0;
#X connect 1 0 4 0;
#X connect 2 0 3 0;
#X connect 5 0 2 0;
#X connect 5 1 1 0;
#X restore 228 471 pd pan;
#N canvas 410 95 337 239 amps 0;
#X obj 200 119 clip -1 1;
#X obj 114 119 clip -1 1;
#X obj 114 159 outlet;
#X obj 200 159 outlet;
#X obj 133 78 unpack f f;
#X obj 133 46 r \$0-amps;
#X connect 0 0 3 0;
#X connect 1 0 2 0;
#X connect 4 0 1 0;
#X connect 4 1 0 0;
#X connect 5 0 4 0;
#X restore 391 505 pd amps;
#N canvas 664 170 392 285 size 0;
#X text 224 79 grain size;
#X obj 141 76 r \$0-sizes;
#X obj 141 100 unpack;
#X obj 205 137 max 0;
#X obj 126 132 max 0;
#X obj 205 161 outlet;
#X obj 125 161 outlet;
#X connect 1 0 2 0;
#X connect 2 0 4 0;
#X connect 2 1 3 0;
#X connect 3 0 5 0;
#X connect 4 0 6 0;
#X restore 251 218 pd size;
#X obj 209 496 rand.f;
#X obj 356 536 rand.f 0.1 1;
#X obj 209 248 rand.f 50 250;
#X obj 123 99 limit 500;
#X obj 45 33 inlet~;
#X obj 80 540 delread4~ \$2;
#X obj 292 406 s \$0-ms;
#N canvas 320 154 294 419 transp 0;
#X obj 101 65 inlet;
#X obj 101 98 cents2ratio;
#X obj 101 182 *;
#X obj 101 206 t f b;
#X obj 161 195 /;
#X msg 101 129 1 \$1;
#X msg 161 171 1000 \$1;
#X obj 101 153 -;
#X obj 94 288 *~ 0;
#X obj 161 141 r \$0-ms;
#X obj 143 286 r \$0-ms;
#X obj 94 325 outlet~;
#X obj 94 258 phasor~;
#X msg 140 233 0;
#X connect 0 0 1 0;
#X connect 1 0 5 0;
#X connect 2 0 3 0;
#X connect 3 0 12 0;
#X connect 3 1 13 0;
#X connect 4 0 2 1;
#X connect 5 0 7 0;
#X connect 6 0 4 0;
#X connect 7 0 2 0;
#X connect 8 0 11 0;
#X connect 9 0 6 0;
#X connect 10 0 8 1;
#X connect 12 0 8 0;
#X connect 13 0 12 1;
#X restore 48 455 pd transp;
#N canvas 410 95 336 186 transp 0;
#X obj 133 126 outlet;
#X obj 200 126 outlet;
#X obj 133 78 unpack f f;
#X obj 133 46 r \$0-transp;
#X connect 2 0 0 0;
#X connect 2 1 1 0;
#X connect 3 0 2 0;
#X restore 104 307 pd transp;
#N canvas 1051 296 364 294 set 0;
#X obj 95 180 outlet;
#X obj 204 185 outlet;
#X msg 95 138 bypass \$1;
#X obj 203 134 r \$0-scale;
#X obj 95 77 r \$0-autotune;
#X obj 95 108 == 0;
#X connect 2 0 0 0;
#X connect 3 0 1 0;
#X connect 4 0 5 0;
#X connect 5 0 2 0;
#X restore 69 381 pd set;
#X obj 48 412 autotune2 -bypass, f 9;
#X obj 281 538 *~ 0;
#N canvas 303 313 423 436 pos 0;
#X obj 133 335 wrap2~ 0 10000;
#X obj 114 247 +~ 0;
#X obj 133 379 outlet~;
#X obj 113 75 inlet~;
#X obj 168 75 inlet;
#X obj 228 244 r \$0-length;
#X obj 168 207 rand.f 0 1;
#X obj 232 118 r \$0-pos;
#X obj 232 142 unpack;
#X obj 271 171 clip 0 1;
#X obj 201 171 clip 0 1;
#X obj 168 274 * 10000;
#X connect 0 0 2 0;
#X connect 1 0 0 0;
#X connect 3 0 1 0;
#X connect 4 0 6 0;
#X connect 5 0 0 2;
#X connect 5 0 11 1;
#X connect 6 0 11 0;
#X connect 7 0 8 0;
#X connect 8 0 10 0;
#X connect 8 1 9 0;
#X connect 9 0 6 2;
#X connect 10 0 6 1;
#X connect 11 0 1 1;
#X restore 80 500 pd pos;
#X obj 48 350 rand.f -1200 1200;
#X obj 190 71 r \$0-dur;
#X obj 142 131 router 2 1;
#X obj 209 105 r \$0-mode;
#N canvas 530 196 397 395 Synchronous 0;
#X obj 126 37 inlet;
#X obj 126 314 outlet;
#X obj 179 124 r \$0-n;
#X obj 158 186 / 16;
#X obj 161 152 hot;
#X obj 161 96 r \$0-dur;
#X obj 158 220 * \$1;
#X obj 126 255 delay;
#X obj 206 186 initmess 31.25;
#X connect 0 0 7 0;
#X connect 2 0 4 1;
#X connect 3 0 6 0;
#X connect 4 0 3 0;
#X connect 4 1 3 1;
#X connect 5 0 4 0;
#X connect 6 0 7 1;
#X connect 7 0 1 0;
#X connect 8 0 6 0;
#X restore 209 157 pd Synchronous;
#N canvas 612 90 477 370 Asynchronous 0;
#X obj 170 209 pipe;
#X obj 170 241 b;
#X obj 252 134 f \$1;
#X obj 252 158 == 0;
#X obj 252 184 sel 0;
#X obj 252 107 loadbang;
#X obj 186 173 t b b b;
#X obj 217 210 random 500;
#X obj 302 209 r \$0-dur;
#X obj 186 68 inlet;
#X obj 170 293 outlet;
#X connect 0 0 1 0;
#X connect 1 0 10 0;
#X connect 2 0 3 0;
#X connect 3 0 4 0;
#X connect 4 1 7 1;
#X connect 5 0 2 0;
#X connect 6 0 0 0;
#X connect 6 1 7 0;
#X connect 6 2 2 0;
#X connect 7 0 0 1;
#X connect 8 0 7 1;
#X connect 9 0 6 0;
#X restore 193 185 pd Asynchronous;
#X connect 0 0 27 0;
#X connect 1 0 0 0;
#X connect 1 1 2 0;
#X connect 2 0 3 0;
#X connect 4 0 7 0;
#X connect 5 0 10 0;
#X connect 6 0 12 0;
#X connect 7 0 8 0;
#X connect 7 1 9 0;
#X connect 10 0 16 0;
#X connect 10 0 28 1;
#X connect 10 0 29 0;
#X connect 10 1 5 1;
#X connect 10 1 11 0;
#X connect 10 1 22 0;
#X connect 10 2 17 0;
#X connect 11 0 1 0;
#X connect 12 0 19 0;
#X connect 13 0 16 1;
#X connect 13 1 16 2;
#X connect 14 0 17 1;
#X connect 14 1 17 2;
#X connect 15 0 18 1;
#X connect 15 1 18 2;
#X connect 16 0 7 1;
#X connect 17 0 27 1;
#X connect 18 0 5 0;
#X connect 19 0 31 0;
#X connect 21 0 4 0;
#X connect 23 0 28 0;
#X connect 24 0 29 1;
#X connect 24 1 29 2;
#X connect 25 0 26 0;
#X connect 25 1 26 1;
#X connect 26 0 23 0;
#X connect 27 0 4 1;
#X connect 28 0 21 0;
#X connect 29 0 26 0;
#X connect 30 0 19 1;
#X connect 31 0 34 0;
#X connect 31 1 33 0;
#X connect 32 0 31 1;
#X connect 33 0 18 0;
#X connect 34 0 18 0;
