#N canvas 776 103 511 822 12;
#X obj 271 556 envelope~;
#X obj 271 521 envgen~;
#X obj 394 464 tgl 15 0 empty empty empty 17 7 0 10 -262144 -1 -1 0
1;
#X obj 394 491 switch~;
#X obj 167 664 *~;
#X obj 199 235 pipe;
#X obj 199 333 limit;
#X obj 215 33 inlet;
#X obj 167 701 pan2~;
#X obj 167 765 outlet~;
#X obj 199 734 outlet~;
#X obj 199 364 t b f b, f 21;
#X obj 199 267 b;
#X msg 271 494 0 \$1 1;
#X obj 281 160 f \$1;
#X obj 281 184 == 0;
#X obj 281 210 sel 0;
#X obj 281 133 loadbang;
#X obj 215 199 t b b b;
#X obj 387 124 r \$0-event;
#N canvas 771 180 645 614 route 0;
#X obj 156 485 s \$0-sizes;
#X obj 198 448 s \$0-event;
#X obj 114 49 inlet;
#X obj 114 528 outlet;
#X obj 198 421 max 50;
#X obj 283 360 s \$0-pan;
#X obj 326 334 s \$0-amps;
#X obj 368 308 s \$0-set;
#X msg 368 281 set \$1;
#X obj 368 255 symbol;
#X obj 411 224 s \$0-autotune;
#X obj 453 195 s \$0-scale;
#X obj 241 390 s \$0-transp;
#X obj 495 161 s \$0-length;
#X obj 114 100 route bang size event transp pan amp set autotune scale
length pos, f 66;
#X obj 531 129 s \$0-pos;
#X connect 2 0 14 0;
#X connect 4 0 1 0;
#X connect 8 0 7 0;
#X connect 9 0 8 0;
#X connect 14 0 3 0;
#X connect 14 1 0 0;
#X connect 14 2 4 0;
#X connect 14 3 12 0;
#X connect 14 4 5 0;
#X connect 14 5 6 0;
#X connect 14 6 9 0;
#X connect 14 7 10 0;
#X connect 14 8 11 0;
#X connect 14 9 13 0;
#X connect 14 10 15 0;
#X restore 215 67 pd route;
#N canvas 410 95 337 239 pan 0;
#X obj 133 46 r \$0-pan;
#X obj 200 119 clip -1 1;
#X obj 114 119 clip -1 1;
#X obj 114 159 outlet;
#X obj 200 159 outlet;
#X obj 133 78 unpack f f;
#X connect 0 0 5 0;
#X connect 1 0 4 0;
#X connect 2 0 3 0;
#X connect 5 0 2 0;
#X connect 5 1 1 0;
#X restore 218 521 pd pan;
#N canvas 410 95 337 239 amps 0;
#X obj 200 119 clip -1 1;
#X obj 114 119 clip -1 1;
#X obj 114 159 outlet;
#X obj 200 159 outlet;
#X obj 133 78 unpack f f;
#X obj 133 46 r \$0-amps;
#X connect 0 0 3 0;
#X connect 1 0 2 0;
#X connect 4 0 1 0;
#X connect 4 1 0 0;
#X connect 5 0 4 0;
#X restore 381 555 pd amps;
#N canvas 664 170 392 285 size 0;
#X text 224 79 grain size;
#X obj 141 76 r \$0-sizes;
#X obj 141 100 unpack;
#X obj 205 137 max 0;
#X obj 126 132 max 0;
#X obj 205 161 outlet;
#X obj 125 161 outlet;
#X connect 1 0 2 0;
#X connect 2 0 4 0;
#X connect 2 1 3 0;
#X connect 3 0 5 0;
#X connect 4 0 6 0;
#X restore 241 268 pd size;
#X obj 199 546 rand.f;
#X obj 346 586 rand.f 0.1 1;
#X obj 199 298 rand.f 50 250;
#X obj 246 236 random 500;
#X obj 215 99 limit 500;
#X obj 67 33 inlet~;
#X obj 70 590 delread4~ \$2;
#X obj 282 456 s \$0-ms;
#N canvas 320 154 294 419 transp 0;
#X obj 101 65 inlet;
#X obj 101 98 cents2ratio;
#X obj 101 182 *;
#X obj 101 206 t f b;
#X obj 161 195 /;
#X msg 101 129 1 \$1;
#X msg 161 171 1000 \$1;
#X obj 101 153 -;
#X obj 94 288 *~ 0;
#X obj 161 141 r \$0-ms;
#X obj 143 286 r \$0-ms;
#X obj 94 325 outlet~;
#X obj 94 258 phasor~;
#X msg 140 233 0;
#X connect 0 0 1 0;
#X connect 1 0 5 0;
#X connect 2 0 3 0;
#X connect 3 0 12 0;
#X connect 3 1 13 0;
#X connect 4 0 2 1;
#X connect 5 0 7 0;
#X connect 6 0 4 0;
#X connect 7 0 2 0;
#X connect 8 0 11 0;
#X connect 9 0 6 0;
#X connect 10 0 8 1;
#X connect 12 0 8 0;
#X connect 13 0 12 1;
#X restore 38 505 pd transp;
#X obj 38 400 rand.i -1200 1200;
#N canvas 410 95 336 186 transp 0;
#X obj 133 126 outlet;
#X obj 200 126 outlet;
#X obj 133 78 unpack f f;
#X obj 133 46 r \$0-transp;
#X connect 2 0 0 0;
#X connect 2 1 1 0;
#X connect 3 0 2 0;
#X restore 94 357 pd transp;
#N canvas 1051 296 364 294 set 0;
#X obj 95 180 outlet;
#X obj 204 185 outlet;
#X msg 95 138 bypass \$1;
#X obj 203 134 r \$0-scale;
#X obj 95 77 r \$0-autotune;
#X obj 95 108 == 0;
#X connect 2 0 0 0;
#X connect 3 0 1 0;
#X connect 4 0 5 0;
#X connect 5 0 2 0;
#X restore 59 431 pd set;
#X obj 38 462 autotune2 -bypass, f 9;
#X obj 271 588 *~ 0;
#N canvas 303 313 423 436 pos 1;
#X obj 133 335 wrap2~ 0 10000;
#X obj 114 247 +~ 0;
#X obj 133 379 outlet~;
#X obj 116 75 inlet~;
#X obj 188 75 inlet;
#X obj 228 244 r \$0-length;
#X obj 188 275 *;
#X obj 188 207 rand.f 0 1;
#X obj 252 118 r \$0-pos;
#X obj 252 142 unpack;
#X obj 291 171 clip 0 1;
#X obj 221 171 clip 0 1;
#X connect 0 0 2 0;
#X connect 1 0 0 0;
#X connect 3 0 1 0;
#X connect 4 0 7 0;
#X connect 5 0 0 2;
#X connect 5 0 6 1;
#X connect 6 0 1 1;
#X connect 7 0 6 0;
#X connect 8 0 9 0;
#X connect 9 0 11 0;
#X connect 9 1 10 0;
#X connect 10 0 7 2;
#X connect 11 0 7 1;
#X restore 70 550 pd pos;
#X connect 0 0 37 0;
#X connect 1 0 0 0;
#X connect 1 1 2 0;
#X connect 2 0 3 0;
#X connect 4 0 8 0;
#X connect 5 0 12 0;
#X connect 6 0 11 0;
#X connect 7 0 20 0;
#X connect 8 0 9 0;
#X connect 8 1 10 0;
#X connect 11 0 24 0;
#X connect 11 0 33 0;
#X connect 11 0 38 1;
#X connect 11 1 6 1;
#X connect 11 1 13 0;
#X connect 11 1 31 0;
#X connect 11 2 25 0;
#X connect 12 0 26 0;
#X connect 13 0 1 0;
#X connect 14 0 15 0;
#X connect 15 0 16 0;
#X connect 16 1 27 1;
#X connect 17 0 14 0;
#X connect 18 0 5 0;
#X connect 18 1 27 0;
#X connect 18 2 14 0;
#X connect 19 0 28 1;
#X connect 19 0 27 1;
#X connect 20 0 28 0;
#X connect 21 0 24 1;
#X connect 21 1 24 2;
#X connect 22 0 25 1;
#X connect 22 1 25 2;
#X connect 23 0 26 1;
#X connect 23 1 26 2;
#X connect 24 0 8 1;
#X connect 25 0 37 1;
#X connect 26 0 6 0;
#X connect 27 0 5 1;
#X connect 28 0 18 0;
#X connect 30 0 4 0;
#X connect 32 0 38 0;
#X connect 33 0 36 0;
#X connect 34 0 33 1;
#X connect 34 1 33 2;
#X connect 35 0 36 0;
#X connect 35 1 36 1;
#X connect 36 0 32 0;
#X connect 37 0 4 1;
#X connect 38 0 30 0;
