#N canvas 273 38 963 746 12;
#X obj 105 44 keyboard 17 80 5 2 0 0 empty empty;
#X obj 365 571 *~;
#X obj 365 600 sum~;
#X obj 365 662 out~;
#X obj 207 296 *~;
#X obj 136 296 *~;
#X obj 136 223 +~ 12.01;
#X obj 225 272 r~ \$0-env;
#X obj 302 217 +~ 7.01;
#X obj 207 219 +~ 7.02;
#X obj 365 631 plate.rev~;
#X msg 426 605 wet \$1;
#X obj 429 577 hsl 162 19 0 1 0 0 empty empty empty -2 -10 0 12 #dfdfdf #000000 #000000 0 1;
#X obj 136 249 sine~ -midi, f 5;
#X obj 207 247 sine~ -midi;
#X obj 302 242 imp~ -midi;
#X obj 383 313 adsr.m~;
#A saved 10 20 0.5 50 0 0 0 0 0;
#A saved;
#A saved;
#A saved;
#A saved;
#A saved;
#A saved;
#A saved;
#A saved;
#X obj 655 295 adsr.m~;
#A saved 10 20 0.5 50 0 0 0 0 0;
#A saved;
#A saved;
#A saved;
#A saved;
#A saved;
#A saved;
#A saved;
#A saved;
#X obj 655 539 send2~ \$0-env;
#X obj 105 152 mono~ 25, f 80;
#X obj 109 326 vco.m~;
#A saved 0 0 0 0 0.375 0 0 0;
#A saved;
#A saved;
#A saved;
#A saved;
#A saved;
#X obj 266 661 nop~;
#X obj 105 13 note.in;
#X connect 0 0 19 0;
#X connect 1 0 2 0;
#X connect 2 0 10 0;
#X connect 4 0 20 2;
#X connect 5 0 20 1;
#X connect 6 0 13 0;
#X connect 7 0 4 1;
#X connect 7 0 5 1;
#X connect 8 0 15 0;
#X connect 9 0 14 0;
#X connect 10 0 3 0;
#X connect 10 1 3 1;
#X connect 11 0 10 0;
#X connect 12 0 11 0;
#X connect 13 0 5 0;
#X connect 14 0 4 0;
#X connect 15 0 20 3;
#X connect 16 0 1 1;
#X connect 17 0 18 0;
#X connect 19 0 6 0;
#X connect 19 0 9 0;
#X connect 19 0 8 0;
#X connect 19 0 20 0;
#X connect 19 1 16 0;
#X connect 19 1 17 0;
#X connect 19 2 17 1;
#X connect 19 2 16 1;
#X connect 20 0 21 0;
#X connect 21 0 1 0;
#X connect 22 0 0 0;
