#N canvas 521 109 685 627 10;
#X obj 37 203 print~;
#X obj 47 123 bng 15 250 50 0 empty empty empty 17 7 0 10 -262144 -1
-1;
#X msg 12 233 \; pd dsp 1;
#X obj 100 227 scope~ 130 130 2 3 128 -1 1 0 0 0 0 205 229 232 74 79
77 96 98 102 0;
#X obj 377 324 vu 15 120 empty empty -1 -8 0 10 -66577 -1 1 0;
#X floatatom 110 203 5 0 0 0 - - -, f 5;
#X obj 369 95 average~;
#X obj 39 436 vu 15 120 empty empty -1 -8 0 10 -66577 -1 1 0;
#X obj 57 407 - 100;
#X floatatom 112 445 0 0 0 0 - - -;
#X obj 112 483 dbtoa;
#X floatatom 112 521 0 0 0 0 - - -;
#X msg 488 161 1024;
#X floatatom 471 266 5 0 0 0 - - -, f 5;
#X obj 471 237 !/;
#X obj 514 238 sr~;
#X floatatom 495 184 5 0 0 0 - - -, f 5;
#X obj 159 557 f;
#X floatatom 194 557 0 0 0 0 - - -;
#X obj 170 594 f;
#X floatatom 201 596 0 0 0 0 - - -;
#X floatatom 407 206 5 0 0 0 - - -, f 5;
#X floatatom 429 185 0 0 0 0 - - -;
#X obj 413 135 bng 15 250 50 0 empty empty empty 17 7 0 10 -262144
-1 -1;
#X obj 436 58 average~;
#X obj 121 559 max 0;
#X obj 113 593 min 1000;
#X obj 391 516 loadbang;
#X msg 342 536 open;
#X obj 181 105 *~;
#X obj 391 568 cyclone/buffer~ window_\$0 @samps 1024;
#X obj 519 98 block~ 1024;
#X obj 171 35 bng 15 250 50 0 empty empty empty 17 7 0 10 -262144 -1
-1;
#X obj 206 43 tabreceive~ window_\$0;
#X obj 56 382 env~ 1024 1024;
#X obj 218 417 -;
#X floatatom 219 442 5 0 0 0 - - -, f 5;
#X obj 465 342 atodb;
#X msg 459 305 0.4;
#X floatatom 466 374 0 0 0 0 - - -;
#X msg 544 315 0.4;
#X floatatom 551 401 0 0 0 0 - - -;
#X obj 550 352 rmstodb;
#X obj 549 376 - 100;
#X obj 217 469 dbtoa;
#X floatatom 228 505 0 0 0 0 - - -;
#X obj 261 541 expr 1 / $f1;
#X floatatom 266 572 0 0 0 0 - - -;
#X obj 94 83 osc~ 440;
#X obj 387 163 minmax~;
#X msg 391 544 fill 2 \, apply hanning;
#X obj 484 463 sampstoms~;
#X msg 484 436 1024;
#X floatatom 523 489 0 0 0 0 - - -;
#X obj 101 138 average~ 1024 rms;
#X obj 258 201 atodb~;
#X obj 271 251 number~;
#X connect 1 0 0 0;
#X connect 1 0 2 0;
#X connect 5 0 3 0;
#X connect 8 0 7 1;
#X connect 8 0 9 0;
#X connect 8 0 35 0;
#X connect 9 0 10 0;
#X connect 10 0 11 0;
#X connect 11 0 25 0;
#X connect 11 0 26 0;
#X connect 12 0 14 0;
#X connect 14 0 13 0;
#X connect 15 0 14 1;
#X connect 16 0 14 0;
#X connect 17 0 18 0;
#X connect 17 0 25 1;
#X connect 19 0 20 0;
#X connect 19 0 26 1;
#X connect 23 0 49 0;
#X connect 25 0 17 0;
#X connect 26 0 19 0;
#X connect 27 0 50 0;
#X connect 28 0 30 0;
#X connect 29 0 54 0;
#X connect 33 0 29 1;
#X connect 34 0 8 0;
#X connect 35 0 36 0;
#X connect 36 0 44 0;
#X connect 37 0 39 0;
#X connect 38 0 37 0;
#X connect 40 0 42 0;
#X connect 42 0 43 0;
#X connect 43 0 41 0;
#X connect 44 0 45 0;
#X connect 45 0 46 0;
#X connect 46 0 47 0;
#X connect 48 0 29 0;
#X connect 48 0 34 0;
#X connect 49 2 21 0;
#X connect 49 3 22 0;
#X connect 50 0 30 0;
#X connect 51 1 53 0;
#X connect 52 0 51 0;
#X connect 54 0 0 0;
#X connect 54 0 3 0;
#X connect 54 0 49 0;
#X connect 54 0 55 0;
#X connect 55 0 56 0;
