#N canvas 792 147 504 433 12;
#X declare -path else;
#X obj 72 338 out~;
#X obj 258 33 declare -path else;
#X obj 55 218 bng 18 250 50 0 empty empty empty 17 7 0 10 -228856 -1
-1;
#X obj 55 185 metro 1000;
#X obj 55 152 tgl 17 0 empty empty empty 17 7 0 10 -228856 -1 -1 0
1;
#X obj 295 346 grain.sampler~;
#X obj 187 215 else/sample~ \$0-sample violin.wav, f 35;
#X text 245 281 This example is the basis of the [grain.sampler~] object
from ELSE \, check its help file., f 31;
#X text 120 78 Here we adapt the last example to play grains from a
sample buffer. We now have a speed parameter that also affects the
pitch. For more details open the [clone] object to see how it works.
, f 43;
#X obj 55 282 clone grain.sampler 50 \$0-sample, f 19;
#X msg 55 247 all bang;
#X connect 2 0 10 0;
#X connect 3 0 2 0;
#X connect 4 0 3 0;
#X connect 9 0 0 0;
#X connect 9 1 0 1;
#X connect 10 0 9 0;
