#N canvas 603 126 772 629 12;
#X obj 249 359 envelope~;
#X obj 249 327 envgen~;
#X obj 353 313 tgl 15 0 empty empty empty 17 7 0 10 -262144 -1 -1 0
1;
#X obj 353 340 switch~;
#X obj 91 470 *~;
#X obj 49 387 mtof;
#X obj 239 151 random 1000;
#X obj 191 150 pipe;
#X obj 191 239 limit;
#X obj 207 47 inlet;
#X obj 91 507 pan2~, f 10;
#X obj 91 561 outlet~;
#X obj 158 561 outlet~;
#X obj 191 270 t b f b, f 17;
#X obj 191 176 b;
#X msg 249 300 0 \$1 1;
#X obj 207 88 limit 1000 1;
#X obj 340 389 rand.f 0.1 1;
#X obj 157 351 rand.f -1 1;
#X obj 49 351 rand.f 30 90;
#X obj 191 208 rand.f 50 500;
#X obj 207 123 t b b;
#X obj 49 418 wavetable~ \$2;
#X obj 249 391 *~ 0;
#X text 366 71 The [limit] object is first used to ignore triggers
received within the cloud event period (1 second). Then \, the trigger
is delayed a random time for each grain., f 51;
#X text 92 210 grain size =>;
#X text 366 138 The first randm parameter is the grain size in ms.
This also goes through a second [limit] object \, which now waits until
the grain period is over before sending the last message received in
this period. This is not really useful here \, because of the fixed
prameters we're using \, but it's needed in the abstraction version
provided in ELSE., f 51;
#X text 407 245 The gran size is sent to an [envgen~] \, which generates
the phase of the envelope generated by [envelope~] \, whose right inlet
reports its status and turns this subwindow on and off (this saved
CPU power when off)., f 45;
#X text 470 338 The rest of the parameters are also randomized. These
are: amplitude \, pan and pitch., f 36;
#X text 285 494 This patch is used inside [clone] in one of the examples.
;
#X connect 0 0 23 0;
#X connect 1 0 0 0;
#X connect 1 1 2 0;
#X connect 2 0 3 0;
#X connect 4 0 10 0;
#X connect 5 0 22 0;
#X connect 6 0 7 1;
#X connect 7 0 14 0;
#X connect 8 0 13 0;
#X connect 9 0 16 0;
#X connect 10 0 11 0;
#X connect 10 1 12 0;
#X connect 13 0 18 0;
#X connect 13 0 19 0;
#X connect 13 1 8 1;
#X connect 13 1 15 0;
#X connect 13 2 17 0;
#X connect 14 0 20 0;
#X connect 15 0 1 0;
#X connect 16 0 21 0;
#X connect 17 0 23 1;
#X connect 18 0 10 1;
#X connect 19 0 5 0;
#X connect 20 0 8 0;
#X connect 21 0 7 0;
#X connect 21 1 6 0;
#X connect 22 0 4 0;
#X connect 23 0 4 1;
