#N canvas 314 23 846 688 12;
#X declare -lib else;
#X obj 446 246 *~;
#X obj 387 163 osc~ 440;
#X obj 446 299 out~;
#X obj 464 199 glide~ 1000;
#X obj 263 228 setdsp~ 1;
#X obj 391 280 vsl 15 90 0 1 0 0 empty empty empty 0 -9 0 10 -228856
-1 -1 541 1;
#X obj 464 135 pulse~ 0.5;
#X obj 464 163 display~;
#X obj 661 246 *~;
#X obj 605 160 osc~ 440;
#X obj 661 296 out~;
#X obj 599 281 vsl 15 90 0 1 0 0 empty empty empty 0 -9 0 10 -228856
-1 -1 541 1;
#X obj 679 132 pulse~ 0.5;
#X obj 679 160 display~;
#X obj 391 246 s2f~;
#X obj 630 16 declare -lib else;
#X obj 679 196 glide2~ 1000 500;
#X obj 467 534 *~;
#X obj 408 448 osc~ 440;
#X obj 467 584 out~;
#X obj 414 562 vsl 15 90 0 1 0 0 empty empty empty 0 -9 0 10 -228856
-1 -1 3058 1;
#X obj 485 420 pulse~ 0.5;
#X obj 485 448 display~;
#X obj 652 531 *~;
#X obj 596 445 osc~ 440;
#X obj 652 581 out~;
#X obj 600 552 vsl 15 90 0 1 0 0 empty empty empty 0 -9 0 10 -228856
-1 -1 3052 1;
#X obj 670 417 pulse~ 0.5;
#X obj 670 445 display~;
#X obj 414 536 s2f~;
#X obj 96 171 slop~ 1e+09 0 0 0 0;
#X obj 58 109 display~;
#X obj 96 256 out~;
#X obj 45 250 vsl 15 90 0 1 0 0 empty empty empty 0 -9 0 10 -228856
-1 -1 541 1;
#X obj 45 224 s2f~;
#X obj 94 484 slop~ 1e+09 0 0 0 0;
#X obj 74 431 display~;
#X obj 45 558 vsl 15 90 0 1 0 0 empty empty empty 0 -9 0 10 -228856
-1 -1 4755 1;
#X obj 45 532 s2f~;
#X obj 94 566 out~;
#X obj 172 435 expr 1000./$f1 \; 1000./$f1;
#X obj 58 58 pulse~ 0.5;
#X obj 148 108 expr 1./($f1*$f3) \; 1./($f2*$f3);
#X obj 271 80 sr~ -khz;
#X obj 148 46 initmess 500 1000;
#X obj 172 384 initmess 500 1000;
#X obj 74 396 pulse~ 0.5;
#X obj 485 484 lag~ 1000;
#X obj 670 481 lag2~ 1000 500;
#X text 387 53 This examples notes that other objects we've already
seen can be used to generate fade ins/outs. These are: [slop~] \, [glide~]/[glide2~]
and [lag~]/[lag2~]., f 54;
#X obj 600 526 s2f~;
#X obj 599 246 s2f~;
#X connect 0 0 2 0;
#X connect 1 0 0 0;
#X connect 3 0 0 1;
#X connect 3 0 14 0;
#X connect 6 0 7 0;
#X connect 7 0 3 0;
#X connect 8 0 10 0;
#X connect 9 0 8 0;
#X connect 12 0 13 0;
#X connect 13 0 16 0;
#X connect 14 0 5 0;
#X connect 16 0 8 1;
#X connect 16 0 51 0;
#X connect 17 0 19 0;
#X connect 18 0 17 0;
#X connect 21 0 22 0;
#X connect 22 0 47 0;
#X connect 23 0 25 0;
#X connect 24 0 23 0;
#X connect 27 0 28 0;
#X connect 28 0 48 0;
#X connect 29 0 20 0;
#X connect 30 0 34 0;
#X connect 30 0 32 0;
#X connect 31 0 30 0;
#X connect 34 0 33 0;
#X connect 35 0 38 0;
#X connect 35 0 39 0;
#X connect 36 0 35 0;
#X connect 38 0 37 0;
#X connect 40 0 35 3;
#X connect 40 1 35 5;
#X connect 41 0 31 0;
#X connect 42 0 30 2;
#X connect 42 1 30 4;
#X connect 43 0 42 2;
#X connect 44 0 42 0;
#X connect 45 0 40 0;
#X connect 46 0 36 0;
#X connect 47 0 17 1;
#X connect 47 0 29 0;
#X connect 48 0 23 1;
#X connect 48 0 50 0;
#X connect 50 0 26 0;
#X connect 51 0 11 0;
