#N canvas 316 288 1118 555 12;
#X declare -path else;
#N canvas 232 59 415 307 plot 0;
#X obj 56 28 inlet~;
#X obj 56 66 rfft~;
#X obj 145 123 metro 100;
#X obj 145 100 tgl 15 0 empty empty empty 17 7 0 10 -262144 -1 -1 1
1;
#X obj 262 113 block~ 4096;
#X obj 145 72 loadbang;
#X obj 56 125 /~ 1024;
#X obj 56 152 rmstodb~;
#X obj 56 189 clip~ 40 100;
#X obj 55 231 tabwrite~ \$0-fft-band-limited;
#X obj 56 95 mag~;
#X connect 0 0 1 0;
#X connect 1 0 10 0;
#X connect 1 1 10 1;
#X connect 2 0 9 0;
#X connect 3 0 2 0;
#X connect 5 0 3 0;
#X connect 6 0 7 0;
#X connect 7 0 8 0;
#X connect 8 0 9 0;
#X connect 10 0 6 0;
#X restore 336 106 pd plot;
#X obj 173 25 nbx 5 20 -1e+37 1e+37 0 0 empty \$0-Hz empty 0 -8 0 15
-228856 -1 -1 2000 256;
#X obj 173 128 out~;
#X obj 316 135 out~;
#X obj 173 68 saw~;
#X text 503 510 Nyquist;
#X text 29 512 0 Hz;
#X text 1043 510 Nyquist;
#X text 569 512 0 Hz;
#X obj 32 388 cnv 15 510 118 empty empty empty 20 12 0 14 -228856 -66577
0;
#X obj 572 388 cnv 15 510 118 empty empty empty 20 12 0 14 -228856
-66577 0;
#N canvas 0 22 450 300 (subpatch) 0;
#X array \$0-fft-non-limited 2048 float 0;
#X coords 0 100 2047 40 512 120 1 0 0;
#X restore 31 387 graph;
#N canvas 0 22 450 300 (subpatch) 0;
#X array \$0-fft-band-limited 2048 float 0;
#X coords 0 100 2047 40 512 120 1 0 0;
#X restore 571 387 graph;
#N canvas 232 59 446 351 plot 0;
#X obj 102 53 inlet~;
#X obj 102 88 rfft~;
#X obj 163 176 metro 100;
#X obj 163 153 tgl 15 0 empty empty empty 17 7 0 10 -262144 -1 -1 1
1;
#X obj 308 145 block~ 4096;
#X obj 163 125 loadbang;
#X obj 102 187 /~ 1024;
#X obj 102 214 rmstodb~;
#X obj 102 241 clip~ 40 100;
#X obj 162 277 tabwrite~ \$0-fft-non-limited;
#X obj 310 86 initmess \; \$0-Hz 2000;
#X obj 102 157 mag~;
#X connect 0 0 1 0;
#X connect 1 0 11 0;
#X connect 1 1 11 1;
#X connect 2 0 9 0;
#X connect 3 0 2 0;
#X connect 5 0 3 0;
#X connect 6 0 7 0;
#X connect 7 0 8 0;
#X connect 8 0 9 0;
#X connect 11 0 6 0;
#X restore 185 100 pd plot;
#X obj 300 200 graph~;
#X obj 65 200 graph~;
#N canvas 756 56 532 501 bl.saw~ 0;
#X obj 45 437 outlet~;
#X obj 85 76 cnv 15 280 40 empty empty empty 20 12 0 14 -233017 -66577
0;
#X obj 241 86 block~ 64 1 16;
#X obj 45 24 inlet~ lin;
#X obj 45 208 brickwall~;
#X obj 45 140 saw~;
#X text 79 140 <= Sawtooth;
#X text 109 86 16x Oversampling;
#X text 125 208 <= Anti-Aliasing Filter (Lowpass) *;
#X text 130 229 (cuttof frequency = 3/4 * Nyquist);
#X text 69 267 * This object implements a 10th order lowpass butterworth
filter \, which will be presented in depth only in the vol. 2 of this
tutorial.;
#X text 69 315 What we need to know now is that the order of a filter
determines the amplitude decay over the cutoff frequency and each order
is responsible for 6dB loss per octave (hence \, a 10th order filter
has a 60dB decay per octave \, which is quite steep)., f 59;
#X connect 3 0 5 0;
#X connect 4 0 0 0;
#X connect 5 0 4 0;
#X restore 300 75 pd bl.saw~;
#X text 548 101 A Band Limited oscillator has only frequency components
up to the nyquist \, which means that its frequency band is limited
to the range from 0 to Nyquist. There are many techniques for implementing
digital band limited oscillators. This examples shows the oversampling
+ filtering technique., f 74;
#X text 548 296 This is where using higher original rates than the
usual 44.1 Khz can be quite useful \, for it gives us even more room
to filter and prevent aliasing., f 74;
#X text 548 231 This needs to be done in a subpatch with [block~].
So check [pd bl.saw~] for more details! Thren compare to the left and
below the difference between the aliased and anti aliased outputs.
Check also the spectrographs below., f 74;
#X text 548 164 The oversampling increases the sample rate gives us
a much higher Nyquist frequency to deal with. Then we filter frequencies
over the original nyquist to remove them and prevent them from being
aliased! After this simple process you can downsample to the original
rate., f 74;
#X text 548 24 All of the waveforms we studied could be obtained with
a sum of partials. But in order to achieve a "perfect" sawtooth \,
for example \, you need an infinite sum of partials. Now \, because
of the Nyquist theorem \, we know that there's a frequency limit in
digital audio. If you cross this limit \, we have aliasing \, which
sounds bad!, f 74;
#X obj 356 25 declare -path else;
#X obj 456 82 setdsp~ 1;
#X connect 1 0 16 0;
#X connect 1 0 4 0;
#X connect 4 0 2 0;
#X connect 4 0 13 0;
#X connect 4 0 15 0;
#X connect 16 0 0 0;
#X connect 16 0 3 0;
#X connect 16 0 14 0;
