#N canvas 380 378 704 459 12;
#X obj 89 367 outlet~;
#X obj 174 91 inlet~;
#X obj 259 91 inlet~;
#X obj 101 219 r \$0-set;
#X obj 89 262 else/wavetable~, f 37;
#N canvas 395 228 520 331 waveforms 0;
#N canvas 226 67 443 459 saw 0;
#X text 163 135 p;
#X obj 65 44 inlet;
#X msg 175 346 normalize 1;
#X obj 175 267 list trim;
#X obj 175 310 trigger bang anything;
#X obj 65 85 trigger bang float bang, f 32;
#X obj 175 210 list store, f 16;
#X msg 175 181 append \$1;
#X obj 175 154 expr 1/($f1+1);
#X obj 175 116 else/loop;
#X obj 175 241 list prepend sinesum 8192;
#X obj 319 389 send \$0-saw;
#X connect 1 0 5 0;
#X connect 2 0 11 0;
#X connect 3 0 4 0;
#X connect 4 0 2 0;
#X connect 4 1 11 0;
#X connect 5 0 6 0;
#X connect 5 1 9 0;
#X connect 5 2 6 1;
#X connect 6 0 10 0;
#X connect 7 0 6 0;
#X connect 8 0 7 0;
#X connect 9 0 8 0;
#X connect 10 0 3 0;
#X restore 57 89 pd saw;
#X obj 57 48 r \$0-n;
#X obj 132 48 r \$0-n;
#N canvas 226 67 443 459 saw2 0;
#X text 100 156 p;
#X obj 39 47 inlet;
#X obj 117 261 list prepend sinesum 4096;
#X msg 117 349 normalize 1;
#X obj 117 287 list trim;
#X msg 118 115 1 \$1;
#X obj 117 310 trigger bang anything;
#X obj 118 173 expr if ($f1 % 2 == 0 \, -1/$f1 \, 1/$f1);
#X obj 39 88 trigger bang float bang;
#X obj 118 233 list store;
#X msg 118 200 append \$1;
#X obj 118 141 else/loop;
#X obj 261 389 send \$0-saw2;
#X connect 1 0 8 0;
#X connect 2 0 4 0;
#X connect 3 0 12 0;
#X connect 4 0 6 0;
#X connect 5 0 11 0;
#X connect 6 0 3 0;
#X connect 6 1 12 0;
#X connect 7 0 10 0;
#X connect 8 0 9 0;
#X connect 8 1 5 0;
#X connect 8 2 9 1;
#X connect 9 0 2 0;
#X connect 10 0 9 0;
#X connect 11 0 7 0;
#X restore 132 89 pd saw2;
#X obj 209 48 r \$0-n;
#N canvas 226 67 594 633 tri 0;
#X obj 57 67 inlet;
#X obj 89 322 list prepend;
#X obj 89 144 trigger float bang;
#X msg 59 470 normalize 1;
#X obj 59 441 trigger bang anything;
#X obj 89 238 expr if ($f1 % 2 == 0 \, 0 \, if ($f1 % 4 == 3 \, -1 / pow($f1 \, 2) \, 1 / (pow($f1 \, 2))));
#X obj 184 328 list;
#X obj 59 351 list;
#X obj 59 377 list prepend sinesum 4096;
#X obj 59 410 list trim;
#X msg 89 171 1 \$1;
#X obj 57 114 t b f;
#X obj 89 202 else/loop;
#X obj 204 525 send \$0-tri;
#X connect 0 0 11 0;
#X connect 1 0 6 0;
#X connect 1 0 7 1;
#X connect 2 0 10 0;
#X connect 2 1 1 1;
#X connect 3 0 13 0;
#X connect 4 0 3 0;
#X connect 4 1 13 0;
#X connect 5 0 1 0;
#X connect 6 0 1 1;
#X connect 7 0 8 0;
#X connect 8 0 9 0;
#X connect 9 0 4 0;
#X connect 10 0 12 0;
#X connect 11 0 7 0;
#X connect 11 1 2 0;
#X connect 12 0 5 0;
#X restore 209 89 pd tri;
#N canvas 624 148 402 533 square 0;
#X obj 61 30 inlet;
#X obj 93 275 list prepend;
#X msg 68 434 normalize 1;
#X obj 68 405 trigger bang anything;
#X obj 93 232 expr if($f1 % 2 == 0 \, 0 \, 1 / $f1);
#X obj 93 121 t float bang;
#X obj 188 281 list;
#X obj 68 313 list;
#X obj 68 360 list prepend sinesum 4096;
#X obj 67 383 list trim;
#X msg 93 150 1 \$1;
#X obj 61 94 t b f;
#X obj 93 181 else/loop;
#X obj 212 473 send \$0-square;
#X connect 0 0 11 0;
#X connect 1 0 6 0;
#X connect 1 0 7 1;
#X connect 2 0 13 0;
#X connect 3 0 2 0;
#X connect 3 1 13 0;
#X connect 4 0 1 0;
#X connect 5 0 10 0;
#X connect 5 1 1 1;
#X connect 6 0 1 1;
#X connect 7 0 8 0;
#X connect 8 0 9 0;
#X connect 9 0 3 0;
#X connect 10 0 12 0;
#X connect 11 0 7 0;
#X connect 11 1 5 0;
#X connect 12 0 4 0;
#X restore 287 89 pd square;
#X obj 287 48 r \$0-n;
#X obj 377 48 r \$0-n;
#N canvas 624 148 484 445 impulse 0;
#X obj 61 30 inlet;
#X msg 140 282 normalize 1;
#X obj 140 253 trigger bang anything;
#X obj 140 226 list trim;
#X obj 62 86 trigger bang float bang;
#X obj 141 172 list store;
#X msg 141 140 append 1;
#X obj 141 114 until;
#X obj 140 200 list prepend cosinesum 4096 0;
#X obj 284 318 send \$0-imp;
#X connect 0 0 4 0;
#X connect 1 0 9 0;
#X connect 2 0 1 0;
#X connect 2 1 9 0;
#X connect 3 0 2 0;
#X connect 4 0 5 0;
#X connect 4 1 7 0;
#X connect 4 2 5 1;
#X connect 5 0 8 0;
#X connect 6 0 5 0;
#X connect 7 0 6 0;
#X connect 8 0 3 0;
#X restore 377 89 pd impulse;
#X obj 162 147 array define \$0-saw 8192;
#X obj 162 175 array define \$0-saw2 8192;
#X obj 162 205 array define \$0-tri 8192;
#X obj 162 234 array define \$0-square 8192;
#X obj 162 263 array define \$0-imp 8192;
#X connect 1 0 0 0;
#X connect 2 0 3 0;
#X connect 4 0 5 0;
#X connect 7 0 6 0;
#X connect 8 0 9 0;
#X restore 439 243 pd waveforms;
#N canvas 653 124 611 573 init 0;
#X obj 323 372 unpack s f f f;
#X obj 327 484 s \$0-n;
#X obj 327 428 max 1;
#X obj 386 442 s \$0-hz;
#X obj 450 442 s \$0-ph;
#X obj 205 80 else/loadbanger 2;
#X obj 321 135 s \$0-n;
#X obj 134 44 inlet;
#X obj 227 440 pack s \$0;
#X obj 227 514 s \$0-set;
#X msg 321 108 1;
#X obj 359 255 t l l;
#X obj 433 238 else/pick 1;
#X obj 433 267 route symbol float;
#X obj 359 329 else/router;
#X msg 433 293 0;
#X msg 494 293 1;
#X obj 433 372 unpack f f f;
#X obj 327 454 change;
#X obj 205 117 else/args -;
#X msg 236 243 midi 1;
#X obj 264 267 s \$0-set;
#X msg 286 243 soft 1;
#X obj 228 219 t a b;
#X obj 275 215 t a b;
#X obj 359 225 list;
#X msg 159 377 soft \$1;
#X obj 134 457 s \$0-set;
#X msg 87 374 midi \$1;
#X obj 205 160 route -midi -soft;
#X msg 227 480 table \$2-\$1;
#X obj 134 301 route n midi soft list;
#X connect 0 0 8 0;
#X connect 0 1 2 0;
#X connect 0 2 3 0;
#X connect 0 3 4 0;
#X connect 2 0 18 0;
#X connect 5 0 19 0;
#X connect 5 1 10 0;
#X connect 7 0 31 0;
#X connect 8 0 30 0;
#X connect 10 0 6 0;
#X connect 11 0 14 0;
#X connect 11 1 12 0;
#X connect 12 0 13 0;
#X connect 13 0 15 0;
#X connect 13 1 16 0;
#X connect 14 0 0 0;
#X connect 14 1 17 0;
#X connect 15 0 14 1;
#X connect 16 0 14 1;
#X connect 17 0 2 0;
#X connect 17 1 3 0;
#X connect 17 2 4 0;
#X connect 18 0 1 0;
#X connect 19 0 29 0;
#X connect 20 0 21 0;
#X connect 22 0 21 0;
#X connect 23 0 29 0;
#X connect 23 1 20 0;
#X connect 24 0 29 0;
#X connect 24 1 22 0;
#X connect 25 0 11 0;
#X connect 26 0 27 0;
#X connect 28 0 27 0;
#X connect 29 0 23 0;
#X connect 29 1 24 0;
#X connect 29 2 25 0;
#X connect 30 0 9 0;
#X connect 31 0 2 0;
#X connect 31 1 28 0;
#X connect 31 2 26 0;
#X connect 31 3 27 0;
#X connect 31 4 8 0;
#X restore 317 195 pd init;
#X obj 259 50 r \$0-ph;
#X obj 278 131 route phase, f 6;
#X text 363 141 Part of ELSE \; https://github.com/porres/pd-else;
#X text 365 122 Alexandre Torres Porres (2022);
#X obj 87 91 inlet~;
#X obj 126 127 route list, f 5;
#N canvas 555 147 681 536 freq 0;
#X obj 199 49 inlet~;
#X obj 461 53 inlet;
#X obj 166 436 outlet~;
#N canvas 380 362 726 483 porra-caralho 0;
#X obj 408 325 switch~;
#X obj 192 70 > 1;
#X obj 217 390 s2f~;
#X listbox 207 429 20 0 0 0 - - - 0;
#X obj 192 103 change;
#X obj 337 73 else/f2s~;
#X obj 395 185 s2f~;
#X listbox 403 238 20 0 0 0 - - - 0;
#X obj 192 38 else/nchs~;
#X obj 140 269 else/select~ 3;
#X obj 122 35 inlet~;
#X obj 355 31 inlet;
#X text 480 70 Se o número de canais é > 1 \, então a entrada é SEMPRE da esquerda (1)., f 23;
#X text 480 132 Se não \, temos que ver se é da esquerda ou da direita., f 24;
#X connect 1 0 4 0;
#X connect 2 0 3 0;
#X connect 4 0 9 0;
#X connect 5 0 6 0;
#X connect 5 0 9 2;
#X connect 6 0 7 0;
#X connect 8 0 1 0;
#X connect 9 0 2 0;
#X connect 10 0 8 0;
#X connect 11 0 5 0;
#X restore 259 155 pd porra-caralho;
#X connect 0 0 2 0;
#X connect 0 0 3 0;
#X connect 1 0 3 1;
#X restore 87 177 pd freq;
#X obj 87 50 r \$0-hz;
#X connect 1 0 4 1;
#X connect 2 0 4 2;
#X connect 3 0 4 0;
#X connect 4 0 0 0;
#X connect 7 0 2 0;
#X connect 8 0 2 0;
#X connect 8 1 6 0;
#X connect 11 0 13 0;
#X connect 11 1 12 0;
#X connect 12 0 13 1;
#X connect 12 1 8 0;
#X connect 13 0 4 0;
#X connect 14 0 11 0;
