#N canvas 495 118 522 432 10;
#X obj 67 370 outlet~;
#X obj 67 77 inlet~;
#X text 267 129 Part of ELSE \; https://github.com/porres/pd-else;
#X obj 154 162 clip~ 0 1;
#X obj 154 77 inlet~;
#N canvas 581 215 223 206 init 0;
#X obj 84 111 unpack;
#X obj 83 147 outlet;
#X obj 134 149 outlet;
#X obj 84 81 else/args;
#X obj 84 41 else/lb;
#X connect 0 0 1 0;
#X connect 0 1 2 0;
#X connect 3 0 0 0;
#X connect 4 0 3 0;
#X restore 154 38 pd init;
#X obj 242 74 inlet~;
#X obj 242 192 clip~ 0 0.98;
#X obj 67 301 else/downsample~;
#X obj 67 236 else/quantizer~ -mode 4, f 15;
#X text 269 111 Alexandre Torres Porres (2018-2025);
#X obj 191 204 sig~ 1;
#X obj 191 230 -~;
#X obj 242 225 pow~ 0.1;
#X obj 191 255 *~ 0;
#X obj 228 256 else/sr~;
#X connect 1 0 9 0;
#X connect 3 0 9 1;
#X connect 4 0 3 0;
#X connect 5 0 4 0;
#X connect 5 1 6 0;
#X connect 6 0 7 0;
#X connect 7 0 13 0;
#X connect 8 0 0 0;
#X connect 9 0 8 0;
#X connect 11 0 12 0;
#X connect 12 0 14 0;
#X connect 13 0 12 1;
#X connect 14 0 8 1;
#X connect 15 0 14 1;
