#N canvas 636 160 532 335 12;
#X obj 71 42 inlet;
#X obj 145 277 outlet~;
#X text 231 108 Part of ELSE \; https://github.com/porres/pd-else;
#X text 233 89 Alexandre Torres Porres (2025);
#X obj 191 42 inlet;
#X obj 71 96 route bang, f 11;
#X msg 71 140 all bang;
#N canvas 366 232 533 518 guts 0;
#X obj 48 17 inlet;
#X obj 102 101 t l l;
#X obj 134 188 list length;
#X msg 134 246 resize \$1;
#X obj 138 392 outlet;
#X obj 49 214 else/order;
#X obj 48 61 route float list;
#X obj 134 216 change 1;
#X obj 263 50 loadbang;
#X obj 263 102 else/default 1;
#X obj 263 76 else/args;
#X obj 243 195 else/order;
#X obj 243 135 t l l;
#X obj 243 17 inlet;
#X obj 243 230 else/insert 1 set;
#X connect 0 0 6 0;
#X connect 1 0 5 0;
#X connect 1 1 2 0;
#X connect 2 0 7 0;
#X connect 3 0 4 0;
#X connect 5 0 4 0;
#X connect 6 0 1 0;
#X connect 6 1 1 0;
#X connect 7 0 3 0;
#X connect 8 0 10 0;
#X connect 9 0 12 0;
#X connect 10 0 9 0;
#X connect 11 0 14 0;
#X connect 12 0 11 0;
#X connect 12 1 2 0;
#X connect 13 0 12 0;
#X connect 14 0 4 0;
#X restore 145 140 pd guts;
#X obj 145 209 clone -do else/float2imp.unit 1;
#X connect 0 0 5 0;
#X connect 4 0 7 1;
#X connect 5 0 6 0;
#X connect 5 1 7 0;
#X connect 6 0 8 0;
#X connect 7 0 8 0;
#X connect 8 0 1 0;
