#N canvas 381 203 578 295 10;
#X obj 53 102 cnv 15 198 138 empty \$0-bgcnv empty 20 12 0 14 #dfdfdf #404040 0;
#N canvas 651 85 484 230 guts 0;
#X obj 52 22 inlet~;
#X obj 126 22 inlet;
#N canvas 671 38 224 239 clip~ 0;
#X obj 79 46 inlet~;
#X obj 79 164 outlet~;
#X obj 92 75 r \$0-range;
#X obj 92 98 unpack;
#X obj 79 134 clip~;
#X connect 0 0 4 0;
#X connect 2 0 3 0;
#X connect 3 0 4 1;
#X connect 3 1 4 2;
#X connect 4 0 1 0;
#X restore 52 86 pd clip~;
#N canvas 414 149 517 424 set-args 0;
#N canvas 248 342 1032 360 flags 0;
#X obj 45 54 inlet;
#X obj 45 123 route float;
#X obj 139 123 route float;
#X obj 231 123 route list;
#X obj 45 152 s \$0-set-size;
#X obj 231 152 s \$0-set-range;
#X obj 139 152 s \$0-set-skip;
#X obj 327 123 route list;
#X obj 327 152 s \$0-set-dim;
#X obj 45 87 route -size -skip -range -dim -bgcolor -fgcolor -width, f 108;
#X obj 412 126 route list;
#X obj 508 126 route list;
#X obj 597 127 route float;
#X obj 597 156 s \$0-set-width;
#X obj 412 155 s \$0-to-bg;
#X obj 508 155 s \$0-to-fg;
#X connect 0 0 9 0;
#X connect 1 0 4 0;
#X connect 2 0 6 0;
#X connect 3 0 5 0;
#X connect 7 0 8 0;
#X connect 9 0 1 0;
#X connect 9 1 2 0;
#X connect 9 2 3 0;
#X connect 9 3 7 0;
#X connect 9 4 10 0;
#X connect 9 5 11 0;
#X connect 9 6 12 0;
#X connect 10 0 14 0;
#X connect 11 0 15 0;
#X connect 12 0 13 0;
#X restore 318 314 pd flags;
#X obj 198 351 s \$0-metro-tgl;
#X obj 226 15 inlet;
#N canvas 325 295 990 406 route 0;
#X obj 36 118 route float;
#X obj 127 118 route float;
#X obj 218 118 route list;
#X obj 36 257 s \$0-set-size;
#X obj 128 257 s \$0-set-skip;
#X obj 36 25 inlet;
#X obj 309 119 route list;
#X obj 309 257 s \$0-set-dim;
#X obj 48 167 r \$0-size;
#X msg 48 190 set \$1;
#X obj 36 222 change;
#X msg 152 190 set \$1;
#X obj 128 222 change;
#X obj 152 167 r \$0-skip;
#X obj 233 184 r \$0-range;
#X obj 319 182 r \$0-set-dim;
#X obj 218 215 else/changed;
#X obj 309 212 else/changed;
#X msg 538 272 width \$1;
#X obj 538 252 max 1;
#X obj 399 170 else/insert rgb;
#X obj 399 192 else/colors;
#X msg 399 264 color \$1;
#X obj 399 286 s \$0-bgcnv;
#N canvas 1248 229 297 300 color 0;
#X obj 89 92 inlet;
#X obj 89 152 else/colors -ds;
#X msg 89 183 color \$1;
#X obj 89 123 else/insert rgb;
#X obj 89 221 outlet;
#X connect 0 0 3 0;
#X connect 1 0 2 0;
#X connect 2 0 4 0;
#X connect 3 0 1 0;
#X restore 516 180 pd color;
#X obj 538 229 r \$0-set-width;
#X obj 428 231 s \$0-set-bg;
#X obj 516 331 s \$0-set-fg;
#X obj 420 132 r \$0-to-bg;
#X obj 539 158 r \$0-to-fg;
#X obj 218 257 send \$0-set-range, f 12;
#X obj 585 111 send \$0-set-width, f 12;
#X obj 676 117 s \$0-clear;
#X obj 768 117 s \$0-bang;
#X obj 36 82 route size skip range dim bgcolor fgcolor width clear bang ext, f 153;
#X obj 859 132 s \$0-ext;
#X obj 859 107 != 0;
#X obj 528 296 s \$0-graph-array;
#X connect 0 0 10 0;
#X connect 1 0 12 0;
#X connect 2 0 16 0;
#X connect 5 0 34 0;
#X connect 6 0 17 0;
#X connect 8 0 9 0;
#X connect 9 0 10 0;
#X connect 10 0 3 0;
#X connect 11 0 12 0;
#X connect 12 0 4 0;
#X connect 13 0 11 0;
#X connect 14 0 16 1;
#X connect 15 0 17 1;
#X connect 16 0 30 0;
#X connect 17 0 7 0;
#X connect 18 0 37 0;
#X connect 19 0 18 0;
#X connect 20 0 21 0;
#X connect 21 0 22 0;
#X connect 21 0 26 0;
#X connect 22 0 23 0;
#X connect 24 0 27 0;
#X connect 24 0 37 0;
#X connect 25 0 19 0;
#X connect 28 0 20 0;
#X connect 29 0 24 0;
#X connect 34 0 0 0;
#X connect 34 1 1 0;
#X connect 34 2 2 0;
#X connect 34 3 6 0;
#X connect 34 4 20 0;
#X connect 34 5 24 0;
#X connect 34 6 31 0;
#X connect 34 7 32 0;
#X connect 34 8 33 0;
#X connect 34 9 36 0;
#X connect 36 0 35 0;
#X restore 349 177 pd route;
#N canvas 212 247 886 310 set-args 0;
#X msg 108 129 set \$1;
#X msg 173 132 set \$1;
#X obj 108 105 r \$0-size;
#X obj 260 89 r \$0-range;
#X obj 86 53 inlet;
#X obj 86 239 outlet;
#X obj 173 106 r \$0-skip;
#X obj 603 96 r \$0-set-bg;
#X msg 603 123 set \$1;
#X msg 687 124 set \$1;
#X obj 687 97 r \$0-set-fg;
#X msg 777 126 set \$1;
#X obj 777 79 r \$0-set-width;
#X obj 780 102 max 1;
#X obj 86 161 else/pack2 441 10 -1 1 200 140 #dfdfdf 0 1, f 117;
#X obj 86 203 else/changed 441 10 -1 1 200 140 #dfdfdf 0 1;
#X obj 260 111 unpack, f 13;
#X msg 335 131 set \$1;
#X msg 260 132 set \$1;
#X obj 434 106 unpack, f 13;
#X msg 434 131 set \$1;
#X obj 434 84 r \$0-set-dim;
#X msg 513 131 set \$1;
#X connect 0 0 14 0;
#X connect 1 0 14 1;
#X connect 2 0 0 0;
#X connect 3 0 16 0;
#X connect 4 0 14 0;
#X connect 6 0 1 0;
#X connect 7 0 8 0;
#X connect 8 0 14 6;
#X connect 9 0 14 7;
#X connect 10 0 9 0;
#X connect 11 0 14 8;
#X connect 12 0 13 0;
#X connect 13 0 11 0;
#X connect 14 0 15 0;
#X connect 15 0 5 0;
#X connect 16 0 18 0;
#X connect 16 1 17 0;
#X connect 17 0 14 3;
#X connect 18 0 14 2;
#X connect 19 0 20 0;
#X connect 19 1 22 0;
#X connect 20 0 14 4;
#X connect 21 0 19 0;
#X connect 22 0 14 5;
#X restore 226 175 pd set-args;
#X obj 226 144 trigger bang anything;
#N canvas 569 100 711 394 load-args 0;
#X obj 69 37 inlet;
#N canvas 284 389 383 312 size 0;
#X obj 91 133 int;
#X obj 91 160 max 64;
#X obj 91 255 s \$0-size;
#X obj 91 67 inlet;
#X obj 103 98 r \$0-set-size;
#X obj 113 190 array size \$0-graph-array;
#X obj 101 225 s \$0-init-size;
#X connect 0 0 1 0;
#X connect 1 0 5 0;
#X connect 1 0 2 0;
#X connect 1 0 6 0;
#X connect 3 0 0 0;
#X connect 4 0 0 0;
#X restore 69 109 pd size;
#N canvas 646 399 288 297 skip 0;
#X msg 111 207 tempo \$1 samp;
#X obj 111 90 int;
#X obj 111 116 max 0;
#X obj 128 182 s \$0-frames;
#X obj 111 154 + 1;
#X obj 111 37 inlet;
#X obj 111 234 s \$0-metro;
#X obj 124 66 r \$0-set-skip;
#X obj 146 145 s \$0-skip;
#X connect 0 0 6 0;
#X connect 1 0 2 0;
#X connect 2 0 4 0;
#X connect 2 0 8 0;
#X connect 4 0 0 0;
#X connect 4 0 3 0;
#X connect 5 0 1 0;
#X connect 7 0 1 0;
#X restore 127 109 pd skip;
#N canvas 507 142 450 324 range 0;
#X obj 198 165 pack f f f;
#X obj 289 100 r \$0-size;
#X obj 198 97 unpack;
#X obj 254 70 inlet;
#X obj 141 70 inlet;
#X obj 198 41 r \$0-set-range;
#X obj 213 220 s \$0-range;
#X msg 213 193 \$1 \$3;
#X msg 198 245 bounds 0 \$3 \$2 \$1;
#X obj 198 269 send \$0-graph-array;
#X connect 0 0 8 0;
#X connect 0 0 7 0;
#X connect 1 0 0 1;
#X connect 2 0 0 0;
#X connect 2 1 0 2;
#X connect 3 0 0 2;
#X connect 4 0 0 0;
#X connect 5 0 2 0;
#X connect 7 0 6 0;
#X connect 8 0 9 0;
#X restore 197 109 pd range;
#X obj 272 134 s \$0-set-dim;
#X obj 272 109 pack;
#X obj 69 83 unpack float float float float float float symbol float float, f 71;
#X obj 372 267 s \$0-set-bg;
#X obj 472 163 s \$0-set-fg;
#X obj 546 133 s \$0-set-width;
#X msg 355 297 color \$1;
#X obj 355 319 s \$0-bgcnv;
#X msg 464 216 color \$1;
#X obj 473 270 s \$0-graph-array;
#X connect 0 0 6 0;
#X connect 5 0 4 0;
#X connect 6 0 1 0;
#X connect 6 1 2 0;
#X connect 6 2 3 0;
#X connect 6 3 3 1;
#X connect 6 4 5 0;
#X connect 6 5 5 1;
#X connect 6 6 7 0;
#X connect 6 6 10 0;
#X connect 6 7 8 0;
#X connect 6 7 12 0;
#X connect 6 8 9 0;
#X connect 10 0 11 0;
#X connect 12 0 13 0;
#X restore 225 314 pd load-args;
#N canvas 744 183 536 484 default 0;
#X obj 236 74 inlet;
#X obj 244 269 s \$0-set-skip;
#X obj 254 216 s \$0-set-range;
#X msg 263 129 441;
#X obj 263 153 s \$0-set-size;
#X msg 254 191 -1 1;
#X msg 213 299 200 140;
#X obj 213 323 s \$0-set-dim;
#X obj 180 393 s \$0-bgcnv;
#X msg 180 352 color #dfdfdf;
#X msg 244 245 10;
#X msg 96 320 color 0 \, width 1 \, edit 0, f 8;
#X obj 236 98 t b b;
#X obj 96 427 s \$0-graph-array;
#X connect 0 0 12 0;
#X connect 3 0 4 0;
#X connect 5 0 2 0;
#X connect 6 0 7 0;
#X connect 9 0 8 0;
#X connect 10 0 1 0;
#X connect 11 0 13 0;
#X connect 12 0 10 0;
#X connect 12 0 5 0;
#X connect 12 0 6 0;
#X connect 12 0 9 0;
#X connect 12 0 11 0;
#X connect 12 1 3 0;
#X restore 226 209 pd default;
#X obj 225 291 route float list;
#X obj 198 263 t b a;
#X obj 141 239 route bang;
#N canvas 586 131 548 498 set-dim 0;
#X obj 172 378 s \$0-bgcnv;
#X msg 172 349 vis_size \$1 \$2;
#X obj 209 239 - 2;
#X obj 173 239 - 2;
#X obj 74 388 pack;
#X obj 62 366 + 2;
#X obj 95 366 + 2;
#X obj 382 225 send pd-\$0-array-cnv;
#X obj 74 439 send \$0-patch;
#X obj 149 29 r \$0-set-dim;
#X obj 149 86 max 50;
#X obj 209 86 max 50;
#X obj 382 177 pack;
#X obj 62 116 trigger float float;
#X obj 246 194 r \$0-set-size;
#X obj 149 56 unpack;
#X obj 283 239 unpack;
#X obj 283 216 r \$0-set-range;
#X msg 189 294 coords 0 \$5 \$3 \$4 \$1 \$2 2 50 100;
#X obj 189 316 send \$0-name;
#X obj 242 220 t b f;
#X obj 173 263 pack 200 140 441 -1 1;
#X obj 229 173 r \$0-init-size;
#X msg 74 415 goprect 51 100 \$1 \$2;
#X msg 382 203 goprect 99 19 \$1 \$2;
#X connect 1 0 0 0;
#X connect 2 0 21 1;
#X connect 3 0 21 0;
#X connect 4 0 23 0;
#X connect 5 0 4 0;
#X connect 6 0 4 1;
#X connect 9 0 15 0;
#X connect 10 0 13 0;
#X connect 11 0 6 0;
#X connect 11 0 2 0;
#X connect 11 0 12 1;
#X connect 12 0 24 0;
#X connect 13 0 5 0;
#X connect 13 1 3 0;
#X connect 13 1 12 0;
#X connect 14 0 20 0;
#X connect 15 0 10 0;
#X connect 15 1 11 0;
#X connect 16 0 21 3;
#X connect 16 1 21 4;
#X connect 17 0 16 0;
#X connect 18 0 19 0;
#X connect 20 0 21 0;
#X connect 20 1 21 2;
#X connect 21 0 1 0;
#X connect 21 0 18 0;
#X connect 22 0 20 0;
#X connect 23 0 8 0;
#X connect 24 0 7 0;
#X restore 313 209 pd set-dim;
#X obj 141 208 else/args -;
#X obj 108 154 else/lb 2;
#X connect 2 0 5 0;
#X connect 4 0 12 0;
#X connect 5 0 4 0;
#X connect 5 1 3 0;
#X connect 8 0 6 0;
#X connect 8 1 6 0;
#X connect 8 2 0 0;
#X connect 9 0 1 0;
#X connect 9 1 8 0;
#X connect 10 0 1 0;
#X connect 10 1 9 0;
#X connect 12 0 10 0;
#X connect 13 0 12 0;
#X connect 13 1 7 0;
#X restore 126 70 pd set-args;
#X obj 228 99 else/canvas.setname \$0-patch 1;
#X obj 228 119 else/canvas.setname \$0-parent 2;
#N canvas 669 403 326 322 bang 0;
#X obj 133 104 r \$0-size;
#X obj 106 77 r \$0-metro;
#X obj 106 131 metro;
#X obj 106 256 outlet;
#X obj 77 78 tgl 15 0 empty empty empty 17 7 0 10 #dcdcdc #000000 #000000 0 1;
#X obj 77 46 r \$0-metro-tgl;
#X obj 167 146 r \$0-ext;
#X obj 167 167 == 0;
#X obj 130 200 r \$0-bang;
#X obj 106 165 spigot 1;
#X obj 130 224 spigot;
#X connect 0 0 2 1;
#X connect 1 0 2 0;
#X connect 2 0 9 0;
#X connect 4 0 2 0;
#X connect 5 0 4 0;
#X connect 6 0 7 0;
#X connect 6 0 10 1;
#X connect 7 0 9 1;
#X connect 8 0 10 0;
#X connect 9 0 3 0;
#X connect 10 0 3 0;
#X restore 78 115 pd bang;
#X obj 52 151 tabwrite~ \$0-graph-array;
#X obj 275 173 s \$0-graph-array;
#X msg 277 150 visname 0;
#X connect 0 0 2 0;
#X connect 1 0 3 0;
#X connect 2 0 7 0;
#X connect 6 0 7 0;
#X connect 9 0 8 0;
#X restore 84 36 pd guts;
#X text 243 42 Part of ELSE \; https://github.com/porres/pd-else, f 35;
#N canvas 769 310 511 457 \$0-array-cnv 0;
#N canvas 109 97 450 278 (subpatch) 0;
#X array \$0-graph-array 441 float 8;
#A resize 441;
#A color 0;
#A width 1;
#X obj 117 28 namecanvas \$0-name;
#X coords 0 1 441 -1 198 138 2 50 100;
#X restore 100 20 graph;
#X coords 0 1 100 -1 200 140 2 99 19;
#X restore 52 101 pd \$0-array-cnv;
#X obj 74 58 outlet~;
#X obj 74 14 inlet~;
#X text 243 24 Alexandre Torres Porres (2017-2025);
#X connect 5 0 1 0;
#X connect 5 0 4 0;
#X connect 5 1 1 1;
#X coords 0 1 100 -1 202 142 2 51 100;
