#N canvas 606 79 356 430 12;
#X obj 69 22 inlet~;
#X obj 69 356 outlet~;
#X obj 69 296 *~, f 4;
#X obj 94 266 else/f2s~;
#X obj 94 240 else/db2lin;
#X obj 94 213 r \$0-db;
#X obj 201 128 cnv 15 59 65 empty empty empty 20 12 0 14 #dbdbdb #373737 0;
#X obj 202 178 else/note 55 10 Menlo \$0-db-label 0 0 0 0 0 255 255 255 0 1 +8.53 dB;
#X obj 207 126 cnv 1 53 1 empty empty empty 20 12 0 14 #e0e0e0 #404040 0;
#X obj 207 194 cnv 1 53 1 empty empty empty 20 12 0 14 #e0e0e0 #404040 0;
#N canvas 381 232 321 274 set_GUI 0;
#X obj 79 37 inlet;
#X obj 79 199 s \$0-set-db;
#X obj 79 91 route db savestate;
#X obj 140 122 != 0;
#X obj 140 156 s \$0-savestate;
#X connect 0 0 2 0;
#X connect 2 0 1 0;
#X connect 2 1 3 0;
#X connect 3 0 4 0;
#X restore 108 59 pd set_GUI;
#N canvas 412 289 456 332 gui 0;
#X obj 82 69 else/limit 100;
#X msg 231 139 color 0 0 \$1;
#X obj 231 107 * 175;
#X obj 244 80 loadbang;
#X obj 82 37 r \$0-db;
#X msg 82 139 set \$1 dB;
#X msg 257 206 set \$1| dB;
#X obj 232 257 s \$0-db-label;
#X obj 257 175 r \$0-db-typing;
#X obj 231 46 r \$0-db-active;
#X obj 82 104 else/format %+.2f;
#X connect 0 0 10 0;
#X connect 1 0 7 0;
#X connect 2 0 1 0;
#X connect 3 0 2 0;
#X connect 4 0 0 0;
#X connect 5 0 7 0;
#X connect 6 0 7 0;
#X connect 8 0 6 0;
#X connect 9 0 2 0;
#X connect 10 0 5 0;
#X restore 105 121 pd gui;
#X obj 208 131 else/knob 45 -24 24 0 0 \$0-db \$0-set-db #000000 #404040 #ffffff 0 0 0 0 1 320 0 0 0 empty empty 0 8 0 0 0 0 0 0;
#N canvas 379 192 449 336 init 1;
#X obj 276 158 savestate;
#X obj 117 93 else/args;
#X obj 336 190 v \$0-db;
#X obj 237 200 float;
#X obj 237 227 s \$0-set-db;
#X msg 117 180 1;
#X obj 139 62 r \$0-savestate;
#X obj 117 219 s \$0-savestate;
#X msg 236 160 0;
#X obj 117 31 loadbang;
#X obj 117 125 else/route2 -savestate 1 0;
#X connect 0 0 3 1;
#X connect 0 1 2 0;
#X connect 1 0 10 0;
#X connect 2 0 0 0;
#X connect 3 0 4 0;
#X connect 5 0 7 0;
#X connect 6 0 1 0;
#X connect 8 0 3 0;
#X connect 9 0 1 0;
#X connect 10 0 3 0;
#X connect 10 0 5 0;
#X connect 10 1 3 0;
#X connect 10 2 8 0;
#X connect 10 3 8 0;
#X restore 105 151 pd init;
#X connect 0 0 2 0;
#X connect 0 1 10 0;
#X connect 2 0 1 0;
#X connect 3 0 2 1;
#X connect 4 0 3 0;
#X connect 5 0 4 0;
#X coords 0 1 100 -1 61 71 2 200 125;
