#N canvas 549 63 590 606 10;
#X declare -path else;
#X obj 296 267 change;
#X obj 225 265 change;
#X obj 205 214 list split 2;
#X obj 296 290 moses 2;
#N canvas 1118 75 378 528 init 0;
#X obj 111 227 unpack f f f;
#X obj 140 291 s \$0-lo;
#X obj 156 269 s \$0-mid;
#X obj 180 250 s \$0-hi;
#X obj 70 93 loadbang;
#X obj 77 330 r \$0-set-mode;
#X obj 77 384 clip 0 2;
#X obj 77 416 s \$0-mode;
#X obj 50 182 list split 1;
#X obj 50 291 s \$0-set-mode;
#X obj 70 153 route -mode list bang;
#X obj 77 357 f;
#X obj 70 122 else/args -;
#X connect 0 0 1 0;
#X connect 0 1 2 0;
#X connect 0 2 3 0;
#X connect 4 0 12 0;
#X connect 5 0 11 0;
#X connect 6 0 7 0;
#X connect 8 0 9 0;
#X connect 8 1 0 0;
#X connect 10 0 8 0;
#X connect 10 1 0 0;
#X connect 11 0 6 0;
#X connect 12 0 10 0;
#X restore 368 217 pd init;
#X obj 118 31 inlet;
#X obj 264 505 else/drive~ 10;
#X obj 264 536 outlet~;
#X obj 437 276 == 0;
#X obj 392 298 spigot 1;
#X obj 184 391 r \$0-hi;
#X obj 304 391 r \$0-lo;
#X obj 432 391 r \$0-mid;
#X obj 68 215 unpack f f f;
#X obj 102 235 pack;
#X obj 102 257 else/changed;
#X obj 102 279 unpack;
#X obj 120 303 else/changed;
#X obj 120 325 sel 1;
#X obj 258 181 != 2;
#X obj 118 181 else/router 2 1;
#X obj 258 157 r \$0-mode;
#X obj 239 236 unpack f f;
#X obj 225 289 sel 0 1;
#X obj 264 321 b;
#X obj 392 321 b;
#X obj 437 249 r \$0-mode;
#X obj 155 156 s \$0-set-mode;
#X obj 379 167 declare -path else;
#X obj 118 62 route list mode set;
#X obj 192 81 unpack f f f;
#X obj 192 136 s \$0-lo;
#X obj 226 118 s \$0-mid;
#X obj 261 100 s \$0-hi;
#X obj 392 422 else/resonant~ -t60 1000 100, f 14;
#X obj 264 422 else/resonant~ -t60 600 100, f 14;
#X obj 144 422 else/resonant~ -t60 1700 100, f 14;
#X obj 392 358 else/float2imp~;
#X obj 264 358 else/float2imp~;
#X obj 144 358 else/float2imp~;
#X connect 0 0 3 0;
#X connect 1 0 23 0;
#X connect 2 1 22 0;
#X connect 3 1 9 0;
#X connect 5 0 29 0;
#X connect 6 0 7 0;
#X connect 8 0 9 1;
#X connect 9 0 25 0;
#X connect 10 0 36 1;
#X connect 11 0 35 1;
#X connect 12 0 34 1;
#X connect 13 1 14 0;
#X connect 13 2 14 1;
#X connect 14 0 15 0;
#X connect 15 0 16 0;
#X connect 16 0 17 0;
#X connect 17 0 18 0;
#X connect 17 1 24 0;
#X connect 18 0 39 0;
#X connect 18 1 24 0;
#X connect 19 0 20 1;
#X connect 20 0 13 0;
#X connect 20 1 2 0;
#X connect 21 0 19 0;
#X connect 22 0 1 0;
#X connect 22 1 0 0;
#X connect 23 1 39 0;
#X connect 23 2 24 0;
#X connect 24 0 38 0;
#X connect 25 0 37 0;
#X connect 26 0 8 0;
#X connect 29 0 20 0;
#X connect 29 1 27 0;
#X connect 29 2 30 0;
#X connect 30 0 31 0;
#X connect 30 1 32 0;
#X connect 30 2 33 0;
#X connect 34 0 6 0;
#X connect 35 0 6 0;
#X connect 36 0 6 0;
#X connect 37 0 34 0;
#X connect 38 0 35 0;
#X connect 39 0 36 0;
