#N canvas 348 210 566 307 12;
#X obj 97 119 +~;
#X obj 163 119 -~;
#X obj 97 51 inlet~;
#X obj 181 51 inlet~;
#X obj 97 209 outlet~;
#X obj 163 209 outlet~;
#X obj 97 167 *~ 0.5;
#X obj 163 167 *~ 0.5;
#X text 241 128 Part of ELSE \; https://github.com/porres/pd-else;
#X text 243 109 Alexandre Torres Porres (2025);
#X connect 0 0 6 0;
#X connect 1 0 7 0;
#X connect 2 0 0 0;
#X connect 2 0 1 0;
#X connect 3 0 1 1;
#X connect 3 0 0 1;
#X connect 6 0 4 0;
#X connect 7 0 5 0;
