#N canvas 502 103 619 398 10;
#X obj 51 323 *~;
#X msg 241 171 -100;
#X floatatom 286 172 5 0 0 0 - - - 0;
#X obj 51 27 inlet~;
#X obj 51 369 outlet~;
#X obj 219 27 inlet;
#X obj 241 146 route bang float list -size, f 31;
#X obj 378 220 s \$0-size;
#X obj 96 72 r \$0-size;
#X text 341 303 Part of ELSE \; https://github.com/porres/pd-else;
#X obj 156 241 else/op~ >=;
#X obj 378 171 list split 1;
#X obj 412 194 route bang;
#X obj 241 84 loadbang;
#X obj 241 107 else/args -;
#X obj 76 170 else/mov.rms~ 256;
#X obj 156 268 else/glide2~ 10 10;
#X obj 332 191 unpack f f f, f 6;
#X msg 96 144 size \$1 \, n \$1;
#X text 343 284 Alexandre Torres Porres (2018-2026);
#X connect 0 0 4 0;
#X connect 1 0 10 1;
#X connect 2 0 10 1;
#X connect 3 0 0 0;
#X connect 3 0 15 0;
#X connect 5 0 10 1;
#X connect 6 0 1 0;
#X connect 6 1 2 0;
#X connect 6 2 17 0;
#X connect 6 3 11 0;
#X connect 8 0 18 0;
#X connect 10 0 16 0;
#X connect 11 0 7 0;
#X connect 11 1 12 0;
#X connect 12 1 6 0;
#X connect 13 0 14 0;
#X connect 14 0 6 0;
#X connect 15 0 10 0;
#X connect 16 0 0 1;
#X connect 17 0 2 0;
#X connect 17 1 16 1;
#X connect 17 2 16 2;
#X connect 18 0 15 0;
