#N canvas 290 93 667 549 12;
#X obj 105 325 *~;
#X obj 105 406 outlet~;
#X obj 105 197 inlet~;
#X obj 225 286 else/sr~;
#X obj 225 330 /~;
#X obj 105 115 else/args;
#X obj 105 80 loadbang;
#X obj 105 286 else/pimp~;
#X obj 168 197 inlet~;
#X obj 225 197 inlet~;
#X obj 105 146 else/default 0;
#X obj 189 285 abs~;
#X text 318 163 Part of ELSE \; https://github.com/porres/pd-else;
#N canvas 206 188 458 386 set/init 0;
#X obj 199 239 array define \$0-noise 44100;
#X msg 210 166 noise;
#X obj 220 126 loadbang;
#X obj 210 207 else/tabgen \$0-noise;
#X obj 96 113 != 0;
#X msg 96 137 midi \$1;
#X obj 96 42 inlet;
#X obj 96 75 route midi bang;
#X connect 1 0 3 0;
#X connect 2 0 1 0;
#X connect 4 0 5 0;
#X connect 6 0 7 0;
#X connect 7 1 1 0;
#X restore 229 238 pd set/init;
#X obj 105 364 else/tabreader~ -index -loop \$0-noise;
#X text 320 144 Alexandre Torres Porres (2023-2026);
#X connect 0 0 14 0;
#X connect 2 0 7 0;
#X connect 2 0 11 0;
#X connect 2 1 13 0;
#X connect 3 0 4 0;
#X connect 4 0 0 1;
#X connect 5 0 10 0;
#X connect 6 0 5 0;
#X connect 7 0 0 0;
#X connect 8 0 7 1;
#X connect 9 0 7 2;
#X connect 10 0 2 0;
#X connect 11 0 4 1;
#X connect 14 0 1 0;
