#N canvas 332 457 564 301 10;
#X obj 77 219 outlet~;
#X text 291 184 Part of ELSE \; https://github.com/porres/pd-else;
#X text 293 165 Alexandre Torres Porres (2019);
#X obj 161 69 inlet~;
#X obj 74 69 inlet~;
#X obj 301 41 r \$0-set-wet;
#X obj 223 69 inlet~;
#X obj 301 69 inlet~;
#X obj 77 175 else/xfade~, f 26;
#X obj 100 141 else/allpass.filt~ \$1;
#N canvas 792 460 440 320 set 0;
#X obj 90 38 inlet;
#X msg 280 106 0 1 1;
#X obj 181 134 unpack f f f;
#X obj 90 98 route q wet;
#X obj 181 76 else/loadbanger 2;
#X obj 181 103 else/args;
#X obj 190 210 s \$0-set-wet;
#X obj 100 214 s \$0-set-q;
#X connect 0 0 3 0;
#X connect 1 0 2 0;
#X connect 2 1 7 0;
#X connect 2 2 6 0;
#X connect 3 0 7 0;
#X connect 3 1 6 0;
#X connect 4 0 5 0;
#X connect 4 1 1 0;
#X connect 5 0 2 0;
#X restore 107 100 pd set \; init;
#X obj 223 41 r \$0-set-q;
#X obj 301 105 else/rescale~ -in 0 1 -1 0, f 13;
#X connect 3 0 9 1;
#X connect 4 0 9 0;
#X connect 4 0 8 0;
#X connect 4 1 10 0;
#X connect 5 0 7 0;
#X connect 6 0 9 2;
#X connect 7 0 12 0;
#X connect 8 0 0 0;
#X connect 9 0 8 1;
#X connect 11 0 6 0;
#X connect 12 0 8 2;
