#N canvas 473 122 663 522 10;
#N canvas 1013 38 353 220 guts 1;
#N canvas 431 287 648 541 messages 0;
#X obj 29 24 inlet;
#X obj 304 411 s \$0-write;
#X obj 372 193 symbol;
#X obj 254 355 del 10;
#X msg 254 376 stop;
#X msg 220 361 0;
#X obj 188 394 s \$0-fade;
#X msg 188 361 1;
#X obj 188 244 sel 1 0;
#X msg 188 162 1;
#X msg 224 162 0;
#X obj 29 123 != 0;
#X obj 265 162 route bang;
#X obj 304 224 savepanel;
#X obj 353 157 else/click;
#X obj 304 355 else/pack2;
#X msg 331 278 set \$1;
#X msg 410 300 set \$1;
#X obj 425 275 else/sr~;
#X msg 304 382 open -rate \$1 \$2 \, start;
#X obj 29 67 route float fade;
#X msg 75 303 fade \$1;
#X obj 188 104 route start stop set rate maxtime;
#X obj 188 193 tgl 15 0 empty empty empty 17 7 0 10 #fcfcfc #000000 #000000 0 1;
#X obj 188 220 change;
#N canvas 512 313 301 361 maxtime 0;
#X obj 81 65 v max_time_\$0;
#X obj 81 115 sel 1;
#X obj 108 210 del;
#X obj 81 31 inlet;
#X obj 108 283 outlet;
#X obj 108 236 v status_\$0;
#X obj 108 259 sel 1;
#X obj 81 93 > 0;
#X obj 81 140 expr max_time_\$0 - fade_\$0 \; fade_\$0;
#X obj 81 185 moses;
#X connect 0 0 7 0;
#X connect 1 0 8 0;
#X connect 2 0 5 0;
#X connect 3 0 0 0;
#X connect 5 0 6 0;
#X connect 6 0 4 0;
#X connect 7 0 1 0;
#X connect 8 0 9 0;
#X connect 8 1 9 1;
#X connect 9 1 2 0;
#X restore 121 268 pd maxtime;
#X obj 351 128 v max_time_\$0;
#X obj 210 198 v status_\$0;
#X obj 75 272 max 0;
#X obj 269 253 r \$0-set-fade;
#X obj 254 413 t b a;
#X obj 254 458 s \$0-done;
#X obj 496 123 r \$0-filename;
#X obj 445 121 symbol;
#X obj 445 98 loadbang;
#X obj 445 197 else/dir 1;
#X msg 445 171 dir;
#X obj 464 241 else/format %s/%s;
#X obj 445 146 t b s;
#X connect 0 0 20 0;
#X connect 2 0 37 0;
#X connect 3 0 4 0;
#X connect 4 0 30 0;
#X connect 5 0 6 0;
#X connect 7 0 6 0;
#X connect 8 0 7 0;
#X connect 8 0 15 0;
#X connect 8 0 25 0;
#X connect 8 1 5 0;
#X connect 8 1 3 0;
#X connect 9 0 23 0;
#X connect 10 0 23 0;
#X connect 11 0 23 0;
#X connect 12 0 13 0;
#X connect 12 1 2 0;
#X connect 13 0 16 0;
#X connect 14 0 13 0;
#X connect 15 0 19 0;
#X connect 16 0 15 1;
#X connect 17 0 15 0;
#X connect 18 0 17 0;
#X connect 19 0 1 0;
#X connect 20 0 11 0;
#X connect 20 1 28 0;
#X connect 20 2 22 0;
#X connect 21 0 6 0;
#X connect 22 0 9 0;
#X connect 22 1 10 0;
#X connect 22 2 12 0;
#X connect 22 3 17 0;
#X connect 22 4 26 0;
#X connect 23 0 24 0;
#X connect 23 0 27 0;
#X connect 24 0 8 0;
#X connect 25 0 23 0;
#X connect 28 0 21 0;
#X connect 28 0 3 1;
#X connect 29 0 3 1;
#X connect 30 0 31 0;
#X connect 30 1 1 0;
#X connect 32 0 33 1;
#X connect 33 0 38 0;
#X connect 34 0 33 0;
#X connect 35 1 37 0;
#X connect 36 0 35 0;
#X connect 37 0 16 0;
#X connect 38 0 36 0;
#X connect 38 1 37 1;
#X restore 65 89 pd messages;
#X obj 65 54 inlet;
#N canvas 163 182 750 506 dynamic-patching 0;
#X obj 246 168 else/loop;
#X obj 246 246 + 20;
#X obj 246 191 t f f, f 6;
#X obj 246 382 s \$0-sampler;
#X obj 246 217 * 15;
#N canvas 239 312 971 593 load_args 0;
#X obj 75 37 inlet;
#X obj 311 192 s \$0-filename;
#X obj 75 141 else/args;
#X obj 75 195 else/break -;
#X obj 249 191 v ch_\$0;
#X msg 249 164 1;
#X obj 75 169 trigger abything bang;
#X obj 160 440 v ch_\$0;
#X obj 160 417 clip 1 64;
#X obj 75 254 route bang symbol float list -fade -maxtime;
#X obj 117 465 s \$0-filename;
#X obj 213 392 v fade_\$0;
#X msg 311 93 symbol file.wav;
#X msg 213 194 10;
#X obj 287 345 v max_time_\$0;
#X obj 287 325 max 0;
#X obj 245 371 s \$0-set-fade;
#X obj 134 353 list split 1;
#X obj 85 383 route float;
#X obj 245 342 max 0;
#N canvas 47 74 450 300 check 0;
#X obj 194 104 list split 1;
#X obj 228 129 route bang;
#X obj 194 162 else/swap2;
#X obj 131 76 route float;
#X obj 131 39 inlet;
#X obj 131 217 outlet;
#X obj 222 202 s \$0-reroute;
#X connect 0 0 2 0;
#X connect 0 1 1 0;
#X connect 1 1 2 1;
#X connect 2 0 6 0;
#X connect 2 1 5 0;
#X connect 3 0 5 0;
#X connect 3 1 0 0;
#X connect 4 0 3 0;
#X restore 287 296 pd check;
#X obj 104 223 r \$0-reroute;
#N canvas 47 74 450 300 check 0;
#X obj 194 104 list split 1;
#X obj 228 129 route bang;
#X obj 194 162 else/swap2;
#X obj 131 76 route float;
#X obj 131 39 inlet;
#X obj 131 217 outlet;
#X obj 222 202 s \$0-reroute;
#X connect 0 0 2 0;
#X connect 0 1 1 0;
#X connect 1 1 2 1;
#X connect 2 0 6 0;
#X connect 2 1 5 0;
#X connect 3 0 5 0;
#X connect 3 1 0 0;
#X connect 4 0 3 0;
#X restore 231 296 pd check;
#X connect 0 0 2 0;
#X connect 2 0 6 0;
#X connect 3 0 9 0;
#X connect 5 0 4 0;
#X connect 6 0 3 0;
#X connect 6 1 5 0;
#X connect 6 1 12 0;
#X connect 6 1 13 0;
#X connect 8 0 7 0;
#X connect 9 1 10 0;
#X connect 9 2 8 0;
#X connect 9 3 17 0;
#X connect 9 4 22 0;
#X connect 9 5 20 0;
#X connect 12 0 1 0;
#X connect 13 0 11 0;
#X connect 15 0 14 0;
#X connect 17 0 18 0;
#X connect 17 1 8 0;
#X connect 18 1 10 0;
#X connect 19 0 16 0;
#X connect 19 0 11 0;
#X connect 20 0 15 0;
#X connect 21 0 9 0;
#X connect 22 0 19 0;
#X restore 293 74 pd load_args;
#X obj 225 74 v ch_\$0;
#X obj 158 44 else/loadbanger -init 3;
#X obj 154 371 s \$0-fade;
#X msg 154 343 fade \$1;
#X obj 127 279 v fade_\$0;
#X obj 127 314 moses;
#X obj 225 99 trigger float float;
#X obj 280 247 + 1;
#X obj 222 144 moses 1;
#X obj 315 247 + 11;
#X obj 225 120 - 1;
#X msg 379 299 obj 150 225 else/autofade~ 10 \$1 \, obj 150 280 writesf~ \$1 \, connect 2 0 8 0 \, connect 3 0 9 0 \, obj 5 50 inlet~ \, connect 10 1 0 0 \, \, connect 10 0 8 0 \, connect 8 0 9 0, f 46;
#X msg 246 302 obj \$1 50 inlet~ \, connect \$3 0 8 \$2 \, connect 8 \$2 9 \$2, f 18;
#X obj 246 277 pack f f f, f 12;
#X connect 0 0 2 0;
#X connect 1 0 19 0;
#X connect 2 0 4 0;
#X connect 2 1 13 0;
#X connect 2 1 15 0;
#X connect 4 0 1 0;
#X connect 6 0 12 0;
#X connect 7 0 10 0;
#X connect 7 1 6 0;
#X connect 7 2 5 0;
#X connect 9 0 8 0;
#X connect 10 0 11 0;
#X connect 11 1 9 0;
#X connect 12 0 16 0;
#X connect 12 1 17 0;
#X connect 13 0 19 1;
#X connect 14 1 0 0;
#X connect 15 0 19 2;
#X connect 16 0 14 0;
#X connect 17 0 3 0;
#X connect 18 0 3 0;
#X connect 19 0 18 0;
#X restore 178 90 pd dynamic-patching;
#X connect 1 0 0 0;
#X restore 363 118 pd guts;
#X obj 364 140 namecanvas \$0-sampler;
#X obj 77 181 r \$0-fade;
#X obj 74 248 r \$0-write;
#X obj 364 368 outlet;
#X text 76 410 Alexandre Torres Porres (2018);
#X text 74 429 Part of ELSE \; https://github.com/porres/pd-else;
#X obj 364 322 r \$0-done;
#X connect 7 0 4 0;
