#N canvas 581 87 577 412 12;
#X obj 128 193 * 2;
#X msg 128 256 size \$1;
#X obj 199 186 /;
#X msg 199 157 1000 \$1;
#X obj 199 77 loadbang;
#X obj 199 125 route float;
#X msg 77 193 clear;
#X obj 128 71 route resize clear, f 6;
#X obj 199 269 *~ 2000;
#X obj 199 215 phasor~ 1;
#X text 305 159 Part of ELSE \; https://github.com/porres/pd-else;
#X text 307 140 Alexandre Torres Porres (2020);
#X obj 199 101 else/args;
#X obj 35 19 inlet~;
#X obj 34 339 outlet~;
#X obj 34 299 else/ffdelay~ -size 2000;
#X connect 0 0 1 0;
#X connect 0 0 8 1;
#X connect 1 0 15 0;
#X connect 2 0 9 0;
#X connect 3 0 2 0;
#X connect 4 0 12 0;
#X connect 5 0 3 0;
#X connect 5 0 0 0;
#X connect 6 0 15 0;
#X connect 7 0 0 0;
#X connect 7 0 3 0;
#X connect 7 1 6 0;
#X connect 8 0 15 1;
#X connect 9 0 8 0;
#X connect 12 0 5 0;
#X connect 13 0 15 0;
#X connect 13 1 7 0;
#X connect 15 0 14 0;
