#N canvas 346 277 631 367 10;
#X obj 133 150 *~;
#X obj 74 55 inlet~;
#X obj 74 310 outlet~;
#X text 325 26 Hz;
#X text 74 34 input;
#X text 357 162 Part of ELSE \; https://github.com/porres/pd-else;
#X obj 222 54 inlet~;
#X obj 222 28 else/initmess \$1;
#X obj 222 238 else/glide~ 10;
#X obj 222 209 else/op~ != 0;
#X obj 133 214 *~;
#X obj 74 206 *~;
#X obj 236 105 else/op~ == 0;
#X obj 236 135 else/glide~ 10;
#X obj 74 246 +~;
#X obj 148 125 else/sine~;
#X text 359 143 Alexandre Torres Porres (2018-2026);
#X connect 0 0 10 0;
#X connect 1 0 0 0;
#X connect 1 0 11 0;
#X connect 6 0 9 0;
#X connect 6 0 12 0;
#X connect 6 0 15 0;
#X connect 7 0 6 0;
#X connect 8 0 10 1;
#X connect 9 0 8 0;
#X connect 10 0 14 1;
#X connect 11 0 14 0;
#X connect 12 0 13 0;
#X connect 13 0 11 1;
#X connect 14 0 2 0;
#X connect 15 0 0 1;
