#N canvas 415 176 898 365 10;
#X obj 73 25 inlet;
#N canvas 172 51 533 410 rename 0;
#X obj 319 189 r \$0-name;
#X obj 59 76 symbol;
#X obj 59 50 inlet;
#X obj 135 138 v ch_\$0;
#X obj 135 161 sel 1;
#X obj 212 130 s \$0-new-name;
#X obj 390 190 r \$0-new-name;
#X obj 59 132 s \$0-name;
#X obj 59 105 trigger symbol bang symbol;
#X obj 204 285 r \$0-name;
#X obj 147 251 r \$0-new-name;
#X obj 249 217 pack float symbol symbol;
#X msg 249 242 \; \$1-\$2 rename \$1-\$3;
#X msg 147 283 set \$1;
#X msg 135 337 \; \$1 rename \$2;
#X obj 135 311 else/merge;
#X obj 162 186 else/loop;
#X connect 0 0 11 1;
#X connect 1 0 8 0;
#X connect 2 0 1 0;
#X connect 3 0 4 0;
#X connect 4 0 15 0;
#X connect 4 1 16 0;
#X connect 6 0 11 2;
#X connect 8 0 7 0;
#X connect 8 1 3 0;
#X connect 8 2 5 0;
#X connect 9 0 15 1;
#X connect 10 0 13 0;
#X connect 11 0 12 0;
#X connect 13 0 15 0;
#X connect 15 0 14 0;
#X connect 16 0 11 0;
#X restore 132 105 pd rename;
#N canvas 136 250 479 442 \$0-buffers 0;
#X obj 6 20 cnv 15 448 80 empty empty empty 3 10 2 14 #e0e0e0 #404040 0;
#N canvas 0 22 450 300 ch0_1150 0;
#X array 0-1049-sample 87741 float 2;
#X coords 0 1 87741 -1 450 82 2 0 0;
#X restore 5 19 pd ch0_1150;
#X obj 6 120 cnv 15 448 80 empty empty empty 3 10 2 14 #e0e0e0 #404040 0;
#N canvas 0 22 450 300 ch1_1150 0;
#X array 1-1049-sample 87741 float 2;
#X coords 0 1 87741 -1 450 82 2 0 0;
#X restore 5 119 pd ch1_1150;
#X coords 0 0 0 0 10 20 0;
#X restore 726 182 pd \$0-buffers;
#N canvas 386 286 457 330 clear 0;
#X obj 301 150 r \$0-name;
#X obj 202 177 pack float symbol;
#X msg 202 201 \; \$1-\$2 const 0;
#X obj 88 25 inlet;
#X obj 88 94 v ch_\$0;
#X obj 88 58 t b f;
#X obj 88 117 sel 1;
#X obj 121 168 r \$0-name;
#X obj 88 218 pack s f;
#X obj 88 189 symbol;
#X msg 88 246 \; \$1 const 0;
#X obj 202 151 else/loop;
#X connect 0 0 1 1;
#X connect 1 0 2 0;
#X connect 3 0 5 0;
#X connect 4 0 6 0;
#X connect 5 0 4 0;
#X connect 5 1 8 1;
#X connect 6 0 9 0;
#X connect 6 1 11 0;
#X connect 7 0 9 1;
#X connect 8 0 10 0;
#X connect 9 0 8 0;
#X connect 11 0 1 0;
#X restore 73 105 pd clear;
#N canvas 727 241 451 529 vis 0;
#X msg 293 375 vis \$1;
#X msg 234 336 1;
#X msg 293 335 0;
#X obj 293 416 send pd-\$0-buffers;
#X obj 234 51 inlet;
#X obj 293 49 inlet;
#X obj 33 118 else/click;
#X obj 65 148 else/keypress -toggle Shift_L, f 15;
#X obj 127 183 else/keypress -toggle Shift_R, f 15;
#X obj 65 196 else/hot;
#X obj 95 221 ||;
#X obj 32 249 else/router;
#X obj 32 292 s \$0-openpannel;
#X connect 0 0 3 0;
#X connect 1 0 0 0;
#X connect 2 0 0 0;
#X connect 4 0 1 0;
#X connect 5 0 2 0;
#X connect 6 0 11 0;
#X connect 7 0 9 0;
#X connect 8 0 9 1;
#X connect 9 0 10 0;
#X connect 9 1 10 1;
#X connect 10 0 11 1;
#X connect 11 0 12 0;
#X connect 11 1 1 0;
#X restore 217 105 pd vis;
#N canvas 445 200 495 313 norm 0;
#X obj 107 96 v ch_\$0;
#X obj 356 148 r \$0-name;
#X obj 107 42 inlet;
#X obj 107 68 trigger bang float;
#X obj 221 174 pack float float symbol;
#X msg 221 198 \; \$1-\$3 normalize \$2;
#X obj 107 120 sel 1;
#X obj 140 178 r \$0-name;
#X obj 107 204 symbol;
#X obj 107 241 pack s f;
#X msg 108 269 \; \$1 normalize \$2;
#X obj 198 148 else/loop;
#X connect 0 0 6 0;
#X connect 1 0 4 2;
#X connect 2 0 3 0;
#X connect 3 0 0 0;
#X connect 3 1 4 1;
#X connect 3 1 9 1;
#X connect 4 0 5 0;
#X connect 6 0 8 0;
#X connect 6 1 11 0;
#X connect 7 0 8 1;
#X connect 8 0 9 0;
#X connect 9 0 10 0;
#X connect 11 0 4 0;
#X restore 427 105 pd norm;
#N canvas 576 164 655 482 resize 0;
#X obj 317 230 s \$0-size;
#X obj 169 71 inlet;
#X obj 122 239 v ch_\$0;
#X obj 361 335 r \$0-name;
#X obj 226 360 pack float float symbol;
#X obj 266 175 t b f;
#X obj 122 281 sel 1;
#X obj 165 268 r \$0-name;
#X obj 132 360 pack s f;
#X obj 132 335 symbol;
#X msg 226 388 \; \$1-\$3 resize \$2;
#X msg 132 388 \; \$1 resize \$2;
#X obj 263 98 r \$0-size;
#X obj 266 147 change;
#X obj 226 335 else/loop;
#X obj 168 115 else/ms2samps;
#X obj 122 260 max 1;
#X obj 123 210 del 5;
#X connect 1 0 15 0;
#X connect 2 0 16 0;
#X connect 3 0 4 2;
#X connect 4 0 10 0;
#X connect 5 0 17 0;
#X connect 5 1 4 1;
#X connect 5 1 8 1;
#X connect 5 1 0 0;
#X connect 6 0 9 0;
#X connect 6 1 14 0;
#X connect 7 0 9 1;
#X connect 8 0 11 0;
#X connect 9 0 8 0;
#X connect 12 0 13 0;
#X connect 13 0 5 0;
#X connect 14 0 4 0;
#X connect 15 0 13 0;
#X connect 16 0 6 0;
#X connect 17 0 2 0;
#X restore 311 105 pd resize;
#N canvas 235 165 1138 626 init-buffers 0;
#X obj 620 360 send pd-\$0-buffers;
#X msg 620 199 \$1;
#X obj 515 77 inlet;
#X obj 718 237 - 1;
#X obj 669 212 + 20;
#X obj 669 234 t f f;
#X obj 669 189 * 100;
#X obj 620 263 pack float float float \$0;
#X obj 515 276 list append \$0;
#X obj 620 221 t f f;
#X msg 620 292 obj 6 \$2 cnv 15 448 80 empty empty empty 3 10 2 14 -233017 -66577 0 \, obj 5 \$3 pd ch\$1_\$4;
#X msg 556 390 \; pd-ch\$1_\$4 array \$1-\$2 \$3 float 2 \, coords 0 1 \$3 -1 450 82 2 0 0 \, vis 0;
#X obj 354 77 inlet;
#X obj 354 382 list append \$0;
#X msg 395 443 \; pd-ch\$1_\$4 array \$2 \$3 float 2 \, coords 0 1 \$3 -1 450 82 2 0 0 \, vis 0;
#X obj 529 114 r \$0-init-multichannel;
#X obj 373 115 r \$0-init-mono;
#X obj 160 243 v ch_\$0;
#X obj 286 274 r \$0-name;
#X obj 160 285 sel 1;
#X obj 113 336 symbol;
#X obj 187 336 else/loop;
#X msg 113 389 \; \$1 edit 0;
#X obj 187 361 pack float symbol;
#X msg 187 389 \; \$1-\$2 edit 0;
#X obj 160 264 clip 1 64;
#X obj 354 148 trigger bang list list;
#X obj 515 148 t b l l, f 18;
#X obj 354 176 del 5;
#X connect 1 0 9 0;
#X connect 2 0 27 0;
#X connect 3 0 7 2;
#X connect 4 0 5 0;
#X connect 5 0 7 1;
#X connect 5 1 3 0;
#X connect 6 0 4 0;
#X connect 7 0 10 0;
#X connect 8 0 11 0;
#X connect 9 0 7 0;
#X connect 9 1 6 0;
#X connect 10 0 0 0;
#X connect 11 0 0 0;
#X connect 12 0 26 0;
#X connect 13 0 14 0;
#X connect 14 0 0 0;
#X connect 15 0 27 0;
#X connect 16 0 26 0;
#X connect 17 0 25 0;
#X connect 18 0 23 1;
#X connect 18 0 20 1;
#X connect 19 0 20 0;
#X connect 19 1 21 0;
#X connect 20 0 22 0;
#X connect 21 0 23 0;
#X connect 23 0 24 0;
#X connect 25 0 19 0;
#X connect 26 0 28 0;
#X connect 26 1 13 0;
#X connect 26 2 1 0;
#X connect 27 0 28 0;
#X connect 27 1 8 0;
#X connect 27 2 1 0;
#X connect 28 0 17 0;
#X restore 731 113 pd init-buffers;
#N canvas 549 256 393 515 channels 0;
#X obj 78 438 outlet;
#X obj 192 438 outlet;
#X obj 78 32 inlet;
#X obj 97 240 v ch_\$0;
#X obj 220 318 r \$0-name;
#X obj 249 346 r \$0-size;
#X obj 192 388 pack f s f;
#X obj 78 279 sel 1;
#X obj 78 375 pack f s f;
#X obj 78 78 max 1;
#X obj 78 105 min 64;
#X obj 78 166 change;
#X obj 78 202 t f f b;
#X obj 155 261 send pd-\$0-buffers;
#X msg 155 232 clear;
#X obj 155 198 s \$0-reset-buf-names;
#X obj 145 62 r \$0-set-buff;
#X msg 145 83 1;
#X obj 145 104 t b f;
#X obj 145 155 s \$0-size;
#X obj 145 135 v \$0-size;
#X obj 105 315 else/loop;
#X connect 2 0 9 0;
#X connect 4 0 6 1;
#X connect 4 0 8 1;
#X connect 5 0 6 2;
#X connect 5 0 8 2;
#X connect 6 0 1 0;
#X connect 7 0 8 0;
#X connect 7 1 21 0;
#X connect 8 0 0 0;
#X connect 9 0 10 0;
#X connect 10 0 11 0;
#X connect 11 0 12 0;
#X connect 12 0 7 0;
#X connect 12 1 3 0;
#X connect 12 2 15 0;
#X connect 12 2 14 0;
#X connect 14 0 13 0;
#X connect 16 0 17 0;
#X connect 17 0 18 0;
#X connect 18 0 20 0;
#X connect 18 1 11 0;
#X connect 20 0 19 0;
#X connect 21 0 6 0;
#X restore 731 72 pd channels;
#X obj 545 318 outlet;
#X obj 545 105 route bang;
#N canvas 322 87 549 433 init 0;
#N canvas 428 102 676 720 args 0;
#X obj 232 306 s \$0-name;
#X obj 56 43 inlet;
#X obj 110 166 max 1;
#X obj 56 72 trigger bang bang;
#X msg 214 348 1;
#X obj 214 374 v name_arg_\$0;
#X obj 56 111 v name_arg_\$0;
#X obj 56 144 sel 1 0;
#X obj 110 257 s \$0-size;
#X obj 293 492 symbol;
#X msg 352 459 1;
#X obj 352 485 v file_arg_\$0;
#X obj 56 387 v file_arg_\$0;
#X obj 293 524 s \$0-file;
#X obj 349 339 v ch_\$0;
#X obj 121 232 s \$0-resize;
#X msg 121 199 0;
#X obj 75 290 symbol sample_\\\$0;
#X obj 75 313 else/dollsym 1;
#X obj 155 97 else/args -;
#N canvas 196 188 532 365 route 0;
#X obj 95 39 inlet;
#X obj 167 300 outlet;
#X obj 240 300 outlet;
#X obj 119 78 r \$0-reroute;
#N canvas 415 192 260 300 split 0;
#X obj 100 40 inlet;
#X obj 100 85 list split 1;
#X obj 59 161 route bang;
#X obj 77 128 else/swap2;
#X obj 51 201 s \$0-reroute;
#X obj 134 241 outlet;
#X connect 0 0 1 0;
#X connect 1 0 3 0;
#X connect 1 1 3 1;
#X connect 2 1 4 0;
#X connect 3 0 2 0;
#X connect 3 1 5 0;
#X restore 95 171 pd split;
#X obj 459 300 outlet;
#N canvas 415 192 260 300 split 0;
#X obj 100 40 inlet;
#X obj 100 85 list split 1;
#X obj 59 161 route bang;
#X obj 77 128 else/swap2;
#X obj 51 201 s \$0-reroute;
#X obj 134 241 outlet;
#X connect 0 0 1 0;
#X connect 1 0 3 0;
#X connect 1 1 3 1;
#X connect 2 1 4 0;
#X connect 3 0 2 0;
#X connect 3 1 5 0;
#X restore 240 171 pd split;
#N canvas 415 192 305 406 split 0;
#X obj 100 40 inlet;
#X obj 100 85 list split 1;
#X obj 59 161 route bang;
#X obj 77 128 else/swap2;
#X obj 51 201 s \$0-reroute;
#X obj 134 295 outlet;
#X obj 139 238 else/ms2samps;
#X connect 0 0 1 0;
#X connect 1 0 3 0;
#X connect 1 1 3 1;
#X connect 2 1 4 0;
#X connect 3 0 2 0;
#X connect 3 1 6 0;
#X connect 6 0 5 0;
#X restore 167 171 pd split;
#X obj 95 109 route -size -ms -ch -depth -sr, f 61;
#N canvas 415 192 260 300 split 0;
#X obj 100 40 inlet;
#X obj 100 85 list split 1;
#X obj 59 161 route bang;
#X obj 77 128 else/swap2;
#X obj 51 201 s \$0-reroute;
#X obj 134 241 outlet;
#X connect 0 0 1 0;
#X connect 1 0 3 0;
#X connect 1 1 3 1;
#X connect 2 1 4 0;
#X connect 3 0 2 0;
#X connect 3 1 5 0;
#X restore 312 171 pd split;
#N canvas 415 192 260 300 split 0;
#X obj 100 40 inlet;
#X obj 100 85 list split 1;
#X obj 59 161 route bang;
#X obj 77 128 else/swap2;
#X obj 51 201 s \$0-reroute;
#X obj 134 241 outlet;
#X connect 0 0 1 0;
#X connect 1 0 3 0;
#X connect 1 1 3 1;
#X connect 2 1 4 0;
#X connect 3 0 2 0;
#X connect 3 1 5 0;
#X restore 385 171 pd split;
#X obj 312 227 s \$0-set-bytes;
#X obj 385 196 s \$0-sr;
#X obj 404 51 inlet;
#X connect 0 0 8 0;
#X connect 3 0 8 0;
#X connect 4 0 1 0;
#X connect 6 0 2 0;
#X connect 7 0 1 0;
#X connect 8 0 7 0;
#X connect 8 2 6 0;
#X connect 8 3 9 0;
#X connect 8 4 10 0;
#X connect 8 5 5 0;
#X connect 9 0 11 0;
#X connect 10 0 12 0;
#X connect 13 0 7 0;
#X restore 155 131 pd route;
#X obj 349 315 clip 1 64;
#X obj 261 465 sel 0 1;
#X obj 260 573 outlet;
#X text 197 604 if no file name is given \, initialize buffer with default or given args, f 36;
#X obj 232 161 unpack symbol symbol float float float;
#X obj 75 350 trigger bang symbol;
#X obj 457 191 max 0;
#X obj 457 226 v onset_\$0;
#X obj 280 102 unpack s s;
#X connect 1 0 3 0;
#X connect 2 0 8 0;
#X connect 2 0 16 0;
#X connect 3 0 6 0;
#X connect 3 1 19 0;
#X connect 4 0 5 0;
#X connect 6 0 7 0;
#X connect 7 0 12 0;
#X connect 7 1 17 0;
#X connect 9 0 13 0;
#X connect 10 0 11 0;
#X connect 12 0 22 0;
#X connect 16 0 15 0;
#X connect 17 0 18 0;
#X connect 18 0 26 0;
#X connect 19 0 20 0;
#X connect 20 0 2 0;
#X connect 20 1 21 0;
#X connect 20 2 25 0;
#X connect 21 0 14 0;
#X connect 22 0 23 0;
#X connect 22 1 9 0;
#X connect 25 0 0 0;
#X connect 25 0 4 0;
#X connect 25 1 10 0;
#X connect 25 1 9 1;
#X connect 25 2 21 0;
#X connect 25 3 20 1;
#X connect 25 4 27 0;
#X connect 26 0 12 0;
#X connect 26 1 0 0;
#X connect 27 0 28 0;
#X connect 29 0 0 0;
#X connect 29 0 4 0;
#X connect 29 1 10 0;
#X connect 29 1 9 1;
#X restore 109 314 pd args;
#X obj 167 156 samplerate~;
#X obj 167 186 s \$0-sr;
#X obj 265 193 send pd-\$0-buffers;
#X msg 265 145 clear;
#X obj 256 258 v ch_\$0;
#X msg 244 231 0;
#X obj 244 292 v \$0-size;
#X obj 109 54 else/loadbanger -init 2;
#X obj 325 155 s \$0-name;
#X obj 325 106 symbol sample_\\\$0;
#X obj 325 129 else/dollsym 1;
#N canvas 270 288 518 522 s-arrays 0;
#X obj 272 144 r \$0-name;
#X obj 313 189 r \$0-size;
#X obj 130 132 sel 1;
#X obj 157 162 else/loop;
#X obj 110 33 inlet;
#X obj 243 358 list prepend;
#X obj 243 385 list;
#X msg 243 330 \$1-\$2;
#X msg 182 357 \$2;
#X obj 300 167 r \$0-sr;
#X obj 243 228 pack f s f;
#X obj 130 228 pack f s f;
#X obj 243 446 s \$0-arrays;
#X obj 130 103 clip 1 64;
#X obj 110 70 v ch_\$0;
#X obj 261 300 s \$0-init-mono;
#X obj 260 270 s \$0-init-multichannel;
#X connect 0 0 10 1;
#X connect 0 0 11 1;
#X connect 1 0 10 2;
#X connect 1 0 11 2;
#X connect 2 0 11 0;
#X connect 2 1 3 0;
#X connect 3 0 10 0;
#X connect 4 0 14 0;
#X connect 5 0 6 0;
#X connect 6 0 5 1;
#X connect 6 0 12 0;
#X connect 7 0 5 0;
#X connect 8 0 12 0;
#X connect 9 0 10 2;
#X connect 9 0 11 2;
#X connect 10 0 7 0;
#X connect 10 0 16 0;
#X connect 11 0 8 0;
#X connect 11 0 15 0;
#X connect 13 0 2 0;
#X connect 13 0 14 0;
#X connect 14 0 13 0;
#X restore 109 345 pd s-arrays;
#X connect 0 0 12 0;
#X connect 1 0 2 0;
#X connect 4 0 3 0;
#X connect 6 0 5 0;
#X connect 6 0 7 0;
#X connect 8 0 0 0;
#X connect 8 1 4 0;
#X connect 8 1 1 0;
#X connect 8 1 6 0;
#X connect 8 1 10 0;
#X connect 10 0 11 0;
#X connect 11 0 9 0;
#X restore 761 159 pd init;
#X obj 579 209 loadbang;
#N canvas 281 274 742 612 open/save 0;
#X obj 219 203 symbol;
#X obj 142 121 route bang;
#X obj 142 162 openpanel;
#X obj 364 328 t l l, f 6;
#X msg 364 363 \$1;
#X obj 313 116 route bang, f 15;
#X obj 338 278 list length;
#X obj 338 252 t l l;
#X obj 307 278 > 1;
#X obj 364 306 list;
#X obj 307 304 sel 0 1;
#X obj 329 335 list;
#X obj 313 139 savepanel;
#X obj 213 539 outlet;
#X obj 54 22 inlet;
#X msg 441 282 \$2;
#X msg 515 368 -wave;
#X msg 562 366 -aiff;
#X obj 463 400 r \$0-bytes;
#N canvas 169 103 387 284 bytes 0;
#X obj 113 64 inlet;
#X obj 113 134 route 8 16 24 32 64;
#X msg 142 171 2;
#X msg 172 171 3;
#X msg 202 171 4;
#X obj 202 206 s \$0-bytes;
#X msg 232 171 8;
#X msg 109 170 1;
#X obj 143 100 r \$0-set-bytes;
#X connect 0 0 1 0;
#X connect 1 0 7 0;
#X connect 1 1 2 0;
#X connect 1 2 3 0;
#X connect 1 3 4 0;
#X connect 1 4 6 0;
#X connect 2 0 5 0;
#X connect 3 0 5 0;
#X connect 4 0 5 0;
#X connect 6 0 5 0;
#X connect 8 0 1 0;
#X restore 318 85 pd bytes;
#X obj 406 84 s \$0-sr;
#X obj 409 400 r \$0-sr;
#X obj 364 468 list prepend;
#X obj 441 311 route wav aiff aif caf, f 41;
#X msg 607 366 -caf;
#N canvas 150 246 746 682 check 0;
#X obj 144 277 file which;
#X obj 144 251 list append 1;
#X obj 94 59 inlet;
#X obj 144 217 list split 1, f 14;
#X obj 94 126 list;
#X obj 345 438 list;
#N canvas 128 73 401 365 start 0;
#X obj 149 167 r \$0-read;
#X obj 136 287 outlet;
#X obj 136 44 inlet;
#X msg 149 188 0;
#X obj 136 225 max 0;
#X connect 0 0 3 0;
#X connect 2 0 4 0;
#X connect 3 0 4 0;
#X connect 4 0 1 0;
#X restore 507 345 pd start;
#X obj 366 306 unpack float float float;
#N canvas 829 146 372 371 size 0;
#X obj 231 266 outlet;
#X obj 123 88 inlet;
#X obj 153 132 r \$0-read;
#X obj 153 160 v \$0-size;
#X obj 136 202 else/spread -mode 1 0;
#X msg 136 223 -1;
#X connect 1 0 4 0;
#X connect 2 0 3 0;
#X connect 3 0 4 0;
#X connect 4 0 5 0;
#X connect 4 1 0 0;
#X connect 5 0 0 0;
#X restore 436 334 pd size;
#N canvas 159 272 437 512 ch 0;
#X obj 209 121 inlet;
#X obj 237 292 v ch_\$0;
#X obj 237 249 r \$0-read;
#X obj 90 104 inlet;
#X obj 194 343 f;
#X obj 194 407 outlet;
#X obj 90 269 symbol;
#X obj 90 145 t b s;
#X obj 90 239 sel 1 0;
#X obj 90 210 <= 0;
#X obj 90 186 f;
#X obj 90 327 else/sfinfo;
#X obj 90 348 route channels;
#X msg 90 301 read \$1 \, channels;
#X connect 0 0 4 1;
#X connect 0 0 10 1;
#X connect 1 0 4 1;
#X connect 1 0 10 1;
#X connect 2 0 1 0;
#X connect 3 0 7 0;
#X connect 4 0 5 0;
#X connect 6 0 13 0;
#X connect 7 0 10 0;
#X connect 7 1 6 1;
#X connect 8 0 6 0;
#X connect 8 1 4 0;
#X connect 9 0 8 0;
#X connect 10 0 9 0;
#X connect 11 0 12 0;
#X connect 12 0 5 0;
#X connect 13 0 11 0;
#X restore 480 428 pd ch;
#X obj 144 528 outlet;
#X obj 345 528 outlet;
#X obj 201 338 print Warning;
#X obj 65 236 s \$0-read;
#X obj 480 528 outlet;
#X obj 366 282 list;
#X obj 144 364 trigger symbol bang symbol bang;
#X obj 424 528 outlet;
#X msg 201 302 [sample~] \$1 file not found, f 15;
#X text 77 254 load;
#X text 95 39 load;
#X obj 144 59 inlet;
#X text 144 36 open;
#X obj 94 154 t s b;
#X obj 186 104 r \$0-file;
#X text 250 103 arg;
#X obj 186 151 list;
#X obj 186 125 t a b;
#X text 345 555 start;
#X text 430 555 size;
#X text 484 555 ch;
#X text 145 555 file;
#X obj 226 146 else/var ch_\$0 ms_\$0 onset_\$0;
#X connect 0 0 16 0;
#X connect 0 1 18 0;
#X connect 1 0 0 0;
#X connect 2 0 4 0;
#X connect 3 0 1 0;
#X connect 3 1 15 1;
#X connect 4 0 23 0;
#X connect 5 0 11 0;
#X connect 6 0 5 1;
#X connect 7 0 9 1;
#X connect 7 1 8 0;
#X connect 7 2 6 0;
#X connect 8 0 17 0;
#X connect 9 0 14 0;
#X connect 15 0 7 0;
#X connect 16 0 10 0;
#X connect 16 1 5 0;
#X connect 16 2 9 0;
#X connect 16 3 15 0;
#X connect 18 0 12 0;
#X connect 21 0 3 0;
#X connect 23 0 3 0;
#X connect 23 1 13 0;
#X connect 24 0 27 0;
#X connect 26 0 3 0;
#X connect 27 0 26 0;
#X connect 27 1 32 0;
#X connect 32 0 26 1;
#X restore 248 168 pd check;
#X f 9;
#X obj 293 539 outlet;
#X obj 220 288 list;
#X obj 31 125 route bang;
#X obj 26 160 openpanel;
#X obj 433 436 else/pack2 write -rate 0 -bytes 2 -aiff, f 22;
#X obj 54 58 route open load save depth sr, f 74;
#X obj 441 255 file splitext;
#X obj 338 189 file splitext;
#X obj 562 414 symbol;
#X obj 238 334 list, f 5;
#X obj 365 502 s \$0-write-file;
#X obj 91 211 list append -1 -1 0;
#X obj 68 89 r \$0-openpannel;
#X connect 0 0 32 0;
#X connect 0 0 27 0;
#X connect 1 0 2 0;
#X connect 1 1 25 0;
#X connect 2 0 0 0;
#X connect 3 0 4 0;
#X connect 3 1 15 0;
#X connect 4 0 22 0;
#X connect 5 0 12 0;
#X connect 5 1 33 0;
#X connect 6 0 8 0;
#X connect 7 0 6 0;
#X connect 7 1 9 1;
#X connect 7 1 11 1;
#X connect 8 0 10 0;
#X connect 9 0 3 0;
#X connect 10 0 11 0;
#X connect 10 1 9 0;
#X connect 11 0 4 0;
#X connect 12 0 33 0;
#X connect 14 0 31 0;
#X connect 15 0 23 0;
#X connect 16 0 34 0;
#X connect 17 0 34 0;
#X connect 18 0 30 4;
#X connect 21 0 30 2;
#X connect 22 0 36 0;
#X connect 23 0 16 0;
#X connect 23 1 17 0;
#X connect 23 2 17 0;
#X connect 23 3 24 0;
#X connect 24 0 34 0;
#X connect 25 0 0 0;
#X connect 25 1 35 1;
#X connect 25 2 27 1;
#X connect 25 3 26 0;
#X connect 27 0 35 0;
#X connect 28 0 29 0;
#X connect 28 1 37 0;
#X connect 29 0 37 0;
#X connect 30 0 22 1;
#X connect 31 0 28 0;
#X connect 31 2 5 0;
#X connect 31 3 19 0;
#X connect 31 4 20 0;
#X connect 32 0 15 0;
#X connect 33 0 7 0;
#X connect 34 0 30 5;
#X connect 35 0 13 0;
#X connect 37 0 25 1;
#X connect 38 0 28 0;
#X restore 637 67 pd open/save;
#X obj 545 243 else/var size_\$0 \$0-sr ms_\$0 ch_\$0 bits_\$0;
#X obj 566 183 r \$0-info;
#X obj 73 70 route clear set show hide ms size norm trim info, f 89;
#N canvas 444 59 742 600 trim 0;
#X obj 201 53 inlet;
#X obj 130 266 unpack;
#X obj 203 409 array get;
#X obj 268 368 r \$0-name;
#X obj 217 441 array set;
#X obj 236 476 array size;
#X obj 76 366 trigger float float;
#X obj 96 418 expr $f2 - $f1;
#X obj 386 136 v ch_\$0;
#X obj 386 160 sel 1;
#X obj 345 271 list;
#X obj 532 271 pack float symbol;
#X obj 631 247 r \$0-name;
#X msg 532 295 symbol \$1-\$2;
#X obj 442 440 array get;
#X obj 456 472 array set;
#X obj 475 507 array size;
#X obj 335 449 expr $f2 - $f1;
#X obj 291 212 list;
#X obj 345 297 unpack f f;
#X obj 335 397 trigger f f;
#X obj 284 531 s \$0-size;
#X obj 413 187 else/loop;
#X obj 413 210 t b f;
#X obj 402 324 else/ms2samps;
#X obj 345 359 else/ms2samps;
#X obj 163 293 else/ms2samps;
#X obj 69 328 else/ms2samps;
#X obj 201 94 trigger bang bang list list;
#X obj 201 133 s \$0-info;
#X connect 0 0 28 0;
#X connect 1 0 27 0;
#X connect 1 1 26 0;
#X connect 2 0 4 0;
#X connect 3 0 2 2;
#X connect 3 0 4 2;
#X connect 3 0 5 1;
#X connect 6 0 7 0;
#X connect 6 1 2 0;
#X connect 7 0 5 0;
#X connect 7 0 21 0;
#X connect 8 0 9 0;
#X connect 9 0 18 0;
#X connect 9 1 22 0;
#X connect 10 0 19 0;
#X connect 11 0 13 0;
#X connect 12 0 11 1;
#X connect 13 0 14 2;
#X connect 13 0 15 2;
#X connect 13 0 16 1;
#X connect 14 0 15 0;
#X connect 17 0 16 0;
#X connect 17 0 21 0;
#X connect 18 0 1 0;
#X connect 19 0 25 0;
#X connect 19 1 24 0;
#X connect 20 0 17 0;
#X connect 20 1 14 0;
#X connect 22 0 23 0;
#X connect 23 0 10 0;
#X connect 23 1 11 0;
#X connect 24 0 17 1;
#X connect 24 0 14 1;
#X connect 25 0 20 0;
#X connect 26 0 7 1;
#X connect 26 0 2 1;
#X connect 27 0 6 0;
#X connect 28 0 29 0;
#X connect 28 1 8 0;
#X connect 28 2 18 1;
#X connect 28 3 10 1;
#X restore 486 105 pd trim;
#X text 167 210 Part of ELSE \; https://github.com/porres/pd-else;
#X obj 545 274 t l b;
#N canvas 115 97 450 300 send/value 0;
#X obj 94 89 v \$0-sr;
#X obj 181 94 r \$0-name;
#X obj 181 152 makefilename %s-sr;
#X msg 94 150 sr \$1;
#X obj 142 151 v;
#X obj 94 176 send, f 15;
#X obj 197 121 makefilename %s-vsr;
#X obj 94 55 inlet;
#X connect 0 0 3 0;
#X connect 0 0 4 0;
#X connect 1 0 2 0;
#X connect 1 0 6 0;
#X connect 2 0 5 1;
#X connect 3 0 5 0;
#X connect 6 0 4 1;
#X connect 7 0 0 0;
#X restore 588 279 pd send/value;
#N canvas 115 414 720 428 sfoad 1;
#X obj 256 33 inlet;
#X obj 159 33 inlet;
#X obj 212 33 inlet;
#X obj 448 169 list prepend;
#X obj 448 196 list;
#X obj 385 240 list append;
#X obj 385 270 list trim;
#X obj 385 296 soundfiler;
#X msg 448 139 \$1-\$2;
#X msg 404 139 \$2;
#X obj 493 198 r \$0-reset-buf-names;
#X obj 251 192 else/changed;
#X msg 251 168 symbol \$2;
#X msg 251 218 set \$1;
#X obj 245 280 else/sfload;
#N canvas 666 151 587 511 info 0;
#X obj 161 207 /;
#X obj 161 228 * 1000;
#X obj 134 76 inlet;
#X obj 134 163 t f f;
#X obj 176 163 unpack float float float float;
#X obj 162 288 r \$0-size;
#X obj 135 323 v size_\$0;
#X obj 353 229 v bits_\$0;
#X obj 237 201 s \$0-sr;
#X text 335 114 size \, sr \, ch \, bits;
#X listbox 203 115 20 0 0 0 - - - 0;
#X obj 110 122 t b l;
#X obj 61 179 s \$0-info;
#X obj 220 83 bng 16 250 50 0 empty empty empty 0 -8 0 10 #fcfcfc #000000 #000000;
#X obj 235 348 r \$0-size;
#X obj 257 414 /;
#X obj 302 330 r \$0-sr;
#X obj 257 440 v ms_\$0;
#X obj 257 384 else/hot;
#X obj 302 356 / 1000;
#X obj 161 256 v ms_\$0;
#X connect 0 0 1 0;
#X connect 1 0 20 0;
#X connect 2 0 10 0;
#X connect 2 0 11 0;
#X connect 3 0 6 0;
#X connect 3 1 0 0;
#X connect 4 0 3 0;
#X connect 4 1 8 0;
#X connect 4 1 0 1;
#X connect 4 3 7 0;
#X connect 5 0 6 0;
#X connect 11 0 12 0;
#X connect 11 1 4 0;
#X connect 13 0 10 0;
#X connect 14 0 18 0;
#X connect 15 0 17 0;
#X connect 16 0 19 0;
#X connect 18 0 15 0;
#X connect 18 1 15 1;
#X connect 19 0 18 1;
#X restore 245 318 pd info;
#X text 472 276 write;
#X obj 376 62 r \$0-write-file;
#X msg 128 141 load \$1 -1 \$2 \$3;
#X connect 0 0 8 0;
#X connect 0 0 12 0;
#X connect 1 0 18 0;
#X connect 2 0 12 0;
#X connect 2 0 9 0;
#X connect 3 0 4 0;
#X connect 4 0 3 1;
#X connect 4 0 5 1;
#X connect 5 0 6 0;
#X connect 6 0 7 0;
#X connect 8 0 3 0;
#X connect 9 0 4 0;
#X connect 10 0 3 1;
#X connect 10 0 5 1;
#X connect 10 0 4 1;
#X connect 11 0 13 0;
#X connect 12 0 11 0;
#X connect 13 0 14 0;
#X connect 14 0 15 0;
#X connect 17 0 5 0;
#X connect 18 0 14 0;
#X restore 637 113 pd sfoad \; soundfiler;
#X text 169 191 Alexandre Torres Porres (2017-2025);
#X connect 0 0 16 0;
#X connect 8 0 21 1;
#X connect 8 0 7 0;
#X connect 8 1 21 2;
#X connect 8 1 7 1;
#X connect 10 0 14 0;
#X connect 12 0 14 0;
#X connect 13 0 21 0;
#X connect 13 1 8 0;
#X connect 14 0 19 0;
#X connect 15 0 14 0;
#X connect 16 0 3 0;
#X connect 16 1 1 0;
#X connect 16 2 4 0;
#X connect 16 3 4 1;
#X connect 16 5 6 0;
#X connect 16 6 5 0;
#X connect 16 7 17 0;
#X connect 16 8 10 0;
#X connect 16 9 13 0;
#X connect 19 0 9 0;
#X connect 19 1 20 0;
