#N canvas 542 105 576 466 12;
#X obj 48 63 inlet~;
#X obj 92 400 outlet~;
#X obj 242 64 inlet~;
#N canvas 451 119 418 408 freq 0;
#X obj 82 339 outlet~;
#X obj 244 174 else/nchs~;
#X msg 161 305 resize \$1;
#X obj 244 223 t b f;
#X obj 161 339 outlet;
#X obj 82 50 inlet~;
#X obj 244 287 s \$0-bang;
#X obj 244 199 change 1;
#X connect 1 0 7 0;
#X connect 2 0 4 0;
#X connect 3 0 6 0;
#X connect 3 1 2 0;
#X connect 5 0 0 0;
#X connect 5 0 1 0;
#X connect 7 0 3 0;
#X restore 46 213 pd freq;
#X text 298 178 Part of ELSE \; https://github.com/porres/pd-else;
#X text 300 159 Alexandre Torres Porres (2025);
#X obj 292 400 outlet~;
#X obj 142 63 inlet~;
#X obj 92 279 clone -d else/superosc.unit 1;
#X obj 324 63 inlet~;
#N canvas 586 281 601 491 route 0;
#X obj 237 356 else/insert all;
#X obj 39 16 inlet;
#X obj 237 422 outlet;
#X obj 252 204 r \$0-bang;
#X obj 237 130 clip 0 3;
#X msg 336 295 midi \$1;
#X msg 237 295 syncmode \$1;
#X msg 39 289 sync;
#X obj 336 269 i 0;
#X obj 237 269 i 0;
#X obj 336 130 != 0;
#X obj 55 52 r \$0-messages;
#X obj 254 389 r \$0-lists;
#N canvas 519 95 455 230 lists 0;
#X obj 45 32 inlet;
#N canvas 429 38 739 846 mix-list 0;
#X obj 231 179 r \$0-list-gen;
#X obj 217 35 inlet;
#X text 43 12 mix;
#X obj 37 35 inlet;
#X obj 266 593 else/group;
#X obj 403 309 < 2;
#X msg 266 525 1, f 2;
#X obj 309 469 b, f 2;
#X obj 309 518 value mix_\$0, f 6;
#X obj 561 387 - 1;
#X obj 561 412 / 2;
#X obj 266 291 v n_\$0;
#X obj 217 251 trigger bang float;
#N canvas 511 25 589 605 gain-array 0;
#X obj 36 154 t b b;
#X obj 116 360 else/group;
#X obj 116 255 expr ($f1 - ($f2-1)/2) / (($f2-1)/2), f 22;
#X obj 116 199 else/loop;
#X obj 116 296 expr 1 - abs($f1);
#X obj 116 323 pow 0.91;
#X obj 116 228 + 1;
#X obj 268 188 + 2;
#X obj 116 457 t l l;
#X obj 174 439 else/reverse;
#X obj 149 495 list;
#X obj 309 514 list;
#X obj 309 487 else/reverse;
#X obj 309 547 else/buffer shape_\$0;
#X obj 379 220 array define shape_\$0;
#X f 8;
#X obj 116 74 v n_\$0;
#X obj 116 409 else/router 2, f 28;
#X obj 36 32 inlet;
#X obj 36 76 sel 1;
#X obj 309 32 inlet;
#X obj 309 461 trigger list list;
#X obj 116 162 / 2;
#X obj 383 352 v even_\$0;
#X msg 383 400 1;
#X msg 416 400 1 1;
#X obj 116 384 t l b;
#X obj 174 465 list prepend;
#X obj 425 510 list prepend, f 13;
#X obj 383 376 select 0 1;
#X obj 116 104 expr $i1 - even_\$0;
#X obj 116 132 t f f;
#X connect 0 0 1 0;
#X connect 0 1 15 0;
#X connect 1 0 25 0;
#X connect 2 0 4 0;
#X connect 3 0 6 0;
#X connect 4 0 5 0;
#X connect 5 0 1 0;
#X connect 6 0 2 0;
#X connect 7 0 2 1;
#X connect 8 0 10 0;
#X connect 8 1 9 0;
#X connect 9 0 26 0;
#X connect 10 0 13 0;
#X connect 11 0 13 0;
#X connect 12 0 11 0;
#X connect 15 0 29 0;
#X connect 16 0 8 0;
#X connect 16 1 20 0;
#X connect 17 0 18 0;
#X connect 18 0 0 0;
#X connect 19 0 16 1;
#X connect 20 0 12 0;
#X connect 20 1 27 0;
#X connect 21 0 3 0;
#X connect 22 0 28 0;
#X connect 23 0 26 1;
#X connect 23 0 27 1;
#X connect 24 0 26 1;
#X connect 24 0 27 1;
#X connect 25 0 16 0;
#X connect 25 1 22 0;
#X connect 26 0 10 1;
#X connect 27 0 11 1;
#X connect 28 0 23 0;
#X connect 28 1 24 0;
#X connect 29 0 30 0;
#X connect 30 0 21 0;
#X connect 30 1 7 0;
#X restore 424 389 pd gain-array;
#X obj 266 352 else/loop;
#X obj 266 406 sel, f 5;
#X obj 37 117 clip 0 1;
#X obj 266 738 else/message;
#X obj 266 705 else/insert all mix-list;
#X text 222 11 mixmode;
#X obj 266 778 s \$0-lists;
#X obj 167 311 t b b;
#X obj 123 252 v mix_\$0;
#X obj 37 261 t b f;
#X obj 37 229 change 0.5;
#X obj 266 380 else/router 2 1, f 20;
#X obj 217 213 f 0;
#X obj 123 157 clip 0 1;
#X msg 58 198 set \$1;
#X obj 123 125 r \$0-setmix;
#X obj 360 216 clip 0 2;
#X obj 360 187 i;
#X obj 360 155 r \$0-setmixmode;
#X obj 217 105 clip 0 2;
#X obj 217 76 i;
#X obj 168 603 r \$0-bang;
#X obj 593 387 % 2;
#X obj 561 436 i;
#X obj 593 436 v even_\$0;
#X obj 593 412 == 0;
#X obj 403 462 expr if($f1 == $f2 || $f1 == ($f2 + even_\$0) \, 1 \, if(mix_\$0 <= 0.5 \, shape_\$0[$f1] * (mix_\$0 * 2) \, shape_\$0[$f1] + (1 - shape_\$0[$f1]) * ((mix_\$0 - 0.5) * 2))), f 23;
#X obj 277 439 sel, f 5;
#X obj 324 429 expr $i1 + even_\$0, f 9;
#X obj 561 359 t f f;
#X obj 266 317 t f f;
#X obj 403 279 t f f b;
#X obj 561 329 v n_\$0;
#X obj 217 143 change -1;
#X obj 37 141 change -1;
#X obj 266 659 t l b;
#X obj 563 666 array define gain_\$0;
#X f 8;
#X obj 266 626 else/buffer gain_\$0;
#X obj 325 659 s \$0-set-gain-compensation;
#X connect 0 0 26 0;
#X connect 1 0 34 0;
#X connect 3 0 16 0;
#X connect 4 0 51 0;
#X connect 5 0 13 0;
#X connect 5 0 25 1;
#X connect 6 0 4 0;
#X connect 7 0 8 0;
#X connect 8 0 4 0;
#X connect 9 0 10 0;
#X connect 10 0 37 0;
#X connect 11 0 44 0;
#X connect 12 0 21 0;
#X connect 12 1 45 0;
#X connect 14 0 25 0;
#X connect 15 0 6 0;
#X connect 15 1 41 0;
#X connect 16 0 48 0;
#X connect 17 0 20 0;
#X connect 18 0 17 0;
#X connect 21 0 4 0;
#X connect 21 1 11 0;
#X connect 23 0 21 0;
#X connect 23 1 22 0;
#X connect 24 0 23 0;
#X connect 25 0 15 0;
#X connect 25 1 40 0;
#X connect 26 0 12 0;
#X connect 27 0 28 0;
#X connect 27 0 22 0;
#X connect 28 0 24 0;
#X connect 29 0 27 0;
#X connect 30 0 26 1;
#X connect 31 0 30 0;
#X connect 32 0 31 0;
#X connect 33 0 47 0;
#X connect 34 0 33 0;
#X connect 35 0 17 0;
#X connect 36 0 39 0;
#X connect 37 0 15 1;
#X connect 37 0 40 1;
#X connect 37 0 42 0;
#X connect 39 0 38 0;
#X connect 40 0 4 0;
#X connect 41 0 6 0;
#X connect 41 1 7 0;
#X connect 42 0 41 1;
#X connect 43 0 9 0;
#X connect 43 1 36 0;
#X connect 44 0 14 0;
#X connect 44 1 43 0;
#X connect 45 0 5 0;
#X connect 45 1 13 1;
#X connect 45 2 46 0;
#X connect 46 0 43 0;
#X connect 47 0 26 0;
#X connect 48 0 24 0;
#X connect 49 0 18 0;
#X connect 49 1 52 0;
#X connect 51 0 49 0;
#X restore 152 132 pd mix-list;
#N canvas 454 38 551 685 detune-list 0;
#X obj 77 485 else/group;
#X obj 77 24 inlet;
#X obj 77 190 trigger bang float;
#X obj 77 158 change 1;
#X obj 77 86 clip 0.1 10;
#X obj 77 602 else/message;
#X obj 91 223 r \$0-list-gen;
#X obj 77 258 t b b;
#X obj 224 183 v dc_\$0;
#X text 123 23 detune-curve;
#X obj 77 524 else/insert all detune-list;
#X obj 77 641 s \$0-lists;
#X obj 224 58 r \$0-set-dc;
#X obj 224 87 clip 0.1 10;
#X msg 103 127 set \$1;
#X obj 95 564 r \$0-bang;
#X obj 146 259 v n_\$0;
#X obj 146 284 else/loop;
#X obj 146 309 * 2;
#X obj 146 356 /;
#X obj 220 364 expr n_\$0 - 1;
#X obj 146 382 - 1;
#X obj 146 332 t f b;
#X obj 146 415 else/router;
#X obj 220 389 > 0;
#X msg 146 439 0;
#X obj 220 446 expr copysign(pow(abs($f1) \, dc_\$0) \, $f1);
#X connect 0 0 10 0;
#X connect 1 0 4 0;
#X connect 2 0 7 0;
#X connect 2 1 8 0;
#X connect 3 0 2 0;
#X connect 4 0 3 0;
#X connect 5 0 11 0;
#X connect 6 0 7 0;
#X connect 7 0 0 0;
#X connect 7 1 16 0;
#X connect 10 0 5 0;
#X connect 12 0 13 0;
#X connect 13 0 14 0;
#X connect 13 0 8 0;
#X connect 14 0 3 0;
#X connect 15 0 5 0;
#X connect 16 0 17 0;
#X connect 17 0 18 0;
#X connect 18 0 22 0;
#X connect 19 0 21 0;
#X connect 20 0 19 1;
#X connect 20 0 24 0;
#X connect 21 0 23 0;
#X connect 22 0 19 0;
#X connect 22 1 20 0;
#X connect 23 0 25 0;
#X connect 23 1 26 0;
#X connect 24 0 23 1;
#X connect 25 0 0 0;
#X connect 26 0 0 0;
#X restore 101 173 pd detune-list;
#N canvas 378 78 785 780 spread-list 0;
#X obj 150 467 else/group;
#X obj 286 229 v n_\$0;
#X obj 150 46 inlet;
#X obj 286 254 else/loop;
#X obj 150 197 trigger bang float;
#X obj 150 168 change 1;
#X obj 150 98 clip 0.1 10;
#X obj 66 46 inlet;
#X obj 66 350 clip 0 1;
#X obj 122 574 else/op *, f 11;
#X obj 150 498 t b l, f 7;
#X obj 122 675 else/insert all pan-list;
#X obj 122 708 else/message;
#X text 62 15 spread;
#X text 146 15 spread-curve;
#X obj 305 165 v sc_\$0;
#X obj 160 231 r \$0-list-gen;
#X obj 150 320 t b b;
#X obj 122 529 float 1;
#X obj 122 743 s \$0-lists;
#X obj 305 68 r \$0-setsc;
#X obj 305 95 clip 0.1 10;
#X msg 179 137 set \$1;
#X obj 226 545 clip 0 1;
#X obj 226 517 r \$0-setspread;
#X obj 28 588 r \$0-bang;
#X obj 286 279 * 2;
#X obj 286 326 /;
#X obj 360 334 expr n_\$0 - 1;
#X obj 286 352 - 1;
#X obj 286 302 t f b;
#X obj 286 385 else/router;
#X obj 360 416 expr copysign(pow(abs($f1) \, sc_\$0) \, $f1);
#X obj 360 359 > 0;
#X msg 286 409 0;
#X obj 67 402 change -1;
#X obj 122 644 t l b;
#X obj 181 644 send \$0-set-gain-compensation;
#X obj 358 572 array define pan_\$0;
#X f 6;
#X obj 122 615 else/buffer pan_\$0;
#X connect 0 0 10 0;
#X connect 1 0 3 0;
#X connect 2 0 6 0;
#X connect 3 0 26 0;
#X connect 4 0 17 0;
#X connect 4 1 15 0;
#X connect 5 0 4 0;
#X connect 6 0 5 0;
#X connect 7 0 8 0;
#X connect 8 0 35 0;
#X connect 9 0 39 0;
#X connect 10 0 18 0;
#X connect 10 1 9 1;
#X connect 11 0 12 0;
#X connect 12 0 19 0;
#X connect 16 0 17 0;
#X connect 17 0 0 0;
#X connect 17 1 1 0;
#X connect 18 0 9 0;
#X connect 20 0 21 0;
#X connect 21 0 15 0;
#X connect 21 0 22 0;
#X connect 22 0 5 0;
#X connect 23 0 18 1;
#X connect 24 0 23 0;
#X connect 25 0 12 0;
#X connect 26 0 30 0;
#X connect 27 0 29 0;
#X connect 28 0 27 1;
#X connect 28 0 33 0;
#X connect 29 0 31 0;
#X connect 30 0 27 0;
#X connect 30 1 28 0;
#X connect 31 0 34 0;
#X connect 31 1 32 0;
#X connect 32 0 0 0;
#X connect 33 0 31 1;
#X connect 34 0 0 0;
#X connect 35 0 18 0;
#X connect 36 0 11 0;
#X connect 36 1 37 0;
#X connect 39 0 36 0;
#X restore 260 130 pd spread-list;
#N canvas 116 88 397 371 n 0;
#X obj 204 238 v n_\$0;
#X obj 124 116 clip 1 16;
#X obj 124 239 t b f;
#X obj 124 83 i;
#X obj 124 275 s \$0-list-gen;
#X obj 204 78 r \$0-set-n;
#X msg 138 184 set \$1;
#X obj 124 215 change 7;
#X obj 204 141 clip 1 16;
#X obj 124 32 inlet;
#X obj 204 105 i;
#X obj 211 327 s \$0-n;
#X obj 246 107 else/initmess 7;
#X connect 1 0 7 0;
#X connect 2 0 4 0;
#X connect 2 1 0 0;
#X connect 2 1 11 0;
#X connect 3 0 1 0;
#X connect 5 0 10 0;
#X connect 6 0 7 0;
#X connect 7 0 2 0;
#X connect 8 0 0 0;
#X connect 8 0 6 0;
#X connect 8 0 11 0;
#X connect 9 0 3 0;
#X connect 10 0 8 0;
#X connect 12 0 8 0;
#X restore 45 173 pd n;
#X obj 45 93 route n detcurve mix mixmode spread spreadcurve;
#N canvas 146 130 501 405 gain-compensation 0;
#X obj 87 150 t b b;
#X obj 175 98 v n_\$0;
#X obj 175 126 else/loop;
#X obj 361 122 else/pi 0.25;
#X obj 175 202 expr gain_\$0[$i2] * cos($f1);
#X obj 175 236 else/group;
#X obj 175 266 else/sum;
#X obj 207 328 expr 1/$f1;
#X obj 87 53 receive \$0-set-gain-compensation;
#X obj 207 356 send \$0-gain-compensation;
#X obj 175 297 sel 0;
#X obj 175 157 expr (pan_\$0[$i1]+1) * $f2 \; $i1;
#X connect 0 0 5 0;
#X connect 0 1 1 0;
#X connect 1 0 2 0;
#X connect 2 0 11 0;
#X connect 3 0 11 1;
#X connect 4 0 5 0;
#X connect 5 0 6 0;
#X connect 6 0 10 0;
#X connect 7 0 9 0;
#X connect 8 0 0 0;
#X connect 10 1 7 0;
#X connect 11 0 4 0;
#X connect 11 1 4 1;
#X restore 233 167 pd gain-compensation;
#X connect 0 0 5 0;
#X connect 5 0 4 0;
#X connect 5 1 2 0;
#X connect 5 2 1 0;
#X connect 5 3 1 1;
#X connect 5 4 3 0;
#X connect 5 5 3 1;
#X restore 482 133 pd lists;
#X obj 237 160 change;
#X obj 336 160 change;
#X obj 57 209 loadbang;
#X obj 57 233 del 0;
#X obj 406 269 i 0;
#X obj 406 160 change;
#X msg 406 295 detmode \$1;
#N canvas 116 88 389 263 wave 0;
#X obj 91 86 inlet;
#X obj 148 195 outlet;
#X obj 148 86 inlet;
#X obj 214 86 inlet;
#X msg 91 126 0;
#X msg 148 126 1;
#X msg 214 126 2;
#X connect 0 0 4 0;
#X connect 2 0 5 0;
#X connect 3 0 6 0;
#X connect 4 0 1 0;
#X connect 5 0 1 0;
#X connect 6 0 1 0;
#X restore 132 143 pd wave;
#X msg 132 299 wave \$1;
#X obj 132 273 i 0;
#X obj 39 83 route sync saw square sine syncmode midi detmode, f 57;
#X obj 406 130 clip 0 2;
#X connect 0 0 2 0;
#X connect 1 0 24 0;
#X connect 3 0 8 0;
#X connect 3 0 9 0;
#X connect 3 0 7 0;
#X connect 3 0 18 0;
#X connect 3 0 23 0;
#X connect 4 0 14 0;
#X connect 5 0 0 0;
#X connect 6 0 0 0;
#X connect 7 0 0 0;
#X connect 8 0 5 0;
#X connect 9 0 6 0;
#X connect 10 0 15 0;
#X connect 11 0 24 0;
#X connect 12 0 2 0;
#X connect 14 0 9 0;
#X connect 15 0 8 0;
#X connect 16 0 17 0;
#X connect 17 0 7 0;
#X connect 18 0 20 0;
#X connect 19 0 18 0;
#X connect 20 0 0 0;
#X connect 21 0 23 0;
#X connect 22 0 0 0;
#X connect 23 0 22 0;
#X connect 24 0 7 0;
#X connect 24 1 21 0;
#X connect 24 2 21 1;
#X connect 24 3 21 2;
#X connect 24 4 4 0;
#X connect 24 5 10 0;
#X connect 24 6 25 0;
#X connect 24 7 13 0;
#X connect 25 0 19 0;
#X restore 292 247 pd route;
#N canvas 203 211 1048 520 args-init 0;
#X obj 960 444 outlet;
#X obj 114 202 t a b;
#X obj 131 43 else/args -;
#X obj 841 444 outlet;
#X obj 900 444 outlet;
#X obj 175 204 t a b;
#X obj 131 69 route bang;
#X msg 864 408 0.5;
#X text 900 466 width;
#X text 960 466 detune;
#X obj 881 156 unpack f f f, f 6;
#X msg 144 290 midi 1;
#X obj 230 196 else/slice 1;
#X obj 230 225 else/swap2;
#X obj 335 200 else/slice 1;
#X obj 335 229 else/swap2;
#X obj 437 199 else/slice 1;
#X obj 437 228 else/swap2;
#X msg 504 313 syncmode \$1;
#X text 844 466 freq;
#X obj 537 218 else/slice 1;
#X obj 537 247 else/swap2;
#X obj 637 252 else/slice 1;
#X obj 637 281 else/swap2;
#X obj 24 16 else/loadbanger 3, f 31;
#X obj 671 194 else/slice 1;
#X obj 671 223 else/swap2;
#X obj 774 190 else/slice 1;
#X obj 774 219 else/swap2;
#X obj 238 73 var dc_\$0 sc_\$0 n_\$0 mix_\$0;
#X msg 238 45 1 1 7 0.5;
#X obj 759 248 s \$0-set-n;
#X obj 503 421 s \$0-messages;
#X obj 604 313 s \$0-set-dc;
#X obj 402 291 s \$0-setmix;
#X obj 254 259 s \$0-setmixmode;
#X obj 704 313 s \$0-setspread;
#X obj 738 279 s \$0-setsc;
#X obj 56 97 s \$0-list-gen;
#X obj 24 66 t b b;
#X obj 24 122 s \$0-init-sync;
#X obj 575 141 else/slice 1;
#X obj 575 166 else/swap2;
#X msg 613 340 detmode \$1;
#X obj 293 293 t a b;
#X obj 198 111 else/route2 -midi -square -sine -mixmode -mix -syncmode -detcurve -detmode -spread -spreadcurve -n, f 98;
#X msg 205 290 square;
#X msg 420 355 sine;
#X connect 1 0 45 0;
#X connect 1 1 11 0;
#X connect 2 0 6 0;
#X connect 5 0 45 0;
#X connect 5 1 46 0;
#X connect 6 1 45 0;
#X connect 7 0 4 0;
#X connect 10 0 3 0;
#X connect 10 1 4 0;
#X connect 10 2 0 0;
#X connect 11 0 32 0;
#X connect 12 0 13 0;
#X connect 12 1 13 1;
#X connect 13 0 45 0;
#X connect 13 1 35 0;
#X connect 14 0 15 0;
#X connect 14 1 15 1;
#X connect 15 0 45 0;
#X connect 15 1 34 0;
#X connect 16 0 17 0;
#X connect 16 1 17 1;
#X connect 17 0 45 0;
#X connect 17 1 18 0;
#X connect 18 0 32 0;
#X connect 20 0 21 0;
#X connect 20 1 21 1;
#X connect 21 0 45 0;
#X connect 21 1 33 0;
#X connect 22 0 23 0;
#X connect 22 1 23 1;
#X connect 23 0 45 0;
#X connect 23 1 36 0;
#X connect 24 0 39 0;
#X connect 24 1 2 0;
#X connect 24 2 30 0;
#X connect 25 0 26 0;
#X connect 25 1 26 1;
#X connect 26 0 45 0;
#X connect 26 1 37 0;
#X connect 27 0 28 0;
#X connect 27 1 28 1;
#X connect 28 0 45 0;
#X connect 28 1 31 0;
#X connect 30 0 29 0;
#X connect 39 0 40 0;
#X connect 39 1 38 0;
#X connect 41 0 42 0;
#X connect 41 1 42 1;
#X connect 42 0 45 0;
#X connect 42 1 43 0;
#X connect 43 0 32 0;
#X connect 44 1 47 0;
#X connect 45 0 1 0;
#X connect 45 1 5 0;
#X connect 45 2 5 0;
#X connect 45 3 44 0;
#X connect 45 4 14 0;
#X connect 45 5 16 0;
#X connect 45 6 20 0;
#X connect 45 7 41 0;
#X connect 45 8 22 0;
#X connect 45 9 25 0;
#X connect 45 10 27 0;
#X connect 45 11 10 0;
#X connect 46 0 7 0;
#X connect 46 0 32 0;
#X connect 47 0 32 0;
#X restore 102 26 pd args-init;
#X text 153 87 width;
#X text 253 87 detune;
#X text 55 87 freq;
#X text 333 87 sync;
#X obj 310 292 r \$0-gain-compensation;
#X obj 310 316 else/f2s~;
#X obj 292 365 *~;
#X obj 92 365 *~;
#X connect 0 0 3 0;
#X connect 0 1 10 0;
#X connect 2 0 8 3;
#X connect 3 0 8 0;
#X connect 3 1 8 0;
#X connect 7 0 8 1;
#X connect 8 0 19 0;
#X connect 8 1 18 0;
#X connect 9 0 8 2;
#X connect 10 0 8 4;
#X connect 11 0 0 0;
#X connect 11 1 7 0;
#X connect 11 2 2 0;
#X connect 16 0 17 0;
#X connect 17 0 18 1;
#X connect 17 0 19 1;
#X connect 18 0 6 0;
#X connect 19 0 1 0;
