#N canvas 657 152 713 511 10;
#X obj 207 289 *~;
#X obj 69 86 inlet~;
#X obj 172 430 outlet~;
#X obj 296 311 *~;
#X text 412 83 Depth;
#X obj 296 338 +~;
#X text 266 85 Hz;
#X text 426 213 Part of ELSE \; https://github.com/porres/pd-else;
#X obj 69 354 *~;
#X obj 173 352 *~;
#X text 115 84 Input;
#X text 428 194 Alexandre Torres Porres (2018-2026);
#X obj 86 260 sig~ 1;
#X obj 86 311 -~;
#X obj 188 202 else/glide~ 10;
#X obj 188 180 else/op~ != 0;
#X obj 296 266 else/sine~;
#X obj 367 86 inlet~;
#X obj 296 86 inlet~;
#N canvas 169 159 363 243 init 0;
#X obj 120 68 else/args;
#X obj 120 43 loadbang;
#X obj 120 99 else/default 0 1;
#X obj 120 125 unpack float float;
#X obj 120 159 outlet;
#X obj 225 159 outlet;
#X connect 0 0 2 0;
#X connect 1 0 0 0;
#X connect 2 0 3 0;
#X connect 3 0 4 0;
#X connect 3 1 5 0;
#X restore 324 34 pd init;
#X obj 367 322 /~ 2;
#X obj 367 301 clip~ 0 1;
#X obj 410 330 sig~ 1;
#X obj 350 369 -~;
#X connect 0 0 9 0;
#X connect 1 0 0 0;
#X connect 1 0 8 0;
#X connect 3 0 5 0;
#X connect 5 0 0 1;
#X connect 8 0 2 0;
#X connect 9 0 2 0;
#X connect 12 0 13 0;
#X connect 13 0 8 1;
#X connect 14 0 9 1;
#X connect 14 0 13 1;
#X connect 15 0 14 0;
#X connect 16 0 3 0;
#X connect 17 0 21 0;
#X connect 18 0 15 0;
#X connect 18 0 16 0;
#X connect 19 0 18 0;
#X connect 19 1 17 0;
#X connect 20 0 23 1;
#X connect 20 0 3 1;
#X connect 21 0 20 0;
#X connect 22 0 23 0;
#X connect 23 0 5 1;
