#N canvas 754 26 561 579 10;
#X obj 4 280 cnv 3 550 3 empty empty inlets 8 12 0 13 -228856 -1 0
;
#X obj 4 430 cnv 3 550 3 empty empty outlets 8 12 0 13 -228856 -1 0
;
#X obj 4 463 cnv 3 550 3 empty empty arguments 8 12 0 13 -228856 -1
0;
#X obj 4 543 cnv 15 552 21 empty empty empty 20 12 0 14 -233017 -33289
0;
#X obj 109 439 cnv 17 3 17 empty empty 0 5 9 0 16 -228856 -162280 0
;
#X obj 109 288 cnv 17 3 88 empty empty 0 5 9 0 16 -228856 -162280 0
;
#X text 181 288 signal;
#X text 181 439 signal;
#X obj 171 217 else/out~;
#X obj 306 4 cnv 15 250 40 empty empty empty 12 13 0 18 -128992 -233080
0;
#N canvas 382 141 749 319 (subpatch) 0;
#X coords 0 -1 1 1 252 42 2 0 0;
#X restore 305 3 pd;
#X obj 345 11 cnv 10 10 10 empty empty ELSE 0 15 2 30 -128992 -233080
0;
#X obj 23 40 cnv 4 4 4 empty empty Allpass 0 28 2 18 -233017 -1 0;
#X obj 85 40 cnv 4 4 4 empty empty filter 0 28 2 18 -233017 -1 0;
#X obj 458 11 cnv 10 10 10 empty empty EL 0 6 2 13 -128992 -233080
0;
#X obj 478 11 cnv 10 10 10 empty empty Locus 0 6 2 13 -128992 -233080
0;
#X obj 464 26 cnv 10 10 10 empty empty ELSE 0 6 2 13 -128992 -233080
0;
#X obj 205 155 noise~;
#X obj 253 140 nbx 5 14 100 10000 1 0 empty empty empty 0 -8 0 10 -228856
-1 -1 100 256;
#X obj 312 164 nbx 5 14 0.1 100 1 0 empty empty empty 0 -8 0 10 -228856
-1 -1 0.1 256;
#X text 230 439 - filtered signal;
#X text 230 288 - signal to be filtered;
#X obj 109 383 cnv 17 3 17 empty empty 1 5 9 0 16 -228856 -162280 0
;
#X obj 109 406 cnv 17 3 17 empty empty 2 5 9 0 16 -228856 -162280 0
;
#X text 145 383 float/signal;
#X text 145 406 float/signal;
#X text 187 306 clear;
#X msg 128 150 bypass \$1;
#X obj 128 127 tgl 15 0 empty empty empty 17 7 0 10 -228856 -1 -1 0
1;
#X text 133 324 bypass <float>;
#X text 230 324 - 1 (bypasses input signal) or 0 (doesn't bypass);
#N canvas 395 72 926 617 filter 0;
#X obj 715 109 hsl 128 15 0.001 100 1 0 empty empty empty -2 -8 0 10
-228856 -1 -1 0 1;
#X obj 644 83 hsl 128 15 20 20000 1 0 empty empty empty -2 -8 0 10
-228856 -1 -1 0 1;
#X obj 592 119 noise~;
#X obj 592 194 else/out~;
#X obj 712 133 nbx 5 14 0.001 100 0 0 \$0-Q empty empty 0 -8 0 10 -228856
-1 -1 0.001 256;
#X obj 641 110 nbx 5 14 20 20000 0 0 \$0-Hz empty empty 0 -8 0 10 -228856
-1 -1 20 256;
#X text 112 275 [1] found in http://www.musicdsp.org/files/Audio-EQ-Cookbook.txt
, f 65;
#X text 661 83 center frequency;
#X text 736 109 resonance (Q);
#X text 53 13 This filter has zeroes fixes at +1 and -1 on the z-plane
\, which means both 0Hz and Nyquist are always filtered out.;
#X text 510 14 Change the parameters and check the filter response
below. The graph considers a sample rate of 44.1Khz.;
#X text 56 118 a0 \, a1 \, a2 \, b1 and b2 are calculated as a function
of center frequency 'f' in hz and 'q' as follows \;;
#X text 80 150 omega = f * PI/nyquist \; alphaQ = sin(omega) / (2*q)
\; b0 = alphaQ + 1 \; a0 = (1 - alphaQ) / b0 \; a1 = -2*cos(omega)
/ b0 \; a2 = 1 \; b1 = 2*cos(omega) / b0 \; b2 = (alphaQ - 1) / b0
\;;
#X text 320 191 Note: q's and bw's minimum value is 1e-06!, f 21;
#X text 54 46 The equation is from the "Cookbook formulae for audio
EQ biquad filter coefficients" by Robert Bristow-Johnsonc [1] \, and
it is: y[n] = a0 * x[n] + a1 * x[n-2] + a2 * x[n-2] + b1 * y[n-1] +
b2 * y[n-2];
#X obj 592 158 else/apass~ 750 1;
#N canvas 169 31 398 275 coeff 0;
#X obj 103 87 r \$0-Hz;
#X obj 173 87 r \$0-Q;
#X obj 87 127 else/bicoeff apass 750 1;
#X obj 87 54 loadbang;
#X obj 87 156 outlet;
#X connect 0 0 2 0;
#X connect 1 0 2 1;
#X connect 2 0 4 0;
#X connect 3 0 2 0;
#X restore 12 281 pd coeff;
#X obj 12 308 else/biplot;
#X connect 0 0 4 0;
#X connect 1 0 5 0;
#X connect 2 0 15 0;
#X connect 4 0 15 2;
#X connect 5 0 15 1;
#X connect 15 0 3 0;
#X connect 15 0 3 1;
#X connect 16 0 17 0;
#X restore 429 239 pd filter formula \; and response;
#X text 229 382 - central frequency in Hertz;
#X text 118 469 1) float - central frequency in Hertz (default 0);
#X msg 195 122 clear;
#X text 230 306 - clears filter's memory if you blow it up;
#X text 371 163 resonance (Q by default);
#X text 205 341 bw;
#X text 230 341 - sets resonance parameter to bandwidth in octaves
;
#X text 211 358 q;
#X obj 3 514 cnv 3 550 3 empty empty flags 8 12 0 13 -228856 -1 0;
#X text 135 520 -bw;
#X text 165 520 - sets resonance parameter to bandwidth in octaves
, f 53;
#N canvas 956 114 407 322 resonance 0;
#X text 27 17 By default \, the resonance parameter is the filter 'q'
\, but you can also set it as bandwidth in octaves. This is done with
the -bw flag.;
#X text 28 62 Alternatively \, you can switch from 'q' to 'bw' with
the message methods.;
#X obj 81 224 else/out~;
#X obj 81 129 noise~;
#X msg 147 155 q;
#X msg 135 128 bw;
#X text 175 156 resonance as 'q';
#X text 163 128 resonance as bandwidth in octaves;
#X obj 81 185 else/apass~ 500 0.5 -bw;
#X connect 3 0 8 0;
#X connect 4 0 8 0;
#X connect 5 0 8 0;
#X connect 8 0 2 0;
#X connect 8 0 2 1;
#X restore 464 214 pd resonance;
#X text 118 487 2) float - resonance (default 1) \, either in 'Q' (default)
or 'bw', f 65;
#X text 230 358 - sets resonance parameter to Q (default);
#X text 230 406 - filter resonance (Q or bandwidth);
#X text 311 139 resonant/center frequency;
#X obj 2 3 cnv 15 301 42 empty empty apass~ 20 20 2 37 -233017 -1 0
;
#N canvas 0 22 450 278 (subpatch) 0;
#X coords 0 1 100 -1 302 42 1;
#X restore 2 3 graph;
#X text 61 86 [apass~] is a 2nd order allpass filter.;
#X obj 195 186 else/apass~ 1000 0.1;
#X connect 17 0 51 0;
#X connect 18 0 51 1;
#X connect 19 0 51 2;
#X connect 27 0 51 0;
#X connect 28 0 27 0;
#X connect 34 0 51 0;
#X connect 51 0 8 0;
#X connect 51 0 8 1;
