#N canvas 434 73 565 410 10;
#X obj 305 4 cnv 15 250 40 empty empty empty 12 13 0 18 -128992 -233080
0;
#N canvas 382 141 749 319 (subpatch) 0;
#X coords 0 -1 1 1 252 42 2 100 100;
#X restore 304 3 pd;
#X obj 344 11 cnv 10 10 10 empty empty ELSE 0 15 2 30 -128992 -233080
0;
#X obj 22 40 cnv 4 4 4 empty empty Convert 0 28 2 18 -233017 -1 0;
#X obj 457 11 cnv 10 10 10 empty empty EL 0 6 2 13 -128992 -233080
0;
#X obj 477 11 cnv 10 10 10 empty empty Locus 0 6 2 13 -128992 -233080
0;
#X obj 514 11 cnv 10 10 10 empty empty Solus' 0 6 2 13 -128992 -233080
0;
#X obj 463 26 cnv 10 10 10 empty empty ELSE 0 6 2 13 -128992 -233080
0;
#X obj 501 26 cnv 10 10 10 empty empty library 0 6 2 13 -128992 -233080
0;
#X obj 87 40 cnv 4 4 4 empty empty to/from 0 28 2 18 -233017 -1 0;
#X obj 149 40 cnv 4 4 4 empty empty bpm 0 28 2 18 -233017 -1 0;
#X obj 2 3 cnv 15 301 42 empty empty bpm 20 20 2 37 -233017 -1 0;
#N canvas 0 22 450 278 (subpatch) 0;
#X coords 0 1 100 -1 302 42 1 0 0;
#X restore 2 3 graph;
#X text 64 94 [bpm] calculates a convertsion to and from bpm (beats
per minute). By default it converts to and from ms. But you can also
set it to convert to and from samples.;
#X obj 3 242 cnv 3 550 3 empty empty inlets 8 12 0 13 -228856 -1 0
;
#X obj 3 277 cnv 3 550 3 empty empty outlets 8 12 0 13 -228856 -1 0
;
#X obj 3 312 cnv 3 550 3 empty empty arguments 8 12 0 13 -228856 -1
0;
#X obj 168 286 cnv 17 3 17 empty empty 0 5 9 0 16 -228856 -162280 0
;
#X obj 169 251 cnv 17 3 17 empty empty 0 5 9 0 16 -228856 -162280 0
;
#X obj 3 382 cnv 15 552 21 empty empty empty 20 12 0 14 -233017 -33289
0;
#X text 197 286 float;
#X obj 189 151 nbx 5 14 -1e+37 1e+37 0 0 empty empty empty 0 -8 0 10
-228856 -1 -1 80 256;
#X obj 189 208 nbx 5 14 -1e+37 1e+37 0 0 empty empty empty 0 -8 0 10
-228856 -1 -1 375 256;
#X text 197 252 float;
#X text 233 252 - convert;
#X obj 3 354 cnv 3 550 3 empty empty flags 8 12 0 13 -228856 -1 0;
#X text 233 286 - conversion output;
#X text 166 361 -samps: sets conversion to/from samples;
#X obj 297 151 nbx 5 14 -1e+37 1e+37 0 0 empty empty empty 0 -8 0 10
-228856 -1 -1 22050 256;
#X obj 297 208 nbx 5 14 -1e+37 1e+37 0 0 empty empty empty 0 -8 0 10
-228856 -1 -1 60 256;
#X obj 297 178 else/bpm -samps;
#X obj 189 178 else/bpm 8;
#X text 91 179 eigth note =>;
#X text 141 321 1)float -;
#X text 204 321 note divider (4 = fourth note \, 8 = eight and so on)
default: 4, f 51;
#X connect 21 0 31 0;
#X connect 28 0 30 0;
#X connect 30 0 29 0;
#X connect 31 0 22 0;
