#N canvas 619 73 579 441 10;
#X obj 306 4 cnv 15 250 40 empty empty empty 12 13 0 18 -128992 -233080
0;
#N canvas 382 141 749 319 (subpatch) 0;
#X coords 0 -1 1 1 252 42 2 100 100;
#X restore 305 3 pd;
#X obj 345 11 cnv 10 10 10 empty empty ELSE 0 15 2 30 -128992 -233080
0;
#X obj 84 40 cnv 4 4 4 empty empty behaviour 0 28 2 18 -233017 -1 0
;
#X obj 21 40 cnv 4 4 4 empty empty Change 0 28 2 18 -233017 -1 0;
#X obj 458 11 cnv 10 10 10 empty empty EL 0 6 2 13 -128992 -233080
0;
#X obj 478 11 cnv 10 10 10 empty empty Locus 0 6 2 13 -128992 -233080
0;
#X obj 515 11 cnv 10 10 10 empty empty Solus' 0 6 2 13 -128992 -233080
0;
#X obj 464 26 cnv 10 10 10 empty empty ELSE 0 6 2 13 -128992 -233080
0;
#X obj 502 26 cnv 10 10 10 empty empty library 0 6 2 13 -128992 -233080
0;
#X obj 3 3 cnv 15 301 42 empty empty brat 20 20 2 37 -233017 -1 0;
#N canvas 0 22 450 278 (subpatch) 0;
#X coords 0 1 100 -1 302 42 1 0 0;
#X restore 2 3 graph;
#X obj 162 40 cnv 4 4 4 empty empty of 0 28 2 18 -233017 -1 0;
#X obj 192 40 cnv 4 4 4 empty empty subpatch 0 28 2 18 -233017 -1 0
;
#N canvas 280 23 338 256 brat-subpatch 0;
#X obj 128 187 outlet;
#X obj 179 187 outlet;
#X obj 128 139 bng 18 250 50 0 empty empty empty 17 7 0 10 -228856
-1 -1;
#X obj 179 139 bng 18 250 50 0 empty empty empty 17 7 0 10 -228856
-1 -1;
#X obj 128 96 else/brat;
#X connect 2 0 0 0;
#X connect 3 0 1 0;
#X connect 4 0 2 0;
#X connect 4 1 3 0;
#X restore 199 219 pd brat-subpatch;
#X obj 292 247 bng 15 250 50 0 empty empty empty 17 7 0 10 -228856
-1 -1;
#X text 311 246 click;
#X obj 199 248 bng 15 250 50 0 empty empty empty 17 7 0 10 -228856
-1 -1;
#X text 129 249 properties;
#X text 65 94 If you have [brat] in a subpatch \, it doesn't behave
as the parent expects. Namely \, it won't respond to a click or properties.
This is useful for managing abstractions \, where you can make an abstraction
object respond to a click and have its own preferences settings.,
f 67;
#X text 65 149 See below that when you right click and ask for properties
\, the [brat] object sends out a bang in its left outlet. And when
it is clicked \, it sends a bang in its right outlet. You can still
open the subpatch with right click and then "open"., f 66;
#X obj 8 283 cnv 3 550 3 empty empty inlets 8 12 0 13 -228856 -1 0
;
#X obj 6 316 cnv 3 550 3 empty empty outlets 8 12 0 13 -228856 -1 0
;
#X obj 7 380 cnv 3 550 3 empty empty arguments 8 12 0 13 -228856 -1
0;
#X obj 7 406 cnv 15 552 21 empty empty empty 20 12 0 14 -233017 -33289
0;
#X text 198 387 (none);
#X obj 111 326 cnv 17 3 17 empty empty 0 5 9 0 16 -228856 -162280 0
;
#X obj 111 349 cnv 17 3 17 empty empty 1 5 9 0 16 -228856 -162280 0
;
#X text 149 327 bang;
#X text 149 350 bang;
#X text 186 326 - bang when asked for properties in the parent patch
;
#X text 186 349 - bang when clicked on in the parent patch;
#X text 154 293 (none);
#N canvas 284 132 454 252 more 0;
#X obj 127 123 else/sampler~;
#X obj 248 123 else/player~;
#X text 49 37 The [sampler~] and [player~] objects in else use [brat]
to open a new sound file when clicked on. And when queried about properties
\, it sends a warning saying "sorry \, I don't really have a properties
window";
#X restore 431 239 pd more;
#X connect 14 0 17 0;
#X connect 14 1 15 0;
