#N canvas 793 61 562 523 10;
#X obj 1 493 cnv 15 552 21 empty empty empty 20 12 0 14 -233017 -33289
0;
#X obj 2 283 cnv 3 550 3 empty empty inlets 8 12 0 13 -228856 -1 0
;
#X obj 2 378 cnv 3 550 3 empty empty outlets 8 12 0 13 -228856 -1 0
;
#X obj 2 412 cnv 3 550 3 empty empty arguments 8 12 0 13 -228856 -1
0;
#X obj 93 387 cnv 17 3 17 empty empty 0 5 9 0 16 -228856 -162280 0
;
#X text 155 291 signal;
#X obj 94 292 cnv 17 3 47 empty empty 0 5 9 0 16 -228856 -162280 0
;
#X text 199 291 - the signal to be averaged;
#X text 155 387 signal;
#X text 143 420 1) float;
#X obj 306 4 cnv 15 250 40 empty empty empty 12 13 0 18 -128992 -233080
0;
#X obj 345 11 cnv 10 10 10 empty empty ELSE 0 15 2 30 -128992 -233080
0;
#X obj 23 40 cnv 4 4 4 empty empty Moving 0 28 2 18 -233017 -1 0;
#X obj 89 40 cnv 4 4 4 empty empty RMS 0 28 2 18 -233017 -1 0;
#X obj 458 11 cnv 10 10 10 empty empty EL 0 6 2 13 -128992 -233080
0;
#X obj 478 11 cnv 10 10 10 empty empty Locus 0 6 2 13 -128992 -233080
0;
#X obj 515 11 cnv 10 10 10 empty empty Solus' 0 6 2 13 -128992 -233080
0;
#X obj 464 26 cnv 10 10 10 empty empty ELSE 0 6 2 13 -128992 -233080
0;
#X obj 502 26 cnv 10 10 10 empty empty library 0 6 2 13 -128992 -233080
0;
#N canvas 0 22 450 278 (subpatch) 0;
#X coords 0 1 100 -1 252 42 1 0 0;
#X restore 305 3 graph;
#X obj 3 3 cnv 15 301 42 empty empty mrms~ 20 20 2 37 -233017 -1 0
;
#N canvas 0 22 450 278 (subpatch) 0;
#X coords 0 1 100 -1 302 42 1;
#X restore 3 3 graph;
#X obj 2 443 cnv 3 550 3 empty empty flag 8 12 0 13 -228856 -1 0;
#X text 161 307 clear;
#X text 199 451 -;
#X text 199 345 -;
#X text 119 323 size <float>;
#X obj 93 344 cnv 17 3 31 empty empty 1 5 9 0 16 -228856 -162280 0
;
#X text 119 345 float/signal;
#X text 113 451 -size <float>;
#X text 212 345 'n' number of last samples to apply the average to
(if different than the last \, the filter is cleared), f 51;
#X obj 212 142 noise~;
#X text 199 323 - sets new maximum size and clears buffer's memory
;
#X text 199 387 - the RMS over the time window;
#X text 213 450 sets buffer size (default 1024 samples), f 40;
#X obj 212 256 print~;
#X obj 179 226 bng 15 250 50 0 empty empty empty 17 7 0 10 -228856
-1 -1;
#X text 199 420 - sets number of samples in the window (default 1)
;
#X text 199 471 -;
#X text 173 471 -db;
#X text 213 470 sets output to dBFS, f 40;
#X text 199 307 - clears buffer's memory;
#X msg 281 135 linear;
#X msg 298 159 db;
#X text 61 88 [mrms~] gives you a running/moving RMS (Root Mean Square)
over a time window of samples. At each sample \, the RMS of the last
'n' sample is given.;
#X obj 212 187 else/mrms~ 4096 -db;
#N canvas 728 74 564 455 example 0;
#X obj 35 156 noise~;
#X obj 245 281 else/graph~;
#X obj 35 282 else/graph~;
#X obj 368 215 nbx 5 17 -1e+37 1e+37 0 0 empty empty empty 0 -8 0 12
-228856 -1 -1 0 256;
#X obj 371 170 hsl 150 15 1 2048 1 0 adsfadsg ahhah empty -2 -8 0 10
-228856 -1 -1 0 1;
#X text 376 169 'n' samples to average;
#X obj 368 193 int;
#X text 37 22 The first argument specifies 'n' number of samples to
take the RMS. This also sets the buffer size if no size flag is given.
Float or signals into the right inlet also sets 'n'. The default and
minimum value is "1"., f 61;
#X text 37 85 By default \, the buffers size 1024 samples long. You
can also set the maximum value with the -size flag or message., f
61;
#X msg 245 176 size 2048;
#X msg 264 206 size 512;
#X obj 245 245 else/mrms~ -size 2048;
#X obj 467 43 else/setdsp~;
#X connect 0 0 2 0;
#X connect 0 0 11 0;
#X connect 3 0 11 1;
#X connect 4 0 6 0;
#X connect 6 0 3 0;
#X connect 9 0 11 0;
#X connect 10 0 11 0;
#X connect 11 0 1 0;
#X restore 470 247 pd example;
#X obj 48 237 else/rms~;
#X text 46 211 see also:;
#X obj 487 64 else/setdsp~;
#X obj 212 221 else/display~;
#X connect 31 0 45 0;
#X connect 36 0 35 0;
#X connect 42 0 45 0;
#X connect 43 0 45 0;
#X connect 45 0 50 0;
#X connect 50 0 35 0;
