#N canvas 517 103 562 459 10;
#X obj 306 4 cnv 15 250 40 empty empty empty 12 13 0 18 -128992 -233080
0;
#X obj 345 11 cnv 10 10 10 empty empty ELSE 0 15 2 30 -128992 -233080
0;
#X obj 23 40 cnv 4 4 4 empty empty Quantize 0 28 2 18 -233017 -1 0
;
#X obj 458 11 cnv 10 10 10 empty empty EL 0 6 2 13 -128992 -233080
0;
#X obj 478 11 cnv 10 10 10 empty empty Locus 0 6 2 13 -128992 -233080
0;
#X obj 515 11 cnv 10 10 10 empty empty Solus' 0 6 2 13 -128992 -233080
0;
#X obj 464 26 cnv 10 10 10 empty empty ELSE 0 6 2 13 -128992 -233080
0;
#X obj 502 26 cnv 10 10 10 empty empty library 0 6 2 13 -128992 -233080
0;
#N canvas 0 22 450 278 (subpatch) 0;
#X coords 0 1 100 -1 252 42 1;
#X restore 305 3 graph;
#X obj 3 2 cnv 15 301 42 empty empty quantizer 20 20 2 37 -233017 -1
0;
#N canvas 0 22 450 278 (subpatch) 0;
#X coords 0 1 100 -1 302 42 1;
#X restore 3 3 graph;
#X obj 98 40 cnv 4 4 4 empty empty to 0 28 2 18 -233017 -1 0;
#X obj 124 40 cnv 4 4 4 empty empty steps 0 28 2 18 -233017 -1 0;
#X obj 269 134 hsl 128 15 0 1 0 0 empty empty empty -2 -8 0 10 -228856
-1 -1 0 1;
#X obj 266 156 nbx 5 14 -1e+37 1e+37 0 0 empty empty empty 0 -8 0 10
-228856 -1 -1 0 256;
#X obj 161 151 nbx 7 14 -1e+37 1e+37 0 0 empty empty empty 0 -8 0 10
-228856 -1 -1 0 256;
#X obj 161 206 nbx 7 14 -1e+37 1e+37 0 0 empty empty empty 0 -8 0 10
-228856 -1 -1 0 256;
#X text 63 88 [quantizer] approximates a value to step values defined
by the argument. There are 4 approximation modes: round (default) \,
int \, floor & ceil., f 64;
#X obj 3 430 cnv 15 552 21 empty empty empty 20 12 0 14 -233017 -33289
0;
#X obj 3 232 cnv 3 550 3 empty empty inlets 8 12 0 13 -228856 -1 0
;
#X obj 3 303 cnv 3 550 3 empty empty outlets 8 12 0 13 -228856 -1 0
;
#X obj 3 340 cnv 3 550 3 empty empty arguments 8 12 0 13 -228856 -1
0;
#X obj 107 312 cnv 17 3 17 empty empty 0 5 9 0 16 -228856 -162280 0
;
#X text 159 349 1) float;
#X obj 106 277 cnv 17 3 17 empty empty 1 5 9 0 16 -228856 -162280 0
;
#X obj 107 241 cnv 17 3 30 empty empty 0 5 9 0 16 -228856 -162280 0
;
#X obj 3 398 cnv 3 550 3 empty empty flag 8 12 0 13 -228856 -1 0;
#X text 130 407 -mode <float>;
#X text 220 407 -;
#X text 219 349 - step value (default = 0 \, no approximation), f
52;
#X text 135 255 mode <float>;
#X text 221 254 - sets approximarion mode <0 \, 1 \, 2 or 3>;
#X text 221 277 - step value to quantize to;
#X text 232 407 sets approximation mode <0 \, 1 \, 2 or 3>;
#X text 219 365 -;
#X text 159 365 2) float;
#X text 231 365 approximation mode: 0 (round) \, 1 (int) \, 2 (floor)
or 3 (ceil) - default 0, f 50;
#X text 177 239 float;
#X text 177 278 float;
#X text 177 313 float;
#X text 219 313 - quantized float;
#X text 221 238 - a float to be quantized, f 40;
#N canvas 566 158 466 340 modes 0;
#X text 56 17 You can set the mode with the second argument \, the
-mode flag or the mode message. Modes are: 0 (round) \, 1 (int) \,
2 (floor) or 3 (ceil) - the default mode is 0 (round)., f 62;
#X obj 182 170 hsl 180 16 -10 10 0 0 empty empty empty -2 -8 0 10 -228856
-1 -1 0 1;
#X text 247 198 input;
#X msg 115 185 mode \$1;
#X obj 115 89 vradio 16 1 0 4 empty empty empty 0 -8 0 10 -228856 -1
-1 2;
#X floatatom 115 161 3 0 0 0 - - -, f 3;
#X text 136 89 0: round - rounds to nearest step;
#X text 136 105 1: truncate - truncates to step;
#X text 136 122 2: floor - approximates to lower step;
#X text 136 138 3: ceil - approximates to higher step;
#X text 247 282 output;
#X obj 179 200 nbx 5 14 -1e+37 1e+37 0 0 empty empty empty 0 -8 0 10
-228856 -1 -1 0 256;
#X obj 179 283 nbx 5 14 -1e+37 1e+37 0 0 empty empty empty 0 -8 0 10
-228856 -1 -1 0 256;
#X obj 179 239 else/quantizer 1;
#X connect 1 0 11 0;
#X connect 3 0 13 0;
#X connect 4 0 5 0;
#X connect 5 0 3 0;
#X connect 11 0 13 0;
#X connect 13 0 12 0;
#X restore 481 153 pd modes;
#N canvas 937 321 286 221 lists 0;
#X text 55 31 it also works with lists:;
#X obj 46 136 else/display;
#X obj 46 101 else/quantizer 0.25;
#X obj 46 68 else/initmess 0.333 0.666 0.999;
#X connect 2 0 1 0;
#X connect 3 0 2 0;
#X restore 482 175 pd lists;
#X obj 161 176 else/quantizer 0.1;
#N canvas 719 102 441 355 compare 0;
#X text 249 59 round;
#X text 250 85 truncate;
#X text 250 106 floor;
#X text 250 129 ceil;
#X obj 175 106 else/floor;
#X obj 181 129 else/ceil;
#X obj 216 84 int;
#X text 95 164 The above objects are like the different modes in [quantizer]
for a setp of 1!, f 40;
#X obj 147 60 expr round($f1);
#X text 99 31 Check also these:, f 18;
#X obj 206 276 else/rint;
#X text 50 222 ELSE also has the [rint] object \, which quite similar
to the 'round' function and is also present in [expr] \, but 0.5 rounds
to 0 instead of 1!, f 62;
#X restore 471 198 pd compare;
#X connect 13 0 14 0;
#X connect 14 0 44 1;
#X connect 15 0 44 0;
#X connect 44 0 16 0;
