#N canvas 736 118 560 485 10;
#X obj 4 288 cnv 3 550 3 empty empty inlets 8 12 0 13 -228856 -1 0
;
#X obj 4 359 cnv 3 550 3 empty empty outlets 8 12 0 13 -228856 -1 0
;
#X obj 4 393 cnv 3 550 3 empty empty arguments 8 12 0 13 -228856 -1
0;
#X obj 86 368 cnv 17 3 17 empty empty 0 5 9 0 16 -228856 -162280 0
;
#X obj 4 426 cnv 15 552 21 empty empty empty 20 12 0 14 -233017 -33289
0;
#X obj 401 202 nbx 5 14 -1e+37 1e+37 0 0 empty empty empty 0 -8 0 10
-228856 -1 -1 0 256;
#X text 458 202 ms;
#X text 401 183 gate time;
#X obj 86 296 cnv 17 3 32 empty empty 0 5 9 0 16 -228856 -162280 0
;
#X obj 86 334 cnv 17 3 17 empty empty 1 5 9 0 16 -228856 -162280 0
;
#X text 191 334 - gate time in ms;
#X text 107 402 1) float - gate time in ms (default 0 \, no gate);
#X text 145 366 signal;
#X obj 23 41 cnv 4 4 4 empty empty Timed 0 28 2 18 -233017 -1 0;
#X obj 73 41 cnv 4 4 4 empty empty gate 0 28 2 18 -233017 -1 0;
#X obj 113 41 cnv 4 4 4 empty empty from 0 28 2 18 -233017 -1 0;
#X obj 156 41 cnv 4 4 4 empty empty impulses 0 28 2 18 -233017 -1 0
;
#X obj 3 4 cnv 15 301 42 empty empty tgate2~ 20 20 2 37 -233017 -1
0;
#N canvas 0 22 450 278 (subpatch) 0;
#X coords 0 1 100 -1 302 42 1 0 0;
#X restore 2 4 graph;
#X obj 305 5 cnv 15 250 40 empty empty empty 12 13 0 18 -128992 -233080
0;
#N canvas 382 141 749 319 (subpatch) 0;
#X coords 0 -1 1 1 252 42 2 100 100;
#X restore 304 4 pd;
#X obj 345 12 cnv 10 10 10 empty empty ELSE 0 15 2 30 -128992 -233080
0;
#X obj 458 12 cnv 10 10 10 empty empty EL 0 6 2 13 -128992 -233080
0;
#X obj 478 12 cnv 10 10 10 empty empty Locus 0 6 2 13 -128992 -233080
0;
#X obj 515 12 cnv 10 10 10 empty empty Solus' 0 6 2 13 -128992 -233080
0;
#X obj 464 27 cnv 10 10 10 empty empty ELSE 0 6 2 13 -128992 -233080
0;
#X obj 502 27 cnv 10 10 10 empty empty library 0 6 2 13 -128992 -233080
0;
#N canvas 207 34 366 264 (subpatch) 0;
#X obj 51 101 tgl 42 0 \$0-tgl-s \$0-tgl-r empty 1 8 1 9 -74965 -212593
-262144 1 1;
#X obj 215 68 route dsp;
#X obj 215 37 receive pd;
#N canvas 977 77 379 291 set_color 0;
#X obj 47 30 inlet;
#X obj 147 200 s \$0-cnv;
#X obj 47 83 select 0 1;
#X obj 47 220 s \$0-tgl-r;
#N canvas 0 22 712 637 off 0;
#X obj 490 220 * -1;
#X obj 424 300 +;
#X obj 409 325 +;
#X obj 347 219 * -65536;
#X obj 424 220 * -256;
#X obj 409 356 - 1;
#X obj 390 189 unpack f f f;
#X obj 225 295 +;
#X obj 210 320 +;
#X obj 148 214 * -65536;
#X obj 225 215 * -256;
#X obj 291 215 * -1;
#X obj 210 351 - 1;
#X obj 191 184 unpack f f f;
#X obj 379 423 pack;
#X msg 395 152 124 124 124;
#X msg 203 154 220 220 220;
#X obj 238 121 t b b;
#X obj 238 81 inlet;
#X obj 378 485 outlet;
#X connect 0 0 1 1;
#X connect 1 0 2 1;
#X connect 2 0 5 0;
#X connect 3 0 2 0;
#X connect 4 0 1 0;
#X connect 5 0 14 1;
#X connect 6 0 3 0;
#X connect 6 1 4 0;
#X connect 6 2 0 0;
#X connect 7 0 8 1;
#X connect 8 0 12 0;
#X connect 9 0 8 0;
#X connect 10 0 7 0;
#X connect 11 0 7 1;
#X connect 12 0 14 0;
#X connect 13 0 9 0;
#X connect 13 1 10 0;
#X connect 13 2 11 0;
#X connect 14 0 19 0;
#X connect 15 0 6 0;
#X connect 16 0 13 0;
#X connect 17 0 16 0;
#X connect 17 1 15 0;
#X connect 18 0 17 0;
#X restore 47 113 pd off;
#X msg 47 180 color \$1 \$2 0;
#X msg 147 131 -4.86997e+06 -1.34937e+07;
#X msg 147 171 color \$1 0 \$2;
#X connect 0 0 2 0;
#X connect 2 0 4 0;
#X connect 2 1 6 0;
#X connect 4 0 5 0;
#X connect 4 0 7 0;
#X connect 5 0 3 0;
#X connect 6 0 7 0;
#X connect 6 0 5 0;
#X connect 7 0 1 0;
#X restore 215 165 pd set_color;
#X obj 135 122 r \$0-tgl-s;
#N canvas 121 482 450 300 (subpatch) 0;
#X obj 101 101 cnv 25 40 25 empty \$0-cnv DSP 3 13 0 20 -74965 -212593
0;
#X coords 0 -1 1 1 42 27 1 100 100;
#X restore 51 144 pd;
#X obj 226 139 s \$0-tgl-r;
#X msg 226 115 set \$1;
#X msg 135 177 \; pd dsp \$1;
#N canvas 256 32 278 194 load_check 0;
#X obj 136 53 sig~ 1;
#X obj 74 24 loadbang;
#X obj 136 86 snapshot~;
#X obj 91 52 del 5;
#X obj 136 151 outlet;
#X obj 74 103 tgl 15 0 empty empty empty 17 7 0 10 -262144 -1 -1 0
1;
#X obj 74 126 switch~;
#X connect 0 0 2 0;
#X connect 1 0 3 0;
#X connect 1 0 5 0;
#X connect 2 0 4 0;
#X connect 3 0 2 0;
#X connect 3 0 5 0;
#X connect 5 0 6 0;
#X restore 51 72 pd load_check;
#X connect 1 0 3 0;
#X connect 1 0 7 0;
#X connect 2 0 1 0;
#X connect 4 0 8 0;
#X connect 4 0 3 0;
#X connect 7 0 6 0;
#X connect 9 0 0 0;
#X coords 0 -1 1 1 44 72 2 50 100;
#X restore 505 72 pd;
#X text 145 296 signal;
#X text 109 334 float/signal;
#X text 191 366 - timed gate;
#X obj 285 163 else/imp~ 0.5;
#X obj 285 196 *~;
#X obj 317 196 noise~;
#X obj 285 224 else/tgate2~ 1000;
#X obj 285 254 else/display~ 9;
#X text 152 314 float;
#X text 68 89 When receiving an impulse or a float \, [tgate~] sends
a timed gate (with the value of the impulse/float for the given duration
\, 0 otherwise). The length of the gate is given in ms \, if 0 or less
is given \, no gate is output., f 55;
#X text 191 296 - impulse trigger with the gate value;
#X text 192 314 - control trigger with the gate value;
#X obj 111 240 else/display~ 9;
#X msg 111 173 0.1;
#X msg 146 173 -0.9;
#X msg 188 173 13;
#X obj 111 210 else/tgate2~ 500;
#X connect 5 0 34 1;
#X connect 31 0 32 0;
#X connect 32 0 34 0;
#X connect 33 0 32 1;
#X connect 34 0 35 0;
#X connect 41 0 44 0;
#X connect 42 0 44 0;
#X connect 43 0 44 0;
#X connect 44 0 40 0;
