#N canvas 724 57 559 514 10;
#X obj 306 4 cnv 15 250 40 empty empty empty 12 13 0 18 -128992 -233080
0;
#N canvas 382 141 749 319 (subpatch) 0;
#X coords 0 -1 1 1 252 42 1;
#X restore 305 3 pd;
#X obj 345 11 cnv 10 10 10 empty empty ELSE 0 15 2 30 -128992 -233080
0;
#X obj 25 40 cnv 4 4 4 empty empty Variable 0 28 2 18 -233017 -1 0
;
#X obj 458 11 cnv 10 10 10 empty empty EL 0 6 2 13 -128992 -233080
0;
#X obj 478 11 cnv 10 10 10 empty empty Locus 0 6 2 13 -128992 -233080
0;
#X obj 515 11 cnv 10 10 10 empty empty Solus' 0 6 2 13 -128992 -233080
0;
#X obj 464 26 cnv 10 10 10 empty empty ELSE 0 6 2 13 -128992 -233080
0;
#X obj 502 26 cnv 10 10 10 empty empty library 0 6 2 13 -128992 -233080
0;
#X obj 163 40 cnv 4 4 4 empty empty oscillator 0 28 2 18 -233017 -1
0;
#X obj 3 273 cnv 3 550 3 empty empty inlets 8 12 0 13 -228856 -1 0
;
#X obj 3 369 cnv 3 550 3 empty empty outlets 8 12 0 13 -228856 -1 0
;
#X obj 3 405 cnv 3 550 3 empty empty arguments 8 12 0 13 -228856 -1
0;
#X obj 122 378 cnv 17 3 17 empty empty 0 5 9 0 16 -228856 -162280 0
;
#X obj 123 281 cnv 17 3 17 empty empty 0 5 9 0 16 -228856 -162280 0
;
#X obj 3 476 cnv 15 552 21 empty empty empty 20 12 0 14 -233017 -33289
0;
#X text 165 282 float/signal -;
#X text 262 283 frequency in hz;
#X obj 122 303 cnv 17 3 17 empty empty 1 5 9 0 16 -228856 -162280 0
;
#X text 164 324 float/signal -;
#X obj 122 323 cnv 17 3 17 empty empty 2 5 9 0 16 -228856 -162280 0
;
#X text 200 344 signal -;
#X text 200 378 signal -;
#X text 184 414 1) float;
#X text 184 433 2) float;
#X text 261 325 phase offset (modulation input);
#X text 261 344 phase sync (ressets internal phase);
#X obj 122 344 cnv 17 3 17 empty empty 3 5 9 0 16 -228856 -162280 0
;
#X text 165 303 float/signal -;
#X obj 218 144 nbx 5 14 -1e+37 1e+37 0 0 empty empty empty 0 -8 0 10
-228856 -1 -1 0 256;
#X text 278 140 <= hz;
#N canvas 207 34 366 264 (subpatch) 0;
#X obj 51 101 tgl 42 0 \$0-tgl-s \$0-tgl-r empty 1 8 1 9 -228856 -128992
-262144 0 1;
#X obj 215 68 route dsp;
#X obj 215 37 receive pd;
#N canvas 977 77 379 291 set_color 0;
#X obj 47 30 inlet;
#X obj 147 200 s \$0-cnv;
#X obj 47 83 select 0 1;
#X obj 47 220 s \$0-tgl-r;
#N canvas 0 22 712 637 off 0;
#X obj 490 220 * -1;
#X obj 424 300 +;
#X obj 409 325 +;
#X obj 347 219 * -65536;
#X obj 424 220 * -256;
#X obj 409 356 - 1;
#X obj 390 189 unpack f f f;
#X obj 225 295 +;
#X obj 210 320 +;
#X obj 148 214 * -65536;
#X obj 225 215 * -256;
#X obj 291 215 * -1;
#X obj 210 351 - 1;
#X obj 191 184 unpack f f f;
#X obj 379 423 pack;
#X msg 395 152 124 124 124;
#X msg 203 154 220 220 220;
#X obj 238 121 t b b;
#X obj 238 81 inlet;
#X obj 378 485 outlet;
#X connect 0 0 1 1;
#X connect 1 0 2 1;
#X connect 2 0 5 0;
#X connect 3 0 2 0;
#X connect 4 0 1 0;
#X connect 5 0 14 1;
#X connect 6 0 3 0;
#X connect 6 1 4 0;
#X connect 6 2 0 0;
#X connect 7 0 8 1;
#X connect 8 0 12 0;
#X connect 9 0 8 0;
#X connect 10 0 7 0;
#X connect 11 0 7 1;
#X connect 12 0 14 0;
#X connect 13 0 9 0;
#X connect 13 1 10 0;
#X connect 13 2 11 0;
#X connect 14 0 19 0;
#X connect 15 0 6 0;
#X connect 16 0 13 0;
#X connect 17 0 16 0;
#X connect 17 1 15 0;
#X connect 18 0 17 0;
#X restore 47 113 pd off;
#X msg 47 180 color \$1 \$2 0;
#X msg 147 131 -4.86997e+06 -1.34937e+07;
#X msg 147 171 color \$1 0 \$2;
#X connect 0 0 2 0;
#X connect 2 0 4 0;
#X connect 2 1 6 0;
#X connect 4 0 5 0;
#X connect 4 0 7 0;
#X connect 5 0 3 0;
#X connect 6 0 7 0;
#X connect 6 0 5 0;
#X connect 7 0 1 0;
#X restore 215 165 pd set_color;
#X obj 135 122 r \$0-tgl-s;
#N canvas 121 482 450 300 (subpatch) 0;
#X obj 101 101 cnv 25 40 25 empty \$0-cnv DSP 3 13 0 20 -228856 -128992
0;
#X coords 0 -1 1 1 42 27 1 100 100;
#X restore 51 144 pd;
#X obj 226 139 s \$0-tgl-r;
#X msg 226 115 set \$1;
#X msg 135 177 \; pd dsp \$1;
#N canvas 256 32 278 194 load_check 0;
#X obj 136 53 sig~ 1;
#X obj 74 24 loadbang;
#X obj 136 86 snapshot~;
#X obj 91 52 del 5;
#X obj 136 151 outlet;
#X obj 74 103 tgl 15 0 empty empty empty 17 7 0 10 -262144 -1 -1 0
1;
#X obj 74 126 switch~;
#X connect 0 0 2 0;
#X connect 1 0 3 0;
#X connect 1 0 5 0;
#X connect 2 0 4 0;
#X connect 3 0 2 0;
#X connect 3 0 5 0;
#X connect 5 0 6 0;
#X restore 51 72 pd load_check;
#X connect 1 0 3 0;
#X connect 1 0 7 0;
#X connect 2 0 1 0;
#X connect 4 0 8 0;
#X connect 4 0 3 0;
#X connect 7 0 6 0;
#X connect 9 0 0 0;
#X coords 0 -1 1 1 44 72 2 50 100;
#X restore 505 71 pd;
#N canvas 354 88 811 327 sync 0;
#X obj 180 118 bng 15 250 50 0 empty empty empty 17 7 0 10 -228856
-1 -1;
#X obj 95 245 else/out~;
#X text 46 141 impulse value of 1 =>;
#X text 688 88 Master;
#X text 601 123 Slave;
#X obj 486 179 else/out~;
#X obj 590 62 nbx 5 14 110 200 0 0 empty empty empty 0 -8 0 10 -228856
-1 -1 110 256;
#X text 426 255 Note that the "phase sync" inlet is quite different
from the "phase offset" inlet. This means that you will resset the
internal of the object \, but the offset still remains.;
#X obj 180 142 else/trigate~;
#X obj 590 88 else/imp~ 110;
#X text 420 24 An impulse oscillator as the input forces "hard sync".
;
#X text 15 14 The fourth inlet expects an impulse signal for syncing.
The impulse values need to be > 0 and <= 1 (otherwise ignored) so the
internal phase jumps imediately to the given impulse value. Because
phase is cyclical \, the value of 1 represents the "phase 0" of the
cycle \, where the impulse occurs. Send it impulses and check the result
below.;
#X text 194 163 <== immediately jumps to the \; start of the cycle
when receiving an impulse.;
#X obj 111 203 else/vtri~ 1;
#X obj 509 122 else/vtri~ 200;
#X connect 0 0 8 0;
#X connect 6 0 9 0;
#X connect 8 0 13 3;
#X connect 9 0 14 3;
#X connect 13 0 1 0;
#X connect 13 0 1 1;
#X connect 14 0 5 0;
#X connect 14 0 5 1;
#X restore 494 239 pd sync;
#N canvas 430 175 777 299 phase 0;
#X text 401 23 The phase values are wrapped into the 0-1 range \, since
the phase cycle is from 0 to 1 - where 1 is also the start of another
cycle.;
#X obj 523 99 cnv 15 150 65 empty empty empty 20 12 0 14 -233017 -66577
0;
#X obj 531 191 else/out~;
#X text 525 81 Phase Modulation:;
#X text 19 21 The third argument sets an initial phase (or "phase offset").
This is also settable with the third inlet. In such a way \, you have
two objects with the same frequency falling out and back in sync. Another
feature is phase modulation.;
#X obj 600 110 osc~ 50.01;
#X text 368 113 1;
#X obj 112 231 else/out~;
#X obj 234 113 hsl 128 15 0 1 0 0 empty empty empty -2 -8 0 10 -228856
-1 -1 0 1;
#X floatatom 231 138 0 0 0 0 - - -;
#X text 212 113 0;
#X obj 130 195 +~;
#X obj 546 138 else/vtri~ 200;
#X obj 145 168 else/vtri~ 220 0.5 0.5;
#X obj 62 137 else/vtri~ 220 0.5 0;
#X connect 5 0 12 2;
#X connect 8 0 9 0;
#X connect 9 0 13 2;
#X connect 11 0 7 0;
#X connect 11 0 7 1;
#X connect 12 0 2 0;
#X connect 12 0 2 1;
#X connect 13 0 11 1;
#X connect 14 0 11 0;
#X restore 445 214 pd phase offset;
#X text 184 451 3) float;
#X obj 3 3 cnv 15 301 42 empty empty vtri~ 20 20 2 37 -233017 -1 0
;
#N canvas 0 22 450 278 (subpatch) 0;
#X coords 0 1 100 -1 302 42 1;
#X restore 2 3 graph;
#X text 262 304 width (from 0 to 1);
#N canvas 512 142 406 338 width 0;
#X obj 127 239 else/out~;
#X obj 179 83 hsl 128 15 0 1 0 0 empty empty empty -2 -8 0 10 -228856
-1 -1 0 1;
#X obj 176 108 nbx 5 14 -1e+37 1e+37 0 0 empty empty empty 0 -8 0 10
-228856 -1 -1 0 256;
#X msg 176 131 \$1 10;
#X obj 176 153 line~;
#X text 23 22 A width of 0 or 1 makes it a sawtooth like waveform \,
while beteen 0 and 1 makes it a variable triangle waveform.;
#X obj 145 188 else/vtri~ 220 0;
#X connect 1 0 2 0;
#X connect 2 0 3 0;
#X connect 3 0 4 0;
#X connect 4 0 6 1;
#X connect 6 0 0 0;
#X connect 6 0 0 1;
#X restore 486 188 pd width;
#X text 243 451 - initial phase offset (default 0);
#X text 243 433 - initial width (default 0.5);
#X text 243 414 - frequency in hertz (default 0);
#X obj 98 40 cnv 4 4 4 empty empty triangle 0 28 2 18 -233017 -1 0
;
#X text 261 378 triangle wave signal;
#X obj 201 212 else/out~;
#X text 60 87 [vtri~] is a variable triangle waveform oscillator that
accepts negative frequencies \, has inlets for width \, phase modulation
and phase sync.;
#X obj 218 177 else/vtri~ 220;
#X connect 29 0 46 0;
#X connect 46 0 44 0;
#X connect 46 0 44 1;
