#N canvas 744 368 531 320 12;
#X obj 310 130 test~;
#X obj 310 168 snake~ out 2, f 15;
#N canvas 0 0 450 300 (subpatch) 0;
#X array scope-l 1920 float 0 black black;
#X coords 0 1 1919 -1 120 90 1;
#X restore 30 200 graph;
#N canvas 0 0 450 300 (subpatch) 0;
#X array scope-r 1920 float 0 black black;
#X coords 0 1 1919 -1 120 90 1;
#X restore 170 200 graph;
#X obj 449 192 tgl 15 1 empty empty empty 17 7 0 10 #fcfcfc #000000
#000000 1 1;
#X obj 30 10 tgl 15 0 empty empty empty 17 7 0 10 #fcfcfc #000000 #000000
1 1;
#X obj 310 50 osc~;
#X obj 310 244 output~;
#X obj 310 90 snake~ in 2;
#X obj 384 50 osc~;
#N canvas 1234 526 450 300 scope 0;
#X obj 80 50 metro 100;
#X obj 20 100 tabwrite~ scope-l;
#X obj 160 100 tabwrite~ scope-r;
#X obj 250 20 inlet;
#X obj 20 20 inlet~;
#X obj 160 20 inlet~;
#X connect 0 0 1 0;
#X connect 0 0 2 0;
#X connect 3 0 0 0;
#X connect 4 0 1 0;
#X connect 5 0 2 0;
#X restore 310 207 pd scope;
#X obj 30 130 s f1;
#X obj 209 130 s f2;
#X floatatom 310 20 5 0 0 0 - f1 -, f 5;
#X floatatom 384 20 5 0 0 0 - f2 -, f 5;
#X obj 30 80 expr mtof(random(36 \, 55)) \; mtof(random(36 \, 60))*4/3
;
#X obj 30 34 metro 250;
#X text 360 130 <-- multi-channel 2x2, f 22;
#X connect 0 0 1 0;
#X connect 1 0 7 0;
#X connect 1 0 10 0;
#X connect 1 1 7 1;
#X connect 1 1 10 1;
#X connect 4 0 10 2;
#X connect 5 0 16 0;
#X connect 6 0 8 0;
#X connect 8 0 0 0;
#X connect 9 0 8 1;
#X connect 13 0 6 0;
#X connect 14 0 9 0;
#X connect 15 0 11 0;
#X connect 15 1 12 0;
#X connect 16 0 15 0;
