#N canvas 535 299 684 437 10;
#X declare -lib pdlua;
#X obj 166 218 lsymbol-drip;
#X msg 24 59 what;
#X symbolatom 121 157 10 0 0 0 - - - 0;
#X obj 91 141 bng 15 250 50 0 empty empty empty 17 7 0 10 #fcfcfc #000000 #000000;
#X msg 73 108 symbol qwertyuiop;
#X obj 181 241 print dripped;
#X text 258 218 [lsymbol-drip] spits out the characters of a symbol.;
#X msg 45 80 why not;
#X text 98 79 <- but a message is rejected;
#X text 58 59 <- a lone selector is taken to be a symbol;
#X text 216 181 <- unicode should be handled correctly;
#X obj 43 314 tgl 15 0 empty empty empty 17 7 0 10 #fcfcfc #000000 #000000 0 1;
#X obj 166 267 sel a b c d e f g h i j k l m n o p q r s t u v w x y z;
#X obj 63 314 tgl 15 0 empty empty empty 17 7 0 10 #fcfcfc #000000 #000000 0 1;
#X obj 83 314 tgl 15 0 empty empty empty 17 7 0 10 #fcfcfc #000000 #000000 0 1;
#X obj 103 314 tgl 15 0 empty empty empty 17 7 0 10 #fcfcfc #000000 #000000 0 1;
#X obj 123 314 tgl 15 0 empty empty empty 17 7 0 10 #fcfcfc #000000 #000000 0 1;
#X obj 143 314 tgl 15 0 empty empty empty 17 7 0 10 #fcfcfc #000000 #000000 0 1;
#X obj 163 314 tgl 15 0 empty empty empty 17 7 0 10 #fcfcfc #000000 #000000 0 1;
#X obj 183 314 tgl 15 0 empty empty empty 17 7 0 10 #fcfcfc #000000 #000000 0 1;
#X obj 203 314 tgl 15 0 empty empty empty 17 7 0 10 #fcfcfc #000000 #000000 0 1;
#X obj 223 314 tgl 15 0 empty empty empty 17 7 0 10 #fcfcfc #000000 #000000 0 1;
#X obj 243 314 tgl 15 0 empty empty empty 17 7 0 10 #fcfcfc #000000 #000000 0 1;
#X obj 263 314 tgl 15 0 empty empty empty 17 7 0 10 #fcfcfc #000000 #000000 0 1;
#X obj 283 314 tgl 15 0 empty empty empty 17 7 0 10 #fcfcfc #000000 #000000 0 1;
#X obj 303 314 tgl 15 0 empty empty empty 17 7 0 10 #fcfcfc #000000 #000000 0 1;
#X obj 323 314 tgl 15 0 empty empty empty 17 7 0 10 #fcfcfc #000000 #000000 0 1;
#X obj 343 314 tgl 15 0 empty empty empty 17 7 0 10 #fcfcfc #000000 #000000 0 1;
#X obj 363 314 tgl 15 0 empty empty empty 17 7 0 10 #fcfcfc #000000 #000000 0 1;
#X obj 383 314 tgl 15 0 empty empty empty 17 7 0 10 #fcfcfc #000000 #000000 0 1;
#X obj 403 314 tgl 15 0 empty empty empty 17 7 0 10 #fcfcfc #000000 #000000 0 1;
#X obj 423 314 tgl 15 0 empty empty empty 17 7 0 10 #fcfcfc #000000 #000000 0 1;
#X obj 443 314 tgl 15 0 empty empty empty 17 7 0 10 #fcfcfc #000000 #000000 0 1;
#X obj 463 314 tgl 15 0 empty empty empty 17 7 0 10 #fcfcfc #000000 #000000 0 1;
#X obj 483 314 tgl 15 0 empty empty empty 17 7 0 10 #fcfcfc #000000 #000000 0 1;
#X obj 503 314 tgl 15 0 empty empty empty 17 7 0 10 #fcfcfc #000000 #000000 0 1;
#X obj 523 314 tgl 15 0 empty empty empty 17 7 0 10 #fcfcfc #000000 #000000 0 1;
#X obj 543 314 tgl 15 0 empty empty empty 17 7 0 10 #fcfcfc #000000 #000000 0 1;
#X msg 146 181 symbol zéyé;
#X text 430 404 by Martin Peach 2012_04_03;
#X msg 121 130 set Who;
#X symbolatom 564 314 10 0 0 0 - - - 0;
#X obj 448 84 declare -lib pdlua;
#X connect 0 0 5 0;
#X connect 0 0 12 0;
#X connect 1 0 0 0;
#X connect 2 0 0 0;
#X connect 3 0 2 0;
#X connect 4 0 0 0;
#X connect 7 0 0 0;
#X connect 12 0 11 0;
#X connect 12 1 13 0;
#X connect 12 2 14 0;
#X connect 12 3 15 0;
#X connect 12 4 16 0;
#X connect 12 5 17 0;
#X connect 12 6 18 0;
#X connect 12 7 19 0;
#X connect 12 8 20 0;
#X connect 12 9 21 0;
#X connect 12 10 22 0;
#X connect 12 11 23 0;
#X connect 12 12 24 0;
#X connect 12 13 25 0;
#X connect 12 14 26 0;
#X connect 12 15 27 0;
#X connect 12 16 28 0;
#X connect 12 17 29 0;
#X connect 12 18 30 0;
#X connect 12 19 31 0;
#X connect 12 20 32 0;
#X connect 12 21 33 0;
#X connect 12 22 34 0;
#X connect 12 23 35 0;
#X connect 12 24 36 0;
#X connect 12 25 37 0;
#X connect 12 26 41 0;
#X connect 38 0 0 0;
#X connect 40 0 2 0;
