#N canvas 544 52 560 493 10;
#X obj 4 277 cnv 3 550 3 empty empty inlets 8 12 0 13 #dcdcdc #000000
0;
#X obj 4 351 cnv 3 550 3 empty empty outlets 8 12 0 13 #dcdcdc #000000
0;
#X obj 4 420 cnv 3 550 3 empty empty arguments 8 12 0 13 #dcdcdc #000000
0;
#X obj 141 360 cnv 17 3 17 empty empty 0 5 9 0 16 #dcdcdc #9c9c9c 0
;
#X obj 4 466 cnv 15 552 21 empty empty empty 20 12 0 14 #e0e0e0 #202020
0;
#X obj 3 3 cnv 15 301 42 empty empty eqdiv 20 20 2 37 #e0e0e0 #000000
0;
#X obj 306 4 cnv 15 250 40 empty empty empty 12 13 0 18 #7c7c7c #e0e4dc
0;
#N canvas 0 22 450 278 (subpatch) 0;
#X coords 0 1 100 -1 302 42 1 0 0;
#X restore 2 3 graph;
#N canvas 382 141 749 319 (subpatch) 0;
#X coords 0 -1 1 1 252 42 2 100 100;
#X restore 305 3 pd;
#X obj 345 11 cnv 10 10 10 empty empty ELSE 0 15 2 30 #7c7c7c #e0e4dc
0;
#X obj 23 40 cnv 4 4 4 empty empty Equal 0 28 2 18 #e0e0e0 #000000
0;
#X obj 74 40 cnv 4 4 4 empty empty divisions 0 28 2 18 #e0e0e0 #000000
0;
#X obj 458 11 cnv 10 10 10 empty empty EL 0 6 2 13 #7c7c7c #e0e4dc
0;
#X obj 478 11 cnv 10 10 10 empty empty Locus 0 6 2 13 #7c7c7c #e0e4dc
0;
#X obj 515 11 cnv 10 10 10 empty empty Solus' 0 6 2 13 #7c7c7c #e0e4dc
0;
#X obj 464 26 cnv 10 10 10 empty empty ELSE 0 6 2 13 #7c7c7c #e0e4dc
0;
#X obj 502 26 cnv 10 10 10 empty empty library 0 6 2 13 #7c7c7c #e0e4dc
0;
#X obj 139 286 cnv 17 3 35 empty empty 0 5 9 0 16 #dcdcdc #9c9c9c 0
;
#X text 188 360 list;
#X obj 150 40 cnv 4 4 4 empty empty of 0 28 2 18 #e0e0e0 #000000 0
;
#X obj 179 40 cnv 4 4 4 empty empty intervals 0 28 2 18 #e0e0e0 #000000
0;
#X text 49 85 Use [eqdiv] to generate a scale as a list of ratios that
equally divide a given interval \, the output is in cents. intervals
defined as fractions to ratio intervals., f 72;
#X text 306 137 equal temperament;
#X text 316 164 bohlen-pierce;
#X text 329 185 quarter tones;
#X text 182 286 float;
#X text 182 328 float;
#X obj 139 326 cnv 17 3 17 empty empty 1 5 9 0 16 #dcdcdc #9c9c9c 0
;
#X text 188 303 bang;
#X text 221 302 - generate scale;
#X obj 239 170 bng 18 250 50 0 empty empty empty 17 7 0 10 #dcdcdc
#000000 #000000;
#X text 460 179 see also:;
#X obj 461 202 else/autotune;
#X obj 461 224 else/retune;
#X obj 461 244 else/frac2dec;
#X obj 41 170 bng 18 250 50 0 empty empty empty 17 7 0 10 #dcdcdc #000000
#000000;
#X obj 41 231 print scale-ratio;
#X obj 270 242 print scale-cents;
#X floatatom 164 170 5 0 0 0 - - - 0;
#X text 55 146 with -ratio flag;
#X obj 4 385 cnv 3 550 3 empty empty flags 8 12 0 13 #dcdcdc #000000
0;
#X text 136 395 -ratio: sets scale output to ratio instead of cents
;
#X text 221 360 - scale in cents or ratio;
#X msg 270 137 12 2;
#X msg 282 163 13 3;
#X msg 293 186 24 2;
#X obj 270 214 else/eqdiv 7 2;
#X obj 41 203 else/eqdiv -ratio 7 2;
#X text 221 285 - set number of equal divisions and generate scale
;
#X text 221 327 - set interval ratio;
#X text 192 445 2) float - interval ratio (default: 2);
#X text 192 426 1) float - number of equal divisions (default: 12)
;
#X connect 30 0 46 0;
#X connect 35 0 47 0;
#X connect 38 0 47 1;
#X connect 43 0 46 0;
#X connect 44 0 46 0;
#X connect 45 0 46 0;
#X connect 46 0 37 0;
#X connect 47 0 36 0;
