#N canvas 677 23 570 625 10;
#X floatatom 176 238 5 0 0 0 - - - 0;
#X floatatom 219 184 5 1 10 0 - - - 0;
#X floatatom 305 257 5 1 10 0 - - - 0;
#X text 136 240 hertz;
#X obj 176 312 else/out~;
#X floatatom 262 232 5 0 0 0 - - - 0;
#X text 298 232 multiplier;
#X obj 265 210 hsl 128 15 -2 2 0 0 empty empty empty -2 -8 0 10 #dfdfdf
#000000 #000000 0 1;
#X text 341 257 lowest harmonic;
#X obj 305 4 cnv 15 250 40 empty empty empty 12 13 0 18 #7c7c7c #e0e4dc
0;
#N canvas 382 141 749 319 (subpatch) 0;
#X coords 0 -1 1 1 252 42 2 100 100;
#X restore 304 3 pd;
#X obj 344 11 cnv 10 10 10 empty empty ELSE 0 15 2 30 #7c7c7c #e0e4dc
0;
#X obj 22 40 cnv 4 4 4 empty empty Band-limited\\\ impulse\\\ oscillator
0 28 2 18 #e0e0e0 #000000 0;
#X obj 457 11 cnv 10 10 10 empty empty EL 0 6 2 13 #7c7c7c #e0e4dc
0;
#X obj 477 11 cnv 10 10 10 empty empty Locus 0 6 2 13 #7c7c7c #e0e4dc
0;
#X obj 514 11 cnv 10 10 10 empty empty Solus' 0 6 2 13 #7c7c7c #e0e4dc
0;
#X obj 463 26 cnv 10 10 10 empty empty ELSE 0 6 2 13 #7c7c7c #e0e4dc
0;
#X obj 501 26 cnv 10 10 10 empty empty library 0 6 2 13 #7c7c7c #e0e4dc
0;
#X obj 2 3 cnv 15 301 42 empty empty gbuzz~ 20 20 2 37 #e0e0e0 #000000
0;
#N canvas 0 22 450 278 (subpatch) 0;
#X coords 0 1 100 -1 302 42 1 0 0;
#X restore 2 3 graph;
#X obj 11 595 cnv 15 552 21 empty \$0-pddp.cnv.footer empty 20 12 0
14 #dcdcdc #404040 0;
#X obj 11 380 cnv 3 550 3 empty \$0-pddp.cnv.inlets inlets 8 12 0 13
#dcdcdc #000000 0;
#X obj 11 481 cnv 3 550 3 empty \$0-pddp.cnv.outlets outlets 8 12 0
13 #dcdcdc #000000 0;
#X obj 11 517 cnv 3 550 3 empty \$0-pddp.cnv.argument arguments 8 12
0 13 #dcdcdc #000000 0;
#X obj 127 388 cnv 17 3 17 empty \$0-pddp.cnv.let.0 0 5 9 0 16 #dcdcdc
#9c9c9c 0;
#X obj 127 411 cnv 17 3 17 empty \$0-pddp.cnv.let.1 1 5 9 0 16 #dcdcdc
#9c9c9c 0;
#X text 136 527 1) float;
#X text 136 543 2) float;
#X text 151 389 float/signal;
#X text 232 389 - fundamental frequency in hertz;
#X text 193 411 float;
#X obj 126 433 cnv 17 3 17 empty \$0-pddp.cnv.let.1 2 5 9 0 16 #dcdcdc
#9c9c9c 0;
#X text 192 433 float;
#X obj 126 455 cnv 17 3 17 empty \$0-pddp.cnv.let.1 3 5 9 0 16 #dcdcdc
#9c9c9c 0;
#X text 192 455 float;
#X obj 126 492 cnv 17 3 17 empty \$0-pddp.cnv.let.0 0 5 9 0 16 #dcdcdc
#9c9c9c 0;
#X text 136 559 3) float;
#X text 136 575 4) float;
#X text 186 492 signal;
#X text 231 492 - band limited oscillator output;
#X text 198 527 - fundamental frequency in hertz (default 0);
#X text 198 543 - number of partials (default 1);
#X text 198 559 - spectral multiplier (default 1);
#X text 198 575 - lowest harmonic (default 1);
#X obj 176 282 else/gbuzz~ 100 10 1 1;
#N canvas 557 76 562 547 example 1;
#X obj 74 254 else/out~;
#X obj 42 112 else/rescale~ 190 210, f 13;
#X obj 42 85 osc~ 0.23;
#X obj 74 163 else/gbuzz~ 0 20;
#X obj 211 203 else/graph~ 441 13 -1 1 200 140 #dfdfdf 0 1;
#X obj 211 385 else/spectrograph~ 1024 0 1 300 140 100;
#X floatatom 136 140 8 0 0 0 - - - 0;
#X obj 136 117 else/rescale -1 1;
#X obj 136 94 else/lfo 0.033;
#X floatatom 136 69 5 0 0 0 - - - 0;
#X obj 139 43 hsl 128 15 0.033 1 1 0 empty empty empty -2 -8 0 10 #dfdfdf
#000000 #000000 0 1;
#X text 244 176 waveform;
#X text 246 364 spectrograph;
#X text 144 43 spectral multiplier;
#X text 265 93 The left inlet takes signals. The secondary ones do
not but in the third inlet floats are internally converted to audio
with a ramp of 20ms (you can use this parameter to add/remove brightness
via a LFO as in this example)., f 47;
#X connect 1 0 3 0;
#X connect 2 0 1 0;
#X connect 3 0 0 0;
#X connect 3 0 4 0;
#X connect 4 0 5 0;
#X connect 6 0 3 2;
#X connect 7 0 6 0;
#X connect 8 0 7 0;
#X connect 9 0 8 0;
#X connect 10 0 9 0;
#X restore 471 341 pd example;
#X text 255 182 number of partials;
#X text 232 411 - number of partials;
#X text 231 433 - spectral multiplier;
#X text 231 455 - lowest harmonic;
#X text 39 87 [gbuzz~] is a band-limited impulse oscillator similar
to Csound's "gbuzz" opcode that is based on DSF (Discrete-Summation
Formulae). It takes a frequency in hertz for the fundamental \, a number
of harmonics \, a multiplier for the partials after the first one and
the lowest harmonic number. If the fundamental is '100' \, the number
of harmonics is 2 and the lowest harmonic is 1 \, then you have '100'
and '200' as the partial's frequencies. Now \, if the lowest harmonic
is 2 \, then you have '200' and '300'., f 81;
#X connect 0 0 44 0;
#X connect 1 0 44 1;
#X connect 2 0 44 3;
#X connect 5 0 44 2;
#X connect 7 0 5 0;
#X connect 44 0 4 0;
