#N canvas 708 53 559 683 10;
#X obj 305 3 cnv 15 250 40 empty empty empty 12 13 0 18 -128992 -233080
0;
#N canvas 382 141 749 319 (subpatch) 0;
#X coords 0 -1 1 1 252 42 2 100 100;
#X restore 304 2 pd;
#X obj 344 10 cnv 10 10 10 empty empty ELSE 0 15 2 30 -128992 -233080
0;
#X obj 22 39 cnv 4 4 4 empty empty Giga 0 28 2 18 -233017 -1 0;
#X obj 67 39 cnv 4 4 4 empty empty reverb 0 28 2 18 -233017 -1 0;
#X obj 457 10 cnv 10 10 10 empty empty EL 0 6 2 13 -128992 -233080
0;
#X obj 477 10 cnv 10 10 10 empty empty Locus 0 6 2 13 -128992 -233080
0;
#X obj 514 10 cnv 10 10 10 empty empty Solus' 0 6 2 13 -128992 -233080
0;
#X obj 463 25 cnv 10 10 10 empty empty ELSE 0 6 2 13 -128992 -233080
0;
#X obj 501 25 cnv 10 10 10 empty empty library 0 6 2 13 -128992 -233080
0;
#X obj 2 2 cnv 15 301 42 empty empty giga.rev~ 20 20 2 37 -233017 -1
0;
#N canvas 0 22 450 278 (subpatch) 0;
#X coords 0 1 100 -1 302 42 1 0 0;
#X restore 2 2 graph;
#X obj 2 233 cnv 3 550 3 empty \$0-pddp.cnv.inlets inlets 8 12 0 13
-228856 -1 0;
#X obj 122 241 cnv 17 3 181 empty \$0-pddp.cnv.let.0 0 5 9 0 16 -228856
-162280 0;
#X obj 7 428 cnv 3 550 3 empty empty outlets 8 12 0 13 -228856 -1 0
;
#X obj 121 434 cnv 17 3 17 empty empty 0 5 9 0 16 -228856 -162280 0
;
#X obj 121 454 cnv 17 3 17 empty empty 1 5 9 0 16 -228856 -162280 0
;
#X obj 5 655 cnv 15 552 21 empty empty empty 20 12 0 14 -233017 -33289
0;
#X obj 6 477 cnv 3 550 3 empty empty arguments 8 12 0 13 -228856 -1
0;
#X obj 7 506 cnv 3 550 3 empty empty flags 8 12 0 13 -228856 -1 0;
#X text 166 267 damp <float> - high frequency damping (0-1), f 50
;
#N canvas 812 207 562 453 example 0;
#X msg 70 172 print;
#X obj 122 355 else/out~;
#X obj 338 47 vradio 15 1 0 10 empty empty empty 0 -8 0 10 -228856
-1 -1 0;
#N canvas 751 159 712 728 presets 0;
#X obj 73 21 inlet;
#X obj 88 576 s \$0-set;
#X obj 103 516 s \$0-set;
#X obj 118 453 s \$0-set;
#X obj 134 393 s \$0-set;
#X text 145 577 bathroom;
#X text 162 518 living room;
#X msg 73 608 size 40 \, decay 4 \, damp 0.9 \, bw 0.75 \, dry 1 \,
early 0.795 \, late 0.04, f 66;
#X obj 73 633 s \$0-set;
#X text 130 634 "quick fix";
#X obj 149 333 s \$0-set;
#X obj 164 277 s \$0-set;
#X text 234 217 Last row of the church;
#X msg 180 194 size 200 \, decay 9 \, damp 0.7 \, bw 0.8 \, dry 0.1
\, early 0.18 \, late 0.4, f 66;
#X obj 180 216 s \$0-set;
#X obj 195 163 s \$0-set;
#X obj 210 109 s \$0-set;
#X obj 73 62 select 0 1 2 3 4 5 6 7 8 9;
#X msg 118 427 size 50 \, decay 1.5 \, damp 0.1 \, bw 0.75 \, dry 0.84
\, early 0.31 \, late 0.1, f 69;
#X text 179 453 Bright \, small hall;
#X msg 134 369 size 40 \, decay 20 \, damp 0.5 \, bw 0.75 \, dry 1
\, early 0.31 \, late 0.031, f 67;
#X text 191 395 Nice hall effect;
#X msg 149 309 size 6 \, decay 15 \, damp 0.9 \, bw 0.1 \, dry 0.31
\, early 0.31 \, late 0.31, f 67;
#X text 207 333 Singing in the Sewer;
#X text 220 278 church;
#X text 251 164 cathedral;
#X text 264 110 canyon;
#X msg 210 86 size 300 \, decay 103 \, damp 0.43 \, bw 0.51 \, dry
0.55 \, early 0.05 \, late 0.1, f 71;
#X msg 195 141 size 143 \, decay 7 \, damp 0.71 \, bw 0.34 \, dry 0.7
\, early 0.28 \, late 0.35, f 69;
#X msg 164 252 size 80 \, decay 4.85 \, damp 0.41 \, bw 0.69 \, dry
0.7 \, early 0.35 \, late 0.28, f 71;
#X msg 103 492 size 16 \, decay 1.24 \, damp 0.18 \, bw 0.95 \, dry
0.7 \, early 0.18 \, late 0.14, f 71;
#X msg 88 550 size 5 \, decay 0.6 \, damp 0.62 \, bw 0.48 \, dry 0.5
\, early 0.25 \, late 0.25, f 69;
#X obj 328 679 outlet;
#X obj 328 648 r \$0-set;
#X connect 0 0 17 0;
#X connect 7 0 8 0;
#X connect 13 0 14 0;
#X connect 17 0 7 0;
#X connect 17 1 31 0;
#X connect 17 2 30 0;
#X connect 17 3 18 0;
#X connect 17 4 20 0;
#X connect 17 5 22 0;
#X connect 17 6 29 0;
#X connect 17 7 13 0;
#X connect 17 8 28 0;
#X connect 17 9 27 0;
#X connect 18 0 3 0;
#X connect 20 0 4 0;
#X connect 22 0 10 0;
#X connect 27 0 16 0;
#X connect 28 0 15 0;
#X connect 29 0 11 0;
#X connect 30 0 2 0;
#X connect 31 0 1 0;
#X connect 33 0 32 0;
#X restore 338 219 pd presets;
#X text 338 25 presets \;;
#X text 358 62 - bathroom, f 13;
#X text 358 46 - "quick fix";
#X text 358 77 - living room;
#X text 358 137 - church;
#X text 358 122 - singing in the Sewer;
#X text 358 108 - nice hall effect;
#X text 358 92 - bright \, small hall;
#X text 358 152 - last row of the church;
#X text 358 167 - cathedral;
#X text 358 182 - canyon;
#X obj 139 208 else/player~ bubul.wav 1 1;
#N canvas 636 167 948 523 controls 0;
#X floatatom 48 97 0 1 300 0 - - -;
#X obj 254 168 tgl 15 0 empty empty empty 17 7 0 10 -228856 -1 -1 0
1;
#X msg 254 192 bypass \$1;
#X msg 60 313 dry \$1;
#X msg 137 330 early \$1;
#X msg 207 193 clear;
#X floatatom 353 111 0 0 1 0 - - -;
#X floatatom 122 136 0 0 100 0 - - -;
#X floatatom 283 71 0 0 1 0 - - -;
#X msg 281 400 wet \$1;
#X msg 283 95 damp \$1;
#X msg 122 162 decay \$1;
#X msg 48 124 size \$1;
#X obj 214 313 hsl 128 15 0 1 0 0 empty empty empty -2 -8 0 10 -228856
-1 -1 0 1;
#X obj 140 284 hsl 128 15 0 1 0 0 empty empty empty -2 -8 0 10 -228856
-1 -1 0 1;
#X floatatom 211 335 0 0 1 0 - - -;
#X floatatom 137 307 0 0 1 0 - - -;
#X obj 63 258 hsl 128 15 0 1 0 0 empty empty empty -2 -8 0 10 -228856
-1 -1 0 1;
#X floatatom 60 286 0 0 1 0 - - -;
#X obj 284 349 hsl 128 15 0 1 0 0 empty empty empty -2 -8 0 10 -228856
-1 -1 0 1;
#X floatatom 281 375 0 -90 0 0 - - -;
#X msg 211 361 late \$1;
#X msg 353 137 bw \$1;
#X text 527 121 - damp: Controls the high frequency damping and affects
the response of the early reflections and the decay of the late reflections.
The higher the value \, the less intense is the reverb., f 60;
#X text 527 248 - dry: Controls the dry signal level, f 60;
#X text 527 170 - bw: Controls the input bandwidth \, which is like
a "tone" control. Small values cause a smaller frequency range to be
processed. In general \, the effect of this control can be heard in
the treble band. Smaller values cause a "muffled" and less bright reverb.
, f 60;
#X text 527 372 - late: Controls the late reflections level (a.k.a.
"reverb tail"). It determines the amount of the hall effect of the
reverb and determines how intense the reverb appears to be., f 60
;
#X text 527 411 - wet: Controls a master gain for both early and late
reflections., f 60;
#X text 527 266 - early: Controls the early reflections level \, which
are similar to slapback echoes. Though they are not responsible for
the typical hall effect generally linked with reverb \, they contain
lots of acoustic information about the setup in which the sound occurs.
Generally \, early reflections about 10-20 dB higher than the late
reflections gives a typical reverb effect. By setting it considerably
smaller than the late reflections level \, you can simulate a distance
between the source and the listener.;
#X text 527 20 - size: Controls the overall characteristics and influences
both the early and late reflections. The initial maxsize is 300 squared
meters \, but if initialize the object with a room size bigger than
that (with the -size flag) \, it becomes the maximum limit. You can
specify an even larger maximum size with the -maxsize flag.;
#X obj 373 434 outlet;
#X obj 286 48 hsl 128 15 0 1 0 0 empty empty empty -2 -8 0 10 -228856
-1 -1 0 1;
#X obj 356 87 hsl 128 15 0 1 0 0 empty empty empty -2 -8 0 10 -228856
-1 -1 0 1;
#X obj 211 438 s \$0-set;
#X obj 353 173 s \$0-set;
#X obj 125 108 hsl 128 15 0 100 0 0 empty empty empty -2 -8 0 10 -228856
-1 -1 0 1;
#X obj 122 190 s \$0-set;
#X obj 51 72 hsl 128 15 0 100 0 0 empty empty empty -2 -8 0 10 -228856
-1 -1 0 1;
#X obj 254 236 s \$0-set;
#X text 527 441 - bypass: this completely bypasses the object and just
outputs the input., f 60;
#X text 527 471 - clear: this completely bypasses the object and just
outputs the input.;
#X obj 356 290 s \$0-set;
#X obj 359 214 hsl 128 15 0 1 0 0 empty empty empty -2 -8 0 10 -228856
-1 -1 0 1;
#X floatatom 356 237 0 0 1 0 - - -;
#X msg 356 264 spread \$1;
#X text 527 94 - decay: Controls the approximate time decay duration
of the reverb. In general \, it affects the late reflections;
#X obj 373 403 r \$0-set;
#X text 527 231 - spread: Controls the stereo spread width, f 60;
#X connect 0 0 12 0;
#X connect 1 0 2 0;
#X connect 2 0 38 0;
#X connect 3 0 33 0;
#X connect 4 0 33 0;
#X connect 5 0 38 0;
#X connect 6 0 22 0;
#X connect 7 0 11 0;
#X connect 8 0 10 0;
#X connect 9 0 33 0;
#X connect 10 0 34 0;
#X connect 11 0 36 0;
#X connect 12 0 36 0;
#X connect 13 0 15 0;
#X connect 14 0 16 0;
#X connect 15 0 21 0;
#X connect 16 0 4 0;
#X connect 17 0 18 0;
#X connect 18 0 3 0;
#X connect 19 0 20 0;
#X connect 20 0 9 0;
#X connect 21 0 33 0;
#X connect 22 0 34 0;
#X connect 31 0 8 0;
#X connect 32 0 6 0;
#X connect 35 0 7 0;
#X connect 37 0 0 0;
#X connect 42 0 43 0;
#X connect 43 0 44 0;
#X connect 44 0 41 0;
#X connect 46 0 30 0;
#X restore 122 171 pd controls;
#X obj 338 247 print giga-rev~;
#X text 44 65 This example patch brings a few presets to the right.
You can also open [pd controls] to test each parameter independently
and read a bit more about how they affect the reverb unit., f 42;
#X obj 122 278 else/giga.rev~ -size 100 -damp 1 -bw 0.7 -dry 1 -early
0.18 -late 1 -spread 1, f 24;
#X connect 0 0 19 0;
#X connect 2 0 3 0;
#X connect 3 0 17 0;
#X connect 3 0 19 0;
#X connect 15 0 19 0;
#X connect 16 0 19 0;
#X connect 19 0 1 0;
#X connect 19 1 1 1;
#X restore 476 198 pd example;
#X obj 216 115 else/player~ vacuous.wav 1 1;
#X text 208 408 print - print parameters on Pd Window, f 43;
#X text 154 380 bypass <float> - sets bypass on <1> or off <0>, f
52;
#X text 208 394 clear - clears delay lines, f 43;
#X text 154 309 spread <float> - stereo spreading (0-1), f 52;
#X text 100 539 -decay <float>: decay time in seconds (default 7),
f 66;
#X text 100 553 -damp <float>: high frequency damping (default 0.5)
, f 66;
#X text 100 567 -spread <float>: stereo spread (default 0.5), f 66
;
#X text 100 595 -dry <float>: - dry level (default 0.5), f 66;
#X text 200 483 (none);
#X text 178 295 bw <float> - input bandwidth (0-1), f 48;
#X text 100 581 -bw <float> - input bandwidth (default 0.5), f 66
;
#X text 100 609 -early <float>: early reflections level (default 0.25)
, f 66;
#X text 100 623 -late <float>: late reflections level (default 0.25)
, f 66;
#X text 160 324 early <float> - early reflections gain level (0-1)
, f 51;
#X text 166 338 late <float> - late reflections gain level (0-1),
f 50;
#X text 172 352 dry <float> - dry gain level (0-1), f 49;
#X text 172 366 wet <float> - wet gain level (0-1), f 49;
#X text 160 281 decay <float> - decay time in seconds (0.001-3600)
, f 51;
#X text 69 85 [giga.rev~] is based on the well known "Gigaverb" algorithm
by Juhana Sadeharju., f 64;
#X text 202 239 signal - signal input (mono in \, stereo out);
#X text 202 434 signal - left output channel of the reverb, f 44;
#X text 202 454 signal - right output channel of the reverb, f 44
;
#X text 166 253 size <float> - room size in square meters, f 50;
#X text 100 511 -maxsize <float>: maximum room size in square meters
(default 300), f 66;
#X text 100 525 -size <float>: room size in square meters (default
50), f 66;
#X text 100 637 -wet <float>: wet level (default 1), f 66;
#X obj 216 142 else/giga.rev~;
#X obj 216 170 else/out~;
#X connect 22 0 49 0;
#X connect 49 0 50 0;
#X connect 49 1 50 1;
