#N canvas 667 136 558 598 10;
#X obj 1 570 cnv 15 552 21 empty \$0-pddp.cnv.footer empty 20 12 0
14 -228856 -66577 0;
#X obj 1 379 cnv 3 550 3 empty \$0-pddp.cnv.inlets inlets 8 12 0 13
-228856 -1 0;
#X obj 1 473 cnv 3 550 3 empty \$0-pddp.cnv.outlets outlets 8 12 0
13 -228856 -1 0;
#X obj 1 500 cnv 3 550 3 empty \$0-pddp.cnv.argument flags 8 12 0 13
-228856 -1 0;
#X obj 85 388 cnv 17 3 80 empty \$0-pddp.cnv.let.0 0 5 9 0 16 -228856
-162280 0;
#X text 192 387 signal;
#X obj 305 4 cnv 15 250 40 empty empty empty 12 13 0 18 -128992 -233080
0;
#N canvas 382 141 749 319 (subpatch) 0;
#X coords 0 -1 1 1 252 42 2 0 0;
#X restore 304 3 pd;
#X obj 344 11 cnv 10 10 10 empty empty ELSE 0 15 2 30 -128992 -233080
0;
#X obj 22 40 cnv 4 4 4 empty empty Signal 0 28 2 18 -233017 -1 0;
#X obj 77 40 cnv 4 4 4 empty empty graph 0 28 2 18 -233017 -1 0;
#X obj 457 11 cnv 10 10 10 empty empty EL 0 6 2 13 -128992 -233080
0;
#X obj 477 11 cnv 10 10 10 empty empty Locus 0 6 2 13 -128992 -233080
0;
#X obj 514 11 cnv 10 10 10 empty empty Solus' 0 6 2 13 -128992 -233080
0;
#X obj 463 26 cnv 10 10 10 empty empty ELSE 0 6 2 13 -128992 -233080
0;
#X obj 501 26 cnv 10 10 10 empty empty library 0 6 2 13 -128992 -233080
0;
#N canvas 207 34 366 264 (subpatch) 0;
#X obj 51 101 tgl 42 0 \$0-tgl-s \$0-tgl-r empty 1 8 1 9 -228856 -128992
-262144 0 1;
#X obj 215 68 route dsp;
#X obj 215 37 receive pd;
#N canvas 977 77 379 291 set_color 0;
#X obj 47 30 inlet;
#X obj 147 200 s \$0-cnv;
#X obj 47 83 select 0 1;
#X obj 47 220 s \$0-tgl-r;
#N canvas 0 22 712 637 off 0;
#X obj 490 220 * -1;
#X obj 424 300 +;
#X obj 409 325 +;
#X obj 347 219 * -65536;
#X obj 424 220 * -256;
#X obj 409 356 - 1;
#X obj 390 189 unpack f f f;
#X obj 225 295 +;
#X obj 210 320 +;
#X obj 148 214 * -65536;
#X obj 225 215 * -256;
#X obj 291 215 * -1;
#X obj 210 351 - 1;
#X obj 191 184 unpack f f f;
#X obj 379 423 pack;
#X msg 395 152 124 124 124;
#X msg 203 154 220 220 220;
#X obj 238 121 t b b;
#X obj 238 81 inlet;
#X obj 378 485 outlet;
#X connect 0 0 1 1;
#X connect 1 0 2 1;
#X connect 2 0 5 0;
#X connect 3 0 2 0;
#X connect 4 0 1 0;
#X connect 5 0 14 1;
#X connect 6 0 3 0;
#X connect 6 1 4 0;
#X connect 6 2 0 0;
#X connect 7 0 8 1;
#X connect 8 0 12 0;
#X connect 9 0 8 0;
#X connect 10 0 7 0;
#X connect 11 0 7 1;
#X connect 12 0 14 0;
#X connect 13 0 9 0;
#X connect 13 1 10 0;
#X connect 13 2 11 0;
#X connect 14 0 19 0;
#X connect 15 0 6 0;
#X connect 16 0 13 0;
#X connect 17 0 16 0;
#X connect 17 1 15 0;
#X connect 18 0 17 0;
#X restore 47 113 pd off;
#X msg 47 180 color \$1 \$2 0;
#X msg 147 131 -4.86997e+06 -1.34937e+07;
#X msg 147 171 color \$1 0 \$2;
#X connect 0 0 2 0;
#X connect 2 0 4 0;
#X connect 2 1 6 0;
#X connect 4 0 5 0;
#X connect 4 0 7 0;
#X connect 5 0 3 0;
#X connect 6 0 7 0;
#X connect 6 0 5 0;
#X connect 7 0 1 0;
#X restore 215 165 pd set_color;
#X obj 135 122 r \$0-tgl-s;
#N canvas 121 482 450 300 (subpatch) 0;
#X obj 101 101 cnv 25 40 25 empty \$0-cnv DSP 3 13 0 20 -228856 -128992
0;
#X coords 0 -1 1 1 42 27 1 100 100;
#X restore 51 144 pd;
#X obj 226 139 s \$0-tgl-r;
#X msg 226 115 set \$1;
#X msg 135 177 \; pd dsp \$1;
#N canvas 256 32 278 194 load_check 0;
#X obj 136 53 sig~ 1;
#X obj 74 24 loadbang;
#X obj 136 86 snapshot~;
#X obj 91 52 del 5;
#X obj 136 151 outlet;
#X obj 74 103 tgl 15 0 empty empty empty 17 7 0 10 -262144 -1 -1 0
1;
#X obj 74 126 switch~;
#X connect 0 0 2 0;
#X connect 1 0 3 0;
#X connect 1 0 5 0;
#X connect 2 0 4 0;
#X connect 3 0 2 0;
#X connect 3 0 5 0;
#X connect 5 0 6 0;
#X restore 51 72 pd load_check;
#X connect 1 0 3 0;
#X connect 1 0 7 0;
#X connect 2 0 1 0;
#X connect 4 0 8 0;
#X connect 4 0 3 0;
#X connect 7 0 6 0;
#X connect 9 0 0 0;
#X coords 0 -1 1 1 44 72 2 50 100;
#X restore 505 71 pd;
#X text 240 387 - incoming signal to graph, f 36;
#X obj 2 3 cnv 15 301 42 empty empty graph~ 20 20 2 37 -233017 -1 0
;
#N canvas 0 22 450 278 (subpatch) 0;
#X coords 0 1 100 -1 302 42 1;
#X restore 2 3 graph;
#X text 240 403 - buffer size in samples, f 36;
#X text 191 506 - buffer size in samples (default 441 \, minumum 64)
, f 51;
#X text 61 87 [graph~] is a very simple but convenient abstraction
for visualizing audio signals.;
#X text 156 403 size <float>;
#X text 240 419 - number of buffers to skip, f 36;
#X text 156 419 skip <float>;
#X text 191 521 - buffer skip (default 0), f 51;
#X obj 382 149 nbx 5 14 64 44100 0 1 empty empty empty 0 -8 0 10 -228856
-1 -1 441 256;
#X msg 382 170 size \$1;
#X obj 408 208 nbx 5 14 0 100 0 1 empty empty empty 0 -8 0 10 -228856
-1 -1 0 256;
#X msg 408 229 skip \$1;
#X text 106 506 -size <float>;
#X text 106 521 -skip <float>;
#X text 58 536 -range <float \, float>;
#X text 108 436 range <float \, float>;
#X obj 135 163 else/graph~ 441 0 -1 1 200 140;
#X text 70 551 -dim <float \, float>;
#X text 120 452 dim <float \, float>;
#X text 240 436 - set min/max range, f 36;
#X text 240 452 - set horizontal/vertical dimensions;
#X text 191 551 - set horizontal/vertical dimensions (default 200 140)
;
#X text 191 536 - set lower and upper graph range (default -1 1),
f 51;
#X obj 135 131 noise~;
#X obj 382 261 s \$0-set;
#X obj 196 134 r \$0-set;
#X obj 135 316 else/out~;
#X obj 85 480 cnv 17 3 17 empty \$0-pddp.cnv.let.0 0 5 9 0 16 -228856
-162280 0;
#X text 192 480 signal;
#X text 240 480 - input signal comes out here;
#X connect 27 0 28 0;
#X connect 28 0 43 0;
#X connect 29 0 30 0;
#X connect 30 0 43 0;
#X connect 35 0 45 0;
#X connect 42 0 35 0;
#X connect 44 0 35 0;
