#N canvas 653 70 662 551 12;
#X obj 92 42 inlet~;
#X obj 211 41 inlet~;
#X obj 100 451 outlet~;
#X obj 100 331 rifft~;
#X obj 211 174 rfft~;
#X obj 92 174 rfft~;
#X obj 248 433 block~;
#X msg 248 400 set \$1 4;
#X obj 235 362 r \$0-size;
#X obj 211 127 else/hann~;
#X obj 92 127 else/hann~;
#X obj 100 365 else/hann~;
#X obj 92 210 else/car2pol~;
#X obj 332 212 else/f2s~ 10;
#X obj 92 266 else/xfade~;
#X obj 92 293 else/pol2car~;
#X obj 100 406 *~;
#X obj 211 210 else/car2pol~;
#X obj 442 41 inlet;
#X obj 442 212 else/f2s~ 10;
#X obj 203 290 else/xfade~;
#X obj 464 108 else/args;
#X obj 464 80 loadbang;
#X obj 464 135 route bang;
#X obj 531 173 unpack;
#X obj 235 471 expr 1 / ($f1 * 1.5);
#X msg 464 166 1 -1;
#X msg 384 350 2048;
#X obj 384 321 loadbang;
#X obj 384 383 s \$0-size;
#X obj 332 41 inlet;
#X connect 0 0 10 0;
#X connect 1 0 9 0;
#X connect 3 0 11 0;
#X connect 4 0 17 0;
#X connect 4 1 17 1;
#X connect 5 0 12 0;
#X connect 5 1 12 1;
#X connect 7 0 6 0;
#X connect 8 0 7 0;
#X connect 8 0 25 0;
#X connect 9 0 4 0;
#X connect 10 0 5 0;
#X connect 11 0 16 0;
#X connect 12 0 14 0;
#X connect 12 1 20 0;
#X connect 13 0 14 2;
#X connect 14 0 15 0;
#X connect 15 0 3 0;
#X connect 15 1 3 1;
#X connect 16 0 2 0;
#X connect 17 0 14 1;
#X connect 17 1 20 1;
#X connect 18 0 19 0;
#X connect 19 0 20 2;
#X connect 20 0 15 1;
#X connect 21 0 23 0;
#X connect 22 0 21 0;
#X connect 23 0 26 0;
#X connect 23 1 24 0;
#X connect 24 0 13 0;
#X connect 24 1 19 0;
#X connect 25 0 16 1;
#X connect 26 0 24 0;
#X connect 27 0 29 0;
#X connect 28 0 27 0;
#X connect 30 0 13 0;
