#N canvas 538 23 563 392 10;
#X obj 3 265 cnv 3 550 3 empty empty inlets 8 12 0 13 #dcdcdc #000000 0;
#X obj 3 296 cnv 3 550 3 empty empty outlets 8 12 0 13 #dcdcdc #000000 0;
#X obj 3 331 cnv 3 550 3 empty empty arguments 8 12 0 13 #dcdcdc #000000 0;
#X obj 82 305 cnv 17 3 17 empty empty 0 5 9 0 16 #dcdcdc #9c9c9c 0;
#X obj 3 362 cnv 15 552 21 empty empty empty 20 12 0 14 #e0e0e0 #202020 0;
#X obj 201 154 hsl 180 15 0 1000 0 0 empty empty empty -2 -8 0 10 #dcdcdc #000000 #000000 0 1;
#X obj 3 3 cnv 15 301 42 empty empty ms2samps~ 20 20 2 37 #e0e0e0 #000000 0;
#X obj 306 4 cnv 15 250 40 empty empty empty 12 13 0 18 #7c7c7c #e0e4dc 0;
#N canvas 0 22 450 278 (subpatch) 0;
#X coords 0 1 100 -1 302 42 1 0 0;
#X restore 2 3 graph;
#N canvas 382 141 749 319 (subpatch) 0;
#X coords 0 -1 1 1 252 42 2 100 100;
#X restore 305 3 pd;
#X obj 345 11 cnv 10 10 10 empty empty ELSE 0 15 2 30 #7c7c7c #e0e4dc 0;
#X obj 458 11 cnv 10 10 10 empty empty EL 0 6 2 13 #7c7c7c #e0e4dc 0;
#X obj 478 11 cnv 10 10 10 empty empty Locus 0 6 2 13 #7c7c7c #e0e4dc 0;
#X obj 515 11 cnv 10 10 10 empty empty Solus' 0 6 2 13 #7c7c7c #e0e4dc 0;
#X obj 464 26 cnv 10 10 10 empty empty ELSE 0 6 2 13 #7c7c7c #e0e4dc 0;
#X obj 502 26 cnv 10 10 10 empty empty library 0 6 2 13 #7c7c7c #e0e4dc 0;
#X obj 23 40 cnv 4 4 4 empty empty Convert 0 28 2 18 #e0e0e0 #000000 0;
#X obj 150 40 cnv 4 4 4 empty empty samples 0 28 2 18 #e0e0e0 #000000 0;
#X obj 126 40 cnv 4 4 4 empty empty to 0 28 2 18 #e0e0e0 #000000 0;
#X obj 91 40 cnv 4 4 4 empty empty ms 0 28 2 18 #e0e0e0 #000000 0;
#X obj 83 274 cnv 17 3 17 empty empty 0 5 9 0 16 #dcdcdc #9c9c9c 0;
#X text 96 126 Conversion expression: samps = ms * samplerate/1000.;
#X text 176 179 ms;
#X text 146 234 Samples;
#X text 153 340 (none);
#X obj 198 207 else/ms2samps~;
#X obj 198 179 else/numbox~ 6 12 100 #c0c0c4 #440008 10 0 0 0;
#X obj 475 103 else/setdsp~;
#X obj 198 234 else/numbox~ 6 12 100 #c0c0c4 #440008 10 0 0 0;
#N canvas 795 189 371 312 multichannel 0;
#X obj 105 130 snake~ in;
#X listbox 105 104 12 0 0 0 - - - 0;
#X obj 249 144 setdsp~ 0;
#X text 100 28 Multichannel support example.;
#X obj 105 211 else/s2f~;
#X listbox 105 247 14 0 0 0 - - - 12;
#X obj 105 163 else/ms2samps~;
#X obj 105 75 else/initmess 100 500;
#X connect 0 0 6 0;
#X connect 1 0 0 0;
#X connect 4 0 5 0;
#X connect 6 0 4 0;
#X connect 7 0 1 0;
#X restore 442 227 pd multichannel;
#X text 96 85 [ms2samps] is a simple abstraction that converts time values from ms to number of samples. It has support for multichannel signals., f 53;
#X text 117 275 float/signal(s);
#X text 153 305 signal(s);
#X text 226 275 - time value(s) in ms;
#X text 222 305 - converted value(s) in number of samples;
#X connect 5 0 26 0;
#X connect 25 0 28 0;
#X connect 26 0 25 0;
