#N canvas 712 23 560 625 10;
#X obj 147 158 tgl 20 0 empty empty empty 17 7 0 10 #dcdcdc #000000
#000000 0 1;
#X obj 147 261 out~;
#X obj 354 240 print info;
#X obj 117 232 bng 18 250 50 0 empty empty empty 17 7 0 10 #dcdcdc
#000000 #000000;
#X msg 178 176 tempo \$1;
#X floatatom 178 154 5 0 0 0 - - - 0;
#X obj 147 232 else/impseq~;
#X obj 25 40 cnv 4 4 4 empty empty Rhythmic 0 28 2 18 #e0e0e0 #000000
0;
#X obj 106 40 cnv 4 4 4 empty empty pattern 0 28 2 18 #e0e0e0 #000000
0;
#X obj 3 3 cnv 15 301 42 empty empty pattern 20 20 2 37 #e0e0e0 #000000
0;
#N canvas 0 22 450 278 (subpatch) 0;
#X coords 0 1 100 -1 302 42 1 0 0;
#X restore 2 3 graph;
#X obj 305 4 cnv 15 250 40 empty empty empty 12 13 0 18 #7c7c7c #e0e4dc
0;
#N canvas 382 141 749 319 (subpatch) 0;
#X coords 0 -1 1 1 252 42 2 100 100;
#X restore 304 3 pd;
#X obj 345 11 cnv 10 10 10 empty empty ELSE 0 15 2 30 #7c7c7c #e0e4dc
0;
#X obj 458 11 cnv 10 10 10 empty empty EL 0 6 2 13 #7c7c7c #e0e4dc
0;
#X obj 478 11 cnv 10 10 10 empty empty Locus 0 6 2 13 #7c7c7c #e0e4dc
0;
#X obj 515 11 cnv 10 10 10 empty empty Solus' 0 6 2 13 #7c7c7c #e0e4dc
0;
#X obj 464 26 cnv 10 10 10 empty empty ELSE 0 6 2 13 #7c7c7c #e0e4dc
0;
#X obj 502 26 cnv 10 10 10 empty empty library 0 6 2 13 #7c7c7c #e0e4dc
0;
#X obj 166 40 cnv 4 4 4 empty empty sequencer 0 28 2 18 #e0e0e0 #000000
0;
#X obj 4 326 cnv 3 550 3 empty empty inlets 8 12 0 13 #dcdcdc #000000
0;
#X obj 4 459 cnv 3 550 3 empty empty outlets 8 12 0 13 #dcdcdc #000000
0;
#X obj 4 517 cnv 3 550 3 empty empty arguments 8 12 0 13 #dcdcdc #000000
0;
#X obj 112 468 cnv 17 3 17 empty empty 0 5 9 0 16 #dcdcdc #9c9c9c 0
;
#X obj 3 597 cnv 15 552 21 empty empty empty 20 12 0 14 #e0e0e0 #202020
0;
#X obj 112 334 cnv 17 3 95 empty empty 0 5 9 0 16 #dcdcdc #9c9c9c 0
;
#X obj 112 491 cnv 17 3 17 empty empty 1 5 9 0 16 #dcdcdc #9c9c9c 0
;
#X obj 112 434 cnv 17 3 17 empty empty 1 5 9 0 16 #dcdcdc #9c9c9c 0
;
#X obj 4 551 cnv 3 550 3 empty empty flags 8 12 0 13 #dcdcdc #000000
0;
#X text 74 157 start/stop;
#X text 17 251 see also:;
#X obj 15 272 else/sequencer;
#X text 300 167 set ===> pattern, f 8;
#X text 186 333 float;
#X text 225 333 - non-zero starts \, zero stops the sequencer, f 44
;
#X text 138 347 tempo <float>;
#X text 225 347 - sets tempo in (bpm), f 44;
#X text 192 433 list;
#X text 225 433 - sets new sequence, f 44;
#X text 169 491 anything;
#X text 227 491 - several sequence informations;
#X text 173 529 1) list - sets sequence (default \, empty);
#N canvas 817 44 549 565 details 0;
#X obj 197 339 bng 18 250 50 0 empty empty empty 17 7 0 10 #dcdcdc
#000000 #000000;
#X text 192 361 stop;
#X obj 232 408 bng 18 250 50 0 empty empty empty 17 7 0 10 #dcdcdc
#000000 #000000;
#X text 258 404 start of pattern, f 8;
#X obj 197 308 route stop start bar dur;
#X text 372 338 duration (also negative);
#X obj 106 385 out~;
#X obj 106 333 else/impseq~;
#X msg 175 224 1/4 1/4 1/4 1/8 1/24 1/24 1/24 | 1/6 1/12 1/12 1/6 1/6
1/15 4/15, f 32;
#X text 352 303 route information from the right outlet, f 22;
#X text 136 469 The right outlet gives the following information \;
'stop' - when the sequence stops \; 'start' - when it (re)starts \;
'bar <float \, float>' - bar number and total number of tempos \; 'dur
<float>' - duration of notes (negative when it's a rest), f 62;
#X obj 124 185 tgl 20 0 empty empty empty 17 7 0 10 #dcdcdc #000000
#000000 0 1;
#X obj 302 338 else/display 8;
#X text 124 17 The note durations are specified as fractions of a whole
note. Hence: 1/4 = fourth note / 1/8 = eight note and so on. Tuplets
are defined as \, for instance \, 1/6 (a fourth note triplet). Note
that 1/15 is a nested tuplet (a quintuplet inside a triplet)., f 63
;
#X msg 188 267 10/56 5/56 5/56 10/56 5/56 3/40 3/40 3/40 3/40 3/40
;
#X text 124 72 If you want to have 7 eight notes in the space of 5
\, then you have 5 eight notes (5/8) divided by 7 \, which is the same
as 5/(8*7) \, so you have 5/56 for each of these notes. 5 in the space
of 3 is 3/(8*5) = 3/40., f 63;
#X obj 107 147 bng 20 250 50 0 empty empty empty 17 7 0 10 #dcdcdc
#000000 #000000;
#X text 134 149 <= start/restart;
#X text 380 181 <== set and start or restart the sequence, f 20;
#X msg 68 148 stop;
#X obj 266 374 else/display;
#X obj 106 307 else/pattern;
#X msg 174 183 1/4 1/4 1/4 1/4 1/24 1/24 1/24 | -1/4 1/8 1/8 1/4 1/8
1/4, f 32;
#X msg 11 404 beat 1/(32/9);
#X msg 13 276 beatmul 1.125;
#X msg 20 374 beat 1/4;
#X connect 4 0 0 0;
#X connect 4 1 2 0;
#X connect 4 2 20 0;
#X connect 4 3 12 0;
#X connect 7 0 6 0;
#X connect 8 0 21 1;
#X connect 11 0 21 0;
#X connect 14 0 21 1;
#X connect 16 0 21 0;
#X connect 19 0 21 0;
#X connect 21 0 7 0;
#X connect 21 1 4 0;
#X connect 22 0 21 0;
#X connect 23 0 21 0;
#X connect 24 0 21 0;
#X connect 25 0 21 0;
#X restore 462 270 pd details;
#X text 139 560 -tempo <float> - sets new tempo value (default 120)
;
#X msg 354 152 1/4 -1/4 | 1/4 1/8 1/8;
#X msg 364 176 1/6 1/6 1/6 | 1/4 1/4;
#X text 192 389 bang;
#X text 214 154 <= bpm;
#X text 192 403 list;
#X text 225 389 - (re)start sequencer, f 44;
#X text 192 375 stop;
#X text 225 375 - stops the sequencer, f 44;
#X text 186 361 start;
#X text 225 361 - starts the sequencer, f 44;
#X text 225 403 - sets new sequence and (re)starts sequencer;
#X obj 147 205 else/pattern 1/4 -1/4 | 1/4 1/8 1/8;
#X text 186 417 clear;
#X text 225 417 - clears sequence, f 44;
#X text 211 576 -i - sets to output index (default bang);
#X text 158 468 float/bang;
#X text 227 468 - bang or index float at every new note;
#X text 48 86 [pattern] is a rhythmic pattern sequencer. The note durations
are specified as fractions of a whole note \, negative values are rests!
A '|' separates into different bars. When you set a new pattern via
the right inlet \, it only starts when the previous one ends., f 75
;
#N canvas 795 135 463 447 flags 0;
#X obj 52 347 out~;
#X obj 52 36 tgl 20 0 empty empty empty 17 7 0 10 #dcdcdc #000000 #000000
0 1;
#X floatatom 52 140 5 0 0 0 - - - 0;
#X obj 52 254 osc~;
#X obj 52 203 else/note2pitch;
#X obj 52 228 mtof;
#X obj 52 276 *~;
#X obj 96 252 b;
#X obj 96 272 else/decay2~ 10 500;
#X obj 52 299 else/drive~ 10;
#X obj 52 322 else/plate.rev~ 10 0.9 0.1 0.9 0.5;
#X text 98 24 You can set tempo as a flag \, and the '-i' flag outputs
the index of the note durations (positive and negative) \, which you
can use to query for a sequence in the [sequencer] object \, for instance.
, f 50;
#X obj 52 166 else/sequencer C4 C#4 B4 - G#4 A4 F4 | C4 - Eb4 D4 Eb4
G4 D4 C#4, f 38;
#X obj 52 103 else/pattern -tempo 90 -i 1/4 1/4 1/4 -1/8 1/24 1/24
1/24 | 1/4 -1/4 1/8 1/8 1/4 1/8 1/8 1/4;
#X text 276 246 see also [score2] \, which is able to combine both
objects into one., f 24;
#X obj 336 305 score2;
#X connect 1 0 13 0;
#X connect 2 0 12 0;
#X connect 3 0 6 0;
#X connect 4 0 5 0;
#X connect 5 0 3 0;
#X connect 5 0 7 0;
#X connect 6 0 9 0;
#X connect 7 0 8 0;
#X connect 8 0 6 1;
#X connect 9 0 10 0;
#X connect 10 0 0 0;
#X connect 10 1 0 1;
#X connect 12 0 4 0;
#X connect 13 0 2 0;
#X restore 474 292 pd flags;
#X obj 15 296 else/score2;
#X connect 0 0 55 0;
#X connect 4 0 55 0;
#X connect 5 0 4 0;
#X connect 6 0 1 0;
#X connect 44 0 55 1;
#X connect 45 0 55 1;
#X connect 55 0 3 0;
#X connect 55 0 6 0;
#X connect 55 1 2 0;
#X coords 0 0 1 1 85 60 0;
