#N canvas 501 106 559 418 10;
#X obj 4 268 cnv 3 550 3 empty empty inlets 8 12 0 13 #dcdcdc #000000 0;
#X obj 3 320 cnv 3 550 3 empty empty outlets 8 12 0 13 #dcdcdc #000000 0;
#X obj 3 357 cnv 3 550 3 empty empty arguments 8 12 0 13 #dcdcdc #000000 0;
#X obj 114 329 cnv 17 3 17 empty empty 0 5 9 0 16 #dcdcdc #9c9c9c 0;
#X obj 3 389 cnv 15 552 21 empty empty empty 20 12 0 14 #e0e0e0 #202020 0;
#X obj 306 4 cnv 15 250 40 empty empty empty 12 13 0 18 #7c7c7c #e0e4dc 0;
#N canvas 382 141 749 319 (subpatch) 0;
#X coords 0 -1 1 1 252 42 2 100 100;
#X restore 305 3 pd;
#X obj 345 11 cnv 10 10 10 empty empty ELSE 0 15 2 30 #7c7c7c #e0e4dc 0;
#X obj 23 40 cnv 4 4 4 empty empty Impulse\ sequence\ from\ phasor\ input 0 28 2 18 #e0e0e0 #000000 0;
#X obj 458 11 cnv 10 10 10 empty empty EL 0 6 2 13 #7c7c7c #e0e4dc 0;
#X obj 478 11 cnv 10 10 10 empty empty Locus 0 6 2 13 #7c7c7c #e0e4dc 0;
#X obj 515 11 cnv 10 10 10 empty empty Solus' 0 6 2 13 #7c7c7c #e0e4dc 0;
#X obj 464 26 cnv 10 10 10 empty empty ELSE 0 6 2 13 #7c7c7c #e0e4dc 0;
#X obj 502 26 cnv 10 10 10 empty empty library 0 6 2 13 #7c7c7c #e0e4dc 0;
#X obj 3 3 cnv 15 301 42 empty empty phaseseq~ 20 20 2 37 #e0e0e0 #000000 0;
#N canvas 0 22 450 278 (subpatch) 0;
#X coords 0 1 100 -1 302 42 1 0 0;
#X restore 2 3 graph;
#X obj 114 276 cnv 17 3 35 empty empty 0 5 9 0 16 #dcdcdc #9c9c9c 0;
#X text 209 330 - converted float;
#X text 131 366 1) list;
#X text 162 279 signal;
#X text 138 297 set <list>;
#X text 209 279 - phase signal input, f 40;
#X text 209 297 - set treshold values, f 40;
#X text 186 366 - treshold values (default none);
#X text 162 330 signal;
#X text 62 90 [phaseseq~] takes a list of thresholds and outputs impulses when reaching the threshold values., f 62;
#X obj 191 132 phasor~ 0.2;
#X obj 191 165 else/phaseseq~ 0 0.2 0.3 0.5 0.7 0.9;
#X obj 191 196 else/out~;
#N canvas 439 67 526 432 example 0;
#X obj 86 194 else/knob 50 0 1 0 0 empty empty #dfdfdf #7c7c7c black 0 0 0 0 1 360 0 0;
#X obj 211 231 else/trig2bang~;
#X obj 211 256 bng 19 250 50 0 empty empty empty 0 -8 0 10 #dfdfdf #000000 #000000;
#X floatatom 86 258 7 0 0 0 - - - 12;
#X obj 86 170 else/s2f~ 100;
#X obj 191 340 else/out~;
#X obj 191 170 else/phaseseq~ 0.2 0.3 0.5 0.7 0.9, f 19;
#X obj 191 107 else/pimp~ 0.2, f 26;
#X obj 191 292 else/resonant~ 600 1200;
#X obj 344 292 else/resonant~ 1100 500;
#X text 148 39 You can also use [pimp~] so you can have an impulse for the head of the tempo., f 40;
#X connect 0 0 3 0;
#X connect 1 0 2 0;
#X connect 4 0 0 0;
#X connect 6 0 1 0;
#X connect 6 0 8 0;
#X connect 7 0 4 0;
#X connect 7 0 6 0;
#X connect 7 1 9 0;
#X connect 8 0 5 0;
#X connect 9 0 5 1;
#X restore 446 227 pd example;
#X connect 26 0 27 0;
#X connect 27 0 28 0;
