#N canvas 474 55 563 350 10;
#X obj 213 156 else/record \$0-x;
#X obj 4 185 cnv 3 550 3 empty empty inlets 8 12 0 13 #dcdcdc #000000
0;
#X obj 4 254 cnv 3 550 3 empty empty outlets 8 12 0 13 #dcdcdc #000000
0;
#X obj 4 285 cnv 3 550 3 empty empty arguments 8 12 0 13 #dcdcdc #000000
0;
#X obj 4 317 cnv 15 552 21 empty empty empty 20 12 0 14 #e0e0e0 #202020
0;
#X obj 156 193 cnv 17 3 30 empty empty 0 5 9 0 16 #dcdcdc #9c9c9c 0
;
#X obj 2 2 cnv 15 301 42 empty empty record 20 20 2 37 #e0e0e0 #000000
0;
#N canvas 0 22 450 278 (subpatch) 0;
#X coords 0 1 100 -1 302 42 1;
#X restore 2 2 graph;
#X obj 23 39 cnv 4 4 4 empty empty Record\\\ note\\\ massages\\\ into\\\ text
0 28 2 18 #e0e0e0 #000000 0;
#X obj 306 3 cnv 15 250 40 empty empty empty 12 13 0 18 #7c7c7c #e0e4dc
0;
#N canvas 382 141 749 319 (subpatch) 0;
#X coords 0 -1 1 1 252 42 2 100 100;
#X restore 305 2 pd;
#X obj 345 10 cnv 10 10 10 empty empty ELSE 0 15 2 30 #7c7c7c #e0e4dc
0;
#X obj 458 10 cnv 10 10 10 empty empty EL 0 6 2 13 #7c7c7c #e0e4dc
0;
#X obj 478 10 cnv 10 10 10 empty empty Locus 0 6 2 13 #7c7c7c #e0e4dc
0;
#X obj 515 10 cnv 10 10 10 empty empty Solus' 0 6 2 13 #7c7c7c #e0e4dc
0;
#X obj 464 25 cnv 10 10 10 empty empty ELSE 0 6 2 13 #7c7c7c #e0e4dc
0;
#X obj 502 25 cnv 10 10 10 empty empty library 0 6 2 13 #7c7c7c #e0e4dc
0;
#X obj 38 150 else/rec;
#X text 34 127 see also:;
#X obj 213 126 notein;
#X obj 190 126 bng 15 250 50 0 empty empty empty 17 7 0 10 #dfdfdf
#000000 #000000;
#X text 64 87 [record] records to a [text] object that is suitable
for [text sequence]., f 73;
#X obj 156 229 cnv 17 3 17 empty empty 1 5 9 0 16 #dcdcdc #9c9c9c 0
;
#X text 202 264 (none);
#X text 155 293 1) symbol - text name (necessary);
#X text 194 193 float;
#X text 238 193 - MIDI pitch;
#X text 194 230 float;
#X text 238 230 - MIDI velocity;
#X text 200 209 bang;
#X text 238 209 - reset the recording;
#N canvas 590 79 657 485 example 0;
#X msg 257 209 line 0 \, auto;
#X obj 257 274 makenote;
#N canvas 870 145 477 340 voice 0;
#X obj 125 33 inlet;
#X obj 213 99 / 127;
#X obj 398 171 tgl 40 0 empty empty empty 17 7 0 10 #dcdcdc #000000
#000000 0 1;
#X obj 125 186 *~;
#X obj 128 247 *~;
#X obj 398 223 switch~;
#X obj 125 95 mtof;
#X obj 262 208 vsl 20 100 0 1 0 0 xxx xx empty 0 -9 0 10 #dcdcdc #000000
#000000 0 1;
#X obj 38 185 else/sine~;
#X obj 125 136 else/sine~;
#X obj 125 65 unpack float float;
#X obj 213 136 else/adsr~ 500 200 0.5 1000;
#X obj 262 179 else/sig2float~;
#X obj 39 144 * 1.497;
#X obj 128 278 throw~ \$0-norm;
#X connect 0 0 10 0;
#X connect 1 0 11 0;
#X connect 2 0 5 0;
#X connect 3 0 8 2;
#X connect 4 0 14 0;
#X connect 6 0 9 0;
#X connect 6 0 13 0;
#X connect 8 0 4 0;
#X connect 9 0 3 0;
#X connect 10 0 6 0;
#X connect 10 1 1 0;
#X connect 11 0 3 1;
#X connect 11 0 4 1;
#X connect 11 0 12 0;
#X connect 11 1 2 0;
#X connect 12 0 7 0;
#X connect 13 0 8 0;
#X restore 258 448 pd voice;
#X obj 258 340 else/voices 4 1;
#N canvas 870 145 477 340 voice 0;
#X obj 125 33 inlet;
#X obj 213 99 / 127;
#X obj 398 171 tgl 40 0 empty empty empty 17 7 0 10 #dcdcdc #000000
#000000 0 1;
#X obj 125 186 *~;
#X obj 128 247 *~;
#X obj 398 223 switch~;
#X obj 125 95 mtof;
#X obj 262 208 vsl 20 100 0 1 0 0 xxx xx empty 0 -9 0 10 #dcdcdc #000000
#000000 0 1;
#X obj 38 185 else/sine~;
#X obj 125 136 else/sine~;
#X obj 125 65 unpack float float;
#X obj 213 136 else/adsr~ 500 200 0.5 1000;
#X obj 262 179 else/sig2float~;
#X obj 39 144 * 1.497;
#X obj 128 278 throw~ \$0-norm;
#X connect 0 0 10 0;
#X connect 1 0 11 0;
#X connect 2 0 5 0;
#X connect 3 0 8 2;
#X connect 4 0 14 0;
#X connect 6 0 9 0;
#X connect 6 0 13 0;
#X connect 8 0 4 0;
#X connect 9 0 3 0;
#X connect 10 0 6 0;
#X connect 10 1 1 0;
#X connect 11 0 3 1;
#X connect 11 0 4 1;
#X connect 11 0 12 0;
#X connect 11 1 2 0;
#X connect 12 0 7 0;
#X connect 13 0 8 0;
#X restore 279 424 pd voice;
#N canvas 870 145 477 340 voice 0;
#X obj 125 33 inlet;
#X obj 213 99 / 127;
#X obj 398 171 tgl 40 0 empty empty empty 17 7 0 10 #dcdcdc #000000
#000000 0 1;
#X obj 125 186 *~;
#X obj 128 247 *~;
#X obj 398 223 switch~;
#X obj 125 95 mtof;
#X obj 262 208 vsl 20 100 0 1 0 0 xxx xx empty 0 -9 0 10 #dcdcdc #000000
#000000 0 1;
#X obj 38 185 else/sine~;
#X obj 125 136 else/sine~;
#X obj 125 65 unpack float float;
#X obj 213 136 else/adsr~ 500 200 0.5 1000;
#X obj 262 179 else/sig2float~;
#X obj 39 144 * 1.497;
#X obj 128 278 throw~ \$0-norm;
#X connect 0 0 10 0;
#X connect 1 0 11 0;
#X connect 2 0 5 0;
#X connect 3 0 8 2;
#X connect 4 0 14 0;
#X connect 6 0 9 0;
#X connect 6 0 13 0;
#X connect 8 0 4 0;
#X connect 9 0 3 0;
#X connect 10 0 6 0;
#X connect 10 1 1 0;
#X connect 11 0 3 1;
#X connect 11 0 4 1;
#X connect 11 0 12 0;
#X connect 11 1 2 0;
#X connect 12 0 7 0;
#X connect 13 0 8 0;
#X restore 301 398 pd voice;
#N canvas 870 145 477 340 voice 0;
#X obj 125 33 inlet;
#X obj 213 99 / 127;
#X obj 398 171 tgl 40 0 empty empty empty 17 7 0 10 #dcdcdc #000000
#000000 0 1;
#X obj 125 186 *~;
#X obj 128 247 *~;
#X obj 398 223 switch~;
#X obj 125 95 mtof;
#X obj 262 208 vsl 20 100 0 1 0 0 xxx xx empty 0 -9 0 10 #dcdcdc #000000
#000000 0 1;
#X obj 38 185 else/sine~;
#X obj 125 136 else/sine~;
#X obj 125 65 unpack float float;
#X obj 213 136 else/adsr~ 500 200 0.5 1000;
#X obj 262 179 else/sig2float~;
#X obj 39 144 * 1.497;
#X obj 128 279 throw~ \$0-norm;
#X connect 0 0 10 0;
#X connect 1 0 11 0;
#X connect 2 0 5 0;
#X connect 3 0 8 2;
#X connect 4 0 14 0;
#X connect 6 0 9 0;
#X connect 6 0 13 0;
#X connect 8 0 4 0;
#X connect 9 0 3 0;
#X connect 10 0 6 0;
#X connect 10 1 1 0;
#X connect 11 0 3 1;
#X connect 11 0 4 1;
#X connect 11 0 12 0;
#X connect 11 1 2 0;
#X connect 12 0 7 0;
#X connect 13 0 8 0;
#X restore 323 374 pd voice;
#X obj 476 251 catch~ \$0-norm;
#X obj 484 319 else/out~;
#X obj 476 280 else/plate.rev~ 50 0.6 0.25 0.8 0.8, f 18;
#X obj 139 101 keyboard 17 80 4 3 0 0 empty empty;
#N canvas 231 223 296 348 random_notes 0;
#X obj 126 230 makenote;
#X obj 171 256 outlet;
#X obj 126 256 outlet;
#X obj 69 45 inlet;
#X obj 126 104 metro;
#X obj 126 145 expr random(60 \, 90) \; random(50 \, 127) \; random
(100 \, 1500) \; random (200 \, 2000);
#X obj 69 74 route bang;
#X connect 0 0 2 0;
#X connect 0 1 1 0;
#X connect 3 0 6 0;
#X connect 4 0 5 0;
#X connect 5 0 0 0;
#X connect 5 1 0 1;
#X connect 5 2 0 2;
#X connect 5 3 4 1;
#X connect 6 0 5 0;
#X connect 6 1 4 0;
#X restore 139 47 pd random_notes;
#X obj 139 23 tgl 15 0 empty empty empty 17 7 0 10 #dcdcdc #000000
#000000 0 1;
#X text 159 23 <= metro;
#X obj 139 78 pack;
#X obj 139 190 display;
#X obj 257 239 text sequence \$0-seq -w 1;
#X obj 389 341 pack;
#X msg 389 362 set \$1 \$2;
#X obj 389 383 s \$0-key;
#X obj 205 75 r \$0-key;
#X obj 75 101 bng 25 250 50 0 empty empty empty 17 7 0 10 #dfdfdf #000000
#000000;
#X obj 75 185 t b b;
#X text 344 210 <= play sequence;
#X text 20 102 reset;
#X obj 139 316 else/record \$0-seq, f 11;
#X obj 110 23 bng 15 250 50 0 empty empty empty 17 7 0 10 #dcdcdc #000000
#000000;
#X text 238 48 generate random notes;
#X text 30 322 click to open =>;
#X connect 0 0 16 0;
#X connect 1 0 3 0;
#X connect 1 0 17 0;
#X connect 1 1 3 1;
#X connect 1 1 17 1;
#X connect 3 0 2 0;
#X connect 3 1 4 0;
#X connect 3 2 5 0;
#X connect 3 3 6 0;
#X connect 7 0 9 0;
#X connect 9 0 8 0;
#X connect 9 1 8 1;
#X connect 10 0 15 0;
#X connect 11 0 14 0;
#X connect 11 1 14 1;
#X connect 12 0 11 0;
#X connect 14 0 10 0;
#X connect 15 0 3 0;
#X connect 15 0 25 0;
#X connect 16 0 1 0;
#X connect 17 0 18 0;
#X connect 18 0 19 0;
#X connect 20 0 10 0;
#X connect 21 0 22 0;
#X connect 22 0 12 0;
#X connect 22 1 25 0;
#X connect 26 0 11 0;
#X restore 463 155 pd example;
#X text 321 156 <= click to open;
#X text 147 125 reset;
#X connect 19 0 0 0;
#X connect 19 1 0 1;
#X connect 20 0 0 0;
