#N canvas 522 50 568 553 10;
#X obj 124 221 bng 15 250 50 0 empty empty empty 17 7 0 10 -228856
-1 -1;
#X obj 317 247 bng 20 250 50 0 empty empty empty 17 7 0 10 -228856
-1 -1;
#X obj 357 272 nbx 3 14 0 100 0 0 empty empty empty 0 -8 0 10 -228856
-1 -1 3 256;
#X text 397 270 group size;
#X floatatom 271 249 5 0 0 0 - - -;
#X text 341 248 remainder;
#X msg 258 222 list g h i j k;
#X msg 246 197 a b c d e f;
#X msg 204 222 clear;
#X obj 306 4 cnv 15 250 40 empty empty empty 12 13 0 18 -128992 -233080
0;
#N canvas 382 141 749 319 (subpatch) 0;
#X coords 0 -1 1 1 252 42 2 100 100;
#X restore 305 3 pd;
#X obj 345 11 cnv 10 10 10 empty empty ELSE 0 15 2 30 -128992 -233080
0;
#X obj 23 40 cnv 4 4 4 empty empty regroup 0 28 2 18 -233017 -1 0;
#X obj 458 11 cnv 10 10 10 empty empty EL 0 6 2 13 -128992 -233080
0;
#X obj 478 11 cnv 10 10 10 empty empty Locus 0 6 2 13 -128992 -233080
0;
#X obj 515 11 cnv 10 10 10 empty empty Solus' 0 6 2 13 -128992 -233080
0;
#X obj 464 26 cnv 10 10 10 empty empty ELSE 0 6 2 13 -128992 -233080
0;
#X obj 502 26 cnv 10 10 10 empty empty library 0 6 2 13 -128992 -233080
0;
#X obj 89 40 cnv 4 4 4 empty empty messages 0 28 2 18 -233017 -1 0
;
#X obj 3 3 cnv 15 301 42 empty empty regroup 20 20 2 37 -233017 -1
0;
#N canvas 0 22 450 278 (subpatch) 0;
#X coords 0 1 100 -1 302 42 1 0 0;
#X restore 3 3 graph;
#X obj 4 346 cnv 3 550 3 empty empty inlets 8 12 0 13 -228856 -1 0
;
#X obj 4 429 cnv 3 550 3 empty empty outlets 8 12 0 13 -228856 -1 0
;
#X obj 4 464 cnv 3 550 3 empty empty arguments 8 12 0 13 -228856 -1
0;
#X obj 117 438 cnv 17 3 17 empty empty 0 5 9 0 16 -228856 -162280 0
;
#X obj 117 355 cnv 17 3 43 empty empty 0 5 9 0 16 -228856 -162280 0
;
#X obj 4 523 cnv 15 552 21 empty empty empty 20 12 0 14 -233017 -33289
0;
#X text 171 368 bang;
#X obj 117 405 cnv 17 3 17 empty empty 1 5 9 0 16 -228856 -162280 0
;
#X text 201 406 - calculate or output the last calculated value;
#X obj 246 320 print regroup;
#X text 147 352 anything;
#X text 147 438 anything;
#X text 78 87 [regroup] regroups messages. When the input is smaller
than the group size \, it needs to reach the group size before it's
sent out. If the input list is bigger than the group size \, the message
gets reagrouped into smaller messages., f 67;
#X text 201 352 - input messages to be regrouped, f 38;
#X text 201 368 - outputs the remainder, f 38;
#X text 165 383 clear;
#X text 201 383 - clears the remainder, f 38;
#X text 165 406 float;
#X text 201 438 - the regrouped message;
#X text 167 473 1) float - group size (default 0);
#X obj 246 295 else/regroup 2, f 19;
#X obj 4 494 cnv 3 550 3 empty empty flags 8 12 0 13 -228856 -1 0;
#X text 147 503 -trim: trims selectors (list/symbol) on the output
;
#X obj 124 249 else/loop 13;
#X text 78 136 A bang message sends the remaining stored elements that
haven't reached the group size yet. So you can send a bang afterwards
to force an output. A group size of zero keeps regrouping indefinitely
until a bang is given., f 67;
#X connect 0 0 44 0;
#X connect 1 0 41 0;
#X connect 2 0 41 1;
#X connect 4 0 41 0;
#X connect 6 0 41 0;
#X connect 7 0 41 0;
#X connect 8 0 41 0;
#X connect 41 0 30 0;
#X connect 44 0 41 0;
#X connect 44 1 41 0;
