#N canvas 1073 78 561 448 10;
#X obj 2 270 cnv 3 550 3 empty empty inlets 8 12 0 13 -228856 -1 0
;
#X obj 2 325 cnv 3 550 3 empty empty outlets 8 12 0 13 -228856 -1 0
;
#X obj 2 363 cnv 3 550 3 empty empty arguments 8 12 0 13 -228856 -1
0;
#X obj 130 280 cnv 17 3 17 empty empty n 5 9 0 16 -228856 -162280 0
;
#X obj 130 302 cnv 17 3 17 empty empty r 5 9 0 16 -228856 -162280 0
;
#X obj 130 336 cnv 17 3 17 empty empty 0 5 9 0 16 -228856 -162280 0
;
#X obj 2 407 cnv 15 552 21 empty empty empty 20 12 0 14 -233017 -33289
0;
#X text 211 304 -;
#X text 172 304 float;
#X text 211 280 -;
#X text 157 371 -;
#X text 99 371 1) float;
#X text 157 388 -;
#X text 99 388 2) float;
#X text 154 280 anything;
#X text 154 336 anything;
#X obj 306 4 cnv 15 250 40 empty empty empty 12 13 0 18 -128992 -233080
0;
#N canvas 382 141 749 319 (subpatch) 0;
#X coords 0 -1 1 1 252 42 2 100 100;
#X restore 305 3 pd;
#X obj 345 11 cnv 10 10 10 empty empty ELSE 0 15 2 30 -128992 -233080
0;
#X obj 23 40 cnv 4 4 4 empty empty Select 0 28 2 18 -233017 -1 0;
#X obj 458 11 cnv 10 10 10 empty empty EL 0 6 2 13 -128992 -233080
0;
#X obj 478 11 cnv 10 10 10 empty empty Locus 0 6 2 13 -128992 -233080
0;
#X obj 515 11 cnv 10 10 10 empty empty Solus' 0 6 2 13 -128992 -233080
0;
#X obj 464 26 cnv 10 10 10 empty empty ELSE 0 6 2 13 -128992 -233080
0;
#X obj 502 26 cnv 10 10 10 empty empty library 0 6 2 13 -128992 -233080
0;
#X obj 74 40 cnv 4 4 4 empty empty messages 0 28 2 18 -233017 -1 0
;
#X obj 150 40 cnv 4 4 4 empty empty from 0 28 2 18 -233017 -1 0;
#X obj 195 40 cnv 4 4 4 empty empty an 0 28 2 18 -233017 -1 0;
#X obj 3 3 cnv 15 301 42 empty empty selector 20 20 2 37 -233017 -1
0;
#N canvas 0 22 450 278 (subpatch) 0;
#X coords 0 1 100 -1 302 42 1 0 0;
#X restore 3 3 graph;
#X text 61 90 [selector] outputs data from the selected inlet according
to the float into the rightmost inlet.;
#X obj 219 40 cnv 4 4 4 empty empty inlet 0 28 2 18 -233017 -1 0;
#X obj 179 224 else/display;
#X text 211 336 - message from the selected inlet;
#X text 171 388 inlet initially selected (default 0 - all closed);
#X text 226 280 any message to be selected, f 28;
#X text 226 304 sets which inlet is selected;
#X text 171 371 set the 'n' number of channels (from 2 to 512 \, default
2);
#X floatatom 330 191 3 0 3 0 - - -;
#X obj 330 124 vradio 15 1 0 4 empty empty empty 0 -8 0 10 -228856
-1 -1 0;
#X text 348 124 0;
#X text 348 139 1;
#X text 348 154 2;
#X text 348 169 3;
#X obj 179 166 nbx 3 14 -1e+37 1e+37 0 0 empty empty empty 0 -8 0 10
-228856 -1 -1 0 256;
#X obj 220 166 nbx 3 14 -1e+37 1e+37 0 0 empty empty empty 0 -8 0 10
-228856 -1 -1 0 256;
#X obj 261 167 nbx 3 14 -1e+37 1e+37 0 0 empty empty empty 0 -8 0 10
-228856 -1 -1 0 256;
#X text 188 147 1;
#X text 228 147 2;
#X text 270 147 3;
#X obj 179 194 else/selector 3 1, f 21;
#X connect 38 0 50 3;
#X connect 39 0 38 0;
#X connect 44 0 50 0;
#X connect 45 0 50 1;
#X connect 46 0 50 2;
#X connect 50 0 32 0;
