#N canvas 637 119 560 554 10;
#X obj 305 5 cnv 15 250 40 empty empty empty 12 13 0 18 -128992 -233080
0;
#N canvas 382 141 749 319 (subpatch) 0;
#X coords 0 -1 1 1 252 42 2 100 100;
#X restore 304 4 pd;
#X obj 344 12 cnv 10 10 10 empty empty ELSE 0 15 2 30 -128992 -233080
0;
#X obj 22 41 cnv 4 4 4 empty empty Linear 0 28 2 18 -233017 -1 0;
#X obj 457 12 cnv 10 10 10 empty empty EL 0 6 2 13 -128992 -233080
0;
#X obj 477 12 cnv 10 10 10 empty empty Locus 0 6 2 13 -128992 -233080
0;
#X obj 514 12 cnv 10 10 10 empty empty Solus' 0 6 2 13 -128992 -233080
0;
#X obj 463 27 cnv 10 10 10 empty empty ELSE 0 6 2 13 -128992 -233080
0;
#X obj 501 27 cnv 10 10 10 empty empty library 0 6 2 13 -128992 -233080
0;
#X obj 83 41 cnv 4 4 4 empty empty up/down 0 28 2 18 -233017 -1 0;
#X obj 2 4 cnv 15 301 42 empty empty slew~ 20 20 2 37 -233017 -1 0
;
#N canvas 0 22 450 278 (subpatch) 0;
#X coords 0 1 100 -1 302 42 1 0 0;
#X restore 2 4 graph;
#X obj 3 525 cnv 15 552 21 empty empty empty 20 12 0 14 -233017 -33289
0;
#X obj 6 343 cnv 3 550 3 empty empty inlets 8 12 0 13 -228856 -1 0
;
#X obj 6 429 cnv 3 550 3 empty empty outlets 8 12 0 13 -228856 -1 0
;
#X obj 6 466 cnv 3 550 3 empty empty arguments 8 12 0 13 -228856 -1
0;
#X obj 96 352 cnv 17 3 17 empty empty 0 5 9 0 16 -228856 -162280 0
;
#X obj 97 439 cnv 17 3 17 empty empty 0 5 9 0 16 -228856 -162280 0
;
#X text 182 352 signal;
#X text 237 352 - incoming signal to smooth out;
#X text 180 438 signal;
#X text 169 475 1) float;
#X text 169 496 2) float;
#X obj 97 378 cnv 17 3 17 empty empty 1 5 9 0 16 -228856 -162280 0
;
#X obj 97 402 cnv 17 3 17 empty empty 2 5 9 0 16 -228856 -162280 0
;
#X text 187 377 float;
#X text 237 438 - smoothed out/filtered signal;
#X text 187 401 float;
#X obj 160 41 cnv 4 4 4 empty empty slew 0 28 2 18 -233017 -1 0;
#X text 60 91 [slew~] is just like [glide~] but has distinct ramp times
for both up and down.;
#X obj 451 278 else/glide~;
#X text 449 257 see also:;
#X obj 491 69 else/setdsp~;
#X text 236 377 - ramp-up time in ms;
#X text 237 401 - ramp-down time in ms;
#X text 237 475 - ramp-up time in ms (default 0);
#X text 237 496 - ramp-down time in ms (default 0);
#X obj 155 266 else/out~;
#X obj 198 222 *~;
#X obj 116 149 else/brown~;
#X obj 275 219 vsl 18 100 0 1 0 0 ewtwet wefwert empty 0 -9 0 10 -228856
-1 -1 6945 1;
#X obj 275 191 else/sig2float~;
#X text 298 312 0;
#X text 298 213 1;
#X obj 213 132 else/pulse~ 0.5;
#X obj 213 160 else/slew~ 1000 500;
#X connect 38 0 37 0;
#X connect 38 0 37 1;
#X connect 39 0 38 0;
#X connect 41 0 40 0;
#X connect 44 0 45 0;
#X connect 45 0 38 1;
#X connect 45 0 41 0;
