#N canvas 641 98 561 383 10;
#X obj 4 354 cnv 15 552 21 empty empty empty 20 12 0 14 -233017 -33289
0;
#X obj 5 244 cnv 3 550 3 empty empty inlets 8 12 0 13 -228856 -1 0
;
#X obj 5 294 cnv 3 550 3 empty empty outlets 8 12 0 13 -228856 -1 0
;
#X obj 5 325 cnv 3 550 3 empty empty arguments 8 12 0 13 -228856 -1
0;
#X obj 154 301 cnv 17 3 17 empty empty 0 5 9 0 16 -228856 -162280 0
;
#X text 192 333 1) symbol;
#X obj 306 5 cnv 15 250 40 empty empty empty 12 13 0 18 -128992 -233080
0;
#N canvas 382 141 749 319 (subpatch) 0;
#X coords 0 -1 1 1 252 42 2 0 0;
#X restore 305 4 pd;
#X obj 345 12 cnv 10 10 10 empty empty ELSE 0 15 2 30 -128992 -233080
0;
#X obj 25 41 cnv 4 4 4 empty empty Take 0 28 2 18 -233017 -1 0;
#X obj 458 12 cnv 10 10 10 empty empty EL 0 6 2 13 -128992 -233080
0;
#X obj 478 12 cnv 10 10 10 empty empty Locus 0 6 2 13 -128992 -233080
0;
#X obj 515 12 cnv 10 10 10 empty empty Solus' 0 6 2 13 -128992 -233080
0;
#X obj 464 27 cnv 10 10 10 empty empty ELSE 0 6 2 13 -128992 -233080
0;
#X obj 502 27 cnv 10 10 10 empty empty library 0 6 2 13 -128992 -233080
0;
#X obj 68 41 cnv 4 4 4 empty empty remote 0 28 2 18 -233017 -1 0;
#X obj 3 4 cnv 15 301 42 empty empty take 20 20 2 37 -233017 -1 0;
#N canvas 0 22 450 278 (subpatch) 0;
#X coords 0 1 100 -1 302 42 1;
#X restore 2 4 graph;
#X obj 155 253 cnv 17 3 30 empty empty 0 5 9 0 16 -228856 -162280 0
;
#X obj 127 41 cnv 4 4 4 empty empty data 0 28 2 18 -233017 -1 0;
#X obj 174 170 else/take \$0-take;
#X obj 174 143 bng 17 250 50 0 empty empty empty 17 7 0 10 -228856
-1 -1;
#X obj 311 164 r \$0-take;
#X floatatom 311 188 5 0 0 0 - - -;
#X obj 174 198 else/display;
#X text 174 267 set <symbol> - sets a receive name, f 52;
#X text 254 333 - receive name (default none), f 37;
#X text 200 302 anything;
#X text 222 252 bang - take the data, f 44;
#X text 254 302 - the taken data;
#X text 350 189 <= change and then hit bang, f 14;
#X text 197 143 <= take data;
#X text 83 89 [take] is a key object in the [preset] abstraction. It
is used to take values from things that are connected to a [receive]
with the same name as the argument., f 66;
#N canvas 852 227 389 259 more 0;
#X text 41 21 You can use the set message to set or change the receive
name. You can connect the corresponding [receive] object to GUIs or
any object that receives a bang and outputs data., f 48;
#X obj 66 95 bng 17 250 50 0 empty empty empty 17 7 0 10 -228856 -1
-1;
#X obj 66 190 else/display;
#X text 89 95 <= take data;
#X obj 66 162 else/take;
#X msg 80 124 set a;
#X msg 130 124 set b;
#X obj 207 110 r a;
#X obj 207 135 else/message 1 2 3;
#X obj 207 193 symbol hi;
#X obj 207 168 r b;
#X connect 1 0 4 0;
#X connect 4 0 2 0;
#X connect 5 0 4 0;
#X connect 6 0 4 0;
#X connect 7 0 8 0;
#X connect 10 0 9 0;
#X restore 495 203 pd more;
#X connect 20 0 24 0;
#X connect 21 0 20 0;
#X connect 22 0 23 0;
