#N canvas 426 135 635 295 10;
#X declare -lib pdlua;
#X obj 131 138 nop;
#X obj 131 179 print nop;
#X floatatom 94 47 5 0 0 0 - - - 0;
#X symbolatom 131 80 10 0 0 0 - - - 0;
#X msg 160 103 foo foo foo foo foo;
#X text 165 139 <---- (should) do nothing!;
#X obj 374 82 declare -lib pdlua;
#X connect 0 0 1 0;
#X connect 2 0 0 0;
#X connect 3 0 0 0;
#X connect 4 0 0 0;
