#N canvas 599 232 338 253 10;
#X obj 57 24 inlet~;
#X obj 57 207 outlet~;
#X obj 57 168 clone resonclone \$1 \$1 \$2;
#X obj 106 25 inlet;
#X obj 106 142 else/order;
#X obj 145 112 else/order;
#X obj 184 84 else/order;
#X obj 106 59 route freq decay amp ramp;
#X connect 0 0 2 0;
#X connect 2 0 1 0;
#X connect 3 0 7 0;
#X connect 4 0 2 1;
#X connect 5 0 2 2;
#X connect 6 0 2 3;
#X connect 7 0 4 0;
#X connect 7 1 5 0;
#X connect 7 2 6 0;
#X connect 7 3 2 4;
