#N canvas 340 96 893 389 12;
#X declare -path else;
#X obj 129 148 bng 20 250 50 0 empty empty empty 17 7 0 10 #dcdcdc #000000 #000000;
#X obj 129 185 impseq~;
#N canvas 864 173 371 586 analyze 0;
#X floatatom 100 104 0 0 0 0 - - - 0;
#X obj 137 260 - 60;
#X obj 113 162 >;
#X obj 113 137 t f f f;
#X obj 137 216 f;
#X obj 113 183 sel 1;
#X floatatom 137 237 5 0 0 0 - - - 0;
#X obj 99 354 sel 1;
#X obj 152 346 b;
#X obj 100 328 change;
#X floatatom 152 441 0 0 0 0 - - - 0;
#X obj 152 392 realtime;
#X obj 100 35 inlet~;
#X obj 152 474 outlet;
#X obj 100 81 env~ 128;
#X obj 100 305 <;
#X connect 0 0 3 0;
#X connect 0 0 15 0;
#X connect 1 0 8 0;
#X connect 1 0 15 1;
#X connect 2 0 5 0;
#X connect 3 0 2 1;
#X connect 3 1 2 0;
#X connect 3 2 4 1;
#X connect 4 0 6 0;
#X connect 5 0 4 0;
#X connect 6 0 1 0;
#X connect 7 0 11 1;
#X connect 8 0 11 0;
#X connect 9 0 7 0;
#X connect 10 0 13 0;
#X connect 11 0 10 0;
#X connect 12 0 14 0;
#X connect 14 0 0 0;
#X connect 15 0 9 0;
#X restore 244 272 pd analyze;
#X obj 244 304 display 7;
#X obj 301 152 declare -path else;
#X obj 129 293 out~;
#X obj 634 166 bng 20 250 50 0 empty empty empty 17 7 0 10 #dcdcdc #000000 #000000;
#X obj 634 203 impseq~;
#X obj 569 291 out~;
#X obj 569 243 damp.osc~ 1000 3000;
#X obj 699 289 out~;
#X obj 129 225 resonator2~ 1000 3000;
#X text 65 34 One can use [resonator~] for a damped oscillator. A more proper alternative is to use [resonator2~] - or even [damp.osc~] \, which is based on [resonator2~]., f 52;
#X text 65 87 The [resonator2~] object also takes a t60 resonant time and we can also put it to test!, f 52;
#X text 492 31 As already mentioned when this object was first presented \, the left output starts an oscilation at a cosine initial phase \, and while the right outlet has a sine initial phase., f 50;
#X text 492 97 The [damp.osc~] object is virtually the same thing as [resonator2~] but with a different design to act and behave like an oscillator., f 50;
#X connect 0 0 1 0;
#X connect 1 0 11 0;
#X connect 2 0 3 0;
#X connect 6 0 7 0;
#X connect 7 0 9 1;
#X connect 9 0 8 0;
#X connect 9 1 10 0;
#X connect 11 0 2 0;
#X connect 11 0 5 0;
