#N canvas 328 79 909 540 12;
#X obj 190 133 unpack;
#X obj 135 25 inlet;
#X obj 190 162 pack;
#X obj 255 317 > 0;
#X msg 255 378 max \$1;
#X obj 190 317 - 1;
#X obj 381 423 else/count;
#X obj 441 341 else/tempo -mul 4 120, f 10;
#X obj 381 496 outlet;
#X obj 381 26 inlet;
#N canvas 433 397 524 376 store 0;
#X obj 56 43 inlet;
#X obj 197 43 inlet;
#X obj 197 86 > 0;
#X obj 123 120 else/router;
#X msg 56 184 clear;
#X obj 123 151 unpack f;
#X obj 285 96 t b l;
#X msg 285 212 sort;
#X obj 123 246 moses;
#X obj 56 81 route bang;
#X obj 285 243 text define \$0-notes;
#X obj 155 288 text delete \$0-notes;
#X obj 123 184 text search \$0-notes;
#X msg 35 243 flush;
#X obj 35 277 s \$0-voices;
#X obj 285 187 sel 1;
#X obj 334 82 text insert \$0-notes 1e+09, f 14;
#X obj 285 159 f;
#X obj 296 130 r \$0-sort;
#X connect 0 0 9 0;
#X connect 1 0 2 0;
#X connect 2 0 3 1;
#X connect 3 0 5 0;
#X connect 3 1 6 0;
#X connect 4 0 10 0;
#X connect 5 0 12 0;
#X connect 6 0 17 0;
#X connect 6 1 16 0;
#X connect 7 0 10 0;
#X connect 8 1 11 0;
#X connect 9 0 4 0;
#X connect 9 0 13 0;
#X connect 9 1 3 0;
#X connect 12 0 8 0;
#X connect 13 0 14 0;
#X connect 15 0 7 0;
#X connect 17 0 15 0;
#X connect 18 0 17 0;
#X restore 243 257 pd store;
#X obj 517 26 inlet;
#X obj 39 224 else/router 1;
#X obj 517 226 / 4;
#X obj 80 133 != 0;
#X obj 517 251 s \$0-gate-dur;
#X obj 381 87 s \$0-bpm;
#X obj 474 302 r \$0-bpm;
#N canvas 166 107 535 414 get-note 0;
#X obj 76 47 inlet;
#X obj 245 225 else/makenote2 120, f 25;
#X obj 76 116 route bang;
#X obj 245 293 else/voices 1 1;
#X obj 245 327 else/slice 1;
#X obj 382 151 r \$0-gate-dur;
#X obj 417 194 r \$0-bpm;
#X obj 326 368 outlet;
#X obj 76 87 text get \$0-notes;
#X obj 245 47 inlet;
#X obj 143 157 else/router 2 1;
#X obj 282 259 r \$0-voices;
#X obj 245 184 pack f f f, f 20;
#X floatatom 89 225 5 0 0 0 - - - 0;
#X floatatom 139 265 5 0 0 0 - - - 0;
#X floatatom 42 150 5 0 0 0 - - - 0;
#X connect 0 0 8 0;
#X connect 1 0 3 0;
#X connect 2 1 10 0;
#X connect 3 0 4 0;
#X connect 4 1 7 0;
#X connect 5 0 12 2;
#X connect 6 0 1 1;
#X connect 8 0 2 0;
#X connect 8 0 15 0;
#X connect 9 0 10 1;
#X connect 10 0 3 0;
#X connect 10 0 13 0;
#X connect 10 1 12 0;
#X connect 10 1 14 0;
#X connect 11 0 3 0;
#X connect 12 0 1 0;
#X restore 381 457 pd get-note;
#X f 22;
#X msg 324 190 mul \$1;
#X obj 542 303 == 0;
#X obj 441 390 spigot 1, f 11;
#X obj 376 232 spigot;
#X obj 324 126 route mul ext bang, f 19;
#X obj 527 199 t b f;
#X obj 190 189 t b l, f 8;
#X obj 190 286 text size \$0-notes;
#X obj 202 225 t b b;
#X obj 255 351 max 0;
#X obj 552 341 > 0;
#X obj 117 162 sel 1 0;
#X obj 39 257 trigger list list;
#X text 634 186 Part of ELSE \; https://github.com/porres/pd-else;
#X text 636 167 Alexandre Torres Porres (2025);
#N canvas 180 151 659 443 init 0;
#X obj 46 71 else/args -;
#X obj 46 101 else/default 120 0.75;
#X obj 46 43 else/loadbanger 2, f 27;
#X obj 344 381 outlet;
#X obj 78 208 t a b;
#X msg 110 253 ext 1;
#X obj 134 207 t a b;
#X msg 166 252 1;
#X obj 189 207 t a b;
#X msg 221 252 down;
#X obj 253 207 t a b;
#X msg 285 252 alt;
#X obj 312 209 t a b;
#X msg 344 254 random;
#X obj 413 203 else/slice 1;
#X obj 413 233 else/swap2;
#X obj 232 100 s \$0-dur;
#X msg 232 71 0.75;
#X msg 480 265 mul \$1;
#X obj 285 67 s \$0-sort;
#X obj 432 148 s \$0-bpm;
#X obj 432 117 unpack float float;
#X obj 555 148 s \$0-dur;
#X obj 445 357 s \$0-sort;
#X obj 413 269 t a b;
#X obj 78 160 route -ext -on -rev -alt -random -mul -sort;
#X msg 445 328 1;
#X msg 285 38 0;
#X connect 0 0 1 0;
#X connect 1 0 25 0;
#X connect 2 0 0 0;
#X connect 2 1 17 0;
#X connect 2 1 27 0;
#X connect 4 0 1 0;
#X connect 4 1 5 0;
#X connect 5 0 3 0;
#X connect 6 0 1 0;
#X connect 6 1 7 0;
#X connect 7 0 3 0;
#X connect 8 0 1 0;
#X connect 8 1 9 0;
#X connect 9 0 3 0;
#X connect 10 0 1 0;
#X connect 10 1 11 0;
#X connect 11 0 3 0;
#X connect 12 0 1 0;
#X connect 12 1 13 0;
#X connect 13 0 3 0;
#X connect 14 0 15 0;
#X connect 14 1 15 1;
#X connect 15 0 1 0;
#X connect 15 1 18 0;
#X connect 17 0 16 0;
#X connect 18 0 3 0;
#X connect 21 0 20 0;
#X connect 21 1 22 0;
#X connect 24 0 1 0;
#X connect 24 1 26 0;
#X connect 25 0 4 0;
#X connect 25 1 6 0;
#X connect 25 2 8 0;
#X connect 25 3 10 0;
#X connect 25 4 12 0;
#X connect 25 5 14 0;
#X connect 25 6 24 0;
#X connect 25 7 21 0;
#X connect 26 0 23 0;
#X connect 27 0 19 0;
#X restore 167 64 pd init;
#X obj 538 85 r \$0-dur;
#X obj 324 153 max 1;
#X obj 517 123 clip 0.01 1;
#N canvas 152 130 450 300 count 0;
#X msg 112 149 up, f 2;
#X obj 100 58 route forward rev;
#X msg 146 147 down;
#X obj 206 206 outlet;
#X obj 94 22 inlet;
#X connect 0 0 3 0;
#X connect 1 0 0 0;
#X connect 1 1 2 0;
#X connect 1 2 3 0;
#X connect 2 0 3 0;
#X connect 4 0 1 0;
#X restore 444 161 pd count;
#X obj 135 96 route float list sort, f 24;
#X obj 245 145 s \$0-sort;
#X obj 245 121 != 0;
#X connect 0 0 2 0;
#X connect 0 1 2 1;
#X connect 0 1 10 1;
#X connect 1 0 39 0;
#X connect 2 0 12 0;
#X connect 3 0 7 0;
#X connect 4 0 6 0;
#X connect 5 0 28 0;
#X connect 6 0 18 0;
#X connect 7 0 21 0;
#X connect 9 0 16 0;
#X connect 11 0 37 0;
#X connect 12 0 31 0;
#X connect 12 1 25 0;
#X connect 13 0 15 0;
#X connect 14 0 12 1;
#X connect 14 0 30 0;
#X connect 17 0 7 1;
#X connect 17 0 29 0;
#X connect 18 0 8 0;
#X connect 19 0 7 0;
#X connect 20 0 21 1;
#X connect 21 0 6 0;
#X connect 22 0 6 0;
#X connect 23 0 36 0;
#X connect 23 1 20 0;
#X connect 23 1 22 1;
#X connect 23 2 22 0;
#X connect 23 3 38 0;
#X connect 24 0 13 0;
#X connect 24 1 13 1;
#X connect 25 0 26 0;
#X connect 25 1 10 0;
#X connect 26 0 5 0;
#X connect 26 0 3 0;
#X connect 27 0 26 0;
#X connect 27 1 10 0;
#X connect 28 0 4 0;
#X connect 29 0 21 1;
#X connect 29 0 18 1;
#X connect 30 0 26 0;
#X connect 30 1 27 0;
#X connect 31 0 8 0;
#X connect 31 1 10 0;
#X connect 34 0 39 0;
#X connect 35 0 37 0;
#X connect 36 0 19 0;
#X connect 36 0 24 0;
#X connect 37 0 13 0;
#X connect 38 0 6 0;
#X connect 39 0 14 0;
#X connect 39 1 0 0;
#X connect 39 2 41 0;
#X connect 39 3 23 0;
#X connect 41 0 40 0;
