#N canvas 317 133 561 376 12;
#X obj 75 251 vline~;
#X obj 75 31 inlet;
#X obj 75 296 outlet~;
#X obj 262 123 else/sr~ -ms;
#X msg 75 215 \$1 \, 0 0 \$2;
#X text 193 242 Part of ELSE \; https://github.com/porres/pd-else;
#X text 195 223 Alexandre Torres Porres (2025);
#X obj 167 149 else/pack2 f f;
#X obj 120 110 t b f;
#X obj 75 72 route bang float set;
#X obj 75 175 list append;
#X connect 0 0 2 0;
#X connect 1 0 9 0;
#X connect 3 0 7 1;
#X connect 4 0 0 0;
#X connect 7 0 10 1;
#X connect 8 0 10 0;
#X connect 8 1 7 0;
#X connect 9 0 10 0;
#X connect 9 1 8 0;
#X connect 9 2 7 0;
#X connect 10 0 4 0;
