#N canvas 370 218 523 413 12;
#X obj 98 60 inlet;
#X obj 221 353 outlet~;
#X obj 158 60 inlet;
#X obj 220 60 inlet;
#X obj 220 311 vline~;
#X obj 294 226 delay 1 1 samp;
#X obj 241 165 else/spread -mode 1 0;
#X obj 385 193 t b l;
#X obj 294 250 list, f 18;
#X obj 98 115 pack f \$1;
#X obj 241 189 max 0;
#X connect 0 0 9 0;
#X connect 2 0 9 1;
#X connect 3 0 4 0;
#X connect 4 0 1 0;
#X connect 5 0 8 0;
#X connect 6 0 10 0;
#X connect 6 1 7 0;
#X connect 7 0 5 0;
#X connect 7 1 8 1;
#X connect 8 0 4 0;
#X connect 9 0 6 0;
#X connect 10 0 4 0;
