#N canvas 743 155 511 435 10;
#X text 243 204 Part of ELSE \; https://github.com/porres/pd-else;
#X obj 214 55 inlet;
#X obj 97 112 else/gate2imp~;
#X text 245 185 Alexandre Torres Porres (2025);
#X obj 34 55 inlet~;
#X obj 34 227 else/op~ ||;
#X obj 110 324 outlet~;
#X obj 125 246 else/trighold~;
#X obj 110 274 *~;
#X obj 97 158 else/timed.gate~ 0 1;
#X connect 1 0 9 1;
#X connect 2 0 9 0;
#X connect 4 0 2 0;
#X connect 4 0 5 0;
#X connect 4 0 7 0;
#X connect 5 0 8 0;
#X connect 7 0 8 1;
#X connect 8 0 6 0;
#X connect 9 0 5 1;
