#N canvas 588 157 487 439 10;
#X obj 247 399 outlet~;
#X obj 247 347 *~;
#X text 213 99 Part of ELSE \; https://github.com/porres/pd-else;
#X text 315 281 This is an abstraction used on the [resonbank~] object, f 12;
#X obj 262 237 else/f2s~ 10 1;
#X text 215 80 Alexandre Torres Porres (2025);
#X obj 46 274 *~;
#X obj 46 302 else/resonator~;
#X obj 180 156 route partial decay amp ramp;
#X obj 40 35 inlet~;
#X obj 85 35 inlet~;
#X obj 133 35 inlet~;
#X obj 133 274 *~;
#X obj 144 198 else/f2s~;
#X obj 197 237 else/f2s~;
#X connect 1 0 0 0;
#X connect 4 0 1 1;
#X connect 6 0 7 0;
#X connect 7 0 1 0;
#X connect 8 0 13 0;
#X connect 8 1 14 0;
#X connect 8 2 4 0;
#X connect 8 3 4 1;
#X connect 8 3 13 1;
#X connect 8 3 14 1;
#X connect 9 0 6 0;
#X connect 9 1 8 0;
#X connect 10 0 7 1;
#X connect 11 0 12 0;
#X connect 12 0 7 2;
#X connect 13 0 6 1;
#X connect 14 0 12 1;
