#N canvas 588 157 487 439 10;
#X obj 141 401 outlet~;
#X obj 141 349 *~;
#X text 213 99 Part of ELSE \; https://github.com/porres/pd-else;
#X obj 262 237 else/f2s~ 10 1;
#X text 215 80 Alexandre Torres Porres (2025);
#X obj 89 274 *~;
#X obj 180 156 route partial decay amp ramp;
#X obj 40 35 inlet~;
#X obj 85 35 inlet~;
#X obj 133 35 inlet~;
#X obj 133 274 *~;
#X obj 144 198 else/f2s~;
#X obj 197 237 else/f2s~;
#X obj 46 302 else/resonator2~;
#X text 315 281 This is an abstraction used on the [resonbank2~] object, f 14;
#X obj 209 399 outlet~;
#X obj 209 347 *~;
#X connect 1 0 0 0;
#X connect 3 0 1 1;
#X connect 3 0 16 1;
#X connect 5 0 13 1;
#X connect 6 0 11 0;
#X connect 6 1 12 0;
#X connect 6 2 3 0;
#X connect 6 3 3 1;
#X connect 6 3 11 1;
#X connect 6 3 12 1;
#X connect 7 0 5 0;
#X connect 7 1 6 0;
#X connect 8 0 13 0;
#X connect 9 0 10 0;
#X connect 10 0 13 2;
#X connect 11 0 5 1;
#X connect 12 0 10 1;
#X connect 13 0 1 0;
#X connect 13 1 16 0;
#X connect 16 0 15 0;
