#N canvas 405 140 540 560 12;
#X obj 105 471 outlet~;
#X obj 104 201 *~;
#X obj 103 61 inlet~;
#N canvas 139 126 308 232 rand 0;
#X obj 81 124 else/float2imp~;
#X obj 81 97 else/rand.f -n 7;
#X obj 81 46 receive pd-dsp-started;
#X obj 81 74 else/nmess 1;
#X obj 81 161 outlet~;
#X connect 0 0 4 0;
#X connect 1 0 0 0;
#X connect 2 0 3 0;
#X connect 3 0 1 0;
#X restore 145 273 pd rand;
#X obj 105 432 else/norm~ -2;
#X obj 174 223 else/cents2ratio~;
#X obj 174 135 *~;
#X obj 174 61 inlet~;
#N canvas 139 126 675 482 detrune-ratio-list 0;
#X msg 271 232 -1 -0.615 -0.205 0 0.205 0.615 1;
#X obj 271 258 iterate;
#X obj 239 322 group;
#X obj 239 409 outlet~;
#X obj 335 187 v curve_\$0;
#X obj 335 139 f 1;
#X obj 271 286 expr copysign(pow(abs($f1) \, curve_\$0) \, $f1);
#X obj 239 140 t b b b;
#X obj 321 103 t b f;
#X obj 321 64 inlet;
#X obj 335 163 clip 0.1 10;
#X obj 239 355 else/f2s~ 0 0 0 0 0 0 0 0;
#X obj 238 35 else/loadbanger -init;
#X connect 0 0 1 0;
#X connect 1 0 6 0;
#X connect 2 0 11 0;
#X connect 5 0 10 0;
#X connect 6 0 2 0;
#X connect 7 0 2 0;
#X connect 7 1 0 0;
#X connect 7 2 5 0;
#X connect 8 0 7 0;
#X connect 8 1 5 1;
#X connect 9 0 8 0;
#X connect 10 0 4 0;
#X connect 11 0 3 0;
#X connect 12 0 7 0;
#X restore 237 150 pd detrune-ratio-list;
#X text 324 199 podia somar direto com midicents, f 13;
#X obj 237 61 inlet;
#X obj 319 471 outlet~;
#X obj 319 432 else/norm~ -2;
#X obj 105 307 else/bl.saw~;
#X obj 105 346 else/stereomix~ -gain 0.28 0.55 0.77 1 0.77 0.55 0.28 -pan -1 -0.705 -0.295 0 0.295 0.705 1, f 31;
#X connect 1 0 13 0;
#X connect 2 0 1 0;
#X connect 3 0 13 1;
#X connect 4 0 0 0;
#X connect 5 0 1 1;
#X connect 6 0 5 0;
#X connect 7 0 6 0;
#X connect 8 0 6 1;
#X connect 10 0 8 0;
#X connect 12 0 11 0;
#X connect 13 0 14 0;
#X connect 14 0 4 0;
#X connect 14 1 12 0;
