#N canvas 430 131 701 605 12;
#X obj 65 541 outlet~;
#X obj 64 271 *~;
#X obj 64 61 inlet~;
#X obj 254 333 else/cents2ratio~;
#X obj 254 205 *~;
#X obj 254 61 inlet~;
#X obj 317 61 inlet;
#X obj 237 541 outlet~;
#X obj 133 61 inlet~;
#N canvas 109 97 379 303 osc 0;
#X obj 105 56 inlet~;
#X obj 200 56 inlet~;
#X obj 169 222 outlet~;
#N canvas 701 184 537 310 saw 0;
#X obj 138 151 else/bl.vsaw~;
#X obj 139 64 inlet~;
#X obj 191 64 inlet~;
#X obj 247 64 inlet~;
#X obj 138 217 outlet~;
#X obj 298 165 switch~;
#X obj 298 101 r \$0-wave;
#X obj 298 130 == 0;
#X obj 59 107 r \$0-midi;
#X connect 0 0 4 0;
#X connect 1 0 0 0;
#X connect 2 0 0 1;
#X connect 3 0 0 2;
#X connect 6 0 7 0;
#X connect 7 0 5 0;
#X connect 8 0 0 0;
#X restore 105 154 pd saw;
#N canvas 377 25 627 682 rand 0;
#X obj 155 618 outlet~;
#X obj 126 51 inlet~;
#X obj 155 485 *~;
#X obj 178 352 + 1;
#X obj 349 491 else/rand.f~ -ch 7;
#X obj 155 581 else/select~;
#X obj 75 413 + 1;
#X text 374 398 1 - init random, f 24;
#X text 374 379 0 - always random, f 24;
#X obj 259 536 *~;
#X obj 316 536 sig~ 0 0.09017 0.236068 0.472136 0.618034 0.708204 0.854102, f 32;
#X text 374 438 3 - locked at 0, f 24;
#X text 374 418 2 - fixed / golden ratio;
#X obj 75 379 == 3;
#X obj 126 383 else/xgate~ 4;
#X obj 146 139 t f f;
#X obj 146 106 r \$0-mode;
#X obj 206 209 sel 2;
#X obj 259 209 < 2;
#X obj 239 384 else/xgate~ 2;
#X obj 347 344 else/float2imp~;
#X obj 206 293 t b f;
#X msg 259 264 1;
#X msg 206 245 2;
#X obj 259 238 select 1 0;
#X obj 206 178 else/nmess 1;
#X connect 1 0 14 0;
#X connect 2 0 5 0;
#X connect 3 0 14 0;
#X connect 4 0 2 1;
#X connect 5 0 0 0;
#X connect 6 0 5 0;
#X connect 9 0 5 0;
#X connect 10 0 9 1;
#X connect 13 0 6 0;
#X connect 14 0 2 0;
#X connect 14 0 4 0;
#X connect 14 1 2 0;
#X connect 14 2 9 0;
#X connect 14 3 5 1;
#X connect 15 0 25 0;
#X connect 15 1 13 0;
#X connect 15 1 3 0;
#X connect 16 0 15 0;
#X connect 17 0 23 0;
#X connect 17 1 18 0;
#X connect 18 0 24 0;
#X connect 19 0 2 0;
#X connect 19 1 9 0;
#X connect 20 0 19 0;
#X connect 20 0 4 0;
#X connect 21 0 20 0;
#X connect 21 1 19 0;
#X connect 22 0 21 0;
#X connect 23 0 21 0;
#X connect 24 0 22 0;
#X connect 24 1 20 0;
#X connect 25 0 17 0;
#X restore 266 93 pd rand;
#X text 208 27 width;
#X text 109 27 freq;
#N canvas 679 185 450 300 square 0;
#X obj 103 50 inlet~;
#X obj 155 50 inlet~;
#X obj 211 50 inlet~;
#X obj 102 203 outlet~;
#X obj 102 137 else/bl.square~;
#X obj 251 156 switch~;
#X obj 251 92 r \$0-wave;
#X obj 251 121 == 1;
#X obj 127 94 clip~ 0.01 0.99;
#X obj 28 100 r \$0-midi;
#X connect 0 0 4 0;
#X connect 1 0 8 0;
#X connect 2 0 4 2;
#X connect 4 0 3 0;
#X connect 6 0 7 0;
#X connect 7 0 5 0;
#X connect 8 0 4 1;
#X connect 9 0 4 0;
#X restore 170 154 pd square;
#X obj 266 53 inlet~;
#X text 275 28 sync;
#X connect 0 0 3 0;
#X connect 0 0 7 0;
#X connect 1 0 3 1;
#X connect 1 0 7 1;
#X connect 3 0 2 0;
#X connect 4 0 3 2;
#X connect 4 0 7 2;
#X connect 7 0 2 0;
#X connect 8 0 4 0;
#X restore 65 367 pd osc;
#X text 132 34 width;
#X text 252 34 detune;
#X text 65 34 freq;
#X obj 65 416 else/mix~ -gain 0.28 0.55 0.77 1 0.77 0.55 0.28 -pan -1 -0.705 -0.295 0 0.295 0.705 1, f 25;
#X obj 357 260 s \$0-wave;
#N canvas 139 126 675 482 detune-ratio-list 0;
#X msg 271 232 -1 -0.615 -0.205 0 0.205 0.615 1;
#X obj 271 258 iterate;
#X obj 239 322 group;
#X obj 239 409 outlet~;
#X obj 335 187 v curve_\$0;
#X obj 335 139 f 1;
#X obj 271 286 expr copysign(pow(abs($f1) \, curve_\$0) \, $f1);
#X obj 239 140 t b b b;
#X obj 321 103 t b f;
#X obj 321 64 inlet;
#X obj 335 163 clip 0.1 10;
#X obj 239 355 else/f2s~ 0 0 0 0 0 0 0 0;
#X obj 238 35 else/loadbanger -init;
#X connect 0 0 1 0;
#X connect 1 0 6 0;
#X connect 2 0 11 0;
#X connect 5 0 10 0;
#X connect 6 0 2 0;
#X connect 7 0 2 0;
#X connect 7 1 0 0;
#X connect 7 2 5 0;
#X connect 8 0 7 0;
#X connect 8 1 5 1;
#X connect 9 0 8 0;
#X connect 10 0 4 0;
#X connect 11 0 3 0;
#X connect 12 0 7 0;
#X restore 317 295 pd detune-ratio-list;
#X obj 193 61 inlet~;
#X text 202 34 sync;
#X obj 440 262 s \$0-mode;
#X obj 441 212 else/initmess 0;
#X obj 317 101 route float wave mode midi;
#X obj 452 167 s \$0-midi;
#X msg 452 135 midi \$1;
#X connect 1 0 9 0;
#X connect 2 0 1 0;
#X connect 3 0 1 1;
#X connect 4 0 3 0;
#X connect 5 0 4 0;
#X connect 6 0 20 0;
#X connect 8 0 9 1;
#X connect 9 0 13 0;
#X connect 13 0 0 0;
#X connect 13 1 7 0;
#X connect 15 0 4 1;
#X connect 16 0 9 2;
#X connect 19 0 18 0;
#X connect 19 0 14 0;
#X connect 20 0 15 0;
#X connect 20 1 14 0;
#X connect 20 2 18 0;
#X connect 20 3 22 0;
#X connect 22 0 21 0;
