#N canvas 405 140 540 560 12;
#X obj 105 471 outlet~;
#X obj 104 201 *~;
#X obj 104 61 inlet~;
#X obj 105 432 else/norm~ -2;
#X obj 244 263 else/cents2ratio~;
#X obj 244 135 *~;
#X obj 244 61 inlet~;
#N canvas 139 126 675 482 detrune-ratio-list 0;
#X msg 271 232 -1 -0.615 -0.205 0 0.205 0.615 1;
#X obj 271 258 iterate;
#X obj 239 322 group;
#X obj 239 409 outlet~;
#X obj 335 187 v curve_\$0;
#X obj 335 139 f 1;
#X obj 271 286 expr copysign(pow(abs($f1) \, curve_\$0) \, $f1);
#X obj 239 140 t b b b;
#X obj 321 103 t b f;
#X obj 321 64 inlet;
#X obj 335 163 clip 0.1 10;
#X obj 239 355 else/f2s~ 0 0 0 0 0 0 0 0;
#X obj 238 35 else/loadbanger -init;
#X connect 0 0 1 0;
#X connect 1 0 6 0;
#X connect 2 0 11 0;
#X connect 5 0 10 0;
#X connect 6 0 2 0;
#X connect 7 0 2 0;
#X connect 7 1 0 0;
#X connect 7 2 5 0;
#X connect 8 0 7 0;
#X connect 8 1 5 1;
#X connect 9 0 8 0;
#X connect 10 0 4 0;
#X connect 11 0 3 0;
#X connect 12 0 7 0;
#X restore 307 225 pd detrune-ratio-list;
#X obj 307 61 inlet;
#X obj 277 471 outlet~;
#X obj 277 432 else/norm~ -2;
#X obj 173 61 inlet~;
#N canvas 109 97 379 303 osc 0;
#X obj 105 56 inlet~;
#X obj 200 56 inlet~;
#X obj 169 222 outlet~;
#N canvas 701 184 450 300 saw 0;
#X obj 79 137 else/bl.vsaw~;
#X obj 80 50 inlet~;
#X obj 132 50 inlet~;
#X obj 188 50 inlet~;
#X obj 79 203 outlet~;
#X obj 239 151 switch~;
#X obj 239 87 r \$0-wave;
#X obj 239 116 == 0;
#X connect 0 0 4 0;
#X connect 1 0 0 0;
#X connect 2 0 0 1;
#X connect 3 0 0 2;
#X connect 6 0 7 0;
#X connect 7 0 5 0;
#X restore 105 154 pd saw;
#N canvas 139 126 308 232 rand 0;
#X obj 81 124 else/float2imp~;
#X obj 81 97 else/rand.f -n 7;
#X obj 81 46 receive pd-dsp-started;
#X obj 81 74 else/nmess 1;
#X obj 81 161 outlet~;
#X connect 0 0 4 0;
#X connect 1 0 0 0;
#X connect 2 0 3 0;
#X connect 3 0 1 0;
#X restore 230 113 pd rand;
#X text 208 27 width;
#X text 109 27 freq;
#N canvas 679 185 450 300 square 0;
#X obj 80 50 inlet~;
#X obj 132 50 inlet~;
#X obj 188 50 inlet~;
#X obj 79 203 outlet~;
#X obj 79 137 else/bl.square~;
#X obj 228 156 switch~;
#X obj 228 92 r \$0-wave;
#X obj 228 121 == 1;
#X obj 104 94 clip~ 0.01 0.99;
#X connect 0 0 4 0;
#X connect 1 0 8 0;
#X connect 2 0 4 2;
#X connect 4 0 3 0;
#X connect 6 0 7 0;
#X connect 7 0 5 0;
#X connect 8 0 4 1;
#X restore 170 154 pd square;
#X connect 0 0 3 0;
#X connect 0 0 7 0;
#X connect 1 0 3 1;
#X connect 1 0 7 1;
#X connect 3 0 2 0;
#X connect 4 0 3 2;
#X connect 4 0 7 2;
#X connect 7 0 2 0;
#X restore 105 297 pd osc;
#X text 172 24 width;
#X text 242 24 detune;
#X text 105 24 freq;
#X obj 105 346 else/mix~ -gain 0.28 0.55 0.77 1 0.77 0.55 0.28 -pan -1 -0.705 -0.295 0 0.295 0.705 1, f 25;
#X obj 307 101 route float saw square;
#X msg 405 160 1;
#X obj 405 190 s \$0-wave;
#X obj 357 130 else/initmess 0;
#X connect 1 0 12 0;
#X connect 2 0 1 0;
#X connect 3 0 0 0;
#X connect 4 0 1 1;
#X connect 5 0 4 0;
#X connect 6 0 5 0;
#X connect 7 0 5 1;
#X connect 8 0 17 0;
#X connect 10 0 9 0;
#X connect 11 0 12 1;
#X connect 12 0 16 0;
#X connect 16 0 3 0;
#X connect 16 1 10 0;
#X connect 17 0 7 0;
#X connect 17 1 20 0;
#X connect 17 2 18 0;
#X connect 18 0 19 0;
#X connect 20 0 19 0;
