#N canvas 531 96 602 361 10;
#X declare -path else;
#X obj 209 41 inlet;
#X obj 147 268 *~;
#X obj 81 152 mtof;
#X obj 147 309 outlet~;
#X obj 41 40 inlet~;
#X obj 162 41 inlet~;
#X obj 209 72 route freq q;
#X text 339 169 Part of ELSE \; https://github.com/porres/pd-else;
#X text 343 213 This is an abstraction used on the [vocoder~] object, f 27;
#X text 341 150 Alexandre Torres Porres (2018);
#X obj 162 197 else/bandpass~;
#X obj 41 197 else/bandpass~;
#X obj 334 82 declare -path else;
#X obj 162 227 else/mov.rms~ -lin 512;
#X connect 0 0 6 0;
#X connect 1 0 3 0;
#X connect 2 0 10 1;
#X connect 2 0 11 1;
#X connect 4 0 11 0;
#X connect 5 0 10 0;
#X connect 6 0 2 0;
#X connect 6 1 10 2;
#X connect 6 1 11 2;
#X connect 10 0 13 0;
#X connect 11 0 1 0;
#X connect 13 0 1 1;
