#N canvas 419 41 672 567 12;
#X declare -path else;
#X floatatom 212 150 5 0 0 0 - - - 0;
#X obj 215 129 hsl 128 15 -1 1 0 0 empty empty empty -2 -8 0 10 #dcdcdc #000000 #000000 0 1;
#X obj 69 175 osc~ 300;
#X obj 135 174 osc~ 500;
#X obj 116 255 out~;
#X obj 407 209 cnv 15 87 60 empty empty empty 20 12 0 14 #e8e8e8 #404040 0;
#X obj 294 208 cnv 15 100 60 empty empty empty 20 12 0 14 #e8e8e8 #404040 0;
#X obj 413 217 noise~;
#X obj 427 243 osc~ 200;
#X obj 515 235 hsl 128 15 -1 1 0 0 empty empty empty -2 -8 0 10 #dcdcdc #000000 #000000 0 1;
#X obj 296 214 osc~ 400;
#X obj 329 244 osc~ 600;
#X obj 354 309 xfade~ 2, f 11;
#X obj 116 218 xfade~;
#X text 152 128 source 1;
#X text 347 126 source 2;
#X text 67 155 source 1;
#X text 138 155 source 2;
#X text 290 184 source 1;
#X text 401 183 source 2;
#X obj 212 175 f2s~ 10;
#X obj 512 261 f2s~ 10;
#X obj 348 345 out~;
#X text 50 32 The [xfade~] object \, from ELSE \, performs a sin/cos equal power crossfade between two sound sources of any number of channels (mono \, stereo \, quadriphonic \, etc). Its argument defines the number of channels. Without an argument \, the default is just one channel., f 80;
#X text 443 308 two channel sources;
#X obj 497 122 declare -path else;
#X obj 90 435 xfade.mc~ 2;
#X obj 90 477 out.mc~;
#X obj 215 435 hsl 128 15 -1 1 0 0 empty empty empty -2 -8 0 10 #dcdcdc #000000 #000000 0 1;
#X obj 212 461 f2s~ 10;
#X obj 90 359 osc.mc~ 220 440;
#X obj 127 395 osc.mc~ 330 660;
#X text 332 474 Check also [xfade.mc~ for multichannel inputs., f 26;
#X connect 0 0 20 0;
#X connect 1 0 0 0;
#X connect 2 0 13 0;
#X connect 3 0 13 1;
#X connect 7 0 12 2;
#X connect 8 0 12 3;
#X connect 9 0 21 0;
#X connect 10 0 12 0;
#X connect 11 0 12 1;
#X connect 12 0 22 0;
#X connect 12 1 22 1;
#X connect 13 0 4 0;
#X connect 20 0 13 2;
#X connect 21 0 12 4;
#X connect 26 0 27 0;
#X connect 28 0 29 0;
#X connect 29 0 26 2;
#X connect 30 0 26 0;
#X connect 31 0 26 1;
