#N canvas 433 38 685 648 12;
#X declare -path else;
#X obj 278 529 vsl 18 100 0 1 0 0 empty empty empty 0 -9 0 10 #dcdcdc #000000 #000000 0 1;
#X obj 258 318 tgl 17 0 empty empty empty 17 7 0 10 #dcdcdc #000000 #000000 0 1;
#X text 286 403 start \, duration \, target;
#X text 354 335 duration \, target, f 9;
#X obj 64 499 vsl 18 100 0 1 0 0 empty empty empty 0 -9 0 10 #dcdcdc #000000 #000000 0 1;
#X obj 64 387 bng 18 250 50 0 empty empty empty 17 7 0 10 #dcdcdc #000000 #000000;
#X obj 64 421 envgen~ 0 1000 1 250 0.25 250 0.25 500 1 250 1 250 0, f 26;
#X obj 278 493 s2f~;
#X obj 64 463 s2f~;
#X obj 470 19 declare -path else;
#X obj 538 243 setdsp~;
#X obj 278 454 envgen~;
#X text 366 366 jumps immediately, f 12;
#X text 59 261 This object is very complex. Take a moment to study its help file and keep checking the documentation for the next examples., f 63;
#X obj 484 517 vsl 18 100 0 1 0 0 empty empty empty 0 -9 0 10 #dcdcdc #000000 #000000 0 1;
#X obj 495 385 tgl 17 0 empty empty empty 17 7 0 10 #dcdcdc #000000 #000000 0 1;
#X text 591 402 duration \, target, f 10;
#X obj 484 481 s2f~;
#X text 527 479 Exponential;
#X obj 484 442 envgen~;
#X text 60 59 The [envgen~] object from ELSE is similar to the [vline~] object as it generate multiple lines \, but it has a quite different syntax and also other features \, as it is an envelope generator after all. Let's present it here as a line generator similarly to [vline~] (before using it as a proper envelope generator in the next section)., f 81;
#X text 60 146 The line segments are set in pairs of duration and target value \, which is the opposite of the [line] family of objects from Pd Vanilla. But if you have an odd number of elements \, the first float sets a staring point. A single float is not suited as it is a gate value (we'll see that later). One big difference to the line family of objects is that [envgen~] is triggered by bangs or gates only., f 81;
#X msg 258 343 500 \$1 \, bang;
#X msg 278 373 0 0.5 \, bang;
#X msg 292 422 0 1000 1 \, bang;
#X msg 495 409 500 \$1 \, bang;
#X obj 484 356 initmess expl 4 4;
#X connect 1 0 22 0;
#X connect 5 0 6 0;
#X connect 6 0 8 0;
#X connect 7 0 0 0;
#X connect 8 0 4 0;
#X connect 11 0 7 0;
#X connect 15 0 25 0;
#X connect 17 0 14 0;
#X connect 19 0 17 0;
#X connect 22 0 11 0;
#X connect 23 0 11 0;
#X connect 24 0 11 0;
#X connect 25 0 19 0;
#X connect 26 0 19 0;
