#N canvas 287 51 877 524 12;
#X declare -path else;
#X obj 313 24 declare -path else;
#X obj 251 356 nbx 5 14 -1e+37 1e+37 0 0 empty empty empty 0 -8 0 10 #dcdcdc #000000 #000000 0 256;
#X text 312 356 decay time (ms);
#X obj 128 344 nbx 5 14 -1e+37 1e+37 0 0 empty empty empty 0 -8 0 10 #dcdcdc #000000 #000000 0 256;
#X text 43 60 In physics \, a sinusoidal oscillation is also known as a simple harmonic oscillator \, with a constant amplitude and a constant frequency. A damped harmonic oscillation \, on the other hand \, suffers a frictional force (damping). Within an electronic music context \, what we have is an oscillator with a decay envelope. We'll see more about this when we talk about amplitude envelopes \, but we can introduce [damp.osc~] from ELSE in the meantime \, a damped oscillator with a cosine and sine output.;
#X text 43 204 The object takes frequency in hertz or midi and a decay time in ms. It is triggered by signals at zero to non zero transitions (such as with an impulse oscillator) or by lists at control rate.;
#X obj 189 325 imp~ 1;
#X obj 128 381 damp.osc~ 440 1500;
#X obj 145 426 out~;
#X text 240 324 signal trigger;
#X text 112 320 frequency;
#X obj 563 277 else/out~;
#X obj 545 110 else/keyboard 17 80 2 4 0 0 empty empty;
#X listbox 545 206 11 0 0 0 - - - 0;
#X obj 545 235 damp.osc~ -midi 0 2500;
#X text 522 28 A list input also triggers the object at control rate \, such as from the output of [keyboard], f 40;
#X text 495 431 More technical details about this object later on in this tutorial when requisits are met., f 46;
#X text 495 361 The left output of [damp.osc~] has a cosine initial phase \, while the right one has a sine initial phase. Hence \, the left output has harsh clicks., f 46;
#X connect 1 0 7 2;
#X connect 3 0 7 0;
#X connect 6 0 7 1;
#X connect 7 0 8 0;
#X connect 7 1 8 1;
#X connect 12 0 13 0;
#X connect 13 0 14 0;
#X connect 14 0 11 0;
#X connect 14 1 11 1;
