#N canvas 543 23 505 626 12;
#X declare -path else;
#X obj 114 208 osc~ 440;
#X text 52 32 The [spread~] object \, from the ELSE library can be used to "spread" any number of input channels across any number of output channels with equal power panning., f 59;
#X obj 151 243 osc~ 660;
#X obj 188 277 osc~ 880;
#X obj 114 316 spread~ 3 2;
#X obj 323 159 declare -path else;
#X obj 106 362 out~;
#X text 177 206 spread to left speaker;
#X text 254 277 spread to right speaker;
#X text 218 242 spread to both;
#X text 52 87 The default is two inputs sent to two outputs \, but you can use more input sources and spread them in the stereo field. This is better noticeable with headphones. Check its help file for more details.;
#X obj 125 539 out.mc~;
#X obj 125 452 osc.mc~ 440 660 880;
#X obj 125 493 spread.mc~ 2;
#X text 260 510 See also [spread.mc~] multichannel connections., f 25;
#X connect 0 0 4 0;
#X connect 2 0 4 1;
#X connect 3 0 4 2;
#X connect 4 0 6 0;
#X connect 4 1 6 1;
#X connect 12 0 13 0;
#X connect 13 0 11 0;
