#N canvas 462 23 480 633 12;
#X declare -path else;
#X obj 99 225 osc~ 440;
#X obj 123 260 osc~ 660;
#X obj 148 294 osc~ 880;
#X obj 99 333 spread~ 3 2;
#X obj 293 15 declare -path else;
#X obj 91 371 out~;
#X text 162 223 spread to left speaker;
#X text 214 294 spread to right speaker;
#X text 190 259 spread to both;
#X obj 260 562 out.mc~;
#X obj 260 516 spread.mc~ 2;
#X text 51 509 See also [spread.mc~] multichannel connections., f 25;
#X obj 260 465 sine~ -mc 440 660 880;
#X text 31 49 The [spread~] object \, from the ELSE library can be used to "spread" any number of input channels across any number of output channels with equal power panning and also a spread parameter that can be set in the rightmost inlet.;
#X text 31 115 Here we have 3 inputs spread them in a stereo field. This is better noticeable with headphones. Note that this would be just like panning each input using the inlet as the panning position \, in this case the left input is like panning to the left position \, the center one is like the mid position and the right inlet pans to the right., f 58;
#X text 217 341 Note that the spread parameter would spread the outer inputs also to the center channel. Open the help file for more details., f 31;
#X connect 0 0 3 0;
#X connect 1 0 3 1;
#X connect 2 0 3 2;
#X connect 3 0 5 0;
#X connect 3 1 5 1;
#X connect 10 0 9 0;
#X connect 12 0 10 0;
