#N canvas 489 88 739 423 12;
#X declare -path else;
#X obj 99 61 declare -path else;
#X text 444 66 The [xselect.mx~] lets you perform the crossfade between channels. Check its help file., f 25;
#X obj 454 205 hradio 16 1 0 6 empty empty empty 0 -8 0 10 #dfdfdf #000000 #000000 0;
#X floatatom 454 228 4 0 0 0 - - - 0;
#X obj 432 298 out~;
#X obj 432 266 xselect.mc~ 500 1;
#X obj 432 165 osc.mc~ 444 555 666 777 888 999;
#X obj 73 191 hradio 16 1 0 4 empty empty empty 0 -8 0 10 #dfdfdf #000000 #000000 0;
#X floatatom 73 214 4 0 0 0 - - - 0;
#X listbox 174 335 11 0 0 0 - - - 0;
#X obj 234 240 sig~ 13;
#X obj 174 177 sigs~ 1 2 3 4 5;
#X obj 204 207 sigs~ 3 2;
#X obj 174 272 select~ 3;
#X obj 174 306 s2f~;
#X text 50 106 Use [select~] to select from inputs (without crossfade) of different channel sizes. Check its help file., f 44;
#X connect 2 0 3 0;
#X connect 3 0 5 0;
#X connect 5 0 4 0;
#X connect 6 0 5 0;
#X connect 7 0 8 0;
#X connect 8 0 13 0;
#X connect 10 0 13 2;
#X connect 11 0 13 0;
#X connect 12 0 13 1;
#X connect 13 0 14 0;
#X connect 14 0 9 0;
