#N canvas 713 95 670 351 10;
#X obj 356 41 inlet~;
#X obj 356 256 outlet~;
#N canvas 341 432 316 326 gain~ 0;
#N canvas 251 205 450 331 quartic 0;
#X obj 100 126 line~;
#X obj 100 158 *~;
#X obj 100 186 *~;
#X obj 100 92 inlet;
#X obj 100 252 outlet~;
#X obj 100 217 *~;
#X obj 221 54 r \$0-mode;
#X msg 250 104 0;
#X obj 269 157 switch~;
#X msg 221 104 1;
#X obj 197 179 line~;
#X msg 197 157 \$1 50;
#X obj 273 132 pipe 50;
#X obj 221 79 sel 0;
#X connect 0 0 1 0;
#X connect 0 0 1 1;
#X connect 1 0 2 0;
#X connect 1 0 2 1;
#X connect 2 0 5 0;
#X connect 3 0 0 0;
#X connect 5 0 4 0;
#X connect 6 0 13 0;
#X connect 7 0 11 0;
#X connect 7 0 12 0;
#X connect 9 0 8 0;
#X connect 9 0 11 0;
#X connect 10 0 5 1;
#X connect 11 0 10 0;
#X connect 12 0 8 0;
#X connect 13 0 9 0;
#X connect 13 1 7 0;
#X restore 57 146 pd quartic;
#X obj 37 296 outlet~;
#N canvas 743 262 450 300 dB 0;
#X obj 129 110 line~;
#X obj 129 76 inlet;
#X obj 159 235 outlet~;
#X obj 129 140 *~ 100;
#X obj 129 168 dbtorms~;
#X obj 221 54 r \$0-mode;
#X msg 250 104 0;
#X obj 269 157 switch~;
#X msg 221 104 1;
#X obj 221 79 sel 1;
#X obj 197 179 line~;
#X obj 159 203 *~;
#X msg 197 157 \$1 50;
#X obj 273 132 pipe 50;
#X connect 0 0 3 0;
#X connect 1 0 0 0;
#X connect 3 0 4 0;
#X connect 4 0 11 0;
#X connect 5 0 9 0;
#X connect 6 0 12 0;
#X connect 6 0 13 0;
#X connect 8 0 7 0;
#X connect 8 0 12 0;
#X connect 9 0 8 0;
#X connect 9 1 6 0;
#X connect 10 0 11 1;
#X connect 11 0 2 0;
#X connect 12 0 10 0;
#X connect 13 0 7 0;
#X restore 136 146 pd dB;
#N canvas 251 205 450 300 linear 0;
#X obj 136 65 line~;
#X obj 136 31 inlet;
#X obj 139 241 outlet~;
#X obj 260 54 r \$0-mode;
#X msg 289 104 0;
#X obj 308 157 switch~;
#X msg 260 104 1;
#X obj 236 179 line~;
#X msg 236 157 \$1 50;
#X obj 312 132 pipe 50;
#X obj 260 79 sel 2;
#X obj 131 187 *~;
#X connect 0 0 11 0;
#X connect 1 0 0 0;
#X connect 3 0 10 0;
#X connect 4 0 8 0;
#X connect 4 0 9 0;
#X connect 6 0 5 0;
#X connect 6 0 8 0;
#X connect 7 0 11 1;
#X connect 8 0 7 0;
#X connect 9 0 5 0;
#X connect 10 0 6 0;
#X connect 10 1 4 0;
#X connect 11 0 2 0;
#X restore 192 146 pd linear;
#N canvas 930 375 329 221 max_gain 0;
#X obj 46 35 inlet~;
#X obj 46 171 outlet~;
#X obj 46 100 *~;
#X obj 105 91 expr if($f1 <= 0 \, 1 \, $f1);
#X obj 105 65 r \$0-max_gain;
#X msg 105 116 \$1 15;
#X obj 105 141 line~;
#X connect 0 0 2 0;
#X connect 2 0 1 0;
#X connect 3 0 5 0;
#X connect 4 0 3 0;
#X connect 5 0 6 0;
#X connect 6 0 2 1;
#X restore 136 197 pd max_gain;
#X obj 136 59 receive \$0-slider;
#X obj 205 97 r \$0-ramp;
#X obj 136 96 pack f 20;
#X obj 35 21 inlet~;
#X obj 37 252 *~;
#X connect 0 0 4 0;
#X connect 2 0 4 0;
#X connect 3 0 4 0;
#X connect 4 0 9 1;
#X connect 5 0 7 0;
#X connect 6 0 7 1;
#X connect 7 0 2 0;
#X connect 7 0 3 0;
#X connect 7 0 0 0;
#X connect 8 0 9 0;
#X connect 9 0 1 0;
#X restore 356 187 pd gain~;
#X obj 428 41 inlet~;
#X obj 428 256 outlet~;
#N canvas 341 432 316 326 gain~ 0;
#N canvas 251 205 450 331 quartic 0;
#X obj 100 126 line~;
#X obj 100 158 *~;
#X obj 100 186 *~;
#X obj 100 92 inlet;
#X obj 100 252 outlet~;
#X obj 100 217 *~;
#X obj 221 54 r \$0-mode;
#X msg 250 104 0;
#X obj 269 157 switch~;
#X msg 221 104 1;
#X obj 197 179 line~;
#X msg 197 157 \$1 50;
#X obj 273 132 pipe 50;
#X obj 221 79 sel 0;
#X connect 0 0 1 0;
#X connect 0 0 1 1;
#X connect 1 0 2 0;
#X connect 1 0 2 1;
#X connect 2 0 5 0;
#X connect 3 0 0 0;
#X connect 5 0 4 0;
#X connect 6 0 13 0;
#X connect 7 0 11 0;
#X connect 7 0 12 0;
#X connect 9 0 8 0;
#X connect 9 0 11 0;
#X connect 10 0 5 1;
#X connect 11 0 10 0;
#X connect 12 0 8 0;
#X connect 13 0 9 0;
#X connect 13 1 7 0;
#X restore 57 146 pd quartic;
#X obj 37 296 outlet~;
#N canvas 743 262 450 300 dB 0;
#X obj 129 110 line~;
#X obj 129 76 inlet;
#X obj 159 235 outlet~;
#X obj 129 140 *~ 100;
#X obj 129 168 dbtorms~;
#X obj 221 54 r \$0-mode;
#X msg 250 104 0;
#X obj 269 157 switch~;
#X msg 221 104 1;
#X obj 221 79 sel 1;
#X obj 197 179 line~;
#X obj 159 203 *~;
#X msg 197 157 \$1 50;
#X obj 273 132 pipe 50;
#X connect 0 0 3 0;
#X connect 1 0 0 0;
#X connect 3 0 4 0;
#X connect 4 0 11 0;
#X connect 5 0 9 0;
#X connect 6 0 12 0;
#X connect 6 0 13 0;
#X connect 8 0 7 0;
#X connect 8 0 12 0;
#X connect 9 0 8 0;
#X connect 9 1 6 0;
#X connect 10 0 11 1;
#X connect 11 0 2 0;
#X connect 12 0 10 0;
#X connect 13 0 7 0;
#X restore 136 146 pd dB;
#N canvas 251 205 450 300 linear 0;
#X obj 136 65 line~;
#X obj 136 31 inlet;
#X obj 139 241 outlet~;
#X obj 260 54 r \$0-mode;
#X msg 289 104 0;
#X obj 308 157 switch~;
#X msg 260 104 1;
#X obj 236 179 line~;
#X msg 236 157 \$1 50;
#X obj 312 132 pipe 50;
#X obj 260 79 sel 2;
#X obj 131 187 *~;
#X connect 0 0 11 0;
#X connect 1 0 0 0;
#X connect 3 0 10 0;
#X connect 4 0 8 0;
#X connect 4 0 9 0;
#X connect 6 0 5 0;
#X connect 6 0 8 0;
#X connect 7 0 11 1;
#X connect 8 0 7 0;
#X connect 9 0 5 0;
#X connect 10 0 6 0;
#X connect 10 1 4 0;
#X connect 11 0 2 0;
#X restore 192 146 pd linear;
#N canvas 930 375 329 221 max_gain 0;
#X obj 46 35 inlet~;
#X obj 46 171 outlet~;
#X obj 46 100 *~;
#X obj 105 91 expr if($f1 <= 0 \, 1 \, $f1);
#X obj 105 65 r \$0-max_gain;
#X msg 105 116 \$1 15;
#X obj 105 141 line~;
#X connect 0 0 2 0;
#X connect 2 0 1 0;
#X connect 3 0 5 0;
#X connect 4 0 3 0;
#X connect 5 0 6 0;
#X connect 6 0 2 1;
#X restore 136 197 pd max_gain;
#X obj 205 97 r \$0-ramp;
#X obj 136 96 pack f 20;
#X obj 35 21 inlet~;
#X obj 37 252 *~;
#X obj 136 58 receive \$0-slider2;
#X connect 0 0 4 0;
#X connect 2 0 4 0;
#X connect 3 0 4 0;
#X connect 4 0 8 1;
#X connect 5 0 6 1;
#X connect 6 0 2 0;
#X connect 6 0 3 0;
#X connect 6 0 0 0;
#X connect 7 0 8 0;
#X connect 8 0 1 0;
#X connect 9 0 6 0;
#X restore 428 187 pd gain~;
#X obj 154 103 hsl 82 8 0 127 0 0 \$0-djhd \$0-djhdahkadgkha empty
-2 -8 0 10 -228856 -228856 -228856 0 1;
#X obj 154 268 hsl 82 8 0 127 0 0 \$0-djhd \$0-djhdahkadgkha empty
-2 -8 0 10 -228856 -228856 -228856 0 1;
#X obj 161 196 cnv 1 18 1 empty empty empty 20 12 0 14 -233017 -66577
0;
#X obj 151 260 nbx 4 14 -100 100 0 0 \$0-panL \$0-panL-set empty 0
-8 0 10 -228856 -1 -1 0 256;
#X obj 194 260 nbx 4 14 -100 100 0 0 \$0-panL \$0-panL-set empty 0
-8 0 10 -228856 -1 -1 0 256;
#X obj 151 107 vsl 43 150 0 1 0 0 \$0-slider \$0-set-slider empty 24
9 0 14 -228856 -1 -1 6500 1;
#X obj 195 107 vsl 43 150 0 1 0 0 \$0-slider2 \$0-set-slider2 empty
24 9 0 14 -228856 -1 -1 8400 1;
#X obj 152 104 cnv 1 85 1 empty empty empty 20 12 0 14 -233017 -66577
0;
#X obj 192 261 cnv 1 1 1 empty empty empty 20 12 0 14 -233017 -66577
0;
#X obj 235 261 cnv 1 1 1 empty empty empty 20 12 0 14 -233017 -66577
0;
#X obj 237 261 cnv 1 1 1 empty empty empty 20 12 0 14 -233017 -66577
0;
#X obj 237 263 cnv 1 1 1 empty empty empty 20 12 0 14 -233017 -66577
0;
#X obj 152 274 cnv 1 86 1 empty empty empty 20 12 0 14 -233017 -66577
0;
#X obj 153 276 cnv 1 2 1 empty empty empty 20 12 0 14 -1 -66577 0;
#X obj 158 276 cnv 1 73 1 empty empty empty 20 12 0 14 -233017 -66577
0;
#X obj 158 101 cnv 1 32 2 empty empty empty 20 12 0 14 -233017 -66577
0;
#X obj 194 101 cnv 1 1 176 empty empty empty 20 12 0 14 -1 -66577 0
;
#N canvas 119 196 423 259 set_GUI 0;
#X obj 34 212 s \$0-set-slider;
#X obj 59 20 inlet;
#X obj 34 178 clip 0 1;
#X obj 284 85 loadbang;
#X obj 284 163 s \$0-max_gain;
#X text 282 62 Load args;
#X obj 59 54 route float mode gain ramp;
#X obj 97 178 s \$0-mode;
#X obj 135 151 s \$0-max_gain;
#X obj 135 105 moses 0;
#X obj 135 83 * -1;
#X obj 135 127 * -1;
#X obj 193 106 s \$0-ramp;
#X obj 193 85 max 5;
#X obj 317 137 s \$0-mode;
#X obj 284 125 \$1;
#X obj 317 113 \$2;
#X connect 1 0 6 0;
#X connect 2 0 0 0;
#X connect 3 0 15 0;
#X connect 3 0 16 0;
#X connect 6 0 2 0;
#X connect 6 1 7 0;
#X connect 6 2 10 0;
#X connect 6 3 13 0;
#X connect 9 0 11 0;
#X connect 10 0 9 0;
#X connect 11 0 8 0;
#X connect 13 0 12 0;
#X connect 15 0 4 0;
#X connect 16 0 14 0;
#X restore 515 168 pd set_GUI;
#X obj 515 123 inlet;
#X obj 199 101 cnv 1 32 2 empty empty empty 20 12 0 14 -233017 -66577
0;
#N canvas 262 23 503 388 pan 0;
#X obj 80 218 pan2~;
#X obj 152 217 pan2~;
#X obj 215 99 r \$0-panL;
#X obj 215 131 else/f2s~ 20;
#X obj 215 160 /~ 100;
#X obj 339 122 else/f2s~ 20;
#X obj 339 151 /~ 100;
#X obj 339 90 r \$0-panR;
#X obj 82 48 inlet~;
#X obj 144 49 inlet~;
#X obj 81 276 outlet~;
#X obj 143 277 outlet~;
#X connect 0 0 10 0;
#X connect 0 1 11 0;
#X connect 1 0 10 0;
#X connect 1 1 11 0;
#X connect 2 0 3 0;
#X connect 3 0 4 0;
#X connect 4 0 0 1;
#X connect 5 0 6 0;
#X connect 6 0 1 1;
#X connect 7 0 5 0;
#X connect 8 0 0 0;
#X connect 9 0 1 0;
#X restore 395 217 pd pan;
#X connect 0 0 2 0;
#X connect 2 0 26 0;
#X connect 3 0 5 0;
#X connect 5 0 26 1;
#X connect 24 0 23 0;
#X connect 26 0 1 0;
#X connect 26 1 4 0;
#X coords 0 0 1 1 89 178 2 150 100;
