#N canvas 653 82 658 438 10;
#X obj 219 217 list;
#X obj 308 303 f;
#X obj 338 307 + 1;
#X obj 366 167 f \$1;
#X obj 366 145 loadbang;
#X obj 366 191 max 1;
#X obj 131 64 inlet;
#X obj 239 379 outlet;
#X obj 239 330 list prepend;
#X obj 269 230 route bang;
#X obj 212 243 t b a;
#X obj 239 274 trigger a b;
#X obj 212 189 list split;
#X obj 212 154 trigger anything bang;
#X obj 335 260 f \$2;
#X text 412 249 order;
#X obj 131 103 route offset n;
#X connect 0 0 12 0;
#X connect 1 0 2 0;
#X connect 1 0 8 1;
#X connect 2 0 1 1;
#X connect 3 0 5 0;
#X connect 4 0 3 0;
#X connect 5 0 12 1;
#X connect 6 0 16 0;
#X connect 8 0 7 0;
#X connect 9 1 11 0;
#X connect 10 0 0 0;
#X connect 10 1 11 0;
#X connect 11 0 8 0;
#X connect 11 1 1 0;
#X connect 12 0 10 0;
#X connect 12 1 0 1;
#X connect 12 2 9 0;
#X connect 13 0 12 0;
#X connect 13 1 14 0;
#X connect 14 0 1 1;
#X connect 16 0 14 0;
#X connect 16 1 3 0;
#X connect 16 2 13 0;
