#N canvas 621 68 615 497 12;
#N canvas 381 38 625 535 (subpatch) 0;
#X obj 176 112 cnv 15 235 190 empty empty empty 20 12 0 14 #dbdbdb #373737 0;
#X obj 240 155 else/knob 50 0 2000 2 0 \$0-decay \$0-set-decay #e4e4e4 #a8a8a8 #4d4d4d 0 0 0 0 1 270 0 0 0 empty empty 0 0 0 0 0 0 0 0;
#X obj 297 155 else/knob 50 0 1 0 0 \$0-sustain \$0-set-sustain #e4e4e4 #a8a8a8 #4d4d4d 0 0 0 0 1 270 0 0 0 empty empty 0 0 0 0 0 0 0 0;
#X obj 240 116 else/note 101 24 Inter empty 5 54 54 54 0 187 187 187 1 1 ADSR;
#X obj 183 155 else/knob 50 0 2000 2 0 \$0-attack \$0-set-attack #e4e4e4 #a8a8a8 #000000 0 0 0 0 1 270 0 0 0 empty empty 0 12 2 56 0 0 0 0;
#X obj 296 231 else/note 51 10 Inter empty 5 55 55 55 0 223 223 223 1 1 Sustain;
#X obj 354 155 else/knob 50 0 2000 2 0 \$0-release \$0-set-release #e4e4e4 #a8a8a8 #4d4d4d 0 0 0 0 1 270 0 0 0 empty empty 0 0 0 0 0 0 0 0;
#X obj 353 231 else/note 51 10 Inter empty 5 55 55 55 0 223 223 223 1 2 Release;
#X obj 182 231 else/note 51 10 Inter empty 5 55 55 55 0 223 223 223 1 1 Attack;
#X obj 239 231 else/note 50 10 Inter empty 5 55 55 55 0 223 223 223 1 1 Decay;
#X obj 91 81 r \$0-reset;
#X obj 185 117 else/button 27 27 128 128 160 140 58 60 0;
#X obj 79 231 s \$0-button;
#X obj 190 251 else/knob 35 -1 1 0 0 \$0-att-A \$0-att-A-set #bbbbbb #7c7c7c black 0 0 0 0 1 320 0 0 0 empty empty 0 0 0 0 0 0 0 0;
#X obj 247 251 else/knob 35 -1 1 0 0 \$0-att-D \$0-att-D-set #bbbbbb #7c7c7c black 0 0 0 0 1 320 0 0 0 empty empty 0 0 0 0 0 0 0 0;
#X obj 304 251 else/knob 35 -1 1 0 0 \$0-att-S \$0-att-S-set #bbbbbb #7c7c7c black 0 0 0 0 1 320 0 0 0 empty empty 0 0 0 0 0 0 0 0;
#X obj 361 251 else/knob 35 -1 1 0 0 \$0-att-R \$0-att-R-set #bbbbbb #7c7c7c black 0 0 0 0 1 320 0 0 0 empty empty 0 0 0 0 0 0 0 0;
#X text 205 286 ----- Attenuverters -----;
#X obj 183 209 note 48 12 Menlo \$0-attack-label 0 0 0 0 0 255 255 255 0 1 10;
#X obj 240 209 note 47 12 Menlo \$0-decay-label 0 0 0 0 0 255 255 255 0 1 20;
#X obj 297 209 note 48 12 Menlo \$0-sustain-label 0 0 0 0 0 255 255 255 0 1 0.5;
#X obj 354 209 note 48 12 Menlo \$0-release-label 0 0 0 0 0 255 255 255 0 1 50;
#X floatatom 367 130 4 0 0 0 - \$0-set-curve \$0-curve 12;
#X text 362 111 curve;
#X connect 10 0 6 0;
#X connect 10 0 2 0;
#X connect 10 0 1 0;
#X connect 10 0 4 0;
#X connect 11 0 12 0;
#X coords 0 1 100 -1 237 192 1 175 111;
#X restore 257 173 graph;
#X obj 29 35 inlet~;
#X text 250 152 Gate;
#X text 345 152 A;
#X text 394 152 D;
#X text 442 152 S;
#X text 489 152 R;
#N canvas 243 43 655 428 preset 0;
#X obj 125 121 else/sender 1 \\\$0-presets;
#X msg 125 86 name \$1;
#X obj 90 171 else/receiver;
#X obj 123 220 route list;
#N canvas 596 76 469 447 id-name-init 0;
#X obj 165 113 + 1;
#X obj 257 76 symbol abs1-id_\\\$0;
#X obj 257 100 else/dollsym 1;
#X obj 141 80 value;
#X obj 141 252 outlet;
#X obj 141 51 else/loadbanger 2;
#X obj 141 201 else/dollsym 1;
#X obj 141 166 makefilename \\\$0-adsr-%d;
#X connect 0 0 3 0;
#X connect 1 0 2 0;
#X connect 2 0 3 1;
#X connect 3 0 0 0;
#X connect 3 0 7 0;
#X connect 5 0 3 0;
#X connect 5 1 1 0;
#X connect 6 0 4 0;
#X connect 7 0 6 0;
#X restore 90 39 pd id-name-init;
#X obj 90 321 else/var \$0-attack \$0-decay \$0-sustain \$0-release \$0-curve \$0-att-A \$0-att-D \$0-att-S \$0-att-R;
#X obj 123 257 else/dispatch \$0-set-attack \$0-set-decay \$0-set-sustain \$0-set-release \$0-set-curve \$0-set-att-A \$0-set-att-D \$0-set-att-S \$0-set-att-R;
#X connect 1 0 0 0;
#X connect 2 0 3 0;
#X connect 2 0 5 0;
#X connect 3 0 6 0;
#X connect 4 0 1 0;
#X connect 4 0 2 0;
#X restore 139 252 pd preset;
#N canvas 549 148 599 448 init-savestate 0;
#X obj 49 43 loadbang;
#X obj 77 112 savestate;
#X obj 52 203 list;
#X obj 77 145 list trim;
#X obj 77 175 route list;
#X obj 169 66 else/var \$0-attack \$0-decay \$0-sustain \$0-release \$0-curve \$0-att-A \$0-att-D \$0-att-S \$0-att-R, f 49;
#X obj 53 295 else/dispatch \$0-set-attack \$0-set-decay \$0-set-sustain \$0-set-release \$0-set-curve \$0-set-att-A \$0-set-att-D \$0-set-att-S \$0-set-att-R-set;
#X obj 53 253 else/default 10 20 0.5 50 1 0 0 0 0;
#X connect 0 0 2 0;
#X connect 1 0 3 0;
#X connect 1 1 5 0;
#X connect 2 0 7 0;
#X connect 3 0 4 0;
#X connect 4 0 2 1;
#X connect 5 0 1 0;
#X connect 7 0 6 0;
#X restore 81 219 pd init-savestate;
#X obj 140 35 inlet~;
#X text 295 152 Retr;
#N canvas 382 172 910 553 guts 0;
#X obj 37 35 inlet~;
#X obj 37 511 outlet~;
#X obj 162 165 r \$0-button;
#X msg 162 204 gate \$1;
#X obj 37 455 else/adsr~, f 79;
#X obj 145 35 inlet~;
#X obj 281 15 inlet~;
#X obj 90 35 inlet;
#N canvas 97 121 508 403 set 0;
#X obj 64 29 inlet;
#X obj 141 300 s \$0-set-decay;
#X obj 119 326 s \$0-set-attack;
#X obj 163 273 s \$0-set-sustain;
#X obj 185 246 s \$0-set-release;
#X obj 262 189 s \$0-att-A-set;
#X obj 277 161 s \$0-att-D-set;
#X obj 295 133 s \$0-att-S-set;
#X obj 316 103 s \$0-att-R-set;
#X obj 64 73 route A D S R curve A_att D_att S_att R_att;
#X obj 211 218 s \$0-set-curve;
#X connect 0 0 9 0;
#X connect 9 0 2 0;
#X connect 9 1 1 0;
#X connect 9 2 3 0;
#X connect 9 3 4 0;
#X connect 9 4 10 0;
#X connect 9 5 5 0;
#X connect 9 6 6 0;
#X connect 9 7 7 0;
#X connect 9 8 8 0;
#X restore 161 125 pd set;
#X obj 281 318 *~;
#X obj 320 345 r \$0-attack;
#X obj 281 351 +~;
#X obj 320 369 else/f2s~;
#X obj 299 148 else/f2s~;
#X obj 431 15 inlet~;
#X obj 431 318 *~;
#X obj 431 351 +~;
#X obj 470 369 else/f2s~;
#X obj 449 148 else/f2s~;
#X obj 581 15 inlet~;
#X obj 581 318 *~;
#X obj 581 351 +~;
#X obj 620 369 else/f2s~;
#X obj 599 148 else/f2s~;
#X obj 731 15 inlet~;
#X obj 731 318 *~;
#X obj 731 351 +~;
#X obj 770 369 else/f2s~;
#X obj 749 148 else/f2s~;
#X obj 470 345 r \$0-decay;
#X obj 620 345 r \$0-sustain;
#X obj 770 345 r \$0-release;
#X obj 299 84 r \$0-att-A;
#X obj 449 84 r \$0-att-D;
#X obj 599 84 r \$0-att-S;
#X obj 749 84 r \$0-att-R;
#X obj 90 73 route bang gate, f 5;
#X obj 299 113 * 1000;
#X obj 449 114 * 1000;
#X obj 749 113 * 1000;
#X obj 599 113 / 2;
#X obj 179 246 r \$0-curve;
#X msg 179 270 curve \$1;
#X connect 0 0 4 0;
#X connect 2 0 3 0;
#X connect 3 0 4 0;
#X connect 4 0 1 0;
#X connect 5 0 4 1;
#X connect 6 0 9 0;
#X connect 7 0 36 0;
#X connect 9 0 11 0;
#X connect 10 0 12 0;
#X connect 11 0 4 2;
#X connect 12 0 11 1;
#X connect 13 0 9 1;
#X connect 14 0 15 0;
#X connect 15 0 16 0;
#X connect 16 0 4 3;
#X connect 17 0 16 1;
#X connect 18 0 15 1;
#X connect 19 0 20 0;
#X connect 20 0 21 0;
#X connect 21 0 4 4;
#X connect 22 0 21 1;
#X connect 23 0 20 1;
#X connect 24 0 25 0;
#X connect 25 0 26 0;
#X connect 26 0 4 5;
#X connect 27 0 26 1;
#X connect 28 0 25 1;
#X connect 29 0 17 0;
#X connect 30 0 22 0;
#X connect 31 0 27 0;
#X connect 32 0 37 0;
#X connect 33 0 38 0;
#X connect 34 0 40 0;
#X connect 35 0 39 0;
#X connect 36 0 4 0;
#X connect 36 1 3 0;
#X connect 36 2 8 0;
#X connect 37 0 13 0;
#X connect 38 0 18 0;
#X connect 39 0 28 0;
#X connect 40 0 23 0;
#X connect 41 0 42 0;
#X connect 42 0 4 0;
#X restore 29 102 pd guts;
#X f 48;
#X obj 95 373 r \$0-release;
#X obj 95 406 outlet;
#X obj 195 35 inlet~;
#X obj 251 35 inlet~;
#X obj 306 35 inlet~;
#X obj 362 35 inlet~;
#X obj 29 406 outlet~;
#N canvas 293 252 256 289 MIDI-learn 0;
#N canvas 206 329 577 472 attack-knob 0;
#X msg 114 218 forget;
#X obj 240 221 savestate;
#X obj 300 268 list;
#X obj 240 326 else/insert teach;
#X obj 127 188 print [adsr.m~]:;
#X obj 96 270 else/midi.learn 1;
#A saved;
#X obj 94 34 r \$0-attack-learn;
#X msg 113 64 MIDI-learn for attack knob activated;
#X obj 113 91 print [adsr.m~]:;
#X obj 114 130 r \$0-attack-forget;
#X obj 325 243 list prepend attacklearn;
#X obj 240 297 else/route2 attacklearn;
#X obj 96 405 s \$0-set-attack;
#X msg 127 164 MIDI-forget for attack knob;
#X obj 96 366 else/rescale -exp 2 0 2000;
#X connect 0 0 5 0;
#X connect 1 0 11 0;
#X connect 1 1 2 0;
#X connect 2 0 1 0;
#X connect 3 0 5 0;
#X connect 5 0 14 0;
#X connect 5 1 10 0;
#X connect 6 0 7 0;
#X connect 6 0 5 0;
#X connect 7 0 8 0;
#X connect 9 0 0 0;
#X connect 9 0 13 0;
#X connect 10 0 2 1;
#X connect 11 0 3 0;
#X connect 13 0 4 0;
#X connect 14 0 12 0;
#X restore 52 67 pd attack-knob;
#N canvas 206 329 577 472 attack-decay 0;
#X msg 114 218 forget;
#X obj 240 221 savestate;
#X obj 300 268 list;
#X obj 240 326 else/insert teach;
#X obj 127 188 print [adsr.m~]:;
#X obj 96 270 else/midi.learn 1;
#A saved;
#X obj 113 91 print [adsr.m~]:;
#X obj 94 34 r \$0-decay-learn;
#X msg 113 64 MIDI-learn for decay knob activated;
#X obj 114 130 r \$0-decay-forget;
#X msg 127 164 MIDI-forget for decay knob;
#X obj 325 243 list prepend decaylearn;
#X obj 240 297 else/route2 decaylearn;
#X obj 96 405 s \$0-set-decay;
#X obj 96 366 else/rescale -exp 2 0 2000;
#X connect 0 0 5 0;
#X connect 1 0 12 0;
#X connect 1 1 2 0;
#X connect 2 0 1 0;
#X connect 3 0 5 0;
#X connect 5 0 14 0;
#X connect 5 1 11 0;
#X connect 7 0 8 0;
#X connect 7 0 5 0;
#X connect 8 0 6 0;
#X connect 9 0 0 0;
#X connect 9 0 10 0;
#X connect 10 0 4 0;
#X connect 11 0 2 1;
#X connect 12 0 3 0;
#X connect 14 0 13 0;
#X restore 52 89 pd attack-decay;
#N canvas 206 329 577 472 attack-sustain 0;
#X msg 114 218 forget;
#X obj 240 221 savestate;
#X obj 300 268 list;
#X obj 240 326 else/insert teach;
#X obj 127 188 print [adsr.m~]:;
#X obj 96 270 else/midi.learn 1;
#A saved;
#X obj 113 91 print [adsr.m~]:;
#X obj 94 34 r \$0-sustain-learn;
#X msg 113 64 MIDI-learn for sustain knob activated;
#X obj 114 130 r \$0-sustain-forget;
#X msg 127 164 MIDI-forget for sustain knob;
#X obj 325 243 list prepend sustainlearn;
#X obj 240 297 else/route2 sustainlearn;
#X obj 96 405 s \$0-set-sustain;
#X obj 96 366 else/rescale 0 1;
#X connect 0 0 5 0;
#X connect 1 0 12 0;
#X connect 1 1 2 0;
#X connect 2 0 1 0;
#X connect 3 0 5 0;
#X connect 5 0 14 0;
#X connect 5 1 11 0;
#X connect 7 0 8 0;
#X connect 7 0 5 0;
#X connect 8 0 6 0;
#X connect 9 0 0 0;
#X connect 9 0 10 0;
#X connect 10 0 4 0;
#X connect 11 0 2 1;
#X connect 12 0 3 0;
#X connect 14 0 13 0;
#X restore 52 112 pd attack-sustain;
#N canvas 206 329 577 472 attack-release 0;
#X msg 114 218 forget;
#X obj 240 221 savestate;
#X obj 300 268 list;
#X obj 240 326 else/insert teach;
#X obj 127 188 print [adsr.m~]:;
#X obj 96 270 else/midi.learn 1;
#A saved;
#X obj 113 91 print [adsr.m~]:;
#X obj 94 34 r \$0-release-learn;
#X msg 113 64 MIDI-learn for release knob activated;
#X obj 114 130 r \$0-release-forget;
#X msg 127 164 MIDI-forget for release knob;
#X obj 240 297 else/route2 releaselearn;
#X obj 325 243 list prepend releaselearn;
#X obj 96 405 s \$0-set-release;
#X obj 96 366 else/rescale -exp 2 0 2000;
#X connect 0 0 5 0;
#X connect 1 0 11 0;
#X connect 1 1 2 0;
#X connect 2 0 1 0;
#X connect 3 0 5 0;
#X connect 5 0 14 0;
#X connect 5 1 12 0;
#X connect 7 0 8 0;
#X connect 7 0 5 0;
#X connect 8 0 6 0;
#X connect 9 0 0 0;
#X connect 9 0 10 0;
#X connect 10 0 4 0;
#X connect 11 0 3 0;
#X connect 12 0 2 1;
#X connect 14 0 13 0;
#X restore 52 136 pd attack-release;
#N canvas 398 320 577 463 A-att 0;
#X msg 131 228 forget;
#X obj 230 221 savestate;
#X obj 290 268 list;
#X obj 230 326 else/insert teach;
#X obj 113 91 print [adsr.m~]:;
#X obj 147 191 print [adsr.m~]:;
#X obj 96 366 else/rescale -1 1;
#X obj 96 270 else/midi.learn 1;
#A saved;
#X obj 94 34 r \$0-att-A-learn;
#X msg 113 64 MIDI-learn for Attack-att activated;
#X obj 131 130 r \$0-att-A-forget;
#X msg 147 167 MIDI-foget for Attack-att;
#X obj 315 243 list prepend A-att;
#X obj 230 297 else/route2 A-att;
#X obj 96 405 s \$0-set-att-A;
#X connect 0 0 7 0;
#X connect 1 0 13 0;
#X connect 1 1 2 0;
#X connect 2 0 1 0;
#X connect 3 0 7 0;
#X connect 6 0 14 0;
#X connect 7 0 6 0;
#X connect 7 1 12 0;
#X connect 8 0 9 0;
#X connect 8 0 7 0;
#X connect 9 0 4 0;
#X connect 10 0 0 0;
#X connect 10 0 11 0;
#X connect 11 0 5 0;
#X connect 12 0 2 1;
#X connect 13 0 3 0;
#X restore 52 172 pd A-att;
#N canvas 398 320 577 463 D-att 0;
#X msg 131 228 forget;
#X obj 230 221 savestate;
#X obj 290 268 list;
#X obj 230 326 else/insert teach;
#X obj 113 91 print [adsr.m~]:;
#X obj 147 191 print [adsr.m~]:;
#X obj 96 366 else/rescale -1 1;
#X obj 96 270 else/midi.learn 1;
#A saved;
#X obj 94 34 r \$0-att-D-learn;
#X msg 113 64 MIDI-learn for Decay-att activated;
#X obj 131 130 r \$0-att-D-forget;
#X msg 147 167 MIDI-foget for Decay-att;
#X obj 315 243 list prepend D-att;
#X obj 230 297 else/route2 D-att;
#X obj 96 405 s \$0-set-att-D;
#X connect 0 0 7 0;
#X connect 1 0 13 0;
#X connect 1 1 2 0;
#X connect 2 0 1 0;
#X connect 3 0 7 0;
#X connect 6 0 14 0;
#X connect 7 0 6 0;
#X connect 7 1 12 0;
#X connect 8 0 9 0;
#X connect 8 0 7 0;
#X connect 9 0 4 0;
#X connect 10 0 0 0;
#X connect 10 0 11 0;
#X connect 11 0 5 0;
#X connect 12 0 2 1;
#X connect 13 0 3 0;
#X restore 52 195 pd D-att;
#N canvas 398 320 577 463 S-att 0;
#X msg 131 228 forget;
#X obj 230 221 savestate;
#X obj 290 268 list;
#X obj 230 326 else/insert teach;
#X obj 113 91 print [adsr.m~]:;
#X obj 147 191 print [adsr.m~]:;
#X obj 96 366 else/rescale -1 1;
#X obj 96 270 else/midi.learn 1;
#A saved;
#X obj 94 34 r \$0-att-S-learn;
#X msg 113 64 MIDI-learn for Sustain-att activated;
#X obj 131 130 r \$0-att-S-forget;
#X msg 147 167 MIDI-foget for Sustain-att;
#X obj 315 243 list prepend S-att;
#X obj 230 297 else/route2 S-att;
#X obj 96 405 s \$0-set-att-S;
#X connect 0 0 7 0;
#X connect 1 0 13 0;
#X connect 1 1 2 0;
#X connect 2 0 1 0;
#X connect 3 0 7 0;
#X connect 6 0 14 0;
#X connect 7 0 6 0;
#X connect 7 1 12 0;
#X connect 8 0 9 0;
#X connect 8 0 7 0;
#X connect 9 0 4 0;
#X connect 10 0 0 0;
#X connect 10 0 11 0;
#X connect 11 0 5 0;
#X connect 12 0 2 1;
#X connect 13 0 3 0;
#X restore 52 218 pd S-att;
#N canvas 398 320 577 463 R-att 0;
#X msg 131 228 forget;
#X obj 230 221 savestate;
#X obj 290 268 list;
#X obj 230 326 else/insert teach;
#X obj 113 91 print [adsr.m~]:;
#X obj 147 191 print [adsr.m~]:;
#X obj 96 366 else/rescale -1 1;
#X obj 96 270 else/midi.learn 1;
#A saved;
#X obj 94 34 r \$0-att-R-learn;
#X msg 113 64 MIDI-learn for Release-att activated;
#X obj 131 130 r \$0-att-R-forget;
#X msg 147 167 MIDI-foget for Release-att;
#X obj 315 243 list prepend R-att;
#X obj 230 297 else/route2 R-att;
#X obj 96 405 s \$0-set-att-R;
#X connect 0 0 7 0;
#X connect 1 0 13 0;
#X connect 1 1 2 0;
#X connect 2 0 1 0;
#X connect 3 0 7 0;
#X connect 6 0 14 0;
#X connect 7 0 6 0;
#X connect 7 1 12 0;
#X connect 8 0 9 0;
#X connect 8 0 7 0;
#X connect 9 0 4 0;
#X connect 10 0 0 0;
#X connect 10 0 11 0;
#X connect 11 0 5 0;
#X connect 12 0 2 1;
#X connect 13 0 3 0;
#X restore 52 241 pd R-att;
#X restore 94 287 pd MIDI-learn;
#N canvas 232 221 847 673 GUI 0;
#N canvas 63 137 522 359 format 0;
#N canvas 270 246 508 557 <1 0;
#X obj 151 32 inlet;
#X obj 152 62 else/format %.3f;
#X obj 152 90 list fromsymbol;
#X obj 184 181 else/slice -1;
#X obj 272 209 == 48;
#X obj 152 220 else/router;
#X obj 152 152 t l l;
#X obj 226 247 else/slice -1;
#X obj 152 308 equal 48 46;
#X obj 152 118 t l l, f 27;
#X obj 313 381 list;
#X obj 152 277 t l l, f 13;
#X obj 215 381 list;
#X obj 215 417 list tosymbol;
#X obj 152 336 sel 0 1;
#X obj 215 471 outlet;
#X listbox 181 514 20 0 0 0 - - - 0;
#X connect 0 0 1 0;
#X connect 1 0 2 0;
#X connect 2 0 9 0;
#X connect 3 1 4 0;
#X connect 4 0 5 1;
#X connect 5 0 11 0;
#X connect 5 1 7 0;
#X connect 6 0 5 0;
#X connect 6 1 3 0;
#X connect 7 0 6 0;
#X connect 8 0 14 0;
#X connect 9 0 6 0;
#X connect 9 1 10 1;
#X connect 10 0 13 0;
#X connect 11 0 8 0;
#X connect 11 1 12 1;
#X connect 12 0 13 0;
#X connect 12 0 16 0;
#X connect 13 0 15 0;
#X connect 14 0 12 0;
#X connect 14 1 10 0;
#X restore 104 162 pd <1;
#X obj 158 162 else/format %.4g;
#X obj 282 162 else/format %.5g;
#X obj 105 54 inlet;
#X obj 158 252 outlet;
#X obj 105 91 sel 0;
#X obj 152 90 else/spread 0 1 100;
#X msg 105 117 0;
#X connect 0 0 4 0;
#X connect 1 0 4 0;
#X connect 2 0 4 0;
#X connect 3 0 5 0;
#X connect 5 0 7 0;
#X connect 5 1 6 0;
#X connect 6 1 0 0;
#X connect 6 2 1 0;
#X connect 6 3 2 0;
#X connect 7 0 1 0;
#X restore 73 129 pd format;
#X obj 73 63 r \$0-attack;
#X msg 73 165 set \$1;
#X obj 203 282 s \$0-attack-label;
#X obj 73 95 else/limit 100;
#X obj 202 72 r \$0-attack-active;
#X msg 202 165 color 0 0 \$1;
#X obj 228 201 r \$0-attack-typing;
#X msg 228 232 set \$1|;
#X obj 202 133 * 175;
#X obj 215 106 loadbang;
#X msg 438 165 set \$1;
#X obj 438 95 else/limit 100;
#X msg 567 165 color 0 0 \$1;
#X msg 593 232 set \$1|;
#X obj 567 133 * 175;
#X obj 580 106 loadbang;
#X msg 87 485 set \$1;
#X obj 87 415 else/limit 100;
#X msg 216 485 color 0 0 \$1;
#X msg 242 552 set \$1|;
#X obj 216 453 * 175;
#X obj 229 426 loadbang;
#X msg 452 485 set \$1;
#X obj 452 415 else/limit 100;
#X msg 581 485 color 0 0 \$1;
#X msg 607 552 set \$1|;
#X obj 581 453 * 175;
#X obj 594 426 loadbang;
#X obj 438 63 r \$0-decay;
#X obj 567 72 r \$0-decay-active;
#X obj 593 201 r \$0-decay-typing;
#X obj 568 282 s \$0-decay-label;
#X obj 87 383 r \$0-sustain;
#X obj 216 392 r \$0-sustain-active;
#X obj 242 521 r \$0-sustain-typing;
#X obj 217 602 s \$0-sustain-label;
#X obj 452 383 r \$0-release;
#X obj 581 392 r \$0-release-active;
#X obj 607 521 r \$0-release-typing;
#X obj 582 602 s \$0-release-label;
#N canvas 280 116 522 359 format 0;
#N canvas 270 246 508 557 <1 0;
#X obj 151 32 inlet;
#X obj 152 62 else/format %.3f;
#X obj 152 90 list fromsymbol;
#X obj 184 181 else/slice -1;
#X obj 272 209 == 48;
#X obj 152 220 else/router;
#X obj 152 152 t l l;
#X obj 226 247 else/slice -1;
#X obj 152 118 t l l, f 27;
#X obj 313 381 list;
#X obj 152 277 t l l, f 13;
#X obj 215 381 list;
#X obj 215 417 list tosymbol;
#X obj 215 471 outlet;
#X obj 152 336 sel 0 1;
#X obj 152 308 equal 48 46;
#X connect 0 0 1 0;
#X connect 1 0 2 0;
#X connect 2 0 8 0;
#X connect 3 1 4 0;
#X connect 4 0 5 1;
#X connect 5 0 10 0;
#X connect 5 1 7 0;
#X connect 6 0 5 0;
#X connect 6 1 3 0;
#X connect 7 0 6 0;
#X connect 8 0 6 0;
#X connect 8 1 9 1;
#X connect 9 0 12 0;
#X connect 10 0 15 0;
#X connect 10 1 11 1;
#X connect 11 0 12 0;
#X connect 12 0 13 0;
#X connect 14 0 11 0;
#X connect 14 1 9 0;
#X connect 15 0 14 0;
#X restore 104 162 pd <1;
#X obj 158 162 else/format %.4g;
#X obj 282 162 else/format %.5g;
#X obj 105 54 inlet;
#X obj 158 252 outlet;
#X obj 105 91 sel 0;
#X obj 152 90 else/spread 0 1 100;
#X msg 105 117 0;
#X connect 0 0 4 0;
#X connect 1 0 4 0;
#X connect 2 0 4 0;
#X connect 3 0 5 0;
#X connect 5 0 7 0;
#X connect 5 1 6 0;
#X connect 6 1 0 0;
#X connect 6 2 1 0;
#X connect 6 3 2 0;
#X connect 7 0 1 0;
#X restore 87 449 pd format;
#N canvas 280 116 522 359 format 0;
#N canvas 270 246 508 557 <1 0;
#X obj 151 32 inlet;
#X obj 152 62 else/format %.3f;
#X obj 152 90 list fromsymbol;
#X obj 184 181 else/slice -1;
#X obj 272 209 == 48;
#X obj 152 220 else/router;
#X obj 152 152 t l l;
#X obj 226 247 else/slice -1;
#X obj 152 118 t l l, f 27;
#X obj 313 381 list;
#X obj 152 277 t l l, f 13;
#X obj 215 381 list;
#X obj 215 417 list tosymbol;
#X obj 152 336 sel 0 1;
#X obj 215 471 outlet;
#X obj 152 308 equal 48 46;
#X connect 0 0 1 0;
#X connect 1 0 2 0;
#X connect 2 0 8 0;
#X connect 3 1 4 0;
#X connect 4 0 5 1;
#X connect 5 0 10 0;
#X connect 5 1 7 0;
#X connect 6 0 5 0;
#X connect 6 1 3 0;
#X connect 7 0 6 0;
#X connect 8 0 6 0;
#X connect 8 1 9 1;
#X connect 9 0 12 0;
#X connect 10 0 15 0;
#X connect 10 1 11 1;
#X connect 11 0 12 0;
#X connect 12 0 14 0;
#X connect 13 0 11 0;
#X connect 13 1 9 0;
#X connect 15 0 13 0;
#X restore 104 162 pd <1;
#X obj 158 162 else/format %.4g;
#X obj 282 162 else/format %.5g;
#X obj 105 54 inlet;
#X obj 158 252 outlet;
#X obj 105 91 sel 0;
#X obj 152 90 else/spread 0 1 100;
#X msg 105 117 0;
#X connect 0 0 4 0;
#X connect 1 0 4 0;
#X connect 2 0 4 0;
#X connect 3 0 5 0;
#X connect 5 0 7 0;
#X connect 5 1 6 0;
#X connect 6 1 0 0;
#X connect 6 2 1 0;
#X connect 6 3 2 0;
#X connect 7 0 1 0;
#X restore 452 449 pd format;
#N canvas 491 87 522 359 format 0;
#N canvas 428 205 508 557 <1 0;
#X obj 151 32 inlet;
#X obj 152 62 else/format %.3f;
#X obj 152 90 list fromsymbol;
#X obj 184 181 else/slice -1;
#X obj 272 209 == 48;
#X obj 152 220 else/router;
#X obj 152 152 t l l;
#X obj 226 247 else/slice -1;
#X obj 152 118 t l l, f 27;
#X obj 313 381 list;
#X obj 152 277 t l l, f 13;
#X obj 215 381 list;
#X obj 215 417 list tosymbol;
#X obj 152 336 sel 0 1;
#X obj 215 471 outlet;
#X obj 152 307 equal 48 46;
#X connect 0 0 1 0;
#X connect 1 0 2 0;
#X connect 2 0 8 0;
#X connect 3 1 4 0;
#X connect 4 0 5 1;
#X connect 5 0 10 0;
#X connect 5 1 7 0;
#X connect 6 0 5 0;
#X connect 6 1 3 0;
#X connect 7 0 6 0;
#X connect 8 0 6 0;
#X connect 8 1 9 1;
#X connect 9 0 12 0;
#X connect 10 0 15 0;
#X connect 10 1 11 1;
#X connect 11 0 12 0;
#X connect 12 0 14 0;
#X connect 13 0 11 0;
#X connect 13 1 9 0;
#X connect 15 0 13 0;
#X restore 104 162 pd <1;
#X obj 158 162 else/format %.4g;
#X obj 282 162 else/format %.5g;
#X obj 105 54 inlet;
#X obj 158 252 outlet;
#X obj 105 91 sel 0;
#X obj 152 90 else/spread 0 1 100;
#X msg 105 117 0;
#X connect 0 0 4 0;
#X connect 1 0 4 0;
#X connect 2 0 4 0;
#X connect 3 0 5 0;
#X connect 5 0 7 0;
#X connect 5 1 6 0;
#X connect 6 1 0 0;
#X connect 6 2 1 0;
#X connect 6 3 2 0;
#X connect 7 0 1 0;
#X restore 438 129 pd format;
#X connect 0 0 2 0;
#X connect 1 0 4 0;
#X connect 2 0 3 0;
#X connect 4 0 0 0;
#X connect 5 0 9 0;
#X connect 6 0 3 0;
#X connect 7 0 8 0;
#X connect 8 0 3 0;
#X connect 9 0 6 0;
#X connect 10 0 9 0;
#X connect 11 0 32 0;
#X connect 12 0 43 0;
#X connect 13 0 32 0;
#X connect 14 0 32 0;
#X connect 15 0 13 0;
#X connect 16 0 15 0;
#X connect 17 0 36 0;
#X connect 18 0 41 0;
#X connect 19 0 36 0;
#X connect 20 0 36 0;
#X connect 21 0 19 0;
#X connect 22 0 21 0;
#X connect 23 0 40 0;
#X connect 24 0 42 0;
#X connect 25 0 40 0;
#X connect 26 0 40 0;
#X connect 27 0 25 0;
#X connect 28 0 27 0;
#X connect 29 0 12 0;
#X connect 30 0 15 0;
#X connect 31 0 14 0;
#X connect 33 0 18 0;
#X connect 34 0 21 0;
#X connect 35 0 20 0;
#X connect 37 0 24 0;
#X connect 38 0 27 0;
#X connect 39 0 26 0;
#X connect 41 0 17 0;
#X connect 42 0 23 0;
#X connect 43 0 11 0;
#X restore 80 252 pd GUI;
#X connect 1 0 11 0;
#X connect 1 1 11 1;
#X connect 9 0 11 2;
#X connect 11 0 18 0;
#X connect 12 0 13 0;
#X connect 14 0 11 3;
#X connect 15 0 11 4;
#X connect 16 0 11 5;
#X connect 17 0 11 6;
#X coords 0 1 100 -1 250 224 2 250 150;
