#N canvas 694 226 459 322 12;
#X obj 102 225 outlet~;
#X obj 102 87 inlet~;
#X obj 167 87 inlet~;
#X obj 232 87 inlet~;
#X obj 102 159 bob~, f 19;
#X connect 1 0 4 0;
#X connect 1 1 4 0;
#X connect 2 0 4 1;
#X connect 3 0 4 2;
#X connect 4 0 0 0;
