#N canvas 300 95 617 520 12;
#X obj 89 35 inlet~;
#X obj 89 453 outlet~;
#N canvas 243 43 499 411 preset 0;
#X obj 125 121 else/sender 1 \\\$0-presets;
#X msg 125 86 name \$1;
#X obj 90 171 else/receiver;
#X obj 123 220 route list;
#N canvas 468 182 491 352 id-name-init 0;
#X obj 165 113 + 1;
#X obj 257 100 else/dollsym 1;
#X obj 141 80 value;
#X obj 141 252 outlet;
#X obj 141 51 else/loadbanger 2;
#X obj 141 201 else/dollsym 1;
#X obj 257 76 symbol chorus-id_\\\$0;
#X obj 141 166 makefilename \\\$0-chorus-%d;
#X connect 0 0 2 0;
#X connect 1 0 2 1;
#X connect 2 0 0 0;
#X connect 2 0 7 0;
#X connect 4 0 2 0;
#X connect 4 1 6 0;
#X connect 5 0 3 0;
#X connect 6 0 1 0;
#X connect 7 0 5 0;
#X restore 90 39 pd id-name-init;
#X obj 123 257 else/dispatch \$0-set-rate \$0-set-depth \$0-set-wet, f 25;
#X obj 90 311 else/var \$0-rate \$0-depth \$0-wet;
#X connect 1 0 0 0;
#X connect 2 0 3 0;
#X connect 2 0 6 0;
#X connect 3 0 5 0;
#X connect 4 0 1 0;
#X connect 4 0 2 0;
#X restore 471 224 pd preset;
#N canvas 171 120 601 317 init-savestate 0;
#X obj 52 43 loadbang;
#X obj 52 222 else/dispatch \$0-set-rate \$0-set-depth \$0-set-wet, f 50;
#X obj 77 95 savestate;
#X obj 52 186 list;
#X obj 77 128 list trim;
#X obj 77 158 route list;
#X obj 169 49 else/var \$0-rate \$0-depth \$0-wet, f 49;
#X connect 0 0 3 0;
#X connect 2 0 4 0;
#X connect 2 1 6 0;
#X connect 3 0 1 0;
#X connect 4 0 5 0;
#X connect 5 0 3 1;
#X connect 6 0 2 0;
#X restore 443 191 pd init-savestate;
#X text 201 129 IN;
#X obj 172 351 r \$0-rate;
#X obj 255 351 r \$0-depth;
#X obj 338 351 r \$0-wet;
#N canvas 227 82 394 451 (subpatch) 0;
#X obj 112 112 cnv 15 175 135 empty empty empty 20 12 0 14 #dbdbdb #373737 0;
#X obj 121 187 else/knob 41 0.1 5 4 0.1 \$0-rate \$0-set-rate #dfdfdf #bbbbbb #000000 0 0 0 0 1 320 0 0 0.1 empty empty 0 0 0 0 0 0 0 0;
#X obj 232 187 else/knob 41 0 1 0 0 \$0-wet \$0-set-wet #9f9f9f #afafaf black 0 0 0 0 1 320 0 0 0 empty empty 0 0 0 0 0 0 0 0;
#X text 225 168 Dry/Wet;
#X text 126 168 Rate;
#X obj 171 187 else/knob 41 0 25 2 0 \$0-depth \$0-set-depth #dfdfdf #afafaf black 0 0 0 0 1 320 0 0 0 empty empty 0 0 0 0 0 0 0 0;
#X text 174 168 Depth;
#X obj 136 121 else/note 118 24 Inter empty 5 54 54 54 0 187 187 187 1 1 CHORUS;
#X coords 0 1 100 -1 177 137 1 111 111;
#X restore 207 149 graph;
#N canvas 210 278 359 294 route 0;
#X obj 112 41 inlet;
#X obj 112 199 s \$0-set-rate;
#X obj 158 171 s \$0-set-depth;
#X obj 203 140 s \$0-set-wet;
#X obj 112 102 route rate depth wet;
#X connect 0 0 4 0;
#X connect 4 0 1 0;
#X connect 4 1 2 0;
#X connect 4 2 3 0;
#X restore 128 71 pd route;
#X obj 89 391 else/chorus~, f 36;
#N canvas 859 259 256 289 MIDI-learn 0;
#N canvas 242 379 577 472 rate-knob 0;
#X msg 114 218 forget;
#X obj 240 221 savestate;
#X obj 300 268 list;
#X obj 240 326 else/insert teach;
#X obj 96 270 else/midi.learn 1;
#A saved;
#X obj 96 366 else/rescale -exp 4 0.1 5;
#X obj 94 34 r \$0-rate-learn;
#X msg 113 64 MIDI-learn for rate knob activated;
#X obj 113 91 print [chorus.m~]:;
#X obj 127 189 print [chorus.m~]:;
#X obj 114 130 r \$0-rate-forget;
#X msg 127 164 MIDI-forget for rate knob;
#X obj 325 243 list prepend ratelearn;
#X obj 240 297 else/route2 ratelearn;
#X obj 96 405 s \$0-set-rate;
#X connect 0 0 4 0;
#X connect 1 0 13 0;
#X connect 1 1 2 0;
#X connect 2 0 1 0;
#X connect 3 0 4 0;
#X connect 4 0 5 0;
#X connect 4 1 12 0;
#X connect 5 0 14 0;
#X connect 6 0 7 0;
#X connect 6 0 4 0;
#X connect 7 0 8 0;
#X connect 10 0 0 0;
#X connect 10 0 11 0;
#X connect 11 0 9 0;
#X connect 12 0 2 1;
#X connect 13 0 3 0;
#X restore 52 67 pd rate-knob;
#N canvas 242 379 577 472 depth-knob 0;
#X msg 114 218 forget;
#X obj 240 221 savestate;
#X obj 300 268 list;
#X obj 240 326 else/insert teach;
#X obj 96 270 else/midi.learn 1;
#A saved;
#X obj 113 91 print [chorus.m~]:;
#X obj 127 189 print [chorus.m~]:;
#X msg 113 64 MIDI-learn for depth knob activated;
#X obj 94 34 r \$0-depth-learn;
#X obj 114 130 r \$0-depth-forget;
#X msg 127 164 MIDI-forget for depth knob;
#X obj 325 243 list prepend depthlearn;
#X obj 240 297 else/route2 depthlearn;
#X obj 96 405 s \$0-set-depth;
#X obj 96 366 else/rescale -exp 2 0 25;
#X connect 0 0 4 0;
#X connect 1 0 12 0;
#X connect 1 1 2 0;
#X connect 2 0 1 0;
#X connect 3 0 4 0;
#X connect 4 0 14 0;
#X connect 4 1 11 0;
#X connect 7 0 5 0;
#X connect 8 0 7 0;
#X connect 8 0 4 0;
#X connect 9 0 0 0;
#X connect 9 0 10 0;
#X connect 10 0 6 0;
#X connect 11 0 2 1;
#X connect 12 0 3 0;
#X connect 14 0 13 0;
#X restore 52 90 pd depth-knob;
#N canvas 242 379 577 472 wet-knob 0;
#X msg 114 218 forget;
#X obj 240 221 savestate;
#X obj 300 268 list;
#X obj 240 326 else/insert teach;
#X obj 96 270 else/midi.learn 1;
#A saved;
#X obj 113 91 print [chorus.m~]:;
#X obj 127 189 print [chorus.m~]:;
#X obj 114 130 r \$0-rate-forget;
#X obj 94 34 r \$0-wet-learn;
#X msg 113 64 MIDI-learn for wet knob activated;
#X msg 127 164 MIDI-forget for wet knob;
#X obj 325 243 list prepend wetlearn;
#X obj 240 297 else/route2 wetlearn;
#X obj 96 405 s \$0-set-wet;
#X obj 96 366 else/rescale 0 1;
#X connect 0 0 4 0;
#X connect 1 0 12 0;
#X connect 1 1 2 0;
#X connect 2 0 1 0;
#X connect 3 0 4 0;
#X connect 4 0 14 0;
#X connect 4 1 11 0;
#X connect 7 0 0 0;
#X connect 7 0 10 0;
#X connect 8 0 9 0;
#X connect 8 0 4 0;
#X connect 9 0 5 0;
#X connect 10 0 6 0;
#X connect 11 0 2 1;
#X connect 12 0 3 0;
#X connect 14 0 13 0;
#X restore 52 114 pd wet-knob;
#X restore 457 256 pd MIDI-learn;
#X connect 0 0 10 0;
#X connect 0 1 9 0;
#X connect 5 0 10 1;
#X connect 6 0 10 2;
#X connect 7 0 10 3;
#X connect 10 0 1 0;
#X coords 0 1 100 -1 196 180 2 200 125;
