#N canvas 648 69 476 528 12;
#X text 249 318 see -->;
#X obj 309 318 about.MERDA;
#N canvas 120 97 527 359 messages 0;
#X obj 265 218 outlet;
#X obj 111 67 else/knob 41 0 1 2 0 empty empty #dfdfdf #bbbbbb #000000 1 0 0 0 1 320 0 0 0 empty empty 0 0 0 0 0 0 0 0;
#X obj 188 67 else/knob 41 0 1 2 0 empty empty #dfdfdf #afafaf black 1 0 0 0 1 320 0 0 0 empty empty 0 0 0 0 0 0 0 0;
#X floatatom 188 118 6 0 0 0 - - - 0;
#X floatatom 111 118 6 0 0 0 - - - 0;
#X msg 188 151 dec \$1;
#X obj 264 67 else/knob 40 -1 1 0 0 empty empty #bbbbbb #7c7c7c black 1 0 0 0 1 320 0 0 0 empty empty 0 0 0 0 0 0 0 0;
#X obj 374 67 else/knob 40 -1 1 0 0 empty empty #bbbbbb #7c7c7c black 1 0 0 0 1 320 0 0 0 empty empty 0 0 0 0 0 0 0 0;
#X floatatom 264 118 7 0 0 0 - - - 0;
#X floatatom 374 118 7 0 0 0 - - - 0;
#X msg 374 151 dec_att \$1;
#X msg 264 151 crush_att \$1;
#X msg 111 151 crush \$1;
#X connect 1 0 4 0;
#X connect 2 0 3 0;
#X connect 3 0 5 0;
#X connect 4 0 12 0;
#X connect 5 0 0 0;
#X connect 6 0 8 0;
#X connect 7 0 9 0;
#X connect 8 0 11 0;
#X connect 9 0 10 0;
#X connect 10 0 0 0;
#X connect 11 0 0 0;
#X connect 12 0 0 0;
#X restore 72 82 pd messages;
#X obj 38 44 osc~ 440;
#X text 256 187 This is just a wrapper around [crusher~] from ELSE \, check it out., f 22;
#X obj 38 123 else/crusher.m~;
#A saved 0 0;
#X obj 38 380 else/out~;
#X obj 311 266 else/crusher~;
#X connect 2 0 5 0;
#X connect 3 0 5 0;
#X connect 5 0 6 0;
