#N canvas 379 67 518 639 12;
#X declare -path else;
#N canvas 227 82 380 349 (subpatch) 0;
#X obj 112 112 cnv 15 142 120 empty empty empty 20 12 0 14 #dbdbdb #373737 0;
#X obj 123 121 note 121 24 Inter empty 5 54 54 54 0 187 187 187 1 1 CRUSHER;
#X obj 125 177 else/knob 41 0 1 2 0 \$0-bit \$0-set-bit #dfdfdf #bbbbbb #000000 0 0 0 0 1 320 0 0 0;
#X obj 191 177 else/knob 41 0 1 2 0 \$0-dec \$0-set-dec #dfdfdf #afafaf black 0 0 0 0 1 320 0 0 0;
#X text 183 158 decimate;
#X text 124 158 crush;
#X coords 0 1 100 -1 144 122 1 111 111;
#X restore 208 150 graph;
#X obj 110 38 inlet~;
#X obj 108 533 outlet~;
#N canvas 243 43 499 411 preset 0;
#X obj 125 121 else/sender 1 \\\$0-presets;
#X msg 125 86 name \$1;
#X obj 90 171 else/receiver;
#X obj 123 220 route list;
#N canvas 596 76 491 352 id-name-init 0;
#X obj 165 113 + 1;
#X obj 257 100 else/dollsym 1;
#X obj 141 80 value;
#X obj 141 252 outlet;
#X obj 141 51 else/loadbanger 2;
#X obj 141 201 else/dollsym 1;
#X obj 257 76 symbol crusher-id_\\\$0;
#X obj 141 166 else/format symbol \\\$0-crusher-%d;
#X connect 0 0 2 0;
#X connect 1 0 2 1;
#X connect 2 0 0 0;
#X connect 2 0 7 0;
#X connect 4 0 2 0;
#X connect 4 1 6 0;
#X connect 5 0 3 0;
#X connect 6 0 1 0;
#X connect 7 0 5 0;
#X restore 90 39 pd id-name-init;
#X obj 123 257 else/dispatch \$0-set-bit \$0-set-dec;
#X obj 90 311 else/var \$0-bit \$0-dec;
#X connect 1 0 0 0;
#X connect 2 0 3 0;
#X connect 2 0 6 0;
#X connect 3 0 5 0;
#X connect 4 0 1 0;
#X connect 4 0 2 0;
#X restore 242 349 pd preset;
#N canvas 171 120 448 313 init-savestate 0;
#X obj 74 87 savestate;
#X obj 214 167 declare -path else;
#X obj 49 125 list;
#X obj 49 43 loadbang;
#X obj 134 119 else/var \$0-bit \$0-dec;
#X obj 49 222 else/dispatch \$0-set-bit \$0-set-dec;
#X obj 49 171 else/default 0 0;
#X connect 0 0 2 1;
#X connect 0 1 4 0;
#X connect 2 0 6 0;
#X connect 3 0 2 0;
#X connect 4 0 0 0;
#X connect 6 0 5 0;
#X restore 184 316 pd init-savestate;
#N canvas 200 115 764 360 GUI 0;
#X restore 182 349 pd GUI;
#X text 201 129 IN;
#N canvas 141 120 323 246 route 0;
#X obj 89 41 inlet;
#X obj 89 75 route bit dec;
#X obj 88 158 s \$0-set-bit;
#X obj 133 114 s \$0-set-dec;
#X connect 0 0 1 0;
#X connect 1 0 2 0;
#X connect 1 1 3 0;
#X restore 149 75 pd route;
#X obj 108 471 crusher~, f 18;
#X obj 172 427 r \$0-bit;
#X obj 266 422 r \$0-dec;
#X connect 1 0 8 0;
#X connect 1 1 7 0;
#X connect 8 0 2 0;
#X connect 9 0 8 1;
#X connect 10 0 8 2;
#X coords 0 1 100 -1 162 160 2 200 125;
