#N canvas 502 50 678 680 12;
#N canvas 227 82 476 432 (subpatch) 0;
#X obj 112 112 cnv 15 213 213 empty empty empty 20 12 0 14 #dbdbdb #373737 0;
#X obj 197 176 else/knob 41 100 5000 2 100 \$0-cutoff \$0-set-cutoff #dfdfdf #afafaf black 0 0 0 0 1 320 0 0 100 empty empty 0 8 0 0 0 0 0 0;
#X obj 275 177 bng 23 250 50 0 \$0-clear \$0-set-clear empty 0 -10 0 12 #dfdfdf #000000 #000000;
#X obj 130 274 else/knob 41 -2 2 0 0 \$0-fb \$0-set-fb #000000 #afafaf #ffffff 0 0 0 0 1 320 0 0 0 empty empty 0 8 0 0 0 0 0 0;
#X text 194 157 Cutoff;
#X obj 127 176 else/knob 41 10 5000 4 100 \$0-time \$0-set-time #000000 #dfdfdf #ffffff 0 0 0 0 1 320 0 0 10 empty empty 0 8 0 0 0 0 0 0;
#X text 132 157 Time;
#X obj 197 274 else/knob 41 0 1 0 0 \$0-reson \$0-set-reson #dfdfdf #afafaf black 0 0 0 0 1 320 0 0 0 empty empty 0 0 0 0 0 0 0 0;
#X obj 275 225 tgl 23 0 \$0-freeze \$0-set-freeze empty 17 7 0 10 #dfdfdf #000000 #000000 0 1;
#X obj 265 274 else/knob 41 0 1 0 0.5 \$0-wet \$0-set-wet #9f9f9f #afafaf black 0 0 0 0 1 320 0 0 0 empty empty 0 8 0 0 0 0 0 0;
#X text 259 254 Dry/Wet;
#X text 263 206 Freeze;
#X text 266 157 Clear;
#X text 198 254 Reson;
#X text 120 254 FeedBack;
#X obj 167 116 else/note 101 24 Inter empty 5 54 54 54 0 187 187 187 1 1 DELAY;
#X obj 117 227 else/note 64 12 Menlo \$0-time-label 0 0 0 0 0 255 255 255 0 1 125.7 ms;
#X obj 192 227 else/note 64 12 Menlo \$0-cutoff-label 0 0 0 175 0 255 255 255 0 1 452.7 Hz;
#X coords 0 1 100 -1 215 215 1 111 111;
#X restore 208 153 graph;
#X obj 49 35 inlet~;
#X obj 49 551 outlet~;
#N canvas 243 43 480 419 preset 0;
#X obj 125 121 else/sender 1 \\\$0-presets;
#X msg 125 86 name \$1;
#X obj 90 171 else/receiver;
#X obj 123 220 route list;
#N canvas 596 76 491 352 id-name-init 0;
#X obj 165 113 + 1;
#X obj 257 100 else/dollsym 1;
#X obj 141 80 value;
#X obj 141 252 outlet;
#X obj 141 51 else/loadbanger 2;
#X obj 141 201 else/dollsym 1;
#X obj 257 76 symbol del-id_\\\$0;
#X obj 141 166 makefilename \\\$0-del-%d;
#X connect 0 0 2 0;
#X connect 1 0 2 1;
#X connect 2 0 0 0;
#X connect 2 0 7 0;
#X connect 4 0 2 0;
#X connect 4 1 6 0;
#X connect 5 0 3 0;
#X connect 6 0 1 0;
#X connect 7 0 5 0;
#X restore 90 39 pd id-name-init;
#X obj 90 311 else/var \$0-time \$0-fb \$0-cutoff \$0-reson \$0-wet;
#X obj 123 257 else/dispatch \$0-set-time \$0-set-fb \$0-set-cutoff \$0-set-reson \$0-set-wet, f 38;
#X connect 1 0 0 0;
#X connect 2 0 3 0;
#X connect 2 0 5 0;
#X connect 3 0 6 0;
#X connect 4 0 1 0;
#X connect 4 0 2 0;
#X restore 369 458 pd preset;
#N canvas 443 270 508 416 init-savestate 0;
#X obj 74 87 savestate;
#X obj 49 195 list;
#X obj 49 43 loadbang;
#X obj 134 119 else/var \$0-time \$0-fb \$0-cutoff \$0-reson \$0-wet;
#X obj 49 241 else/default 100 0 100 0 0.5;
#X obj 49 292 else/dispatch \$0-set-time \$0-set-fb \$0-set-cutoff \$0-set-reson \$0-set-wet, f 37;
#X obj 74 141 list trim;
#X obj 74 165 route list;
#X connect 0 0 6 0;
#X connect 0 1 3 0;
#X connect 1 0 4 0;
#X connect 2 0 1 0;
#X connect 3 0 0 0;
#X connect 4 0 5 0;
#X connect 6 0 7 0;
#X connect 7 0 1 1;
#X restore 311 425 pd init-savestate;
#N canvas 475 192 856 623 GUI 0;
#X msg 456 420 reson \$1;
#X obj 188 383 r \$0-wet;
#X msg 188 420 wet \$1;
#X obj 267 539 s \$0-del;
#X msg 267 420 cutoff \$1;
#X obj 267 383 r \$0-cutoff;
#X obj 365 383 r \$0-clear;
#X msg 365 420 clear;
#X obj 456 383 r \$0-reson;
#X obj 548 383 r \$0-freeze;
#X msg 548 420 freeze \$1;
#X obj 267 509 else/insert all;
#X obj 67 86 else/limit 100;
#X msg 196 156 color 0 0 \$1;
#X obj 196 124 * 175;
#X obj 209 97 loadbang;
#X obj 67 54 r \$0-time;
#X msg 67 156 set \$1 ms;
#X obj 196 63 r \$0-time-active;
#X obj 222 192 r \$0-time-typing;
#X msg 222 223 set \$1| ms;
#X obj 197 273 s \$0-time-label;
#X obj 67 120 else/format %.4g;
#X obj 437 100 else/limit 100;
#X msg 566 170 color 0 0 \$1;
#X obj 566 138 * 175;
#X obj 579 111 loadbang;
#X obj 437 134 else/format %.4g;
#X obj 437 68 r \$0-cutoff;
#X obj 566 77 r \$0-cutoff-active;
#X msg 437 170 set \$1 Hz;
#X msg 592 237 set \$1| Hz;
#X obj 567 287 s \$0-cutoff-label;
#X obj 592 206 r \$0-cutoff-typing;
#X connect 0 0 11 0;
#X connect 1 0 2 0;
#X connect 2 0 11 0;
#X connect 4 0 11 0;
#X connect 5 0 4 0;
#X connect 6 0 7 0;
#X connect 7 0 11 0;
#X connect 8 0 0 0;
#X connect 9 0 10 0;
#X connect 10 0 11 0;
#X connect 11 0 3 0;
#X connect 12 0 22 0;
#X connect 13 0 21 0;
#X connect 14 0 13 0;
#X connect 15 0 14 0;
#X connect 16 0 12 0;
#X connect 17 0 21 0;
#X connect 18 0 14 0;
#X connect 19 0 20 0;
#X connect 20 0 21 0;
#X connect 22 0 17 0;
#X connect 23 0 27 0;
#X connect 24 0 32 0;
#X connect 25 0 24 0;
#X connect 26 0 25 0;
#X connect 27 0 30 0;
#X connect 28 0 23 0;
#X connect 29 0 25 0;
#X connect 30 0 32 0;
#X connect 31 0 32 0;
#X connect 33 0 31 0;
#X restore 309 458 pd GUI;
#X obj 78 170 else/nchs~;
#X obj 78 194 change;
#X msg 78 218 resize \$1;
#X obj 49 495 clone -d delay.unit 1, f 22;
#X obj 99 404 r \$0-del;
#X obj 124 438 r \$0-time;
#X msg 124 465 all \$1;
#X msg 200 465 all \$1;
#X text 201 129 IN;
#X obj 200 437 r \$0-fb;
#N canvas 262 263 430 344 route 0;
#X obj 104 266 s \$0-set-time;
#X obj 123 238 s \$0-set-cutoff;
#X obj 200 126 s \$0-set-freeze;
#X obj 140 207 s \$0-set-clear;
#X obj 180 153 s \$0-set-reson;
#X obj 162 180 s \$0-set-fb;
#X obj 234 102 s \$0-set-wet;
#X obj 87 20 inlet;
#X obj 87 54 route time cutoff clear feedback reson freeze wet, f 25;
#X connect 7 0 8 0;
#X connect 8 0 0 0;
#X connect 8 1 1 0;
#X connect 8 2 3 0;
#X connect 8 3 5 0;
#X connect 8 4 4 0;
#X connect 8 5 2 0;
#X connect 8 6 6 0;
#X restore 88 74 pd route;
#N canvas 960 162 253 250 MIDI-learn 0;
#N canvas 880 282 577 472 time-knob 0;
#X msg 114 218 forget;
#X obj 240 221 savestate;
#X obj 300 268 list;
#X obj 240 326 else/insert teach;
#X obj 96 270 else/midi.learn 1;
#A saved;
#X obj 113 91 print [delay.m~]:;
#X obj 127 189 print [delay.m~]:;
#X obj 94 34 r \$0-time-learn;
#X obj 114 130 r \$0-time-forget;
#X msg 127 164 MIDI-forget for time knob;
#X msg 113 64 MIDI-learn for time knob activated;
#X obj 325 243 list prepend time-learn;
#X obj 240 297 else/route2 time-learn;
#X obj 96 366 else/rescale -exp 4 10 5000;
#X obj 96 405 s \$0-set-time;
#X connect 0 0 4 0;
#X connect 1 0 12 0;
#X connect 1 1 2 0;
#X connect 2 0 1 0;
#X connect 3 0 4 0;
#X connect 4 0 13 0;
#X connect 4 1 11 0;
#X connect 7 0 10 0;
#X connect 7 0 4 0;
#X connect 8 0 0 0;
#X connect 8 0 9 0;
#X connect 9 0 6 0;
#X connect 10 0 5 0;
#X connect 11 0 2 1;
#X connect 12 0 3 0;
#X connect 13 0 14 0;
#X restore 71 47 pd time-knob;
#N canvas 809 277 577 472 cutoff-knob 0;
#X msg 114 218 forget;
#X obj 240 221 savestate;
#X obj 300 268 list;
#X obj 240 326 else/insert teach;
#X obj 96 270 else/midi.learn 1;
#A saved;
#X obj 113 91 print [delay.m~]:;
#X obj 127 189 print [delay.m~]:;
#X obj 94 34 r \$0-cutoff-learn;
#X msg 113 64 MIDI-learn for cutoff knob activated;
#X obj 114 131 r \$0-cutoff-forget;
#X msg 127 164 MIDI-forget for cutoff knob;
#X obj 325 243 list prepend cutoff-learn;
#X obj 240 297 else/route2 cutoff-learn;
#X obj 96 405 s \$0-set-cutoff;
#X obj 96 366 else/rescale -exp 2 100 5000;
#X connect 0 0 4 0;
#X connect 1 0 12 0;
#X connect 1 1 2 0;
#X connect 2 0 1 0;
#X connect 3 0 4 0;
#X connect 4 0 14 0;
#X connect 4 1 11 0;
#X connect 7 0 8 0;
#X connect 7 0 4 0;
#X connect 8 0 5 0;
#X connect 9 0 0 0;
#X connect 9 0 10 0;
#X connect 10 0 6 0;
#X connect 11 0 2 1;
#X connect 12 0 3 0;
#X connect 14 0 13 0;
#X restore 71 75 pd cutoff-knob;
#N canvas 880 282 577 472 feedback-knob 0;
#X msg 114 218 forget;
#X obj 240 221 savestate;
#X obj 300 268 list;
#X obj 240 326 else/insert teach;
#X obj 96 270 else/midi.learn 1;
#A saved;
#X obj 113 91 print [delay.m~]:;
#X obj 127 189 print [delay.m~]:;
#X obj 94 34 r \$0-fb-learn;
#X msg 113 64 MIDI-learn for feedback knob activated;
#X obj 114 130 r \$0-fb-forget;
#X msg 127 164 MIDI-forget for feedback knob;
#X obj 325 243 list prepend fb-learn;
#X obj 240 297 else/route2 fb-learn;
#X obj 96 405 s \$0-set-fb;
#X obj 96 366 else/rescale -2 2;
#X connect 0 0 4 0;
#X connect 1 0 12 0;
#X connect 1 1 2 0;
#X connect 2 0 1 0;
#X connect 3 0 4 0;
#X connect 4 0 14 0;
#X connect 4 1 11 0;
#X connect 7 0 8 0;
#X connect 7 0 4 0;
#X connect 8 0 5 0;
#X connect 9 0 0 0;
#X connect 9 0 10 0;
#X connect 10 0 6 0;
#X connect 11 0 2 1;
#X connect 12 0 3 0;
#X connect 14 0 13 0;
#X restore 71 102 pd feedback-knob;
#N canvas 880 282 577 472 reson-knob 0;
#X msg 114 218 forget;
#X obj 240 221 savestate;
#X obj 300 268 list;
#X obj 240 326 else/insert teach;
#X obj 96 270 else/midi.learn 1;
#A saved;
#X obj 113 91 print [delay.m~]:;
#X obj 127 189 print [delay.m~]:;
#X obj 94 34 r \$0-reson-learn;
#X msg 113 64 MIDI-learn for reson knob activated;
#X obj 114 130 r \$0-reson-forget;
#X msg 127 164 MIDI-forget for reson knob;
#X obj 325 243 list prepend reson-learn;
#X obj 240 297 else/route2 reson-learn;
#X obj 96 405 s \$0-set-reson;
#X obj 96 366 else/rescale 0 1;
#X connect 0 0 4 0;
#X connect 1 0 12 0;
#X connect 1 1 2 0;
#X connect 2 0 1 0;
#X connect 3 0 4 0;
#X connect 4 0 14 0;
#X connect 4 1 11 0;
#X connect 7 0 8 0;
#X connect 7 0 4 0;
#X connect 8 0 5 0;
#X connect 9 0 0 0;
#X connect 9 0 10 0;
#X connect 10 0 6 0;
#X connect 11 0 2 1;
#X connect 12 0 3 0;
#X connect 14 0 13 0;
#X restore 71 132 pd reson-knob;
#N canvas 880 282 577 472 wet-knob 0;
#X msg 114 218 forget;
#X obj 240 221 savestate;
#X obj 300 268 list;
#X obj 240 326 else/insert teach;
#X obj 96 270 else/midi.learn 1;
#A saved;
#X obj 113 91 print [delay.m~]:;
#X obj 127 189 print [delay.m~]:;
#X obj 96 366 else/rescale 0 1;
#X obj 94 34 r \$0-wet-learn;
#X msg 113 64 MIDI-learn for wet knob activated;
#X obj 114 130 r \$0-wet-forget;
#X msg 127 164 MIDI-forget for wet knob;
#X obj 325 243 list prepend wet-learn;
#X obj 240 297 else/route2 wet-learn;
#X obj 96 405 s \$0-set-wet;
#X connect 0 0 4 0;
#X connect 1 0 13 0;
#X connect 1 1 2 0;
#X connect 2 0 1 0;
#X connect 3 0 4 0;
#X connect 4 0 7 0;
#X connect 4 1 12 0;
#X connect 7 0 14 0;
#X connect 8 0 9 0;
#X connect 8 0 4 0;
#X connect 9 0 5 0;
#X connect 10 0 0 0;
#X connect 10 0 11 0;
#X connect 11 0 6 0;
#X connect 12 0 2 1;
#X connect 13 0 3 0;
#X restore 71 159 pd wet-knob;
#X restore 328 489 pd MIDI-learn;
#X connect 1 0 6 0;
#X connect 1 0 9 0;
#X connect 1 1 16 0;
#X connect 6 0 7 0;
#X connect 7 0 8 0;
#X connect 8 0 9 0;
#X connect 9 0 2 0;
#X connect 10 0 9 0;
#X connect 11 0 12 0;
#X connect 12 0 9 1;
#X connect 13 0 9 2;
#X connect 15 0 13 0;
#X coords 0 1 100 -1 234 254 2 200 125;
