#N canvas 577 85 516 353 12;
#X obj 28 35 inlet~;
#X obj 28 303 outlet~;
#N canvas 243 43 424 397 preset 0;
#X msg 125 86 name \$1;
#X obj 90 171 else/receiver;
#X obj 123 220 route list;
#N canvas 468 182 491 352 id-name-init 0;
#X obj 165 113 + 1;
#X obj 257 100 else/dollsym 1;
#X obj 141 80 value;
#X obj 141 252 outlet;
#X obj 141 51 else/loadbanger 2;
#X obj 141 201 else/dollsym 1;
#X obj 257 76 symbol drive-id_\\\$0;
#X obj 141 166 makefilename \\\$0-drive-%d;
#X connect 0 0 2 0;
#X connect 1 0 2 1;
#X connect 2 0 0 0;
#X connect 2 0 7 0;
#X connect 4 0 2 0;
#X connect 4 1 6 0;
#X connect 5 0 3 0;
#X connect 6 0 1 0;
#X connect 7 0 5 0;
#X restore 90 39 pd id-name-init;
#X obj 90 311 else/var \$0-drive \$0-att;
#X obj 123 257 else/dispatch \$0-set-drive \$0-set-att;
#X obj 125 121 else/sender 1 \$0-presets;
#X connect 0 0 6 0;
#X connect 1 0 2 0;
#X connect 1 0 4 0;
#X connect 2 0 5 0;
#X connect 3 0 0 0;
#X connect 3 0 1 0;
#X restore 418 148 pd preset;
#N canvas 171 120 601 317 init-savestate 0;
#X obj 128 50 savestate;
#X obj 49 125 list;
#X obj 49 43 loadbang;
#X obj 128 109 list trim;
#X obj 128 133 route list;
#X obj 49 222 else/dispatch \$0-set-drive \$0-set-att \$0-set-GUI;
#X obj 188 82 else/var \$0-drive \$0-att \$0-GUI;
#X obj 49 171 else/default -0.5 0 1;
#X connect 0 0 3 0;
#X connect 0 1 6 0;
#X connect 1 0 7 0;
#X connect 2 0 1 0;
#X connect 3 0 4 0;
#X connect 4 0 1 1;
#X connect 6 0 0 0;
#X connect 7 0 5 0;
#X restore 360 115 pd init-savestate;
#N canvas 495 272 757 554 GUI 0;
#N canvas 150 114 834 520 collapse 0;
#X obj 28 150 r \$0-uncollapse;
#X obj 290 420 r \$0-detatch;
#X obj 232 153 else/canvas.setname \$0-m 2;
#X obj 290 305 r \$0-set-GUI;
#X obj 290 386 s \$0-uncollapse;
#X obj 313 359 s \$0-collapse;
#X obj 290 331 sel 1 0;
#X obj 28 16 r \$0-collapse;
#X obj 290 447 message \; pd-\$0-drive vis 1;
#X obj 28 184 else/message \; \$0-button readonly 0 \, transparent 2 \; pd-\$0-drive donecanvasdialog 1 1 1 0 0 1 1 117 109 15 15 \, vis 0 \; \$0-cnv color #bbbbbb #000000 #000000 \; \$0-m goprect 200 75 130 140 \, dirty 0 \; \$0-GUI 1;
#X obj 28 45 else/message \; \$0-button readonly 1 \, transparent 3 \; pd-\$0-drive donecanvasdialog 1 1 0 0 0 1 1 117 109 15 15 \; \$0-cnv color #dbdbdb #000000 #dbdbdb \; \$0-m goprect 205 250 130 44 \, dirty 0 \; \$0-GUI 0;
#X obj 505 68 r \$0-detatch-hover;
#X obj 580 434 s \$0-label-collapsed;
#X obj 557 300 sel 0 1;
#X msg 580 333 label ⤢ \, label_font 0 48 \, label_pos 34 12, f 25;
#X obj 487 298 loadbang;
#X obj 525 97 else/canvas.edit 3;
#X obj 557 272 change;
#X obj 525 183 sel 1;
#X obj 505 210 f;
#X obj 525 156 t f f, f 10;
#X obj 525 126 == 0;
#X obj 505 236 spigot;
#X msg 557 382 label DRIVE \, label_font 0 24 \, label_pos 10 15, f 29;
#X connect 0 0 9 0;
#X connect 1 0 8 0;
#X connect 3 0 6 0;
#X connect 6 0 4 0;
#X connect 6 1 5 0;
#X connect 7 0 10 0;
#X connect 11 0 19 0;
#X connect 13 0 23 0;
#X connect 13 1 14 0;
#X connect 14 0 12 0;
#X connect 15 0 23 0;
#X connect 16 0 21 0;
#X connect 17 0 13 0;
#X connect 18 0 19 0;
#X connect 18 1 17 0;
#X connect 19 0 22 0;
#X connect 20 0 18 0;
#X connect 20 1 22 1;
#X connect 21 0 20 0;
#X connect 22 0 17 0;
#X connect 23 0 12 0;
#X restore 489 351 pd collapse;
#N canvas 288 229 806 564 att 0;
#X obj 52 122 sel 0 1;
#X msg 52 213 set;
#X obj 164 140 spigot;
#X msg 164 435 set \$1;
#X obj 164 403 else/format %.2f;
#X msg 295 423 set \$1|;
#X obj 52 55 else/hot;
#X obj 52 85 ||;
#X obj 65 183 loadbang;
#X obj 492 373 expr copysign(sqrt(abs($f1)) \, $f1);
#X obj 445 181 expr copysign(pow($f1 \, 2) \, $f1);
#X obj 164 211 expr copysign(pow($f1 \, 2) \, $f1);
#X msg 492 436 set \$1;
#X obj 468 330 else/nmess 1;
#X obj 549 305 b;
#X obj 52 23 r \$0-att-hover;
#X obj 121 53 r \$0-att-active;
#X obj 290 56 r \$0-att;
#X obj 185 179 v \$0-att;
#X obj 295 249 r \$0-att-typing;
#X obj 467 248 r \$0-att-enter;
#X obj 506 403 v \$0-att;
#X obj 492 463 s \$0-set-att;
#X obj 444 506 s \$0-real-att;
#X obj 164 476 s \$0-att#;
#X connect 0 0 1 0;
#X connect 0 1 18 0;
#X connect 1 0 24 0;
#X connect 2 0 11 0;
#X connect 3 0 24 0;
#X connect 4 0 3 0;
#X connect 5 0 24 0;
#X connect 6 0 7 0;
#X connect 6 1 7 1;
#X connect 7 0 0 0;
#X connect 7 0 2 1;
#X connect 8 0 1 0;
#X connect 9 0 12 0;
#X connect 9 0 21 0;
#X connect 10 0 23 0;
#X connect 11 0 4 0;
#X connect 12 0 22 0;
#X connect 13 0 9 0;
#X connect 13 0 4 0;
#X connect 13 0 23 0;
#X connect 14 0 13 1;
#X connect 15 0 6 0;
#X connect 16 0 6 1;
#X connect 17 0 2 0;
#X connect 17 0 10 0;
#X connect 18 0 11 0;
#X connect 19 0 5 0;
#X connect 19 0 14 0;
#X connect 20 0 13 0;
#X restore 503 390 pd att;
#X obj 225 248 else/limit 100;
#X obj 225 212 f;
#X obj 415 175 else/rescale -rlog -in 0.1 1000 -1 1;
#X obj 226 442 s \$0-drive-label;
#X obj 184 143 r \$0-drive;
#X obj 288 377 r \$0-drive-typing;
#X msg 225 375 set \$1;
#X msg 288 404 set \$1|;
#X obj 225 346 else/format %.2f;
#X obj 225 273 else/rescale -in -1 1 -log 0.1 1000, f 18;
#X obj 194 346 int;
#X obj 225 311 moses 100;
#X obj 415 138 r \$0-drive-enter;
#X obj 415 222 s \$0-set-drive;
#X obj 115 181 sel 0 1;
#X msg 115 344 set;
#X obj 115 106 else/hot;
#X obj 115 136 ||;
#X obj 126 306 loadbang;
#X obj 115 74 r \$0-drive-hover;
#X obj 184 104 r \$0-drive-active;
#X obj 138 217 v \$0-drive;
#X obj 184 183 spigot;
#X connect 2 0 11 0;
#X connect 3 0 2 0;
#X connect 4 0 15 0;
#X connect 6 0 24 0;
#X connect 7 0 9 0;
#X connect 8 0 5 0;
#X connect 9 0 5 0;
#X connect 10 0 8 0;
#X connect 11 0 13 0;
#X connect 12 0 8 0;
#X connect 13 0 10 0;
#X connect 13 1 12 0;
#X connect 14 0 4 0;
#X connect 16 0 17 0;
#X connect 16 1 23 0;
#X connect 17 0 5 0;
#X connect 18 0 19 0;
#X connect 18 1 19 1;
#X connect 19 0 16 0;
#X connect 19 0 24 1;
#X connect 20 0 17 0;
#X connect 21 0 18 0;
#X connect 22 0 18 1;
#X connect 23 0 2 0;
#X connect 24 0 3 0;
#X restore 358 148 pd GUI;
#X text 200 75 IN;
#N canvas 181 166 464 294 route 0;
#X obj 125 231 s \$0-set-drive;
#X obj 125 33 inlet;
#X obj 168 161 s \$0-set-att;
#X obj 125 195 else/rescale -in 0.1 1000 -rlog -1 1;
#X obj 125 68 route drive att gui;
#X obj 211 121 s \$0-set-GUI;
#X obj 211 96 != 0;
#X connect 1 0 4 0;
#X connect 3 0 0 0;
#X connect 4 0 3 0;
#X connect 4 1 2 0;
#X connect 4 2 6 0;
#X connect 6 0 5 0;
#X restore 38 112 pd route;
#X obj 102 35 inlet~;
#X text 312 75 CV;
#N canvas 658 359 374 433 set 0;
#X obj 169 169 r \$0-drive;
#X obj 131 17 inlet~;
#X obj 151 230 +~;
#X obj 131 169 *~;
#X obj 151 357 outlet~;
#X obj 169 198 else/f2s~;
#X obj 149 128 else/f2s~;
#X obj 151 268 else/rescale~ -log 0.1 1000, f 13;
#X obj 149 90 r \$0-real-att;
#X connect 0 0 5 0;
#X connect 1 0 3 0;
#X connect 2 0 7 0;
#X connect 3 0 2 0;
#X connect 5 0 2 1;
#X connect 6 0 3 1;
#X connect 7 0 4 0;
#X connect 8 0 6 0;
#X restore 102 152 pd set;
#X obj 310 257 cnv 10 17 15 empty empty ▲ 5 8 0 12 #bbbbbb #000000 0;
#X obj 310 271 cnv 10 17 15 empty empty ▼ 5 5 0 12 #bbbbbb #000000 0;
#X obj 309 256 else/button 19 31 #e0e0e0 #808080 2 1 2 0 0 \$0-uncollapse empty;
#N canvas 605 327 163 169 \$0-drive 0;
#N canvas 644 255 252 225 (subpatch) 0;
#X obj 51 51 cnv 15 115 107 empty empty empty 20 12 0 14 #dbdbdb #373737 0;
#X obj 60 92 else/knob 50 -1 1 0 -1 \$0-drive \$0-set-drive #000000 #404040 #ffffff 0 0 0 0 1 320 0 0 -0.5 empty empty 0 10 5 27 0 0 0 0 0 0;
#X obj 122 111 else/knob 35 -1 1 0 0 \$0-att \$0-set-att #bbbbbb #7c7c7c #000000 0 0 0 0 1 320 0 0 0 empty empty 0 8 0 0 0 0 0 0 0 0;
#X text 127 92 att;
#X obj 55 56 else/note 81 24 Inter empty 5 54 54 54 0 187 187 187 1 1 DRIVE;
#X obj 143 56 else/button 19 31 #e0e0e0 #808080 2 1 2 0 0 \$0-collapse \$0-button;
#X obj 144 57 cnv 10 17 15 empty \$0-cnv ▼ 5 8 0 12 #bbbbbb #000000 0;
#X obj 144 71 cnv 10 17 15 empty \$0-cnv ▲ 5 5 0 12 #bbbbbb #000000 0;
#X obj 122 146 else/note 35 10 Menlo \$0-att# 0 0 0 0 0 255 255 255 0 1;
#X obj 57 144 else/note 58 11 Menlo \$0-drive-label 0 0 0 0 0 255 255 255 0 1;
#X coords 0 1 100 -1 117 109 1 50 50;
#X restore 15 15 graph;
#X coords 0 0 1 1 117 109 1 15 15;
#X restore 207 95 pd \$0-drive;
#X obj 210 257 cnv 19 95 29 empty \$0-label-collapsed DRIVE 10 15 0 24 #bbbbbb #000000 0;
#X obj 209 256 else/button 97 31 #bbbbbb #bbbbbb 2 1 2 0 0 \$0-detatch \$0-uncollapse-set;
#X obj 26 229 else/drive~;
#N canvas 935 299 244 260 Learn 0;
#N canvas 357 34 761 770 drive 0;
#X msg 173 469 forget;
#X obj 40 532 else/midi.learn 1;
#A saved;
#X obj 40 600 t f b;
#X obj 40 112 else/format \$0-%s-learn, f 11;
#X obj 40 162 else/receiver;
#X obj 173 195 else/receiver;
#X msg 90 259 Learn for \$1 knob activated, f 9;
#X obj 90 207 symbol;
#X obj 205 345 symbol;
#X msg 205 378 Forget for \$1 knob;
#X obj 473 721 else/format \$0-set-%s;
#X obj 187 405 print [adsr.m~]:;
#X msg 442 311 learn;
#X msg 467 348 forget;
#X obj 432 403 else/receiver 1;
#X obj 564 401 else/route2 none;
#X msg 564 448 none;
#X obj 173 166 else/format \$0-%s-forget;
#X obj 189 121 else/sender -local sym;
#X obj 260 339 else/receiver -local sym, f 13;
#X obj 473 694 else/receiver -local sym;
#N canvas 268 234 610 478 savestate 0;
#X obj 235 409 outlet;
#X obj 101 283 route bang;
#X obj 339 213 else/format rcv-%s;
#X obj 101 255 route x, f 9;
#X obj 101 224 list trim;
#X obj 168 317 route none;
#X obj 235 359 symbol;
#X obj 239 215 list;
#X obj 264 159 list prepend, f 7;
#X obj 101 164 savestate;
#X obj 263 41 inlet;
#X obj 342 41 inlet;
#X obj 367 135 print [receiver] learn:;
#X obj 367 104 list trim;
#X connect 1 1 5 0;
#X connect 1 1 8 0;
#X connect 2 0 3 1;
#X connect 2 0 8 1;
#X connect 3 0 1 0;
#X connect 4 0 3 0;
#X connect 5 1 6 0;
#X connect 6 0 0 0;
#X connect 7 0 9 0;
#X connect 8 0 7 1;
#X connect 9 0 4 0;
#X connect 9 1 7 0;
#X connect 10 0 8 0;
#X connect 10 0 13 0;
#X connect 11 0 2 0;
#X connect 13 0 12 0;
#X restore 564 495 pd savestate;
#X obj 645 454 else/receiver -local sym, f 13;
#N canvas 251 108 631 527 savestate 0;
#X obj 168 340 outlet;
#X obj 101 261 route bang;
#X obj 101 233 route x, f 9;
#X obj 101 202 list trim;
#X obj 239 193 list;
#X obj 264 137 list prepend, f 7;
#X obj 101 142 savestate;
#X obj 263 79 inlet;
#X obj 342 96 inlet;
#X obj 339 191 else/format %s-learn;
#X obj 168 295 else/insert teach;
#X connect 1 1 5 0;
#X connect 1 1 10 0;
#X connect 2 0 1 0;
#X connect 3 0 2 0;
#X connect 4 0 6 0;
#X connect 5 0 4 1;
#X connect 6 0 3 0;
#X connect 6 1 4 0;
#X connect 7 0 5 0;
#X connect 8 0 9 0;
#X connect 9 0 2 1;
#X connect 9 0 5 1;
#X connect 10 0 0 0;
#X restore 156 579 pd savestate;
#X obj 237 550 else/receiver -local sym;
#X obj 173 22 else/loadbanger -init;
#X obj 433 706 s;
#X msg 40 453 learn;
#X obj 40 200 t b b;
#X obj 173 277 t b b;
#X obj 40 506 else/changed;
#X obj 442 375 else/changed;
#X obj 72 398 send \$0-deactivate, f 13;
#X msg 72 370 deactivate;
#X obj 187 433 r \$0-deactivate;
#X obj 431 266 r \$0-deactivate;
#X obj 173 55 symbol drive;
#X obj 433 659 else/rescale -1 1;
#X connect 0 0 30 0;
#X connect 1 0 2 0;
#X connect 1 1 23 0;
#X connect 2 0 37 0;
#X connect 2 1 13 0;
#X connect 3 0 4 0;
#X connect 4 0 28 0;
#X connect 5 0 29 0;
#X connect 6 0 11 0;
#X connect 7 0 6 0;
#X connect 8 0 9 0;
#X connect 9 0 11 0;
#X connect 10 0 26 1;
#X connect 12 0 31 0;
#X connect 13 0 31 0;
#X connect 14 0 37 0;
#X connect 14 1 15 0;
#X connect 15 0 16 0;
#X connect 15 1 21 0;
#X connect 15 1 0 0;
#X connect 16 0 21 0;
#X connect 17 0 5 0;
#X connect 19 0 8 1;
#X connect 20 0 10 0;
#X connect 21 0 14 0;
#X connect 22 0 21 1;
#X connect 23 0 1 0;
#X connect 24 0 23 1;
#X connect 25 0 36 0;
#X connect 27 0 30 0;
#X connect 28 0 27 0;
#X connect 28 0 12 0;
#X connect 28 1 7 0;
#X connect 28 1 33 0;
#X connect 29 0 0 0;
#X connect 29 0 13 0;
#X connect 29 1 8 0;
#X connect 30 0 1 0;
#X connect 31 0 14 0;
#X connect 33 0 32 0;
#X connect 34 0 30 0;
#X connect 35 0 14 0;
#X connect 36 0 3 0;
#X connect 36 0 17 0;
#X connect 36 0 18 0;
#X connect 36 0 7 1;
#X connect 37 0 26 0;
#X restore 82 78 pd drive;
#N canvas 357 34 761 770 att 0;
#X msg 173 469 forget;
#X obj 40 532 else/midi.learn 1;
#A saved;
#X obj 40 600 t f b;
#X obj 40 112 else/format \$0-%s-learn, f 11;
#X obj 40 162 else/receiver;
#X obj 173 195 else/receiver;
#X msg 90 259 Learn for \$1 knob activated, f 9;
#X obj 90 207 symbol;
#X obj 205 345 symbol;
#X msg 205 378 Forget for \$1 knob;
#X obj 473 721 else/format \$0-set-%s;
#X obj 187 405 print [adsr.m~]:;
#X msg 442 311 learn;
#X msg 467 348 forget;
#X obj 432 403 else/receiver 1;
#X obj 564 401 else/route2 none;
#X msg 564 448 none;
#X obj 173 166 else/format \$0-%s-forget;
#X obj 189 121 else/sender -local sym;
#X obj 260 339 else/receiver -local sym, f 13;
#X obj 473 694 else/receiver -local sym;
#N canvas 268 234 610 478 savestate 0;
#X obj 235 409 outlet;
#X obj 101 283 route bang;
#X obj 339 213 else/format rcv-%s;
#X obj 101 255 route x, f 9;
#X obj 101 224 list trim;
#X obj 168 317 route none;
#X obj 235 359 symbol;
#X obj 239 215 list;
#X obj 264 159 list prepend, f 7;
#X obj 101 164 savestate;
#X obj 263 41 inlet;
#X obj 342 41 inlet;
#X obj 367 135 print [receiver] learn:;
#X obj 367 104 list trim;
#X connect 1 1 5 0;
#X connect 1 1 8 0;
#X connect 2 0 3 1;
#X connect 2 0 8 1;
#X connect 3 0 1 0;
#X connect 4 0 3 0;
#X connect 5 1 6 0;
#X connect 6 0 0 0;
#X connect 7 0 9 0;
#X connect 8 0 7 1;
#X connect 9 0 4 0;
#X connect 9 1 7 0;
#X connect 10 0 8 0;
#X connect 10 0 13 0;
#X connect 11 0 2 0;
#X connect 13 0 12 0;
#X restore 564 495 pd savestate;
#X obj 645 454 else/receiver -local sym, f 13;
#N canvas 251 108 631 527 savestate 0;
#X obj 168 340 outlet;
#X obj 101 261 route bang;
#X obj 101 233 route x, f 9;
#X obj 101 202 list trim;
#X obj 239 193 list;
#X obj 264 137 list prepend, f 7;
#X obj 101 142 savestate;
#X obj 263 79 inlet;
#X obj 342 96 inlet;
#X obj 339 191 else/format %s-learn;
#X obj 168 295 else/insert teach;
#X connect 1 1 5 0;
#X connect 1 1 10 0;
#X connect 2 0 1 0;
#X connect 3 0 2 0;
#X connect 4 0 6 0;
#X connect 5 0 4 1;
#X connect 6 0 3 0;
#X connect 6 1 4 0;
#X connect 7 0 5 0;
#X connect 8 0 9 0;
#X connect 9 0 2 1;
#X connect 9 0 5 1;
#X connect 10 0 0 0;
#X restore 156 579 pd savestate;
#X obj 237 550 else/receiver -local sym;
#X obj 173 22 else/loadbanger -init;
#X obj 433 706 s;
#X msg 40 453 learn;
#X obj 40 200 t b b;
#X obj 173 277 t b b;
#X obj 40 506 else/changed;
#X obj 442 375 else/changed;
#X obj 72 398 send \$0-deactivate, f 13;
#X msg 72 370 deactivate;
#X obj 187 433 r \$0-deactivate;
#X obj 431 266 r \$0-deactivate;
#X obj 433 659 else/rescale -1 1;
#X obj 173 55 symbol att;
#X connect 0 0 30 0;
#X connect 1 0 2 0;
#X connect 1 1 23 0;
#X connect 2 0 36 0;
#X connect 2 1 13 0;
#X connect 3 0 4 0;
#X connect 4 0 28 0;
#X connect 5 0 29 0;
#X connect 6 0 11 0;
#X connect 7 0 6 0;
#X connect 8 0 9 0;
#X connect 9 0 11 0;
#X connect 10 0 26 1;
#X connect 12 0 31 0;
#X connect 13 0 31 0;
#X connect 14 0 36 0;
#X connect 14 1 15 0;
#X connect 15 0 16 0;
#X connect 15 1 21 0;
#X connect 15 1 0 0;
#X connect 16 0 21 0;
#X connect 17 0 5 0;
#X connect 19 0 8 1;
#X connect 20 0 10 0;
#X connect 21 0 14 0;
#X connect 22 0 21 1;
#X connect 23 0 1 0;
#X connect 24 0 23 1;
#X connect 25 0 37 0;
#X connect 27 0 30 0;
#X connect 28 0 27 0;
#X connect 28 0 12 0;
#X connect 28 1 7 0;
#X connect 28 1 33 0;
#X connect 29 0 0 0;
#X connect 29 0 13 0;
#X connect 29 1 8 0;
#X connect 30 0 1 0;
#X connect 31 0 14 0;
#X connect 33 0 32 0;
#X connect 34 0 30 0;
#X connect 35 0 14 0;
#X connect 36 0 26 0;
#X connect 37 0 3 0;
#X connect 37 0 17 0;
#X connect 37 0 18 0;
#X connect 37 0 7 1;
#X restore 83 108 pd att;
#X restore 390 181 pd Learn;
#X connect 0 0 16 0;
#X connect 0 1 6 0;
#X connect 7 0 9 0;
#X connect 9 0 16 1;
#X connect 16 0 1 0;
#X coords 0 1 100 -1 130 140 2 200 75;
