#N canvas 521 49 493 598 12;
#X text 264 139 see -->;
#X text 236 205 This is just a wrapper around [drive~] from ELSE (default mode only) \, check it out., f 22;
#X obj 324 139 about.MERDA;
#N canvas 726 147 346 275 messages 0;
#X obj 128 218 outlet;
#X msg 128 136 drive \$1;
#X obj 128 41 else/knob 40 0.1 1000 1 0.1 empty empty #000000 #404040 #ffffff 1 0 0 0 1 320 0 0 1 empty empty 0 8 0 0 0 0 0 0 0 0;
#X floatatom 128 106 9 0 0 0 - - - 0;
#X obj 227 41 else/knob 40 -1 1 0 0 \$0-att \$0-att-set #bbbbbb #7c7c7c black 1 0 0 0 1 320 0 0 0 empty empty 0 0 0 0 0 0 0 0 0 0;
#X floatatom 227 106 10 0 0 0 - - - 0;
#X msg 227 136 att \$1;
#X text 32 93 range from 0.1 to 1000, f 11;
#X obj 55 143 tgl 19 0 empty empty empty 0 -10 0 12 #dfdfdf #000000 #000000 0 1;
#X msg 55 173 gui \$1;
#X connect 1 0 0 0;
#X connect 2 0 3 0;
#X connect 3 0 1 0;
#X connect 4 0 5 0;
#X connect 5 0 6 0;
#X connect 6 0 0 0;
#X connect 8 0 9 0;
#X connect 9 0 0 0;
#X restore 103 127 pd messages;
#X obj 75 170 else/drive.m~;
#A saved 0 0 1;
#A saved;
#A saved;
#X obj 75 334 else/meter~;
#X obj 75 486 else/out~;
#X obj 291 284 else/drive~;
#X obj 75 89 else/player~ bubul.mp3 1 1;
#X obj 54 24 else/note 376 15 Menlo empty 4 0 0 0 0 223 223 223 1 1 í ½í²© [drive.m~] - Overdrive Distortion;
#X connect 3 0 4 0;
#X connect 4 0 5 0;
#X connect 5 0 6 0;
#X connect 8 0 4 0;
