#N canvas 408 146 516 353 12;
#X obj 28 35 inlet~;
#X obj 28 303 outlet~;
#N canvas 243 43 424 397 preset 0;
#X obj 125 121 else/sender 1 \\\$0-presets;
#X msg 125 86 name \$1;
#X obj 90 171 else/receiver;
#X obj 123 220 route list;
#N canvas 468 182 491 352 id-name-init 0;
#X obj 165 113 + 1;
#X obj 257 100 else/dollsym 1;
#X obj 141 80 value;
#X obj 141 252 outlet;
#X obj 141 51 else/loadbanger 2;
#X obj 141 201 else/dollsym 1;
#X obj 257 76 symbol drive-id_\\\$0;
#X obj 141 166 makefilename \\\$0-drive-%d;
#X connect 0 0 2 0;
#X connect 1 0 2 1;
#X connect 2 0 0 0;
#X connect 2 0 7 0;
#X connect 4 0 2 0;
#X connect 4 1 6 0;
#X connect 5 0 3 0;
#X connect 6 0 1 0;
#X connect 7 0 5 0;
#X restore 90 39 pd id-name-init;
#X obj 90 311 else/var \$0-drive \$0-att;
#X obj 123 257 else/dispatch \$0-set-drive \$0-set-att;
#X connect 1 0 0 0;
#X connect 2 0 3 0;
#X connect 2 0 5 0;
#X connect 3 0 6 0;
#X connect 4 0 1 0;
#X connect 4 0 2 0;
#X restore 409 148 pd preset;
#N canvas 171 120 601 317 init-savestate 0;
#X obj 128 50 savestate;
#X obj 49 125 list;
#X obj 49 43 loadbang;
#X obj 128 109 list trim;
#X obj 128 133 route list;
#X obj 49 171 else/default -1 0 1;
#X obj 49 222 else/dispatch \$0-set-drive \$0-att-set \$0-set-GUI;
#X obj 188 82 else/var \$0-drive \$0-att \$0-GUI;
#X connect 0 0 3 0;
#X connect 0 1 7 0;
#X connect 1 0 5 0;
#X connect 2 0 1 0;
#X connect 3 0 4 0;
#X connect 4 0 1 1;
#X connect 5 0 6 0;
#X connect 7 0 0 0;
#X restore 351 115 pd init-savestate;
#N canvas 200 115 337 184 GUI 0;
#N canvas 150 114 834 520 collapse 0;
#X obj 28 150 r \$0-uncollapse;
#X obj 290 420 r \$0-detatch;
#X obj 232 153 else/canvas.setname \$0-m 2;
#X obj 290 305 r \$0-set-GUI;
#X obj 290 386 s \$0-uncollapse;
#X obj 313 359 s \$0-collapse;
#X obj 290 331 sel 1 0;
#X obj 28 16 r \$0-collapse;
#X obj 290 447 message \; pd-\$0-drive vis 1;
#X obj 28 184 else/message \; \$0-button readonly 0 \, transparent 2 \; pd-\$0-drive donecanvasdialog 1 1 1 0 0 1 1 117 109 15 15 \, vis 0 \; \$0-cnv color #bbbbbb #000000 #000000 \; \$0-m goprect 200 75 130 140 \, dirty 0 \; \$0-GUI 1;
#X obj 28 45 else/message \; \$0-button readonly 1 \, transparent 3 \; pd-\$0-drive donecanvasdialog 1 1 0 0 0 1 1 117 109 15 15 \; \$0-cnv color #dbdbdb #000000 #dbdbdb \; \$0-m goprect 205 250 130 44 \, dirty 0 \; \$0-GUI 0;
#X obj 505 68 r \$0-detatch-hover;
#X obj 580 434 s \$0-label-collapsed;
#X obj 557 300 sel 0 1;
#X msg 580 333 label ⤢ \, label_font 0 48 \, label_pos 34 12, f 25;
#X obj 487 298 loadbang;
#X obj 525 97 else/canvas.edit 3;
#X obj 557 272 change;
#X obj 525 183 sel 1;
#X obj 505 210 f;
#X obj 525 156 t f f, f 10;
#X obj 525 126 == 0;
#X obj 505 236 spigot;
#X msg 557 382 label DRIVE \, label_font 0 24 \, label_pos 10 15, f 29;
#X connect 0 0 9 0;
#X connect 1 0 8 0;
#X connect 3 0 6 0;
#X connect 6 0 4 0;
#X connect 6 1 5 0;
#X connect 7 0 10 0;
#X connect 11 0 19 0;
#X connect 13 0 23 0;
#X connect 13 1 14 0;
#X connect 14 0 12 0;
#X connect 15 0 23 0;
#X connect 16 0 21 0;
#X connect 17 0 13 0;
#X connect 18 0 19 0;
#X connect 18 1 17 0;
#X connect 19 0 22 0;
#X connect 20 0 18 0;
#X connect 20 1 22 1;
#X connect 21 0 20 0;
#X connect 22 0 17 0;
#X connect 23 0 12 0;
#X restore 116 47 pd collapse;
#X restore 349 148 pd GUI;
#X text 200 75 IN;
#N canvas 181 166 464 294 route 0;
#X obj 125 231 s \$0-set-drive;
#X obj 125 33 inlet;
#X obj 168 161 s \$0-att-set;
#X obj 125 195 else/rescale -in 0.1 1000 -rlog -1 1;
#X obj 125 68 route drive att gui;
#X obj 211 121 s \$0-set-GUI;
#X obj 211 96 != 0;
#X connect 1 0 4 0;
#X connect 3 0 0 0;
#X connect 4 0 3 0;
#X connect 4 1 2 0;
#X connect 4 2 6 0;
#X connect 6 0 5 0;
#X restore 84 99 pd route;
#X obj 102 35 inlet~;
#X text 312 75 CV;
#N canvas 658 359 374 433 set 0;
#X obj 169 149 r \$0-drive;
#X obj 131 37 inlet~;
#X obj 151 210 +~;
#X obj 131 149 *~;
#X obj 149 80 r \$0-att;
#X obj 151 337 outlet~;
#X obj 169 178 else/f2s~;
#X obj 149 108 else/f2s~;
#X obj 151 248 else/rescale~ -log 0.1 1000, f 13;
#X connect 0 0 6 0;
#X connect 1 0 3 0;
#X connect 2 0 8 0;
#X connect 3 0 2 0;
#X connect 4 0 7 0;
#X connect 6 0 2 1;
#X connect 7 0 3 1;
#X connect 8 0 5 0;
#X restore 102 152 pd set;
#X obj 28 233 else/drive~;
#N canvas 960 162 233 204 MIDI-learn 0;
#N canvas 880 282 577 472 drive-knob 0;
#X msg 114 218 forget;
#X obj 240 221 savestate;
#X obj 300 268 list;
#X obj 240 326 else/insert teach;
#X obj 96 270 else/midi.learn 1;
#A saved;
#X obj 94 34 r \$0-drive-learn;
#X msg 113 64 MIDI-learn for drive knob activated;
#X obj 113 91 print [drive.m~]:;
#X obj 114 130 r \$0-drive-forget;
#X msg 127 164 MIDI-forget for drive knob;
#X obj 127 189 print [drive.m~]:;
#X obj 325 243 list prepend drive-learn;
#X obj 239 297 else/route2 drive-learn;
#X obj 96 405 s \$0-set-drive;
#X obj 96 366 else/rescale -1 1;
#X connect 0 0 4 0;
#X connect 1 0 12 0;
#X connect 1 1 2 0;
#X connect 2 0 1 0;
#X connect 3 0 4 0;
#X connect 4 0 14 0;
#X connect 4 1 11 0;
#X connect 5 0 6 0;
#X connect 5 0 4 0;
#X connect 6 0 7 0;
#X connect 8 0 0 0;
#X connect 8 0 9 0;
#X connect 9 0 10 0;
#X connect 11 0 2 1;
#X connect 12 0 3 0;
#X connect 14 0 13 0;
#X restore 71 47 pd drive-knob;
#N canvas 880 282 577 472 att-knob 0;
#X msg 114 218 forget;
#X obj 240 221 savestate;
#X obj 300 268 list;
#X obj 240 326 else/insert teach;
#X obj 96 270 else/midi.learn 1;
#A saved;
#X obj 113 91 print [drive.m~]:;
#X obj 127 189 print [drive.m~]:;
#X obj 96 366 else/rescale -1 1;
#X obj 94 34 r \$0-att-learn;
#X msg 113 64 MIDI-learn for att knob activated;
#X obj 114 130 r \$0-att-forget;
#X msg 127 164 MIDI-forget for att knob;
#X obj 325 243 list prepend att-learn;
#X obj 239 297 else/route2 att-learn;
#X obj 96 405 s \$0-set-att;
#X connect 0 0 4 0;
#X connect 1 0 13 0;
#X connect 1 1 2 0;
#X connect 2 0 1 0;
#X connect 3 0 4 0;
#X connect 4 0 7 0;
#X connect 4 1 12 0;
#X connect 7 0 14 0;
#X connect 8 0 9 0;
#X connect 8 0 4 0;
#X connect 9 0 5 0;
#X connect 10 0 0 0;
#X connect 10 0 11 0;
#X connect 11 0 6 0;
#X connect 12 0 2 1;
#X connect 13 0 3 0;
#X restore 71 77 pd att-knob;
#X restore 363 181 pd MIDI-learn;
#X obj 310 257 cnv 10 17 15 empty empty ▲ 5 8 0 12 #bbbbbb #000000 0;
#X obj 310 271 cnv 10 17 15 empty empty ▼ 5 5 0 12 #bbbbbb #000000 0;
#X obj 309 256 else/button 19 31 #e0e0e0 #808080 2 1 2 0 0 \$0-uncollapse empty;
#N canvas 850 97 155 145 \$0-drive 0;
#N canvas 825 178 238 225 (subpatch) 0;
#X obj 51 51 cnv 15 115 107 empty empty empty 20 12 0 14 #dbdbdb #373737 0;
#X obj 62 101 else/knob 50 -1 1 0 -1 \$0-drive \$0-set-drive #000000 #404040 #ffffff 0 0 0 0 1 320 0 0 -0.5 empty empty 0 8 0 0 0 0 0 0 0 0;
#X obj 122 101 else/knob 35 -1 1 0 0 \$0-att \$0-att-set #bbbbbb #7c7c7c black 0 0 0 0 1 320 0 0 0 empty empty 0 8 0 0 0 0 0 0 0 0;
#X text 127 137 att;
#X obj 55 59 else/note 81 24 Inter empty 5 54 54 54 0 187 187 187 1 1 DRIVE;
#X obj 143 59 else/button 19 31 #e0e0e0 #808080 2 1 2 0 0 \$0-collapse \$0-button;
#X obj 144 60 cnv 10 17 15 empty \$0-cnv ▼ 5 8 0 12 #bbbbbb #000000 0;
#X obj 144 74 cnv 10 17 15 empty \$0-cnv ▲ 5 5 0 12 #bbbbbb #000000 0;
#X coords 0 1 100 -1 117 109 1 50 50;
#X restore 15 15 graph;
#X coords 0 0 1 1 117 109 1 15 15;
#X restore 206 95 pd \$0-drive;
#X obj 210 257 cnv 19 95 29 empty \$0-label-collapsed DRIVE 10 15 0 24 #bbbbbb #000000 0;
#X obj 209 256 else/button 97 31 #bbbbbb #bbbbbb 2 1 2 0 0 \$0-detatch \$0-uncollapse-set;
#X connect 0 0 10 0;
#X connect 0 1 6 0;
#X connect 7 0 9 0;
#X connect 9 0 10 1;
#X connect 10 0 1 0;
#X coords 0 1 100 -1 130 140 2 200 75;
