#N canvas 550 89 626 685 12;
#X text 375 238 see -->;
#X obj 280 579 *~;
#X text 343 537 This is just a wrapper around [gendyn~] from ELSE \, check it out., f 29;
#X text 342 332 Input: Center pitch in MIDI;
#X text 338 363 Controls \; - Bandwidth in cents (up and down center input frequency \; - 'n' number of points in the waveform \; - interpolation type \; - maximum frequency step (percentage of bandwisth) \; - maximum amplitude step (percentage)., f 30;
#N canvas 74 51 503 377 references 0;
#X obj 301 325 outlet;
#X obj 60 66 else/knob 50 0 2400 0 0 empty empty #dfdfdf #7c7c7c black 1 0 0 0 1 320 0 0 0 empty empty 0 0 0 0 0 0 0 0 0 0;
#X obj 356 73 vradio 16 1 0 3 empty empty empty 0 -8 0 10 #dfdfdf #000000 #000000 0;
#X floatatom 295 138 4 1 128 0 - - - 0;
#X obj 142 66 else/knob 50 0 100 0 0 empty empty #dfdfdf #7c7c7c black 1 0 0 0 1 320 0 0 0 empty empty 0 0 0 0 0 0 0 0 0 0;
#X obj 212 66 else/knob 50 0 100 0 0 \$0-astep \$0-set-astep #dfdfdf #7c7c7c black 1 0 0 0 1 320 0 0 0 empty empty 0 0 0 0 0 0 0 0 0 0;
#X text 376 73 none;
#X text 376 90 linear;
#X text 376 107 cosine;
#X msg 60 175 bw \$1;
#X floatatom 60 138 7 0 0 0 - - - 0;
#X floatatom 142 138 7 0 0 0 - - - 0;
#X floatatom 212 138 7 0 0 0 - - - 0;
#X msg 142 175 fstep \$1;
#X msg 212 175 astep \$1;
#X floatatom 356 138 5 0 0 0 - - - 0;
#X msg 356 175 interp \$1;
#X msg 295 175 n \$1;
#X obj 385 226 tgl 19 0 empty empty empty 0 -10 0 12 #dfdfdf #000000 #000000 0 1;
#X msg 385 256 gui \$1;
#X connect 1 0 10 0;
#X connect 2 0 15 0;
#X connect 3 0 17 0;
#X connect 4 0 11 0;
#X connect 5 0 12 0;
#X connect 9 0 0 0;
#X connect 10 0 9 0;
#X connect 11 0 13 0;
#X connect 12 0 14 0;
#X connect 13 0 0 0;
#X connect 14 0 0 0;
#X connect 15 0 16 0;
#X connect 16 0 0 0;
#X connect 17 0 0 0;
#X connect 18 0 19 0;
#X connect 19 0 0 0;
#X restore 76 260 pd references;
#X obj 56 98 else/keymap -1;
#X obj 56 132 else/keyboard 17 80 4 2 0 127 empty empty;
#X obj 56 229 else/voices~ 4, f 35;
#X obj 432 586 else/gendyn~;
#X obj 280 613 else/out~;
#X obj 56 291 gendyn.m~;
#A saved 218 8 1 15.21 16.5021 1;
#A saved;
#A saved;
#A saved;
#X obj 438 237 about.merda;
#X obj 298 278 else/adsr.m~;
#A saved 100 50 0.5 500 1 0 0 0 0 0;
#A saved;
#A saved;
#A saved;
#A saved;
#A saved;
#A saved;
#A saved;
#A saved;
#X obj 56 30 else/note 485 15 Menlo empty 4 0 0 0 0 223 223 223 1 1 í ½í²© [gendyn.m~] - Stochastic Synthesis Oscillator;
#X connect 1 0 10 0;
#X connect 5 0 11 0;
#X connect 6 0 7 0;
#X connect 7 0 8 0;
#X connect 8 0 11 0;
#X connect 8 1 13 0;
#X connect 11 0 1 0;
#X connect 13 0 1 1;
