#N canvas 479 58 741 421 12;
#X obj 384 84 inlet~;
#X obj 384 279 outlet~;
#N canvas 359 158 485 402 (subpatch) 0;
#X obj 51 51 cnv 19 200 210 empty empty empty 20 12 0 12 #e0e0e0 #404040 0;
#X obj 63 181 else/knob 50 0 2400 0 0 \$0-bw \$0-set-bw #dfdfdf #7c7c7c black 0 0 0 0 1 320 0 0 0 empty empty 0 12 0 55 0 0 0 0 0 0;
#X floatatom 71 127 4 1 128 0 - \$0-set-n \$0-n 16;
#X obj 131 181 else/knob 50 0 100 2 0 \$0-fstep \$0-set-fstep #dfdfdf #7c7c7c black 0 0 0 0 1 320 0 0 0 empty empty 0 12 0 54 0 0 0 0 0 0;
#X text 132 158 f-step;
#X obj 191 181 else/knob 50 0 100 2 0 \$0-astep \$0-set-astep #dfdfdf #7c7c7c black 0 0 0 0 1 320 0 0 0 empty empty 0 12 0 54 0 0 0 0 0 0;
#X text 192 158 a-step;
#X obj 93 62 else/note 117 24 Inter empty 5 54 54 54 0 187 187 187 1 1 GENDYN;
#X obj 144 125 else/popmenu 80 26 12 #dfdfdf black \  \$0-set-interp \$0-interp empty empty 0 0 -1 0 0 1 0 0 0 0 0 none linear cosine;
#X text 133 104 interpolation:;
#X obj 63 236 else/note 49 12 Menlo \$0-bw-label 0 0 0 0 0 255 255 255 0 1 50 Hz;
#X obj 190 238 else/note 49 12 Menlo \$0-astep-label 0 0 0 0 0 255 255 255 0 1 10 %;
#X obj 131 238 else/note 48 12 Menlo \$0-fstep-label 0 0 0 0 0 255 255 255 0 1 10 %;
#X text 82 106 n:;
#X text 80 160 BW;
#X coords 0 1 100 -1 202 212 1 50 50;
#X restore 57 75 graph;
#N canvas 193 269 539 463 preset 0;
#X obj 121 133 else/sender 1 \\\$0-presets;
#X msg 121 98 name \$1;
#X obj 98 182 else/receiver;
#X obj 123 222 route list;
#N canvas 596 76 470 347 id-name-init 0;
#X obj 165 113 + 1;
#X obj 257 100 else/dollsym 1;
#X obj 141 80 value;
#X obj 141 252 outlet;
#X obj 141 51 else/loadbanger 2;
#X obj 141 201 else/dollsym 1;
#X obj 257 76 symbol gendyn-id_\\\$0;
#X obj 141 166 makefilename \\\$0-gendyn-%d;
#X connect 0 0 2 0;
#X connect 1 0 2 1;
#X connect 2 0 0 0;
#X connect 2 0 7 0;
#X connect 4 0 2 0;
#X connect 4 1 6 0;
#X connect 5 0 3 0;
#X connect 6 0 1 0;
#X connect 7 0 5 0;
#X restore 97 46 pd id-name-init;
#X obj 123 258 else/dispatch \$0-set-bw \$0-set-n \$0-set-interp \$0-set-fstep \$0-set-astep, f 40;
#X obj 98 331 else/var \$0-bw \$0-n \$0-interp \$0-fstep \$0-astep;
#X connect 1 0 0 0;
#X connect 2 0 3 0;
#X connect 2 0 6 0;
#X connect 3 0 5 0;
#X connect 4 0 1 0;
#X connect 4 0 2 0;
#X restore 589 130 pd preset;
#N canvas 620 365 613 345 init-savestate 0;
#X obj 169 92 savestate;
#X obj 85 67 loadbang;
#X obj 85 165 list;
#X obj 85 249 else/dispatch \$0-set-bw \$0-set-n \$0-set-interp \$0-set-fstep \$0-set-astep, f 46;
#X obj 229 128 else/var \$0-bw \$0-n \$0-interp \$0-fstep \$0-astep;
#X obj 85 205 else/default 50 8 1 10 10;
#X obj 133 157 route list;
#X obj 133 132 list trim;
#X connect 0 0 7 0;
#X connect 0 1 4 0;
#X connect 1 0 2 0;
#X connect 2 0 5 0;
#X connect 4 0 0 0;
#X connect 5 0 3 0;
#X connect 6 0 2 1;
#X connect 7 0 6 0;
#X restore 534 99 pd init-savestate;
#X text 383 63 HZ;
#N canvas 132 191 851 514 set 0;
#X obj 140 232 t b f;
#X msg 172 271 resize \$1;
#X obj 140 174 else/nchs~;
#X obj 140 76 inlet~;
#X obj 172 348 outlet;
#X obj 323 141 r \$0-bw;
#X obj 323 175 f;
#X obj 453 172 f;
#X msg 323 207 all bw \$1;
#X msg 453 213 all n \$1;
#X obj 650 173 f;
#X msg 650 204 all freq_step \$1;
#X obj 538 391 f;
#X obj 85 301 s \$0-bang;
#X obj 140 202 change;
#X obj 298 113 r \$0-bang;
#X obj 453 68 r \$0-bang;
#X obj 626 109 r \$0-bang;
#X obj 650 136 r \$0-fstep;
#X obj 386 396 f;
#X obj 362 332 r \$0-bang;
#X obj 323 241 s \$0-to-gendyn;
#X obj 453 246 s \$0-to-gendyn;
#X obj 650 237 s \$0-to-gendyn;
#X obj 386 462 s \$0-to-gendyn;
#X obj 538 454 s \$0-to-gendyn;
#X obj 191 307 r \$0-to-gendyn;
#X obj 386 358 r \$0-astep;
#X msg 386 427 all amp_step \$1;
#X obj 538 354 r \$0-interp;
#X msg 538 422 all interp \$1;
#X obj 512 328 r \$0-bang;
#X obj 494 186 s \$0-set-n;
#X obj 494 102 r \$0-n;
#X obj 494 129 clip 1 128;
#X msg 494 160 set \$1;
#X connect 0 0 13 0;
#X connect 0 1 1 0;
#X connect 1 0 4 0;
#X connect 2 0 14 0;
#X connect 3 0 2 0;
#X connect 5 0 6 0;
#X connect 6 0 8 0;
#X connect 7 0 9 0;
#X connect 8 0 21 0;
#X connect 9 0 22 0;
#X connect 10 0 11 0;
#X connect 11 0 23 0;
#X connect 12 0 30 0;
#X connect 14 0 0 0;
#X connect 15 0 6 0;
#X connect 16 0 7 0;
#X connect 17 0 10 0;
#X connect 18 0 10 0;
#X connect 19 0 28 0;
#X connect 20 0 19 0;
#X connect 26 0 4 0;
#X connect 27 0 19 0;
#X connect 28 0 24 0;
#X connect 29 0 12 0;
#X connect 30 0 25 0;
#X connect 31 0 12 0;
#X connect 33 0 34 0;
#X connect 34 0 7 0;
#X connect 34 0 35 0;
#X connect 35 0 32 0;
#X restore 432 166 pd set;
#X obj 384 227 clone -d gendyn.unit 1, f 25;
#X text 51 51 Pitch;
#X obj 384 166 mtof~;
#N canvas 378 45 368 364 route 0;
#X obj 104 71 inlet;
#X obj 127 263 s \$0-set-bw;
#X obj 138 234 s \$0-set-fstep;
#X obj 155 208 s \$0-set-astep;
#X obj 165 180 s \$0-set-interp;
#X obj 180 155 s \$0-set-n;
#X obj 104 105 route bw fstep astep interp n, f 14;
#X connect 0 0 6 0;
#X connect 6 0 1 0;
#X connect 6 1 2 0;
#X connect 6 2 3 0;
#X connect 6 3 4 0;
#X connect 6 4 5 0;
#X restore 423 116 pd route;
#N canvas 939 76 256 289 MIDI-learn 0;
#N canvas 920 298 577 472 BW-knob 0;
#X msg 114 218 forget;
#X obj 240 221 savestate;
#X obj 300 268 list;
#X obj 240 326 else/insert teach;
#X obj 96 270 else/midi.learn 1;
#A saved;
#X obj 94 34 r \$0-bw-learn;
#X msg 113 64 MIDI-learn for bw knob activated;
#X obj 113 91 print [gendyn.m~]:;
#X msg 127 164 MIDI-forget for bw knob;
#X obj 127 189 print [gendyn.m~]:;
#X obj 325 243 list prepend bw-learn;
#X obj 240 297 else/route2 bw-learn;
#X obj 96 366 else/rescale 0 2400;
#X obj 96 405 s \$0-set-bw;
#X obj 114 130 r \$0-bw-forget;
#X connect 0 0 4 0;
#X connect 1 0 11 0;
#X connect 1 1 2 0;
#X connect 2 0 1 0;
#X connect 3 0 4 0;
#X connect 4 0 12 0;
#X connect 4 1 10 0;
#X connect 5 0 4 0;
#X connect 5 0 6 0;
#X connect 6 0 7 0;
#X connect 8 0 9 0;
#X connect 10 0 2 1;
#X connect 11 0 3 0;
#X connect 12 0 13 0;
#X connect 14 0 0 0;
#X connect 14 0 8 0;
#X restore 75 51 pd BW-knob;
#N canvas 893 298 577 472 fstep-knob 0;
#X msg 114 218 forget;
#X obj 240 221 savestate;
#X obj 300 268 list;
#X obj 240 326 else/insert teach;
#X obj 96 270 else/midi.learn 1;
#A saved;
#X obj 113 91 print [gendyn.m~]:;
#X obj 127 189 print [gendyn.m~]:;
#X obj 94 34 r \$0-fstep-learn;
#X msg 113 64 MIDI-learn for f-step knob activated;
#X obj 113 129 r \$0-fstep-forget;
#X msg 127 164 MIDI-forget for f-step knob;
#X obj 325 243 list prepend fstep-learn;
#X obj 240 297 else/route2 fstep-learn;
#X obj 96 405 s \$0-set-fstep;
#X obj 96 366 else/rescale -exp 2 0 100;
#X connect 0 0 4 0;
#X connect 1 0 12 0;
#X connect 1 1 2 0;
#X connect 2 0 1 0;
#X connect 3 0 4 0;
#X connect 4 0 14 0;
#X connect 4 1 11 0;
#X connect 7 0 4 0;
#X connect 7 0 8 0;
#X connect 8 0 5 0;
#X connect 9 0 0 0;
#X connect 9 0 10 0;
#X connect 10 0 6 0;
#X connect 11 0 2 1;
#X connect 12 0 3 0;
#X connect 14 0 13 0;
#X restore 75 81 pd fstep-knob;
#N canvas 893 298 577 472 astep-knob 0;
#X msg 114 218 forget;
#X obj 240 221 savestate;
#X obj 300 268 list;
#X obj 240 326 else/insert teach;
#X obj 96 270 else/midi.learn 1;
#A saved;
#X obj 113 91 print [gendyn.m~]:;
#X obj 127 189 print [gendyn.m~]:;
#X obj 94 34 r \$0-astep-learn;
#X msg 113 64 MIDI-learn for a-step knob activated;
#X obj 113 129 r \$0-astep-forget;
#X msg 127 164 MIDI-forget for a-step knob;
#X obj 325 243 list prepend astep-learn;
#X obj 240 297 else/route2 astep-learn;
#X obj 96 405 s \$0-set-astep;
#X obj 96 366 else/rescale -exp 2 0 100;
#X connect 0 0 4 0;
#X connect 1 0 12 0;
#X connect 1 1 2 0;
#X connect 2 0 1 0;
#X connect 3 0 4 0;
#X connect 4 0 14 0;
#X connect 4 1 11 0;
#X connect 7 0 4 0;
#X connect 7 0 8 0;
#X connect 8 0 5 0;
#X connect 9 0 0 0;
#X connect 9 0 10 0;
#X connect 10 0 6 0;
#X connect 11 0 2 1;
#X connect 12 0 3 0;
#X connect 14 0 13 0;
#X restore 75 109 pd astep-knob;
#X restore 548 163 pd MIDI-learn;
#N canvas 107 93 1133 517 GUI 0;
#N canvas 63 137 522 359 format 0;
#N canvas 270 246 508 557 <1 0;
#X obj 151 32 inlet;
#X obj 152 62 else/format %.3f;
#X obj 152 90 list fromsymbol;
#X obj 184 181 else/slice -1;
#X obj 272 209 == 48;
#X obj 152 220 else/router;
#X obj 152 152 t l l;
#X obj 226 247 else/slice -1;
#X obj 152 308 equal 48 46;
#X obj 152 118 t l l, f 27;
#X obj 313 381 list;
#X obj 152 277 t l l, f 13;
#X obj 215 381 list;
#X obj 215 417 list tosymbol;
#X obj 152 336 sel 0 1;
#X obj 215 471 outlet;
#X listbox 181 514 20 0 0 0 - - - 0;
#X connect 0 0 1 0;
#X connect 1 0 2 0;
#X connect 2 0 9 0;
#X connect 3 1 4 0;
#X connect 4 0 5 1;
#X connect 5 0 11 0;
#X connect 5 1 7 0;
#X connect 6 0 5 0;
#X connect 6 1 3 0;
#X connect 7 0 6 0;
#X connect 8 0 14 0;
#X connect 9 0 6 0;
#X connect 9 1 10 1;
#X connect 10 0 13 0;
#X connect 11 0 8 0;
#X connect 11 1 12 1;
#X connect 12 0 13 0;
#X connect 12 0 16 0;
#X connect 13 0 15 0;
#X connect 14 0 12 0;
#X connect 14 1 10 0;
#X restore 104 162 pd <1;
#X obj 158 162 else/format %.4g;
#X obj 282 162 else/format %.5g;
#X obj 105 54 inlet;
#X obj 158 252 outlet;
#X obj 105 91 sel 0;
#X obj 152 90 else/spread 0 1 100;
#X msg 105 117 0;
#X connect 0 0 4 0;
#X connect 1 0 4 0;
#X connect 2 0 4 0;
#X connect 3 0 5 0;
#X connect 5 0 7 0;
#X connect 5 1 6 0;
#X connect 6 1 0 0;
#X connect 6 2 1 0;
#X connect 6 3 2 0;
#X connect 7 0 1 0;
#X restore 115 192 pd format;
#X obj 115 158 else/limit 100;
#X msg 244 158 color 0 0 \$1;
#X obj 244 126 * 175;
#X obj 257 99 loadbang;
#X obj 438 175 else/limit 100;
#X msg 567 165 color 0 0 \$1;
#X obj 567 133 * 175;
#X obj 580 106 loadbang;
#N canvas 491 87 522 359 format 0;
#N canvas 428 205 508 557 <1 0;
#X obj 151 32 inlet;
#X obj 152 62 else/format %.3f;
#X obj 152 90 list fromsymbol;
#X obj 184 181 else/slice -1;
#X obj 272 209 == 48;
#X obj 152 220 else/router;
#X obj 152 152 t l l;
#X obj 226 247 else/slice -1;
#X obj 152 118 t l l, f 27;
#X obj 313 381 list;
#X obj 152 277 t l l, f 13;
#X obj 215 381 list;
#X obj 215 417 list tosymbol;
#X obj 152 336 sel 0 1;
#X obj 215 471 outlet;
#X obj 152 307 equal 48 46;
#X connect 0 0 1 0;
#X connect 1 0 2 0;
#X connect 2 0 8 0;
#X connect 3 1 4 0;
#X connect 4 0 5 1;
#X connect 5 0 10 0;
#X connect 5 1 7 0;
#X connect 6 0 5 0;
#X connect 6 1 3 0;
#X connect 7 0 6 0;
#X connect 8 0 6 0;
#X connect 8 1 9 1;
#X connect 9 0 12 0;
#X connect 10 0 15 0;
#X connect 10 1 11 1;
#X connect 11 0 12 0;
#X connect 12 0 14 0;
#X connect 13 0 11 0;
#X connect 13 1 9 0;
#X connect 15 0 13 0;
#X restore 104 162 pd <1;
#X obj 158 162 else/format %.4g;
#X obj 105 54 inlet;
#X obj 158 252 outlet;
#X obj 105 91 sel 0;
#X msg 105 117 0;
#X obj 152 90 else/spread 0 1 10;
#X obj 282 162 else/format %.3g;
#X connect 0 0 3 0;
#X connect 1 0 3 0;
#X connect 2 0 4 0;
#X connect 4 0 5 0;
#X connect 4 1 6 0;
#X connect 5 0 1 0;
#X connect 6 1 0 0;
#X connect 6 2 1 0;
#X connect 6 3 7 0;
#X connect 7 0 3 0;
#X restore 438 209 pd format;
#X obj 115 56 r \$0-bw;
#X obj 244 65 r \$0-bw-active;
#X obj 270 194 r \$0-bw-typing;
#X msg 270 225 set \$1| Hz;
#X msg 115 228 set \$1 Hz;
#X obj 245 275 s \$0-bw-label;
#X obj 438 63 r \$0-fstep;
#X obj 567 72 r \$0-fstep-active;
#X obj 593 201 r \$0-fstep-typing;
#X obj 568 282 s \$0-fstep-label;
#X msg 438 245 set \$1 %;
#X msg 593 232 set \$1| %;
#X obj 756 178 else/limit 100;
#X msg 885 164 color 0 0 \$1;
#X obj 885 132 * 175;
#X obj 898 105 loadbang;
#N canvas 491 87 522 359 format 0;
#N canvas 428 205 508 557 <1 0;
#X obj 151 32 inlet;
#X obj 152 62 else/format %.3f;
#X obj 152 90 list fromsymbol;
#X obj 184 181 else/slice -1;
#X obj 272 209 == 48;
#X obj 152 220 else/router;
#X obj 152 152 t l l;
#X obj 226 247 else/slice -1;
#X obj 152 118 t l l, f 27;
#X obj 313 381 list;
#X obj 152 277 t l l, f 13;
#X obj 215 381 list;
#X obj 215 417 list tosymbol;
#X obj 152 336 sel 0 1;
#X obj 215 471 outlet;
#X obj 152 307 equal 48 46;
#X connect 0 0 1 0;
#X connect 1 0 2 0;
#X connect 2 0 8 0;
#X connect 3 1 4 0;
#X connect 4 0 5 1;
#X connect 5 0 10 0;
#X connect 5 1 7 0;
#X connect 6 0 5 0;
#X connect 6 1 3 0;
#X connect 7 0 6 0;
#X connect 8 0 6 0;
#X connect 8 1 9 1;
#X connect 9 0 12 0;
#X connect 10 0 15 0;
#X connect 10 1 11 1;
#X connect 11 0 12 0;
#X connect 12 0 14 0;
#X connect 13 0 11 0;
#X connect 13 1 9 0;
#X connect 15 0 13 0;
#X restore 104 162 pd <1;
#X obj 158 162 else/format %.4g;
#X obj 105 54 inlet;
#X obj 158 252 outlet;
#X obj 105 91 sel 0;
#X msg 105 117 0;
#X obj 152 90 else/spread 0 1 10;
#X obj 282 162 else/format %.3g;
#X connect 0 0 3 0;
#X connect 1 0 3 0;
#X connect 2 0 4 0;
#X connect 4 0 5 0;
#X connect 4 1 6 0;
#X connect 5 0 1 0;
#X connect 6 1 0 0;
#X connect 6 2 1 0;
#X connect 6 3 7 0;
#X connect 7 0 3 0;
#X restore 756 212 pd format;
#X msg 756 244 set \$1 %;
#X msg 911 231 set \$1| %;
#X obj 756 62 r \$0-astep;
#X obj 885 71 r \$0-astep-active;
#X obj 911 200 r \$0-astep-typing;
#X obj 886 281 s \$0-astep-label;
#X msg 229 359 active 0;
#X msg 209 419 active 1;
#X obj 210 330 r \$0-bw-tab;
#X obj 229 387 s \$0-set-bw;
#X obj 209 447 s \$0-set-fstep;
#X msg 587 360 active 0;
#X msg 567 420 active 1;
#X msg 916 364 active 0;
#X msg 896 424 active 1;
#X obj 568 331 r \$0-fstep-tab;
#X obj 587 388 s \$0-set-fstep;
#X obj 567 448 s \$0-set-astep;
#X obj 897 335 r \$0-astep-tab;
#X obj 896 452 s \$0-set-bw;
#X obj 916 392 s \$0-set-astep;
#X obj 115 129 f;
#X obj 127 98 sel 0;
#X obj 438 139 f;
#X obj 449 108 sel 0;
#X obj 756 152 f;
#X obj 767 121 sel 0;
#X connect 0 0 14 0;
#X connect 1 0 0 0;
#X connect 2 0 15 0;
#X connect 3 0 2 0;
#X connect 4 0 3 0;
#X connect 5 0 9 0;
#X connect 6 0 19 0;
#X connect 7 0 6 0;
#X connect 8 0 7 0;
#X connect 9 0 20 0;
#X connect 10 0 48 0;
#X connect 11 0 3 0;
#X connect 11 0 49 0;
#X connect 12 0 13 0;
#X connect 13 0 15 0;
#X connect 14 0 15 0;
#X connect 16 0 50 0;
#X connect 17 0 7 0;
#X connect 17 0 51 0;
#X connect 18 0 21 0;
#X connect 20 0 19 0;
#X connect 21 0 19 0;
#X connect 22 0 26 0;
#X connect 23 0 32 0;
#X connect 24 0 23 0;
#X connect 25 0 24 0;
#X connect 26 0 27 0;
#X connect 27 0 32 0;
#X connect 28 0 32 0;
#X connect 29 0 52 0;
#X connect 30 0 24 0;
#X connect 30 0 53 0;
#X connect 31 0 28 0;
#X connect 33 0 36 0;
#X connect 34 0 37 0;
#X connect 35 0 33 0;
#X connect 35 0 34 0;
#X connect 38 0 43 0;
#X connect 39 0 44 0;
#X connect 40 0 47 0;
#X connect 41 0 46 0;
#X connect 42 0 38 0;
#X connect 42 0 39 0;
#X connect 45 0 40 0;
#X connect 45 0 41 0;
#X connect 48 0 1 0;
#X connect 49 0 48 0;
#X connect 50 0 5 0;
#X connect 51 0 50 0;
#X connect 52 0 22 0;
#X connect 53 0 52 0;
#X restore 534 130 pd GUI;
#X connect 0 0 6 0;
#X connect 0 0 9 0;
#X connect 0 1 10 0;
#X connect 6 0 7 0;
#X connect 7 0 1 0;
#X connect 9 0 7 0;
#X coords 0 -1 1 1 218 247 2 50 50;
