#N canvas 381 149 551 493 12;
#X obj 57 66 inlet~;
#X obj 57 440 outlet~;
#N canvas 243 43 499 411 preset 0;
#X msg 125 86 name \$1;
#X obj 90 171 else/receiver;
#N canvas 468 182 491 352 id-name-init 0;
#X obj 165 113 + 1;
#X obj 257 100 else/dollsym 1;
#X obj 141 80 value;
#X obj 141 252 outlet;
#X obj 141 51 else/loadbanger 2;
#X obj 141 201 else/dollsym 1;
#X obj 257 76 symbol gain-id_\\\$0;
#X obj 141 166 makefilename \\\$0-gain-%d;
#X connect 0 0 2 0;
#X connect 1 0 2 1;
#X connect 2 0 0 0;
#X connect 2 0 7 0;
#X connect 4 0 2 0;
#X connect 4 1 6 0;
#X connect 5 0 3 0;
#X connect 6 0 1 0;
#X connect 7 0 5 0;
#X restore 90 39 pd id-name-init;
#X obj 90 311 else/var \$0-knob;
#X obj 123 257 else/dispatch \$0-set-knob;
#X obj 123 220 route float;
#X obj 125 121 else/sender 1 \$0-presets;
#X connect 0 0 6 0;
#X connect 1 0 3 0;
#X connect 1 0 5 0;
#X connect 2 0 0 0;
#X connect 2 0 1 0;
#X connect 5 0 4 0;
#X restore 427 183 pd preset;
#N canvas 171 120 410 289 init-savestate 0;
#X obj 122 81 savestate;
#X obj 65 131 list;
#X obj 65 49 loadbang;
#X obj 65 208 else/dispatch \$0-set-knob \$0-set-GUI;
#X obj 202 53 else/var \$0-knob \$0-GUI;
#X obj 65 177 else/default 0 1;
#X obj 122 142 route list;
#X obj 122 115 list trim;
#X connect 0 0 7 0;
#X connect 0 1 4 0;
#X connect 1 0 5 0;
#X connect 2 0 1 0;
#X connect 4 0 0 0;
#X connect 5 0 3 0;
#X connect 6 0 1 1;
#X connect 7 0 6 0;
#X restore 371 153 pd init-savestate;
#X text 200 125 IN;
#X obj 57 340 *~;
#N canvas 617 145 540 454 GUI 0;
#X obj 76 186 else/limit 100;
#X msg 307 233 color 0 0 \$1;
#X obj 307 201 * 175;
#X obj 320 174 loadbang;
#X obj 76 74 r \$0-db;
#X msg 167 250 set \$1 dB;
#X msg 333 300 set \$1| dB;
#X obj 308 351 s \$0-db-label;
#X obj 76 214 select -100;
#X msg 76 251 set -inf dB;
#X obj 167 215 else/format %+.2f;
#X obj 307 140 r \$0-knob-active;
#X obj 333 269 r \$0-knob-typing;
#X obj 77 156 f;
#X obj 89 125 sel 0;
#N canvas 430 69 831 530 collapse 0;
#X obj 28 150 r \$0-uncollapse;
#X obj 302 425 r \$0-detatch;
#X obj 232 153 else/canvas.setname \$0-m 2;
#X obj 302 310 r \$0-set-GUI;
#X obj 302 391 s \$0-uncollapse;
#X obj 325 364 s \$0-collapse;
#X obj 302 336 sel 1 0;
#X obj 28 16 r \$0-collapse;
#X obj 302 452 message \; pd-\$0-level vis 1;
#X obj 28 184 else/message \; \$0-button readonly 0 \, transparent 2 \; pd-\$0-level donecanvasdialog 1 1 1 0 0 1 1 110 145 15 15 \, vis 0 \; \$0-cnv color #bbbbbb #000000 #000000 \; \$0-m goprect 200 125 121 170 \, dirty 0 \; \$0-GUI 1;
#X obj 28 45 else/message \; \$0-button readonly 1 \, transparent 3 \; pd-\$0-level donecanvasdialog 1 1 0 0 0 1 1 237 192 15 15 \; \$0-cnv color #dbdbdb #000000 #dbdbdb \; \$0-m goprect 200 325 111 44 \, dirty 0 \; \$0-GUI 0;
#X obj 510 78 r \$0-detatch-hover;
#X obj 585 444 s \$0-label-collapsed;
#X obj 562 310 sel 0 1;
#X obj 492 308 loadbang;
#X obj 530 107 else/canvas.edit 3;
#X obj 562 282 change;
#X obj 530 193 sel 1;
#X obj 510 220 f;
#X obj 530 166 t f f, f 10;
#X obj 530 136 == 0;
#X obj 510 246 spigot;
#X msg 560 392 label LEVEL \, label_font 0 24 \, label_pos 4 15, f 29;
#X msg 585 343 label ⤢ \, label_font 0 48 \, label_pos 30 12, f 25;
#X connect 0 0 9 0;
#X connect 1 0 8 0;
#X connect 3 0 6 0;
#X connect 6 0 4 0;
#X connect 6 1 5 0;
#X connect 7 0 10 0;
#X connect 11 0 18 0;
#X connect 13 0 22 0;
#X connect 13 1 23 0;
#X connect 14 0 22 0;
#X connect 15 0 20 0;
#X connect 16 0 13 0;
#X connect 17 0 18 0;
#X connect 17 1 16 0;
#X connect 18 0 21 0;
#X connect 19 0 17 0;
#X connect 19 1 21 1;
#X connect 20 0 19 0;
#X connect 21 0 16 0;
#X connect 22 0 12 0;
#X connect 23 0 12 0;
#X restore 292 79 pd collapse;
#X connect 0 0 8 0;
#X connect 1 0 7 0;
#X connect 2 0 1 0;
#X connect 3 0 2 0;
#X connect 4 0 13 0;
#X connect 5 0 7 0;
#X connect 6 0 7 0;
#X connect 8 0 9 0;
#X connect 8 1 10 0;
#X connect 9 0 7 0;
#X connect 10 0 5 0;
#X connect 11 0 2 0;
#X connect 11 0 14 0;
#X connect 12 0 6 0;
#X connect 13 0 0 0;
#X connect 14 0 13 0;
#X restore 371 183 pd GUI;
#N canvas 237 170 454 549 set-level 0;
#X obj 140 370 else/f2s~;
#X obj 139 180 * -1;
#X obj 139 211 pow 2;
#X obj 139 241 * -100;
#X obj 142 141 moses;
#X obj 192 182 * 12;
#X obj 139 333 else/db2lin;
#X obj 183 299 s \$0-db;
#X obj 139 103 r \$0-knob;
#X obj 140 408 outlet~;
#X connect 0 0 9 0;
#X connect 1 0 2 0;
#X connect 2 0 3 0;
#X connect 3 0 6 0;
#X connect 3 0 7 0;
#X connect 4 0 1 0;
#X connect 4 1 5 0;
#X connect 5 0 6 0;
#X connect 5 0 7 0;
#X connect 6 0 0 0;
#X connect 8 0 4 0;
#X restore 75 306 pd set-level;
#N canvas 237 217 360 466 set 0;
#X obj 97 31 inlet;
#X obj 97 208 clip -100 12;
#X obj 96 245 moses;
#X obj 148 274 / 12;
#X obj 96 286 / -100;
#X obj 96 310 sqrt;
#X obj 97 337 / -1;
#X obj 148 387 s \$0-set-knob;
#X obj 120 176 r \$0-knob-enter;
#X obj 97 69 route db gui;
#X obj 137 123 s \$0-set-GUI;
#X obj 137 98 != 0;
#X connect 0 0 9 0;
#X connect 1 0 2 0;
#X connect 2 0 4 0;
#X connect 2 1 3 0;
#X connect 3 0 7 0;
#X connect 4 0 5 0;
#X connect 5 0 6 0;
#X connect 6 0 7 0;
#X connect 8 0 1 0;
#X connect 9 0 1 0;
#X connect 9 1 11 0;
#X connect 11 0 10 0;
#X restore 96 98 pd set;
#X obj 205 333 cnv 19 80 29 empty \$0-label-collapsed LEVEL 4 15 0 24 #bbbbbb #000000 0;
#X obj 204 332 else/button 81 31 #bbbbbb #bbbbbb 2 1 2 0 0 \$0-detatch \$0-uncollapse-set;
#X obj 289 333 cnv 10 17 15 empty empty ▲ 5 8 0 12 #bbbbbb #000000 0;
#X obj 289 347 cnv 10 17 15 empty empty ▼ 5 5 0 12 #bbbbbb #000000 0;
#X obj 288 332 else/button 19 31 #e0e0e0 #808080 2 1 2 0 0 \$0-uncollapse empty;
#N canvas 821 250 151 182 \$0-level 0;
#N canvas 674 132 398 512 (subpatch) 0;
#X obj 112 112 cnv 15 108 143 empty empty empty 20 12 0 14 #dbdbdb #373737 0;
#X obj 138 160 else/knob 60 -1 1 0 0 \$0-knob \$0-set-knob #000000 #404040 #ffffff 0 0 0 0 1 320 0 0 0 empty empty 0 8 0 0 0 0 0 0 0 0;
#X obj 134 232 else/note 72 14 Menlo \$0-db-label 0 0 0 0 0 255 255 255 0 1 +0.00 dB;
#X obj 197 118 else/button 19 31 #e0e0e0 #808080 2 1 2 0 0 \$0-collapse \$0-button;
#X obj 198 119 cnv 10 17 15 empty \$0-cnv ▼ 5 8 0 12 #bbbbbb #000000 0;
#X obj 198 133 cnv 10 17 15 empty \$0-cnv ▲ 5 5 0 12 #bbbbbb #000000 0;
#X obj 116 118 else/note 76 24 Inter empty 5 54 54 54 0 187 187 187 1 2 LEVEL;
#X coords 0 1 100 -1 110 145 1 111 111;
#X restore 15 15 graph;
#X coords 0 0 1 1 110 145 1 15 15;
#X restore 206 143 pd \$0-level;
#N canvas 859 259 202 183 Learn 0;
#N canvas 357 34 761 770 db 0;
#X msg 173 469 forget;
#X obj 40 532 else/midi.learn 1;
#A saved;
#X obj 40 600 t f b;
#X obj 40 112 else/format \$0-%s-learn, f 11;
#X obj 40 162 else/receiver;
#X obj 173 195 else/receiver;
#X msg 90 259 Learn for \$1 knob activated, f 9;
#X obj 90 207 symbol;
#X obj 205 345 symbol;
#X msg 205 378 Forget for \$1 knob;
#X obj 473 721 else/format \$0-set-%s;
#X obj 187 405 print [adsr.m~]:;
#X msg 442 311 learn;
#X msg 467 348 forget;
#X obj 432 403 else/receiver 1;
#X obj 564 401 else/route2 none;
#X msg 564 448 none;
#X obj 173 166 else/format \$0-%s-forget;
#X obj 189 121 else/sender -local sym;
#X obj 260 339 else/receiver -local sym, f 13;
#X obj 473 694 else/receiver -local sym;
#N canvas 268 234 610 478 savestate 0;
#X obj 235 409 outlet;
#X obj 101 283 route bang;
#X obj 339 213 else/format rcv-%s;
#X obj 101 255 route x, f 9;
#X obj 101 224 list trim;
#X obj 168 317 route none;
#X obj 235 359 symbol;
#X obj 239 215 list;
#X obj 264 159 list prepend, f 7;
#X obj 101 164 savestate;
#X obj 263 41 inlet;
#X obj 342 41 inlet;
#X obj 367 135 print [receiver] learn:;
#X obj 367 104 list trim;
#X connect 1 1 5 0;
#X connect 1 1 8 0;
#X connect 2 0 3 1;
#X connect 2 0 8 1;
#X connect 3 0 1 0;
#X connect 4 0 3 0;
#X connect 5 1 6 0;
#X connect 6 0 0 0;
#X connect 7 0 9 0;
#X connect 8 0 7 1;
#X connect 9 0 4 0;
#X connect 9 1 7 0;
#X connect 10 0 8 0;
#X connect 10 0 13 0;
#X connect 11 0 2 0;
#X connect 13 0 12 0;
#X restore 564 495 pd savestate;
#X obj 645 454 else/receiver -local sym, f 13;
#N canvas 251 108 631 527 savestate 0;
#X obj 168 340 outlet;
#X obj 101 261 route bang;
#X obj 101 233 route x, f 9;
#X obj 101 202 list trim;
#X obj 239 193 list;
#X obj 264 137 list prepend, f 7;
#X obj 101 142 savestate;
#X obj 263 79 inlet;
#X obj 342 96 inlet;
#X obj 339 191 else/format %s-learn;
#X obj 168 295 else/insert teach;
#X connect 1 1 5 0;
#X connect 1 1 10 0;
#X connect 2 0 1 0;
#X connect 3 0 2 0;
#X connect 4 0 6 0;
#X connect 5 0 4 1;
#X connect 6 0 3 0;
#X connect 6 1 4 0;
#X connect 7 0 5 0;
#X connect 8 0 9 0;
#X connect 9 0 2 1;
#X connect 9 0 5 1;
#X connect 10 0 0 0;
#X restore 156 579 pd savestate;
#X obj 237 550 else/receiver -local sym;
#X obj 173 22 else/loadbanger -init;
#X obj 433 706 s;
#X msg 40 453 learn;
#X obj 40 200 t b b;
#X obj 173 277 t b b;
#X obj 40 506 else/changed;
#X obj 442 375 else/changed;
#X obj 72 398 send \$0-deactivate, f 13;
#X msg 72 370 deactivate;
#X obj 187 433 r \$0-deactivate;
#X obj 431 266 r \$0-deactivate;
#X obj 173 55 symbol knob;
#X obj 433 659 else/rescale -1 1;
#X connect 0 0 30 0;
#X connect 1 0 2 0;
#X connect 1 1 23 0;
#X connect 2 0 37 0;
#X connect 2 1 13 0;
#X connect 3 0 4 0;
#X connect 4 0 28 0;
#X connect 5 0 29 0;
#X connect 6 0 11 0;
#X connect 7 0 6 0;
#X connect 8 0 9 0;
#X connect 9 0 11 0;
#X connect 10 0 26 1;
#X connect 12 0 31 0;
#X connect 13 0 31 0;
#X connect 14 0 37 0;
#X connect 14 1 15 0;
#X connect 15 0 16 0;
#X connect 15 1 21 0;
#X connect 15 1 0 0;
#X connect 16 0 21 0;
#X connect 17 0 5 0;
#X connect 19 0 8 1;
#X connect 20 0 10 0;
#X connect 21 0 14 0;
#X connect 22 0 21 1;
#X connect 23 0 1 0;
#X connect 24 0 23 1;
#X connect 25 0 36 0;
#X connect 27 0 30 0;
#X connect 28 0 27 0;
#X connect 28 0 12 0;
#X connect 28 1 7 0;
#X connect 28 1 33 0;
#X connect 29 0 0 0;
#X connect 29 0 13 0;
#X connect 29 1 8 0;
#X connect 30 0 1 0;
#X connect 31 0 14 0;
#X connect 33 0 32 0;
#X connect 34 0 30 0;
#X connect 35 0 14 0;
#X connect 36 0 3 0;
#X connect 36 0 17 0;
#X connect 36 0 18 0;
#X connect 36 0 7 1;
#X connect 37 0 26 0;
#X restore 76 52 pd db;
#X restore 399 212 pd Learn;
#X connect 0 0 5 0;
#X connect 0 1 8 0;
#X connect 5 0 1 0;
#X connect 7 0 5 1;
#X coords 0 1 100 -1 121 170 2 200 125;
