#N canvas 627 52 653 622 12;
#X obj 57 66 inlet~;
#X obj 57 520 outlet~;
#N canvas 243 43 499 411 preset 0;
#X obj 125 121 else/sender 1 \\\$0-presets;
#X msg 125 86 name \$1;
#X obj 90 171 else/receiver;
#N canvas 468 182 491 352 id-name-init 0;
#X obj 165 113 + 1;
#X obj 257 100 else/dollsym 1;
#X obj 141 80 value;
#X obj 141 252 outlet;
#X obj 141 51 else/loadbanger 2;
#X obj 141 201 else/dollsym 1;
#X obj 257 76 symbol gain-id_\\\$0;
#X obj 141 166 makefilename \\\$0-gain-%d;
#X connect 0 0 2 0;
#X connect 1 0 2 1;
#X connect 2 0 0 0;
#X connect 2 0 7 0;
#X connect 4 0 2 0;
#X connect 4 1 6 0;
#X connect 5 0 3 0;
#X connect 6 0 1 0;
#X connect 7 0 5 0;
#X restore 90 39 pd id-name-init;
#X obj 90 311 else/var \$0-knob;
#X obj 123 257 else/dispatch \$0-set-knob;
#X obj 123 220 route float;
#X connect 1 0 0 0;
#X connect 2 0 4 0;
#X connect 2 0 6 0;
#X connect 3 0 1 0;
#X connect 3 0 2 0;
#X connect 6 0 5 0;
#X restore 252 422 pd preset;
#N canvas 171 120 601 317 init-savestate 0;
#X obj 106 75 savestate;
#X obj 49 125 list;
#X obj 49 43 loadbang;
#X obj 106 136 route float;
#X obj 49 171 else/default 0;
#X obj 49 222 else/dispatch \$0-set-knob;
#X obj 166 107 else/var \$0-knob;
#X connect 0 0 3 0;
#X connect 0 1 6 0;
#X connect 1 0 4 0;
#X connect 2 0 1 0;
#X connect 3 0 1 1;
#X connect 4 0 5 0;
#X connect 6 0 0 0;
#X restore 193 389 pd init-savestate;
#X text 200 125 IN;
#N canvas 674 132 398 512 (subpatch) 0;
#X obj 112 112 cnv 15 95 146 empty empty empty 20 12 0 14 #dbdbdb #373737 0;
#X obj 126 158 else/knob 60 -1 1 0 0 \$0-knob \$0-set-knob #000000 #404040 #ffffff 0 0 0 0 1 320 0 0 0 empty empty 0 8 0 0 0 0 0 0 0 0;
#X obj 125 121 else/note 62 18 Inter empty 5 54 54 54 0 187 187 187 1 1 LEVEL;
#X obj 122 232 else/note 72 14 Menlo \$0-db-label 0 0 0 0 0 255 255 255 0 1 +0.00 dB;
#X coords 0 1 100 -1 97 148 1 111 111;
#X restore 208 147 graph;
#X obj 57 340 *~, f 4;
#N canvas 859 259 251 248 MIDI-learn 0;
#N canvas 776 312 577 472 db-knob 0;
#X msg 114 218 forget;
#X obj 240 221 savestate;
#X obj 300 268 list;
#X obj 240 326 else/insert teach;
#X obj 96 270 else/midi.learn 1;
#A saved;
#X obj 94 34 r \$0-db-learn;
#X obj 113 91 print [gain.m~]:;
#X obj 127 189 print [gain.m~]:;
#X obj 114 129 r \$0-db-forget;
#X obj 96 404 s \$0-set-db;
#X obj 325 243 list prepend db-learn;
#X obj 240 297 else/route2 db-learn;
#X msg 113 64 MIDI-learn for dB knob activated;
#X msg 127 164 MIDI-forget for dB knob;
#X obj 96 366 else/rescale -24 24;
#X connect 0 0 4 0;
#X connect 1 0 11 0;
#X connect 1 1 2 0;
#X connect 2 0 1 0;
#X connect 3 0 4 0;
#X connect 4 0 14 0;
#X connect 4 1 10 0;
#X connect 5 0 12 0;
#X connect 5 0 4 0;
#X connect 8 0 0 0;
#X connect 8 0 13 0;
#X connect 10 0 2 1;
#X connect 11 0 3 0;
#X connect 12 0 6 0;
#X connect 13 0 7 0;
#X connect 14 0 9 0;
#X restore 52 67 pd db-knob;
#X restore 208 454 pd MIDI-learn;
#N canvas 617 145 540 454 GUI 0;
#X obj 76 186 else/limit 100;
#X msg 307 233 color 0 0 \$1;
#X obj 307 201 * 175;
#X obj 320 174 loadbang;
#X obj 76 74 r \$0-db;
#X msg 167 250 set \$1 dB;
#X msg 333 300 set \$1| dB;
#X obj 308 351 s \$0-db-label;
#X obj 76 214 select -100;
#X msg 76 251 set -inf dB;
#X obj 167 215 else/format %+.2f;
#X obj 307 140 r \$0-knob-active;
#X obj 333 269 r \$0-knob-typing;
#X obj 77 156 f;
#X obj 89 125 sel 0;
#X connect 0 0 8 0;
#X connect 1 0 7 0;
#X connect 2 0 1 0;
#X connect 3 0 2 0;
#X connect 4 0 13 0;
#X connect 5 0 7 0;
#X connect 6 0 7 0;
#X connect 8 0 9 0;
#X connect 8 1 10 0;
#X connect 9 0 7 0;
#X connect 10 0 5 0;
#X connect 11 0 2 0;
#X connect 11 0 14 0;
#X connect 12 0 6 0;
#X connect 13 0 0 0;
#X connect 14 0 13 0;
#X restore 190 422 pd GUI;
#N canvas 237 170 454 549 set-level 0;
#X obj 140 370 else/f2s~;
#X obj 139 180 * -1;
#X obj 139 211 pow 2;
#X obj 139 241 * -100;
#X obj 142 141 moses;
#X obj 192 182 * 12;
#X obj 139 333 else/db2lin;
#X obj 183 299 s \$0-db;
#X obj 139 103 r \$0-knob;
#X obj 140 408 outlet~;
#X connect 0 0 9 0;
#X connect 1 0 2 0;
#X connect 2 0 3 0;
#X connect 3 0 6 0;
#X connect 3 0 7 0;
#X connect 4 0 1 0;
#X connect 4 1 5 0;
#X connect 5 0 6 0;
#X connect 5 0 7 0;
#X connect 6 0 0 0;
#X connect 8 0 4 0;
#X restore 82 306 pd set-level;
#N canvas 237 217 449 378 set 0;
#X obj 113 47 inlet;
#X obj 118 85 route db;
#X obj 115 144 clip -100 12;
#X obj 114 181 moses;
#X obj 145 210 / 12;
#X obj 69 224 / -100;
#X obj 69 248 sqrt;
#X obj 72 273 / -1;
#X obj 123 323 s \$0-set-knob;
#X obj 149 112 r \$0-knob-enter;
#X connect 0 0 1 0;
#X connect 1 0 2 0;
#X connect 2 0 3 0;
#X connect 3 0 5 0;
#X connect 3 1 4 0;
#X connect 4 0 8 0;
#X connect 5 0 6 0;
#X connect 6 0 7 0;
#X connect 7 0 8 0;
#X connect 9 0 2 0;
#X restore 97 98 pd set;
#X connect 0 0 6 0;
#X connect 0 1 10 0;
#X connect 6 0 1 0;
#X connect 9 0 6 1;
#X coords 0 1 100 -1 114 180 2 200 125;
