#N canvas 583 53 595 458 12;
#X obj 39 35 inlet~;
#X obj 39 372 outlet~;
#N canvas 243 43 498 403 preset 0;
#X msg 125 86 name \$1;
#X obj 90 171 else/receiver;
#X obj 123 220 route list;
#N canvas 477 117 491 352 id-name-init 0;
#X obj 165 113 + 1;
#X obj 257 100 else/dollsym 1;
#X obj 141 80 value;
#X obj 141 252 outlet;
#X obj 141 51 else/loadbanger 2;
#X obj 141 201 else/dollsym 1;
#X obj 257 76 symbol phaser-id_\\\$0;
#X obj 141 166 makefilename \\\$0-phaser-%d;
#X connect 0 0 2 0;
#X connect 1 0 2 1;
#X connect 2 0 0 0;
#X connect 2 0 7 0;
#X connect 4 0 2 0;
#X connect 4 1 6 0;
#X connect 5 0 3 0;
#X connect 6 0 1 0;
#X connect 7 0 5 0;
#X restore 90 39 pd id-name-init;
#X obj 125 121 else/sender 1 \\\$0-presets;
#X obj 123 257 else/dispatch \$0-set-rate \$0-set-fb \$0-set-wet \$0-set-att-rate \$0-set-att-q \$0-set-att-wet;
#X obj 90 311 else/var \$0-rate \$0-fb \$0-wet \$0-att-rate \$0-att-q \$0-att-wet, f 31;
#X connect 0 0 4 0;
#X connect 1 0 2 0;
#X connect 1 0 6 0;
#X connect 2 0 5 0;
#X connect 3 0 0 0;
#X connect 3 0 1 0;
#X restore 491 200 pd preset;
#N canvas 171 120 601 317 init-savestate 0;
#X obj 140 66 savestate;
#X obj 49 125 list;
#X obj 49 43 loadbang;
#X obj 97 126 route list;
#X obj 97 99 list trim;
#X obj 200 98 else/var \$0-rate \$0-fb \$0-wet \$0-GUI \$0-att-rate \$0-att-q \$0-att-wet, f 36;
#X obj 49 222 else/dispatch \$0-set-rate \$0-set-fb \$0-set-wet \$0-set-GUI \$0-set-att-rate \$0-set-att-q \$0-set-att-wet;
#X obj 49 171 else/default 0.1 0 0.5 1 0 0 0;
#X connect 0 0 4 0;
#X connect 0 1 5 0;
#X connect 1 0 7 0;
#X connect 2 0 1 0;
#X connect 3 0 1 1;
#X connect 4 0 3 0;
#X connect 5 0 0 0;
#X connect 7 0 6 0;
#X restore 433 172 pd init-savestate;
#N canvas 200 115 597 413 GUI 0;
#X msg 103 121 active 0;
#X msg 84 181 active 1;
#X obj 84 92 r \$0-rate-tab;
#X obj 103 149 s \$0-set-rate;
#X msg 263 119 active 0;
#X msg 243 179 active 1;
#X obj 243 207 s \$0-set-wet;
#X msg 417 124 active 0;
#X msg 397 184 active 1;
#X obj 398 95 r \$0-wet-tab;
#X obj 417 152 s \$0-set-wet;
#X obj 397 212 s \$0-set-rate;
#N canvas 179 216 814 478 collapse 0;
#X obj 28 150 r \$0-uncollapse;
#X obj 276 354 r \$0-detatch;
#X obj 232 153 else/canvas.setname \$0-m 2;
#X obj 120 325 r \$0-set-GUI;
#X obj 120 410 s \$0-uncollapse;
#X obj 143 383 s \$0-collapse;
#X obj 120 355 sel 1 0;
#X obj 28 16 r \$0-collapse;
#X obj 276 381 message \; pd-\$0-phaser vis 1;
#X obj 503 40 r \$0-detatch-hover;
#X obj 578 406 s \$0-label-collapsed;
#X obj 555 272 sel 0 1;
#X msg 578 305 label ⤢ \, label_font 0 48 \, label_pos 34 12, f 25;
#X obj 485 270 loadbang;
#X obj 523 69 else/canvas.edit 3;
#X obj 555 244 change;
#X obj 523 155 sel 1;
#X obj 503 182 f;
#X obj 523 128 t f f, f 10;
#X obj 523 98 == 0;
#X obj 503 208 spigot;
#X msg 553 354 label PHASER \, label_font 0 24 \, label_pos 4 15, f 30;
#X obj 28 184 else/message \; \$0-button readonly 0 \, transparent 2 \; pd-\$0-phaser donecanvasdialog 1 1 1 0 0 1 1 177 190 15 15 \, vis 0 \; \$0-cnv color #bbbbbb #000000 #000000 \; \$0-m goprect 200 125 197 225 \, dirty 0 \; \$0-GUI 1;
#X obj 28 45 else/message \; \$0-button readonly 1 \, transparent 3 \; pd-\$0-phaser donecanvasdialog 1 1 0 0 0 1 1 177 190 15 15 \; \$0-cnv color #dbdbdb #000000 #dbdbdb \; \$0-m goprect 225 350 138 44 \, dirty 0 \; \$0-GUI 0;
#X connect 0 0 22 0;
#X connect 1 0 8 0;
#X connect 3 0 6 0;
#X connect 6 0 4 0;
#X connect 6 1 5 0;
#X connect 7 0 23 0;
#X connect 9 0 17 0;
#X connect 11 0 21 0;
#X connect 11 1 12 0;
#X connect 12 0 10 0;
#X connect 13 0 21 0;
#X connect 14 0 19 0;
#X connect 15 0 11 0;
#X connect 16 0 17 0;
#X connect 16 1 15 0;
#X connect 17 0 20 0;
#X connect 18 0 16 0;
#X connect 18 1 20 1;
#X connect 19 0 18 0;
#X connect 20 0 15 0;
#X connect 21 0 10 0;
#X restore 245 27 pd collapse;
#N canvas 333 356 755 572 att-rate 0;
#X obj 52 122 sel 0 1;
#X msg 52 213 set;
#X obj 164 140 spigot;
#X msg 164 435 set \$1;
#X obj 164 403 else/format %.2f;
#X msg 295 423 set \$1|;
#X obj 52 55 else/hot;
#X obj 52 85 ||;
#X obj 65 183 loadbang;
#X obj 492 373 expr copysign(sqrt(abs($f1)) \, $f1);
#X obj 445 181 expr copysign(pow($f1 \, 2) \, $f1);
#X obj 164 211 expr copysign(pow($f1 \, 2) \, $f1);
#X msg 492 436 set \$1;
#X obj 468 330 else/nmess 1;
#X obj 549 305 b;
#X obj 52 23 r \$0-att-rate-hover;
#X obj 121 53 r \$0-att-rate-active;
#X obj 290 56 r \$0-att-rate;
#X obj 185 179 v \$0-att-rate;
#X obj 295 249 r \$0-att-rate-typing;
#X obj 467 248 r \$0-att-rate-enter;
#X obj 506 403 v \$0-att-rate;
#X obj 492 463 s \$0-set-att-rate;
#X obj 444 506 s \$0-real-att-rate;
#X obj 164 476 s \$0-att-rate#;
#X floatatom 298 128 5 0 0 0 - - - 0;
#X connect 0 0 1 0;
#X connect 0 1 18 0;
#X connect 1 0 24 0;
#X connect 2 0 11 0;
#X connect 3 0 24 0;
#X connect 4 0 3 0;
#X connect 5 0 24 0;
#X connect 6 0 7 0;
#X connect 6 1 7 1;
#X connect 7 0 0 0;
#X connect 7 0 2 1;
#X connect 8 0 1 0;
#X connect 9 0 12 0;
#X connect 9 0 21 0;
#X connect 10 0 23 0;
#X connect 11 0 4 0;
#X connect 12 0 22 0;
#X connect 13 0 9 0;
#X connect 13 0 4 0;
#X connect 13 0 23 0;
#X connect 14 0 13 1;
#X connect 15 0 6 0;
#X connect 16 0 6 1;
#X connect 17 0 2 0;
#X connect 17 0 10 0;
#X connect 17 0 25 0;
#X connect 18 0 11 0;
#X connect 19 0 5 0;
#X connect 19 0 14 0;
#X connect 20 0 13 0;
#X restore 252 275 pd att-rate;
#N canvas 661 151 755 572 att-wet 0;
#X obj 52 122 sel 0 1;
#X msg 52 213 set;
#X obj 164 140 spigot;
#X msg 164 435 set \$1;
#X obj 164 403 else/format %.2f;
#X msg 295 423 set \$1|;
#X obj 52 55 else/hot;
#X obj 52 85 ||;
#X obj 65 183 loadbang;
#X obj 492 373 expr copysign(sqrt(abs($f1)) \, $f1);
#X obj 445 181 expr copysign(pow($f1 \, 2) \, $f1);
#X obj 164 211 expr copysign(pow($f1 \, 2) \, $f1);
#X msg 492 436 set \$1;
#X obj 468 330 else/nmess 1;
#X obj 549 305 b;
#X obj 52 23 r \$0-att-wet-hover;
#X obj 121 53 r \$0-att-wet-active;
#X obj 290 56 r \$0-att-wet;
#X obj 185 179 v \$0-att-wet;
#X obj 295 249 r \$0-att-wet-typing;
#X obj 468 248 r \$0-att-wet-enter;
#X obj 506 403 v \$0-att-wet;
#X obj 492 463 s \$0-set-att-wet;
#X obj 164 476 s \$0-att-wet#;
#X obj 444 506 s \$0-real-att-wet;
#X connect 0 0 1 0;
#X connect 0 1 18 0;
#X connect 1 0 23 0;
#X connect 2 0 11 0;
#X connect 3 0 23 0;
#X connect 4 0 3 0;
#X connect 5 0 23 0;
#X connect 6 0 7 0;
#X connect 6 1 7 1;
#X connect 7 0 0 0;
#X connect 7 0 2 1;
#X connect 8 0 1 0;
#X connect 9 0 12 0;
#X connect 9 0 21 0;
#X connect 10 0 24 0;
#X connect 11 0 4 0;
#X connect 12 0 22 0;
#X connect 13 0 9 0;
#X connect 13 0 4 0;
#X connect 13 0 24 0;
#X connect 14 0 13 1;
#X connect 15 0 6 0;
#X connect 16 0 6 1;
#X connect 17 0 2 0;
#X connect 17 0 10 0;
#X connect 18 0 11 0;
#X connect 19 0 5 0;
#X connect 19 0 14 0;
#X connect 20 0 13 0;
#X restore 252 326 pd att-wet;
#X obj 244 90 r \$0-fb-tab;
#X obj 84 209 s \$0-set-fb;
#N canvas 577 127 790 577 att-fb 0;
#X obj 52 122 sel 0 1;
#X msg 52 213 set;
#X obj 164 140 spigot;
#X msg 164 435 set \$1;
#X obj 164 403 else/format %.2f;
#X msg 295 423 set \$1|;
#X obj 52 55 else/hot;
#X obj 52 85 ||;
#X obj 65 183 loadbang;
#X obj 492 373 expr copysign(sqrt(abs($f1)) \, $f1);
#X obj 445 181 expr copysign(pow($f1 \, 2) \, $f1);
#X obj 164 211 expr copysign(pow($f1 \, 2) \, $f1);
#X msg 492 436 set \$1;
#X obj 468 330 else/nmess 1;
#X obj 549 305 b;
#X obj 52 23 r \$0-att-q-hover;
#X obj 290 56 r \$0-att-fb;
#X obj 121 53 r \$0-att-fb-active;
#X obj 295 249 r \$0-att-fb-typing;
#X obj 467 248 r \$0-att-fb-enter;
#X obj 185 179 v \$0-att-fb;
#X obj 164 476 s \$0-att-fb#;
#X obj 444 506 s \$0-real-att-fb;
#X obj 492 463 s \$0-set-att-fb;
#X obj 506 403 v \$0-att-fb;
#X connect 0 0 1 0;
#X connect 0 1 20 0;
#X connect 1 0 21 0;
#X connect 2 0 11 0;
#X connect 3 0 21 0;
#X connect 4 0 3 0;
#X connect 5 0 21 0;
#X connect 6 0 7 0;
#X connect 6 1 7 1;
#X connect 7 0 0 0;
#X connect 7 0 2 1;
#X connect 8 0 1 0;
#X connect 9 0 12 0;
#X connect 9 0 24 0;
#X connect 10 0 22 0;
#X connect 11 0 4 0;
#X connect 12 0 23 0;
#X connect 13 0 9 0;
#X connect 13 0 4 0;
#X connect 13 0 22 0;
#X connect 14 0 13 1;
#X connect 15 0 6 0;
#X connect 16 0 2 0;
#X connect 16 0 10 0;
#X connect 17 0 6 1;
#X connect 18 0 5 0;
#X connect 18 0 14 0;
#X connect 19 0 13 0;
#X connect 20 0 11 0;
#X restore 252 301 pd att-fb;
#X obj 263 147 s \$0-set-fb;
#X connect 0 0 3 0;
#X connect 1 0 16 0;
#X connect 2 0 0 0;
#X connect 2 0 1 0;
#X connect 4 0 18 0;
#X connect 5 0 6 0;
#X connect 7 0 10 0;
#X connect 8 0 11 0;
#X connect 9 0 7 0;
#X connect 9 0 8 0;
#X connect 15 0 4 0;
#X connect 15 0 5 0;
#X restore 431 200 pd GUI;
#X text 201 128 IN;
#X obj 235 358 cnv 19 95 29 empty \$0-label-collapsed PHASER 4 15 0 24 #bbbbbb #000000 0;
#X obj 234 357 else/button 97 31 #bbbbbb #bbbbbb 2 1 2 0 0 \$0-detatch \$0-uncollapse-set;
#X obj 338 358 cnv 10 17 15 empty empty ▲ 5 8 0 12 #bbbbbb #000000 0;
#X obj 338 372 cnv 10 17 15 empty empty ▼ 5 5 0 12 #bbbbbb #000000 0;
#X obj 337 357 else/button 19 31 #e0e0e0 #808080 2 1 2 0 0 \$0-uncollapse empty;
#N canvas 854 63 212 243 \$0-phaser 0;
#N canvas 983 221 394 451 (subpatch) 0;
#X obj 112 112 cnv 15 175 188 empty empty empty 20 12 0 14 #dbdbdb #373737 0;
#X obj 121 179 else/knob 41 0.1 5 4 0.1 \$0-rate \$0-set-rate #dfdfdf #bbbbbb #000000 0 0 0 0 1 320 0 0 0.1 empty empty 4 10 -2 46 0 0 0 0 0 0 0.1;
#X obj 172 179 else/knob 41 -1 1 0 0 \$0-fb \$0-set-fb #dfdfdf #afafaf #000000 0 0 0 0 1 320 0 0 0 empty empty 4 10 -2 46 0 0 0 0 0 0 0;
#X obj 232 179 else/knob 41 0 1 0 0 \$0-wet \$0-set-wet #9f9f9f #afafaf #000000 0 0 0 0 1 320 0 0 0 empty empty 4 10 -2 46 0 0 0 0 0 0 0;
#X text 225 160 Dry/Wet;
#X text 126 160 Rate;
#X obj 134 121 else/note 104 24 Inter empty 5 54 54 54 0 187 187 187 1 1 PHASER;
#X obj 246 121 else/button 19 31 #e0e0e0 #808080 2 1 2 0 0 \$0-collapse \$0-button;
#X obj 247 122 cnv 10 17 15 empty \$0-cnv ▼ 5 8 0 12 #bbbbbb #000000 0;
#X obj 247 136 cnv 10 17 15 empty \$0-cnv ▲ 5 5 0 12 #bbbbbb #000000 0;
#X obj 124 254 else/knob 35 -1 1 0 0 \$0-att-rate \$0-set-att-rate #bbbbbb #7c7c7c #000000 0 0 0 0 1 320 0 0 0 empty empty 0 8 0 0 0 0 0 0 0 0 0;
#X obj 235 253 else/knob 35 -1 1 0 0 \$0-att-wet \$0-set-att-wet #bbbbbb #7c7c7c #000000 0 0 0 0 1 320 0 0 0 empty empty 0 8 0 0 0 0 0 0 0 0 0;
#X obj 175 253 else/knob 35 -1 1 0 0 \$0-att-fb \$0-set-att-fb #bbbbbb #7c7c7c #000000 0 0 0 0 1 320 0 0 0 empty empty 0 8 0 0 0 0 0 0 0 0 0;
#X text 124 232 --- Attenuverters ---;
#X obj 123 289 else/note 35 9 Menlo \$0-att-rate# 0 0 0 0 0 255 255 255 0 1;
#X obj 174 288 else/note 35 9 Menlo \$0-att-fb# 0 0 0 0 0 255 255 255 0 1;
#X obj 234 288 else/note 35 9 Menlo \$0-att-wet# 0 0 0 0 0 255 255 255 0 1;
#X text 182 160 FB;
#X coords 0 1 100 -1 177 190 1 111 111;
#X restore 15 15 graph;
#X coords 0 0 1 1 177 190 1 15 15;
#X restore 209 149 pd \$0-phaser;
#N canvas 632 264 251 356 Learn 0;
#N canvas 357 38 761 758 rate 0;
#X msg 173 469 forget;
#X obj 40 532 else/midi.learn 1;
#A saved;
#X obj 40 600 t f b;
#X obj 40 112 else/format \$0-%s-learn, f 11;
#X obj 40 162 else/receiver;
#X obj 173 195 else/receiver;
#X msg 90 259 Learn for \$1 knob activated, f 9;
#X obj 90 207 symbol;
#X obj 205 345 symbol;
#X msg 205 378 Forget for \$1 knob;
#X obj 473 721 else/format \$0-set-%s;
#X msg 442 311 learn;
#X msg 467 348 forget;
#X obj 432 403 else/receiver 1;
#X obj 564 401 else/route2 none;
#X msg 564 448 none;
#X obj 173 166 else/format \$0-%s-forget;
#X obj 189 121 else/sender -local sym;
#X obj 260 339 else/receiver -local sym, f 13;
#X obj 473 694 else/receiver -local sym;
#N canvas 268 234 610 478 savestate 0;
#X obj 235 409 outlet;
#X obj 101 283 route bang;
#X obj 339 213 else/format rcv-%s;
#X obj 101 255 route x, f 9;
#X obj 101 224 list trim;
#X obj 168 317 route none;
#X obj 235 359 symbol;
#X obj 239 215 list;
#X obj 264 159 list prepend, f 7;
#X obj 101 164 savestate;
#X obj 263 41 inlet;
#X obj 342 41 inlet;
#X obj 367 135 print [receiver] learn:;
#X obj 367 104 list trim;
#X connect 1 1 5 0;
#X connect 1 1 8 0;
#X connect 2 0 3 1;
#X connect 2 0 8 1;
#X connect 3 0 1 0;
#X connect 4 0 3 0;
#X connect 5 1 6 0;
#X connect 6 0 0 0;
#X connect 7 0 9 0;
#X connect 8 0 7 1;
#X connect 9 0 4 0;
#X connect 9 1 7 0;
#X connect 10 0 8 0;
#X connect 10 0 13 0;
#X connect 11 0 2 0;
#X connect 13 0 12 0;
#X restore 564 495 pd savestate;
#X obj 645 454 else/receiver -local sym, f 13;
#N canvas 251 108 631 527 savestate 0;
#X obj 168 340 outlet;
#X obj 101 261 route bang;
#X obj 101 233 route x, f 9;
#X obj 101 202 list trim;
#X obj 239 193 list;
#X obj 264 137 list prepend, f 7;
#X obj 101 142 savestate;
#X obj 263 79 inlet;
#X obj 342 96 inlet;
#X obj 339 191 else/format %s-learn;
#X obj 168 295 else/insert teach;
#X connect 1 1 5 0;
#X connect 1 1 10 0;
#X connect 2 0 1 0;
#X connect 3 0 2 0;
#X connect 4 0 6 0;
#X connect 5 0 4 1;
#X connect 6 0 3 0;
#X connect 6 1 4 0;
#X connect 7 0 5 0;
#X connect 8 0 9 0;
#X connect 9 0 2 1;
#X connect 9 0 5 1;
#X connect 10 0 0 0;
#X restore 156 579 pd savestate;
#X obj 237 550 else/receiver -local sym;
#X obj 173 22 else/loadbanger -init;
#X obj 433 706 s;
#X msg 40 453 learn;
#X obj 40 200 t b b;
#X obj 173 277 t b b;
#X obj 40 506 else/changed;
#X obj 442 375 else/changed;
#X obj 72 398 send \$0-deactivate, f 13;
#X msg 72 370 deactivate;
#X obj 187 433 r \$0-deactivate;
#X obj 431 266 r \$0-deactivate;
#X obj 173 55 symbol rate;
#X obj 433 659 else/rescale -exp 4 0.1 5;
#X obj 187 405 print [phaser.m~]:;
#X connect 0 0 29 0;
#X connect 1 0 2 0;
#X connect 1 1 22 0;
#X connect 2 0 36 0;
#X connect 2 1 12 0;
#X connect 3 0 4 0;
#X connect 4 0 27 0;
#X connect 5 0 28 0;
#X connect 6 0 37 0;
#X connect 7 0 6 0;
#X connect 8 0 9 0;
#X connect 9 0 37 0;
#X connect 10 0 25 1;
#X connect 11 0 30 0;
#X connect 12 0 30 0;
#X connect 13 0 36 0;
#X connect 13 1 14 0;
#X connect 14 0 15 0;
#X connect 14 1 20 0;
#X connect 14 1 0 0;
#X connect 15 0 20 0;
#X connect 16 0 5 0;
#X connect 18 0 8 1;
#X connect 19 0 10 0;
#X connect 20 0 13 0;
#X connect 21 0 20 1;
#X connect 22 0 1 0;
#X connect 23 0 22 1;
#X connect 24 0 35 0;
#X connect 26 0 29 0;
#X connect 27 0 26 0;
#X connect 27 0 11 0;
#X connect 27 1 7 0;
#X connect 27 1 32 0;
#X connect 28 0 0 0;
#X connect 28 0 12 0;
#X connect 28 1 8 0;
#X connect 29 0 1 0;
#X connect 30 0 13 0;
#X connect 32 0 31 0;
#X connect 33 0 29 0;
#X connect 34 0 13 0;
#X connect 35 0 3 0;
#X connect 35 0 16 0;
#X connect 35 0 17 0;
#X connect 35 0 7 1;
#X connect 36 0 25 0;
#X restore 86 76 pd rate;
#N canvas 357 38 761 758 wet 0;
#X msg 173 469 forget;
#X obj 40 532 else/midi.learn 1;
#A saved;
#X obj 40 600 t f b;
#X obj 40 112 else/format \$0-%s-learn, f 11;
#X obj 40 162 else/receiver;
#X obj 173 195 else/receiver;
#X msg 90 259 Learn for \$1 knob activated, f 9;
#X obj 90 207 symbol;
#X obj 205 345 symbol;
#X msg 205 378 Forget for \$1 knob;
#X obj 473 721 else/format \$0-set-%s;
#X msg 442 311 learn;
#X msg 467 348 forget;
#X obj 432 403 else/receiver 1;
#X obj 564 401 else/route2 none;
#X msg 564 448 none;
#X obj 173 166 else/format \$0-%s-forget;
#X obj 189 121 else/sender -local sym;
#X obj 260 339 else/receiver -local sym, f 13;
#X obj 473 694 else/receiver -local sym;
#N canvas 268 234 610 478 savestate 0;
#X obj 235 409 outlet;
#X obj 101 283 route bang;
#X obj 339 213 else/format rcv-%s;
#X obj 101 255 route x, f 9;
#X obj 101 224 list trim;
#X obj 168 317 route none;
#X obj 235 359 symbol;
#X obj 239 215 list;
#X obj 264 159 list prepend, f 7;
#X obj 101 164 savestate;
#X obj 263 41 inlet;
#X obj 342 41 inlet;
#X obj 367 135 print [receiver] learn:;
#X obj 367 104 list trim;
#X connect 1 1 5 0;
#X connect 1 1 8 0;
#X connect 2 0 3 1;
#X connect 2 0 8 1;
#X connect 3 0 1 0;
#X connect 4 0 3 0;
#X connect 5 1 6 0;
#X connect 6 0 0 0;
#X connect 7 0 9 0;
#X connect 8 0 7 1;
#X connect 9 0 4 0;
#X connect 9 1 7 0;
#X connect 10 0 8 0;
#X connect 10 0 13 0;
#X connect 11 0 2 0;
#X connect 13 0 12 0;
#X restore 564 495 pd savestate;
#X obj 645 454 else/receiver -local sym, f 13;
#N canvas 251 108 631 527 savestate 0;
#X obj 168 340 outlet;
#X obj 101 261 route bang;
#X obj 101 233 route x, f 9;
#X obj 101 202 list trim;
#X obj 239 193 list;
#X obj 264 137 list prepend, f 7;
#X obj 101 142 savestate;
#X obj 263 79 inlet;
#X obj 342 96 inlet;
#X obj 339 191 else/format %s-learn;
#X obj 168 295 else/insert teach;
#X connect 1 1 5 0;
#X connect 1 1 10 0;
#X connect 2 0 1 0;
#X connect 3 0 2 0;
#X connect 4 0 6 0;
#X connect 5 0 4 1;
#X connect 6 0 3 0;
#X connect 6 1 4 0;
#X connect 7 0 5 0;
#X connect 8 0 9 0;
#X connect 9 0 2 1;
#X connect 9 0 5 1;
#X connect 10 0 0 0;
#X restore 156 579 pd savestate;
#X obj 237 550 else/receiver -local sym;
#X obj 173 22 else/loadbanger -init;
#X obj 433 706 s;
#X msg 40 453 learn;
#X obj 40 200 t b b;
#X obj 173 277 t b b;
#X obj 40 506 else/changed;
#X obj 442 375 else/changed;
#X obj 72 398 send \$0-deactivate, f 13;
#X msg 72 370 deactivate;
#X obj 187 433 r \$0-deactivate;
#X obj 431 266 r \$0-deactivate;
#X obj 173 55 symbol wet;
#X obj 433 659 else/rescale 0 1;
#X obj 187 405 print [phaser.m~]:;
#X connect 0 0 29 0;
#X connect 1 0 2 0;
#X connect 1 1 22 0;
#X connect 2 0 36 0;
#X connect 2 1 12 0;
#X connect 3 0 4 0;
#X connect 4 0 27 0;
#X connect 5 0 28 0;
#X connect 6 0 37 0;
#X connect 7 0 6 0;
#X connect 8 0 9 0;
#X connect 9 0 37 0;
#X connect 10 0 25 1;
#X connect 11 0 30 0;
#X connect 12 0 30 0;
#X connect 13 0 36 0;
#X connect 13 1 14 0;
#X connect 14 0 15 0;
#X connect 14 1 20 0;
#X connect 14 1 0 0;
#X connect 15 0 20 0;
#X connect 16 0 5 0;
#X connect 18 0 8 1;
#X connect 19 0 10 0;
#X connect 20 0 13 0;
#X connect 21 0 20 1;
#X connect 22 0 1 0;
#X connect 23 0 22 1;
#X connect 24 0 35 0;
#X connect 26 0 29 0;
#X connect 27 0 26 0;
#X connect 27 0 11 0;
#X connect 27 1 7 0;
#X connect 27 1 32 0;
#X connect 28 0 0 0;
#X connect 28 0 12 0;
#X connect 28 1 8 0;
#X connect 29 0 1 0;
#X connect 30 0 13 0;
#X connect 32 0 31 0;
#X connect 33 0 29 0;
#X connect 34 0 13 0;
#X connect 35 0 3 0;
#X connect 35 0 16 0;
#X connect 35 0 17 0;
#X connect 35 0 7 1;
#X connect 36 0 25 0;
#X restore 86 131 pd wet;
#N canvas 357 38 761 758 att-rate 0;
#X msg 173 469 forget;
#X obj 40 532 else/midi.learn 1;
#A saved;
#X obj 40 600 t f b;
#X obj 40 112 else/format \$0-%s-learn, f 11;
#X obj 40 162 else/receiver;
#X obj 173 195 else/receiver;
#X msg 90 259 Learn for \$1 knob activated, f 9;
#X obj 90 207 symbol;
#X obj 205 345 symbol;
#X msg 205 378 Forget for \$1 knob;
#X obj 473 721 else/format \$0-set-%s;
#X msg 442 311 learn;
#X msg 467 348 forget;
#X obj 432 403 else/receiver 1;
#X obj 564 401 else/route2 none;
#X msg 564 448 none;
#X obj 173 166 else/format \$0-%s-forget;
#X obj 189 121 else/sender -local sym;
#X obj 260 339 else/receiver -local sym, f 13;
#X obj 473 694 else/receiver -local sym;
#N canvas 268 234 610 478 savestate 0;
#X obj 235 409 outlet;
#X obj 101 283 route bang;
#X obj 339 213 else/format rcv-%s;
#X obj 101 255 route x, f 9;
#X obj 101 224 list trim;
#X obj 168 317 route none;
#X obj 235 359 symbol;
#X obj 239 215 list;
#X obj 264 159 list prepend, f 7;
#X obj 101 164 savestate;
#X obj 263 41 inlet;
#X obj 342 41 inlet;
#X obj 367 135 print [receiver] learn:;
#X obj 367 104 list trim;
#X connect 1 1 5 0;
#X connect 1 1 8 0;
#X connect 2 0 3 1;
#X connect 2 0 8 1;
#X connect 3 0 1 0;
#X connect 4 0 3 0;
#X connect 5 1 6 0;
#X connect 6 0 0 0;
#X connect 7 0 9 0;
#X connect 8 0 7 1;
#X connect 9 0 4 0;
#X connect 9 1 7 0;
#X connect 10 0 8 0;
#X connect 10 0 13 0;
#X connect 11 0 2 0;
#X connect 13 0 12 0;
#X restore 564 495 pd savestate;
#X obj 645 454 else/receiver -local sym, f 13;
#N canvas 251 108 631 527 savestate 0;
#X obj 168 340 outlet;
#X obj 101 261 route bang;
#X obj 101 233 route x, f 9;
#X obj 101 202 list trim;
#X obj 239 193 list;
#X obj 264 137 list prepend, f 7;
#X obj 101 142 savestate;
#X obj 263 79 inlet;
#X obj 342 96 inlet;
#X obj 339 191 else/format %s-learn;
#X obj 168 295 else/insert teach;
#X connect 1 1 5 0;
#X connect 1 1 10 0;
#X connect 2 0 1 0;
#X connect 3 0 2 0;
#X connect 4 0 6 0;
#X connect 5 0 4 1;
#X connect 6 0 3 0;
#X connect 6 1 4 0;
#X connect 7 0 5 0;
#X connect 8 0 9 0;
#X connect 9 0 2 1;
#X connect 9 0 5 1;
#X connect 10 0 0 0;
#X restore 156 579 pd savestate;
#X obj 237 550 else/receiver -local sym;
#X obj 173 22 else/loadbanger -init;
#X obj 433 706 s;
#X msg 40 453 learn;
#X obj 40 200 t b b;
#X obj 173 277 t b b;
#X obj 40 506 else/changed;
#X obj 442 375 else/changed;
#X obj 72 398 send \$0-deactivate, f 13;
#X msg 72 370 deactivate;
#X obj 187 433 r \$0-deactivate;
#X obj 431 266 r \$0-deactivate;
#X obj 433 659 else/rescale -exp 4 0.1 5;
#X obj 173 55 symbol att-rate;
#X obj 187 405 print [phaser.m~]:;
#X connect 0 0 29 0;
#X connect 1 0 2 0;
#X connect 1 1 22 0;
#X connect 2 0 35 0;
#X connect 2 1 12 0;
#X connect 3 0 4 0;
#X connect 4 0 27 0;
#X connect 5 0 28 0;
#X connect 6 0 37 0;
#X connect 7 0 6 0;
#X connect 8 0 9 0;
#X connect 9 0 37 0;
#X connect 10 0 25 1;
#X connect 11 0 30 0;
#X connect 12 0 30 0;
#X connect 13 0 35 0;
#X connect 13 1 14 0;
#X connect 14 0 15 0;
#X connect 14 1 20 0;
#X connect 14 1 0 0;
#X connect 15 0 20 0;
#X connect 16 0 5 0;
#X connect 18 0 8 1;
#X connect 19 0 10 0;
#X connect 20 0 13 0;
#X connect 21 0 20 1;
#X connect 22 0 1 0;
#X connect 23 0 22 1;
#X connect 24 0 36 0;
#X connect 26 0 29 0;
#X connect 27 0 26 0;
#X connect 27 0 11 0;
#X connect 27 1 7 0;
#X connect 27 1 32 0;
#X connect 28 0 0 0;
#X connect 28 0 12 0;
#X connect 28 1 8 0;
#X connect 29 0 1 0;
#X connect 30 0 13 0;
#X connect 32 0 31 0;
#X connect 33 0 29 0;
#X connect 34 0 13 0;
#X connect 35 0 25 0;
#X connect 36 0 3 0;
#X connect 36 0 16 0;
#X connect 36 0 17 0;
#X connect 36 0 7 1;
#X restore 89 193 pd att-rate;
#N canvas 357 38 761 758 att-wet 0;
#X msg 173 469 forget;
#X obj 40 532 else/midi.learn 1;
#A saved;
#X obj 40 600 t f b;
#X obj 40 112 else/format \$0-%s-learn, f 11;
#X obj 40 162 else/receiver;
#X obj 173 195 else/receiver;
#X msg 90 259 Learn for \$1 knob activated, f 9;
#X obj 90 207 symbol;
#X obj 205 345 symbol;
#X msg 205 378 Forget for \$1 knob;
#X obj 473 721 else/format \$0-set-%s;
#X msg 442 311 learn;
#X msg 467 348 forget;
#X obj 432 403 else/receiver 1;
#X obj 564 401 else/route2 none;
#X msg 564 448 none;
#X obj 173 166 else/format \$0-%s-forget;
#X obj 189 121 else/sender -local sym;
#X obj 260 339 else/receiver -local sym, f 13;
#X obj 473 694 else/receiver -local sym;
#N canvas 268 234 610 478 savestate 0;
#X obj 235 409 outlet;
#X obj 101 283 route bang;
#X obj 339 213 else/format rcv-%s;
#X obj 101 255 route x, f 9;
#X obj 101 224 list trim;
#X obj 168 317 route none;
#X obj 235 359 symbol;
#X obj 239 215 list;
#X obj 264 159 list prepend, f 7;
#X obj 101 164 savestate;
#X obj 263 41 inlet;
#X obj 342 41 inlet;
#X obj 367 135 print [receiver] learn:;
#X obj 367 104 list trim;
#X connect 1 1 5 0;
#X connect 1 1 8 0;
#X connect 2 0 3 1;
#X connect 2 0 8 1;
#X connect 3 0 1 0;
#X connect 4 0 3 0;
#X connect 5 1 6 0;
#X connect 6 0 0 0;
#X connect 7 0 9 0;
#X connect 8 0 7 1;
#X connect 9 0 4 0;
#X connect 9 1 7 0;
#X connect 10 0 8 0;
#X connect 10 0 13 0;
#X connect 11 0 2 0;
#X connect 13 0 12 0;
#X restore 564 495 pd savestate;
#X obj 645 454 else/receiver -local sym, f 13;
#N canvas 251 108 631 527 savestate 0;
#X obj 168 340 outlet;
#X obj 101 261 route bang;
#X obj 101 233 route x, f 9;
#X obj 101 202 list trim;
#X obj 239 193 list;
#X obj 264 137 list prepend, f 7;
#X obj 101 142 savestate;
#X obj 263 79 inlet;
#X obj 342 96 inlet;
#X obj 339 191 else/format %s-learn;
#X obj 168 295 else/insert teach;
#X connect 1 1 5 0;
#X connect 1 1 10 0;
#X connect 2 0 1 0;
#X connect 3 0 2 0;
#X connect 4 0 6 0;
#X connect 5 0 4 1;
#X connect 6 0 3 0;
#X connect 6 1 4 0;
#X connect 7 0 5 0;
#X connect 8 0 9 0;
#X connect 9 0 2 1;
#X connect 9 0 5 1;
#X connect 10 0 0 0;
#X restore 156 579 pd savestate;
#X obj 237 550 else/receiver -local sym;
#X obj 173 22 else/loadbanger -init;
#X obj 433 706 s;
#X msg 40 453 learn;
#X obj 40 200 t b b;
#X obj 173 277 t b b;
#X obj 40 506 else/changed;
#X obj 442 375 else/changed;
#X obj 72 398 send \$0-deactivate, f 13;
#X msg 72 370 deactivate;
#X obj 187 433 r \$0-deactivate;
#X obj 431 266 r \$0-deactivate;
#X obj 433 659 else/rescale 0 1;
#X obj 173 55 symbol att-wet;
#X obj 187 405 print [phaser.m~]:;
#X connect 0 0 29 0;
#X connect 1 0 2 0;
#X connect 1 1 22 0;
#X connect 2 0 35 0;
#X connect 2 1 12 0;
#X connect 3 0 4 0;
#X connect 4 0 27 0;
#X connect 5 0 28 0;
#X connect 6 0 37 0;
#X connect 7 0 6 0;
#X connect 8 0 9 0;
#X connect 9 0 37 0;
#X connect 10 0 25 1;
#X connect 11 0 30 0;
#X connect 12 0 30 0;
#X connect 13 0 35 0;
#X connect 13 1 14 0;
#X connect 14 0 15 0;
#X connect 14 1 20 0;
#X connect 14 1 0 0;
#X connect 15 0 20 0;
#X connect 16 0 5 0;
#X connect 18 0 8 1;
#X connect 19 0 10 0;
#X connect 20 0 13 0;
#X connect 21 0 20 1;
#X connect 22 0 1 0;
#X connect 23 0 22 1;
#X connect 24 0 36 0;
#X connect 26 0 29 0;
#X connect 27 0 26 0;
#X connect 27 0 11 0;
#X connect 27 1 7 0;
#X connect 27 1 32 0;
#X connect 28 0 0 0;
#X connect 28 0 12 0;
#X connect 28 1 8 0;
#X connect 29 0 1 0;
#X connect 30 0 13 0;
#X connect 32 0 31 0;
#X connect 33 0 29 0;
#X connect 34 0 13 0;
#X connect 35 0 25 0;
#X connect 36 0 3 0;
#X connect 36 0 16 0;
#X connect 36 0 17 0;
#X connect 36 0 7 1;
#X restore 89 248 pd att-wet;
#N canvas 357 38 761 758 fb 0;
#X msg 173 469 forget;
#X obj 40 532 else/midi.learn 1;
#A saved;
#X obj 40 600 t f b;
#X obj 40 112 else/format \$0-%s-learn, f 11;
#X obj 40 162 else/receiver;
#X obj 173 195 else/receiver;
#X msg 90 259 Learn for \$1 knob activated, f 9;
#X obj 90 207 symbol;
#X obj 205 345 symbol;
#X msg 205 378 Forget for \$1 knob;
#X obj 473 721 else/format \$0-set-%s;
#X msg 442 311 learn;
#X msg 467 348 forget;
#X obj 432 403 else/receiver 1;
#X obj 564 401 else/route2 none;
#X msg 564 448 none;
#X obj 173 166 else/format \$0-%s-forget;
#X obj 189 121 else/sender -local sym;
#X obj 260 339 else/receiver -local sym, f 13;
#X obj 473 694 else/receiver -local sym;
#N canvas 268 234 610 478 savestate 0;
#X obj 235 409 outlet;
#X obj 101 283 route bang;
#X obj 339 213 else/format rcv-%s;
#X obj 101 255 route x, f 9;
#X obj 101 224 list trim;
#X obj 168 317 route none;
#X obj 235 359 symbol;
#X obj 239 215 list;
#X obj 264 159 list prepend, f 7;
#X obj 101 164 savestate;
#X obj 263 41 inlet;
#X obj 342 41 inlet;
#X obj 367 135 print [receiver] learn:;
#X obj 367 104 list trim;
#X connect 1 1 5 0;
#X connect 1 1 8 0;
#X connect 2 0 3 1;
#X connect 2 0 8 1;
#X connect 3 0 1 0;
#X connect 4 0 3 0;
#X connect 5 1 6 0;
#X connect 6 0 0 0;
#X connect 7 0 9 0;
#X connect 8 0 7 1;
#X connect 9 0 4 0;
#X connect 9 1 7 0;
#X connect 10 0 8 0;
#X connect 10 0 13 0;
#X connect 11 0 2 0;
#X connect 13 0 12 0;
#X restore 564 495 pd savestate;
#X obj 645 454 else/receiver -local sym, f 13;
#N canvas 251 108 631 527 savestate 0;
#X obj 168 340 outlet;
#X obj 101 261 route bang;
#X obj 101 233 route x, f 9;
#X obj 101 202 list trim;
#X obj 239 193 list;
#X obj 264 137 list prepend, f 7;
#X obj 101 142 savestate;
#X obj 263 79 inlet;
#X obj 342 96 inlet;
#X obj 339 191 else/format %s-learn;
#X obj 168 295 else/insert teach;
#X connect 1 1 5 0;
#X connect 1 1 10 0;
#X connect 2 0 1 0;
#X connect 3 0 2 0;
#X connect 4 0 6 0;
#X connect 5 0 4 1;
#X connect 6 0 3 0;
#X connect 6 1 4 0;
#X connect 7 0 5 0;
#X connect 8 0 9 0;
#X connect 9 0 2 1;
#X connect 9 0 5 1;
#X connect 10 0 0 0;
#X restore 156 579 pd savestate;
#X obj 237 550 else/receiver -local sym;
#X obj 173 22 else/loadbanger -init;
#X obj 433 706 s;
#X msg 40 453 learn;
#X obj 40 200 t b b;
#X obj 173 277 t b b;
#X obj 40 506 else/changed;
#X obj 442 375 else/changed;
#X obj 72 398 send \$0-deactivate, f 13;
#X msg 72 370 deactivate;
#X obj 187 433 r \$0-deactivate;
#X obj 431 266 r \$0-deactivate;
#X obj 173 55 symbol fb;
#X obj 187 405 print [phaser.m~]:;
#X obj 433 659 else/rescale -1 1;
#X connect 0 0 29 0;
#X connect 1 0 2 0;
#X connect 1 1 22 0;
#X connect 2 0 37 0;
#X connect 2 1 12 0;
#X connect 3 0 4 0;
#X connect 4 0 27 0;
#X connect 5 0 28 0;
#X connect 6 0 36 0;
#X connect 7 0 6 0;
#X connect 8 0 9 0;
#X connect 9 0 36 0;
#X connect 10 0 25 1;
#X connect 11 0 30 0;
#X connect 12 0 30 0;
#X connect 13 0 37 0;
#X connect 13 1 14 0;
#X connect 14 0 15 0;
#X connect 14 1 20 0;
#X connect 14 1 0 0;
#X connect 15 0 20 0;
#X connect 16 0 5 0;
#X connect 18 0 8 1;
#X connect 19 0 10 0;
#X connect 20 0 13 0;
#X connect 21 0 20 1;
#X connect 22 0 1 0;
#X connect 23 0 22 1;
#X connect 24 0 35 0;
#X connect 26 0 29 0;
#X connect 27 0 26 0;
#X connect 27 0 11 0;
#X connect 27 1 7 0;
#X connect 27 1 32 0;
#X connect 28 0 0 0;
#X connect 28 0 12 0;
#X connect 28 1 8 0;
#X connect 29 0 1 0;
#X connect 30 0 13 0;
#X connect 32 0 31 0;
#X connect 33 0 29 0;
#X connect 34 0 13 0;
#X connect 35 0 3 0;
#X connect 35 0 16 0;
#X connect 35 0 17 0;
#X connect 35 0 7 1;
#X connect 37 0 25 0;
#X restore 86 104 pd fb;
#N canvas 357 38 761 758 att-fb 0;
#X msg 173 469 forget;
#X obj 40 532 else/midi.learn 1;
#A saved;
#X obj 40 600 t f b;
#X obj 40 112 else/format \$0-%s-learn, f 11;
#X obj 40 162 else/receiver;
#X obj 173 195 else/receiver;
#X msg 90 259 Learn for \$1 knob activated, f 9;
#X obj 90 207 symbol;
#X obj 205 345 symbol;
#X msg 205 378 Forget for \$1 knob;
#X obj 473 721 else/format \$0-set-%s;
#X msg 442 311 learn;
#X msg 467 348 forget;
#X obj 432 403 else/receiver 1;
#X obj 564 401 else/route2 none;
#X msg 564 448 none;
#X obj 173 166 else/format \$0-%s-forget;
#X obj 189 121 else/sender -local sym;
#X obj 260 339 else/receiver -local sym, f 13;
#X obj 473 694 else/receiver -local sym;
#N canvas 268 234 610 478 savestate 0;
#X obj 235 409 outlet;
#X obj 101 283 route bang;
#X obj 339 213 else/format rcv-%s;
#X obj 101 255 route x, f 9;
#X obj 101 224 list trim;
#X obj 168 317 route none;
#X obj 235 359 symbol;
#X obj 239 215 list;
#X obj 264 159 list prepend, f 7;
#X obj 101 164 savestate;
#X obj 263 41 inlet;
#X obj 342 41 inlet;
#X obj 367 135 print [receiver] learn:;
#X obj 367 104 list trim;
#X connect 1 1 5 0;
#X connect 1 1 8 0;
#X connect 2 0 3 1;
#X connect 2 0 8 1;
#X connect 3 0 1 0;
#X connect 4 0 3 0;
#X connect 5 1 6 0;
#X connect 6 0 0 0;
#X connect 7 0 9 0;
#X connect 8 0 7 1;
#X connect 9 0 4 0;
#X connect 9 1 7 0;
#X connect 10 0 8 0;
#X connect 10 0 13 0;
#X connect 11 0 2 0;
#X connect 13 0 12 0;
#X restore 564 495 pd savestate;
#X obj 645 454 else/receiver -local sym, f 13;
#N canvas 251 108 631 527 savestate 0;
#X obj 168 340 outlet;
#X obj 101 261 route bang;
#X obj 101 233 route x, f 9;
#X obj 101 202 list trim;
#X obj 239 193 list;
#X obj 264 137 list prepend, f 7;
#X obj 101 142 savestate;
#X obj 263 79 inlet;
#X obj 342 96 inlet;
#X obj 339 191 else/format %s-learn;
#X obj 168 295 else/insert teach;
#X connect 1 1 5 0;
#X connect 1 1 10 0;
#X connect 2 0 1 0;
#X connect 3 0 2 0;
#X connect 4 0 6 0;
#X connect 5 0 4 1;
#X connect 6 0 3 0;
#X connect 6 1 4 0;
#X connect 7 0 5 0;
#X connect 8 0 9 0;
#X connect 9 0 2 1;
#X connect 9 0 5 1;
#X connect 10 0 0 0;
#X restore 156 579 pd savestate;
#X obj 237 550 else/receiver -local sym;
#X obj 173 22 else/loadbanger -init;
#X obj 433 706 s;
#X msg 40 453 learn;
#X obj 40 200 t b b;
#X obj 173 277 t b b;
#X obj 40 506 else/changed;
#X obj 442 375 else/changed;
#X obj 72 398 send \$0-deactivate, f 13;
#X msg 72 370 deactivate;
#X obj 187 433 r \$0-deactivate;
#X obj 431 266 r \$0-deactivate;
#X obj 187 405 print [phaser.m~]:;
#X obj 433 659 else/rescale -1 1;
#X obj 173 55 symbol att-fb;
#X connect 0 0 29 0;
#X connect 1 0 2 0;
#X connect 1 1 22 0;
#X connect 2 0 36 0;
#X connect 2 1 12 0;
#X connect 3 0 4 0;
#X connect 4 0 27 0;
#X connect 5 0 28 0;
#X connect 6 0 35 0;
#X connect 7 0 6 0;
#X connect 8 0 9 0;
#X connect 9 0 35 0;
#X connect 10 0 25 1;
#X connect 11 0 30 0;
#X connect 12 0 30 0;
#X connect 13 0 36 0;
#X connect 13 1 14 0;
#X connect 14 0 15 0;
#X connect 14 1 20 0;
#X connect 14 1 0 0;
#X connect 15 0 20 0;
#X connect 16 0 5 0;
#X connect 18 0 8 1;
#X connect 19 0 10 0;
#X connect 20 0 13 0;
#X connect 21 0 20 1;
#X connect 22 0 1 0;
#X connect 23 0 22 1;
#X connect 24 0 37 0;
#X connect 26 0 29 0;
#X connect 27 0 26 0;
#X connect 27 0 11 0;
#X connect 27 1 7 0;
#X connect 27 1 32 0;
#X connect 28 0 0 0;
#X connect 28 0 12 0;
#X connect 28 1 8 0;
#X connect 29 0 1 0;
#X connect 30 0 13 0;
#X connect 32 0 31 0;
#X connect 33 0 29 0;
#X connect 34 0 13 0;
#X connect 36 0 25 0;
#X connect 37 0 3 0;
#X connect 37 0 16 0;
#X connect 37 0 17 0;
#X connect 37 0 7 1;
#X restore 89 221 pd att-fb;
#X restore 458 229 pd Learn;
#X obj 97 35 inlet~;
#X obj 152 35 inlet~;
#X obj 206 35 inlet~;
#X text 252 128 Rate;
#X text 372 128 Wet;
#X text 48 12 IN;
#X text 104 12 Rate;
#X text 206 12 Wet;
#N canvas 202 189 546 478 set 0;
#X obj 56 30 inlet;
#X obj 98 402 s \$0-set-rate;
#X obj 126 372 s \$0-set-q;
#X obj 158 298 s \$0-set-wet;
#X obj 189 261 s \$0-set-GUI;
#X obj 189 236 != 0;
#X obj 294 268 s \$0-set-att-rate;
#X obj 322 238 s \$0-set-att-q;
#X obj 334 127 s \$0-set-att-wet;
#X obj 56 74 route rate fb wet gui att-rate att-fb att-wet;
#X obj 138 331 s \$0-set-fb;
#X obj 331 196 s \$0-set-att-fb;
#X connect 0 0 9 0;
#X connect 5 0 4 0;
#X connect 9 0 1 0;
#X connect 9 1 10 0;
#X connect 9 2 3 0;
#X connect 9 3 5 0;
#X connect 9 4 6 0;
#X connect 9 5 11 0;
#X connect 9 6 8 0;
#X restore 78 72 pd set;
#X text 165 12 FB;
#X text 320 128 FB;
#X obj 39 167 else/phaser~, f 17;
#N canvas 162 168 790 435 att 0;
#X obj 115 45 inlet~;
#X obj 115 361 outlet~;
#X obj 180 194 r \$0-rate;
#X obj 180 218 else/f2s~;
#X obj 115 211 +~;
#X obj 115 110 *~;
#X obj 334 45 inlet~;
#X obj 335 361 outlet~;
#X obj 386 217 else/f2s~;
#X obj 335 201 +~;
#X obj 534 45 inlet~;
#X obj 535 361 outlet~;
#X obj 576 217 else/f2s~;
#X obj 535 201 +~;
#X obj 576 188 r \$0-wet;
#X obj 155 93 r \$0-real-att-rate;
#X obj 155 119 else/f2s~;
#X obj 334 110 *~;
#X obj 387 129 else/f2s~;
#X obj 534 110 *~;
#X obj 587 129 else/f2s~;
#X obj 588 81 r \$0-real-att-wet;
#X obj 535 272 clip~ 0 1;
#X obj 115 160 *~ 2.45;
#X obj 115 272 clip~ 0.1 5;
#X obj 588 105 * 0.5;
#X obj 386 188 r \$0-fb;
#X obj 387 103 r \$0-real-att-fb;
#X obj 335 272 clip~ -0.99 0.99;
#N canvas 114 101 450 300 freq 0;
#X obj 117 121 else/tri~;
#X obj 117 151 else/rescale~ 40 100;
#X obj 117 181 mtof~;
#X obj 123 50 inlet~;
#X obj 138 242 outlet~;
#X connect 0 0 1 0;
#X connect 1 0 2 0;
#X connect 2 0 4 0;
#X connect 3 0 0 0;
#X restore 115 313 pd freq;
#X connect 0 0 5 0;
#X connect 2 0 3 0;
#X connect 3 0 4 1;
#X connect 4 0 24 0;
#X connect 5 0 23 0;
#X connect 6 0 17 0;
#X connect 8 0 9 1;
#X connect 9 0 28 0;
#X connect 10 0 19 0;
#X connect 12 0 13 1;
#X connect 13 0 22 0;
#X connect 14 0 12 0;
#X connect 15 0 16 0;
#X connect 16 0 5 1;
#X connect 17 0 9 0;
#X connect 18 0 17 1;
#X connect 19 0 13 0;
#X connect 20 0 19 1;
#X connect 21 0 25 0;
#X connect 22 0 11 0;
#X connect 23 0 4 0;
#X connect 24 0 29 0;
#X connect 25 0 20 0;
#X connect 26 0 8 0;
#X connect 27 0 18 0;
#X connect 28 0 7 0;
#X connect 29 0 1 0;
#X restore 97 126 pd att;
#X text 238 425 mid att wrong hover;
#X connect 0 0 24 0;
#X connect 0 1 21 0;
#X connect 13 0 25 0;
#X connect 14 0 25 1;
#X connect 15 0 25 2;
#X connect 24 0 1 0;
#X connect 25 0 24 1;
#X connect 25 1 24 2;
#X connect 25 2 24 3;
#X coords 0 1 100 -1 197 225 2 200 125;
