#N canvas 250 129 572 453 12;
#X obj 89 35 inlet~;
#X obj 89 392 outlet~;
#N canvas 243 43 508 419 preset 0;
#X msg 125 86 name \$1;
#X obj 90 171 else/receiver;
#X obj 123 220 route list;
#N canvas 477 117 491 352 id-name-init 0;
#X obj 165 113 + 1;
#X obj 257 100 else/dollsym 1;
#X obj 141 80 value;
#X obj 141 252 outlet;
#X obj 141 51 else/loadbanger 2;
#X obj 141 201 else/dollsym 1;
#X obj 257 76 symbol phaser-id_\\\$0;
#X obj 141 166 makefilename \\\$0-phaser-%d;
#X connect 0 0 2 0;
#X connect 1 0 2 1;
#X connect 2 0 0 0;
#X connect 2 0 7 0;
#X connect 4 0 2 0;
#X connect 4 1 6 0;
#X connect 5 0 3 0;
#X connect 6 0 1 0;
#X connect 7 0 5 0;
#X restore 90 39 pd id-name-init;
#X obj 123 257 else/dispatch \$0-set-rate \$0-set-q \$0-set-wet;
#X obj 90 311 else/var \$0-rate \$0-q \$0-wet;
#X obj 125 121 else/sender 1 \\\$0-presets;
#X connect 0 0 6 0;
#X connect 1 0 2 0;
#X connect 1 0 5 0;
#X connect 2 0 4 0;
#X connect 3 0 0 0;
#X connect 3 0 1 0;
#X restore 481 210 pd preset;
#N canvas 171 120 601 317 init-savestate 0;
#X obj 140 66 savestate;
#X obj 49 125 list;
#X obj 49 43 loadbang;
#X obj 97 126 route list;
#X obj 97 99 list trim;
#X obj 49 222 else/dispatch \$0-set-rate \$0-set-q \$0-set-wet \$0-set-GUI;
#X obj 200 98 else/var \$0-rate \$0-q \$0-wet \$0-GUI;
#X obj 49 171 else/default 0.1 3 0.5 1;
#X connect 0 0 4 0;
#X connect 0 1 6 0;
#X connect 1 0 7 0;
#X connect 2 0 1 0;
#X connect 3 0 1 1;
#X connect 4 0 3 0;
#X connect 6 0 0 0;
#X connect 7 0 5 0;
#X restore 423 182 pd init-savestate;
#N canvas 200 115 805 366 GUI 0;
#X obj 106 124 r \$0-wet;
#X obj 170 151 r \$0-q;
#X msg 106 149 wet \$1;
#X msg 170 176 q \$1;
#X obj 112 222 s \$0-phaser;
#X msg 308 140 active 0;
#X msg 288 200 active 1;
#X obj 289 111 r \$0-rate-tab;
#X obj 308 168 s \$0-set-rate;
#X msg 468 138 active 0;
#X msg 448 198 active 1;
#X obj 448 226 s \$0-set-wet;
#X msg 622 143 active 0;
#X msg 602 203 active 1;
#X obj 603 114 r \$0-wet-tab;
#X obj 622 171 s \$0-set-wet;
#X obj 602 231 s \$0-set-rate;
#X obj 288 228 s \$0-set-q;
#X obj 449 109 r \$0-q-tab;
#X obj 468 166 s \$0-set-q;
#N canvas 134 124 815 538 collapse 0;
#X obj 28 150 r \$0-uncollapse;
#X obj 290 420 r \$0-detatch;
#X obj 232 153 else/canvas.setname \$0-m 2;
#X obj 290 305 r \$0-set-GUI;
#X obj 290 386 s \$0-uncollapse;
#X obj 313 359 s \$0-collapse;
#X obj 290 331 sel 1 0;
#X obj 28 16 r \$0-collapse;
#X obj 290 447 message \; pd-\$0-phaser vis 1;
#X obj 28 184 else/message \; \$0-button readonly 0 \, transparent 2 \; pd-\$0-phaser donecanvasdialog 1 1 1 0 0 1 1 177 137 15 15 \, vis 0 \; \$0-cnv color #bbbbbb #000000 #000000 \; \$0-m goprect 200 125 197 175 \, dirty 0 \; \$0-GUI 1;
#X obj 28 45 else/message \; \$0-button readonly 1 \, transparent 3 \; pd-\$0-phaser donecanvasdialog 1 1 0 0 0 1 1 177 137 15 15 \; \$0-cnv color #dbdbdb #000000 #dbdbdb \; \$0-m goprect 225 350 138 44 \, dirty 0 \; \$0-GUI 0;
#X obj 510 78 r \$0-detatch-hover;
#X obj 585 444 s \$0-label-collapsed;
#X obj 562 310 sel 0 1;
#X msg 585 343 label ⤢ \, label_font 0 48 \, label_pos 34 12, f 25;
#X obj 492 308 loadbang;
#X obj 530 107 else/canvas.edit 3;
#X obj 562 282 change;
#X obj 530 193 sel 1;
#X obj 510 220 f;
#X obj 530 166 t f f, f 10;
#X obj 530 136 == 0;
#X obj 510 246 spigot;
#X msg 560 392 label PHASER \, label_font 0 24 \, label_pos 4 15, f 30;
#X connect 0 0 9 0;
#X connect 1 0 8 0;
#X connect 3 0 6 0;
#X connect 6 0 4 0;
#X connect 6 1 5 0;
#X connect 7 0 10 0;
#X connect 11 0 19 0;
#X connect 13 0 23 0;
#X connect 13 1 14 0;
#X connect 14 0 12 0;
#X connect 15 0 23 0;
#X connect 16 0 21 0;
#X connect 17 0 13 0;
#X connect 18 0 19 0;
#X connect 18 1 17 0;
#X connect 19 0 22 0;
#X connect 20 0 18 0;
#X connect 20 1 22 1;
#X connect 21 0 20 0;
#X connect 22 0 17 0;
#X connect 23 0 12 0;
#X restore 348 46 pd collapse;
#X connect 0 0 2 0;
#X connect 1 0 3 0;
#X connect 2 0 4 0;
#X connect 3 0 4 0;
#X connect 5 0 8 0;
#X connect 6 0 17 0;
#X connect 7 0 5 0;
#X connect 7 0 6 0;
#X connect 9 0 19 0;
#X connect 10 0 11 0;
#X connect 12 0 15 0;
#X connect 13 0 16 0;
#X connect 14 0 12 0;
#X connect 14 0 13 0;
#X connect 18 0 9 0;
#X connect 18 0 10 0;
#X restore 421 210 pd GUI;
#X text 201 129 IN;
#N canvas 202 189 281 284 route 0;
#X obj 56 30 inlet;
#X obj 71 230 s \$0-set-rate;
#X obj 99 200 s \$0-set-q;
#X obj 135 165 s \$0-set-wet;
#X obj 56 74 route rate bw wet gui;
#X obj 166 128 s \$0-set-GUI;
#X obj 166 103 != 0;
#X connect 0 0 4 0;
#X connect 4 0 1 0;
#X connect 4 1 2 0;
#X connect 4 2 3 0;
#X connect 4 3 6 0;
#X connect 6 0 5 0;
#X restore 128 71 pd route;
#X obj 235 358 cnv 19 95 29 empty \$0-label-collapsed PHASER 4 15 0 24 #bbbbbb #000000 0;
#X obj 234 357 else/button 97 31 #bbbbbb #bbbbbb 2 1 2 0 0 \$0-detatch \$0-uncollapse-set;
#X obj 338 358 cnv 10 17 15 empty empty ▲ 5 8 0 12 #bbbbbb #000000 0;
#X obj 338 372 cnv 10 17 15 empty empty ▼ 5 5 0 12 #bbbbbb #000000 0;
#X obj 337 357 else/button 19 31 #e0e0e0 #808080 2 1 2 0 0 \$0-uncollapse empty;
#N canvas 116 97 450 300 guts 0;
#X obj 242 115 r \$0-rate;
#X obj 242 141 osc~;
#X obj 122 117 r \$0-phaser;
#X obj 100 165 else/phaser~ 6;
#X obj 242 171 else/rescale~ 50 2000;
#X obj 100 48 inlet~;
#X obj 100 231 outlet~;
#X connect 0 0 1 0;
#X connect 1 0 4 0;
#X connect 2 0 3 0;
#X connect 3 0 6 0;
#X connect 4 0 3 1;
#X connect 5 0 3 0;
#X restore 89 220 pd guts;
#N canvas 854 63 214 174 \$0-phaser 0;
#N canvas 700 88 394 451 (subpatch) 0;
#X obj 112 112 cnv 15 175 135 empty empty empty 20 12 0 14 #dbdbdb #373737 0;
#X obj 121 187 else/knob 41 0.1 5 4 0.1 \$0-rate \$0-set-rate #dfdfdf #bbbbbb #000000 0 0 0 0 1 320 0 0 0.1 empty empty 4 10 -2 46 0 0 0 0 0 0;
#X obj 172 187 else/knob 41 5 0.1 -2 5 \$0-q \$0-set-q #dfdfdf #afafaf #000000 0 0 0 0 1 320 0 0 5 empty empty 4 10 -2 46 0 0 0 0 0 0;
#X obj 232 187 else/knob 41 0 1 0 0 \$0-wet \$0-set-wet #9f9f9f #afafaf #000000 0 0 0 0 1 320 0 0 0 empty empty 4 10 -2 46 0 0 0 0 0 0;
#X text 225 168 Dry/Wet;
#X text 126 168 Rate;
#X obj 134 121 else/note 104 24 Inter empty 5 54 54 54 0 187 187 187 1 1 PHASER;
#X obj 246 121 else/button 19 31 #e0e0e0 #808080 2 1 2 0 0 \$0-collapse \$0-button;
#X obj 247 122 cnv 10 17 15 empty \$0-cnv ▼ 5 8 0 12 #bbbbbb #000000 0;
#X obj 247 136 cnv 10 17 15 empty \$0-cnv ▲ 5 5 0 12 #bbbbbb #000000 0;
#X text 186 168 Q;
#X coords 0 1 100 -1 177 137 1 111 111;
#X restore 15 15 graph;
#X coords 0 0 1 1 177 137 1 15 15;
#X restore 209 149 pd \$0-phaser;
#N canvas 632 264 244 228 Learn 0;
#N canvas 357 34 761 758 rate 0;
#X msg 173 469 forget;
#X obj 40 532 else/midi.learn 1;
#A saved;
#X obj 40 600 t f b;
#X obj 40 112 else/format \$0-%s-learn, f 11;
#X obj 40 162 else/receiver;
#X obj 173 195 else/receiver;
#X msg 90 259 Learn for \$1 knob activated, f 9;
#X obj 90 207 symbol;
#X obj 205 345 symbol;
#X msg 205 378 Forget for \$1 knob;
#X obj 473 721 else/format \$0-set-%s;
#X obj 187 405 print [adsr.m~]:;
#X msg 442 311 learn;
#X msg 467 348 forget;
#X obj 432 403 else/receiver 1;
#X obj 564 401 else/route2 none;
#X msg 564 448 none;
#X obj 173 166 else/format \$0-%s-forget;
#X obj 189 121 else/sender -local sym;
#X obj 260 339 else/receiver -local sym, f 13;
#X obj 473 694 else/receiver -local sym;
#N canvas 268 234 610 478 savestate 0;
#X obj 235 409 outlet;
#X obj 101 283 route bang;
#X obj 339 213 else/format rcv-%s;
#X obj 101 255 route x, f 9;
#X obj 101 224 list trim;
#X obj 168 317 route none;
#X obj 235 359 symbol;
#X obj 239 215 list;
#X obj 264 159 list prepend, f 7;
#X obj 101 164 savestate;
#X obj 263 41 inlet;
#X obj 342 41 inlet;
#X obj 367 135 print [receiver] learn:;
#X obj 367 104 list trim;
#X connect 1 1 5 0;
#X connect 1 1 8 0;
#X connect 2 0 3 1;
#X connect 2 0 8 1;
#X connect 3 0 1 0;
#X connect 4 0 3 0;
#X connect 5 1 6 0;
#X connect 6 0 0 0;
#X connect 7 0 9 0;
#X connect 8 0 7 1;
#X connect 9 0 4 0;
#X connect 9 1 7 0;
#X connect 10 0 8 0;
#X connect 10 0 13 0;
#X connect 11 0 2 0;
#X connect 13 0 12 0;
#X restore 564 495 pd savestate;
#X obj 645 454 else/receiver -local sym, f 13;
#N canvas 251 108 631 527 savestate 0;
#X obj 168 340 outlet;
#X obj 101 261 route bang;
#X obj 101 233 route x, f 9;
#X obj 101 202 list trim;
#X obj 239 193 list;
#X obj 264 137 list prepend, f 7;
#X obj 101 142 savestate;
#X obj 263 79 inlet;
#X obj 342 96 inlet;
#X obj 339 191 else/format %s-learn;
#X obj 168 295 else/insert teach;
#X connect 1 1 5 0;
#X connect 1 1 10 0;
#X connect 2 0 1 0;
#X connect 3 0 2 0;
#X connect 4 0 6 0;
#X connect 5 0 4 1;
#X connect 6 0 3 0;
#X connect 6 1 4 0;
#X connect 7 0 5 0;
#X connect 8 0 9 0;
#X connect 9 0 2 1;
#X connect 9 0 5 1;
#X connect 10 0 0 0;
#X restore 156 579 pd savestate;
#X obj 237 550 else/receiver -local sym;
#X obj 173 22 else/loadbanger -init;
#X obj 433 706 s;
#X msg 40 453 learn;
#X obj 40 200 t b b;
#X obj 173 277 t b b;
#X obj 40 506 else/changed;
#X obj 442 375 else/changed;
#X obj 72 398 send \$0-deactivate, f 13;
#X msg 72 370 deactivate;
#X obj 187 433 r \$0-deactivate;
#X obj 431 266 r \$0-deactivate;
#X obj 173 55 symbol rate;
#X obj 433 659 else/rescale -exp 4 0.1 5;
#X connect 0 0 30 0;
#X connect 1 0 2 0;
#X connect 1 1 23 0;
#X connect 2 0 37 0;
#X connect 2 1 13 0;
#X connect 3 0 4 0;
#X connect 4 0 28 0;
#X connect 5 0 29 0;
#X connect 6 0 11 0;
#X connect 7 0 6 0;
#X connect 8 0 9 0;
#X connect 9 0 11 0;
#X connect 10 0 26 1;
#X connect 12 0 31 0;
#X connect 13 0 31 0;
#X connect 14 0 37 0;
#X connect 14 1 15 0;
#X connect 15 0 16 0;
#X connect 15 1 21 0;
#X connect 15 1 0 0;
#X connect 16 0 21 0;
#X connect 17 0 5 0;
#X connect 19 0 8 1;
#X connect 20 0 10 0;
#X connect 21 0 14 0;
#X connect 22 0 21 1;
#X connect 23 0 1 0;
#X connect 24 0 23 1;
#X connect 25 0 36 0;
#X connect 27 0 30 0;
#X connect 28 0 27 0;
#X connect 28 0 12 0;
#X connect 28 1 7 0;
#X connect 28 1 33 0;
#X connect 29 0 0 0;
#X connect 29 0 13 0;
#X connect 29 1 8 0;
#X connect 30 0 1 0;
#X connect 31 0 14 0;
#X connect 33 0 32 0;
#X connect 34 0 30 0;
#X connect 35 0 14 0;
#X connect 36 0 3 0;
#X connect 36 0 17 0;
#X connect 36 0 18 0;
#X connect 36 0 7 1;
#X connect 37 0 26 0;
#X restore 86 76 pd rate;
#N canvas 357 34 761 758 q 0;
#X msg 173 469 forget;
#X obj 40 532 else/midi.learn 1;
#A saved;
#X obj 40 600 t f b;
#X obj 40 112 else/format \$0-%s-learn, f 11;
#X obj 40 162 else/receiver;
#X obj 173 195 else/receiver;
#X msg 90 259 Learn for \$1 knob activated, f 9;
#X obj 90 207 symbol;
#X obj 205 345 symbol;
#X msg 205 378 Forget for \$1 knob;
#X obj 473 721 else/format \$0-set-%s;
#X obj 187 405 print [adsr.m~]:;
#X msg 442 311 learn;
#X msg 467 348 forget;
#X obj 432 403 else/receiver 1;
#X obj 564 401 else/route2 none;
#X msg 564 448 none;
#X obj 173 166 else/format \$0-%s-forget;
#X obj 189 121 else/sender -local sym;
#X obj 260 339 else/receiver -local sym, f 13;
#X obj 473 694 else/receiver -local sym;
#N canvas 268 234 610 478 savestate 0;
#X obj 235 409 outlet;
#X obj 101 283 route bang;
#X obj 339 213 else/format rcv-%s;
#X obj 101 255 route x, f 9;
#X obj 101 224 list trim;
#X obj 168 317 route none;
#X obj 235 359 symbol;
#X obj 239 215 list;
#X obj 264 159 list prepend, f 7;
#X obj 101 164 savestate;
#X obj 263 41 inlet;
#X obj 342 41 inlet;
#X obj 367 135 print [receiver] learn:;
#X obj 367 104 list trim;
#X connect 1 1 5 0;
#X connect 1 1 8 0;
#X connect 2 0 3 1;
#X connect 2 0 8 1;
#X connect 3 0 1 0;
#X connect 4 0 3 0;
#X connect 5 1 6 0;
#X connect 6 0 0 0;
#X connect 7 0 9 0;
#X connect 8 0 7 1;
#X connect 9 0 4 0;
#X connect 9 1 7 0;
#X connect 10 0 8 0;
#X connect 10 0 13 0;
#X connect 11 0 2 0;
#X connect 13 0 12 0;
#X restore 564 495 pd savestate;
#X obj 645 454 else/receiver -local sym, f 13;
#N canvas 251 108 631 527 savestate 0;
#X obj 168 340 outlet;
#X obj 101 261 route bang;
#X obj 101 233 route x, f 9;
#X obj 101 202 list trim;
#X obj 239 193 list;
#X obj 264 137 list prepend, f 7;
#X obj 101 142 savestate;
#X obj 263 79 inlet;
#X obj 342 96 inlet;
#X obj 339 191 else/format %s-learn;
#X obj 168 295 else/insert teach;
#X connect 1 1 5 0;
#X connect 1 1 10 0;
#X connect 2 0 1 0;
#X connect 3 0 2 0;
#X connect 4 0 6 0;
#X connect 5 0 4 1;
#X connect 6 0 3 0;
#X connect 6 1 4 0;
#X connect 7 0 5 0;
#X connect 8 0 9 0;
#X connect 9 0 2 1;
#X connect 9 0 5 1;
#X connect 10 0 0 0;
#X restore 156 579 pd savestate;
#X obj 237 550 else/receiver -local sym;
#X obj 173 22 else/loadbanger -init;
#X obj 433 706 s;
#X msg 40 453 learn;
#X obj 40 200 t b b;
#X obj 173 277 t b b;
#X obj 40 506 else/changed;
#X obj 442 375 else/changed;
#X obj 72 398 send \$0-deactivate, f 13;
#X msg 72 370 deactivate;
#X obj 187 433 r \$0-deactivate;
#X obj 431 266 r \$0-deactivate;
#X obj 173 55 symbol q;
#X obj 433 659 else/rescale -exp -2 5 0.1;
#X connect 0 0 30 0;
#X connect 1 0 2 0;
#X connect 1 1 23 0;
#X connect 2 0 37 0;
#X connect 2 1 13 0;
#X connect 3 0 4 0;
#X connect 4 0 28 0;
#X connect 5 0 29 0;
#X connect 6 0 11 0;
#X connect 7 0 6 0;
#X connect 8 0 9 0;
#X connect 9 0 11 0;
#X connect 10 0 26 1;
#X connect 12 0 31 0;
#X connect 13 0 31 0;
#X connect 14 0 37 0;
#X connect 14 1 15 0;
#X connect 15 0 16 0;
#X connect 15 1 21 0;
#X connect 15 1 0 0;
#X connect 16 0 21 0;
#X connect 17 0 5 0;
#X connect 19 0 8 1;
#X connect 20 0 10 0;
#X connect 21 0 14 0;
#X connect 22 0 21 1;
#X connect 23 0 1 0;
#X connect 24 0 23 1;
#X connect 25 0 36 0;
#X connect 27 0 30 0;
#X connect 28 0 27 0;
#X connect 28 0 12 0;
#X connect 28 1 7 0;
#X connect 28 1 33 0;
#X connect 29 0 0 0;
#X connect 29 0 13 0;
#X connect 29 1 8 0;
#X connect 30 0 1 0;
#X connect 31 0 14 0;
#X connect 33 0 32 0;
#X connect 34 0 30 0;
#X connect 35 0 14 0;
#X connect 36 0 3 0;
#X connect 36 0 17 0;
#X connect 36 0 18 0;
#X connect 36 0 7 1;
#X connect 37 0 26 0;
#X restore 86 104 pd q;
#N canvas 357 34 761 758 wet 0;
#X msg 173 469 forget;
#X obj 40 532 else/midi.learn 1;
#A saved;
#X obj 40 600 t f b;
#X obj 40 112 else/format \$0-%s-learn, f 11;
#X obj 40 162 else/receiver;
#X obj 173 195 else/receiver;
#X msg 90 259 Learn for \$1 knob activated, f 9;
#X obj 90 207 symbol;
#X obj 205 345 symbol;
#X msg 205 378 Forget for \$1 knob;
#X obj 473 721 else/format \$0-set-%s;
#X obj 187 405 print [adsr.m~]:;
#X msg 442 311 learn;
#X msg 467 348 forget;
#X obj 432 403 else/receiver 1;
#X obj 564 401 else/route2 none;
#X msg 564 448 none;
#X obj 173 166 else/format \$0-%s-forget;
#X obj 189 121 else/sender -local sym;
#X obj 260 339 else/receiver -local sym, f 13;
#X obj 473 694 else/receiver -local sym;
#N canvas 268 234 610 478 savestate 0;
#X obj 235 409 outlet;
#X obj 101 283 route bang;
#X obj 339 213 else/format rcv-%s;
#X obj 101 255 route x, f 9;
#X obj 101 224 list trim;
#X obj 168 317 route none;
#X obj 235 359 symbol;
#X obj 239 215 list;
#X obj 264 159 list prepend, f 7;
#X obj 101 164 savestate;
#X obj 263 41 inlet;
#X obj 342 41 inlet;
#X obj 367 135 print [receiver] learn:;
#X obj 367 104 list trim;
#X connect 1 1 5 0;
#X connect 1 1 8 0;
#X connect 2 0 3 1;
#X connect 2 0 8 1;
#X connect 3 0 1 0;
#X connect 4 0 3 0;
#X connect 5 1 6 0;
#X connect 6 0 0 0;
#X connect 7 0 9 0;
#X connect 8 0 7 1;
#X connect 9 0 4 0;
#X connect 9 1 7 0;
#X connect 10 0 8 0;
#X connect 10 0 13 0;
#X connect 11 0 2 0;
#X connect 13 0 12 0;
#X restore 564 495 pd savestate;
#X obj 645 454 else/receiver -local sym, f 13;
#N canvas 251 108 631 527 savestate 0;
#X obj 168 340 outlet;
#X obj 101 261 route bang;
#X obj 101 233 route x, f 9;
#X obj 101 202 list trim;
#X obj 239 193 list;
#X obj 264 137 list prepend, f 7;
#X obj 101 142 savestate;
#X obj 263 79 inlet;
#X obj 342 96 inlet;
#X obj 339 191 else/format %s-learn;
#X obj 168 295 else/insert teach;
#X connect 1 1 5 0;
#X connect 1 1 10 0;
#X connect 2 0 1 0;
#X connect 3 0 2 0;
#X connect 4 0 6 0;
#X connect 5 0 4 1;
#X connect 6 0 3 0;
#X connect 6 1 4 0;
#X connect 7 0 5 0;
#X connect 8 0 9 0;
#X connect 9 0 2 1;
#X connect 9 0 5 1;
#X connect 10 0 0 0;
#X restore 156 579 pd savestate;
#X obj 237 550 else/receiver -local sym;
#X obj 173 22 else/loadbanger -init;
#X obj 433 706 s;
#X msg 40 453 learn;
#X obj 40 200 t b b;
#X obj 173 277 t b b;
#X obj 40 506 else/changed;
#X obj 442 375 else/changed;
#X obj 72 398 send \$0-deactivate, f 13;
#X msg 72 370 deactivate;
#X obj 187 433 r \$0-deactivate;
#X obj 431 266 r \$0-deactivate;
#X obj 173 55 symbol wet;
#X obj 433 659 else/rescale 0 1;
#X connect 0 0 30 0;
#X connect 1 0 2 0;
#X connect 1 1 23 0;
#X connect 2 0 37 0;
#X connect 2 1 13 0;
#X connect 3 0 4 0;
#X connect 4 0 28 0;
#X connect 5 0 29 0;
#X connect 6 0 11 0;
#X connect 7 0 6 0;
#X connect 8 0 9 0;
#X connect 9 0 11 0;
#X connect 10 0 26 1;
#X connect 12 0 31 0;
#X connect 13 0 31 0;
#X connect 14 0 37 0;
#X connect 14 1 15 0;
#X connect 15 0 16 0;
#X connect 15 1 21 0;
#X connect 15 1 0 0;
#X connect 16 0 21 0;
#X connect 17 0 5 0;
#X connect 19 0 8 1;
#X connect 20 0 10 0;
#X connect 21 0 14 0;
#X connect 22 0 21 1;
#X connect 23 0 1 0;
#X connect 24 0 23 1;
#X connect 25 0 36 0;
#X connect 27 0 30 0;
#X connect 28 0 27 0;
#X connect 28 0 12 0;
#X connect 28 1 7 0;
#X connect 28 1 33 0;
#X connect 29 0 0 0;
#X connect 29 0 13 0;
#X connect 29 1 8 0;
#X connect 30 0 1 0;
#X connect 31 0 14 0;
#X connect 33 0 32 0;
#X connect 34 0 30 0;
#X connect 35 0 14 0;
#X connect 36 0 3 0;
#X connect 36 0 17 0;
#X connect 36 0 18 0;
#X connect 36 0 7 1;
#X connect 37 0 26 0;
#X restore 86 131 pd wet;
#X restore 448 239 pd Learn;
#X connect 0 0 12 0;
#X connect 0 1 6 0;
#X connect 12 0 1 0;
#X coords 0 1 100 -1 197 175 2 200 125;
