#N canvas 450 88 884 495 12;
#X obj 78 74 inlet~;
#X obj 78 387 outlet~;
#N canvas 423 57 837 403 preset 0;
#X msg 125 86 name \$1;
#X obj 90 161 else/receiver;
#X obj 123 210 route list;
#N canvas 596 76 491 352 id-name-init 0;
#X obj 165 113 + 1;
#X obj 257 100 else/dollsym 1;
#X obj 141 80 value;
#X obj 141 252 outlet;
#X obj 141 51 else/loadbanger 2;
#X obj 141 201 else/dollsym 1;
#X obj 257 76 symbol plaits-id_\\\$0;
#X obj 141 166 makefilename \\\$0-plaits-%d;
#X connect 0 0 2 0;
#X connect 1 0 2 1;
#X connect 2 0 0 0;
#X connect 2 0 7 0;
#X connect 4 0 2 0;
#X connect 4 1 6 0;
#X connect 5 0 3 0;
#X connect 6 0 1 0;
#X connect 7 0 5 0;
#X restore 90 39 pd id-name-init;
#X obj 122 247 else/dispatch \$0-set-freq \$0-set-harmonics \$0-set-timbre \$0-set-morph \$0-set-model \$0-set-cutoff \$0-set-decay \$0-set-freq-att \$0-set-timbre-att \$0-set-harmonics-att \$0-set-morph-att \$0-set-n-voices \$0-set-trigger-mode \$0-set-level-mode, f 82;
#X obj 90 310 else/var \$0-freq \$0-harmonics \$0-timbre \$0-morph \$0-model \$0-cutoff \$0-decay \$0-freq-att \$0-timbre-att \$0-harmonics-att \$0-morph-att \$0-n-voices \$0-trigger-mode \$0-level-mode, f 88;
#X obj 125 121 else/sender 1 \$0-presets;
#X connect 0 0 6 0;
#X connect 1 0 2 0;
#X connect 1 0 5 0;
#X connect 2 0 4 0;
#X connect 3 0 0 0;
#X connect 3 0 1 0;
#X restore 568 72 pd preset;
#N canvas 611 115 730 398 init-savestate 0;
#X obj 154 57 savestate;
#X obj 49 125 list;
#X obj 49 43 loadbang;
#X obj 98 128 route list;
#X obj 97 99 list trim;
#X obj 214 88 else/var \$0-freq \$0-harmonics \$0-timbre \$0-morph \$0-model \$0-cutoff \$0-decay \$0-freq-att \$0-timbre-att \$0-harmonics-att \$0-morph-att \$0-n-voices \$0-trigger-mode \$0-level-mode \$0-GUI, f 67;
#X obj 49 198 else/default 0 0.5 0.5 0.5 0 0.5 0.5 0 0 0 0 1 0 1 1;
#X obj 49 232 else/delete 15 1;
#X obj 49 292 else/dispatch \$0-set-freq \$0-set-harmonics \$0-set-timbre \$0-set-morph \$0-set-model \$0-set-cutoff \$0-set-decay \$0-set-freq-att \$0-set-timbre-att \$0-set-harmonics-att \$0-set-morph-att \$0-set-n-voices \$0-set-trigger-mode \$0-set-level-mode, f 73;
#X obj 178 233 s \$0-set-GUI;
#X obj 49 260 else/pipe2 1;
#X connect 0 0 4 0;
#X connect 0 1 5 0;
#X connect 1 0 6 0;
#X connect 2 0 1 0;
#X connect 3 0 1 1;
#X connect 4 0 3 0;
#X connect 5 0 0 0;
#X connect 6 0 7 0;
#X connect 7 0 10 0;
#X connect 7 1 9 0;
#X connect 10 0 8 0;
#X restore 513 49 pd init-savestate;
#X obj 188 387 outlet~;
#N canvas 500 209 870 664 GUI 0;
#N canvas 181 203 498 298 radio-1 0;
#X obj 90 43 r \$0-radio-1;
#X msg 117 127 color #dfdfdf #dfdfdf #000000;
#X obj 90 71 t f b;
#X obj 125 153 s \$0-set-radio-2;
#X obj 132 95 s \$0-set-radio-1;
#X obj 90 204 outlet;
#X obj 117 176 s \$0-set-radio-3;
#X msg 214 23 color #dfdfdf #00ff00 #000000;
#X msg 132 71 color #dfdfdf #00b1a5 #000000;
#X connect 0 0 2 0;
#X connect 1 0 3 0;
#X connect 1 0 6 0;
#X connect 2 0 5 0;
#X connect 2 1 1 0;
#X connect 2 1 8 0;
#X connect 8 0 4 0;
#X restore 12 246 pd radio-1;
#N canvas 202 189 450 300 radio-2 0;
#X obj 85 98 t f b;
#X obj 85 231 outlet;
#X obj 85 40 r \$0-radio-2;
#X obj 127 122 s \$0-set-radio-2;
#X obj 85 68 + 8;
#X msg 112 154 color #dfdfdf #dfdfdf #000000;
#X obj 123 178 s \$0-set-radio-1;
#X obj 112 199 s \$0-set-radio-3;
#X msg 127 98 color #dfdfdf #ff518d #000000;
#X connect 0 0 1 0;
#X connect 0 1 5 0;
#X connect 0 1 8 0;
#X connect 2 0 4 0;
#X connect 4 0 0 0;
#X connect 5 0 6 0;
#X connect 5 0 7 0;
#X connect 8 0 3 0;
#X restore 38 270 pd radio-2;
#N canvas 202 189 450 300 radio-3 0;
#X obj 85 98 t f b;
#X obj 85 231 outlet;
#X obj 112 207 s \$0-set-radio-1;
#X msg 112 154 color #dfdfdf #dfdfdf #000000;
#X obj 85 40 r \$0-radio-3;
#X obj 85 68 + 16;
#X obj 130 182 s \$0-set-radio-2;
#X obj 127 122 s \$0-set-radio-3;
#X msg 127 98 color #dfdfdf #f4560a #000000;
#X connect 0 0 1 0;
#X connect 0 1 3 0;
#X connect 0 1 8 0;
#X connect 3 0 2 0;
#X connect 3 0 6 0;
#X connect 4 0 5 0;
#X connect 5 0 0 0;
#X connect 8 0 7 0;
#X restore 50 293 pd radio-3;
#X obj 38 329 s \$0-model;
#X obj 17 492 else/spread 8 16;
#X obj 20 200 s \$0-label;
#X obj 20 29 r \$0-name;
#X obj 20 53 route 0;
#X obj 20 77 route name;
#X obj 20 124 symbol;
#X obj 71 569 s \$0-set-radio-2;
#X obj 126 544 s \$0-set-radio-3;
#X obj 52 597 s \$0-set-radio-1;
#X obj 17 465 r \$0-set-model;
#X obj 71 521 - 8;
#X obj 126 519 - 16;
#X obj 20 174 else/insert set;
#X obj 20 101 else/changed;
#X obj 175 108 r \$0-model;
#X obj 224 290 r \$0-morph;
#X obj 191 168 r \$0-harmonics;
#X obj 235 349 r \$0-cutoff;
#X obj 246 408 r \$0-decay;
#X obj 210 228 r \$0-timbre;
#X msg 175 137 model \$1;
#X msg 191 197 harmonics \$1;
#X msg 210 257 timbre \$1;
#X msg 224 319 morph \$1;
#X msg 235 378 cutoff \$1;
#X msg 245 435 decay \$1;
#X obj 175 509 s \$0-to-plaits;
#X obj 175 479 else/insert all;
#X obj 446 223 r \$0-fm-in;
#X obj 310 16 r \$0-trig;
#X obj 446 621 s \$0-to-plaits;
#X obj 446 594 else/insert all;
#X msg 446 245 freq_active \$1;
#X obj 463 273 r \$0-t-in;
#X msg 463 295 timbre_active \$1;
#X obj 487 376 r \$0-m-in;
#X msg 487 399 morph_active \$1;
#X msg 498 449 freq_mod \$1;
#X msg 517 552 morph_mod \$1;
#X msg 311 152 tr_active \$1;
#X msg 422 195 lvl_active \$1;
#X obj 475 323 r \$0-midi-mode;
#X msg 475 344 midi_active \$1;
#X obj 344 43 r \$0-trigger-mode;
#X msg 158 46 set \$1;
#X obj 158 76 s \$0-set-model-n;
#X obj 158 15 r \$0-model;
#X obj 84 375 r \$0-freq;
#X msg 84 405 transp \$1;
#X obj 20 149 else/symbol2any;
#X obj 433 126 else/hot 3;
#X obj 466 99 r \$0-level-mode;
#X obj 433 74 r \$0-level;
#X obj 310 75 else/hot 3;
#X obj 524 37 r \$0-midi-mode;
#X obj 310 109 expr $f1 || ($f2 && $f3), f 12;
#X obj 422 153 expr $f1 || ($f2 && $f3), f 13;
#N canvas 96 148 850 547 collapse 0;
#X obj 28 155 r \$0-uncollapse;
#X obj 314 432 r \$0-detatch;
#X obj 232 158 else/canvas.setname \$0-m 2;
#X obj 314 314 r \$0-set-GUI;
#X obj 314 398 s \$0-uncollapse;
#X obj 337 371 s \$0-collapse;
#X obj 314 343 sel 1 0;
#X obj 28 21 r \$0-collapse;
#X obj 28 189 else/message \; \$0-button readonly 0 \, transparent 2 \; pd-\$0-plaits donecanvasdialog 1 1 1 0 0 1 1 402 230 15 15 \, vis 0 \; \$0-cnv color #bbbbbb #000000 #000000 \; \$0-m goprect 400 125 418 259 \, dirty 0 \; \$0-GUI 1;
#X obj 314 459 message \; pd-\$0-plaits vis 1;
#X obj 28 50 else/message \; \$0-button readonly 1 \, transparent 3 \; pd-\$0-plaits donecanvasdialog 1 1 0 0 0 1 1 215 215 15 15 \; \$0-cnv color #dbdbdb #000000 #dbdbdb \; \$0-m goprect 500 405 138 44 \, dirty 0 \; \$0-GUI 0;
#X obj 510 78 r \$0-detatch-hover;
#X obj 585 444 s \$0-label-collapsed;
#X obj 562 310 sel 0 1;
#X obj 492 308 loadbang;
#X obj 530 107 else/canvas.edit 3;
#X obj 562 282 change;
#X obj 530 193 sel 1;
#X obj 510 220 f;
#X obj 530 166 t f f, f 10;
#X obj 530 136 == 0;
#X obj 510 246 spigot;
#X msg 560 392 label PLAITS \, label_font 0 24 \, label_pos 5 15, f 30;
#X msg 585 343 label ⤢ \, label_font 0 48 \, label_pos 37 12, f 25;
#X connect 0 0 8 0;
#X connect 1 0 9 0;
#X connect 3 0 6 0;
#X connect 6 0 4 0;
#X connect 6 1 5 0;
#X connect 7 0 10 0;
#X connect 11 0 18 0;
#X connect 13 0 22 0;
#X connect 13 1 23 0;
#X connect 14 0 22 0;
#X connect 15 0 20 0;
#X connect 16 0 13 0;
#X connect 17 0 18 0;
#X connect 17 1 16 0;
#X connect 18 0 21 0;
#X connect 19 0 17 0;
#X connect 19 1 21 1;
#X connect 20 0 19 0;
#X connect 21 0 16 0;
#X connect 22 0 12 0;
#X connect 23 0 12 0;
#X restore 707 275 pd collapse;
#N canvas 398 60 962 587 tab 0;
#X msg 149 86 active 0;
#X msg 130 146 active 1;
#X obj 130 57 r \$0-freq-tab;
#X obj 149 114 s \$0-set-freq;
#X obj 130 174 s \$0-set-timbre;
#X msg 149 237 active 0;
#X msg 130 297 active 1;
#X obj 130 208 r \$0-timbre-tab;
#X obj 149 265 s \$0-set-timbre;
#X obj 130 325 s \$0-set-harmonics;
#X msg 149 392 active 0;
#X msg 130 452 active 1;
#X obj 130 363 r \$0-harmonics-tab;
#X obj 149 420 s \$0-set-harmonics;
#X obj 130 480 s \$0-set-morph;
#X msg 327 70 active 0;
#X msg 308 130 active 1;
#X msg 319 228 active 0;
#X msg 300 288 active 1;
#X msg 323 384 active 0;
#X msg 304 444 active 1;
#X obj 304 355 r \$0-decay-tab;
#X obj 323 412 s \$0-set-decay;
#X obj 304 472 s \$0-set-freq;
#X obj 300 316 s \$0-set-decay;
#X obj 308 41 r \$0-morph-tab;
#X obj 327 98 s \$0-set-morph;
#X obj 308 158 s \$0-set-cutoff;
#X obj 300 199 r \$0-cutoff-tab;
#X obj 319 256 s \$0-set-cutoff;
#X msg 543 121 active 0;
#X msg 524 181 active 1;
#X obj 524 92 r \$0-freq-att-tab;
#X obj 543 149 s \$0-set-freq-att;
#X msg 549 298 active 0;
#X msg 530 358 active 1;
#X obj 530 269 r \$0-timbre-att-tab;
#X obj 549 326 s \$0-set-timbre-att;
#X obj 530 386 s \$0-set-harmonics-att;
#X obj 524 209 s \$0-set-timbre-att;
#X msg 743 121 active 0;
#X msg 724 181 active 1;
#X obj 724 92 r \$0-harmonics-att-tab;
#X obj 743 149 s \$0-set-harmonics-att;
#X obj 724 209 s \$0-set-morph-att;
#X msg 751 296 active 0;
#X msg 732 356 active 1;
#X obj 732 384 s \$0-set-freq-att;
#X obj 732 267 r \$0-morph-att-tab;
#X obj 751 324 s \$0-set-morph-att;
#X connect 0 0 3 0;
#X connect 1 0 4 0;
#X connect 2 0 0 0;
#X connect 2 0 1 0;
#X connect 5 0 8 0;
#X connect 6 0 9 0;
#X connect 7 0 5 0;
#X connect 7 0 6 0;
#X connect 10 0 13 0;
#X connect 11 0 14 0;
#X connect 12 0 10 0;
#X connect 12 0 11 0;
#X connect 15 0 26 0;
#X connect 16 0 27 0;
#X connect 17 0 29 0;
#X connect 18 0 24 0;
#X connect 19 0 22 0;
#X connect 20 0 23 0;
#X connect 21 0 19 0;
#X connect 21 0 20 0;
#X connect 25 0 15 0;
#X connect 25 0 16 0;
#X connect 28 0 17 0;
#X connect 28 0 18 0;
#X connect 30 0 33 0;
#X connect 31 0 39 0;
#X connect 32 0 30 0;
#X connect 32 0 31 0;
#X connect 34 0 37 0;
#X connect 35 0 38 0;
#X connect 36 0 34 0;
#X connect 36 0 35 0;
#X connect 40 0 43 0;
#X connect 41 0 44 0;
#X connect 42 0 40 0;
#X connect 42 0 41 0;
#X connect 45 0 49 0;
#X connect 46 0 47 0;
#X connect 48 0 45 0;
#X connect 48 0 46 0;
#X restore 709 225 pd tab;
#N canvas 664 93 806 564 att-fm 0;
#X obj 52 122 sel 0 1;
#X msg 52 213 set;
#X obj 164 140 spigot;
#X msg 164 435 set \$1;
#X obj 164 403 else/format %.2f;
#X msg 295 423 set \$1|;
#X obj 52 55 else/hot;
#X obj 52 85 ||;
#X obj 65 183 loadbang;
#X obj 492 373 expr copysign(sqrt(abs($f1)) \, $f1);
#X obj 445 181 expr copysign(pow($f1 \, 2) \, $f1);
#X obj 164 211 expr copysign(pow($f1 \, 2) \, $f1);
#X msg 492 436 set \$1;
#X obj 468 330 else/nmess 1;
#X obj 549 305 b;
#X obj 52 23 r \$0-freq-att-hover;
#X obj 121 53 r \$0-freq-att-active;
#X obj 290 56 r \$0-freq-att;
#X obj 185 179 v \$0-freq-att;
#X obj 295 249 r \$0-freq-att-typing;
#X obj 467 248 r \$0-freq-att-enter;
#X obj 506 403 v \$0-freq-att;
#X obj 492 463 s \$0-set-freq-att;
#X obj 164 476 s \$0-fm-att#;
#X obj 444 506 s \$0-real-fm-att;
#X connect 0 0 1 0;
#X connect 0 1 18 0;
#X connect 1 0 23 0;
#X connect 2 0 11 0;
#X connect 3 0 23 0;
#X connect 4 0 3 0;
#X connect 5 0 23 0;
#X connect 6 0 7 0;
#X connect 6 1 7 1;
#X connect 7 0 0 0;
#X connect 7 0 2 1;
#X connect 8 0 1 0;
#X connect 9 0 12 0;
#X connect 9 0 21 0;
#X connect 10 0 24 0;
#X connect 11 0 4 0;
#X connect 12 0 22 0;
#X connect 13 0 9 0;
#X connect 13 0 4 0;
#X connect 13 0 24 0;
#X connect 14 0 13 1;
#X connect 15 0 6 0;
#X connect 16 0 6 1;
#X connect 17 0 2 0;
#X connect 17 0 10 0;
#X connect 18 0 11 0;
#X connect 19 0 5 0;
#X connect 19 0 14 0;
#X connect 20 0 13 0;
#X restore 709 332 pd att-fm;
#N canvas 664 100 806 564 att-timbre 0;
#X obj 52 122 sel 0 1;
#X msg 52 213 set;
#X obj 164 140 spigot;
#X msg 164 435 set \$1;
#X obj 164 403 else/format %.2f;
#X msg 295 423 set \$1|;
#X obj 52 55 else/hot;
#X obj 52 85 ||;
#X obj 65 183 loadbang;
#X obj 512 373 expr copysign(sqrt(abs($f1)) \, $f1);
#X obj 465 181 expr copysign(pow($f1 \, 2) \, $f1);
#X obj 164 211 expr copysign(pow($f1 \, 2) \, $f1);
#X msg 512 436 set \$1;
#X obj 488 330 else/nmess 1;
#X obj 569 305 b;
#X obj 52 23 r \$0-timbre-att-hover;
#X obj 121 53 r \$0-timbre-att-active;
#X obj 290 56 r \$0-timbre-att;
#X obj 488 248 r \$0-timbre-att-enter;
#X obj 295 249 r \$0-timbre-att-typing;
#X obj 526 403 v \$0-timbre-att;
#X obj 512 463 s \$0-set-timbre-att;
#X obj 465 506 s \$0-real-timbre-att;
#X obj 185 179 v \$0-timbre-att;
#X obj 13 131 tgl 19 0 empty empty empty 0 -10 0 12 #fcfcfc #000000 #000000 0 1;
#X obj 164 476 s \$0-timbre-att#;
#X connect 0 0 1 0;
#X connect 0 1 23 0;
#X connect 1 0 25 0;
#X connect 2 0 11 0;
#X connect 3 0 25 0;
#X connect 4 0 3 0;
#X connect 5 0 25 0;
#X connect 6 0 7 0;
#X connect 6 1 7 1;
#X connect 7 0 0 0;
#X connect 7 0 2 1;
#X connect 7 0 24 0;
#X connect 8 0 1 0;
#X connect 9 0 12 0;
#X connect 9 0 20 0;
#X connect 10 0 22 0;
#X connect 11 0 4 0;
#X connect 12 0 21 0;
#X connect 13 0 9 0;
#X connect 13 0 4 0;
#X connect 13 0 22 0;
#X connect 14 0 13 1;
#X connect 15 0 6 0;
#X connect 16 0 6 1;
#X connect 17 0 2 0;
#X connect 17 0 10 0;
#X connect 18 0 13 0;
#X connect 19 0 5 0;
#X connect 19 0 14 0;
#X connect 23 0 11 0;
#X restore 709 362 pd att-timbre;
#N canvas 664 93 806 564 att-harm 0;
#X obj 52 122 sel 0 1;
#X msg 52 213 set;
#X obj 164 140 spigot;
#X msg 164 435 set \$1;
#X obj 164 403 else/format %.2f;
#X msg 295 423 set \$1|;
#X obj 52 55 else/hot;
#X obj 52 85 ||;
#X obj 65 183 loadbang;
#X obj 492 373 expr copysign(sqrt(abs($f1)) \, $f1);
#X obj 445 181 expr copysign(pow($f1 \, 2) \, $f1);
#X obj 164 211 expr copysign(pow($f1 \, 2) \, $f1);
#X msg 492 436 set \$1;
#X obj 468 330 else/nmess 1;
#X obj 549 305 b;
#X obj 164 476 s \$0-harm-att#;
#X obj 13 151 tgl 19 0 empty empty empty 0 -10 0 12 #fcfcfc #000000 #000000 0 1;
#X obj 52 23 r \$0-harmonics-att-hover;
#X obj 121 53 r \$0-harmonics-att-active;
#X obj 324 51 r \$0-harmonics-att;
#X obj 185 179 v \$0-harmonics-att;
#X obj 467 248 r \$0-harmonics-att-enter;
#X obj 238 248 r \$0-harmonics-att-typing;
#X obj 506 403 v \$0-harmonics-att;
#X obj 492 463 s \$0-set-harmonics-att;
#X obj 444 506 s \$0-real-harmonics-att;
#X connect 0 0 1 0;
#X connect 0 1 20 0;
#X connect 1 0 15 0;
#X connect 2 0 11 0;
#X connect 3 0 15 0;
#X connect 4 0 3 0;
#X connect 5 0 15 0;
#X connect 6 0 7 0;
#X connect 6 1 7 1;
#X connect 7 0 0 0;
#X connect 7 0 2 1;
#X connect 7 0 16 0;
#X connect 8 0 1 0;
#X connect 9 0 12 0;
#X connect 9 0 23 0;
#X connect 10 0 25 0;
#X connect 11 0 4 0;
#X connect 12 0 24 0;
#X connect 13 0 9 0;
#X connect 13 0 4 0;
#X connect 13 0 25 0;
#X connect 14 0 13 1;
#X connect 17 0 6 0;
#X connect 18 0 6 1;
#X connect 19 0 2 0;
#X connect 19 0 10 0;
#X connect 20 0 11 0;
#X connect 21 0 13 0;
#X connect 22 0 5 0;
#X connect 22 0 14 0;
#X restore 708 395 pd att-harm;
#N canvas 664 100 806 564 att-morph 0;
#X obj 52 122 sel 0 1;
#X msg 52 213 set;
#X obj 164 140 spigot;
#X msg 164 435 set \$1;
#X obj 164 403 else/format %.2f;
#X msg 295 423 set \$1|;
#X obj 52 55 else/hot;
#X obj 52 85 ||;
#X obj 65 183 loadbang;
#X obj 512 373 expr copysign(sqrt(abs($f1)) \, $f1);
#X obj 465 181 expr copysign(pow($f1 \, 2) \, $f1);
#X obj 164 211 expr copysign(pow($f1 \, 2) \, $f1);
#X msg 512 436 set \$1;
#X obj 488 330 else/nmess 1;
#X obj 569 305 b;
#X obj 52 23 r \$0-morph-att-hover;
#X obj 121 53 r \$0-morph-att-active;
#X obj 290 56 r \$0-morph-att;
#X obj 185 179 v \$0-morph-att;
#X obj 295 249 r \$0-morph-att-typing;
#X obj 488 248 r \$0-morph-att-enter;
#X obj 526 403 v \$0-morph-att;
#X obj 164 476 s \$0-morph-att#;
#X obj 465 506 s \$0-real-morph-att;
#X obj 512 463 s \$0-set-morph-att;
#X connect 0 0 1 0;
#X connect 0 1 18 0;
#X connect 1 0 22 0;
#X connect 2 0 11 0;
#X connect 3 0 22 0;
#X connect 4 0 3 0;
#X connect 5 0 22 0;
#X connect 6 0 7 0;
#X connect 6 1 7 1;
#X connect 7 0 0 0;
#X connect 7 0 2 1;
#X connect 8 0 1 0;
#X connect 9 0 12 0;
#X connect 9 0 21 0;
#X connect 10 0 23 0;
#X connect 11 0 4 0;
#X connect 12 0 24 0;
#X connect 13 0 9 0;
#X connect 13 0 4 0;
#X connect 13 0 23 0;
#X connect 14 0 13 1;
#X connect 15 0 6 0;
#X connect 16 0 6 1;
#X connect 17 0 2 0;
#X connect 17 0 10 0;
#X connect 18 0 11 0;
#X connect 19 0 5 0;
#X connect 19 0 14 0;
#X connect 20 0 13 0;
#X restore 708 425 pd att-morph;
#X obj 498 427 r \$0-real-fm-att;
#X obj 517 530 r \$0-real-morph-att;
#X obj 508 479 r \$0-real-timbre-att;
#X msg 508 502 timbre_mod \$1;
#X connect 0 0 3 0;
#X connect 1 0 3 0;
#X connect 2 0 3 0;
#X connect 4 0 12 0;
#X connect 4 1 14 0;
#X connect 4 2 15 0;
#X connect 6 0 7 0;
#X connect 7 0 8 0;
#X connect 8 0 17 0;
#X connect 9 0 53 0;
#X connect 13 0 4 0;
#X connect 14 0 10 0;
#X connect 15 0 11 0;
#X connect 16 0 5 0;
#X connect 17 0 9 0;
#X connect 18 0 24 0;
#X connect 19 0 27 0;
#X connect 20 0 25 0;
#X connect 21 0 28 0;
#X connect 22 0 29 0;
#X connect 23 0 26 0;
#X connect 24 0 31 0;
#X connect 25 0 31 0;
#X connect 26 0 31 0;
#X connect 27 0 31 0;
#X connect 28 0 31 0;
#X connect 29 0 31 0;
#X connect 31 0 30 0;
#X connect 32 0 36 0;
#X connect 33 0 57 0;
#X connect 35 0 34 0;
#X connect 36 0 35 0;
#X connect 37 0 38 0;
#X connect 38 0 35 0;
#X connect 39 0 40 0;
#X connect 40 0 35 0;
#X connect 41 0 35 0;
#X connect 42 0 35 0;
#X connect 43 0 35 0;
#X connect 44 0 35 0;
#X connect 45 0 46 0;
#X connect 46 0 35 0;
#X connect 47 0 57 1;
#X connect 48 0 49 0;
#X connect 50 0 48 0;
#X connect 51 0 52 0;
#X connect 52 0 31 0;
#X connect 53 0 16 0;
#X connect 54 0 60 0;
#X connect 54 1 60 1;
#X connect 54 2 60 2;
#X connect 55 0 54 1;
#X connect 56 0 54 0;
#X connect 57 0 59 0;
#X connect 57 1 59 1;
#X connect 57 2 59 2;
#X connect 58 0 54 2;
#X connect 58 0 57 2;
#X connect 59 0 43 0;
#X connect 60 0 44 0;
#X connect 67 0 41 0;
#X connect 68 0 42 0;
#X connect 69 0 70 0;
#X connect 70 0 35 0;
#X restore 513 72 pd GUI;
#X obj 299 346 s \$0-name;
#X obj 134 74 inlet~;
#X obj 78 312 clone -d plaits.unit 1, f 32;
#N canvas 179 236 1182 412 check 0;
#X obj 44 63 inlet~;
#X obj 44 346 outlet~;
#X obj 80 105 else/pick~ 1;
#X obj 80 152 else/s2f~;
#X obj 80 185 change;
#X obj 80 128 else/op~ != 1e+06;
#X obj 80 273 s \$0-trig;
#X obj 44 301 else/select~ 1;
#X obj 217 58 inlet~;
#X obj 217 341 outlet~;
#X obj 253 100 else/pick~ 1;
#X obj 253 147 else/s2f~;
#X obj 253 180 change;
#X obj 253 123 else/op~ != 1e+06;
#X obj 217 296 else/select~ 1;
#X obj 253 248 s \$0-level;
#X obj 447 63 inlet~;
#X obj 447 346 outlet~;
#X obj 483 105 else/pick~ 1;
#X obj 483 152 else/s2f~;
#X obj 483 185 change;
#X obj 483 128 else/op~ != 1e+06;
#X obj 447 301 else/select~ 1;
#X obj 617 58 inlet~;
#X obj 617 341 outlet~;
#X obj 653 100 else/pick~ 1;
#X obj 653 147 else/s2f~;
#X obj 653 180 change;
#X obj 653 123 else/op~ != 1e+06;
#X obj 617 296 else/select~ 1;
#X obj 787 58 inlet~;
#X obj 787 341 outlet~;
#X obj 977 63 inlet~;
#X obj 977 346 outlet~;
#X obj 1013 105 else/pick~ 1;
#X obj 1013 152 else/s2f~;
#X obj 1013 185 change;
#X obj 1013 128 else/op~ != 1e+06;
#X obj 977 301 else/select~ 1;
#X obj 787 254 *~;
#X obj 483 273 s \$0-fm-in;
#X obj 653 248 s \$0-t-in;
#X obj 1013 273 s \$0-m-in;
#X obj 805 222 else/f2s~;
#X text 36 35 trigger;
#X text 221 35 level;
#X text 451 35 FM;
#X text 619 32 timbre;
#X text 781 34 harmonics;
#X text 978 33 morph;
#X obj 805 190 r \$0-real-harmonics-att;
#X obj 787 298 else/rescale~;
#X connect 0 0 2 0;
#X connect 0 0 7 0;
#X connect 2 0 5 0;
#X connect 3 0 4 0;
#X connect 4 0 7 0;
#X connect 4 0 6 0;
#X connect 5 0 3 0;
#X connect 7 0 1 0;
#X connect 8 0 10 0;
#X connect 8 0 14 0;
#X connect 10 0 13 0;
#X connect 11 0 12 0;
#X connect 12 0 14 0;
#X connect 12 0 15 0;
#X connect 13 0 11 0;
#X connect 14 0 9 0;
#X connect 16 0 18 0;
#X connect 16 0 22 0;
#X connect 18 0 21 0;
#X connect 19 0 20 0;
#X connect 20 0 22 0;
#X connect 20 0 40 0;
#X connect 21 0 19 0;
#X connect 22 0 17 0;
#X connect 23 0 25 0;
#X connect 23 0 29 0;
#X connect 25 0 28 0;
#X connect 26 0 27 0;
#X connect 27 0 29 0;
#X connect 27 0 41 0;
#X connect 28 0 26 0;
#X connect 29 0 24 0;
#X connect 30 0 39 0;
#X connect 32 0 34 0;
#X connect 32 0 38 0;
#X connect 34 0 37 0;
#X connect 35 0 36 0;
#X connect 36 0 38 0;
#X connect 36 0 42 0;
#X connect 37 0 35 0;
#X connect 38 0 33 0;
#X connect 39 0 51 0;
#X connect 43 0 39 1;
#X connect 50 0 43 0;
#X connect 51 0 31 0;
#X restore 232 247 pd check;
#X f 10;
#X obj 184 74 inlet~;
#X obj 233 74 inlet~;
#X obj 284 74 inlet~;
#X obj 334 74 inlet~;
#X obj 385 74 inlet~;
#X text 599 126 FM;
#X text 401 126 Freq;
#X text 444 126 Trigger;
#X text 521 126 Level;
#X text 654 126 Timbre;
#X text 779 126 Morph;
#X text 729 126 Harm;
#X obj 233 25 else/initmess 1e+06;
#N canvas 293 48 582 524 set 0;
#X obj 95 455 outlet;
#X obj 84 35 inlet~;
#X obj 95 397 r \$0-to-plaits;
#X obj 175 38 inlet;
#N canvas 703 216 571 476 resize 0;
#X obj 64 37 inlet~;
#X obj 64 268 t b f;
#X obj 64 218 change 0;
#X obj 64 88 else/nchs~;
#X obj 142 289 s \$0-to-plaits;
#X msg 142 264 resize \$1;
#X obj 156 116 == 0;
#X obj 305 31 r \$0-n;
#X obj 156 47 r \$0-midi-mode;
#X obj 185 165 spigot;
#X obj 64 322 else/var \$0-freq \$0-model \$0-harmonics \$0-timbre \$0-morph \$0-cutoff \$0-decay \$0-trig \$0-level \$0-fm-in \$0-t-in \$0-m-in \$0-freq-att \$0-timbre-att \$0-morph-att \$0-midi-mode;
#X obj 64 391 else/dispatch \$0-freq \$0-model \$0-harmonics \$0-timbre \$0-morph \$0-cutoff \$0-decay \$0-trig \$0-level \$0-fm-in \$0-t-in \$0-m-in \$0-freq-att \$0-timbre-att \$0-morph-att \$0-midi-mode, f 62;
#X obj 274 101 t f f;
#X obj 274 162 sel 1;
#X obj 219 119 f;
#X obj 64 116 spigot 1;
#X obj 142 235 max 1;
#X obj 64 166 pipe 0;
#X connect 0 0 3 0;
#X connect 1 0 10 0;
#X connect 1 1 16 0;
#X connect 2 0 1 0;
#X connect 3 0 15 0;
#X connect 5 0 4 0;
#X connect 6 0 15 1;
#X connect 7 0 14 0;
#X connect 8 0 6 0;
#X connect 8 0 12 0;
#X connect 9 0 2 0;
#X connect 10 0 11 0;
#X connect 12 0 13 0;
#X connect 12 1 9 1;
#X connect 13 0 14 0;
#X connect 14 0 9 0;
#X connect 15 0 17 0;
#X connect 16 0 5 0;
#X connect 17 0 2 0;
#X restore 84 337 pd resize;
#N canvas 189 48 592 549 route 0;
#X obj 37 18 inlet;
#X obj 141 487 s \$0-set-freq;
#X obj 162 431 s \$0-set-harmonics;
#X obj 150 458 s \$0-set-timbre;
#X obj 182 403 s \$0-set-morph;
#X obj 203 375 s \$0-set-cutoff;
#X obj 221 347 s \$0-set-decay;
#X obj 238 323 s \$0-set-freq-att;
#X obj 254 296 s \$0-set-timbre-att;
#X obj 267 272 s \$0-set-harmonics-att;
#X obj 281 246 s \$0-set-morph-att;
#N canvas 337 205 461 561 list 0;
#X obj 86 245 else/router;
#X obj 191 282 else/mono;
#X obj 267 399 pack;
#X obj 197 437 list prepend 0;
#X obj 197 484 s \$0-to-plaits;
#X obj 185 71 r \$0-n-voices;
#X obj 185 119 int;
#X obj 274 204 s \$0-set-n-voices;
#X msg 274 177 set \$1;
#X obj 86 59 inlet;
#X obj 207 198 s \$0-n;
#X obj 132 182 == 1;
#X obj 37 312 else/voices 1 1;
#X obj 185 95 clip 1 32;
#X msg 185 250 n \$1;
#X obj 268 369 makenote 0 5;
#X obj 302 287 r \$0-trigger-mode;
#X obj 195 339 else/router;
#X obj 204 308 pack;
#X connect 0 0 12 0;
#X connect 0 1 1 0;
#X connect 1 0 18 0;
#X connect 1 1 18 1;
#X connect 2 0 3 0;
#X connect 3 0 4 0;
#X connect 5 0 13 0;
#X connect 6 0 8 0;
#X connect 6 0 10 0;
#X connect 6 0 11 0;
#X connect 6 0 14 0;
#X connect 8 0 7 0;
#X connect 9 0 0 0;
#X connect 11 0 0 1;
#X connect 12 0 4 0;
#X connect 13 0 6 0;
#X connect 14 0 12 0;
#X connect 15 0 2 0;
#X connect 15 1 2 1;
#X connect 16 0 17 1;
#X connect 17 0 3 0;
#X connect 17 1 15 0;
#X connect 18 0 17 0;
#X restore 37 378 pd list;
#N canvas 123 97 762 358 mode 0;
#X obj 94 38 inlet;
#X obj 306 303 s \$0-set-model;
#X obj 94 138 int;
#X obj 94 162 clip 0 23;
#X obj 94 62 route mode up down right left, f 74;
#X obj 187 117 var \$0-model;
#X obj 306 117 var \$0-model;
#X obj 436 117 var \$0-model;
#X obj 436 148 + 8;
#X obj 562 117 var \$0-model;
#X obj 562 148 - 8;
#X obj 187 178 else/wrap2 0 24;
#X obj 306 178 else/wrap2 0 24;
#X obj 436 178 else/wrap2 0 24;
#X obj 562 178 else/wrap2 0 24;
#X obj 711 259 outlet;
#X obj 187 148 - 1;
#X obj 306 148 + 1;
#X obj 84 102 r \$0-model-n;
#X connect 0 0 4 0;
#X connect 2 0 3 0;
#X connect 3 0 1 0;
#X connect 4 0 2 0;
#X connect 4 1 5 0;
#X connect 4 2 6 0;
#X connect 4 3 7 0;
#X connect 4 4 9 0;
#X connect 4 5 15 0;
#X connect 5 0 16 0;
#X connect 6 0 17 0;
#X connect 7 0 8 0;
#X connect 8 0 13 0;
#X connect 9 0 10 0;
#X connect 10 0 14 0;
#X connect 11 0 1 0;
#X connect 12 0 1 0;
#X connect 13 0 1 0;
#X connect 14 0 1 0;
#X connect 16 0 11 0;
#X connect 17 0 12 0;
#X connect 18 0 2 0;
#X restore 479 57 pd mode;
#N canvas 149 120 708 477 midi 0;
#X obj 122 194 s \$0-set-midi-mode;
#X obj 94 294 s \$0-set-n-voices;
#X obj 122 166 != 0;
#X obj 118 24 inlet;
#X obj 98 252 route float;
#X obj 98 58 route voices midi trigger level, f 52;
#X obj 269 164 != 0;
#X obj 427 167 != 0;
#X obj 269 192 s \$0-set-trigger-mode;
#X obj 427 195 s \$0-set-level-mode;
#X obj 269 109 route float bang;
#X obj 427 112 route float bang;
#X obj 122 111 route float bang;
#X connect 2 0 0 0;
#X connect 3 0 5 0;
#X connect 4 0 1 0;
#X connect 5 0 4 0;
#X connect 5 1 12 0;
#X connect 5 2 10 0;
#X connect 5 3 11 0;
#X connect 6 0 8 0;
#X connect 7 0 9 0;
#X connect 10 0 6 0;
#X connect 10 1 8 0;
#X connect 11 0 7 0;
#X connect 11 1 9 0;
#X connect 12 0 2 0;
#X connect 12 1 0 0;
#X restore 479 91 pd midi;
#X obj 346 209 s \$0-to-plaits;
#X msg 346 183 0 print;
#X obj 415 133 s \$0-set-GUI;
#X obj 415 108 != 0;
#X obj 37 54 route list pitch timbre harmonics morph cutoff decay fm_att timbre_att harm_att morph_att print gui;
#X connect 0 0 18 0;
#X connect 12 0 13 0;
#X connect 15 0 14 0;
#X connect 17 0 16 0;
#X connect 18 0 11 0;
#X connect 18 1 1 0;
#X connect 18 2 3 0;
#X connect 18 3 2 0;
#X connect 18 4 4 0;
#X connect 18 5 5 0;
#X connect 18 6 6 0;
#X connect 18 7 7 0;
#X connect 18 8 8 0;
#X connect 18 9 9 0;
#X connect 18 10 10 0;
#X connect 18 11 15 0;
#X connect 18 12 17 0;
#X connect 18 13 12 0;
#X restore 175 338 pd route;
#X obj 315 154 else/pick~ 1;
#X obj 296 455 outlet~;
#X obj 296 371 *~;
#X obj 314 334 else/op~ != 1e+06;
#X obj 335 224 else/s2f~;
#X obj 335 257 change;
#X obj 335 194 else/op~ == 1e+06;
#X obj 335 291 s \$0-midi-mode;
#X connect 1 0 4 0;
#X connect 1 0 6 0;
#X connect 1 0 8 0;
#X connect 2 0 0 0;
#X connect 3 0 5 0;
#X connect 6 0 9 0;
#X connect 6 0 12 0;
#X connect 8 0 7 0;
#X connect 9 0 8 1;
#X connect 10 0 11 0;
#X connect 11 0 13 0;
#X connect 12 0 10 0;
#X restore 76 206 pd set \; check;
#N canvas 372 87 431 276 \$0-plaits 0;
#N canvas 516 176 516 356 (subpatch) 0;
#X obj 51 51 cnv 15 400 228 empty empty empty 20 12 0 14 #dbdbdb #373737 0;
#X obj 196 117 else/knob 50 0 1 0 0.5 \$0-harmonics \$0-set-harmonics #dfdfdf #7c7c7c #000000 0 0 0 0 1 320 0 0 0.5 empty empty 4 10 3 54 0 0 0 0 0 0;
#X text 189 100 Harmonics;
#X obj 70 196 else/knob 50 0 1 0 0.5 \$0-timbre \$0-set-timbre #dfdfdf #7c7c7c #000000 0 0 0 0 1 320 0 0 0.5 empty empty 4 10 3 54 0 0 0 0 0 0;
#X text 71 179 Timbre;
#X obj 196 196 else/knob 50 0 1 0 0.5 \$0-morph \$0-set-morph #dfdfdf #7c7c7c #000000 0 0 0 0 1 320 0 0 0.5 empty empty 4 10 3 54 0 0 0 0 0 0;
#X text 202 179 Morph;
#X obj 70 117 else/knob 50 -24 24 0 0 \$0-freq \$0-set-freq #dfdfdf #7c7c7c #000000 0 0 0 0 1 320 0 0 0 empty empty 4 10 3 54 0 0 0 0 0 0;
#X obj 131 102 vradio 18 1 0 8 \$0-radio-1 \$0-set-radio-1 empty 0 -8 0 10 #dfdfdf #00b1a5 #000000 0;
#X obj 149 102 vradio 18 1 0 8 \$0-radio-2 \$0-set-radio-2 empty 0 -8 0 10 #dfdfdf #dfdfdf #000000 0;
#X obj 167 102 vradio 18 1 0 8 \$0-radio-3 \$0-set-radio-3 empty 0 -8 0 10 #dfdfdf #dfdfdf #000000 0;
#X obj 60 263 else/note 197 12 Menlo \$0-label 1 0 0 0 0 223 223 223 1 1 Pair of classic waveforms;
#X obj 325 72 else/knob 45 0 1 0 0.5 \$0-cutoff \$0-set-cutoff #dfdfdf #7c7c7c #000000 0 0 0 0 1 320 0 0 0 empty empty 4 10 1 48 0 0 0 0 0 0;
#X obj 385 72 else/knob 45 0 1 0 0.5 \$0-decay \$0-set-decay #dfdfdf #7c7c7c #000000 0 0 0 0 1 320 0 0 0 empty empty 4 10 1 48 0 0 0 0 0 0;
#X text 323 54 Cutoff;
#X text 390 54 Decay;
#X obj 313 160 knob 40 -1 1 0 0 \$0-timbre-att \$0-set-timbre-att #202020 #7c7c7c #ff0400 0 0 0 0 1 320 0 0 0 empty empty 0 0 0 0 0 0 0 0 0 0;
#X obj 268 160 knob 40 -1 1 0 0 \$0-freq-att \$0-set-freq-att #202020 #7c7c7c #ff0400 0 0 0 0 1 320 0 0 0 empty empty 0 8 0 0 0 0 0 0 0 0;
#X obj 358 160 knob 40 -1 1 0 0 \$0-harmonics-att \$0-set-harmonics-att #202020 #7c7c7c #ff0400 0 0 0 0 1 320 0 0 0 empty empty 0 8 0 0 0 0 0 0 0 0;
#X obj 403 160 knob 40 -1 1 0 0 \$0-morph-att \$0-set-morph-att #202020 #7c7c7c #ff0400 0 0 0 0 1 320 0 0 0 empty empty 0 0 0 0 0 0 0 0 0 0;
#X text 278 143 FM;
#X text 309 143 Timbre;
#X text 362 142 Harm;
#X text 402 142 Morph;
#X floatatom 409 253 3 1 32 0 - \$0-set-n-voices \$0-n-voices 16;
#X text 310 222 Trigger;
#X text 399 222 Level;
#X floatatom 224 74 3 0 0 0 - \$0-set-model-n \$0-model-n 12;
#X text 217 56 Mode:;
#X obj 64 60 else/note 112 24 Inter empty 5 54 54 54 0 187 187 187 1 1 PLAITS;
#X text 299 256 # MIDI Voices;
#X obj 184 60 else/button 19 31 #e0e0e0 #808080 2 1 2 0 0 \$0-collapse \$0-button;
#X obj 185 61 cnv 10 17 15 empty \$0-cnv ▼ 5 8 0 12 #bbbbbb #000000 0;
#X obj 185 75 cnv 10 17 15 empty \$0-cnv ▲ 5 5 0 12 #bbbbbb #000000 0;
#X obj 373 219 else/button 25 25 #f5f5f5 #808080 1 1 0 1 0 \$0-level-mode \$0-set-level-mode;
#X obj 283 219 else/button 25 25 #f5f5f5 #808080 1 1 0 1 0 \$0-trigger-mode \$0-set-trigger-mode;
#X obj 280 83 else/note 0 15 Menlo empty 0 0 0 0 0 255 255 255 0 0 LPG;
#X text 74 99 Pitch;
#X text 265 126 ----- Attenuverters -----;
#X obj 269 200 else/note 34 10 Menlo \$0-fm-att# 0 0 0 0 0 255 255 255 0 1;
#X obj 314 200 else/note 35 10 Menlo \$0-timbre-att# 0 0 0 0 0 255 255 255 0 1;
#X obj 359 200 else/note 35 10 Menlo \$0-harm-att# 0 0 0 0 0 255 255 255 0 1;
#X obj 404 200 else/note 35 10 Menlo \$0-morph-att# 0 0 0 0 0 255 255 255 0 1;
#X coords 0 1 100 -1 402 230 1 50 50;
#X restore 15 15 graph;
#X coords 0 0 1 1 402 230 1 15 15;
#X restore 408 147 pd \$0-plaits;
#X obj 613 413 cnv 10 17 15 empty empty ▲ 5 8 0 12 #bbbbbb #000000 0;
#X obj 613 427 cnv 10 17 15 empty empty ▼ 5 5 0 12 #bbbbbb #000000 0;
#X obj 612 412 else/button 19 31 #e0e0e0 #808080 2 1 2 0 0 \$0-uncollapse empty;
#X obj 510 413 cnv 19 95 29 empty \$0-label-collapsed PLAITS 5 15 0 24 #bbbbbb #000000 0;
#X obj 509 412 else/button 97 31 #bbbbbb #bbbbbb 2 1 2 0 0 \$0-detatch \$0-uncollapse-set;
#N canvas 866 167 276 374 Learn 0;
#N canvas 281 38 955 848 freq-knob 0;
#X msg 205 465 forget;
#X obj 290 521 savestate;
#X obj 368 599 list;
#X obj 290 688 else/insert teach;
#X obj 68 510 else/midi.learn 1;
#A saved;
#X obj 591 223 else/canvas.name 100;
#X obj 591 278 else/receiver;
#X obj 591 403 else/nmess;
#X msg 530 248 1;
#X obj 592 671 else/receiver;
#X obj 592 613 else/dollsym 1;
#X obj 624 458 savestate;
#X obj 684 488 list;
#X msg 591 247 symbol \$1-link;
#X obj 68 563 t f b;
#X msg 657 375 0;
#X obj 710 335 b;
#X msg 482 276 clear;
#X obj 624 577 route bang;
#X msg 750 407 clear;
#X obj 75 104 else/format \$0-%s-learn;
#X obj 456 134 else/format %s-learn;
#X obj 393 561 list prepend, f 7;
#X obj 290 582 list trim, f 4;
#X obj 290 628 route x, f 27;
#X obj 341 18 else/loadbanger -init;
#X obj 785 112 else/format rcv-%s;
#X obj 741 454 list prepend;
#X obj 624 549 route x, f 35;
#X obj 624 518 list trim;
#X obj 75 134 else/receiver;
#X obj 284 139 else/format %s-forget;
#X obj 274 276 else/receiver;
#X msg 94 242 Learn for \$1 knob activated, f 14;
#X obj 94 207 symbol;
#X obj 277 335 symbol;
#X msg 277 364 Forget for \$1 knob;
#X obj 547 750 else/format \$0-set-%s;
#X obj 331 791 send, f 27;
#X obj 517 343 else/route2 empty, f 11;
#X obj 290 656 route bang;
#X obj 341 51 symbol freq;
#X obj 277 401 print [plaits.m~]:;
#X obj 331 751 else/rescale -24 24;
#X connect 0 0 4 0;
#X connect 1 0 23 0;
#X connect 1 1 2 0;
#X connect 2 0 1 0;
#X connect 3 0 4 0;
#X connect 4 0 14 0;
#X connect 4 1 22 0;
#X connect 5 0 13 0;
#X connect 6 0 39 0;
#X connect 7 0 10 0;
#X connect 7 0 0 0;
#X connect 7 0 27 0;
#X connect 7 1 19 0;
#X connect 8 0 7 1;
#X connect 9 0 43 0;
#X connect 10 0 9 0;
#X connect 11 0 29 0;
#X connect 11 1 12 0;
#X connect 12 0 11 0;
#X connect 13 0 6 0;
#X connect 14 0 43 0;
#X connect 14 1 16 0;
#X connect 15 0 7 1;
#X connect 16 0 15 0;
#X connect 16 0 17 0;
#X connect 16 0 27 0;
#X connect 17 0 6 0;
#X connect 17 0 9 0;
#X connect 18 1 10 0;
#X connect 18 1 27 0;
#X connect 19 0 6 0;
#X connect 20 0 30 0;
#X connect 21 0 22 1;
#X connect 21 0 24 1;
#X connect 22 0 2 1;
#X connect 23 0 24 0;
#X connect 24 0 40 0;
#X connect 25 0 41 0;
#X connect 26 0 27 1;
#X connect 26 0 28 1;
#X connect 27 0 12 1;
#X connect 28 0 18 0;
#X connect 29 0 28 0;
#X connect 30 0 4 0;
#X connect 30 0 8 0;
#X connect 30 0 5 0;
#X connect 30 0 34 0;
#X connect 31 0 32 0;
#X connect 32 0 0 0;
#X connect 32 0 16 0;
#X connect 32 0 35 0;
#X connect 33 0 42 0;
#X connect 34 0 33 0;
#X connect 35 0 36 0;
#X connect 36 0 42 0;
#X connect 37 0 38 1;
#X connect 39 1 7 0;
#X connect 40 1 3 0;
#X connect 41 0 20 0;
#X connect 41 0 21 0;
#X connect 41 0 26 0;
#X connect 41 0 31 0;
#X connect 41 0 34 1;
#X connect 41 0 35 1;
#X connect 41 0 37 0;
#X connect 43 0 38 0;
#X restore 65 39 pd freq-knob;
#N canvas 281 38 955 848 harmonics-knob 0;
#X msg 205 465 forget;
#X obj 290 521 savestate;
#X obj 368 599 list;
#X obj 290 688 else/insert teach;
#X obj 68 510 else/midi.learn 1;
#A saved;
#X obj 591 223 else/canvas.name 100;
#X obj 591 278 else/receiver;
#X obj 591 403 else/nmess;
#X msg 530 248 1;
#X obj 592 671 else/receiver;
#X obj 592 613 else/dollsym 1;
#X obj 624 458 savestate;
#X obj 684 488 list;
#X msg 591 247 symbol \$1-link;
#X obj 68 563 t f b;
#X msg 657 375 0;
#X obj 710 335 b;
#X msg 482 276 clear;
#X obj 624 577 route bang;
#X msg 750 407 clear;
#X obj 75 104 else/format \$0-%s-learn;
#X obj 456 134 else/format %s-learn;
#X obj 393 561 list prepend, f 7;
#X obj 290 582 list trim, f 4;
#X obj 290 628 route x, f 27;
#X obj 341 18 else/loadbanger -init;
#X obj 785 112 else/format rcv-%s;
#X obj 741 454 list prepend;
#X obj 624 549 route x, f 35;
#X obj 624 518 list trim;
#X obj 75 134 else/receiver;
#X obj 284 139 else/format %s-forget;
#X obj 274 276 else/receiver;
#X msg 94 242 Learn for \$1 knob activated, f 14;
#X obj 94 207 symbol;
#X obj 277 335 symbol;
#X msg 277 364 Forget for \$1 knob;
#X obj 547 750 else/format \$0-set-%s;
#X obj 331 791 send, f 27;
#X obj 517 343 else/route2 empty, f 11;
#X obj 290 656 route bang;
#X obj 277 401 print [plaits.m~]:;
#X obj 341 51 symbol harmonics;
#X obj 331 751 else/rescale 0 1;
#X connect 0 0 4 0;
#X connect 1 0 23 0;
#X connect 1 1 2 0;
#X connect 2 0 1 0;
#X connect 3 0 4 0;
#X connect 4 0 14 0;
#X connect 4 1 22 0;
#X connect 5 0 13 0;
#X connect 6 0 39 0;
#X connect 7 0 10 0;
#X connect 7 0 0 0;
#X connect 7 0 27 0;
#X connect 7 1 19 0;
#X connect 8 0 7 1;
#X connect 9 0 43 0;
#X connect 10 0 9 0;
#X connect 11 0 29 0;
#X connect 11 1 12 0;
#X connect 12 0 11 0;
#X connect 13 0 6 0;
#X connect 14 0 43 0;
#X connect 14 1 16 0;
#X connect 15 0 7 1;
#X connect 16 0 15 0;
#X connect 16 0 17 0;
#X connect 16 0 27 0;
#X connect 17 0 6 0;
#X connect 17 0 9 0;
#X connect 18 1 10 0;
#X connect 18 1 27 0;
#X connect 19 0 6 0;
#X connect 20 0 30 0;
#X connect 21 0 22 1;
#X connect 21 0 24 1;
#X connect 22 0 2 1;
#X connect 23 0 24 0;
#X connect 24 0 40 0;
#X connect 25 0 42 0;
#X connect 26 0 27 1;
#X connect 26 0 28 1;
#X connect 27 0 12 1;
#X connect 28 0 18 0;
#X connect 29 0 28 0;
#X connect 30 0 4 0;
#X connect 30 0 8 0;
#X connect 30 0 5 0;
#X connect 30 0 34 0;
#X connect 31 0 32 0;
#X connect 32 0 0 0;
#X connect 32 0 16 0;
#X connect 32 0 35 0;
#X connect 33 0 41 0;
#X connect 34 0 33 0;
#X connect 35 0 36 0;
#X connect 36 0 41 0;
#X connect 37 0 38 1;
#X connect 39 1 7 0;
#X connect 40 1 3 0;
#X connect 42 0 20 0;
#X connect 42 0 21 0;
#X connect 42 0 26 0;
#X connect 42 0 31 0;
#X connect 42 0 34 1;
#X connect 42 0 35 1;
#X connect 42 0 37 0;
#X connect 43 0 38 0;
#X restore 65 63 pd harmonics-knob;
#N canvas 281 38 955 848 timbre-knob 0;
#X msg 205 465 forget;
#X obj 290 521 savestate;
#X obj 368 599 list;
#X obj 290 688 else/insert teach;
#X obj 68 510 else/midi.learn 1;
#A saved;
#X obj 591 223 else/canvas.name 100;
#X obj 591 278 else/receiver;
#X obj 591 403 else/nmess;
#X msg 530 248 1;
#X obj 592 671 else/receiver;
#X obj 592 613 else/dollsym 1;
#X obj 624 458 savestate;
#X obj 684 488 list;
#X msg 591 247 symbol \$1-link;
#X obj 68 563 t f b;
#X msg 657 375 0;
#X obj 710 335 b;
#X msg 482 276 clear;
#X obj 624 577 route bang;
#X msg 750 407 clear;
#X obj 75 104 else/format \$0-%s-learn;
#X obj 456 134 else/format %s-learn;
#X obj 393 561 list prepend, f 7;
#X obj 290 582 list trim, f 4;
#X obj 290 628 route x, f 27;
#X obj 341 18 else/loadbanger -init;
#X obj 785 112 else/format rcv-%s;
#X obj 741 454 list prepend;
#X obj 624 549 route x, f 35;
#X obj 624 518 list trim;
#X obj 75 134 else/receiver;
#X obj 284 139 else/format %s-forget;
#X obj 274 276 else/receiver;
#X msg 94 242 Learn for \$1 knob activated, f 14;
#X obj 94 207 symbol;
#X obj 277 335 symbol;
#X msg 277 364 Forget for \$1 knob;
#X obj 547 750 else/format \$0-set-%s;
#X obj 331 791 send, f 27;
#X obj 517 343 else/route2 empty, f 11;
#X obj 290 656 route bang;
#X obj 277 401 print [plaits.m~]:;
#X obj 331 751 else/rescale 0 1;
#X obj 341 51 symbol timbre;
#X connect 0 0 4 0;
#X connect 1 0 23 0;
#X connect 1 1 2 0;
#X connect 2 0 1 0;
#X connect 3 0 4 0;
#X connect 4 0 14 0;
#X connect 4 1 22 0;
#X connect 5 0 13 0;
#X connect 6 0 39 0;
#X connect 7 0 10 0;
#X connect 7 0 0 0;
#X connect 7 0 27 0;
#X connect 7 1 19 0;
#X connect 8 0 7 1;
#X connect 9 0 42 0;
#X connect 10 0 9 0;
#X connect 11 0 29 0;
#X connect 11 1 12 0;
#X connect 12 0 11 0;
#X connect 13 0 6 0;
#X connect 14 0 42 0;
#X connect 14 1 16 0;
#X connect 15 0 7 1;
#X connect 16 0 15 0;
#X connect 16 0 17 0;
#X connect 16 0 27 0;
#X connect 17 0 6 0;
#X connect 17 0 9 0;
#X connect 18 1 10 0;
#X connect 18 1 27 0;
#X connect 19 0 6 0;
#X connect 20 0 30 0;
#X connect 21 0 22 1;
#X connect 21 0 24 1;
#X connect 22 0 2 1;
#X connect 23 0 24 0;
#X connect 24 0 40 0;
#X connect 25 0 43 0;
#X connect 26 0 27 1;
#X connect 26 0 28 1;
#X connect 27 0 12 1;
#X connect 28 0 18 0;
#X connect 29 0 28 0;
#X connect 30 0 4 0;
#X connect 30 0 8 0;
#X connect 30 0 5 0;
#X connect 30 0 34 0;
#X connect 31 0 32 0;
#X connect 32 0 0 0;
#X connect 32 0 16 0;
#X connect 32 0 35 0;
#X connect 33 0 41 0;
#X connect 34 0 33 0;
#X connect 35 0 36 0;
#X connect 36 0 41 0;
#X connect 37 0 38 1;
#X connect 39 1 7 0;
#X connect 40 1 3 0;
#X connect 42 0 38 0;
#X connect 43 0 20 0;
#X connect 43 0 21 0;
#X connect 43 0 26 0;
#X connect 43 0 31 0;
#X connect 43 0 34 1;
#X connect 43 0 35 1;
#X connect 43 0 37 0;
#X restore 65 87 pd timbre-knob;
#N canvas 281 38 955 848 morph-knob 0;
#X msg 205 465 forget;
#X obj 290 521 savestate;
#X obj 368 599 list;
#X obj 290 688 else/insert teach;
#X obj 68 510 else/midi.learn 1;
#A saved;
#X obj 591 223 else/canvas.name 100;
#X obj 591 278 else/receiver;
#X obj 591 403 else/nmess;
#X msg 530 248 1;
#X obj 592 671 else/receiver;
#X obj 592 613 else/dollsym 1;
#X obj 624 458 savestate;
#X obj 684 488 list;
#X msg 591 247 symbol \$1-link;
#X obj 68 563 t f b;
#X msg 657 375 0;
#X obj 710 335 b;
#X msg 482 276 clear;
#X obj 624 577 route bang;
#X msg 750 407 clear;
#X obj 75 104 else/format \$0-%s-learn;
#X obj 456 134 else/format %s-learn;
#X obj 393 561 list prepend, f 7;
#X obj 290 582 list trim, f 4;
#X obj 290 628 route x, f 27;
#X obj 341 18 else/loadbanger -init;
#X obj 785 112 else/format rcv-%s;
#X obj 741 454 list prepend;
#X obj 624 549 route x, f 35;
#X obj 624 518 list trim;
#X obj 75 134 else/receiver;
#X obj 284 139 else/format %s-forget;
#X obj 274 276 else/receiver;
#X msg 94 242 Learn for \$1 knob activated, f 14;
#X obj 94 207 symbol;
#X obj 277 335 symbol;
#X msg 277 364 Forget for \$1 knob;
#X obj 547 750 else/format \$0-set-%s;
#X obj 331 791 send, f 27;
#X obj 517 343 else/route2 empty, f 11;
#X obj 290 656 route bang;
#X obj 277 401 print [plaits.m~]:;
#X obj 341 51 symbol morph;
#X obj 331 751 else/rescale 0 1;
#X connect 0 0 4 0;
#X connect 1 0 23 0;
#X connect 1 1 2 0;
#X connect 2 0 1 0;
#X connect 3 0 4 0;
#X connect 4 0 14 0;
#X connect 4 1 22 0;
#X connect 5 0 13 0;
#X connect 6 0 39 0;
#X connect 7 0 10 0;
#X connect 7 0 0 0;
#X connect 7 0 27 0;
#X connect 7 1 19 0;
#X connect 8 0 7 1;
#X connect 9 0 43 0;
#X connect 10 0 9 0;
#X connect 11 0 29 0;
#X connect 11 1 12 0;
#X connect 12 0 11 0;
#X connect 13 0 6 0;
#X connect 14 0 43 0;
#X connect 14 1 16 0;
#X connect 15 0 7 1;
#X connect 16 0 15 0;
#X connect 16 0 17 0;
#X connect 16 0 27 0;
#X connect 17 0 6 0;
#X connect 17 0 9 0;
#X connect 18 1 10 0;
#X connect 18 1 27 0;
#X connect 19 0 6 0;
#X connect 20 0 30 0;
#X connect 21 0 22 1;
#X connect 21 0 24 1;
#X connect 22 0 2 1;
#X connect 23 0 24 0;
#X connect 24 0 40 0;
#X connect 25 0 42 0;
#X connect 26 0 27 1;
#X connect 26 0 28 1;
#X connect 27 0 12 1;
#X connect 28 0 18 0;
#X connect 29 0 28 0;
#X connect 30 0 4 0;
#X connect 30 0 8 0;
#X connect 30 0 5 0;
#X connect 30 0 34 0;
#X connect 31 0 32 0;
#X connect 32 0 0 0;
#X connect 32 0 16 0;
#X connect 32 0 35 0;
#X connect 33 0 41 0;
#X connect 34 0 33 0;
#X connect 35 0 36 0;
#X connect 36 0 41 0;
#X connect 37 0 38 1;
#X connect 39 1 7 0;
#X connect 40 1 3 0;
#X connect 42 0 20 0;
#X connect 42 0 21 0;
#X connect 42 0 26 0;
#X connect 42 0 31 0;
#X connect 42 0 34 1;
#X connect 42 0 35 1;
#X connect 42 0 37 0;
#X connect 43 0 38 0;
#X restore 65 113 pd morph-knob;
#N canvas 281 38 955 848 cutoff-knob 0;
#X msg 205 465 forget;
#X obj 290 521 savestate;
#X obj 368 599 list;
#X obj 290 688 else/insert teach;
#X obj 68 510 else/midi.learn 1;
#A saved;
#X obj 591 223 else/canvas.name 100;
#X obj 591 278 else/receiver;
#X obj 591 403 else/nmess;
#X msg 530 248 1;
#X obj 592 671 else/receiver;
#X obj 592 613 else/dollsym 1;
#X obj 624 458 savestate;
#X obj 684 488 list;
#X msg 591 247 symbol \$1-link;
#X obj 68 563 t f b;
#X msg 657 375 0;
#X obj 710 335 b;
#X msg 482 276 clear;
#X obj 624 577 route bang;
#X msg 750 407 clear;
#X obj 75 104 else/format \$0-%s-learn;
#X obj 456 134 else/format %s-learn;
#X obj 393 561 list prepend, f 7;
#X obj 290 582 list trim, f 4;
#X obj 290 628 route x, f 27;
#X obj 341 18 else/loadbanger -init;
#X obj 785 112 else/format rcv-%s;
#X obj 741 454 list prepend;
#X obj 624 549 route x, f 35;
#X obj 624 518 list trim;
#X obj 75 134 else/receiver;
#X obj 284 139 else/format %s-forget;
#X obj 274 276 else/receiver;
#X msg 94 242 Learn for \$1 knob activated, f 14;
#X obj 94 207 symbol;
#X obj 277 335 symbol;
#X msg 277 364 Forget for \$1 knob;
#X obj 547 750 else/format \$0-set-%s;
#X obj 331 791 send, f 27;
#X obj 517 343 else/route2 empty, f 11;
#X obj 290 656 route bang;
#X obj 277 401 print [plaits.m~]:;
#X obj 331 751 else/rescale 0 1;
#X obj 341 51 symbol cutoff;
#X connect 0 0 4 0;
#X connect 1 0 23 0;
#X connect 1 1 2 0;
#X connect 2 0 1 0;
#X connect 3 0 4 0;
#X connect 4 0 14 0;
#X connect 4 1 22 0;
#X connect 5 0 13 0;
#X connect 6 0 39 0;
#X connect 7 0 10 0;
#X connect 7 0 0 0;
#X connect 7 0 27 0;
#X connect 7 1 19 0;
#X connect 8 0 7 1;
#X connect 9 0 42 0;
#X connect 10 0 9 0;
#X connect 11 0 29 0;
#X connect 11 1 12 0;
#X connect 12 0 11 0;
#X connect 13 0 6 0;
#X connect 14 0 42 0;
#X connect 14 1 16 0;
#X connect 15 0 7 1;
#X connect 16 0 15 0;
#X connect 16 0 17 0;
#X connect 16 0 27 0;
#X connect 17 0 6 0;
#X connect 17 0 9 0;
#X connect 18 1 10 0;
#X connect 18 1 27 0;
#X connect 19 0 6 0;
#X connect 20 0 30 0;
#X connect 21 0 22 1;
#X connect 21 0 24 1;
#X connect 22 0 2 1;
#X connect 23 0 24 0;
#X connect 24 0 40 0;
#X connect 25 0 43 0;
#X connect 26 0 27 1;
#X connect 26 0 28 1;
#X connect 27 0 12 1;
#X connect 28 0 18 0;
#X connect 29 0 28 0;
#X connect 30 0 4 0;
#X connect 30 0 8 0;
#X connect 30 0 5 0;
#X connect 30 0 34 0;
#X connect 31 0 32 0;
#X connect 32 0 0 0;
#X connect 32 0 16 0;
#X connect 32 0 35 0;
#X connect 33 0 41 0;
#X connect 34 0 33 0;
#X connect 35 0 36 0;
#X connect 36 0 41 0;
#X connect 37 0 38 1;
#X connect 39 1 7 0;
#X connect 40 1 3 0;
#X connect 42 0 38 0;
#X connect 43 0 20 0;
#X connect 43 0 21 0;
#X connect 43 0 26 0;
#X connect 43 0 31 0;
#X connect 43 0 34 1;
#X connect 43 0 35 1;
#X connect 43 0 37 0;
#X restore 65 137 pd cutoff-knob;
#N canvas 281 38 955 848 decay-knob 0;
#X msg 205 465 forget;
#X obj 290 521 savestate;
#X obj 368 599 list;
#X obj 290 688 else/insert teach;
#X obj 68 510 else/midi.learn 1;
#A saved;
#X obj 591 223 else/canvas.name 100;
#X obj 591 278 else/receiver;
#X obj 591 403 else/nmess;
#X msg 530 248 1;
#X obj 592 671 else/receiver;
#X obj 592 613 else/dollsym 1;
#X obj 624 458 savestate;
#X obj 684 488 list;
#X msg 591 247 symbol \$1-link;
#X obj 68 563 t f b;
#X msg 657 375 0;
#X obj 710 335 b;
#X msg 482 276 clear;
#X obj 624 577 route bang;
#X msg 750 407 clear;
#X obj 75 104 else/format \$0-%s-learn;
#X obj 456 134 else/format %s-learn;
#X obj 393 561 list prepend, f 7;
#X obj 290 582 list trim, f 4;
#X obj 290 628 route x, f 27;
#X obj 341 18 else/loadbanger -init;
#X obj 785 112 else/format rcv-%s;
#X obj 741 454 list prepend;
#X obj 624 549 route x, f 35;
#X obj 624 518 list trim;
#X obj 75 134 else/receiver;
#X obj 284 139 else/format %s-forget;
#X obj 274 276 else/receiver;
#X msg 94 242 Learn for \$1 knob activated, f 14;
#X obj 94 207 symbol;
#X obj 277 335 symbol;
#X msg 277 364 Forget for \$1 knob;
#X obj 547 750 else/format \$0-set-%s;
#X obj 331 791 send, f 27;
#X obj 517 343 else/route2 empty, f 11;
#X obj 290 656 route bang;
#X obj 277 401 print [plaits.m~]:;
#X obj 331 751 else/rescale 0 1;
#X obj 341 51 symbol decay;
#X connect 0 0 4 0;
#X connect 1 0 23 0;
#X connect 1 1 2 0;
#X connect 2 0 1 0;
#X connect 3 0 4 0;
#X connect 4 0 14 0;
#X connect 4 1 22 0;
#X connect 5 0 13 0;
#X connect 6 0 39 0;
#X connect 7 0 10 0;
#X connect 7 0 0 0;
#X connect 7 0 27 0;
#X connect 7 1 19 0;
#X connect 8 0 7 1;
#X connect 9 0 42 0;
#X connect 10 0 9 0;
#X connect 11 0 29 0;
#X connect 11 1 12 0;
#X connect 12 0 11 0;
#X connect 13 0 6 0;
#X connect 14 0 42 0;
#X connect 14 1 16 0;
#X connect 15 0 7 1;
#X connect 16 0 15 0;
#X connect 16 0 17 0;
#X connect 16 0 27 0;
#X connect 17 0 6 0;
#X connect 17 0 9 0;
#X connect 18 1 10 0;
#X connect 18 1 27 0;
#X connect 19 0 6 0;
#X connect 20 0 30 0;
#X connect 21 0 22 1;
#X connect 21 0 24 1;
#X connect 22 0 2 1;
#X connect 23 0 24 0;
#X connect 24 0 40 0;
#X connect 25 0 43 0;
#X connect 26 0 27 1;
#X connect 26 0 28 1;
#X connect 27 0 12 1;
#X connect 28 0 18 0;
#X connect 29 0 28 0;
#X connect 30 0 4 0;
#X connect 30 0 8 0;
#X connect 30 0 5 0;
#X connect 30 0 34 0;
#X connect 31 0 32 0;
#X connect 32 0 0 0;
#X connect 32 0 16 0;
#X connect 32 0 35 0;
#X connect 33 0 41 0;
#X connect 34 0 33 0;
#X connect 35 0 36 0;
#X connect 36 0 41 0;
#X connect 37 0 38 1;
#X connect 39 1 7 0;
#X connect 40 1 3 0;
#X connect 42 0 38 0;
#X connect 43 0 20 0;
#X connect 43 0 21 0;
#X connect 43 0 26 0;
#X connect 43 0 31 0;
#X connect 43 0 34 1;
#X connect 43 0 35 1;
#X connect 43 0 37 0;
#X restore 65 161 pd decay-knob;
#N canvas 281 38 955 848 fm-att-knob 0;
#X msg 205 465 forget;
#X obj 290 521 savestate;
#X obj 368 599 list;
#X obj 290 688 else/insert teach;
#X obj 68 510 else/midi.learn 1;
#A saved;
#X obj 591 223 else/canvas.name 100;
#X obj 591 278 else/receiver;
#X obj 591 403 else/nmess;
#X msg 530 248 1;
#X obj 592 671 else/receiver;
#X obj 592 613 else/dollsym 1;
#X obj 624 458 savestate;
#X obj 684 488 list;
#X msg 591 247 symbol \$1-link;
#X obj 68 563 t f b;
#X msg 657 375 0;
#X obj 710 335 b;
#X msg 482 276 clear;
#X obj 624 577 route bang;
#X msg 750 407 clear;
#X obj 75 104 else/format \$0-%s-learn;
#X obj 456 134 else/format %s-learn;
#X obj 393 561 list prepend, f 7;
#X obj 290 582 list trim, f 4;
#X obj 290 628 route x, f 27;
#X obj 341 18 else/loadbanger -init;
#X obj 785 112 else/format rcv-%s;
#X obj 741 454 list prepend;
#X obj 624 549 route x, f 35;
#X obj 624 518 list trim;
#X obj 75 134 else/receiver;
#X obj 284 139 else/format %s-forget;
#X obj 274 276 else/receiver;
#X msg 94 242 Learn for \$1 knob activated, f 14;
#X obj 94 207 symbol;
#X obj 277 335 symbol;
#X msg 277 364 Forget for \$1 knob;
#X obj 547 750 else/format \$0-set-%s;
#X obj 331 791 send, f 27;
#X obj 517 343 else/route2 empty, f 11;
#X obj 290 656 route bang;
#X obj 277 401 print [plaits.m~]:;
#X obj 341 51 symbol freq-att;
#X obj 331 751 else/rescale -1 1;
#X connect 0 0 4 0;
#X connect 1 0 23 0;
#X connect 1 1 2 0;
#X connect 2 0 1 0;
#X connect 3 0 4 0;
#X connect 4 0 14 0;
#X connect 4 1 22 0;
#X connect 5 0 13 0;
#X connect 6 0 39 0;
#X connect 7 0 10 0;
#X connect 7 0 0 0;
#X connect 7 0 27 0;
#X connect 7 1 19 0;
#X connect 8 0 7 1;
#X connect 9 0 43 0;
#X connect 10 0 9 0;
#X connect 11 0 29 0;
#X connect 11 1 12 0;
#X connect 12 0 11 0;
#X connect 13 0 6 0;
#X connect 14 0 43 0;
#X connect 14 1 16 0;
#X connect 15 0 7 1;
#X connect 16 0 15 0;
#X connect 16 0 17 0;
#X connect 16 0 27 0;
#X connect 17 0 6 0;
#X connect 17 0 9 0;
#X connect 18 1 10 0;
#X connect 18 1 27 0;
#X connect 19 0 6 0;
#X connect 20 0 30 0;
#X connect 21 0 22 1;
#X connect 21 0 24 1;
#X connect 22 0 2 1;
#X connect 23 0 24 0;
#X connect 24 0 40 0;
#X connect 25 0 42 0;
#X connect 26 0 27 1;
#X connect 26 0 28 1;
#X connect 27 0 12 1;
#X connect 28 0 18 0;
#X connect 29 0 28 0;
#X connect 30 0 4 0;
#X connect 30 0 8 0;
#X connect 30 0 5 0;
#X connect 30 0 34 0;
#X connect 31 0 32 0;
#X connect 32 0 0 0;
#X connect 32 0 16 0;
#X connect 32 0 35 0;
#X connect 33 0 41 0;
#X connect 34 0 33 0;
#X connect 35 0 36 0;
#X connect 36 0 41 0;
#X connect 37 0 38 1;
#X connect 39 1 7 0;
#X connect 40 1 3 0;
#X connect 42 0 20 0;
#X connect 42 0 21 0;
#X connect 42 0 26 0;
#X connect 42 0 31 0;
#X connect 42 0 34 1;
#X connect 42 0 35 1;
#X connect 42 0 37 0;
#X connect 43 0 38 0;
#X restore 65 214 pd fm-att-knob;
#N canvas 281 38 955 848 timbre-att-knob 0;
#X msg 205 465 forget;
#X obj 290 521 savestate;
#X obj 368 599 list;
#X obj 290 688 else/insert teach;
#X obj 68 510 else/midi.learn 1;
#A saved;
#X obj 591 223 else/canvas.name 100;
#X obj 591 278 else/receiver;
#X obj 591 403 else/nmess;
#X msg 530 248 1;
#X obj 592 671 else/receiver;
#X obj 592 613 else/dollsym 1;
#X obj 624 458 savestate;
#X obj 684 488 list;
#X msg 591 247 symbol \$1-link;
#X obj 68 563 t f b;
#X msg 657 375 0;
#X obj 710 335 b;
#X msg 482 276 clear;
#X obj 624 577 route bang;
#X msg 750 407 clear;
#X obj 75 104 else/format \$0-%s-learn;
#X obj 456 134 else/format %s-learn;
#X obj 393 561 list prepend, f 7;
#X obj 290 582 list trim, f 4;
#X obj 290 628 route x, f 27;
#X obj 341 18 else/loadbanger -init;
#X obj 785 112 else/format rcv-%s;
#X obj 741 454 list prepend;
#X obj 624 549 route x, f 35;
#X obj 624 518 list trim;
#X obj 75 134 else/receiver;
#X obj 284 139 else/format %s-forget;
#X obj 274 276 else/receiver;
#X msg 94 242 Learn for \$1 knob activated, f 14;
#X obj 94 207 symbol;
#X obj 277 335 symbol;
#X msg 277 364 Forget for \$1 knob;
#X obj 547 750 else/format \$0-set-%s;
#X obj 331 791 send, f 27;
#X obj 517 343 else/route2 empty, f 11;
#X obj 290 656 route bang;
#X obj 277 401 print [plaits.m~]:;
#X obj 331 751 else/rescale -1 1;
#X obj 341 51 symbol timbre-att;
#X connect 0 0 4 0;
#X connect 1 0 23 0;
#X connect 1 1 2 0;
#X connect 2 0 1 0;
#X connect 3 0 4 0;
#X connect 4 0 14 0;
#X connect 4 1 22 0;
#X connect 5 0 13 0;
#X connect 6 0 39 0;
#X connect 7 0 10 0;
#X connect 7 0 0 0;
#X connect 7 0 27 0;
#X connect 7 1 19 0;
#X connect 8 0 7 1;
#X connect 9 0 42 0;
#X connect 10 0 9 0;
#X connect 11 0 29 0;
#X connect 11 1 12 0;
#X connect 12 0 11 0;
#X connect 13 0 6 0;
#X connect 14 0 42 0;
#X connect 14 1 16 0;
#X connect 15 0 7 1;
#X connect 16 0 15 0;
#X connect 16 0 17 0;
#X connect 16 0 27 0;
#X connect 17 0 6 0;
#X connect 17 0 9 0;
#X connect 18 1 10 0;
#X connect 18 1 27 0;
#X connect 19 0 6 0;
#X connect 20 0 30 0;
#X connect 21 0 22 1;
#X connect 21 0 24 1;
#X connect 22 0 2 1;
#X connect 23 0 24 0;
#X connect 24 0 40 0;
#X connect 25 0 43 0;
#X connect 26 0 27 1;
#X connect 26 0 28 1;
#X connect 27 0 12 1;
#X connect 28 0 18 0;
#X connect 29 0 28 0;
#X connect 30 0 4 0;
#X connect 30 0 8 0;
#X connect 30 0 5 0;
#X connect 30 0 34 0;
#X connect 31 0 32 0;
#X connect 32 0 0 0;
#X connect 32 0 16 0;
#X connect 32 0 35 0;
#X connect 33 0 41 0;
#X connect 34 0 33 0;
#X connect 35 0 36 0;
#X connect 36 0 41 0;
#X connect 37 0 38 1;
#X connect 39 1 7 0;
#X connect 40 1 3 0;
#X connect 42 0 38 0;
#X connect 43 0 20 0;
#X connect 43 0 21 0;
#X connect 43 0 26 0;
#X connect 43 0 31 0;
#X connect 43 0 34 1;
#X connect 43 0 35 1;
#X connect 43 0 37 0;
#X restore 65 240 pd timbre-att-knob;
#N canvas 281 38 955 848 harm-att-knob 0;
#X msg 205 465 forget;
#X obj 290 521 savestate;
#X obj 368 599 list;
#X obj 290 688 else/insert teach;
#X obj 68 510 else/midi.learn 1;
#A saved;
#X obj 591 223 else/canvas.name 100;
#X obj 591 278 else/receiver;
#X obj 591 403 else/nmess;
#X msg 530 248 1;
#X obj 592 671 else/receiver;
#X obj 592 613 else/dollsym 1;
#X obj 624 458 savestate;
#X obj 684 488 list;
#X msg 591 247 symbol \$1-link;
#X obj 68 563 t f b;
#X msg 657 375 0;
#X obj 710 335 b;
#X msg 482 276 clear;
#X obj 624 577 route bang;
#X msg 750 407 clear;
#X obj 75 104 else/format \$0-%s-learn;
#X obj 456 134 else/format %s-learn;
#X obj 393 561 list prepend, f 7;
#X obj 290 582 list trim, f 4;
#X obj 290 628 route x, f 27;
#X obj 341 18 else/loadbanger -init;
#X obj 785 112 else/format rcv-%s;
#X obj 741 454 list prepend;
#X obj 624 549 route x, f 35;
#X obj 624 518 list trim;
#X obj 75 134 else/receiver;
#X obj 284 139 else/format %s-forget;
#X obj 274 276 else/receiver;
#X msg 94 242 Learn for \$1 knob activated, f 14;
#X obj 94 207 symbol;
#X obj 277 335 symbol;
#X msg 277 364 Forget for \$1 knob;
#X obj 547 750 else/format \$0-set-%s;
#X obj 331 791 send, f 27;
#X obj 517 343 else/route2 empty, f 11;
#X obj 290 656 route bang;
#X obj 277 401 print [plaits.m~]:;
#X obj 331 751 else/rescale -1 1;
#X obj 341 51 symbol harmonics-att;
#X connect 0 0 4 0;
#X connect 1 0 23 0;
#X connect 1 1 2 0;
#X connect 2 0 1 0;
#X connect 3 0 4 0;
#X connect 4 0 14 0;
#X connect 4 1 22 0;
#X connect 5 0 13 0;
#X connect 6 0 39 0;
#X connect 7 0 10 0;
#X connect 7 0 0 0;
#X connect 7 0 27 0;
#X connect 7 1 19 0;
#X connect 8 0 7 1;
#X connect 9 0 42 0;
#X connect 10 0 9 0;
#X connect 11 0 29 0;
#X connect 11 1 12 0;
#X connect 12 0 11 0;
#X connect 13 0 6 0;
#X connect 14 0 42 0;
#X connect 14 1 16 0;
#X connect 15 0 7 1;
#X connect 16 0 15 0;
#X connect 16 0 17 0;
#X connect 16 0 27 0;
#X connect 17 0 6 0;
#X connect 17 0 9 0;
#X connect 18 1 10 0;
#X connect 18 1 27 0;
#X connect 19 0 6 0;
#X connect 20 0 30 0;
#X connect 21 0 22 1;
#X connect 21 0 24 1;
#X connect 22 0 2 1;
#X connect 23 0 24 0;
#X connect 24 0 40 0;
#X connect 25 0 43 0;
#X connect 26 0 27 1;
#X connect 26 0 28 1;
#X connect 27 0 12 1;
#X connect 28 0 18 0;
#X connect 29 0 28 0;
#X connect 30 0 4 0;
#X connect 30 0 8 0;
#X connect 30 0 5 0;
#X connect 30 0 34 0;
#X connect 31 0 32 0;
#X connect 32 0 0 0;
#X connect 32 0 16 0;
#X connect 32 0 35 0;
#X connect 33 0 41 0;
#X connect 34 0 33 0;
#X connect 35 0 36 0;
#X connect 36 0 41 0;
#X connect 37 0 38 1;
#X connect 39 1 7 0;
#X connect 40 1 3 0;
#X connect 42 0 38 0;
#X connect 43 0 20 0;
#X connect 43 0 21 0;
#X connect 43 0 26 0;
#X connect 43 0 31 0;
#X connect 43 0 34 1;
#X connect 43 0 35 1;
#X connect 43 0 37 0;
#X restore 65 267 pd harm-att-knob;
#N canvas 281 38 955 848 morph-att-knob 0;
#X msg 205 465 forget;
#X obj 290 521 savestate;
#X obj 368 599 list;
#X obj 290 688 else/insert teach;
#X obj 68 510 else/midi.learn 1;
#A saved;
#X obj 591 223 else/canvas.name 100;
#X obj 591 278 else/receiver;
#X obj 591 403 else/nmess;
#X msg 530 248 1;
#X obj 592 671 else/receiver;
#X obj 592 613 else/dollsym 1;
#X obj 624 458 savestate;
#X obj 684 488 list;
#X msg 591 247 symbol \$1-link;
#X obj 68 563 t f b;
#X msg 657 375 0;
#X obj 710 335 b;
#X msg 482 276 clear;
#X obj 624 577 route bang;
#X msg 750 407 clear;
#X obj 75 104 else/format \$0-%s-learn;
#X obj 456 134 else/format %s-learn;
#X obj 393 561 list prepend, f 7;
#X obj 290 582 list trim, f 4;
#X obj 290 628 route x, f 27;
#X obj 341 18 else/loadbanger -init;
#X obj 785 112 else/format rcv-%s;
#X obj 741 454 list prepend;
#X obj 624 549 route x, f 35;
#X obj 624 518 list trim;
#X obj 75 134 else/receiver;
#X obj 284 139 else/format %s-forget;
#X obj 274 276 else/receiver;
#X msg 94 242 Learn for \$1 knob activated, f 14;
#X obj 94 207 symbol;
#X obj 277 335 symbol;
#X msg 277 364 Forget for \$1 knob;
#X obj 547 750 else/format \$0-set-%s;
#X obj 331 791 send, f 27;
#X obj 517 343 else/route2 empty, f 11;
#X obj 290 656 route bang;
#X obj 277 401 print [plaits.m~]:;
#X obj 331 751 else/rescale -1 1;
#X obj 341 51 symbol morph-att;
#X connect 0 0 4 0;
#X connect 1 0 23 0;
#X connect 1 1 2 0;
#X connect 2 0 1 0;
#X connect 3 0 4 0;
#X connect 4 0 14 0;
#X connect 4 1 22 0;
#X connect 5 0 13 0;
#X connect 6 0 39 0;
#X connect 7 0 10 0;
#X connect 7 0 0 0;
#X connect 7 0 27 0;
#X connect 7 1 19 0;
#X connect 8 0 7 1;
#X connect 9 0 42 0;
#X connect 10 0 9 0;
#X connect 11 0 29 0;
#X connect 11 1 12 0;
#X connect 12 0 11 0;
#X connect 13 0 6 0;
#X connect 14 0 42 0;
#X connect 14 1 16 0;
#X connect 15 0 7 1;
#X connect 16 0 15 0;
#X connect 16 0 17 0;
#X connect 16 0 27 0;
#X connect 17 0 6 0;
#X connect 17 0 9 0;
#X connect 18 1 10 0;
#X connect 18 1 27 0;
#X connect 19 0 6 0;
#X connect 20 0 30 0;
#X connect 21 0 22 1;
#X connect 21 0 24 1;
#X connect 22 0 2 1;
#X connect 23 0 24 0;
#X connect 24 0 40 0;
#X connect 25 0 43 0;
#X connect 26 0 27 1;
#X connect 26 0 28 1;
#X connect 27 0 12 1;
#X connect 28 0 18 0;
#X connect 29 0 28 0;
#X connect 30 0 4 0;
#X connect 30 0 8 0;
#X connect 30 0 5 0;
#X connect 30 0 34 0;
#X connect 31 0 32 0;
#X connect 32 0 0 0;
#X connect 32 0 16 0;
#X connect 32 0 35 0;
#X connect 33 0 41 0;
#X connect 34 0 33 0;
#X connect 35 0 36 0;
#X connect 36 0 41 0;
#X connect 37 0 38 1;
#X connect 39 1 7 0;
#X connect 40 1 3 0;
#X connect 42 0 38 0;
#X connect 43 0 20 0;
#X connect 43 0 21 0;
#X connect 43 0 26 0;
#X connect 43 0 31 0;
#X connect 43 0 34 1;
#X connect 43 0 35 1;
#X connect 43 0 37 0;
#X restore 65 295 pd morph-att-knob;
#X restore 650 61 pd Learn;
#X connect 0 0 23 0;
#X connect 0 1 23 1;
#X connect 7 0 9 0;
#X connect 8 0 1 0;
#X connect 8 1 4 0;
#X connect 8 2 6 0;
#X connect 9 0 8 1;
#X connect 9 1 8 2;
#X connect 9 2 8 3;
#X connect 9 3 8 4;
#X connect 9 4 8 5;
#X connect 9 5 8 6;
#X connect 10 0 9 1;
#X connect 11 0 9 2;
#X connect 12 0 9 3;
#X connect 13 0 9 4;
#X connect 14 0 9 5;
#X connect 22 0 10 0;
#X connect 22 0 7 0;
#X connect 22 0 11 0;
#X connect 22 0 14 0;
#X connect 22 0 12 0;
#X connect 22 0 0 0;
#X connect 23 0 8 0;
#X connect 23 1 8 0;
#X coords 0 1 100 -1 418 259 2 400 125;
