#N canvas 322 50 884 495 12;
#X obj 78 74 inlet~;
#X obj 78 387 outlet~;
#N canvas 423 57 837 403 preset 0;
#X obj 125 121 else/sender 1 \\\$0-presets;
#X msg 125 86 name \$1;
#X obj 90 161 else/receiver;
#X obj 123 210 route list;
#N canvas 596 76 491 352 id-name-init 0;
#X obj 165 113 + 1;
#X obj 257 100 else/dollsym 1;
#X obj 141 80 value;
#X obj 141 252 outlet;
#X obj 141 51 else/loadbanger 2;
#X obj 141 201 else/dollsym 1;
#X obj 257 76 symbol plaits-id_\\\$0;
#X obj 141 166 makefilename \\\$0-plaits-%d;
#X connect 0 0 2 0;
#X connect 1 0 2 1;
#X connect 2 0 0 0;
#X connect 2 0 7 0;
#X connect 4 0 2 0;
#X connect 4 1 6 0;
#X connect 5 0 3 0;
#X connect 6 0 1 0;
#X connect 7 0 5 0;
#X restore 90 39 pd id-name-init;
#X obj 122 247 else/dispatch \$0-set-freq \$0-set-harmonics \$0-set-timbre \$0-set-morph \$0-set-model \$0-set-cutoff \$0-set-decay \$0-set-freq-att \$0-set-timbre-att \$0-set-harmonics-att \$0-set-morph-att \$0-set-n-voices \$0-set-trigger-mode \$0-set-level-mode, f 82;
#X obj 90 310 else/var \$0-freq \$0-harmonics \$0-timbre \$0-morph \$0-model \$0-cutoff \$0-decay \$0-freq-att \$0-timbre-att \$0-harmonics-att \$0-morph-att \$0-n-voices \$0-trigger-mode \$0-level-mode, f 88;
#X connect 1 0 0 0;
#X connect 2 0 3 0;
#X connect 2 0 6 0;
#X connect 3 0 5 0;
#X connect 4 0 1 0;
#X connect 4 0 2 0;
#X restore 568 72 pd preset;
#N canvas 502 163 730 398 init-savestate 0;
#X obj 154 57 savestate;
#X obj 49 125 list;
#X obj 49 43 loadbang;
#X obj 98 128 route list;
#X obj 97 99 list trim;
#X obj 49 242 else/dispatch \$0-set-freq \$0-set-harmonics \$0-set-timbre \$0-set-morph \$0-set-model \$0-set-cutoff \$0-set-decay \$0-set-freq-att \$0-set-timbre-att \$0-set-harmonics-att \$0-set-morph-att \$0-set-n-voices \$0-set-trigger-mode \$0-set-level-mode \$0-set-GUI, f 73;
#X obj 214 88 else/var \$0-freq \$0-harmonics \$0-timbre \$0-morph \$0-model \$0-cutoff \$0-decay \$0-freq-att \$0-timbre-att \$0-harmonics-att \$0-morph-att \$0-n-voices \$0-trigger-mode \$0-level-mode \$0-GUI, f 67;
#X obj 49 198 else/default 0 0.5 0.5 0.5 0 0.5 0.5 0 0 0 0 1 0 1 1;
#X connect 0 0 4 0;
#X connect 0 1 6 0;
#X connect 1 0 7 0;
#X connect 2 0 1 0;
#X connect 3 0 1 1;
#X connect 4 0 3 0;
#X connect 6 0 0 0;
#X connect 7 0 5 0;
#X restore 513 49 pd init-savestate;
#X obj 188 387 outlet~;
#N canvas 156 129 996 658 GUI 0;
#N canvas 181 203 498 298 radio-1 0;
#X obj 90 43 r \$0-radio-1;
#X msg 117 127 color #dfdfdf #dfdfdf #000000;
#X obj 90 71 t f b;
#X obj 125 153 s \$0-set-radio-2;
#X obj 132 95 s \$0-set-radio-1;
#X obj 90 204 outlet;
#X obj 117 176 s \$0-set-radio-3;
#X msg 214 23 color #dfdfdf #00ff00 #000000;
#X msg 132 71 color #dfdfdf #00b1a5 #000000;
#X connect 0 0 2 0;
#X connect 1 0 3 0;
#X connect 1 0 6 0;
#X connect 2 0 5 0;
#X connect 2 1 1 0;
#X connect 2 1 8 0;
#X connect 8 0 4 0;
#X restore 12 246 pd radio-1;
#N canvas 202 189 450 300 radio-2 0;
#X obj 85 98 t f b;
#X obj 85 231 outlet;
#X obj 85 40 r \$0-radio-2;
#X obj 127 122 s \$0-set-radio-2;
#X obj 85 68 + 8;
#X msg 112 154 color #dfdfdf #dfdfdf #000000;
#X obj 123 178 s \$0-set-radio-1;
#X obj 112 199 s \$0-set-radio-3;
#X msg 127 98 color #dfdfdf #ff518d #000000;
#X connect 0 0 1 0;
#X connect 0 1 5 0;
#X connect 0 1 8 0;
#X connect 2 0 4 0;
#X connect 4 0 0 0;
#X connect 5 0 6 0;
#X connect 5 0 7 0;
#X connect 8 0 3 0;
#X restore 38 270 pd radio-2;
#N canvas 202 189 450 300 radio-3 0;
#X obj 85 98 t f b;
#X obj 85 231 outlet;
#X obj 112 207 s \$0-set-radio-1;
#X msg 112 154 color #dfdfdf #dfdfdf #000000;
#X obj 85 40 r \$0-radio-3;
#X obj 85 68 + 16;
#X obj 130 182 s \$0-set-radio-2;
#X obj 127 122 s \$0-set-radio-3;
#X msg 127 98 color #dfdfdf #f4560a #000000;
#X connect 0 0 1 0;
#X connect 0 1 3 0;
#X connect 0 1 8 0;
#X connect 3 0 2 0;
#X connect 3 0 6 0;
#X connect 4 0 5 0;
#X connect 5 0 0 0;
#X connect 8 0 7 0;
#X restore 50 293 pd radio-3;
#X obj 38 329 s \$0-model;
#X obj 17 492 else/spread 8 16;
#X obj 20 200 s \$0-label;
#X obj 20 29 r \$0-name;
#X obj 20 53 route 0;
#X obj 20 77 route name;
#X obj 20 124 symbol;
#X obj 71 569 s \$0-set-radio-2;
#X obj 126 544 s \$0-set-radio-3;
#X obj 52 597 s \$0-set-radio-1;
#X obj 17 465 r \$0-set-model;
#X obj 71 521 - 8;
#X obj 126 519 - 16;
#X obj 20 174 else/insert set;
#X obj 20 101 else/changed;
#X obj 175 108 r \$0-model;
#X obj 224 290 r \$0-morph;
#X obj 191 168 r \$0-harmonics;
#X obj 235 349 r \$0-cutoff;
#X obj 246 408 r \$0-decay;
#X obj 210 228 r \$0-timbre;
#X msg 175 137 model \$1;
#X msg 191 197 harmonics \$1;
#X msg 210 257 timbre \$1;
#X msg 224 319 morph \$1;
#X msg 235 378 cutoff \$1;
#X msg 245 435 decay \$1;
#X obj 175 509 s \$0-to-plaits;
#X obj 175 479 else/insert all;
#X obj 446 223 r \$0-fm-in;
#X obj 310 16 r \$0-trig;
#X obj 446 621 s \$0-to-plaits;
#X obj 446 594 else/insert all;
#X msg 446 245 freq_active \$1;
#X obj 463 273 r \$0-t-in;
#X msg 463 295 timbre_active \$1;
#X obj 487 376 r \$0-m-in;
#X msg 487 399 morph_active \$1;
#X obj 508 479 r \$0-timbre-att;
#X obj 498 427 r \$0-freq-att;
#X obj 517 530 r \$0-morph-att;
#X msg 498 449 freq_mod \$1;
#X msg 508 502 timbre_mod \$1;
#X msg 517 552 morph_mod \$1;
#X msg 311 152 tr_active \$1;
#X msg 422 195 lvl_active \$1;
#X obj 475 323 r \$0-midi-mode;
#X msg 475 344 midi_active \$1;
#X obj 344 43 r \$0-trigger-mode;
#X msg 158 46 set \$1;
#X obj 158 76 s \$0-set-model-n;
#X obj 158 15 r \$0-model;
#X obj 84 375 r \$0-freq;
#X msg 84 405 transp \$1;
#X obj 20 149 else/symbol2any;
#X obj 433 126 else/hot 3;
#X obj 466 99 r \$0-level-mode;
#X obj 433 74 r \$0-level;
#X obj 310 75 else/hot 3;
#X obj 524 37 r \$0-midi-mode;
#X obj 310 109 expr $f1 || ($f2 && $f3), f 12;
#X obj 422 153 expr $f1 || ($f2 && $f3), f 13;
#X msg 691 59 active 0;
#X msg 672 119 active 1;
#X obj 672 30 r \$0-freq-tab;
#X obj 691 87 s \$0-set-freq;
#X obj 672 147 s \$0-set-timbre;
#X msg 691 210 active 0;
#X msg 672 270 active 1;
#X obj 672 181 r \$0-timbre-tab;
#X obj 691 238 s \$0-set-timbre;
#X obj 672 298 s \$0-set-harmonics;
#X msg 691 365 active 0;
#X msg 672 425 active 1;
#X obj 672 336 r \$0-harmonics-tab;
#X obj 691 393 s \$0-set-harmonics;
#X obj 672 453 s \$0-set-morph;
#X msg 694 520 active 0;
#X msg 675 580 active 1;
#X msg 863 55 active 0;
#X msg 844 115 active 1;
#X msg 867 211 active 0;
#X msg 848 271 active 1;
#X obj 848 182 r \$0-decay-tab;
#X obj 867 239 s \$0-set-decay;
#X obj 848 299 s \$0-set-freq;
#X obj 844 143 s \$0-set-decay;
#X obj 675 491 r \$0-morph-tab;
#X obj 694 548 s \$0-set-morph;
#X obj 675 608 s \$0-set-cutoff;
#X obj 844 26 r \$0-cutoff-tab;
#X obj 863 83 s \$0-set-cutoff;
#N canvas 96 148 648 531 collapse 0;
#X obj 28 155 r \$0-uncollapse;
#X obj 57 317 r \$0-detatch-hover;
#X obj 80 471 s \$0-label-collapsed;
#X obj 57 343 sel 0 1;
#X msg 80 370 label ⤢ \, label_font 0 48 \, label_pos 34 12, f 25;
#X obj 314 432 r \$0-detatch;
#X obj 232 158 else/canvas.setname \$0-m 2;
#X obj 314 314 r \$0-set-GUI;
#X obj 314 398 s \$0-uncollapse;
#X obj 337 371 s \$0-collapse;
#X obj 314 343 sel 1 0;
#X obj 28 21 r \$0-collapse;
#X obj 28 189 else/message \; \$0-button readonly 0 \, transparent 2 \; pd-\$0-plaits donecanvasdialog 1 1 1 0 0 1 1 402 230 15 15 \, vis 0 \; \$0-cnv color #bbbbbb #000000 #000000 \; \$0-m goprect 400 125 418 259 \, dirty 0 \; \$0-GUI 1;
#X msg 57 419 label PLAITS \, label_font 0 24 \, label_pos 5 15, f 30;
#X obj 314 459 message \; pd-\$0-plaits vis 1;
#X obj 209 322 loadbang;
#X obj 28 50 else/message \; \$0-button readonly 1 \, transparent 3 \; pd-\$0-plaits donecanvasdialog 1 1 0 0 0 1 1 215 215 15 15 \; \$0-cnv color #dbdbdb #000000 #dbdbdb \; \$0-m goprect 500 405 138 44 \, dirty 0 \; \$0-GUI 0;
#X obj 461 435 s \$0-uncollapse-set;
#X msg 461 401 readonly \$1;
#X obj 461 370 else/canvas.edit 3;
#X connect 0 0 12 0;
#X connect 1 0 3 0;
#X connect 3 0 13 0;
#X connect 3 1 4 0;
#X connect 4 0 2 0;
#X connect 5 0 14 0;
#X connect 7 0 10 0;
#X connect 10 0 8 0;
#X connect 10 1 9 0;
#X connect 11 0 16 0;
#X connect 13 0 2 0;
#X connect 15 0 13 0;
#X connect 18 0 17 0;
#X connect 19 0 18 0;
#X restore 866 366 pd collapse;
#X connect 0 0 3 0;
#X connect 1 0 3 0;
#X connect 2 0 3 0;
#X connect 4 0 12 0;
#X connect 4 1 14 0;
#X connect 4 2 15 0;
#X connect 6 0 7 0;
#X connect 7 0 8 0;
#X connect 8 0 17 0;
#X connect 9 0 57 0;
#X connect 13 0 4 0;
#X connect 14 0 10 0;
#X connect 15 0 11 0;
#X connect 16 0 5 0;
#X connect 17 0 9 0;
#X connect 18 0 24 0;
#X connect 19 0 27 0;
#X connect 20 0 25 0;
#X connect 21 0 28 0;
#X connect 22 0 29 0;
#X connect 23 0 26 0;
#X connect 24 0 31 0;
#X connect 25 0 31 0;
#X connect 26 0 31 0;
#X connect 27 0 31 0;
#X connect 28 0 31 0;
#X connect 29 0 31 0;
#X connect 31 0 30 0;
#X connect 32 0 36 0;
#X connect 33 0 61 0;
#X connect 35 0 34 0;
#X connect 36 0 35 0;
#X connect 37 0 38 0;
#X connect 38 0 35 0;
#X connect 39 0 40 0;
#X connect 40 0 35 0;
#X connect 41 0 45 0;
#X connect 42 0 44 0;
#X connect 43 0 46 0;
#X connect 44 0 35 0;
#X connect 45 0 35 0;
#X connect 46 0 35 0;
#X connect 47 0 35 0;
#X connect 48 0 35 0;
#X connect 49 0 50 0;
#X connect 50 0 35 0;
#X connect 51 0 61 1;
#X connect 52 0 53 0;
#X connect 54 0 52 0;
#X connect 55 0 56 0;
#X connect 56 0 31 0;
#X connect 57 0 16 0;
#X connect 58 0 64 0;
#X connect 58 1 64 1;
#X connect 58 2 64 2;
#X connect 59 0 58 1;
#X connect 60 0 58 0;
#X connect 61 0 63 0;
#X connect 61 1 63 1;
#X connect 61 2 63 2;
#X connect 62 0 58 2;
#X connect 62 0 61 2;
#X connect 63 0 47 0;
#X connect 64 0 48 0;
#X connect 65 0 68 0;
#X connect 66 0 69 0;
#X connect 67 0 65 0;
#X connect 67 0 66 0;
#X connect 70 0 73 0;
#X connect 71 0 74 0;
#X connect 72 0 70 0;
#X connect 72 0 71 0;
#X connect 75 0 78 0;
#X connect 76 0 79 0;
#X connect 77 0 75 0;
#X connect 77 0 76 0;
#X connect 80 0 91 0;
#X connect 81 0 92 0;
#X connect 82 0 94 0;
#X connect 83 0 89 0;
#X connect 84 0 87 0;
#X connect 85 0 88 0;
#X connect 86 0 84 0;
#X connect 86 0 85 0;
#X connect 90 0 80 0;
#X connect 90 0 81 0;
#X connect 93 0 82 0;
#X connect 93 0 83 0;
#X restore 513 72 pd GUI;
#X obj 299 346 s \$0-name;
#X obj 134 74 inlet~;
#X obj 78 312 clone -d plaits.unit 1, f 32;
#N canvas 53 101 1125 413 check 0;
#X obj 44 63 inlet~;
#X obj 44 346 outlet~;
#X obj 80 105 else/pick~ 1;
#X obj 80 152 else/s2f~;
#X obj 80 185 change;
#X obj 80 128 else/op~ != 1e+06;
#X obj 80 273 s \$0-trig;
#X obj 44 301 else/select~ 1;
#X obj 217 58 inlet~;
#X obj 217 341 outlet~;
#X obj 253 100 else/pick~ 1;
#X obj 253 147 else/s2f~;
#X obj 253 180 change;
#X obj 253 123 else/op~ != 1e+06;
#X obj 217 296 else/select~ 1;
#X obj 253 248 s \$0-level;
#X obj 447 63 inlet~;
#X obj 447 346 outlet~;
#X obj 483 105 else/pick~ 1;
#X obj 483 152 else/s2f~;
#X obj 483 185 change;
#X obj 483 128 else/op~ != 1e+06;
#X obj 447 301 else/select~ 1;
#X obj 617 58 inlet~;
#X obj 617 341 outlet~;
#X obj 653 100 else/pick~ 1;
#X obj 653 147 else/s2f~;
#X obj 653 180 change;
#X obj 653 123 else/op~ != 1e+06;
#X obj 617 296 else/select~ 1;
#X obj 787 58 inlet~;
#X obj 787 341 outlet~;
#X obj 957 63 inlet~;
#X obj 957 346 outlet~;
#X obj 993 105 else/pick~ 1;
#X obj 993 152 else/s2f~;
#X obj 993 185 change;
#X obj 993 128 else/op~ != 1e+06;
#X obj 957 301 else/select~ 1;
#X obj 787 294 *~;
#X obj 483 273 s \$0-fm-in;
#X obj 653 248 s \$0-t-in;
#X obj 993 273 s \$0-m-in;
#X obj 815 203 else/f2s~;
#X obj 815 171 r \$0-harmonics-att;
#X text 36 35 trigger;
#X text 221 35 level;
#X text 451 35 FM;
#X text 619 32 timbre;
#X text 781 34 harmonics;
#X text 958 33 morph;
#X listbox 1103 93 20 0 0 0 - - - 0;
#X connect 0 0 2 0;
#X connect 0 0 7 0;
#X connect 2 0 5 0;
#X connect 3 0 4 0;
#X connect 4 0 7 0;
#X connect 4 0 6 0;
#X connect 5 0 3 0;
#X connect 7 0 1 0;
#X connect 8 0 10 0;
#X connect 8 0 14 0;
#X connect 10 0 13 0;
#X connect 11 0 12 0;
#X connect 12 0 14 0;
#X connect 12 0 15 0;
#X connect 13 0 11 0;
#X connect 14 0 9 0;
#X connect 16 0 18 0;
#X connect 16 0 22 0;
#X connect 18 0 21 0;
#X connect 19 0 20 0;
#X connect 20 0 22 0;
#X connect 20 0 40 0;
#X connect 21 0 19 0;
#X connect 22 0 17 0;
#X connect 23 0 25 0;
#X connect 23 0 29 0;
#X connect 25 0 28 0;
#X connect 26 0 27 0;
#X connect 27 0 29 0;
#X connect 27 0 41 0;
#X connect 28 0 26 0;
#X connect 29 0 24 0;
#X connect 30 0 39 0;
#X connect 32 0 34 0;
#X connect 32 0 38 0;
#X connect 34 0 37 0;
#X connect 35 0 36 0;
#X connect 36 0 38 0;
#X connect 36 0 42 0;
#X connect 37 0 35 0;
#X connect 38 0 33 0;
#X connect 39 0 31 0;
#X connect 43 0 39 1;
#X connect 44 0 43 0;
#X restore 232 247 pd check;
#X f 10;
#X obj 184 74 inlet~;
#X obj 233 74 inlet~;
#X obj 284 74 inlet~;
#X obj 334 74 inlet~;
#X obj 385 74 inlet~;
#X text 599 126 FM;
#X text 401 126 Freq;
#X text 444 126 Trigger;
#X text 521 126 Level;
#X text 654 126 Timbre;
#X text 779 126 Morph;
#X text 729 126 Harm;
#X obj 233 25 else/initmess 1e+06;
#N canvas 866 167 260 337 MIDI-learn 0;
#N canvas 719 275 577 472 fm-att-knob 0;
#X msg 114 218 forget;
#X obj 240 221 savestate;
#X obj 300 268 list;
#X obj 240 326 else/insert teach;
#X obj 96 270 else/midi.learn 1;
#A saved;
#X obj 96 366 else/rescale -1 1;
#X obj 94 33 r \$0-freq-att-learn;
#X msg 113 64 MIDI-learn for att freq-att knob activated;
#X obj 114 130 r \$0-freq-att-forget;
#X msg 126 164 MIDI-forget for freq-att knob;
#X obj 324 243 list prepend freq-att-learn;
#X obj 240 297 else/route2 freq-att-learn;
#X obj 96 405 s \$0-set-freq-att;
#X obj 113 91 print [plaits.m~]:;
#X obj 126 189 print [plaits.m~]:;
#X connect 0 0 4 0;
#X connect 1 0 11 0;
#X connect 1 1 2 0;
#X connect 2 0 1 0;
#X connect 3 0 4 0;
#X connect 4 0 5 0;
#X connect 4 1 10 0;
#X connect 5 0 12 0;
#X connect 6 0 7 0;
#X connect 6 0 4 0;
#X connect 7 0 13 0;
#X connect 8 0 0 0;
#X connect 8 0 9 0;
#X connect 9 0 14 0;
#X connect 10 0 2 1;
#X connect 11 0 3 0;
#X restore 68 197 pd fm-att-knob;
#N canvas 759 238 577 472 freq-knob 0;
#X msg 114 218 forget;
#X obj 240 221 savestate;
#X obj 300 268 list;
#X obj 240 326 else/insert teach;
#X obj 96 270 else/midi.learn 1;
#A saved;
#X obj 94 34 r \$0-freq-learn;
#X obj 113 91 print [plaits.m~]:;
#X obj 127 189 print [plaits.m~]:;
#X msg 113 64 MIDI-learn for freq knob activated;
#X msg 127 164 MIDI-forget for freq knob;
#X obj 96 366 else/rescale -24 24;
#X obj 114 130 r \$0-freq-forget;
#X obj 325 243 list prepend freq-learn;
#X obj 240 297 else/route2 freq-learn;
#X obj 96 405 s \$0-set-freq;
#X connect 0 0 4 0;
#X connect 1 0 13 0;
#X connect 1 1 2 0;
#X connect 2 0 1 0;
#X connect 3 0 4 0;
#X connect 4 0 10 0;
#X connect 4 1 12 0;
#X connect 5 0 8 0;
#X connect 5 0 4 0;
#X connect 8 0 6 0;
#X connect 9 0 7 0;
#X connect 10 0 14 0;
#X connect 11 0 0 0;
#X connect 11 0 9 0;
#X connect 12 0 2 1;
#X connect 13 0 3 0;
#X restore 68 35 pd freq-knob;
#N canvas 824 173 577 472 harmonics-knob 0;
#X msg 114 218 forget;
#X obj 240 221 savestate;
#X obj 300 268 list;
#X obj 240 326 else/insert teach;
#X obj 96 270 else/midi.learn 1;
#A saved;
#X obj 113 91 print [plaits.m~]:;
#X obj 127 189 print [plaits.m~]:;
#X obj 94 34 r \$0-harmonics-learn;
#X msg 113 64 MIDI-learn for harmonics knob activated;
#X obj 114 130 r \$0-harmonics-forget;
#X msg 127 164 MIDI-forget for harmonics knob;
#X obj 325 243 list prepend harmonics-learn;
#X obj 240 297 else/route2 harmonics-learn;
#X obj 96 366 else/rescale 0 1;
#X obj 96 405 s \$0-set-harmonics;
#X connect 0 0 4 0;
#X connect 1 0 12 0;
#X connect 1 1 2 0;
#X connect 2 0 1 0;
#X connect 3 0 4 0;
#X connect 4 0 13 0;
#X connect 4 1 11 0;
#X connect 7 0 8 0;
#X connect 7 0 4 0;
#X connect 8 0 5 0;
#X connect 9 0 0 0;
#X connect 9 0 10 0;
#X connect 10 0 6 0;
#X connect 11 0 2 1;
#X connect 12 0 3 0;
#X connect 13 0 14 0;
#X restore 68 59 pd harmonics-knob;
#N canvas 847 303 577 472 timbre-knob 0;
#X msg 114 218 forget;
#X obj 240 221 savestate;
#X obj 300 268 list;
#X obj 240 326 else/insert teach;
#X obj 96 270 else/midi.learn 1;
#A saved;
#X obj 113 91 print [plaits.m~]:;
#X obj 127 189 print [plaits.m~]:;
#X obj 96 366 else/rescale 0 1;
#X obj 94 34 r \$0-timbre-learn;
#X msg 113 64 MIDI-learn for timbre knob activated;
#X obj 114 130 r \$0-timbre-forget;
#X msg 127 164 MIDI-forget for timbre knob;
#X obj 325 243 list prepend timbre-learn;
#X obj 240 297 else/route2 timbre-learn;
#X obj 96 405 s \$0-set-timbre;
#X connect 0 0 4 0;
#X connect 1 0 13 0;
#X connect 1 1 2 0;
#X connect 2 0 1 0;
#X connect 3 0 4 0;
#X connect 4 0 7 0;
#X connect 4 1 12 0;
#X connect 7 0 14 0;
#X connect 8 0 9 0;
#X connect 8 0 4 0;
#X connect 9 0 5 0;
#X connect 10 0 0 0;
#X connect 10 0 11 0;
#X connect 11 0 6 0;
#X connect 12 0 2 1;
#X connect 13 0 3 0;
#X restore 68 81 pd timbre-knob;
#N canvas 824 173 577 472 morph-knob 0;
#X msg 114 218 forget;
#X obj 240 221 savestate;
#X obj 300 268 list;
#X obj 240 326 else/insert teach;
#X obj 96 270 else/midi.learn 1;
#A saved;
#X obj 113 91 print [plaits.m~]:;
#X obj 127 189 print [plaits.m~]:;
#X obj 96 366 else/rescale 0 1;
#X obj 94 34 r \$0-morph-learn;
#X msg 113 64 MIDI-learn for morph knob activated;
#X obj 114 130 r \$0-morph-forget;
#X msg 127 164 MIDI-forget for morph knob;
#X obj 325 243 list prepend morph-learn;
#X obj 240 297 else/route2 morph-learn;
#X obj 96 405 s \$0-set-morph;
#X connect 0 0 4 0;
#X connect 1 0 13 0;
#X connect 1 1 2 0;
#X connect 2 0 1 0;
#X connect 3 0 4 0;
#X connect 4 0 7 0;
#X connect 4 1 12 0;
#X connect 7 0 14 0;
#X connect 8 0 9 0;
#X connect 8 0 4 0;
#X connect 9 0 5 0;
#X connect 10 0 0 0;
#X connect 10 0 11 0;
#X connect 11 0 6 0;
#X connect 12 0 2 1;
#X connect 13 0 3 0;
#X restore 68 105 pd morph-knob;
#N canvas 847 303 577 472 cutoff-knob 0;
#X msg 114 218 forget;
#X obj 240 221 savestate;
#X obj 300 268 list;
#X obj 240 326 else/insert teach;
#X obj 96 270 else/midi.learn 1;
#A saved;
#X obj 113 91 print [plaits.m~]:;
#X obj 127 189 print [plaits.m~]:;
#X obj 96 366 else/rescale 0 1;
#X obj 94 34 r \$0-cutoff-learn;
#X msg 113 64 MIDI-learn for cutoff knob activated;
#X obj 114 130 r \$0-cutoff-forget;
#X msg 127 164 MIDI-forget for cutoff knob;
#X obj 325 243 list prepend cutoff-learn;
#X obj 240 297 else/route2 cutoff-learn;
#X obj 96 405 s \$0-set-cutoff;
#X connect 0 0 4 0;
#X connect 1 0 13 0;
#X connect 1 1 2 0;
#X connect 2 0 1 0;
#X connect 3 0 4 0;
#X connect 4 0 7 0;
#X connect 4 1 12 0;
#X connect 7 0 14 0;
#X connect 8 0 9 0;
#X connect 8 0 4 0;
#X connect 9 0 5 0;
#X connect 10 0 0 0;
#X connect 10 0 11 0;
#X connect 11 0 6 0;
#X connect 12 0 2 1;
#X connect 13 0 3 0;
#X restore 68 131 pd cutoff-knob;
#N canvas 824 173 577 472 decay-knob 0;
#X msg 114 218 forget;
#X obj 240 221 savestate;
#X obj 300 268 list;
#X obj 240 326 else/insert teach;
#X obj 96 270 else/midi.learn 1;
#A saved;
#X obj 113 91 print [plaits.m~]:;
#X obj 127 189 print [plaits.m~]:;
#X obj 96 366 else/rescale 0 1;
#X obj 94 34 r \$0-decay-learn;
#X msg 113 64 MIDI-learn for decay knob activated;
#X obj 114 130 r \$0-decay-forget;
#X msg 127 164 MIDI-forget for decay knob;
#X obj 325 243 list prepend decay-learn;
#X obj 240 297 else/route2 decay-learn;
#X obj 96 405 s \$0-set-decay;
#X connect 0 0 4 0;
#X connect 1 0 13 0;
#X connect 1 1 2 0;
#X connect 2 0 1 0;
#X connect 3 0 4 0;
#X connect 4 0 7 0;
#X connect 4 1 12 0;
#X connect 7 0 14 0;
#X connect 8 0 9 0;
#X connect 8 0 4 0;
#X connect 9 0 5 0;
#X connect 10 0 0 0;
#X connect 10 0 11 0;
#X connect 11 0 6 0;
#X connect 12 0 2 1;
#X connect 13 0 3 0;
#X restore 68 155 pd decay-knob;
#N canvas 719 275 577 472 timbre-att-knob 0;
#X msg 114 218 forget;
#X obj 240 221 savestate;
#X obj 300 268 list;
#X obj 240 326 else/insert teach;
#X obj 96 270 else/midi.learn 1;
#A saved;
#X obj 96 366 else/rescale -1 1;
#X obj 113 91 print [plaits.m~]:;
#X obj 126 189 print [plaits.m~]:;
#X obj 94 33 r \$0-timbre-att-learn;
#X msg 113 64 MIDI-learn for att timbre-att knob activated;
#X obj 114 130 r \$0-timbre-att-forget;
#X msg 126 164 MIDI-forget for timbre-att knob;
#X obj 324 243 list prepend timbre-att-learn;
#X obj 240 297 else/route2 timbre-att-learn;
#X obj 96 405 s \$0-set-timbre-att;
#X connect 0 0 4 0;
#X connect 1 0 13 0;
#X connect 1 1 2 0;
#X connect 2 0 1 0;
#X connect 3 0 4 0;
#X connect 4 0 5 0;
#X connect 4 1 12 0;
#X connect 5 0 14 0;
#X connect 8 0 9 0;
#X connect 8 0 4 0;
#X connect 9 0 6 0;
#X connect 10 0 0 0;
#X connect 10 0 11 0;
#X connect 11 0 7 0;
#X connect 12 0 2 1;
#X connect 13 0 3 0;
#X restore 68 221 pd timbre-att-knob;
#N canvas 719 275 577 472 harm-att-knob 0;
#X msg 114 218 forget;
#X obj 240 221 savestate;
#X obj 300 268 list;
#X obj 240 326 else/insert teach;
#X obj 96 270 else/midi.learn 1;
#A saved;
#X obj 96 366 else/rescale -1 1;
#X obj 113 91 print [plaits.m~]:;
#X obj 126 189 print [plaits.m~]:;
#X obj 94 33 r \$0-harmonics-att-learn;
#X msg 113 64 MIDI-learn for att harmonics-att knob activated;
#X obj 114 130 r \$0-harmonics-att-forget;
#X msg 126 164 MIDI-forget for harmonics-att knob;
#X obj 324 243 list prepend harmonics-att-learn;
#X obj 240 297 else/route2 harmonics-att-learn;
#X obj 96 405 s \$0-set-harmonics-att;
#X connect 0 0 4 0;
#X connect 1 0 13 0;
#X connect 1 1 2 0;
#X connect 2 0 1 0;
#X connect 3 0 4 0;
#X connect 4 0 5 0;
#X connect 4 1 12 0;
#X connect 5 0 14 0;
#X connect 8 0 9 0;
#X connect 8 0 4 0;
#X connect 9 0 6 0;
#X connect 10 0 0 0;
#X connect 10 0 11 0;
#X connect 11 0 7 0;
#X connect 12 0 2 1;
#X connect 13 0 3 0;
#X restore 68 247 pd harm-att-knob;
#N canvas 719 275 577 472 morph-att-knob 0;
#X msg 114 218 forget;
#X obj 240 221 savestate;
#X obj 300 268 list;
#X obj 240 326 else/insert teach;
#X obj 96 270 else/midi.learn 1;
#A saved;
#X obj 96 366 else/rescale -1 1;
#X obj 113 91 print [plaits.m~]:;
#X obj 126 189 print [plaits.m~]:;
#X obj 94 33 r \$0-morph-att-learn;
#X msg 113 64 MIDI-learn for att morph-att knob activated;
#X obj 114 130 r \$0-morph-att-forget;
#X msg 126 161 MIDI-forget for morph-att knob;
#X obj 324 243 list prepend morph-att-learn;
#X obj 240 297 else/route2 morph-att-learn;
#X obj 96 405 s \$0-set-morph-att;
#X connect 0 0 4 0;
#X connect 1 0 13 0;
#X connect 1 1 2 0;
#X connect 2 0 1 0;
#X connect 3 0 4 0;
#X connect 4 0 5 0;
#X connect 4 1 12 0;
#X connect 5 0 14 0;
#X connect 8 0 9 0;
#X connect 8 0 4 0;
#X connect 9 0 6 0;
#X connect 10 0 0 0;
#X connect 10 0 11 0;
#X connect 11 0 7 0;
#X connect 12 0 2 1;
#X connect 13 0 3 0;
#X restore 68 271 pd morph-att-knob;
#X restore 650 61 pd MIDI-learn;
#N canvas 293 48 582 524 set 0;
#X obj 95 455 outlet;
#X obj 84 35 inlet~;
#X obj 95 397 r \$0-to-plaits;
#X obj 175 38 inlet;
#N canvas 703 216 571 476 resize 0;
#X obj 64 37 inlet~;
#X obj 64 268 t b f;
#X obj 64 218 change 0;
#X obj 64 88 else/nchs~;
#X obj 142 289 s \$0-to-plaits;
#X msg 142 264 resize \$1;
#X obj 156 116 == 0;
#X obj 305 31 r \$0-n;
#X obj 156 47 r \$0-midi-mode;
#X obj 185 165 spigot;
#X obj 64 322 else/var \$0-freq \$0-model \$0-harmonics \$0-timbre \$0-morph \$0-cutoff \$0-decay \$0-trig \$0-level \$0-fm-in \$0-t-in \$0-m-in \$0-freq-att \$0-timbre-att \$0-morph-att \$0-midi-mode;
#X obj 64 391 else/dispatch \$0-freq \$0-model \$0-harmonics \$0-timbre \$0-morph \$0-cutoff \$0-decay \$0-trig \$0-level \$0-fm-in \$0-t-in \$0-m-in \$0-freq-att \$0-timbre-att \$0-morph-att \$0-midi-mode, f 62;
#X obj 274 101 t f f;
#X obj 274 162 sel 1;
#X obj 219 119 f;
#X obj 64 116 spigot 1;
#X obj 65 176 del 0;
#X obj 142 235 max 1;
#X connect 0 0 3 0;
#X connect 1 0 10 0;
#X connect 1 1 17 0;
#X connect 2 0 1 0;
#X connect 3 0 15 0;
#X connect 5 0 4 0;
#X connect 6 0 15 1;
#X connect 7 0 14 0;
#X connect 8 0 6 0;
#X connect 8 0 12 0;
#X connect 9 0 2 0;
#X connect 10 0 11 0;
#X connect 12 0 13 0;
#X connect 12 1 9 1;
#X connect 13 0 14 0;
#X connect 14 0 9 0;
#X connect 15 0 16 0;
#X connect 16 0 2 0;
#X connect 17 0 5 0;
#X restore 84 337 pd resize;
#N canvas 189 48 592 549 route 0;
#X obj 37 18 inlet;
#X obj 141 487 s \$0-set-freq;
#X obj 162 431 s \$0-set-harmonics;
#X obj 150 458 s \$0-set-timbre;
#X obj 182 403 s \$0-set-morph;
#X obj 203 375 s \$0-set-cutoff;
#X obj 221 347 s \$0-set-decay;
#X obj 238 323 s \$0-set-freq-att;
#X obj 254 296 s \$0-set-timbre-att;
#X obj 267 272 s \$0-set-harmonics-att;
#X obj 281 246 s \$0-set-morph-att;
#N canvas 337 205 461 561 list 0;
#X obj 86 245 else/router;
#X obj 191 282 else/mono;
#X obj 267 399 pack;
#X obj 197 437 list prepend 0;
#X obj 197 484 s \$0-to-plaits;
#X obj 185 71 r \$0-n-voices;
#X obj 185 119 int;
#X obj 274 204 s \$0-set-n-voices;
#X msg 274 177 set \$1;
#X obj 86 59 inlet;
#X obj 207 198 s \$0-n;
#X obj 132 182 == 1;
#X obj 37 312 else/voices 1 1;
#X obj 185 95 clip 1 32;
#X msg 185 250 n \$1;
#X obj 268 369 makenote 0 5;
#X obj 302 287 r \$0-trigger-mode;
#X obj 195 339 else/router;
#X obj 204 308 pack;
#X connect 0 0 12 0;
#X connect 0 1 1 0;
#X connect 1 0 18 0;
#X connect 1 1 18 1;
#X connect 2 0 3 0;
#X connect 3 0 4 0;
#X connect 5 0 13 0;
#X connect 6 0 8 0;
#X connect 6 0 10 0;
#X connect 6 0 11 0;
#X connect 6 0 14 0;
#X connect 8 0 7 0;
#X connect 9 0 0 0;
#X connect 11 0 0 1;
#X connect 12 0 4 0;
#X connect 13 0 6 0;
#X connect 14 0 12 0;
#X connect 15 0 2 0;
#X connect 15 1 2 1;
#X connect 16 0 17 1;
#X connect 17 0 3 0;
#X connect 17 1 15 0;
#X connect 18 0 17 0;
#X restore 37 378 pd list;
#N canvas 123 97 762 358 mode 0;
#X obj 94 38 inlet;
#X obj 306 303 s \$0-set-model;
#X obj 94 138 int;
#X obj 94 162 clip 0 23;
#X obj 94 62 route mode up down right left, f 74;
#X obj 187 117 var \$0-model;
#X obj 306 117 var \$0-model;
#X obj 436 117 var \$0-model;
#X obj 436 148 + 8;
#X obj 562 117 var \$0-model;
#X obj 562 148 - 8;
#X obj 187 178 else/wrap2 0 24;
#X obj 306 178 else/wrap2 0 24;
#X obj 436 178 else/wrap2 0 24;
#X obj 562 178 else/wrap2 0 24;
#X obj 711 259 outlet;
#X obj 187 148 - 1;
#X obj 306 148 + 1;
#X obj 84 102 r \$0-model-n;
#X connect 0 0 4 0;
#X connect 2 0 3 0;
#X connect 3 0 1 0;
#X connect 4 0 2 0;
#X connect 4 1 5 0;
#X connect 4 2 6 0;
#X connect 4 3 7 0;
#X connect 4 4 9 0;
#X connect 4 5 15 0;
#X connect 5 0 16 0;
#X connect 6 0 17 0;
#X connect 7 0 8 0;
#X connect 8 0 13 0;
#X connect 9 0 10 0;
#X connect 10 0 14 0;
#X connect 11 0 1 0;
#X connect 12 0 1 0;
#X connect 13 0 1 0;
#X connect 14 0 1 0;
#X connect 16 0 11 0;
#X connect 17 0 12 0;
#X connect 18 0 2 0;
#X restore 479 57 pd mode;
#N canvas 149 120 708 477 midi 0;
#X obj 122 194 s \$0-set-midi-mode;
#X obj 94 294 s \$0-set-n-voices;
#X obj 122 166 != 0;
#X obj 118 24 inlet;
#X obj 98 252 route float;
#X obj 98 58 route voices midi trigger level, f 52;
#X obj 269 164 != 0;
#X obj 427 167 != 0;
#X obj 269 192 s \$0-set-trigger-mode;
#X obj 427 195 s \$0-set-level-mode;
#X obj 269 109 route float bang;
#X obj 427 112 route float bang;
#X obj 122 111 route float bang;
#X connect 2 0 0 0;
#X connect 3 0 5 0;
#X connect 4 0 1 0;
#X connect 5 0 4 0;
#X connect 5 1 12 0;
#X connect 5 2 10 0;
#X connect 5 3 11 0;
#X connect 6 0 8 0;
#X connect 7 0 9 0;
#X connect 10 0 6 0;
#X connect 10 1 8 0;
#X connect 11 0 7 0;
#X connect 11 1 9 0;
#X connect 12 0 2 0;
#X connect 12 1 0 0;
#X restore 479 91 pd midi;
#X obj 346 209 s \$0-to-plaits;
#X msg 346 183 0 print;
#X obj 37 54 route list freq timbre harmonics morph cutoff decay fm_att timbre_att harm_att morph_att print gui;
#X obj 415 133 s \$0-set-GUI;
#X obj 415 108 != 0;
#X connect 0 0 16 0;
#X connect 12 0 13 0;
#X connect 15 0 14 0;
#X connect 16 0 11 0;
#X connect 16 1 1 0;
#X connect 16 2 3 0;
#X connect 16 3 2 0;
#X connect 16 4 4 0;
#X connect 16 5 5 0;
#X connect 16 6 6 0;
#X connect 16 7 7 0;
#X connect 16 8 8 0;
#X connect 16 9 9 0;
#X connect 16 10 10 0;
#X connect 16 11 15 0;
#X connect 16 12 18 0;
#X connect 16 13 12 0;
#X connect 18 0 17 0;
#X restore 175 338 pd route;
#X obj 315 154 else/pick~ 1;
#X obj 296 455 outlet~;
#X obj 296 371 *~;
#X obj 314 334 else/op~ != 1e+06;
#X obj 335 224 else/s2f~;
#X obj 335 257 change;
#X obj 335 194 else/op~ == 1e+06;
#X obj 335 291 s \$0-midi-mode;
#X connect 1 0 4 0;
#X connect 1 0 6 0;
#X connect 1 0 8 0;
#X connect 2 0 0 0;
#X connect 3 0 5 0;
#X connect 6 0 9 0;
#X connect 6 0 12 0;
#X connect 8 0 7 0;
#X connect 9 0 8 1;
#X connect 10 0 11 0;
#X connect 11 0 13 0;
#X connect 12 0 10 0;
#X restore 76 206 pd set \; check;
#N canvas 372 87 431 276 \$0-plaits 0;
#N canvas 308 57 516 356 (subpatch) 0;
#X obj 51 51 cnv 15 400 228 empty empty empty 20 12 0 14 #dbdbdb #373737 0;
#X obj 195 122 else/knob 50 0 1 0 0.5 \$0-harmonics \$0-set-harmonics #dfdfdf #7c7c7c #000000 0 0 0 0 1 320 0 0 0.5 empty empty 0 8 0 0 0 0 0 0 0 0;
#X text 190 105 Harmonics;
#X obj 71 196 else/knob 50 0 1 0 0.5 \$0-timbre \$0-set-timbre #dfdfdf #7c7c7c black 0 0 0 0 1 320 0 0 0.5 empty empty 0 0 0 0 0 0 0 0 0 0;
#X text 72 178 Timbre;
#X obj 195 196 else/knob 50 0 1 0 0.5 \$0-morph \$0-set-morph #dfdfdf #7c7c7c #000000 0 0 0 0 1 320 0 0 0.5 empty empty 0 8 0 0 0 0 0 0 0 0;
#X text 201 178 Morph;
#X obj 71 122 else/knob 50 -24 24 0 0 \$0-freq \$0-set-freq #dfdfdf #7c7c7c #000000 0 0 0 0 1 320 0 0 0 empty empty 0 8 0 0 0 0 0 0 0 0;
#X obj 131 102 vradio 18 1 0 8 \$0-radio-1 \$0-set-radio-1 empty 0 -8 0 10 #dfdfdf #00b1a5 #000000 0;
#X obj 149 102 vradio 18 1 0 8 \$0-radio-2 \$0-set-radio-2 empty 0 -8 0 10 #dfdfdf #dfdfdf #000000 0;
#X obj 167 102 vradio 18 1 0 8 \$0-radio-3 \$0-set-radio-3 empty 0 -8 0 10 #dfdfdf #dfdfdf #000000 0;
#X obj 60 255 else/note 197 12 Menlo \$0-label 4 0 0 0 0 223 223 223 1 1 Pair of classic waveforms;
#X obj 313 75 else/knob 45 0 1 0 0.5 \$0-cutoff \$0-set-cutoff #dfdfdf #7c7c7c #000000 0 0 0 0 1 320 0 0 0 empty empty 0 8 0 0 0 0 0 0 0 0;
#X obj 373 75 else/knob 45 0 1 0 0.5 \$0-decay \$0-set-decay #dfdfdf #7c7c7c #000000 0 0 0 0 1 320 0 0 0 empty empty 0 8 0 0 0 0 0 0 0 0;
#X text 311 57 Cutoff;
#X text 378 57 Decay;
#X text 281 87 LPG;
#X obj 313 149 knob 40 -1 1 0 0 \$0-timbre-att \$0-set-timbre-att #202020 #7c7c7c #ff0400 0 0 0 0 1 320 0 0 0 empty empty 0 0 0 0 0 0 0 0 0 0;
#X obj 268 149 knob 40 -1 1 0 0 \$0-freq-att \$0-set-freq-att #202020 #7c7c7c #ff0400 0 0 0 0 1 320 0 0 0 empty empty 0 8 0 0 0 0 0 0 0 0;
#X obj 358 149 knob 40 -1 1 0 0 \$0-harmonics-att \$0-set-harmonics-att #202020 #7c7c7c #ff0400 0 0 0 0 1 320 0 0 0 empty empty 0 0 0 0 0 0 0 0 0 0;
#X obj 403 149 knob 40 -1 1 0 0 \$0-morph-att \$0-set-morph-att #202020 #7c7c7c #ff0400 0 0 0 0 1 320 0 0 0 empty empty 0 0 0 0 0 0 0 0 0 0;
#X text 278 189 FM;
#X text 309 189 Timbre;
#X text 362 188 Harm;
#X text 402 188 Morph;
#X floatatom 391 248 3 1 32 0 - \$0-set-n-voices \$0-n-voices 16;
#X text 310 215 Trigger;
#X text 399 215 Level;
#X floatatom 224 75 3 0 0 0 - \$0-set-model-n \$0-model-n 12;
#X text 217 57 Mode:;
#X text 79 104 Freq;
#X text 267 127 ---- Attenuverters ----;
#X obj 64 61 else/note 112 24 Inter empty 5 54 54 54 0 187 187 187 1 1 PLAITS;
#X text 288 251 # MIDI Voices;
#X obj 184 61 else/button 19 31 #e0e0e0 #808080 2 1 2 0 0 \$0-collapse \$0-button;
#X obj 185 62 cnv 10 17 15 empty \$0-cnv ▼ 5 8 0 12 #bbbbbb #000000 0;
#X obj 185 76 cnv 10 17 15 empty \$0-cnv ▲ 5 5 0 12 #bbbbbb #000000 0;
#X obj 373 212 else/button 25 25 #f5f5f5 #808080 1 1 0 1 0 \$0-level-mode \$0-set-level-mode;
#X obj 283 212 else/button 25 25 #f5f5f5 #808080 1 1 0 1 0 \$0-trigger-mode \$0-set-trigger-mode;
#X coords 0 1 100 -1 402 230 1 50 50;
#X restore 15 15 graph;
#X coords 0 0 1 1 402 230 1 15 15;
#X restore 409 147 pd \$0-plaits;
#X obj 613 413 cnv 10 17 15 empty empty ▲ 5 8 0 12 #bbbbbb #000000 0;
#X obj 613 427 cnv 10 17 15 empty empty ▼ 5 5 0 12 #bbbbbb #000000 0;
#X obj 612 412 else/button 19 31 #e0e0e0 #808080 2 1 2 0 0 \$0-uncollapse empty;
#X obj 510 413 cnv 19 95 29 empty \$0-label-collapsed PLAITS 5 15 0 24 #bbbbbb #000000 0;
#X obj 509 412 else/button 97 31 #bbbbbb #bbbbbb 2 1 2 0 0 \$0-detatch \$0-uncollapse-set;
#X connect 0 0 24 0;
#X connect 0 1 24 1;
#X connect 7 0 9 0;
#X connect 8 0 1 0;
#X connect 8 1 4 0;
#X connect 8 2 6 0;
#X connect 9 0 8 1;
#X connect 9 1 8 2;
#X connect 9 2 8 3;
#X connect 9 3 8 4;
#X connect 9 4 8 5;
#X connect 9 5 8 6;
#X connect 10 0 9 1;
#X connect 11 0 9 2;
#X connect 12 0 9 3;
#X connect 13 0 9 4;
#X connect 14 0 9 5;
#X connect 22 0 10 0;
#X connect 22 0 7 0;
#X connect 22 0 11 0;
#X connect 22 0 14 0;
#X connect 22 0 12 0;
#X connect 22 0 0 0;
#X connect 24 0 8 0;
#X connect 24 1 8 0;
#X coords 0 1 100 -1 418 259 2 400 125;
