#N canvas 676 178 613 580 12;
#X obj 49 35 inlet~;
#X obj 49 511 outlet~;
#N canvas 243 43 499 411 preset 0;
#X msg 125 86 name \$1;
#X obj 90 171 else/receiver;
#X obj 123 220 route list;
#N canvas 596 76 491 352 id-name-init 0;
#X obj 165 113 + 1;
#X obj 257 100 else/dollsym 1;
#X obj 141 80 value;
#X obj 141 252 outlet;
#X obj 141 51 else/loadbanger 2;
#X obj 141 201 else/dollsym 1;
#X obj 257 76 symbol rev-id_\\\$0;
#X obj 141 166 makefilename \\\$0-rev-%d;
#X connect 0 0 2 0;
#X connect 1 0 2 1;
#X connect 2 0 0 0;
#X connect 2 0 7 0;
#X connect 4 0 2 0;
#X connect 4 1 6 0;
#X connect 5 0 3 0;
#X connect 6 0 1 0;
#X connect 7 0 5 0;
#X restore 90 39 pd id-name-init;
#X obj 123 257 else/dispatch \$0-set-pre \$0-set-damp \$0-set-cutoff \$0-set-size \$0-set-wet, f 37;
#X obj 90 311 else/var \$0-pre \$0-damp \$0-cutoff \$0-size \$0-wet;
#X obj 125 121 else/sender 1 \\\$0-presets;
#X connect 0 0 6 0;
#X connect 1 0 2 0;
#X connect 1 0 5 0;
#X connect 2 0 4 0;
#X connect 3 0 0 0;
#X connect 3 0 1 0;
#X restore 463 246 pd preset;
#N canvas 494 425 485 318 init-savestate 0;
#X obj 146 51 savestate;
#X obj 49 117 list;
#X obj 49 35 loadbang;
#X obj 95 117 route list;
#X obj 95 90 list trim;
#X obj 49 224 else/dispatch \$0-set-pre \$0-set-damp \$0-set-cutoff \$0-set-size \$0-set-wet \$0-set-GUI, f 37;
#X obj 206 83 else/var \$0-pre \$0-damp \$0-cutoff \$0-size \$0-wet \$0-GUI, f 34;
#X obj 49 173 else/default 50 0.5 0.25 0.75 0.5 1;
#X connect 0 0 4 0;
#X connect 0 1 6 0;
#X connect 1 0 7 0;
#X connect 2 0 1 0;
#X connect 3 0 1 1;
#X connect 4 0 3 0;
#X connect 6 0 0 0;
#X connect 7 0 5 0;
#X restore 405 213 pd init-savestate;
#N canvas 168 211 521 361 GUI 0;
#X obj 46 125 r \$0-clear;
#X msg 46 162 clear;
#X obj 46 206 s \$0-rev;
#N canvas 613 247 522 359 format 0;
#N canvas 270 246 508 557 <1 0;
#X obj 151 32 inlet;
#X obj 152 90 list fromsymbol;
#X obj 184 181 else/slice -1;
#X obj 272 209 == 48;
#X obj 152 220 else/router;
#X obj 152 152 t l l;
#X obj 226 247 else/slice -1;
#X obj 152 308 equal 48 46;
#X obj 152 118 t l l, f 27;
#X obj 313 381 list;
#X obj 152 277 t l l, f 13;
#X obj 215 381 list;
#X obj 215 417 list tosymbol;
#X obj 152 336 sel 0 1;
#X obj 215 471 outlet;
#X obj 152 62 else/format %.2f;
#X connect 0 0 15 0;
#X connect 1 0 8 0;
#X connect 2 1 3 0;
#X connect 3 0 4 1;
#X connect 4 0 10 0;
#X connect 4 1 6 0;
#X connect 5 0 4 0;
#X connect 5 1 2 0;
#X connect 6 0 5 0;
#X connect 7 0 13 0;
#X connect 8 0 5 0;
#X connect 8 1 9 1;
#X connect 9 0 12 0;
#X connect 10 0 7 0;
#X connect 10 1 11 1;
#X connect 11 0 12 0;
#X connect 12 0 14 0;
#X connect 13 0 11 0;
#X connect 13 1 9 0;
#X connect 15 0 1 0;
#X restore 104 162 pd <1;
#X obj 105 54 inlet;
#X obj 158 252 outlet;
#X obj 105 91 sel 0;
#X msg 105 117 0;
#X obj 158 162 else/format %.3g;
#X obj 152 90 else/spread 0 1;
#X connect 0 0 2 0;
#X connect 1 0 3 0;
#X connect 3 0 4 0;
#X connect 3 1 6 0;
#X connect 4 0 5 0;
#X connect 5 0 2 0;
#X connect 6 1 0 0;
#X connect 6 2 5 0;
#X restore 185 197 pd format;
#X obj 185 163 else/limit 100;
#X msg 314 163 color 0 0 \$1;
#X obj 314 131 * 175;
#X obj 327 104 loadbang;
#X msg 185 233 set \$1 ms;
#X msg 340 230 set \$1| ms;
#X obj 315 280 s \$0-pre-label;
#X obj 185 31 r \$0-rev;
#X obj 185 55 route pre;
#X obj 185 137 f;
#X obj 197 106 sel 0;
#N canvas 564 245 560 397 tab 0;
#X msg 95 66 active 0;
#X msg 75 126 active 1;
#X msg 255 64 active 0;
#X msg 235 124 active 1;
#X msg 316 252 active 0;
#X msg 296 312 active 1;
#X obj 297 223 r \$0-wet-tab;
#X obj 316 280 s \$0-set-wet;
#X msg 407 69 active 0;
#X msg 387 129 active 1;
#X msg 142 253 active 0;
#X msg 122 313 active 1;
#X obj 122 341 s \$0-set-wet;
#X obj 95 94 s \$0-set-pre;
#X obj 76 37 r \$0-pre-tab;
#X obj 75 154 s \$0-set-size;
#X obj 255 92 s \$0-set-size;
#X obj 236 35 r \$0-size-tab;
#X obj 235 152 s \$0-set-damp;
#X obj 407 97 s \$0-set-damp;
#X obj 388 40 r \$0-damp-tab;
#X obj 387 157 s \$0-set-cutoff;
#X obj 142 281 s \$0-set-cutoff;
#X obj 123 224 r \$0-cutoff-tab;
#X obj 296 340 s \$0-set-pre;
#X connect 0 0 13 0;
#X connect 1 0 15 0;
#X connect 2 0 16 0;
#X connect 3 0 18 0;
#X connect 4 0 7 0;
#X connect 5 0 24 0;
#X connect 6 0 4 0;
#X connect 6 0 5 0;
#X connect 8 0 19 0;
#X connect 9 0 21 0;
#X connect 10 0 22 0;
#X connect 11 0 12 0;
#X connect 14 0 0 0;
#X connect 14 0 1 0;
#X connect 17 0 2 0;
#X connect 17 0 3 0;
#X connect 20 0 8 0;
#X connect 20 0 9 0;
#X connect 23 0 10 0;
#X connect 23 0 11 0;
#X restore 53 255 pd tab;
#N canvas 130 123 861 544 collapse 0;
#X obj 28 155 r \$0-uncollapse;
#X obj 314 432 r \$0-detatch;
#X obj 232 158 else/canvas.setname \$0-m 2;
#X obj 314 314 r \$0-set-GUI;
#X obj 314 398 s \$0-uncollapse;
#X obj 337 371 s \$0-collapse;
#X obj 314 343 sel 1 0;
#X obj 28 21 r \$0-collapse;
#X obj 314 459 message \; pd-\$0-rev vis 1;
#X obj 28 189 else/message \; \$0-button readonly 0 \, transparent 2 \; pd-\$0-rev donecanvasdialog 1 1 1 0 0 1 1 150 250 15 15 \, vis 0 \; \$0-cnv color #bbbbbb #000000 #000000 \; \$0-m goprect 200 125 165 282 \, dirty 0 \; \$0-GUI 1, f 55;
#X obj 28 50 else/message \; \$0-button readonly 1 \, transparent 3 \; pd-\$0-rev donecanvasdialog 1 1 0 0 0 1 1 150 250 15 15 \; \$0-cnv color #dbdbdb #000000 #dbdbdb \; \$0-m goprect 200 425 138 44 \, dirty 0 \; \$0-GUI 0;
#X obj 510 78 r \$0-detatch-hover;
#X obj 585 444 s \$0-label-collapsed;
#X obj 562 310 sel 0 1;
#X obj 492 308 loadbang;
#X obj 530 107 else/canvas.edit 3;
#X obj 562 282 change;
#X obj 530 193 sel 1;
#X obj 510 220 f;
#X obj 530 166 t f f, f 10;
#X obj 530 136 == 0;
#X obj 510 246 spigot;
#X msg 560 392 label REVERB \, label_font 0 24 \, label_pos 5 15, f 30;
#X msg 585 343 label ⤢ \, label_font 0 48 \, label_pos 36 12, f 25;
#X connect 0 0 9 0;
#X connect 1 0 8 0;
#X connect 3 0 6 0;
#X connect 6 0 4 0;
#X connect 6 1 5 0;
#X connect 7 0 10 0;
#X connect 11 0 18 0;
#X connect 13 0 22 0;
#X connect 13 1 23 0;
#X connect 14 0 22 0;
#X connect 15 0 20 0;
#X connect 16 0 13 0;
#X connect 17 0 18 0;
#X connect 17 1 16 0;
#X connect 18 0 21 0;
#X connect 19 0 17 0;
#X connect 19 1 21 1;
#X connect 20 0 19 0;
#X connect 21 0 16 0;
#X connect 22 0 12 0;
#X connect 23 0 12 0;
#X restore 44 71 pd collapse;
#X obj 314 70 r \$0-pre-active;
#X obj 340 199 r \$0-pre-typing;
#X connect 0 0 1 0;
#X connect 1 0 2 0;
#X connect 3 0 8 0;
#X connect 4 0 3 0;
#X connect 5 0 10 0;
#X connect 6 0 5 0;
#X connect 7 0 6 0;
#X connect 8 0 10 0;
#X connect 9 0 10 0;
#X connect 11 0 12 0;
#X connect 12 0 13 0;
#X connect 13 0 4 0;
#X connect 14 0 13 0;
#X connect 17 0 6 0;
#X connect 17 0 14 0;
#X connect 18 0 9 0;
#X restore 403 246 pd GUI;
#X text 201 126 IN;
#X obj 151 513 outlet~;
#X obj 70 295 r \$0-rev;
#N canvas 286 281 416 385 route 0;
#X obj 70 26 inlet;
#X obj 110 308 s \$0-set-pre;
#X obj 121 281 s \$0-set-size;
#X obj 136 256 s \$0-set-clear;
#X obj 147 228 s \$0-set-damp;
#X obj 163 201 s \$0-set-cutoff;
#X obj 184 174 s \$0-set-wet;
#X obj 70 60 route pre size clear damp cutoff wet gui, f 20;
#X obj 192 132 s \$0-set-GUI;
#X obj 192 107 != 0;
#X connect 0 0 7 0;
#X connect 7 0 1 0;
#X connect 7 1 2 0;
#X connect 7 2 3 0;
#X connect 7 3 4 0;
#X connect 7 4 5 0;
#X connect 7 5 6 0;
#X connect 7 6 9 0;
#X connect 9 0 8 0;
#X restore 88 72 pd route;
#X obj 49 335 else/plate.rev~;
#X obj 210 433 cnv 19 95 29 empty \$0-label-collapsed REVERB 5 15 0 24 #bbbbbb #000000 0;
#X obj 209 432 else/button 97 31 #bbbbbb #bbbbbb 2 1 2 0 0 \$0-detatch \$0-uncollapse-set;
#X obj 313 433 cnv 10 17 15 empty empty ▲ 5 8 0 12 #bbbbbb #000000 0;
#X obj 313 447 cnv 10 17 15 empty empty ▼ 5 5 0 12 #bbbbbb #000000 0;
#X obj 312 432 else/button 19 31 #e0e0e0 #808080 2 1 2 0 0 \$0-uncollapse empty;
#N canvas 942 62 185 284 \$0-rev 0;
#N canvas 743 121 394 451 (subpatch) 0;
#X obj 112 112 cnv 15 148 248 empty empty empty 20 12 0 14 #dbdbdb #373737 0;
#X obj 134 267 else/knob 41 0 1 0 0 \$0-rev \$0-set-damp #dfdfdf #bbbbbb #000000 0 0 0 0 1 320 0 0 0 damp \$0-damp 4 10 0 46 0 0 0 0 0 0;
#X obj 133 177 else/knob 41 10 200 4 10 \$0-rev \$0-set-pre #dfdfdf #bbbbbb #000000 0 0 0 0 1 320 0 0 10 pre \$0-pre 0 8 0 0 0 0 0 0 0 0;
#X obj 209 308 else/knob 41 0 1 0 0.5 \$0-rev \$0-set-wet #9f9f9f #afafaf #000000 0 0 0 0 1 320 0 0 0 wet \$0-wet 4 10 0 46 0 0 0 0 0 0;
#X text 121 329 Clear;
#X text 138 247 Damp;
#X text 121 158 Pre delay;
#X obj 122 119 else/note 101 24 Inter empty 5 54 54 54 0 187 187 187 1 1 REVERB;
#X obj 123 225 else/note 65 12 Menlo \$0-pre-label 0 0 0 0 0 255 255 255 0 1 50 ms;
#X obj 162 326 else/button 23 23 #f0f0f0 #808080 2 1 0 1 0 0-clear \$0-set-clear;
#X obj 231 119 else/button 19 31 #e0e0e0 #808080 2 1 2 0 0 \$0-collapse \$0-button;
#X obj 232 120 cnv 10 17 15 empty \$0-cnv ▼ 5 8 0 12 #bbbbbb #000000 0;
#X obj 232 134 cnv 10 17 15 empty \$0-cnv ▲ 5 5 0 12 #bbbbbb #000000 0;
#X text 217 292 Wet;
#X obj 205 240 else/knob 41 0 1 0 0 \$0-rev \$0-set-size #dfdfdf #afafaf #000000 0 0 0 0 1 320 0 0 0 size \$0-size 4 10 0 46 0 0 0 0 0 0;
#X text 210 224 Size;
#X obj 205 172 else/knob 41 0 1 0 0 \$0-rev \$0-set-cutoff #dfdfdf #afafaf #000000 0 0 0 0 1 320 0 0 0 cutoff \$0-cutoff 4 10 0 46 0 0 0 0 0 0;
#X text 202 156 Cutoff;
#X coords 0 1 100 -1 150 250 1 111 111;
#X restore 15 15 graph;
#X coords 0 0 1 1 150 250 1 15 15;
#X restore 207 148 pd \$0-rev;
#N canvas 476 254 224 240 Learn 0;
#N canvas 357 34 761 758 pre 0;
#X msg 173 469 forget;
#X obj 40 532 else/midi.learn 1;
#A saved;
#X obj 40 600 t f b;
#X obj 40 112 else/format \$0-%s-learn, f 11;
#X obj 40 162 else/receiver;
#X obj 173 195 else/receiver;
#X msg 90 259 Learn for \$1 knob activated, f 9;
#X obj 90 207 symbol;
#X obj 205 345 symbol;
#X msg 205 378 Forget for \$1 knob;
#X obj 473 721 else/format \$0-set-%s;
#X obj 187 405 print [adsr.m~]:;
#X msg 442 311 learn;
#X msg 467 348 forget;
#X obj 432 403 else/receiver 1;
#X obj 564 401 else/route2 none;
#X msg 564 448 none;
#X obj 173 166 else/format \$0-%s-forget;
#X obj 189 121 else/sender -local sym;
#X obj 260 339 else/receiver -local sym, f 13;
#X obj 473 694 else/receiver -local sym;
#N canvas 268 234 610 478 savestate 0;
#X obj 235 409 outlet;
#X obj 101 283 route bang;
#X obj 339 213 else/format rcv-%s;
#X obj 101 255 route x, f 9;
#X obj 101 224 list trim;
#X obj 168 317 route none;
#X obj 235 359 symbol;
#X obj 239 215 list;
#X obj 264 159 list prepend, f 7;
#X obj 101 164 savestate;
#X obj 263 41 inlet;
#X obj 342 41 inlet;
#X obj 367 135 print [receiver] learn:;
#X obj 367 104 list trim;
#X connect 1 1 5 0;
#X connect 1 1 8 0;
#X connect 2 0 3 1;
#X connect 2 0 8 1;
#X connect 3 0 1 0;
#X connect 4 0 3 0;
#X connect 5 1 6 0;
#X connect 6 0 0 0;
#X connect 7 0 9 0;
#X connect 8 0 7 1;
#X connect 9 0 4 0;
#X connect 9 1 7 0;
#X connect 10 0 8 0;
#X connect 10 0 13 0;
#X connect 11 0 2 0;
#X connect 13 0 12 0;
#X restore 564 495 pd savestate;
#X obj 645 454 else/receiver -local sym, f 13;
#N canvas 251 108 631 527 savestate 0;
#X obj 168 340 outlet;
#X obj 101 261 route bang;
#X obj 101 233 route x, f 9;
#X obj 101 202 list trim;
#X obj 239 193 list;
#X obj 264 137 list prepend, f 7;
#X obj 101 142 savestate;
#X obj 263 79 inlet;
#X obj 342 96 inlet;
#X obj 339 191 else/format %s-learn;
#X obj 168 295 else/insert teach;
#X connect 1 1 5 0;
#X connect 1 1 10 0;
#X connect 2 0 1 0;
#X connect 3 0 2 0;
#X connect 4 0 6 0;
#X connect 5 0 4 1;
#X connect 6 0 3 0;
#X connect 6 1 4 0;
#X connect 7 0 5 0;
#X connect 8 0 9 0;
#X connect 9 0 2 1;
#X connect 9 0 5 1;
#X connect 10 0 0 0;
#X restore 156 579 pd savestate;
#X obj 237 550 else/receiver -local sym;
#X obj 173 22 else/loadbanger -init;
#X obj 433 706 s;
#X msg 40 453 learn;
#X obj 40 200 t b b;
#X obj 173 277 t b b;
#X obj 40 506 else/changed;
#X obj 442 375 else/changed;
#X obj 72 398 send \$0-deactivate, f 13;
#X msg 72 370 deactivate;
#X obj 187 433 r \$0-deactivate;
#X obj 431 266 r \$0-deactivate;
#X obj 173 55 symbol pre;
#X obj 433 659 else/rescale -exp 4 10 200;
#X connect 0 0 30 0;
#X connect 1 0 2 0;
#X connect 1 1 23 0;
#X connect 2 0 37 0;
#X connect 2 1 13 0;
#X connect 3 0 4 0;
#X connect 4 0 28 0;
#X connect 5 0 29 0;
#X connect 6 0 11 0;
#X connect 7 0 6 0;
#X connect 8 0 9 0;
#X connect 9 0 11 0;
#X connect 10 0 26 1;
#X connect 12 0 31 0;
#X connect 13 0 31 0;
#X connect 14 0 37 0;
#X connect 14 1 15 0;
#X connect 15 0 16 0;
#X connect 15 1 21 0;
#X connect 15 1 0 0;
#X connect 16 0 21 0;
#X connect 17 0 5 0;
#X connect 19 0 8 1;
#X connect 20 0 10 0;
#X connect 21 0 14 0;
#X connect 22 0 21 1;
#X connect 23 0 1 0;
#X connect 24 0 23 1;
#X connect 25 0 36 0;
#X connect 27 0 30 0;
#X connect 28 0 27 0;
#X connect 28 0 12 0;
#X connect 28 1 7 0;
#X connect 28 1 33 0;
#X connect 29 0 0 0;
#X connect 29 0 13 0;
#X connect 29 1 8 0;
#X connect 30 0 1 0;
#X connect 31 0 14 0;
#X connect 33 0 32 0;
#X connect 34 0 30 0;
#X connect 35 0 14 0;
#X connect 36 0 3 0;
#X connect 36 0 17 0;
#X connect 36 0 18 0;
#X connect 36 0 7 1;
#X connect 37 0 26 0;
#X restore 85 48 pd pre;
#N canvas 357 34 761 758 size 0;
#X msg 173 469 forget;
#X obj 40 532 else/midi.learn 1;
#A saved;
#X obj 40 600 t f b;
#X obj 40 112 else/format \$0-%s-learn, f 11;
#X obj 40 162 else/receiver;
#X obj 173 195 else/receiver;
#X msg 90 259 Learn for \$1 knob activated, f 9;
#X obj 90 207 symbol;
#X obj 205 345 symbol;
#X msg 205 378 Forget for \$1 knob;
#X obj 473 721 else/format \$0-set-%s;
#X obj 187 405 print [adsr.m~]:;
#X msg 442 311 learn;
#X msg 467 348 forget;
#X obj 432 403 else/receiver 1;
#X obj 564 401 else/route2 none;
#X msg 564 448 none;
#X obj 173 166 else/format \$0-%s-forget;
#X obj 189 121 else/sender -local sym;
#X obj 260 339 else/receiver -local sym, f 13;
#X obj 473 694 else/receiver -local sym;
#N canvas 268 234 610 478 savestate 0;
#X obj 235 409 outlet;
#X obj 101 283 route bang;
#X obj 339 213 else/format rcv-%s;
#X obj 101 255 route x, f 9;
#X obj 101 224 list trim;
#X obj 168 317 route none;
#X obj 235 359 symbol;
#X obj 239 215 list;
#X obj 264 159 list prepend, f 7;
#X obj 101 164 savestate;
#X obj 263 41 inlet;
#X obj 342 41 inlet;
#X obj 367 135 print [receiver] learn:;
#X obj 367 104 list trim;
#X connect 1 1 5 0;
#X connect 1 1 8 0;
#X connect 2 0 3 1;
#X connect 2 0 8 1;
#X connect 3 0 1 0;
#X connect 4 0 3 0;
#X connect 5 1 6 0;
#X connect 6 0 0 0;
#X connect 7 0 9 0;
#X connect 8 0 7 1;
#X connect 9 0 4 0;
#X connect 9 1 7 0;
#X connect 10 0 8 0;
#X connect 10 0 13 0;
#X connect 11 0 2 0;
#X connect 13 0 12 0;
#X restore 564 495 pd savestate;
#X obj 645 454 else/receiver -local sym, f 13;
#N canvas 251 108 631 527 savestate 0;
#X obj 168 340 outlet;
#X obj 101 261 route bang;
#X obj 101 233 route x, f 9;
#X obj 101 202 list trim;
#X obj 239 193 list;
#X obj 264 137 list prepend, f 7;
#X obj 101 142 savestate;
#X obj 263 79 inlet;
#X obj 342 96 inlet;
#X obj 339 191 else/format %s-learn;
#X obj 168 295 else/insert teach;
#X connect 1 1 5 0;
#X connect 1 1 10 0;
#X connect 2 0 1 0;
#X connect 3 0 2 0;
#X connect 4 0 6 0;
#X connect 5 0 4 1;
#X connect 6 0 3 0;
#X connect 6 1 4 0;
#X connect 7 0 5 0;
#X connect 8 0 9 0;
#X connect 9 0 2 1;
#X connect 9 0 5 1;
#X connect 10 0 0 0;
#X restore 156 579 pd savestate;
#X obj 237 550 else/receiver -local sym;
#X obj 173 22 else/loadbanger -init;
#X obj 433 706 s;
#X msg 40 453 learn;
#X obj 40 200 t b b;
#X obj 173 277 t b b;
#X obj 40 506 else/changed;
#X obj 442 375 else/changed;
#X obj 72 398 send \$0-deactivate, f 13;
#X msg 72 370 deactivate;
#X obj 187 433 r \$0-deactivate;
#X obj 431 266 r \$0-deactivate;
#X obj 173 55 symbol size;
#X obj 433 659 else/rescale 0 1;
#X connect 0 0 30 0;
#X connect 1 0 2 0;
#X connect 1 1 23 0;
#X connect 2 0 37 0;
#X connect 2 1 13 0;
#X connect 3 0 4 0;
#X connect 4 0 28 0;
#X connect 5 0 29 0;
#X connect 6 0 11 0;
#X connect 7 0 6 0;
#X connect 8 0 9 0;
#X connect 9 0 11 0;
#X connect 10 0 26 1;
#X connect 12 0 31 0;
#X connect 13 0 31 0;
#X connect 14 0 37 0;
#X connect 14 1 15 0;
#X connect 15 0 16 0;
#X connect 15 1 21 0;
#X connect 15 1 0 0;
#X connect 16 0 21 0;
#X connect 17 0 5 0;
#X connect 19 0 8 1;
#X connect 20 0 10 0;
#X connect 21 0 14 0;
#X connect 22 0 21 1;
#X connect 23 0 1 0;
#X connect 24 0 23 1;
#X connect 25 0 36 0;
#X connect 27 0 30 0;
#X connect 28 0 27 0;
#X connect 28 0 12 0;
#X connect 28 1 7 0;
#X connect 28 1 33 0;
#X connect 29 0 0 0;
#X connect 29 0 13 0;
#X connect 29 1 8 0;
#X connect 30 0 1 0;
#X connect 31 0 14 0;
#X connect 33 0 32 0;
#X connect 34 0 30 0;
#X connect 35 0 14 0;
#X connect 36 0 3 0;
#X connect 36 0 17 0;
#X connect 36 0 18 0;
#X connect 36 0 7 1;
#X connect 37 0 26 0;
#X restore 85 73 pd size;
#N canvas 357 34 761 758 cutoff 0;
#X msg 173 469 forget;
#X obj 40 532 else/midi.learn 1;
#A saved;
#X obj 40 600 t f b;
#X obj 40 112 else/format \$0-%s-learn, f 11;
#X obj 40 162 else/receiver;
#X obj 173 195 else/receiver;
#X msg 90 259 Learn for \$1 knob activated, f 9;
#X obj 90 207 symbol;
#X obj 205 345 symbol;
#X msg 205 378 Forget for \$1 knob;
#X obj 473 721 else/format \$0-set-%s;
#X obj 187 405 print [adsr.m~]:;
#X msg 442 311 learn;
#X msg 467 348 forget;
#X obj 432 403 else/receiver 1;
#X obj 564 401 else/route2 none;
#X msg 564 448 none;
#X obj 173 166 else/format \$0-%s-forget;
#X obj 189 121 else/sender -local sym;
#X obj 260 339 else/receiver -local sym, f 13;
#X obj 473 694 else/receiver -local sym;
#N canvas 268 234 610 478 savestate 0;
#X obj 235 409 outlet;
#X obj 101 283 route bang;
#X obj 339 213 else/format rcv-%s;
#X obj 101 255 route x, f 9;
#X obj 101 224 list trim;
#X obj 168 317 route none;
#X obj 235 359 symbol;
#X obj 239 215 list;
#X obj 264 159 list prepend, f 7;
#X obj 101 164 savestate;
#X obj 263 41 inlet;
#X obj 342 41 inlet;
#X obj 367 135 print [receiver] learn:;
#X obj 367 104 list trim;
#X connect 1 1 5 0;
#X connect 1 1 8 0;
#X connect 2 0 3 1;
#X connect 2 0 8 1;
#X connect 3 0 1 0;
#X connect 4 0 3 0;
#X connect 5 1 6 0;
#X connect 6 0 0 0;
#X connect 7 0 9 0;
#X connect 8 0 7 1;
#X connect 9 0 4 0;
#X connect 9 1 7 0;
#X connect 10 0 8 0;
#X connect 10 0 13 0;
#X connect 11 0 2 0;
#X connect 13 0 12 0;
#X restore 564 495 pd savestate;
#X obj 645 454 else/receiver -local sym, f 13;
#N canvas 251 108 631 527 savestate 0;
#X obj 168 340 outlet;
#X obj 101 261 route bang;
#X obj 101 233 route x, f 9;
#X obj 101 202 list trim;
#X obj 239 193 list;
#X obj 264 137 list prepend, f 7;
#X obj 101 142 savestate;
#X obj 263 79 inlet;
#X obj 342 96 inlet;
#X obj 339 191 else/format %s-learn;
#X obj 168 295 else/insert teach;
#X connect 1 1 5 0;
#X connect 1 1 10 0;
#X connect 2 0 1 0;
#X connect 3 0 2 0;
#X connect 4 0 6 0;
#X connect 5 0 4 1;
#X connect 6 0 3 0;
#X connect 6 1 4 0;
#X connect 7 0 5 0;
#X connect 8 0 9 0;
#X connect 9 0 2 1;
#X connect 9 0 5 1;
#X connect 10 0 0 0;
#X restore 156 579 pd savestate;
#X obj 237 550 else/receiver -local sym;
#X obj 173 22 else/loadbanger -init;
#X obj 433 706 s;
#X msg 40 453 learn;
#X obj 40 200 t b b;
#X obj 173 277 t b b;
#X obj 40 506 else/changed;
#X obj 442 375 else/changed;
#X obj 72 398 send \$0-deactivate, f 13;
#X msg 72 370 deactivate;
#X obj 187 433 r \$0-deactivate;
#X obj 431 266 r \$0-deactivate;
#X obj 433 659 else/rescale 0 1;
#X obj 173 55 symbol cutoff;
#X connect 0 0 30 0;
#X connect 1 0 2 0;
#X connect 1 1 23 0;
#X connect 2 0 36 0;
#X connect 2 1 13 0;
#X connect 3 0 4 0;
#X connect 4 0 28 0;
#X connect 5 0 29 0;
#X connect 6 0 11 0;
#X connect 7 0 6 0;
#X connect 8 0 9 0;
#X connect 9 0 11 0;
#X connect 10 0 26 1;
#X connect 12 0 31 0;
#X connect 13 0 31 0;
#X connect 14 0 36 0;
#X connect 14 1 15 0;
#X connect 15 0 16 0;
#X connect 15 1 21 0;
#X connect 15 1 0 0;
#X connect 16 0 21 0;
#X connect 17 0 5 0;
#X connect 19 0 8 1;
#X connect 20 0 10 0;
#X connect 21 0 14 0;
#X connect 22 0 21 1;
#X connect 23 0 1 0;
#X connect 24 0 23 1;
#X connect 25 0 37 0;
#X connect 27 0 30 0;
#X connect 28 0 27 0;
#X connect 28 0 12 0;
#X connect 28 1 7 0;
#X connect 28 1 33 0;
#X connect 29 0 0 0;
#X connect 29 0 13 0;
#X connect 29 1 8 0;
#X connect 30 0 1 0;
#X connect 31 0 14 0;
#X connect 33 0 32 0;
#X connect 34 0 30 0;
#X connect 35 0 14 0;
#X connect 36 0 26 0;
#X connect 37 0 3 0;
#X connect 37 0 17 0;
#X connect 37 0 18 0;
#X connect 37 0 7 1;
#X restore 85 99 pd cutoff;
#N canvas 357 34 761 758 damp 0;
#X msg 173 469 forget;
#X obj 40 532 else/midi.learn 1;
#A saved;
#X obj 40 600 t f b;
#X obj 40 112 else/format \$0-%s-learn, f 11;
#X obj 40 162 else/receiver;
#X obj 173 195 else/receiver;
#X msg 90 259 Learn for \$1 knob activated, f 9;
#X obj 90 207 symbol;
#X obj 205 345 symbol;
#X msg 205 378 Forget for \$1 knob;
#X obj 473 721 else/format \$0-set-%s;
#X obj 187 405 print [adsr.m~]:;
#X msg 442 311 learn;
#X msg 467 348 forget;
#X obj 432 403 else/receiver 1;
#X obj 564 401 else/route2 none;
#X msg 564 448 none;
#X obj 173 166 else/format \$0-%s-forget;
#X obj 189 121 else/sender -local sym;
#X obj 260 339 else/receiver -local sym, f 13;
#X obj 473 694 else/receiver -local sym;
#N canvas 268 234 610 478 savestate 0;
#X obj 235 409 outlet;
#X obj 101 283 route bang;
#X obj 339 213 else/format rcv-%s;
#X obj 101 255 route x, f 9;
#X obj 101 224 list trim;
#X obj 168 317 route none;
#X obj 235 359 symbol;
#X obj 239 215 list;
#X obj 264 159 list prepend, f 7;
#X obj 101 164 savestate;
#X obj 263 41 inlet;
#X obj 342 41 inlet;
#X obj 367 135 print [receiver] learn:;
#X obj 367 104 list trim;
#X connect 1 1 5 0;
#X connect 1 1 8 0;
#X connect 2 0 3 1;
#X connect 2 0 8 1;
#X connect 3 0 1 0;
#X connect 4 0 3 0;
#X connect 5 1 6 0;
#X connect 6 0 0 0;
#X connect 7 0 9 0;
#X connect 8 0 7 1;
#X connect 9 0 4 0;
#X connect 9 1 7 0;
#X connect 10 0 8 0;
#X connect 10 0 13 0;
#X connect 11 0 2 0;
#X connect 13 0 12 0;
#X restore 564 495 pd savestate;
#X obj 645 454 else/receiver -local sym, f 13;
#N canvas 251 108 631 527 savestate 0;
#X obj 168 340 outlet;
#X obj 101 261 route bang;
#X obj 101 233 route x, f 9;
#X obj 101 202 list trim;
#X obj 239 193 list;
#X obj 264 137 list prepend, f 7;
#X obj 101 142 savestate;
#X obj 263 79 inlet;
#X obj 342 96 inlet;
#X obj 339 191 else/format %s-learn;
#X obj 168 295 else/insert teach;
#X connect 1 1 5 0;
#X connect 1 1 10 0;
#X connect 2 0 1 0;
#X connect 3 0 2 0;
#X connect 4 0 6 0;
#X connect 5 0 4 1;
#X connect 6 0 3 0;
#X connect 6 1 4 0;
#X connect 7 0 5 0;
#X connect 8 0 9 0;
#X connect 9 0 2 1;
#X connect 9 0 5 1;
#X connect 10 0 0 0;
#X restore 156 579 pd savestate;
#X obj 237 550 else/receiver -local sym;
#X obj 173 22 else/loadbanger -init;
#X obj 433 706 s;
#X msg 40 453 learn;
#X obj 40 200 t b b;
#X obj 173 277 t b b;
#X obj 40 506 else/changed;
#X obj 442 375 else/changed;
#X obj 72 398 send \$0-deactivate, f 13;
#X msg 72 370 deactivate;
#X obj 187 433 r \$0-deactivate;
#X obj 431 266 r \$0-deactivate;
#X obj 433 659 else/rescale 0 1;
#X obj 173 55 symbol damp;
#X connect 0 0 30 0;
#X connect 1 0 2 0;
#X connect 1 1 23 0;
#X connect 2 0 36 0;
#X connect 2 1 13 0;
#X connect 3 0 4 0;
#X connect 4 0 28 0;
#X connect 5 0 29 0;
#X connect 6 0 11 0;
#X connect 7 0 6 0;
#X connect 8 0 9 0;
#X connect 9 0 11 0;
#X connect 10 0 26 1;
#X connect 12 0 31 0;
#X connect 13 0 31 0;
#X connect 14 0 36 0;
#X connect 14 1 15 0;
#X connect 15 0 16 0;
#X connect 15 1 21 0;
#X connect 15 1 0 0;
#X connect 16 0 21 0;
#X connect 17 0 5 0;
#X connect 19 0 8 1;
#X connect 20 0 10 0;
#X connect 21 0 14 0;
#X connect 22 0 21 1;
#X connect 23 0 1 0;
#X connect 24 0 23 1;
#X connect 25 0 37 0;
#X connect 27 0 30 0;
#X connect 28 0 27 0;
#X connect 28 0 12 0;
#X connect 28 1 7 0;
#X connect 28 1 33 0;
#X connect 29 0 0 0;
#X connect 29 0 13 0;
#X connect 29 1 8 0;
#X connect 30 0 1 0;
#X connect 31 0 14 0;
#X connect 33 0 32 0;
#X connect 34 0 30 0;
#X connect 35 0 14 0;
#X connect 36 0 26 0;
#X connect 37 0 3 0;
#X connect 37 0 17 0;
#X connect 37 0 18 0;
#X connect 37 0 7 1;
#X restore 85 125 pd damp;
#N canvas 357 34 761 758 wet 0;
#X msg 173 469 forget;
#X obj 40 532 else/midi.learn 1;
#A saved;
#X obj 40 600 t f b;
#X obj 40 112 else/format \$0-%s-learn, f 11;
#X obj 40 162 else/receiver;
#X obj 173 195 else/receiver;
#X msg 90 259 Learn for \$1 knob activated, f 9;
#X obj 90 207 symbol;
#X obj 205 345 symbol;
#X msg 205 378 Forget for \$1 knob;
#X obj 473 721 else/format \$0-set-%s;
#X obj 187 405 print [adsr.m~]:;
#X msg 442 311 learn;
#X msg 467 348 forget;
#X obj 432 403 else/receiver 1;
#X obj 564 401 else/route2 none;
#X msg 564 448 none;
#X obj 173 166 else/format \$0-%s-forget;
#X obj 189 121 else/sender -local sym;
#X obj 260 339 else/receiver -local sym, f 13;
#X obj 473 694 else/receiver -local sym;
#N canvas 268 234 610 478 savestate 0;
#X obj 235 409 outlet;
#X obj 101 283 route bang;
#X obj 339 213 else/format rcv-%s;
#X obj 101 255 route x, f 9;
#X obj 101 224 list trim;
#X obj 168 317 route none;
#X obj 235 359 symbol;
#X obj 239 215 list;
#X obj 264 159 list prepend, f 7;
#X obj 101 164 savestate;
#X obj 263 41 inlet;
#X obj 342 41 inlet;
#X obj 367 135 print [receiver] learn:;
#X obj 367 104 list trim;
#X connect 1 1 5 0;
#X connect 1 1 8 0;
#X connect 2 0 3 1;
#X connect 2 0 8 1;
#X connect 3 0 1 0;
#X connect 4 0 3 0;
#X connect 5 1 6 0;
#X connect 6 0 0 0;
#X connect 7 0 9 0;
#X connect 8 0 7 1;
#X connect 9 0 4 0;
#X connect 9 1 7 0;
#X connect 10 0 8 0;
#X connect 10 0 13 0;
#X connect 11 0 2 0;
#X connect 13 0 12 0;
#X restore 564 495 pd savestate;
#X obj 645 454 else/receiver -local sym, f 13;
#N canvas 251 108 631 527 savestate 0;
#X obj 168 340 outlet;
#X obj 101 261 route bang;
#X obj 101 233 route x, f 9;
#X obj 101 202 list trim;
#X obj 239 193 list;
#X obj 264 137 list prepend, f 7;
#X obj 101 142 savestate;
#X obj 263 79 inlet;
#X obj 342 96 inlet;
#X obj 339 191 else/format %s-learn;
#X obj 168 295 else/insert teach;
#X connect 1 1 5 0;
#X connect 1 1 10 0;
#X connect 2 0 1 0;
#X connect 3 0 2 0;
#X connect 4 0 6 0;
#X connect 5 0 4 1;
#X connect 6 0 3 0;
#X connect 6 1 4 0;
#X connect 7 0 5 0;
#X connect 8 0 9 0;
#X connect 9 0 2 1;
#X connect 9 0 5 1;
#X connect 10 0 0 0;
#X restore 156 579 pd savestate;
#X obj 237 550 else/receiver -local sym;
#X obj 173 22 else/loadbanger -init;
#X obj 433 706 s;
#X msg 40 453 learn;
#X obj 40 200 t b b;
#X obj 173 277 t b b;
#X obj 40 506 else/changed;
#X obj 442 375 else/changed;
#X obj 72 398 send \$0-deactivate, f 13;
#X msg 72 370 deactivate;
#X obj 187 433 r \$0-deactivate;
#X obj 431 266 r \$0-deactivate;
#X obj 433 659 else/rescale 0 1;
#X obj 173 55 symbol wet;
#X connect 0 0 30 0;
#X connect 1 0 2 0;
#X connect 1 1 23 0;
#X connect 2 0 36 0;
#X connect 2 1 13 0;
#X connect 3 0 4 0;
#X connect 4 0 28 0;
#X connect 5 0 29 0;
#X connect 6 0 11 0;
#X connect 7 0 6 0;
#X connect 8 0 9 0;
#X connect 9 0 11 0;
#X connect 10 0 26 1;
#X connect 12 0 31 0;
#X connect 13 0 31 0;
#X connect 14 0 36 0;
#X connect 14 1 15 0;
#X connect 15 0 16 0;
#X connect 15 1 21 0;
#X connect 15 1 0 0;
#X connect 16 0 21 0;
#X connect 17 0 5 0;
#X connect 19 0 8 1;
#X connect 20 0 10 0;
#X connect 21 0 14 0;
#X connect 22 0 21 1;
#X connect 23 0 1 0;
#X connect 24 0 23 1;
#X connect 25 0 37 0;
#X connect 27 0 30 0;
#X connect 28 0 27 0;
#X connect 28 0 12 0;
#X connect 28 1 7 0;
#X connect 28 1 33 0;
#X connect 29 0 0 0;
#X connect 29 0 13 0;
#X connect 29 1 8 0;
#X connect 30 0 1 0;
#X connect 31 0 14 0;
#X connect 33 0 32 0;
#X connect 34 0 30 0;
#X connect 35 0 14 0;
#X connect 36 0 26 0;
#X connect 37 0 3 0;
#X connect 37 0 17 0;
#X connect 37 0 18 0;
#X connect 37 0 7 1;
#X restore 85 151 pd wet;
#X restore 433 278 pd Learn;
#X connect 0 0 9 0;
#X connect 0 1 8 0;
#X connect 7 0 9 0;
#X connect 9 0 1 0;
#X connect 9 1 6 0;
#X coords 0 1 100 -1 165 282 2 200 125;
