#N canvas 352 168 790 376 12;
#X obj 261 106 inlet~;
#X obj 301 291 outlet~;
#X obj 366 106 inlet~;
#N canvas 328 234 944 434 GUI 0;
#X obj 529 122 else/limit 100;
#X msg 673 142 color 0 0 \$1;
#X obj 673 110 * 175;
#X obj 686 83 loadbang;
#X obj 509 89 r \$0-decay;
#X obj 673 49 r \$0-decay-active;
#X obj 699 178 r \$0-decay-typing;
#X obj 674 259 s \$0-decay-label;
#X obj 509 310 else/rescale -rlog -in 100 10000 -1 1;
#X obj 509 340 s \$0-decay-sig;
#X msg 699 209 set \$1| ms;
#X msg 529 194 set \$1 ms;
#X obj 124 124 else/limit 100;
#X msg 268 144 color 0 0 \$1;
#X obj 268 112 * 175;
#X obj 281 85 loadbang;
#X obj 104 91 r \$0-cutoff;
#X obj 268 51 r \$0-cutoff-active;
#X msg 124 196 set \$1 hz;
#X msg 294 211 set \$1| hz;
#X obj 104 342 s \$0-cutoff-sig;
#X obj 104 312 else/rescale -rlog -in 500 15000 -1 1;
#X obj 294 180 r \$0-cutoff-typing;
#X obj 269 261 s \$0-cutoff-label;
#X obj 529 158 else/rint;
#X obj 124 160 else/rint;
#X connect 0 0 24 0;
#X connect 1 0 7 0;
#X connect 2 0 1 0;
#X connect 3 0 2 0;
#X connect 4 0 0 0;
#X connect 4 0 8 0;
#X connect 5 0 2 0;
#X connect 6 0 10 0;
#X connect 8 0 9 0;
#X connect 10 0 7 0;
#X connect 11 0 7 0;
#X connect 12 0 25 0;
#X connect 13 0 23 0;
#X connect 14 0 13 0;
#X connect 15 0 14 0;
#X connect 16 0 12 0;
#X connect 16 0 21 0;
#X connect 17 0 14 0;
#X connect 18 0 23 0;
#X connect 19 0 23 0;
#X connect 21 0 20 0;
#X connect 22 0 19 0;
#X connect 24 0 11 0;
#X connect 25 0 18 0;
#X restore 620 224 pd GUI;
#N canvas 700 296 341 364 (subpatch) 0;
#X obj 51 51 cnv 19 145 251 empty empty empty 20 12 0 12 #e0e0e0 #404040 0;
#X obj 144 195 else/knob 35 -1 1 0 0 \$0-att-cut \$0-set-att-cut #bbbbbb #7c7c7c black 0 0 0 0 1 320 0 0 0 empty empty 0 8 0 0 0 0 0 0;
#X obj 71 195 else/knob 35 -1 1 0 0 \$0-att-decay \$0-set-att-decay #bbbbbb #7c7c7c black 0 0 0 0 1 320 0 0 0 empty empty 0 8 0 0 0 0 0 0;
#X floatatom 155 261 3 1 32 0 - \$0-set-n-voices \$0-n-voices 16;
#X obj 70 60 else/note 101 24 Inter empty 5 54 54 54 0 187 187 187 1 1 PLUCK;
#X obj 56 172 else/note 63 12 Menlo \$0-decay-label 0 0 0 0 0 255 255 255 0 1 3631 ms;
#X obj 63 117 else/knob 50 100 10000 1 100 \$0-decay \$0-set-decay #dfdfdf #7c7c7c black 0 0 0 0 1 320 0 0 100 empty empty 0 8 0 0 0 0 0 0;
#X text 66 96 Decay;
#X obj 134 117 else/knob 50 500 15000 1 500 \$0-cutoff \$0-set-cutoff #dfdfdf #7c7c7c black 0 0 0 0 1 320 0 0 500 empty empty 0 8 0 0 0 0 0 0;
#X text 135 96 Cutoff;
#X obj 129 172 else/note 63 12 Menlo \$0-cutoff-label 0 0 0 0 0 255 255 255 0 1 7098 hz;
#X text 76 233 Attenuverters;
#X text 56 263 # MIDI Voices;
#X coords 0 1 100 -1 147 253 1 50 50;
#X restore 59 72 graph;
#N canvas 241 41 587 463 preset 0;
#X obj 121 133 else/sender 1 \\\$0-presets;
#X msg 121 98 name \$1;
#X obj 98 182 else/receiver;
#X obj 123 222 route list;
#N canvas 596 76 470 347 id-name-init 0;
#X obj 165 113 + 1;
#X obj 257 100 else/dollsym 1;
#X obj 141 80 value;
#X obj 141 252 outlet;
#X obj 141 51 else/loadbanger 2;
#X obj 141 201 else/dollsym 1;
#X obj 257 76 symbol pluck-id_\\\$0;
#X obj 141 166 makefilename \\\$0-pluck-%d;
#X connect 0 0 2 0;
#X connect 1 0 2 1;
#X connect 2 0 0 0;
#X connect 2 0 7 0;
#X connect 4 0 2 0;
#X connect 4 1 6 0;
#X connect 5 0 3 0;
#X connect 6 0 1 0;
#X connect 7 0 5 0;
#X restore 97 46 pd id-name-init;
#X obj 98 331 else/var \$0-decay \$0-cutoff \$0-att-decay \$0-att-cut \$0-n-voices, f 35;
#X obj 123 258 else/dispatch \$0-set-decay \$0-set-cutoff \$0-set-att-decay \$0-set-att-cut \$0-set-n-voices, f 48;
#X connect 1 0 0 0;
#X connect 2 0 3 0;
#X connect 2 0 5 0;
#X connect 3 0 6 0;
#X connect 4 0 1 0;
#X connect 4 0 2 0;
#X restore 676 224 pd preset;
#N canvas 625 162 596 364 init-savestate 0;
#X obj 190 95 savestate;
#X obj 85 67 loadbang;
#X obj 85 165 list;
#X obj 143 131 list trim;
#X obj 142 155 route list;
#X obj 85 250 else/dispatch \$0-set-decay \$0-set-cutoff \$0-set-att-decay \$0-set-att-cut \$0-set-n-voices, f 48;
#X obj 250 131 else/var \$0-decay \$0-cutoff \$0-att-decay \$0-att-cut \$0-n-voices, f 36;
#X obj 85 205 else/default 1000 2750 0 0 1;
#X connect 0 0 3 0;
#X connect 0 1 6 0;
#X connect 1 0 2 0;
#X connect 2 0 7 0;
#X connect 3 0 4 0;
#X connect 4 0 2 1;
#X connect 6 0 0 0;
#X connect 7 0 5 0;
#X restore 620 195 pd init-savestate;
#X text 363 85 Trigger;
#N canvas 357 43 861 666 set 0;
#X obj 314 36 inlet~;
#X obj 376 600 outlet;
#X obj 376 36 inlet;
#N canvas 416 72 454 608 list 0;
#X obj 86 245 else/router;
#X obj 197 299 else/mono;
#X obj 197 333 pack;
#X obj 197 367 list prepend 0;
#X obj 185 71 r \$0-n-voices;
#X obj 185 119 int;
#X obj 274 204 s \$0-set-n-voices;
#X msg 274 177 set \$1;
#X obj 86 59 inlet;
#X obj 207 198 s \$0-n;
#X obj 132 182 == 1;
#X obj 66 309 else/voices 1 1;
#X obj 197 514 outlet;
#X obj 232 421 r \$0-midi-mode;
#X msg 232 455 all midi_active \$1;
#X obj 185 95 clip 1 32;
#X msg 185 250 n \$1;
#X connect 0 0 11 0;
#X connect 0 1 1 0;
#X connect 1 0 2 0;
#X connect 1 1 2 1;
#X connect 2 0 3 0;
#X connect 3 0 12 0;
#X connect 4 0 15 0;
#X connect 5 0 7 0;
#X connect 5 0 9 0;
#X connect 5 0 10 0;
#X connect 5 0 16 0;
#X connect 7 0 6 0;
#X connect 8 0 0 0;
#X connect 10 0 0 1;
#X connect 11 0 12 0;
#X connect 13 0 14 0;
#X connect 14 0 12 0;
#X connect 15 0 5 0;
#X connect 16 0 11 0;
#X restore 376 497 pd list;
#X obj 516 223 s \$0-set-decay;
#X obj 506 247 s \$0-set-cutoff;
#X obj 534 200 s \$0-att-cut-set;
#X obj 542 175 s \$0-att-decay-set;
#X obj 104 412 t b f, f 33;
#X obj 104 361 change 0;
#X obj 104 226 else/nchs~;
#X msg 332 459 resize \$1;
#X obj 196 259 == 0;
#X obj 241 254 r \$0-n;
#X obj 196 172 r \$0-midi-mode;
#X obj 219 321 spigot;
#X obj 560 128 s \$0-set-n-voices;
#X obj 491 302 else/pick~ 1;
#X obj 472 600 outlet~;
#X obj 472 519 *~;
#X obj 490 482 else/op~ != 1e+06;
#X obj 511 372 else/s2f~;
#X obj 511 405 change;
#X obj 511 342 else/op~ == 1e+06;
#X obj 511 439 s \$0-midi-mode;
#X obj 104 259 spigot 1;
#X obj 104 453 else/var \$0-decay \$0-cutoff \$0-att-decay \$0-att-cut, f 27;
#X obj 104 517 else/dispatch \$0-decay \$0-cutoff \$0-att-decay \$0-att-cut, f 32;
#X obj 376 83 route list cutoff decay cutoff_att decay_att voices, f 32;
#X obj 307 258 t f f;
#X obj 307 319 sel 1;
#X obj 241 282 f;
#X obj 104 385 del 0;
#X obj 332 436 max 1;
#X connect 0 0 10 0;
#X connect 0 0 17 0;
#X connect 0 0 19 0;
#X connect 2 0 28 0;
#X connect 3 0 1 0;
#X connect 8 0 26 0;
#X connect 8 1 33 0;
#X connect 9 0 32 0;
#X connect 10 0 25 0;
#X connect 11 0 1 0;
#X connect 12 0 25 1;
#X connect 13 0 31 0;
#X connect 14 0 12 0;
#X connect 14 0 29 0;
#X connect 15 0 9 0;
#X connect 17 0 20 0;
#X connect 17 0 23 0;
#X connect 19 0 18 0;
#X connect 20 0 19 1;
#X connect 21 0 22 0;
#X connect 22 0 24 0;
#X connect 23 0 21 0;
#X connect 25 0 9 0;
#X connect 26 0 27 0;
#X connect 28 0 3 0;
#X connect 28 1 5 0;
#X connect 28 2 4 0;
#X connect 28 3 6 0;
#X connect 28 4 7 0;
#X connect 28 5 16 0;
#X connect 29 0 30 0;
#X connect 29 1 15 1;
#X connect 30 0 31 0;
#X connect 31 0 15 0;
#X connect 32 0 8 0;
#X connect 33 0 11 0;
#X restore 262 170 pd set;
#X obj 432 106 inlet~;
#X obj 485 106 inlet~;
#N canvas 432 274 764 419 att 0;
#X obj 491 215 else/f2s~;
#X obj 452 63 inlet~;
#X obj 452 296 outlet~;
#X obj 452 204 +~;
#X obj 452 134 *~;
#X obj 491 149 else/f2s~;
#X obj 491 119 r \$0-att-cut;
#X obj 150 220 else/f2s~;
#X obj 111 68 inlet~;
#X obj 111 301 outlet~;
#X obj 111 209 +~;
#X obj 111 139 *~;
#X obj 150 154 else/f2s~;
#X obj 150 124 r \$0-att-decay;
#X obj 150 190 r \$0-decay-sig;
#X obj 491 185 r \$0-cutoff-sig;
#X obj 111 256 else/rescale~ -log 100 10000;
#X obj 452 251 else/rescale~ -log 500 15000;
#X connect 0 0 3 1;
#X connect 1 0 4 0;
#X connect 3 0 17 0;
#X connect 4 0 3 0;
#X connect 5 0 4 1;
#X connect 6 0 5 0;
#X connect 7 0 10 1;
#X connect 8 0 11 0;
#X connect 10 0 16 0;
#X connect 11 0 10 0;
#X connect 12 0 11 1;
#X connect 13 0 12 0;
#X connect 14 0 7 0;
#X connect 15 0 0 0;
#X connect 16 0 9 0;
#X connect 17 0 2 0;
#X restore 432 170 pd att;
#X f 8;
#X obj 564 106 inlet~;
#X text 51 52 Freq;
#X text 87 52 Tr;
#X text 161 52 Cut;
#X text 110 52 Decay;
#X text 197 51 In;
#X text 268 85 Freq;
#X text 487 83 Cutoff;
#X text 435 83 Decay;
#X text 616 106 IN;
#N canvas 703 293 464 411 check 0;
#X obj 113 54 inlet~;
#X obj 113 337 outlet~;
#X obj 149 96 else/pick~ 1;
#X obj 257 239 noise~;
#X obj 149 213 + 1;
#X obj 149 152 else/s2f~;
#X text 114 24 noise;
#X obj 149 184 change -1;
#X obj 149 124 else/op~ == 1e+06;
#X obj 113 282 else/xselect~ 2 100 1;
#X connect 0 0 2 0;
#X connect 0 0 9 0;
#X connect 2 0 8 0;
#X connect 3 0 9 1;
#X connect 4 0 9 0;
#X connect 5 0 7 0;
#X connect 7 0 4 0;
#X connect 8 0 5 0;
#X connect 9 0 1 0;
#X restore 564 140 pd check;
#X obj 301 239 clone -d pluck.unit 1, f 38;
#X obj 564 56 else/initmess 1e+06;
#N canvas 859 259 251 248 MIDI-learn 0;
#N canvas 776 312 577 472 decay-knob 0;
#X msg 114 218 forget;
#X obj 240 221 savestate;
#X obj 300 268 list;
#X obj 240 326 else/insert teach;
#X obj 96 270 else/midi.learn 1;
#A saved;
#X obj 96 366 else/rescale -1 1;
#X obj 96 405 s \$0-set-decay;
#X obj 94 34 r \$0-decay-learn;
#X msg 113 64 MIDI-learn for decay knob activated;
#X obj 113 91 print [pluck.m~]:;
#X obj 127 189 print [pluck.m~]:;
#X msg 127 164 MIDI-forget for decay knob;
#X obj 325 243 list prepend decay-learn;
#X obj 240 297 else/route2 decay-learn;
#X obj 114 130 r \$0-decay-forget;
#X connect 0 0 4 0;
#X connect 1 0 13 0;
#X connect 1 1 2 0;
#X connect 2 0 1 0;
#X connect 3 0 4 0;
#X connect 4 0 5 0;
#X connect 4 1 12 0;
#X connect 5 0 6 0;
#X connect 7 0 8 0;
#X connect 7 0 4 0;
#X connect 8 0 9 0;
#X connect 11 0 10 0;
#X connect 12 0 2 1;
#X connect 13 0 3 0;
#X connect 14 0 0 0;
#X connect 14 0 11 0;
#X restore 52 67 pd decay-knob;
#N canvas 623 376 577 472 cutoff-knob 0;
#X msg 114 218 forget;
#X obj 240 221 savestate;
#X obj 300 268 list;
#X obj 240 326 else/insert teach;
#X obj 96 270 else/midi.learn 1;
#A saved;
#X obj 113 91 print [pluck.m~]:;
#X obj 127 189 print [pluck.m~]:;
#X obj 94 34 r \$0-cutoff-learn;
#X msg 113 64 MIDI-learn for cutoff knob activated;
#X obj 114 130 r \$0-cutoff-forget;
#X msg 127 164 MIDI-forget for cutoff knob;
#X obj 325 243 list prepend cutoff-learn;
#X obj 240 297 else/route2 cutoff-learn;
#X obj 96 405 s \$0-set-cutoff;
#X obj 96 366 else/rescale -1 1;
#X connect 0 0 4 0;
#X connect 1 0 12 0;
#X connect 1 1 2 0;
#X connect 2 0 1 0;
#X connect 3 0 4 0;
#X connect 4 0 14 0;
#X connect 4 1 11 0;
#X connect 7 0 8 0;
#X connect 7 0 4 0;
#X connect 8 0 5 0;
#X connect 9 0 0 0;
#X connect 9 0 10 0;
#X connect 10 0 6 0;
#X connect 11 0 2 1;
#X connect 12 0 3 0;
#X connect 14 0 13 0;
#X restore 52 90 pd cutoff-knob;
#N canvas 623 376 577 472 att-decay-knob 0;
#X msg 114 218 forget;
#X obj 240 221 savestate;
#X obj 300 268 list;
#X obj 240 326 else/insert teach;
#X obj 96 270 else/midi.learn 1;
#A saved;
#X obj 113 91 print [pluck.m~]:;
#X obj 127 189 print [pluck.m~]:;
#X obj 96 366 else/rescale -1 1;
#X obj 94 34 r \$0-att-decay-learn;
#X msg 113 64 MIDI-learn for att-decay knob activated;
#X obj 114 130 r \$0-att-decay-forget;
#X msg 127 164 MIDI-forget for att-decay knob;
#X obj 325 243 list prepend att-decay-learn;
#X obj 240 297 else/route2 att-decay-learn;
#X obj 96 405 s \$0-set-att-decay;
#X connect 0 0 4 0;
#X connect 1 0 13 0;
#X connect 1 1 2 0;
#X connect 2 0 1 0;
#X connect 3 0 4 0;
#X connect 4 0 7 0;
#X connect 4 1 12 0;
#X connect 7 0 14 0;
#X connect 8 0 9 0;
#X connect 8 0 4 0;
#X connect 9 0 5 0;
#X connect 10 0 0 0;
#X connect 10 0 11 0;
#X connect 11 0 6 0;
#X connect 12 0 2 1;
#X connect 13 0 3 0;
#X restore 52 120 pd att-decay-knob;
#N canvas 623 376 577 472 att-cutoff-knob 0;
#X msg 114 218 forget;
#X obj 240 221 savestate;
#X obj 300 268 list;
#X obj 240 326 else/insert teach;
#X obj 96 270 else/midi.learn 1;
#A saved;
#X obj 113 91 print [pluck.m~]:;
#X obj 127 189 print [pluck.m~]:;
#X obj 96 366 else/rescale -1 1;
#X obj 94 34 r \$0-att-cut-learn;
#X msg 113 64 MIDI-learn for att-cutoff knob activated;
#X obj 114 130 r \$0-att-cut-forget;
#X msg 127 163 MIDI-forget for att-cutodd knob;
#X obj 325 243 list prepend att-cut-learn;
#X obj 240 297 else/route2 att-cut-learn;
#X obj 96 405 s \$0-set-att-cut;
#X connect 0 0 4 0;
#X connect 1 0 13 0;
#X connect 1 1 2 0;
#X connect 2 0 1 0;
#X connect 3 0 4 0;
#X connect 4 0 7 0;
#X connect 4 1 12 0;
#X connect 7 0 14 0;
#X connect 8 0 9 0;
#X connect 8 0 4 0;
#X connect 9 0 5 0;
#X connect 10 0 0 0;
#X connect 10 0 11 0;
#X connect 11 0 6 0;
#X connect 12 0 2 1;
#X connect 13 0 3 0;
#X restore 52 146 pd att-cutoff-knob;
#X restore 629 255 pd MIDI-learn;
#X obj 261 56 else/initmess 1e+06;
#X connect 0 0 8 0;
#X connect 0 1 8 1;
#X connect 2 0 23 1;
#X connect 8 0 23 0;
#X connect 8 1 23 0;
#X connect 9 0 11 0;
#X connect 10 0 11 1;
#X connect 11 0 23 2;
#X connect 11 1 23 3;
#X connect 12 0 22 0;
#X connect 22 0 23 4;
#X connect 23 0 1 0;
#X connect 24 0 12 0;
#X connect 26 0 0 0;
#X coords 0 -1 1 1 165 286 2 50 50;
