#N canvas 379 67 430 585 12;
#X declare -path else;
#X obj 45 35 inlet~;
#X obj 87 523 outlet~;
#N canvas 243 43 499 411 preset 0;
#X obj 125 121 else/sender 1 \\\$0-presets;
#X msg 125 86 name \$1;
#X obj 90 171 else/receiver;
#X obj 123 220 route list;
#N canvas 468 182 491 352 id-name-init 0;
#X obj 165 113 + 1;
#X obj 257 100 else/dollsym 1;
#X obj 141 80 value;
#X obj 141 252 outlet;
#X obj 141 51 else/loadbanger 2;
#X obj 141 201 else/dollsym 1;
#X obj 257 76 symbol rm-id_\\\$0;
#X obj 141 166 makefilename \\\$0-rm-%d;
#X connect 0 0 2 0;
#X connect 1 0 2 1;
#X connect 2 0 0 0;
#X connect 2 0 7 0;
#X connect 4 0 2 0;
#X connect 4 1 6 0;
#X connect 5 0 3 0;
#X connect 6 0 1 0;
#X connect 7 0 5 0;
#X restore 90 39 pd id-name-init;
#X obj 123 257 else/dispatch \$0-set-hz \$0-set-att;
#X obj 90 311 else/var \$0-hz \$0-att;
#X connect 1 0 0 0;
#X connect 2 0 3 0;
#X connect 2 0 6 0;
#X connect 3 0 5 0;
#X connect 4 0 1 0;
#X connect 4 0 2 0;
#X restore 283 445 pd preset;
#N canvas 171 120 601 317 init-savestate 0;
#X obj 74 87 savestate;
#X obj 214 174 declare -path else;
#X obj 134 119 else/var \$0-hz \$0-att;
#X obj 49 222 else/dispatch \$0-set-hz \$0-set-att;
#X obj 49 171 else/default 20 0;
#X obj 49 125 list;
#X obj 49 43 loadbang;
#X connect 0 0 5 1;
#X connect 0 1 2 0;
#X connect 2 0 0 0;
#X connect 4 0 3 0;
#X connect 5 0 4 0;
#X connect 6 0 5 0;
#X restore 225 412 pd init-savestate;
#N canvas 200 115 347 203 GUI 0;
#X msg 124 95 set \$1;
#X obj 124 61 r \$0-hz-number;
#X obj 124 124 s \$0-set-hz;
#X connect 0 0 2 0;
#X connect 1 0 0 0;
#X restore 223 445 pd GUI;
#X text 250 125 IN;
#N canvas 227 82 394 451 (subpatch) 0;
#X obj 112 112 cnv 15 82 225 empty empty empty 20 12 0 14 #dbdbdb #373737 0;
#X obj 121 120 note 62 18 Inter empty 5 54 54 54 0 187 187 187 1 1 RING MOD;
#X obj 129 177 else/knob 50 20 2000 1 20 \$0-hz \$0-set-hz #dfdfdf #bbbbbb #000000 0 0 0 0 1 320 0 0 20 empty empty 0 0 0 0 0 0 0 0;
#X text 145 231 Hz;
#X floatatom 129 250 7 0 0 0 - \$0-hz \$0-hz-number 12;
#X obj 136 278 knob 40 -1 1 0 0 \$0-att \$0-set-att #202020 #7c7c7c #ff0400 0 0 0 0 1 320 0 0 0 empty empty 0 0 0 0 0 0 0 0;
#X text 142 318 Att.;
#X coords 0 1 100 -1 84 227 1 111 111;
#X restore 256 147 graph;
#X obj 87 431 rm~, f 5;
#X obj 137 330 r \$0-hz;
#X obj 119 35 inlet~;
#X text 329 125 CV;
#X obj 119 392 +~;
#X obj 119 209 *~;
#X obj 137 358 f2s~ 10;
#X obj 161 151 r \$0-att;
#X obj 161 182 f2s~ 10;
#N canvas 164 143 450 300 route 0;
#X obj 74 59 inlet;
#X obj 74 106 route hz att;
#X obj 114 139 s \$0-set-att;
#X obj 74 173 s \$0-set-hz;
#X connect 0 0 1 0;
#X connect 1 0 3 0;
#X connect 1 1 2 0;
#X restore 140 81 pd route;
#X obj 119 264 clip~ 20 2000;
#X obj 161 216 *~ 1000;
#X connect 0 0 7 0;
#X connect 0 1 16 0;
#X connect 7 0 1 0;
#X connect 8 0 13 0;
#X connect 9 0 12 0;
#X connect 11 0 7 1;
#X connect 12 0 17 0;
#X connect 13 0 11 1;
#X connect 14 0 15 0;
#X connect 15 0 18 0;
#X connect 17 0 11 0;
#X connect 18 0 12 1;
#X coords 0 1 100 -1 97 257 2 250 125;
