#N canvas 197 75 1259 704 12;
#X obj 1116 105 about.MERDA;
#N canvas 363 99 883 540 messages 0;
#X floatatom 341 138 5 1 1000 0 - - - 16;
#X obj 216 133 tgl 25 0 empty empty empty 0 -10 0 12 #202020 #ffffff #ffffff 0 1;
#X msg 216 172 run \$1;
#X msg 280 172 reset;
#X msg 341 172 bpm \$1;
#X msg 405 172 mul \$1;
#X floatatom 405 137 5 0.03125 32 0 - - - 16;
#X obj 342 482 outlet;
#X obj 134 232 bng 19 250 50 0 empty empty empty 0 -10 0 12 #dfdfdf #000000 #000000;
#X text 68 220 external control clock, f 8;
#X text 532 381 set all trigger toggles;
#X msg 180 229 gui \$1;
#X obj 180 196 tgl 19 0 empty empty empty 0 -10 0 12 #dfdfdf #000000 #000000 0 1;
#X msg 495 352 triggers 1 0 1 0 0 1 1 0 0 0 1 1 0 0 1 1;
#X msg 470 233 seq 60 60 60 60 60 60 60 60 60 60 60 60 60 60 60 60 70 70 70 70 70 70 70 70 70 70 70 70 70 70 70 70, f 51;
#X msg 475 172 steps 16 13 11;
#X text 114 31 For bpm \, mul and steps \, the number of elements also sets the number of pages and the value for each one. For 'seq' and 'triggers' you set the pitch and trigger toggle values for each step \, and the number of values divided by 16 also sets the number of pages - if you have \, say \, 17 steps \, then you set 2 pages (so the 'ceil' of the division is considered)., f 90;
#X text 583 169 set 3 pages and steps for each;
#X text 466 137 also sets the number of pages to 1;
#X text 530 208 set all picthes (2 pages);
#X text 479 275 If you first set 'bpm'/'mul' and 'step' and then set pitches or triggers expanding to two pages or more \, the same value 'bpm'/'mul' and 'step' values apply to all pages., f 46;
#X text 45 132 superseeds signal ----> input on left inlet, f 23;
#X connect 0 0 4 0;
#X connect 1 0 2 0;
#X connect 2 0 7 0;
#X connect 3 0 7 0;
#X connect 4 0 7 0;
#X connect 5 0 7 0;
#X connect 6 0 5 0;
#X connect 8 0 7 0;
#X connect 11 0 7 0;
#X connect 12 0 11 0;
#X connect 13 0 7 0;
#X connect 14 0 7 0;
#X connect 15 0 7 0;
#X restore 23 46 pd messages;
#X obj 233 612 else/out~;
#X text 1076 104 see:;
#X obj 906 125 else/float2imp~;
#X obj 906 93 bng 21 250 50 0 empty empty empty 0 -10 0 12 #dfdfdf #000000 #000000;
#X obj 464 117 else/float2imp~;
#X obj 464 82 bng 21 250 50 0 empty empty empty 0 -10 0 12 #dfdfdf #000000 #000000;
#X text 796 92 external reset;
#X text 492 76 external signal clock, f 12;
#X obj 24 468 else/vco.m~;
#A saved 0 0 0 4 0.725 0 0 0 0 0;
#A saved;
#A saved;
#A saved;
#A saved;
#A saved;
#A saved;
#A saved;
#A saved;
#A saved;
#A saved;
#X obj 317 468 else/adsr.m~;
#A saved 10 10 0.5 300 1 0 0 0 0 -1 0 -1;
#A saved;
#A saved;
#A saved;
#A saved;
#A saved;
#A saved;
#A saved;
#A saved;
#A saved;
#A saved;
#A saved;
#A saved;
#A saved;
#A saved;
#A saved;
#A saved;
#X obj 233 547 else/vca.m~;
#A saved 1 1 0;
#A saved;
#A saved;
#X obj 302 25 else/note 369 15 Menlo empty 4 0 0 0 0 223 223 223 1 1 í ˝í˛© [seq.m~] - Step Sequencer;
#X obj 23 160 else/seq.m~;
#A saved 1 0 2;
#A saved sequence 60 60 48 60 60 60 54 60 60 60 63 59 60 60 64 61 60 60 48 60 57.5 50.5 58 60 60 60 60 60 60 60 60 60;
#A saved nsteps 16 7;
#A saved bpms 60 110;
#A saved muls 7 3;
#A saved trig 1 0 1 0 0 1 1 0 0 0 1 1 0 0 0 1 1 0 1 0 1 1 1 0 0 0 0 0 0 0 0 0;
#A saved;
#A saved;
#A saved;
#A saved;
#A saved;
#A saved;
#A saved;
#A saved;
#A saved;
#A saved;
#A saved;
#A saved;
#A saved;
#A saved;
#A saved;
#A saved;
#A saved;
#A saved;
#A saved;
#A saved;
#A saved;
#A saved;
#A saved;
#A saved;
#A saved;
#A saved;
#A saved;
#A saved;
#A saved;
#A saved;
#A saved;
#A saved;
#X obj 55 118 sig~;
#X obj 55 86 tgl 21 0 empty empty empty 0 -10 0 12 #dfdfdf #000000 #000000 0 1;
#X obj 760 488 bng 19 250 50 0 empty empty empty 0 -10 0 12 #dfdfdf #000000 #000000;
#X obj 611 488 bng 19 250 50 0 empty empty empty 0 -10 0 12 #dfdfdf #000000 #000000;
#X obj 611 454 else/trig2bang~;
#X obj 760 454 else/trig2bang~;
#X text 952 173 A step sequencer. Left output is MIDI pitch \, 2nd outlet is gate with the duration of half the beat. 3rd is an impulse and rightmost is internal clock., f 37;
#X text 952 252 Pitch values are from 12 to 108 (C0 to C8). At the top of each step you can set note names and octaves directly \, quantized to quarter tones \, but there's support for any interval in MIDIcents. Use number boxes for easier increment in semitones since the knob can't do that \, though it's fun to get random microtones with them. As any knob \, you can type in values but this makes more sense if you do it in the number boxes directly. The toggles set the trigger output on and off for each step., f 37;
#X text 952 463 The left inlet is a gate for running the sequencer \, the mid input is an impulse input for external clock and the right inlet takes an impulse to reset the sequencer to the first step., f 37;
#X text 376 542 You can set many "pages" for different concatenated sequences. Each page has its own BPM \, beat multiplier and number of steps (up to 16)., f 73;
#X text 1024 589 THIS OBJECT IS STILL QUITE EXPERIMENTAL... :), f 18;
#X connect 1 0 14 0;
#X connect 4 0 14 2;
#X connect 5 0 4 0;
#X connect 6 0 14 1;
#X connect 7 0 6 0;
#X connect 10 0 12 0;
#X connect 11 0 12 1;
#X connect 12 0 2 0;
#X connect 14 0 10 0;
#X connect 14 1 11 0;
#X connect 14 2 19 0;
#X connect 14 3 20 0;
#X connect 15 0 14 0;
#X connect 16 0 15 0;
#X connect 19 0 18 0;
#X connect 20 0 17 0;
