#N canvas 293 38 820 656 12;
#X obj 663 82 about.MERDA;
#N canvas 559 239 619 326 messages 0;
#X floatatom 222 61 5 1 1000 0 - - - 16;
#X obj 97 56 tgl 25 0 empty empty empty 0 -10 0 12 #202020 #ffffff #ffffff 0 1;
#X msg 97 95 run \$1;
#X msg 161 95 reset;
#X msg 222 95 bpm \$1;
#X msg 286 95 mul \$1;
#X floatatom 286 60 3 1 8 0 - - - 16;
#X obj 294 258 outlet;
#X obj 382 199 bng 19 250 50 0 empty empty empty 0 -10 0 12 #dfdfdf #000000 #000000;
#X msg 360 94 seq 60 60 60 60 60 60 60 60;
#X msg 381 154 triggers 1 0 1 0 0 1 1 0;
#X text 412 201 external control clock;
#X text 429 64 set all picthes;
#X text 399 128 set all trigger toggles;
#X msg 61 152 gui \$1;
#X obj 61 119 tgl 19 0 empty empty empty 0 -10 0 12 #dfdfdf #000000 #000000 0 1;
#X connect 0 0 4 0;
#X connect 1 0 2 0;
#X connect 2 0 7 0;
#X connect 3 0 7 0;
#X connect 4 0 7 0;
#X connect 5 0 7 0;
#X connect 6 0 5 0;
#X connect 8 0 7 0;
#X connect 9 0 7 0;
#X connect 10 0 7 0;
#X connect 14 0 7 0;
#X connect 15 0 14 0;
#X restore 31 20 pd messages;
#X obj 31 130 else/seq8.m~;
#A saved 60 4 0 50 53 57 36 71 70 56 71 1 0 1 1 1 1 1 1 1;
#A saved;
#A saved step2-learn none;
#A saved;
#A saved;
#A saved;
#A saved;
#A saved;
#A saved;
#X obj 170 572 else/out~;
#X text 623 81 see:;
#X obj 477 79 else/float2imp~;
#X obj 477 47 bng 21 250 50 0 empty empty empty 0 -10 0 12 #dfdfdf #000000 #000000;
#X obj 54 91 else/float2imp~;
#X obj 54 56 bng 21 250 50 0 empty empty empty 0 -10 0 12 #dfdfdf #000000 #000000;
#X text 367 46 external reset;
#X text 82 50 external signal clock, f 12;
#X obj 31 435 else/vco.m~;
#A saved 0 0 0 4 0.775 0 0 0 0;
#A saved;
#A saved;
#A saved;
#A saved;
#A saved;
#X obj 254 435 else/adsr.m~;
#A saved 0 300 0 0 1 0 0 0 0 0;
#A saved;
#A saved;
#A saved;
#A saved;
#A saved;
#A saved;
#A saved;
#A saved;
#X obj 170 507 else/vca.m~;
#A saved 1 0 0;
#A saved;
#X obj 478 533 else/trig2bang~;
#X obj 478 561 bng 23 100 50 0 empty empty empty 0 -10 0 12 #bbbbbb #000000 #000000;
#X text 513 194 Pitch values are from 12 to 108 (C0 to C8). At the top of each step you can set note names and octaves directly \, quantized to quarter tones \, but there's support for any interval in MIDIcents. Use number boxes for easier increment in semitones since the knob can't do that \, though it's fun to get random microtones. As any knob \, you can type in values but this makes more sense if you do it in the number boxes directly., f 37;
#X text 513 126 An 8-step sequencer. Left output is MIDI pitch \, mid outlet impulses and right outlet is the internal clock. Still experimental..., f 37;
#X text 513 376 The toggles set the impulse output on and off for each step. The right outlet outputs the clock \, both the internal and external., f 37;
#X text 513 446 The left inlet is for an external impulse clock and the right inlet takes an impulse to reset the sequencer to the first step., f 37;
#X connect 1 0 2 0;
#X connect 2 0 11 0;
#X connect 2 1 12 0;
#X connect 2 2 14 0;
#X connect 5 0 2 1;
#X connect 6 0 5 0;
#X connect 7 0 2 0;
#X connect 8 0 7 0;
#X connect 11 0 13 0;
#X connect 12 0 13 1;
#X connect 13 0 3 0;
#X connect 14 0 15 0;
