#N canvas 281 123 442 443 12;
#X obj 65 349 outlet~;
#N canvas 243 43 424 397 preset 0;
#X obj 125 121 else/sender 1 \\\$0-presets;
#X msg 125 86 name \$1;
#X obj 90 171 else/receiver;
#N canvas 468 182 491 352 id-name-init 0;
#X obj 165 113 + 1;
#X obj 257 100 else/dollsym 1;
#X obj 141 80 value;
#X obj 141 252 outlet;
#X obj 141 51 else/loadbanger 2;
#X obj 141 201 else/dollsym 1;
#X obj 257 76 symbol sig-id_\\\$0;
#X obj 141 166 makefilename \\\$0-sig-%d;
#X connect 0 0 2 0;
#X connect 1 0 2 1;
#X connect 2 0 0 0;
#X connect 2 0 7 0;
#X connect 4 0 2 0;
#X connect 4 1 6 0;
#X connect 5 0 3 0;
#X connect 6 0 1 0;
#X connect 7 0 5 0;
#X restore 90 39 pd id-name-init;
#X obj 123 257 else/dispatch \$0-set-sig;
#X obj 90 311 else/var \$0-sig;
#X obj 123 220 route float;
#X connect 1 0 0 0;
#X connect 2 0 5 0;
#X connect 2 0 6 0;
#X connect 3 0 1 0;
#X connect 3 0 2 0;
#X connect 6 0 4 0;
#X restore 95 187 pd preset;
#N canvas 243 174 409 398 init-savestate 0;
#X obj 74 88 savestate;
#X obj 49 225 list;
#X obj 49 43 loadbang;
#X obj 134 120 else/var \$0-sig \$0-GUI;
#X obj 49 332 else/dispatch \$0-set-sig \$0-set-GUI;
#X obj 49 281 else/default 0 1;
#X obj 74 159 list trim;
#X obj 74 190 route list;
#X connect 0 0 6 0;
#X connect 0 1 3 0;
#X connect 1 0 5 0;
#X connect 2 0 1 0;
#X connect 3 0 0 0;
#X connect 5 0 4 0;
#X connect 6 0 7 0;
#X connect 7 0 1 1;
#X restore 37 154 pd init-savestate;
#X obj 65 264 r \$0-sig;
#X obj 65 297 else/f2s~;
#X obj 75 27 inlet;
#N canvas 859 259 251 248 MIDI-learn 0;
#N canvas 776 312 577 472 hz-sig 0;
#X msg 114 218 forget;
#X obj 240 221 savestate;
#X obj 300 268 list;
#X obj 240 326 else/insert teach;
#X obj 96 270 else/midi.learn 1;
#A saved;
#X obj 114 130 r \$0-hz-forget;
#X obj 113 91 print [sig.m~]:;
#X obj 127 189 print [sig.m~]:;
#X obj 94 34 r \$0-sig-learn;
#X msg 113 64 MIDI-learn for sig knob activated;
#X msg 127 164 MIDI-forget for sig knob;
#X obj 325 243 list prepend sig-learn;
#X obj 240 297 else/route2 sig-learn;
#X obj 96 366 else/rescale -1 1;
#X obj 96 404 s \$0-set-sig;
#X connect 0 0 4 0;
#X connect 1 0 12 0;
#X connect 1 1 2 0;
#X connect 2 0 1 0;
#X connect 3 0 4 0;
#X connect 4 0 13 0;
#X connect 4 1 11 0;
#X connect 5 0 0 0;
#X connect 5 0 10 0;
#X connect 8 0 9 0;
#X connect 8 0 4 0;
#X connect 9 0 6 0;
#X connect 10 0 7 0;
#X connect 11 0 2 1;
#X connect 12 0 3 0;
#X connect 13 0 14 0;
#X restore 52 67 pd hz-sig;
#X restore 46 220 pd MIDI-learn;
#N canvas 199 178 419 409 GUI 0;
#N canvas 338 353 449 348 format 0;
#X obj 70 59 inlet;
#X obj 158 252 outlet;
#X msg 70 122 0;
#X obj 71 162 else/format %g;
#X obj 70 96 sel 0 -1 1, f 16;
#X msg 100 121 -1;
#X msg 132 122 1;
#N canvas 368 223 508 557 format 0;
#X obj 151 32 inlet;
#X obj 152 90 list fromsymbol;
#X obj 184 181 else/slice -1;
#X obj 272 209 == 48;
#X obj 152 220 else/router;
#X obj 152 152 t l l;
#X obj 226 247 else/slice -1;
#X obj 152 308 equal 48 46;
#X obj 152 118 t l l, f 27;
#X obj 313 381 list;
#X obj 152 277 t l l, f 13;
#X obj 215 381 list;
#X obj 215 417 list tosymbol;
#X obj 152 336 sel 0 1;
#X obj 215 471 outlet;
#X obj 152 62 else/format %.2f;
#X connect 0 0 15 0;
#X connect 1 0 8 0;
#X connect 2 1 3 0;
#X connect 3 0 4 1;
#X connect 4 0 10 0;
#X connect 4 1 6 0;
#X connect 5 0 4 0;
#X connect 5 1 2 0;
#X connect 6 0 5 0;
#X connect 7 0 13 0;
#X connect 8 0 5 0;
#X connect 8 1 9 1;
#X connect 9 0 12 0;
#X connect 10 0 7 0;
#X connect 10 1 11 1;
#X connect 11 0 12 0;
#X connect 12 0 14 0;
#X connect 13 0 11 0;
#X connect 13 1 9 0;
#X connect 15 0 1 0;
#X restore 211 162 pd format;
#X connect 0 0 4 0;
#X connect 2 0 3 0;
#X connect 3 0 1 0;
#X connect 4 0 2 0;
#X connect 4 1 5 0;
#X connect 4 2 6 0;
#X connect 4 3 7 0;
#X connect 5 0 3 0;
#X connect 6 0 3 0;
#X connect 7 0 1 0;
#X restore 72 246 pd format;
#X obj 72 212 else/limit 100;
#X msg 198 209 color 0 0 \$1;
#X obj 198 177 * 175;
#X obj 211 150 loadbang;
#X obj 71 97 r \$0-sig;
#X obj 198 116 r \$0-sig-active;
#X obj 224 245 r \$0-sig-typing;
#X msg 224 276 set \$1|;
#X msg 72 282 set \$1;
#X obj 199 326 s \$0-sig-label;
#X obj 71 180 f;
#X obj 84 150 sel 0;
#N canvas 185 162 600 509 collapse 0;
#X obj 28 150 r \$0-uncollapse;
#X obj 33 305 r \$0-detatch-hover;
#X obj 56 459 s \$0-label-collapsed;
#X obj 33 331 sel 0 1;
#X obj 290 420 r \$0-detatch;
#X obj 232 153 else/canvas.setname \$0-m 2;
#X obj 290 305 r \$0-set-GUI;
#X obj 290 386 s \$0-uncollapse;
#X obj 313 359 s \$0-collapse;
#X obj 290 331 sel 1 0;
#X obj 28 16 r \$0-collapse;
#X msg 33 407 label SIG \, label_font 0 24 \, label_pos 5 15, f 28;
#X obj 290 447 message \; pd-\$0-sig vis 1;
#X obj 28 184 else/message \; \$0-button readonly 0 \, transparent 2 \; pd-\$0-sig donecanvasdialog 1 1 1 0 0 1 1 92 137 15 15 \, vis 0 \; \$0-cnv color #bbbbbb #000000 #000000 \; \$0-m goprect 200 125 112 156 \, dirty 0 \; \$0-GUI 1, f 54;
#X msg 56 358 label ⤢ \, label_font 0 48 \, label_pos 14 12, f 25;
#X obj 207 322 loadbang;
#X obj 28 45 else/message \; \$0-button readonly 1 \, transparent 3 \; pd-\$0-sig donecanvasdialog 1 1 0 0 0 1 1 92 137 15 15 \; \$0-cnv color #dbdbdb #000000 #dbdbdb \; \$0-m goprect 205 300 90 44 \, dirty 0 \; \$0-GUI 0;
#X obj 441 431 s \$0-uncollapse-set;
#X msg 441 397 readonly \$1;
#X obj 441 366 else/canvas.edit 3;
#X connect 0 0 13 0;
#X connect 1 0 3 0;
#X connect 3 0 11 0;
#X connect 3 1 14 0;
#X connect 4 0 12 0;
#X connect 6 0 9 0;
#X connect 9 0 7 0;
#X connect 9 1 8 0;
#X connect 10 0 16 0;
#X connect 11 0 2 0;
#X connect 14 0 2 0;
#X connect 15 0 11 0;
#X connect 18 0 17 0;
#X connect 19 0 18 0;
#X restore 184 41 pd collapse;
#X connect 0 0 9 0;
#X connect 1 0 0 0;
#X connect 2 0 10 0;
#X connect 3 0 2 0;
#X connect 4 0 3 0;
#X connect 5 0 11 0;
#X connect 6 0 3 0;
#X connect 6 0 12 0;
#X connect 7 0 8 0;
#X connect 8 0 10 0;
#X connect 9 0 10 0;
#X connect 11 0 1 0;
#X connect 12 0 11 0;
#X restore 38 186 pd GUI;
#X obj 211 307 cnv 19 55 29 empty \$0-label-collapsed SIG 5 15 0 24 #bbbbbb #000000 0;
#X obj 210 306 else/button 57 31 #bbbbbb #bbbbbb 2 1 2 0 0 \$0-detatch \$0-uncollapse-set;
#X obj 272 307 cnv 10 17 15 empty empty ▲ 5 8 0 12 #bbbbbb #000000 0;
#X obj 272 321 cnv 10 17 15 empty empty ▼ 5 5 0 12 #bbbbbb #000000 0;
#X obj 271 306 else/button 19 31 #e0e0e0 #808080 2 1 2 0 0 \$0-uncollapse empty;
#N canvas 784 175 134 177 \$0-sig 0;
#N canvas 350 298 316 345 (subpatch) 0;
#X obj 112 112 cnv 15 90 135 empty empty empty 20 12 0 14 #dbdbdb #373737 0;
#X obj 127 158 else/knob 60 -1 1 0 0 \$0-sig \$0-set-sig #000000 #404040 #ffffff 0 0 0 0 1 320 0 0 0 empty empty 0 14 0 50 0 0 0 0 0 0;
#X obj 124 223 else/note 62 14 Menlo \$0-sig-label 0 0 0 0 0 255 255 255 0 1 0;
#X obj 122 116 else/note 46 24 Inter empty 5 54 54 54 0 187 187 187 1 2 SIG;
#X obj 175 116 else/button 19 31 #e0e0e0 #808080 2 1 2 0 0 \$0-collapse \$0-button;
#X obj 176 117 cnv 10 17 15 empty \$0-cnv ▼ 5 8 0 12 #bbbbbb #000000 0;
#X obj 176 131 cnv 10 17 15 empty \$0-cnv ▲ 5 5 0 12 #bbbbbb #000000 0;
#X coords 0 1 100 -1 92 137 1 111 111;
#X restore 15 15 graph;
#X coords 0 0 1 1 92 137 1 15 15;
#X restore 210 135 pd \$0-sig;
#N canvas 174 155 216 268 route 0;
#X obj 42 37 inlet;
#X obj 42 156 s \$0-set-sig;
#X obj 42 77 route set gui;
#X obj 84 103 != 0;
#X obj 84 129 s \$0-set-GUI;
#X connect 0 0 2 0;
#X connect 2 0 1 0;
#X connect 2 1 3 0;
#X connect 3 0 4 0;
#X restore 75 65 pd route;
#X connect 3 0 4 0;
#X connect 4 0 0 0;
#X connect 5 0 14 0;
#X coords 0 1 100 -1 112 156 2 200 125;
