#N canvas 414 101 715 509 12;
#X obj 286 124 inlet~;
#X obj 286 322 outlet~;
#X obj 362 124 inlet~;
#X text 372 101 FM;
#X obj 438 124 inlet~;
#N canvas 514 296 435 521 GUI 0;
#X obj 157 121 r \$0-waveform;
#X obj 62 153 else/router;
#X obj 62 117 r \$0-PWM;
#X obj 79 212 v \$0-PWM-saw;
#X obj 180 212 v \$0-PWM-square;
#X obj 157 153 sel 0 1;
#X msg 180 250 set \$1;
#X obj 180 279 s \$0-set-PWM;
#X obj 223 158 r \$0-set-PWM-saw;
#X obj 225 183 r \$0-set-PWM-square;
#N canvas -428 167 869 506 collapse 0;
#X obj 28 150 r \$0-uncollapse;
#X obj 290 420 r \$0-detatch;
#X obj 245 150 else/canvas.setname \$0-m 2;
#X obj 290 305 r \$0-set-GUI;
#X obj 290 386 s \$0-uncollapse;
#X obj 313 359 s \$0-collapse;
#X obj 290 331 sel 1 0;
#X obj 28 16 r \$0-collapse;
#X obj 290 447 message \; pd-\$0-super vis 1;
#X obj 28 184 else/message \; \$0-button readonly 0 \, transparent 2 \; pd-\$0-super donecanvasdialog 1 1 1 0 0 1 1 174 277 15 15 \, vis 0 \; \$0-cnv color #bbbbbb #000000 #000000 \; \$0-m goprect 50 50 190 308 \, dirty 0 \; \$0-GUI 1;
#X obj 28 45 else/message \; \$0-button readonly 1 \, transparent 3 \; pd-\$0-super donecanvasdialog 1 1 0 0 0 1 1 174 277 15 15 \; \$0-cnv color #dbdbdb #000000 #dbdbdb \; \$0-m goprect 50 400 170 44 \, dirty 0 \; \$0-GUI 0;
#X obj 526 54 r \$0-detatch-hover;
#X obj 601 420 s \$0-label-collapsed;
#X obj 578 286 sel 0 1;
#X obj 508 284 loadbang;
#X obj 546 83 else/canvas.edit 3;
#X obj 578 258 change;
#X obj 546 169 sel 1;
#X obj 526 196 f;
#X obj 546 142 t f f, f 10;
#X obj 546 112 == 0;
#X obj 526 222 spigot;
#X msg 576 368 label SUPER-OSC \, label_font 0 24 \, label_pos 2 15, f 33;
#X msg 601 319 label ⤢ \, label_font 0 48 \, label_pos 57 12, f 25;
#X connect 0 0 9 0;
#X connect 1 0 8 0;
#X connect 3 0 6 0;
#X connect 6 0 4 0;
#X connect 6 1 5 0;
#X connect 7 0 10 0;
#X connect 11 0 18 0;
#X connect 13 0 22 0;
#X connect 13 1 23 0;
#X connect 14 0 22 0;
#X connect 15 0 20 0;
#X connect 16 0 13 0;
#X connect 17 0 18 0;
#X connect 17 1 16 0;
#X connect 18 0 21 0;
#X connect 19 0 17 0;
#X connect 19 1 21 1;
#X connect 20 0 19 0;
#X connect 21 0 16 0;
#X connect 22 0 12 0;
#X connect 23 0 12 0;
#X restore 130 43 pd collapse;
#N canvas 720 92 732 655 tab 0;
#X msg 168 114 active 0;
#X msg 148 174 active 1;
#X msg 171 292 active 0;
#X msg 152 352 active 1;
#X msg 463 118 active 0;
#X msg 443 178 active 1;
#X msg 466 296 active 0;
#X msg 447 356 active 1;
#X msg 171 472 active 0;
#X msg 152 532 active 1;
#X msg 466 476 active 0;
#X msg 447 536 active 1;
#X obj 168 142 s \$0-set-PWM;
#X obj 149 85 r \$0-PWM-tab;
#X obj 148 202 s \$0-set-detune;
#X obj 152 263 r \$0-detune-tab;
#X obj 171 320 s \$0-set-detune;
#X obj 152 380 s \$0-set-transp;
#X obj 152 443 r \$0-transp-tab;
#X obj 171 500 s \$0-set-transp;
#X obj 152 560 s \$0-set-PWM;
#X obj 444 89 r \$0-att-fm-tab;
#X obj 463 146 s \$0-set-att-fm;
#X obj 447 564 s \$0-set-att-fm;
#X obj 443 206 s \$0-set-att-pwm;
#X obj 447 267 r \$0-att-pwm-tab;
#X obj 466 324 s \$0-set-att-pwm;
#X obj 447 384 s \$0-set-att-detune;
#X obj 447 447 r \$0-att-detune-tab;
#X obj 466 504 s \$0-set-att-detune;
#X connect 0 0 12 0;
#X connect 1 0 14 0;
#X connect 2 0 16 0;
#X connect 3 0 17 0;
#X connect 4 0 22 0;
#X connect 5 0 24 0;
#X connect 6 0 26 0;
#X connect 7 0 27 0;
#X connect 8 0 19 0;
#X connect 9 0 20 0;
#X connect 10 0 29 0;
#X connect 11 0 23 0;
#X connect 13 0 0 0;
#X connect 13 0 1 0;
#X connect 15 0 2 0;
#X connect 15 0 3 0;
#X connect 18 0 8 0;
#X connect 18 0 9 0;
#X connect 21 0 4 0;
#X connect 21 0 5 0;
#X connect 25 0 6 0;
#X connect 25 0 7 0;
#X connect 28 0 10 0;
#X connect 28 0 11 0;
#X restore 163 341 pd tab;
#N canvas 664 100 806 564 att-fm 0;
#X obj 60 124 sel 0 1;
#X msg 60 215 set;
#X obj 172 142 spigot;
#X msg 172 437 set \$1;
#X obj 172 405 else/format %.2f;
#X msg 303 425 set \$1|;
#X obj 60 57 else/hot;
#X obj 60 87 ||;
#X obj 73 185 loadbang;
#X obj 510 375 expr copysign(sqrt(abs($f1)) \, $f1);
#X obj 463 183 expr copysign(pow($f1 \, 2) \, $f1);
#X obj 172 213 expr copysign(pow($f1 \, 2) \, $f1);
#X msg 510 438 set \$1;
#X obj 486 332 else/nmess 1;
#X obj 567 307 b;
#X obj 60 25 r \$0-att-fm-hover;
#X obj 129 55 r \$0-att-fm-active;
#X obj 298 58 r \$0-att-fm;
#X obj 193 181 v \$0-att-fm;
#X obj 486 250 r \$0-att-fm-enter;
#X obj 303 251 r \$0-att-fm-typing;
#X obj 524 405 v \$0-att-fm;
#X obj 510 465 s \$0-att-fm-decay;
#X obj 172 478 s \$0-att-fm#;
#X obj 463 508 s \$0-real-att-fm;
#X connect 0 0 1 0;
#X connect 0 1 18 0;
#X connect 1 0 23 0;
#X connect 2 0 11 0;
#X connect 3 0 23 0;
#X connect 4 0 3 0;
#X connect 5 0 23 0;
#X connect 6 0 7 0;
#X connect 6 1 7 1;
#X connect 7 0 0 0;
#X connect 7 0 2 1;
#X connect 8 0 1 0;
#X connect 9 0 12 0;
#X connect 9 0 21 0;
#X connect 10 0 24 0;
#X connect 11 0 4 0;
#X connect 12 0 22 0;
#X connect 13 0 9 0;
#X connect 13 0 4 0;
#X connect 13 0 24 0;
#X connect 14 0 13 1;
#X connect 15 0 6 0;
#X connect 16 0 6 1;
#X connect 17 0 2 0;
#X connect 17 0 10 0;
#X connect 18 0 11 0;
#X connect 19 0 13 0;
#X connect 20 0 5 0;
#X connect 20 0 14 0;
#X restore 158 396 pd att-fm;
#N canvas 664 100 806 564 att-pwm 0;
#X obj 60 124 sel 0 1;
#X msg 60 215 set;
#X obj 172 142 spigot;
#X msg 172 437 set \$1;
#X obj 172 405 else/format %.2f;
#X msg 303 425 set \$1|;
#X obj 60 57 else/hot;
#X obj 60 87 ||;
#X obj 73 185 loadbang;
#X obj 510 375 expr copysign(sqrt(abs($f1)) \, $f1);
#X obj 463 183 expr copysign(pow($f1 \, 2) \, $f1);
#X obj 172 213 expr copysign(pow($f1 \, 2) \, $f1);
#X msg 510 438 set \$1;
#X obj 486 332 else/nmess 1;
#X obj 567 307 b;
#X obj 60 25 r \$0-att-pwm-hover;
#X obj 129 55 r \$0-att-pwm-active;
#X obj 298 58 r \$0-att-pwm;
#X obj 193 181 v \$0-att-pwm;
#X obj 303 251 r \$0-att-pwm-typing;
#X obj 486 250 r \$0-att-pwm-enter;
#X obj 524 405 v \$0-att-pwm;
#X obj 510 465 s \$0-att-pwm-decay;
#X obj 172 478 s \$0-att-pwm#;
#X obj 463 508 s \$0-real-att-pwm;
#X connect 0 0 1 0;
#X connect 0 1 18 0;
#X connect 1 0 23 0;
#X connect 2 0 11 0;
#X connect 3 0 23 0;
#X connect 4 0 3 0;
#X connect 5 0 23 0;
#X connect 6 0 7 0;
#X connect 6 1 7 1;
#X connect 7 0 0 0;
#X connect 7 0 2 1;
#X connect 8 0 1 0;
#X connect 9 0 12 0;
#X connect 9 0 21 0;
#X connect 10 0 24 0;
#X connect 11 0 4 0;
#X connect 12 0 22 0;
#X connect 13 0 9 0;
#X connect 13 0 4 0;
#X connect 13 0 24 0;
#X connect 14 0 13 1;
#X connect 15 0 6 0;
#X connect 16 0 6 1;
#X connect 17 0 2 0;
#X connect 17 0 10 0;
#X connect 18 0 11 0;
#X connect 19 0 5 0;
#X connect 19 0 14 0;
#X connect 20 0 13 0;
#X restore 158 422 pd att-pwm;
#N canvas 525 110 806 564 att-detune 0;
#X obj 60 124 sel 0 1;
#X msg 60 215 set;
#X obj 172 142 spigot;
#X msg 172 437 set \$1;
#X obj 172 405 else/format %.2f;
#X msg 303 425 set \$1|;
#X obj 60 57 else/hot;
#X obj 60 87 ||;
#X obj 73 185 loadbang;
#X obj 518 375 expr copysign(sqrt(abs($f1)) \, $f1);
#X obj 471 183 expr copysign(pow($f1 \, 2) \, $f1);
#X obj 172 213 expr copysign(pow($f1 \, 2) \, $f1);
#X msg 518 438 set \$1;
#X obj 494 332 else/nmess 1;
#X obj 575 307 b;
#X obj 60 25 r \$0-att-detune-hover;
#X obj 129 55 r \$0-att-detune-active;
#X obj 298 58 r \$0-att-detune;
#X obj 193 181 v \$0-att-detune;
#X obj 303 251 r \$0-att-detune-typing;
#X obj 494 250 r \$0-att-detune-enter;
#X obj 532 405 v \$0-att-detune;
#X obj 518 465 s \$0-att-detune;
#X obj 172 478 s \$0-att-detune#;
#X obj 471 508 s \$0-real-att-detune;
#X connect 0 0 1 0;
#X connect 0 1 18 0;
#X connect 1 0 23 0;
#X connect 2 0 11 0;
#X connect 3 0 23 0;
#X connect 4 0 3 0;
#X connect 5 0 23 0;
#X connect 6 0 7 0;
#X connect 6 1 7 1;
#X connect 7 0 0 0;
#X connect 7 0 2 1;
#X connect 8 0 1 0;
#X connect 9 0 12 0;
#X connect 9 0 21 0;
#X connect 10 0 24 0;
#X connect 11 0 4 0;
#X connect 12 0 22 0;
#X connect 13 0 9 0;
#X connect 13 0 4 0;
#X connect 13 0 24 0;
#X connect 14 0 13 1;
#X connect 15 0 6 0;
#X connect 16 0 6 1;
#X connect 17 0 2 0;
#X connect 17 0 10 0;
#X connect 18 0 11 0;
#X connect 19 0 5 0;
#X connect 19 0 14 0;
#X connect 20 0 13 0;
#X restore 158 448 pd att-detune;
#X connect 0 0 1 1;
#X connect 0 0 5 0;
#X connect 1 0 3 0;
#X connect 1 1 4 0;
#X connect 2 0 1 0;
#X connect 3 0 6 0;
#X connect 4 0 6 0;
#X connect 5 0 3 0;
#X connect 5 1 4 0;
#X connect 6 0 7 0;
#X connect 8 0 3 0;
#X connect 9 0 4 0;
#X restore 555 216 pd GUI;
#X text 106 51 FM;
#X text 289 101 transp;
#N canvas 170 185 588 489 preset 0;
#X msg 121 98 name \$1;
#X obj 98 182 else/receiver;
#X obj 123 222 route list;
#N canvas 596 76 470 347 id-name-init 0;
#X obj 165 113 + 1;
#X obj 257 100 else/dollsym 1;
#X obj 141 80 value;
#X obj 141 252 outlet;
#X obj 141 51 else/loadbanger 2;
#X obj 141 201 else/dollsym 1;
#X obj 257 76 symbol sposc-id_\\\$0;
#X obj 141 166 makefilename \\\$0-sposc-%d;
#X connect 0 0 2 0;
#X connect 1 0 2 1;
#X connect 2 0 0 0;
#X connect 2 0 7 0;
#X connect 4 0 2 0;
#X connect 4 1 6 0;
#X connect 5 0 3 0;
#X connect 6 0 1 0;
#X connect 7 0 5 0;
#X restore 97 46 pd id-name-init;
#X obj 123 258 else/dispatch \$0-set-transp \$0-set-lin \$0-set-PWM-saw \$0-set-PWM-square \$0-set-waveform \$0-set-detune \$0-set-att-fm \$0-set-att-pwm \$0-set-att-detune;
#X obj 98 331 else/var \$0-transp \$0-lin \$0-PWM-saw \$0-PWM-square \$0-waveform \$0-detune \$0-att-fm \$0-att-pwm \$0-att-detune;
#X obj 121 133 else/sender 1 \\\$0-presets;
#X connect 0 0 6 0;
#X connect 1 0 2 0;
#X connect 1 0 5 0;
#X connect 2 0 4 0;
#X connect 3 0 0 0;
#X connect 3 0 1 0;
#X restore 613 216 pd preset;
#N canvas 435 427 616 344 init-savestate 0;
#X obj 81 85 savestate;
#X obj 56 28 loadbang;
#X obj 56 176 list;
#X obj 81 118 list trim;
#X obj 81 148 route list;
#X obj 56 261 else/dispatch \$0-set-transp \$0-set-lin \$0-set-PWM-saw \$0-set-PWM-square \$0-set-waveform \$0-set-detune \$0-set-att-fm \$0-set-att-pwm \$0-set-att-detune \$0-set-GUI;
#X obj 166 22 else/var \$0-transp \$0-lin \$0-PWM-saw \$0-PWM-square \$0-waveform \$0-detune \$0-att-fm \$0-att-pwm \$0-att-detune \$0-GUI, f 41;
#X obj 56 216 else/default 0 0 0 0.5 0 0 0 0 0 1;
#X connect 0 0 3 0;
#X connect 0 1 6 0;
#X connect 1 0 2 0;
#X connect 2 0 7 0;
#X connect 3 0 4 0;
#X connect 4 0 2 1;
#X connect 6 0 0 0;
#X connect 7 0 5 0;
#X restore 556 178 pd init-savestate;
#N canvas 774 221 1033 669 inputs 0;
#X obj 55 49 inlet~;
#X obj 237 49 inlet~;
#X obj 155 368 mtof~;
#X obj 155 338 +~;
#X obj 55 243 +~;
#X obj 173 237 *~ 1;
#X obj 218 443 +~;
#X obj 237 309 *~ 0;
#X obj 262 117 r \$0-lin;
#X obj 198 208 == 0;
#X obj 173 266 *~ 60;
#X obj 304 210 else/f2s~ 10;
#X obj 173 312 *~;
#X obj 237 339 *~ 1250;
#N canvas 137 120 311 304 transp 0;
#X obj 59 36 inlet~;
#X obj 91 95 sel 0;
#X msg 91 119 60;
#X msg 123 159 0;
#X obj 91 71 r \$0-midi;
#X obj 66 236 outlet~;
#X obj 59 162 *~ 1;
#X obj 66 192 +~ 0;
#X connect 0 0 6 0;
#X connect 1 0 2 0;
#X connect 1 1 3 0;
#X connect 1 1 6 1;
#X connect 2 0 6 1;
#X connect 2 0 7 1;
#X connect 3 0 7 1;
#X connect 4 0 1 0;
#X connect 6 0 7 0;
#X connect 7 0 5 0;
#X restore 55 121 pd transp;
#X obj 218 595 outlet~;
#X obj 578 49 inlet~;
#X obj 578 284 *~;
#X obj 596 233 else/f2s~ 10;
#X obj 581 595 outlet~;
#X obj 780 49 inlet~;
#X obj 780 595 outlet~;
#X obj 780 274 *~;
#X obj 828 308 else/f2s~ 10;
#X obj 286 397 *~;
#X obj 218 509 ftom~;
#X obj 218 475 clip~ 0 20000;
#X obj 218 541 else/quantizer~ 1e-05;
#X text 86 540 later rethink -->;
#X obj 641 329 r \$0-PWM;
#X obj 631 364 else/f2s~ 10;
#X obj 580 418 +~;
#X obj 831 410 else/f2s~ 10;
#X obj 780 384 +~;
#X obj 831 359 r \$0-detune;
#X obj 428 595 outlet;
#X obj 429 453 r \$0-waveform;
#X obj 429 484 sel 0 1;
#X msg 429 519 saw;
#X msg 469 529 square;
#X obj 631 274 r \$0-set-PWM;
#X obj 631 298 route set;
#X obj 780 494 clip~ 0 75;
#X obj 304 183 r \$0-real-att-fm;
#X obj 596 179 r \$0-real-att-pwm;
#X obj 828 253 r \$0-real-att-detune;
#X obj 580 508 clip~ 0 1;
#X obj 596 203 * 0.5;
#X obj 831 384 / 75;
#X obj 828 277 * 0.5;
#X obj 780 448 *~ 75;
#X obj 73 188 else/f2s~ 10;
#X obj 74 161 r \$0-transp;
#X connect 0 0 14 0;
#X connect 1 0 5 0;
#X connect 1 0 7 0;
#X connect 2 0 6 0;
#X connect 3 0 2 0;
#X connect 4 0 3 0;
#X connect 5 0 10 0;
#X connect 6 0 26 0;
#X connect 7 0 13 0;
#X connect 8 0 9 0;
#X connect 8 0 7 1;
#X connect 9 0 5 1;
#X connect 10 0 12 0;
#X connect 11 0 12 1;
#X connect 11 0 24 1;
#X connect 12 0 3 1;
#X connect 13 0 24 0;
#X connect 14 0 4 0;
#X connect 16 0 17 0;
#X connect 17 0 31 0;
#X connect 18 0 17 1;
#X connect 20 0 22 0;
#X connect 22 0 33 0;
#X connect 23 0 22 1;
#X connect 24 0 6 1;
#X connect 25 0 27 0;
#X connect 26 0 25 0;
#X connect 27 0 15 0;
#X connect 29 0 30 0;
#X connect 30 0 31 1;
#X connect 31 0 46 0;
#X connect 32 0 33 1;
#X connect 33 0 50 0;
#X connect 34 0 48 0;
#X connect 36 0 37 0;
#X connect 37 0 38 0;
#X connect 37 1 39 0;
#X connect 38 0 35 0;
#X connect 39 0 35 0;
#X connect 40 0 41 0;
#X connect 41 0 30 0;
#X connect 42 0 21 0;
#X connect 43 0 11 0;
#X connect 44 0 47 0;
#X connect 45 0 49 0;
#X connect 46 0 19 0;
#X connect 47 0 18 0;
#X connect 48 0 32 0;
#X connect 49 0 23 0;
#X connect 50 0 42 0;
#X connect 51 0 4 1;
#X connect 52 0 51 0;
#X restore 286 190 pd inputs;
#X f 33;
#X obj 513 124 inlet~;
#X text 163 51 PWM;
#N canvas 67 149 491 441 route 0;
#X obj 78 22 inlet;
#X obj 191 312 s \$0-set-PWM;
#X obj 94 383 s \$0-set-waveform;
#X obj 269 188 s \$0-set-att-pwm;
#X obj 285 160 s \$0-set-att-detune;
#X msg 70 158 0, f 1;
#X msg 94 158 1, f 1;
#X obj 154 347 s \$0-set-transp;
#X obj 228 277 s \$0-set-lin;
#X obj 244 241 s \$0-set-detune;
#X obj 259 213 s \$0-set-att-fm;
#X obj 78 56 route saw square transp pwm lin detune att_fm att_pwm att_detune gui, f 36;
#X obj 308 104 != 0;
#X obj 308 130 s \$0-set-GUI;
#X connect 0 0 11 0;
#X connect 5 0 2 0;
#X connect 6 0 2 0;
#X connect 11 0 5 0;
#X connect 11 1 6 0;
#X connect 11 2 7 0;
#X connect 11 3 1 0;
#X connect 11 4 8 0;
#X connect 11 5 9 0;
#X connect 11 6 10 0;
#X connect 11 7 3 0;
#X connect 11 8 4 0;
#X connect 11 9 12 0;
#X connect 12 0 13 0;
#X restore 345 162 pd route;
#X text 50 51 Freq;
#X obj 285 68 else/initmess 60;
#X obj 286 246 else/superosc~ -midi, f 33;
#X obj 514 322 outlet~;
#X text 446 101 PWM;
#X text 514 101 DETUNE;
#X text 194 51 DETUNE;
#N canvas 918 107 207 308 \$0-super 0;
#N canvas 320 202 312 401 (subpatch) 0;
#X obj 51 51 cnv 19 172 275 empty empty empty 20 12 0 12 #e0e0e0 #404040 0;
#X obj 157 122 else/knob 50 -24 24 0 0 \$0-transp \$0-set-transp #dfdfdf #7c7c7c #000000 0 0 73 1 1 320 0 0 0 empty empty 4 10 3 56 0 0 0 0 0 0;
#X obj 55 59 else/note 141 24 Inter empty 5 54 54 54 0 187 187 187 1 0 SUPER-OSC;
#X obj 64 142 else/knob 40 0 1 0 0.5 \$0-PWM \$0-set-PWM #dfdfdf #7c7c7c #000000 0 0 0 0 1 320 0 0 0.5 empty empty 4 11 -2 45 0 0 0 0 0 0;
#X obj 72 280 else/knob 35 -1 1 0 0 \$0-att-fm \$0-set-att-fm #bbbbbb #7c7c7c black 0 0 0 0 1 320 0 0 0 empty empty 0 8 0 0 0 0 0 0 0 0;
#X obj 121 280 else/knob 35 -1 1 0 0 \$0-att-pwm \$0-set-att-pwm #bbbbbb #7c7c7c black 0 0 0 0 1 320 0 0 0 empty empty 0 8 0 0 0 0 0 0 0 0;
#X text 79 264 FM;
#X text 124 264 PWM;
#X obj 170 280 else/knob 35 -1 1 0 0 \$0-att-detune \$0-set-att-detune #bbbbbb #7c7c7c #000000 0 0 0 0 1 320 0 0 0 empty empty 0 8 0 0 0 0 0 0 0 0;
#X text 106 153 PWM;
#X obj 56 113 else/popmenu 75 26 12 #dfdfdf black \  \$0-set-waveform \$0-waveform empty empty 0 0 -1 1 0 1 0 0 0 0 0 saw square;
#X text 196 203 Lin FM, f 3;
#X obj 64 195 else/knob 40 0 75 0 0 \$0-detune \$0-set-detune #dfdfdf #7c7c7c #000000 0 0 0 0 1 320 0 0 0 empty empty 4 11 -2 45 0 0 0 0 0 0;
#X text 166 264 DETUNE;
#X obj 201 59 else/button 19 31 #e0e0e0 #808080 2 1 2 0 0 \$0-collapse \$0-button;
#X obj 202 60 cnv 10 17 15 empty \$0-cnv ▼ 5 8 0 12 #bbbbbb #000000 0;
#X obj 202 74 cnv 10 17 15 empty \$0-cnv ▲ 5 5 0 12 #bbbbbb #000000 0;
#X obj 170 206 else/button 25 25 #f5f5f5 #808080 1 1 0 1 0 \$0-lin \$0-set-lin;
#X text 54 247 ---- Attenuverters ----;
#X text 106 207 Detune;
#X text 62 99 Waveform:;
#X obj 68 314 else/note 40 10 Menlo \$0-att-fm# 0 0 0 0 0 255 255 255 0 1;
#X obj 119 314 else/note 40 10 Menlo \$0-att-pwm# 0 0 0 0 0 255 255 255 0 1;
#X obj 168 314 else/note 40 10 Menlo \$0-att-detune# 0 0 0 0 0 255 255 255 0 1;
#X text 159 102 Transp;
#X coords 0 1 100 -1 174 277 1 50 50;
#X restore 15 15 graph;
#X coords 0 0 1 1 174 277 1 15 15;
#X restore 58 75 pd \$0-super;
#X obj 56 407 cnv 19 134 29 empty \$0-label-collapsed SUPER-OSC 2 15 0 24 #bbbbbb #000000 0;
#X obj 55 406 else/button 136 31 #bbbbbb #bbbbbb 2 1 2 0 0 \$0-detatch \$0-uncollapse-set;
#X obj 197 407 cnv 10 17 15 empty empty ▲ 5 8 0 12 #bbbbbb #000000 0;
#X obj 197 421 cnv 10 17 15 empty empty ▼ 5 5 0 12 #bbbbbb #000000 0;
#X obj 196 406 else/button 19 31 #e0e0e0 #808080 2 1 2 0 0 \$0-uncollapse empty;
#N canvas 632 218 257 289 Learn 0;
#N canvas 357 38 761 758 transp 0;
#X msg 173 469 forget;
#X obj 40 532 else/midi.learn 1;
#A saved;
#X obj 40 600 t f b;
#X obj 40 112 else/format \$0-%s-learn, f 11;
#X obj 40 162 else/receiver;
#X obj 173 195 else/receiver;
#X msg 90 259 Learn for \$1 knob activated, f 9;
#X obj 90 207 symbol;
#X obj 205 345 symbol;
#X msg 205 378 Forget for \$1 knob;
#X obj 473 721 else/format \$0-set-%s;
#X obj 187 405 print [adsr.m~]:;
#X msg 442 311 learn;
#X msg 467 348 forget;
#X obj 432 403 else/receiver 1;
#X obj 564 401 else/route2 none;
#X msg 564 448 none;
#X obj 173 166 else/format \$0-%s-forget;
#X obj 189 121 else/sender -local sym;
#X obj 260 339 else/receiver -local sym, f 13;
#X obj 473 694 else/receiver -local sym;
#N canvas 268 234 610 478 savestate 0;
#X obj 235 409 outlet;
#X obj 101 283 route bang;
#X obj 339 213 else/format rcv-%s;
#X obj 101 255 route x, f 9;
#X obj 101 224 list trim;
#X obj 168 317 route none;
#X obj 235 359 symbol;
#X obj 239 215 list;
#X obj 264 159 list prepend, f 7;
#X obj 101 164 savestate;
#X obj 263 41 inlet;
#X obj 342 41 inlet;
#X obj 367 135 print [receiver] learn:;
#X obj 367 104 list trim;
#X connect 1 1 5 0;
#X connect 1 1 8 0;
#X connect 2 0 3 1;
#X connect 2 0 8 1;
#X connect 3 0 1 0;
#X connect 4 0 3 0;
#X connect 5 1 6 0;
#X connect 6 0 0 0;
#X connect 7 0 9 0;
#X connect 8 0 7 1;
#X connect 9 0 4 0;
#X connect 9 1 7 0;
#X connect 10 0 8 0;
#X connect 10 0 13 0;
#X connect 11 0 2 0;
#X connect 13 0 12 0;
#X restore 564 495 pd savestate;
#X obj 645 454 else/receiver -local sym, f 13;
#N canvas 251 108 631 527 savestate 0;
#X obj 168 340 outlet;
#X obj 101 261 route bang;
#X obj 101 233 route x, f 9;
#X obj 101 202 list trim;
#X obj 239 193 list;
#X obj 264 137 list prepend, f 7;
#X obj 101 142 savestate;
#X obj 263 79 inlet;
#X obj 342 96 inlet;
#X obj 339 191 else/format %s-learn;
#X obj 168 295 else/insert teach;
#X connect 1 1 5 0;
#X connect 1 1 10 0;
#X connect 2 0 1 0;
#X connect 3 0 2 0;
#X connect 4 0 6 0;
#X connect 5 0 4 1;
#X connect 6 0 3 0;
#X connect 6 1 4 0;
#X connect 7 0 5 0;
#X connect 8 0 9 0;
#X connect 9 0 2 1;
#X connect 9 0 5 1;
#X connect 10 0 0 0;
#X restore 156 579 pd savestate;
#X obj 237 550 else/receiver -local sym;
#X obj 173 22 else/loadbanger -init;
#X obj 433 706 s;
#X msg 40 453 learn;
#X obj 40 200 t b b;
#X obj 173 277 t b b;
#X obj 40 506 else/changed;
#X obj 442 375 else/changed;
#X obj 72 398 send \$0-deactivate, f 13;
#X msg 72 370 deactivate;
#X obj 187 433 r \$0-deactivate;
#X obj 431 266 r \$0-deactivate;
#X obj 173 55 symbol transp;
#X obj 433 659 else/rescale -24 24;
#X connect 0 0 30 0;
#X connect 1 0 2 0;
#X connect 1 1 23 0;
#X connect 2 0 37 0;
#X connect 2 1 13 0;
#X connect 3 0 4 0;
#X connect 4 0 28 0;
#X connect 5 0 29 0;
#X connect 6 0 11 0;
#X connect 7 0 6 0;
#X connect 8 0 9 0;
#X connect 9 0 11 0;
#X connect 10 0 26 1;
#X connect 12 0 31 0;
#X connect 13 0 31 0;
#X connect 14 0 37 0;
#X connect 14 1 15 0;
#X connect 15 0 16 0;
#X connect 15 1 21 0;
#X connect 15 1 0 0;
#X connect 16 0 21 0;
#X connect 17 0 5 0;
#X connect 19 0 8 1;
#X connect 20 0 10 0;
#X connect 21 0 14 0;
#X connect 22 0 21 1;
#X connect 23 0 1 0;
#X connect 24 0 23 1;
#X connect 25 0 36 0;
#X connect 27 0 30 0;
#X connect 28 0 27 0;
#X connect 28 0 12 0;
#X connect 28 1 7 0;
#X connect 28 1 33 0;
#X connect 29 0 0 0;
#X connect 29 0 13 0;
#X connect 29 1 8 0;
#X connect 30 0 1 0;
#X connect 31 0 14 0;
#X connect 33 0 32 0;
#X connect 34 0 30 0;
#X connect 35 0 14 0;
#X connect 36 0 3 0;
#X connect 36 0 17 0;
#X connect 36 0 18 0;
#X connect 36 0 7 1;
#X connect 37 0 26 0;
#X restore 67 57 pd transp;
#N canvas 357 38 761 758 PWM 0;
#X msg 173 469 forget;
#X obj 40 532 else/midi.learn 1;
#A saved;
#X obj 40 600 t f b;
#X obj 40 112 else/format \$0-%s-learn, f 11;
#X obj 40 162 else/receiver;
#X obj 173 195 else/receiver;
#X msg 90 259 Learn for \$1 knob activated, f 9;
#X obj 90 207 symbol;
#X obj 205 345 symbol;
#X msg 205 378 Forget for \$1 knob;
#X obj 473 721 else/format \$0-set-%s;
#X obj 187 405 print [adsr.m~]:;
#X msg 442 311 learn;
#X msg 467 348 forget;
#X obj 432 403 else/receiver 1;
#X obj 564 401 else/route2 none;
#X msg 564 448 none;
#X obj 173 166 else/format \$0-%s-forget;
#X obj 189 121 else/sender -local sym;
#X obj 260 339 else/receiver -local sym, f 13;
#X obj 473 694 else/receiver -local sym;
#N canvas 268 234 610 478 savestate 0;
#X obj 235 409 outlet;
#X obj 101 283 route bang;
#X obj 339 213 else/format rcv-%s;
#X obj 101 255 route x, f 9;
#X obj 101 224 list trim;
#X obj 168 317 route none;
#X obj 235 359 symbol;
#X obj 239 215 list;
#X obj 264 159 list prepend, f 7;
#X obj 101 164 savestate;
#X obj 263 41 inlet;
#X obj 342 41 inlet;
#X obj 367 135 print [receiver] learn:;
#X obj 367 104 list trim;
#X connect 1 1 5 0;
#X connect 1 1 8 0;
#X connect 2 0 3 1;
#X connect 2 0 8 1;
#X connect 3 0 1 0;
#X connect 4 0 3 0;
#X connect 5 1 6 0;
#X connect 6 0 0 0;
#X connect 7 0 9 0;
#X connect 8 0 7 1;
#X connect 9 0 4 0;
#X connect 9 1 7 0;
#X connect 10 0 8 0;
#X connect 10 0 13 0;
#X connect 11 0 2 0;
#X connect 13 0 12 0;
#X restore 564 495 pd savestate;
#X obj 645 454 else/receiver -local sym, f 13;
#N canvas 251 108 631 527 savestate 0;
#X obj 168 340 outlet;
#X obj 101 261 route bang;
#X obj 101 233 route x, f 9;
#X obj 101 202 list trim;
#X obj 239 193 list;
#X obj 264 137 list prepend, f 7;
#X obj 101 142 savestate;
#X obj 263 79 inlet;
#X obj 342 96 inlet;
#X obj 339 191 else/format %s-learn;
#X obj 168 295 else/insert teach;
#X connect 1 1 5 0;
#X connect 1 1 10 0;
#X connect 2 0 1 0;
#X connect 3 0 2 0;
#X connect 4 0 6 0;
#X connect 5 0 4 1;
#X connect 6 0 3 0;
#X connect 6 1 4 0;
#X connect 7 0 5 0;
#X connect 8 0 9 0;
#X connect 9 0 2 1;
#X connect 9 0 5 1;
#X connect 10 0 0 0;
#X restore 156 579 pd savestate;
#X obj 237 550 else/receiver -local sym;
#X obj 173 22 else/loadbanger -init;
#X obj 433 706 s;
#X msg 40 453 learn;
#X obj 40 200 t b b;
#X obj 173 277 t b b;
#X obj 40 506 else/changed;
#X obj 442 375 else/changed;
#X obj 72 398 send \$0-deactivate, f 13;
#X msg 72 370 deactivate;
#X obj 187 433 r \$0-deactivate;
#X obj 431 266 r \$0-deactivate;
#X obj 173 55 symbol PWM;
#X obj 433 659 else/rescale 0 1;
#X connect 0 0 30 0;
#X connect 1 0 2 0;
#X connect 1 1 23 0;
#X connect 2 0 37 0;
#X connect 2 1 13 0;
#X connect 3 0 4 0;
#X connect 4 0 28 0;
#X connect 5 0 29 0;
#X connect 6 0 11 0;
#X connect 7 0 6 0;
#X connect 8 0 9 0;
#X connect 9 0 11 0;
#X connect 10 0 26 1;
#X connect 12 0 31 0;
#X connect 13 0 31 0;
#X connect 14 0 37 0;
#X connect 14 1 15 0;
#X connect 15 0 16 0;
#X connect 15 1 21 0;
#X connect 15 1 0 0;
#X connect 16 0 21 0;
#X connect 17 0 5 0;
#X connect 19 0 8 1;
#X connect 20 0 10 0;
#X connect 21 0 14 0;
#X connect 22 0 21 1;
#X connect 23 0 1 0;
#X connect 24 0 23 1;
#X connect 25 0 36 0;
#X connect 27 0 30 0;
#X connect 28 0 27 0;
#X connect 28 0 12 0;
#X connect 28 1 7 0;
#X connect 28 1 33 0;
#X connect 29 0 0 0;
#X connect 29 0 13 0;
#X connect 29 1 8 0;
#X connect 30 0 1 0;
#X connect 31 0 14 0;
#X connect 33 0 32 0;
#X connect 34 0 30 0;
#X connect 35 0 14 0;
#X connect 36 0 3 0;
#X connect 36 0 17 0;
#X connect 36 0 18 0;
#X connect 36 0 7 1;
#X connect 37 0 26 0;
#X restore 67 81 pd PWM;
#N canvas 357 38 761 758 detune 0;
#X msg 173 469 forget;
#X obj 40 532 else/midi.learn 1;
#A saved;
#X obj 40 600 t f b;
#X obj 40 112 else/format \$0-%s-learn, f 11;
#X obj 40 162 else/receiver;
#X obj 173 195 else/receiver;
#X msg 90 259 Learn for \$1 knob activated, f 9;
#X obj 90 207 symbol;
#X obj 205 345 symbol;
#X msg 205 378 Forget for \$1 knob;
#X obj 473 721 else/format \$0-set-%s;
#X obj 187 405 print [adsr.m~]:;
#X msg 442 311 learn;
#X msg 467 348 forget;
#X obj 432 403 else/receiver 1;
#X obj 564 401 else/route2 none;
#X msg 564 448 none;
#X obj 173 166 else/format \$0-%s-forget;
#X obj 189 121 else/sender -local sym;
#X obj 260 339 else/receiver -local sym, f 13;
#X obj 473 694 else/receiver -local sym;
#N canvas 268 234 610 478 savestate 0;
#X obj 235 409 outlet;
#X obj 101 283 route bang;
#X obj 339 213 else/format rcv-%s;
#X obj 101 255 route x, f 9;
#X obj 101 224 list trim;
#X obj 168 317 route none;
#X obj 235 359 symbol;
#X obj 239 215 list;
#X obj 264 159 list prepend, f 7;
#X obj 101 164 savestate;
#X obj 263 41 inlet;
#X obj 342 41 inlet;
#X obj 367 135 print [receiver] learn:;
#X obj 367 104 list trim;
#X connect 1 1 5 0;
#X connect 1 1 8 0;
#X connect 2 0 3 1;
#X connect 2 0 8 1;
#X connect 3 0 1 0;
#X connect 4 0 3 0;
#X connect 5 1 6 0;
#X connect 6 0 0 0;
#X connect 7 0 9 0;
#X connect 8 0 7 1;
#X connect 9 0 4 0;
#X connect 9 1 7 0;
#X connect 10 0 8 0;
#X connect 10 0 13 0;
#X connect 11 0 2 0;
#X connect 13 0 12 0;
#X restore 564 495 pd savestate;
#X obj 645 454 else/receiver -local sym, f 13;
#N canvas 251 108 631 527 savestate 0;
#X obj 168 340 outlet;
#X obj 101 261 route bang;
#X obj 101 233 route x, f 9;
#X obj 101 202 list trim;
#X obj 239 193 list;
#X obj 264 137 list prepend, f 7;
#X obj 101 142 savestate;
#X obj 263 79 inlet;
#X obj 342 96 inlet;
#X obj 339 191 else/format %s-learn;
#X obj 168 295 else/insert teach;
#X connect 1 1 5 0;
#X connect 1 1 10 0;
#X connect 2 0 1 0;
#X connect 3 0 2 0;
#X connect 4 0 6 0;
#X connect 5 0 4 1;
#X connect 6 0 3 0;
#X connect 6 1 4 0;
#X connect 7 0 5 0;
#X connect 8 0 9 0;
#X connect 9 0 2 1;
#X connect 9 0 5 1;
#X connect 10 0 0 0;
#X restore 156 579 pd savestate;
#X obj 237 550 else/receiver -local sym;
#X obj 173 22 else/loadbanger -init;
#X obj 433 706 s;
#X msg 40 453 learn;
#X obj 40 200 t b b;
#X obj 173 277 t b b;
#X obj 40 506 else/changed;
#X obj 442 375 else/changed;
#X obj 72 398 send \$0-deactivate, f 13;
#X msg 72 370 deactivate;
#X obj 187 433 r \$0-deactivate;
#X obj 431 266 r \$0-deactivate;
#X obj 173 55 symbol detune;
#X obj 433 659 else/rescale 0 75;
#X connect 0 0 30 0;
#X connect 1 0 2 0;
#X connect 1 1 23 0;
#X connect 2 0 37 0;
#X connect 2 1 13 0;
#X connect 3 0 4 0;
#X connect 4 0 28 0;
#X connect 5 0 29 0;
#X connect 6 0 11 0;
#X connect 7 0 6 0;
#X connect 8 0 9 0;
#X connect 9 0 11 0;
#X connect 10 0 26 1;
#X connect 12 0 31 0;
#X connect 13 0 31 0;
#X connect 14 0 37 0;
#X connect 14 1 15 0;
#X connect 15 0 16 0;
#X connect 15 1 21 0;
#X connect 15 1 0 0;
#X connect 16 0 21 0;
#X connect 17 0 5 0;
#X connect 19 0 8 1;
#X connect 20 0 10 0;
#X connect 21 0 14 0;
#X connect 22 0 21 1;
#X connect 23 0 1 0;
#X connect 24 0 23 1;
#X connect 25 0 36 0;
#X connect 27 0 30 0;
#X connect 28 0 27 0;
#X connect 28 0 12 0;
#X connect 28 1 7 0;
#X connect 28 1 33 0;
#X connect 29 0 0 0;
#X connect 29 0 13 0;
#X connect 29 1 8 0;
#X connect 30 0 1 0;
#X connect 31 0 14 0;
#X connect 33 0 32 0;
#X connect 34 0 30 0;
#X connect 35 0 14 0;
#X connect 36 0 3 0;
#X connect 36 0 17 0;
#X connect 36 0 18 0;
#X connect 36 0 7 1;
#X connect 37 0 26 0;
#X restore 67 105 pd detune;
#N canvas 357 38 761 758 att-fm 0;
#X msg 173 469 forget;
#X obj 40 532 else/midi.learn 1;
#A saved;
#X obj 40 600 t f b;
#X obj 40 112 else/format \$0-%s-learn, f 11;
#X obj 40 162 else/receiver;
#X obj 173 195 else/receiver;
#X msg 90 259 Learn for \$1 knob activated, f 9;
#X obj 90 207 symbol;
#X obj 205 345 symbol;
#X msg 205 378 Forget for \$1 knob;
#X obj 473 721 else/format \$0-set-%s;
#X obj 187 405 print [adsr.m~]:;
#X msg 442 311 learn;
#X msg 467 348 forget;
#X obj 432 403 else/receiver 1;
#X obj 564 401 else/route2 none;
#X msg 564 448 none;
#X obj 173 166 else/format \$0-%s-forget;
#X obj 189 121 else/sender -local sym;
#X obj 260 339 else/receiver -local sym, f 13;
#X obj 473 694 else/receiver -local sym;
#N canvas 268 234 610 478 savestate 0;
#X obj 235 409 outlet;
#X obj 101 283 route bang;
#X obj 339 213 else/format rcv-%s;
#X obj 101 255 route x, f 9;
#X obj 101 224 list trim;
#X obj 168 317 route none;
#X obj 235 359 symbol;
#X obj 239 215 list;
#X obj 264 159 list prepend, f 7;
#X obj 101 164 savestate;
#X obj 263 41 inlet;
#X obj 342 41 inlet;
#X obj 367 135 print [receiver] learn:;
#X obj 367 104 list trim;
#X connect 1 1 5 0;
#X connect 1 1 8 0;
#X connect 2 0 3 1;
#X connect 2 0 8 1;
#X connect 3 0 1 0;
#X connect 4 0 3 0;
#X connect 5 1 6 0;
#X connect 6 0 0 0;
#X connect 7 0 9 0;
#X connect 8 0 7 1;
#X connect 9 0 4 0;
#X connect 9 1 7 0;
#X connect 10 0 8 0;
#X connect 10 0 13 0;
#X connect 11 0 2 0;
#X connect 13 0 12 0;
#X restore 564 495 pd savestate;
#X obj 645 454 else/receiver -local sym, f 13;
#N canvas 251 108 631 527 savestate 0;
#X obj 168 340 outlet;
#X obj 101 261 route bang;
#X obj 101 233 route x, f 9;
#X obj 101 202 list trim;
#X obj 239 193 list;
#X obj 264 137 list prepend, f 7;
#X obj 101 142 savestate;
#X obj 263 79 inlet;
#X obj 342 96 inlet;
#X obj 339 191 else/format %s-learn;
#X obj 168 295 else/insert teach;
#X connect 1 1 5 0;
#X connect 1 1 10 0;
#X connect 2 0 1 0;
#X connect 3 0 2 0;
#X connect 4 0 6 0;
#X connect 5 0 4 1;
#X connect 6 0 3 0;
#X connect 6 1 4 0;
#X connect 7 0 5 0;
#X connect 8 0 9 0;
#X connect 9 0 2 1;
#X connect 9 0 5 1;
#X connect 10 0 0 0;
#X restore 156 579 pd savestate;
#X obj 237 550 else/receiver -local sym;
#X obj 173 22 else/loadbanger -init;
#X obj 433 706 s;
#X msg 40 453 learn;
#X obj 40 200 t b b;
#X obj 173 277 t b b;
#X obj 40 506 else/changed;
#X obj 442 375 else/changed;
#X obj 72 398 send \$0-deactivate, f 13;
#X msg 72 370 deactivate;
#X obj 187 433 r \$0-deactivate;
#X obj 431 266 r \$0-deactivate;
#X obj 173 55 symbol att-fm;
#X obj 433 659 else/rescale -1 1;
#X connect 0 0 30 0;
#X connect 1 0 2 0;
#X connect 1 1 23 0;
#X connect 2 0 37 0;
#X connect 2 1 13 0;
#X connect 3 0 4 0;
#X connect 4 0 28 0;
#X connect 5 0 29 0;
#X connect 6 0 11 0;
#X connect 7 0 6 0;
#X connect 8 0 9 0;
#X connect 9 0 11 0;
#X connect 10 0 26 1;
#X connect 12 0 31 0;
#X connect 13 0 31 0;
#X connect 14 0 37 0;
#X connect 14 1 15 0;
#X connect 15 0 16 0;
#X connect 15 1 21 0;
#X connect 15 1 0 0;
#X connect 16 0 21 0;
#X connect 17 0 5 0;
#X connect 19 0 8 1;
#X connect 20 0 10 0;
#X connect 21 0 14 0;
#X connect 22 0 21 1;
#X connect 23 0 1 0;
#X connect 24 0 23 1;
#X connect 25 0 36 0;
#X connect 27 0 30 0;
#X connect 28 0 27 0;
#X connect 28 0 12 0;
#X connect 28 1 7 0;
#X connect 28 1 33 0;
#X connect 29 0 0 0;
#X connect 29 0 13 0;
#X connect 29 1 8 0;
#X connect 30 0 1 0;
#X connect 31 0 14 0;
#X connect 33 0 32 0;
#X connect 34 0 30 0;
#X connect 35 0 14 0;
#X connect 36 0 3 0;
#X connect 36 0 17 0;
#X connect 36 0 18 0;
#X connect 36 0 7 1;
#X connect 37 0 26 0;
#X restore 68 161 pd att-fm;
#N canvas 357 38 761 758 att-pwm 0;
#X msg 173 469 forget;
#X obj 40 532 else/midi.learn 1;
#A saved;
#X obj 40 600 t f b;
#X obj 40 112 else/format \$0-%s-learn, f 11;
#X obj 40 162 else/receiver;
#X obj 173 195 else/receiver;
#X msg 90 259 Learn for \$1 knob activated, f 9;
#X obj 90 207 symbol;
#X obj 205 345 symbol;
#X msg 205 378 Forget for \$1 knob;
#X obj 473 721 else/format \$0-set-%s;
#X obj 187 405 print [adsr.m~]:;
#X msg 442 311 learn;
#X msg 467 348 forget;
#X obj 432 403 else/receiver 1;
#X obj 564 401 else/route2 none;
#X msg 564 448 none;
#X obj 173 166 else/format \$0-%s-forget;
#X obj 189 121 else/sender -local sym;
#X obj 260 339 else/receiver -local sym, f 13;
#X obj 473 694 else/receiver -local sym;
#N canvas 268 234 610 478 savestate 0;
#X obj 235 409 outlet;
#X obj 101 283 route bang;
#X obj 339 213 else/format rcv-%s;
#X obj 101 255 route x, f 9;
#X obj 101 224 list trim;
#X obj 168 317 route none;
#X obj 235 359 symbol;
#X obj 239 215 list;
#X obj 264 159 list prepend, f 7;
#X obj 101 164 savestate;
#X obj 263 41 inlet;
#X obj 342 41 inlet;
#X obj 367 135 print [receiver] learn:;
#X obj 367 104 list trim;
#X connect 1 1 5 0;
#X connect 1 1 8 0;
#X connect 2 0 3 1;
#X connect 2 0 8 1;
#X connect 3 0 1 0;
#X connect 4 0 3 0;
#X connect 5 1 6 0;
#X connect 6 0 0 0;
#X connect 7 0 9 0;
#X connect 8 0 7 1;
#X connect 9 0 4 0;
#X connect 9 1 7 0;
#X connect 10 0 8 0;
#X connect 10 0 13 0;
#X connect 11 0 2 0;
#X connect 13 0 12 0;
#X restore 564 495 pd savestate;
#X obj 645 454 else/receiver -local sym, f 13;
#N canvas 251 108 631 527 savestate 0;
#X obj 168 340 outlet;
#X obj 101 261 route bang;
#X obj 101 233 route x, f 9;
#X obj 101 202 list trim;
#X obj 239 193 list;
#X obj 264 137 list prepend, f 7;
#X obj 101 142 savestate;
#X obj 263 79 inlet;
#X obj 342 96 inlet;
#X obj 339 191 else/format %s-learn;
#X obj 168 295 else/insert teach;
#X connect 1 1 5 0;
#X connect 1 1 10 0;
#X connect 2 0 1 0;
#X connect 3 0 2 0;
#X connect 4 0 6 0;
#X connect 5 0 4 1;
#X connect 6 0 3 0;
#X connect 6 1 4 0;
#X connect 7 0 5 0;
#X connect 8 0 9 0;
#X connect 9 0 2 1;
#X connect 9 0 5 1;
#X connect 10 0 0 0;
#X restore 156 579 pd savestate;
#X obj 237 550 else/receiver -local sym;
#X obj 173 22 else/loadbanger -init;
#X obj 433 706 s;
#X msg 40 453 learn;
#X obj 40 200 t b b;
#X obj 173 277 t b b;
#X obj 40 506 else/changed;
#X obj 442 375 else/changed;
#X obj 72 398 send \$0-deactivate, f 13;
#X msg 72 370 deactivate;
#X obj 187 433 r \$0-deactivate;
#X obj 431 266 r \$0-deactivate;
#X obj 433 659 else/rescale -1 1;
#X obj 173 55 symbol att-pwm;
#X connect 0 0 30 0;
#X connect 1 0 2 0;
#X connect 1 1 23 0;
#X connect 2 0 36 0;
#X connect 2 1 13 0;
#X connect 3 0 4 0;
#X connect 4 0 28 0;
#X connect 5 0 29 0;
#X connect 6 0 11 0;
#X connect 7 0 6 0;
#X connect 8 0 9 0;
#X connect 9 0 11 0;
#X connect 10 0 26 1;
#X connect 12 0 31 0;
#X connect 13 0 31 0;
#X connect 14 0 36 0;
#X connect 14 1 15 0;
#X connect 15 0 16 0;
#X connect 15 1 21 0;
#X connect 15 1 0 0;
#X connect 16 0 21 0;
#X connect 17 0 5 0;
#X connect 19 0 8 1;
#X connect 20 0 10 0;
#X connect 21 0 14 0;
#X connect 22 0 21 1;
#X connect 23 0 1 0;
#X connect 24 0 23 1;
#X connect 25 0 37 0;
#X connect 27 0 30 0;
#X connect 28 0 27 0;
#X connect 28 0 12 0;
#X connect 28 1 7 0;
#X connect 28 1 33 0;
#X connect 29 0 0 0;
#X connect 29 0 13 0;
#X connect 29 1 8 0;
#X connect 30 0 1 0;
#X connect 31 0 14 0;
#X connect 33 0 32 0;
#X connect 34 0 30 0;
#X connect 35 0 14 0;
#X connect 36 0 26 0;
#X connect 37 0 3 0;
#X connect 37 0 17 0;
#X connect 37 0 18 0;
#X connect 37 0 7 1;
#X restore 68 185 pd att-pwm;
#N canvas 357 38 761 758 att-detune 0;
#X msg 173 469 forget;
#X obj 40 532 else/midi.learn 1;
#A saved;
#X obj 40 600 t f b;
#X obj 40 112 else/format \$0-%s-learn, f 11;
#X obj 40 162 else/receiver;
#X obj 173 195 else/receiver;
#X msg 90 259 Learn for \$1 knob activated, f 9;
#X obj 90 207 symbol;
#X obj 205 345 symbol;
#X msg 205 378 Forget for \$1 knob;
#X obj 473 721 else/format \$0-set-%s;
#X obj 187 405 print [adsr.m~]:;
#X msg 442 311 learn;
#X msg 467 348 forget;
#X obj 432 403 else/receiver 1;
#X obj 564 401 else/route2 none;
#X msg 564 448 none;
#X obj 173 166 else/format \$0-%s-forget;
#X obj 189 121 else/sender -local sym;
#X obj 260 339 else/receiver -local sym, f 13;
#X obj 473 694 else/receiver -local sym;
#N canvas 268 234 610 478 savestate 0;
#X obj 235 409 outlet;
#X obj 101 283 route bang;
#X obj 339 213 else/format rcv-%s;
#X obj 101 255 route x, f 9;
#X obj 101 224 list trim;
#X obj 168 317 route none;
#X obj 235 359 symbol;
#X obj 239 215 list;
#X obj 264 159 list prepend, f 7;
#X obj 101 164 savestate;
#X obj 263 41 inlet;
#X obj 342 41 inlet;
#X obj 367 135 print [receiver] learn:;
#X obj 367 104 list trim;
#X connect 1 1 5 0;
#X connect 1 1 8 0;
#X connect 2 0 3 1;
#X connect 2 0 8 1;
#X connect 3 0 1 0;
#X connect 4 0 3 0;
#X connect 5 1 6 0;
#X connect 6 0 0 0;
#X connect 7 0 9 0;
#X connect 8 0 7 1;
#X connect 9 0 4 0;
#X connect 9 1 7 0;
#X connect 10 0 8 0;
#X connect 10 0 13 0;
#X connect 11 0 2 0;
#X connect 13 0 12 0;
#X restore 564 495 pd savestate;
#X obj 645 454 else/receiver -local sym, f 13;
#N canvas 251 108 631 527 savestate 0;
#X obj 168 340 outlet;
#X obj 101 261 route bang;
#X obj 101 233 route x, f 9;
#X obj 101 202 list trim;
#X obj 239 193 list;
#X obj 264 137 list prepend, f 7;
#X obj 101 142 savestate;
#X obj 263 79 inlet;
#X obj 342 96 inlet;
#X obj 339 191 else/format %s-learn;
#X obj 168 295 else/insert teach;
#X connect 1 1 5 0;
#X connect 1 1 10 0;
#X connect 2 0 1 0;
#X connect 3 0 2 0;
#X connect 4 0 6 0;
#X connect 5 0 4 1;
#X connect 6 0 3 0;
#X connect 6 1 4 0;
#X connect 7 0 5 0;
#X connect 8 0 9 0;
#X connect 9 0 2 1;
#X connect 9 0 5 1;
#X connect 10 0 0 0;
#X restore 156 579 pd savestate;
#X obj 237 550 else/receiver -local sym;
#X obj 173 22 else/loadbanger -init;
#X obj 433 706 s;
#X msg 40 453 learn;
#X obj 40 200 t b b;
#X obj 173 277 t b b;
#X obj 40 506 else/changed;
#X obj 442 375 else/changed;
#X obj 72 398 send \$0-deactivate, f 13;
#X msg 72 370 deactivate;
#X obj 187 433 r \$0-deactivate;
#X obj 431 266 r \$0-deactivate;
#X obj 433 659 else/rescale -1 1;
#X obj 173 55 symbol att-detune;
#X connect 0 0 30 0;
#X connect 1 0 2 0;
#X connect 1 1 23 0;
#X connect 2 0 36 0;
#X connect 2 1 13 0;
#X connect 3 0 4 0;
#X connect 4 0 28 0;
#X connect 5 0 29 0;
#X connect 6 0 11 0;
#X connect 7 0 6 0;
#X connect 8 0 9 0;
#X connect 9 0 11 0;
#X connect 10 0 26 1;
#X connect 12 0 31 0;
#X connect 13 0 31 0;
#X connect 14 0 36 0;
#X connect 14 1 15 0;
#X connect 15 0 16 0;
#X connect 15 1 21 0;
#X connect 15 1 0 0;
#X connect 16 0 21 0;
#X connect 17 0 5 0;
#X connect 19 0 8 1;
#X connect 20 0 10 0;
#X connect 21 0 14 0;
#X connect 22 0 21 1;
#X connect 23 0 1 0;
#X connect 24 0 23 1;
#X connect 25 0 37 0;
#X connect 27 0 30 0;
#X connect 28 0 27 0;
#X connect 28 0 12 0;
#X connect 28 1 7 0;
#X connect 28 1 33 0;
#X connect 29 0 0 0;
#X connect 29 0 13 0;
#X connect 29 1 8 0;
#X connect 30 0 1 0;
#X connect 31 0 14 0;
#X connect 33 0 32 0;
#X connect 34 0 30 0;
#X connect 35 0 14 0;
#X connect 36 0 26 0;
#X connect 37 0 3 0;
#X connect 37 0 17 0;
#X connect 37 0 18 0;
#X connect 37 0 7 1;
#X restore 68 211 pd att-detune;
#X restore 579 250 pd Learn;
#X connect 0 0 10 0;
#X connect 0 1 13 0;
#X connect 2 0 10 1;
#X connect 4 0 10 2;
#X connect 10 0 16 0;
#X connect 10 1 16 0;
#X connect 10 2 16 1;
#X connect 10 3 16 2;
#X connect 11 0 10 3;
#X connect 15 0 0 0;
#X connect 16 0 1 0;
#X connect 16 1 17 0;
#X coords 0 -1 1 1 190 308 2 50 50;
