#N canvas 491 34 567 666 12;
#X obj 36 65 inlet~;
#X obj 130 522 outlet~;
#N canvas 243 43 499 411 preset 0;
#X obj 125 121 else/sender 1 \\\$0-presets;
#X msg 125 86 name \$1;
#X obj 90 171 else/receiver;
#X obj 123 220 route list;
#N canvas 468 182 491 352 id-name-init 0;
#X obj 165 113 + 1;
#X obj 257 100 else/dollsym 1;
#X obj 141 80 value;
#X obj 141 252 outlet;
#X obj 141 51 else/loadbanger 2;
#X obj 141 201 else/dollsym 1;
#X obj 257 76 symbol vca2-id_\\\$0;
#X obj 141 166 makefilename \\\$0-vca2-%d;
#X connect 0 0 2 0;
#X connect 1 0 2 1;
#X connect 2 0 0 0;
#X connect 2 0 7 0;
#X connect 4 0 2 0;
#X connect 4 1 6 0;
#X connect 5 0 3 0;
#X connect 6 0 1 0;
#X connect 7 0 5 0;
#X restore 90 39 pd id-name-init;
#X obj 123 257 else/dispatch \$0-master-set \$0-sum-set;
#X obj 90 311 else/var \$0-master \$0-sum;
#X connect 1 0 0 0;
#X connect 2 0 3 0;
#X connect 2 0 6 0;
#X connect 3 0 5 0;
#X connect 4 0 1 0;
#X connect 4 0 2 0;
#X restore 172 287 pd preset;
#N canvas 522 92 457 305 init-savestate 0;
#X obj 106 75 savestate;
#X obj 49 125 list;
#X obj 49 43 loadbang;
#X obj 106 136 route list;
#X obj 49 222 else/dispatch \$0-master-set \$0-sum-set \$0-set-GUI;
#X obj 166 107 else/var \$0-master \$0-sum \$0-GUI;
#X obj 49 171 else/default 1 1 1;
#X connect 0 0 3 0;
#X connect 0 1 5 0;
#X connect 1 0 6 0;
#X connect 2 0 1 0;
#X connect 3 0 1 1;
#X connect 5 0 0 0;
#X connect 6 0 4 0;
#X restore 144 264 pd init-savestate;
#X obj 93 65 inlet~;
#X text 412 125 CV;
#N canvas 165 143 391 344 route 0;
#X obj 136 57 inlet;
#X obj 136 253 s \$0-master-set;
#X obj 156 223 s \$0-sum-set;
#X obj 136 102 route master sum gui;
#X obj 221 147 != 0;
#X obj 221 173 s \$0-set-GUI;
#X connect 0 0 3 0;
#X connect 3 0 1 0;
#X connect 3 1 2 0;
#X connect 3 2 4 0;
#X connect 4 0 5 0;
#X restore 163 160 pd route;
#N canvas 859 259 251 248 MIDI-learn 0;
#N canvas 703 312 577 472 master-sig 0;
#X msg 114 218 forget;
#X obj 240 221 savestate;
#X obj 300 268 list;
#X obj 240 326 else/insert teach;
#X obj 96 270 else/midi.learn 1;
#A saved;
#X obj 94 34 r \$0-master-learn;
#X msg 113 64 MIDI-learn for master knob activated;
#X obj 114 130 r \$0-master-forget;
#X msg 127 163 MIDI-forget for master knob;
#X obj 325 243 list prepend master-learn;
#X obj 240 297 else/route2 master-learn;
#X obj 96 366 else/rescale -log 0.1 10;
#X obj 96 404 s \$0-master-set;
#X obj 113 91 print [vca2.m~]:;
#X obj 127 188 print [vca2.m~]:;
#X connect 0 0 4 0;
#X connect 1 0 10 0;
#X connect 1 1 2 0;
#X connect 2 0 1 0;
#X connect 3 0 4 0;
#X connect 4 0 11 0;
#X connect 4 1 9 0;
#X connect 5 0 6 0;
#X connect 5 0 4 0;
#X connect 6 0 13 0;
#X connect 7 0 0 0;
#X connect 7 0 8 0;
#X connect 8 0 14 0;
#X connect 9 0 2 1;
#X connect 10 0 3 0;
#X connect 11 0 12 0;
#X restore 52 67 pd master-sig;
#X restore 159 312 pd MIDI-learn;
#X obj 71 522 outlet~;
#X obj 145 65 inlet~;
#X text 359 125 R;
#X text 300 125 L;
#X obj 306 507 cnv 19 81 29 empty \$0-label-collapsed VCA-2 5 15 0 24 #bbbbbb #000000 0;
#X obj 305 506 else/button 83 31 #bbbbbb #bbbbbb 2 1 2 0 0 \$0-detatch empty;
#X obj 393 507 cnv 10 17 15 empty empty ▲ 5 8 0 12 #bbbbbb #000000 0;
#X obj 393 521 cnv 10 17 15 empty empty ▼ 5 5 0 12 #bbbbbb #000000 0;
#X obj 392 506 else/button 19 31 #e0e0e0 #808080 2 1 2 0 0 \$0-uncollapse empty;
#N canvas 116 97 419 638 guts 0;
#X obj 46 75 inlet~;
#X obj 150 530 outlet~;
#X obj 105 75 inlet~;
#X obj 196 205 r \$0-master;
#X obj 213 275 tgl 16 0 empty \$0-sum empty 0 -8 0 10 #dfdfdf #000000 #000000 0 1;
#X msg 213 301 sum \$1;
#X obj 108 362 else/vca2~;
#X obj 161 432 s \$0-vuL;
#X obj 91 532 outlet~;
#X obj 176 399 s \$0-vuR;
#X obj 155 76 inlet~;
#X msg 196 229 master \$1;
#X connect 0 0 6 0;
#X connect 2 0 6 1;
#X connect 3 0 11 0;
#X connect 4 0 5 0;
#X connect 5 0 6 0;
#X connect 6 0 8 0;
#X connect 6 1 1 0;
#X connect 6 2 7 0;
#X connect 6 3 9 0;
#X connect 10 0 6 2;
#X connect 11 0 6 0;
#X restore 76 195 pd guts;
#N canvas 145 126 327 276 GUI 0;
#N canvas 105 247 463 499 collapse 0;
#X obj 28 150 r \$0-uncollapse;
#X obj 33 305 r \$0-detatch-hover;
#X obj 56 459 s \$0-label-collapsed;
#X obj 33 331 sel 0 1;
#X obj 290 420 r \$0-detatch;
#X obj 232 153 else/canvas.setname \$0-m 2;
#X obj 290 305 r \$0-set-GUI;
#X obj 290 386 s \$0-uncollapse;
#X obj 313 359 s \$0-collapse;
#X obj 290 331 sel 1 0;
#X obj 28 16 r \$0-collapse;
#X obj 290 447 message \; pd-\$0-VCA-2 vis 1;
#X obj 28 184 else/message \; \$0-button readonly 0 \, transparent 2 \; pd-\$0-VCA-2 donecanvasdialog 1 1 1 0 0 1 1 115 335 15 15 \, vis 0 \; \$0-cnv color #bbbbbb #000000 #000000 \; \$0-m goprect 300 125 130 366 \, dirty 0 \; \$0-GUI 1;
#X msg 33 407 label VCA-2 \, label_font 0 24 \, label_pos 5 15, f 29;
#X msg 56 358 label ⤢ \, label_font 0 48 \, label_pos 28 12, f 25;
#X obj 207 322 loadbang;
#X obj 28 45 else/message \; \$0-button readonly 1 \, transparent 3 \; pd-\$0-VCA-2 donecanvasdialog 1 1 0 0 0 1 1 115 335 15 15 \; \$0-cnv color #dbdbdb #000000 #dbdbdb \; \$0-m goprect 300 500 117 44 \, dirty 0 \; \$0-GUI 0;
#X connect 0 0 12 0;
#X connect 1 0 3 0;
#X connect 3 0 13 0;
#X connect 3 1 14 0;
#X connect 4 0 11 0;
#X connect 6 0 9 0;
#X connect 9 0 7 0;
#X connect 9 1 8 0;
#X connect 10 0 16 0;
#X connect 13 0 2 0;
#X connect 14 0 2 0;
#X connect 15 0 13 0;
#X restore 88 30 pd collapse;
#X restore 186 339 pd GUI;
#N canvas 757 151 140 375 \$0-VCA-2 0;
#N canvas 563 76 480 585 (subpatch) 0;
#X obj 112 112 cnv 15 113 333 empty empty empty 20 12 0 14 #dbdbdb #373737 0;
#X obj 136 248 vu 24 160 \$0-vuL empty -1 -10 0 12 #404040 #000000 0 0;
#X obj 137 160 else/knob 60 0.1 10 1 1 \$0-master \$0-master-set #000000 #404040 #ffffff 0 0 0 0 1 320 0 0 1 empty empty 0 8 0 0 0 0 0 0 0 0;
#X text 147 220 Master;
#X obj 162 248 vu 24 160 \$0-vuR empty -1 -10 0 12 #404040 #000000 1 0;
#X obj 116 117 else/note 82 24 Inter empty 5 54 54 54 0 187 187 187 1 2 VCA-2;
#X obj 203 117 else/button 19 31 #e0e0e0 #808080 2 1 2 0 0 \$0-collapse \$0-button;
#X obj 204 118 cnv 10 17 15 empty \$0-cnv ▼ 5 8 0 12 #bbbbbb #000000 0;
#X obj 204 132 cnv 10 17 15 empty \$0-cnv ▲ 5 5 0 12 #bbbbbb #000000 0;
#X text 170 417 sum;
#X obj 145 417 else/button 20 20 #f5f5f5 #808080 1 1 0 1 0 0-sum \$0-sum-set;
#X coords 0 1 100 -1 115 335 1 111 111;
#X restore 15 15 graph;
#X coords 0 0 1 1 115 335 1 15 15;
#X restore 307 148 pd \$0-VCA-2;
#X connect 0 0 17 0;
#X connect 0 1 6 0;
#X connect 4 0 17 1;
#X connect 9 0 17 2;
#X connect 17 0 8 0;
#X connect 17 1 1 0;
#X coords 0 1 100 -1 130 366 2 300 125;
