#N canvas 53 110 532 692 12;
#X obj 36 65 inlet~;
#X obj 140 520 outlet~;
#N canvas 243 43 499 411 preset 0;
#X obj 125 121 else/sender 1 \\\$0-presets;
#X msg 125 86 name \$1;
#X obj 90 171 else/receiver;
#X obj 123 220 route list;
#N canvas 468 182 491 352 id-name-init 0;
#X obj 165 113 + 1;
#X obj 257 100 else/dollsym 1;
#X obj 141 80 value;
#X obj 141 252 outlet;
#X obj 141 51 else/loadbanger 2;
#X obj 141 201 else/dollsym 1;
#X obj 257 76 symbol vca2-id_\\\$0;
#X obj 141 166 makefilename \\\$0-vca2-%d;
#X connect 0 0 2 0;
#X connect 1 0 2 1;
#X connect 2 0 0 0;
#X connect 2 0 7 0;
#X connect 4 0 2 0;
#X connect 4 1 6 0;
#X connect 5 0 3 0;
#X connect 6 0 1 0;
#X connect 7 0 5 0;
#X restore 90 39 pd id-name-init;
#X obj 123 257 else/dispatch \$0-master-set \$0-sum-set;
#X obj 90 311 else/var \$0-master \$0-sum;
#X connect 1 0 0 0;
#X connect 2 0 3 0;
#X connect 2 0 6 0;
#X connect 3 0 5 0;
#X connect 4 0 1 0;
#X connect 4 0 2 0;
#X restore 341 560 pd preset;
#N canvas 522 92 601 317 init-savestate 0;
#X obj 106 75 savestate;
#X obj 49 125 list;
#X obj 49 43 loadbang;
#X obj 49 171 else/default 1 1;
#X obj 106 136 route list;
#X obj 166 107 else/var \$0-master \$0-sum;
#X obj 49 222 else/dispatch \$0-master-set \$0-sum-set;
#X connect 0 0 4 0;
#X connect 0 1 5 0;
#X connect 1 0 3 0;
#X connect 2 0 1 0;
#X connect 3 0 6 0;
#X connect 4 0 1 1;
#X connect 5 0 0 0;
#X restore 313 537 pd init-savestate;
#N canvas 789 78 481 625 (subpatch) 0;
#X obj 112 112 cnv 15 95 333 empty empty empty 20 12 0 14 #dbdbdb #373737 0;
#X obj 121 247 vu 24 160 \$0-vuL empty -1 -10 0 12 #404040 #000000 0 0;
#X obj 126 154 else/knob 60 0.1 10 1 1 \$0-master \$0-master-set #000000 #404040 #ffffff 0 0 0 0 1 320 0 0 1 empty empty 0 8 0 0 0 0 0 0;
#X text 137 216 Master;
#X obj 119 120 else/note 77 18 Inter empty 5 54 54 54 0 187 187 187 1 1 VCA-2;
#X obj 133 418 tgl 19 0 \$0-sum \$0-sum-set empty 0 -10 0 12 #dfdfdf #000000 #000000 0 1;
#X text 156 418 sum;
#X obj 147 247 vu 24 160 \$0-vuR empty -1 -10 0 12 #404040 #000000 1 0;
#X coords 0 1 100 -1 97 335 1 111 111;
#X restore 309 147 graph;
#X obj 95 65 inlet~;
#X text 397 125 CV;
#X obj 186 195 r \$0-master;
#N canvas 165 143 367 250 route 0;
#X obj 136 57 inlet;
#X obj 136 102 route master sum;
#X obj 136 169 s \$0-master-set;
#X obj 156 139 s \$0-sum-set;
#X connect 0 0 1 0;
#X connect 1 0 2 0;
#X connect 1 1 3 0;
#X restore 207 150 pd route;
#N canvas 859 259 251 248 MIDI-learn 0;
#N canvas 703 312 577 472 master-sig 0;
#X msg 114 218 forget;
#X obj 240 221 savestate;
#X obj 300 268 list;
#X obj 240 326 else/insert teach;
#X obj 96 270 else/midi.learn 1;
#A saved;
#X obj 94 34 r \$0-master-learn;
#X msg 113 64 MIDI-learn for master knob activated;
#X obj 114 130 r \$0-master-forget;
#X msg 127 163 MIDI-forget for master knob;
#X obj 325 243 list prepend master-learn;
#X obj 240 297 else/route2 master-learn;
#X obj 96 366 else/rescale -log 0.1 10;
#X obj 96 404 s \$0-master-set;
#X obj 113 91 print [vca2.m~]:;
#X obj 127 188 print [vca2.m~]:;
#X connect 0 0 4 0;
#X connect 1 0 10 0;
#X connect 1 1 2 0;
#X connect 2 0 1 0;
#X connect 3 0 4 0;
#X connect 4 0 11 0;
#X connect 4 1 9 0;
#X connect 5 0 6 0;
#X connect 5 0 4 0;
#X connect 6 0 13 0;
#X connect 7 0 0 0;
#X connect 7 0 8 0;
#X connect 8 0 14 0;
#X connect 9 0 2 1;
#X connect 10 0 3 0;
#X connect 11 0 12 0;
#X restore 52 67 pd master-sig;
#X restore 328 585 pd MIDI-learn;
#X obj 203 265 tgl 16 0 empty \$0-sum empty 0 -8 0 10 #dfdfdf #000000 #000000 0 1;
#X msg 203 291 sum \$1;
#X obj 98 352 else/vca2~;
#X obj 151 422 s \$0-vuL;
#X obj 81 522 outlet~;
#X obj 166 389 s \$0-vuR;
#X obj 145 66 inlet~;
#X msg 186 219 master \$1;
#X text 351 125 R;
#X text 300 125 L;
#X connect 0 0 12 0;
#X connect 0 1 8 0;
#X connect 5 0 12 1;
#X connect 7 0 17 0;
#X connect 10 0 11 0;
#X connect 11 0 12 0;
#X connect 12 0 14 0;
#X connect 12 1 1 0;
#X connect 12 2 13 0;
#X connect 12 3 15 0;
#X connect 16 0 12 2;
#X connect 17 0 12 0;
#X coords 0 1 100 -1 115 366 2 300 125;
