#N canvas 516 81 546 514 12;
#X obj 43 42 inlet~;
#X obj 43 428 outlet~;
#N canvas 517 59 711 437 preset 0;
#X msg 125 86 name \$1;
#X obj 90 171 else/receiver;
#X obj 123 220 route list;
#N canvas 596 76 469 447 id-name-init 0;
#X obj 165 113 + 1;
#X obj 257 100 else/dollsym 1;
#X obj 141 80 value;
#X obj 141 252 outlet;
#X obj 141 51 else/loadbanger 2;
#X obj 141 201 else/dollsym 1;
#X obj 257 76 symbol vcf-id_\\\$0;
#X obj 141 166 makefilename \\\$0-vcf-%d;
#X connect 0 0 2 0;
#X connect 1 0 2 1;
#X connect 2 0 0 0;
#X connect 2 0 7 0;
#X connect 4 0 2 0;
#X connect 4 1 6 0;
#X connect 5 0 3 0;
#X connect 6 0 1 0;
#X connect 7 0 5 0;
#X restore 90 39 pd id-name-init;
#X obj 90 321 else/var \$0-cutoff \$0-reson \$0-att-cut \$0-att-Q;
#X obj 123 257 else/dispatch \$0-set-cutoff \$0-set-reson \$0-set-att-cut \$0-set-att-Q, f 41;
#X obj 125 121 else/sender 1 \$0-presets;
#X connect 0 0 6 0;
#X connect 1 0 2 0;
#X connect 1 0 4 0;
#X connect 2 0 5 0;
#X connect 3 0 0 0;
#X connect 3 0 1 0;
#X restore 338 80 pd preset;
#N canvas 549 148 444 305 init-savestate 0;
#X obj 129 64 savestate;
#X obj 49 125 list;
#X obj 49 43 loadbang;
#X obj 94 131 route list;
#X obj 94 105 list trim;
#X obj 49 202 else/dispatch \$0-set-cutoff \$0-set-reson \$0-set-att-cut \$0-set-att-Q \$0-set-GUI, f 41;
#X obj 189 96 else/var \$0-cutoff \$0-reson \$0-att-cut \$0-att-Q \$0-GUI, f 27;
#X obj 49 161 else/default 500 10 0 0 1;
#X connect 0 0 4 0;
#X connect 0 1 6 0;
#X connect 1 0 7 0;
#X connect 2 0 1 0;
#X connect 3 0 1 1;
#X connect 4 0 3 0;
#X connect 6 0 0 0;
#X connect 7 0 5 0;
#X restore 282 56 pd init-savestate;
#X text 275 153 In;
#X text 328 153 Cutoff;
#X text 395 153 Reson;
#X obj 101 42 inlet~;
#X obj 159 42 inlet~;
#N canvas 270 258 387 333 route 0;
#X obj 141 267 s \$0-set-cutoff;
#X obj 165 238 s \$0-set-reson;
#X obj 185 207 s \$0-att-cut-set;
#X obj 201 177 s \$0-att-Q-set;
#X obj 83 29 inlet;
#X obj 83 63 route cutoff reson cutoff_att reson_att gui, f 26;
#X obj 227 131 s \$0-set-GUI;
#X obj 227 106 != 0;
#X connect 4 0 5 0;
#X connect 5 0 0 0;
#X connect 5 1 1 0;
#X connect 5 2 2 0;
#X connect 5 3 3 0;
#X connect 5 4 7 0;
#X connect 7 0 6 0;
#X restore 131 181 pd route;
#N canvas 296 162 968 599 GUI 0;
#X obj 85 155 else/limit 100;
#X msg 214 175 color 0 0 \$1;
#X obj 214 143 * 175;
#X obj 227 116 loadbang;
#X obj 85 127 f;
#X obj 139 112 sel 0;
#X msg 208 398 active 0;
#X msg 189 458 active 1;
#X obj 85 73 r \$0-cutoff;
#X obj 214 82 r \$0-cutoff-active;
#X obj 239 231 r \$0-cutoff-typing;
#X obj 214 292 s \$0-cutoff-label;
#X obj 208 426 s \$0-set-cutoff;
#X msg 239 262 set \$1| Hz;
#X obj 85 189 else/rint;
#X msg 85 225 set \$1 Hz;
#X obj 412 140 else/limit 100;
#X msg 543 173 color 0 0 \$1;
#X obj 543 141 * 175;
#X obj 556 114 loadbang;
#X obj 412 112 f;
#X obj 425 86 sel 0;
#X msg 388 392 active 0;
#X msg 369 452 active 1;
#X obj 412 51 r \$0-reson;
#X obj 543 50 r \$0-reson-active;
#X obj 566 216 r \$0-reson-typing;
#X obj 543 290 s \$0-reson-label;
#X msg 566 247 set \$1| Q;
#X msg 422 233 set \$1 Q;
#X obj 388 420 s \$0-set-reson;
#X obj 369 363 r \$0-reson-tab;
#X obj 189 369 r \$0-cutoff-tab;
#X obj 189 486 s \$0-set-reson;
#X obj 369 480 s \$0-set-cutoff;
#N canvas -159 204 789 513 collapse 0;
#X obj 28 150 r \$0-uncollapse;
#X obj 290 420 r \$0-detatch;
#X obj 232 153 else/canvas.setname \$0-m 2;
#X obj 290 305 r \$0-set-GUI;
#X obj 290 386 s \$0-uncollapse;
#X obj 313 359 s \$0-collapse;
#X obj 290 331 sel 1 0;
#X obj 28 16 r \$0-collapse;
#X obj 290 447 message \; pd-\$0-VCF vis 1;
#X obj 28 184 else/message \; \$0-button readonly 0 \, transparent 2 \; pd-\$0-VCF donecanvasdialog 1 1 1 0 0 1 1 139 212 15 15 \, vis 0 \; \$0-cnv color #bbbbbb #000000 #000000 \; \$0-m goprect 275 150 159 250 \, dirty 0 \; \$0-GUI 1, f 55;
#X obj 28 45 else/message \; \$0-button readonly 1 \, transparent 3 \; pd-\$0-VCF donecanvasdialog 1 1 0 0 0 1 1 139 212 15 15 \; \$0-cnv color #dbdbdb #000000 #dbdbdb \; \$0-m goprect 300 415 112 44 \, dirty 0 \; \$0-GUI 0;
#X obj 487 52 r \$0-detatch-hover;
#X obj 562 418 s \$0-label-collapsed;
#X obj 539 284 sel 0 1;
#X obj 469 282 loadbang;
#X obj 507 81 else/canvas.edit 3;
#X obj 539 256 change;
#X obj 507 167 sel 1;
#X obj 487 194 f;
#X obj 507 140 t f f, f 10;
#X obj 507 110 == 0;
#X obj 487 220 spigot;
#X msg 537 366 label VCF \, label_font 0 24 \, label_pos 16 15, f 27;
#X msg 562 317 label ⤢ \, label_font 0 48 \, label_pos 25 12, f 25;
#X connect 0 0 9 0;
#X connect 1 0 8 0;
#X connect 3 0 6 0;
#X connect 6 0 4 0;
#X connect 6 1 5 0;
#X connect 7 0 10 0;
#X connect 11 0 18 0;
#X connect 13 0 22 0;
#X connect 13 1 23 0;
#X connect 14 0 22 0;
#X connect 15 0 20 0;
#X connect 16 0 13 0;
#X connect 17 0 18 0;
#X connect 17 1 16 0;
#X connect 18 0 21 0;
#X connect 19 0 17 0;
#X connect 19 1 21 1;
#X connect 20 0 19 0;
#X connect 21 0 16 0;
#X connect 22 0 12 0;
#X connect 23 0 12 0;
#X restore 39 416 pd collapse;
#X obj 422 198 else/format %.2g;
#X obj 376 172 sel 100;
#X msg 376 199 100;
#X msg 590 394 active 0;
#X msg 571 454 active 1;
#X msg 770 388 active 0;
#X msg 751 448 active 1;
#X obj 571 365 r \$0-att-cut-tab;
#X obj 590 422 s \$0-set-att-cut;
#X obj 571 482 s \$0-set-att-Q;
#X obj 751 359 r \$0-att-Q-tab;
#X obj 770 416 s \$0-set-att-Q;
#X obj 751 476 s \$0-set-att-cut;
#N canvas 715 148 755 572 att-Q 0;
#X obj 52 122 sel 0 1;
#X msg 52 213 set;
#X obj 164 140 spigot;
#X msg 164 435 set \$1;
#X obj 164 403 else/format %.2f;
#X msg 295 423 set \$1|;
#X obj 52 55 else/hot;
#X obj 52 85 ||;
#X obj 65 183 loadbang;
#X obj 492 373 expr copysign(sqrt(abs($f1)) \, $f1);
#X obj 445 181 expr copysign(pow($f1 \, 2) \, $f1);
#X obj 164 211 expr copysign(pow($f1 \, 2) \, $f1);
#X msg 492 436 set \$1;
#X obj 468 330 else/nmess 1;
#X obj 549 305 b;
#X obj 52 23 r \$0-att-Q-hover;
#X obj 121 53 r \$0-att-Q-active;
#X obj 290 56 r \$0-att-Q;
#X obj 185 179 v \$0-att-Q;
#X obj 295 249 r \$0-att-Q-typing;
#X obj 467 248 r \$0-att-Q-enter;
#X obj 164 476 s \$0-att-Q#;
#X obj 444 506 s \$0-real-att-Q;
#X obj 492 463 s \$0-set-att-Q;
#X obj 506 403 v \$0-att-Q;
#X connect 0 0 1 0;
#X connect 0 1 18 0;
#X connect 1 0 21 0;
#X connect 2 0 11 0;
#X connect 3 0 21 0;
#X connect 4 0 3 0;
#X connect 5 0 21 0;
#X connect 6 0 7 0;
#X connect 6 1 7 1;
#X connect 7 0 0 0;
#X connect 7 0 2 1;
#X connect 8 0 1 0;
#X connect 9 0 12 0;
#X connect 9 0 24 0;
#X connect 10 0 22 0;
#X connect 11 0 4 0;
#X connect 12 0 23 0;
#X connect 13 0 9 0;
#X connect 13 0 4 0;
#X connect 13 0 22 0;
#X connect 14 0 13 1;
#X connect 15 0 6 0;
#X connect 16 0 6 1;
#X connect 17 0 2 0;
#X connect 17 0 10 0;
#X connect 18 0 11 0;
#X connect 19 0 5 0;
#X connect 19 0 14 0;
#X connect 20 0 13 0;
#X restore 773 180 pd att-Q;
#N canvas 664 93 806 564 att-cut 0;
#X obj 52 122 sel 0 1;
#X msg 52 213 set;
#X obj 164 140 spigot;
#X msg 164 435 set \$1;
#X obj 164 403 else/format %.2f;
#X msg 295 423 set \$1|;
#X obj 52 55 else/hot;
#X obj 52 85 ||;
#X obj 65 183 loadbang;
#X obj 492 373 expr copysign(sqrt(abs($f1)) \, $f1);
#X obj 445 181 expr copysign(pow($f1 \, 2) \, $f1);
#X obj 164 211 expr copysign(pow($f1 \, 2) \, $f1);
#X msg 492 436 set \$1;
#X obj 468 330 else/nmess 1;
#X obj 549 305 b;
#X obj 444 506 s \$0-real-att-cut;
#X obj 52 23 r \$0-att-cut-hover;
#X obj 121 53 r \$0-att-cut-active;
#X obj 185 179 v \$0-att-cut;
#X obj 295 249 r \$0-att-cut-typing;
#X obj 164 476 s \$0-att-cut#;
#X obj 467 248 r \$0-att-cut-enter;
#X obj 506 403 v \$0-att-cut;
#X obj 492 463 s \$0-set-att-cut;
#X obj 290 56 r \$0-att-cut;
#X connect 0 0 1 0;
#X connect 0 1 18 0;
#X connect 1 0 20 0;
#X connect 2 0 11 0;
#X connect 3 0 20 0;
#X connect 4 0 3 0;
#X connect 5 0 20 0;
#X connect 6 0 7 0;
#X connect 6 1 7 1;
#X connect 7 0 0 0;
#X connect 7 0 2 1;
#X connect 8 0 1 0;
#X connect 9 0 12 0;
#X connect 9 0 22 0;
#X connect 10 0 15 0;
#X connect 11 0 4 0;
#X connect 12 0 23 0;
#X connect 13 0 9 0;
#X connect 13 0 4 0;
#X connect 13 0 15 0;
#X connect 14 0 13 1;
#X connect 16 0 6 0;
#X connect 17 0 6 1;
#X connect 18 0 11 0;
#X connect 19 0 5 0;
#X connect 19 0 14 0;
#X connect 21 0 13 0;
#X connect 24 0 2 0;
#X connect 24 0 10 0;
#X restore 773 153 pd att-cut;
#X connect 0 0 14 0;
#X connect 1 0 11 0;
#X connect 2 0 1 0;
#X connect 3 0 2 0;
#X connect 4 0 0 0;
#X connect 5 0 4 0;
#X connect 6 0 12 0;
#X connect 7 0 33 0;
#X connect 8 0 4 0;
#X connect 9 0 2 0;
#X connect 9 0 5 0;
#X connect 10 0 13 0;
#X connect 13 0 11 0;
#X connect 14 0 15 0;
#X connect 15 0 11 0;
#X connect 16 0 37 0;
#X connect 17 0 27 0;
#X connect 18 0 17 0;
#X connect 19 0 18 0;
#X connect 20 0 16 0;
#X connect 21 0 20 0;
#X connect 22 0 30 0;
#X connect 23 0 34 0;
#X connect 24 0 20 0;
#X connect 25 0 18 0;
#X connect 25 0 21 0;
#X connect 26 0 28 0;
#X connect 28 0 27 0;
#X connect 29 0 27 0;
#X connect 31 0 22 0;
#X connect 31 0 23 0;
#X connect 32 0 6 0;
#X connect 32 0 7 0;
#X connect 36 0 29 0;
#X connect 37 0 38 0;
#X connect 37 1 36 0;
#X connect 38 0 29 0;
#X connect 39 0 44 0;
#X connect 40 0 45 0;
#X connect 41 0 47 0;
#X connect 42 0 48 0;
#X connect 43 0 39 0;
#X connect 43 0 40 0;
#X connect 46 0 41 0;
#X connect 46 0 42 0;
#X restore 282 80 pd GUI;
#N canvas 212 125 578 621 guts 0;
#X obj 79 61 inlet~;
#X obj 79 527 outlet~;
#X obj 79 451 else/lowpass~, f 48;
#X obj 247 71 inlet~;
#X obj 410 71 inlet~;
#X obj 431 266 r \$0-cutoff;
#X obj 430 318 r \$0-reson;
#X obj 247 352 +~;
#X obj 412 352 +~;
#X obj 247 187 *~;
#X obj 411 187 *~;
#N canvas 233 259 452 284 attenuators 0;
#X obj 79 203 outlet~;
#X obj 234 203 outlet~;
#X obj 234 131 * 50;
#X obj 79 131 * 5000;
#X obj 79 73 r \$0-real-att-cut;
#X obj 234 73 r \$0-real-att-Q;
#X obj 79 165 else/f2s~;
#X obj 234 165 else/f2s~;
#X connect 2 0 7 0;
#X connect 3 0 6 0;
#X connect 4 0 3 0;
#X connect 5 0 2 0;
#X connect 6 0 0 0;
#X connect 7 0 1 0;
#X restore 266 131 pd attenuators;
#X obj 247 388 clip~ 40 10000;
#X obj 412 387 clip~ 0.5 100;
#X connect 0 0 2 0;
#X connect 2 0 1 0;
#X connect 3 0 9 0;
#X connect 4 0 10 0;
#X connect 5 0 7 1;
#X connect 6 0 8 1;
#X connect 7 0 12 0;
#X connect 8 0 13 0;
#X connect 9 0 7 0;
#X connect 10 0 8 0;
#X connect 11 0 9 1;
#X connect 11 1 10 1;
#X connect 12 0 2 1;
#X connect 13 0 2 2;
#X restore 43 202 pd guts;
#N canvas 857 82 176 250 \$0-VCF 0;
#N canvas 838 280 373 410 (subpatch) 0;
#X obj 112 112 cnv 15 137 210 empty empty empty 20 12 0 14 #dbdbdb #373737 0;
#X obj 123 119 else/note 84 24 Inter empty 5 54 54 54 0 187 187 187 1 1 VCF;
#X obj 121 158 else/knob 50 40 10000 4 40 \$0-cutoff \$0-set-cutoff #e4e4e4 #a8a8a8 #4d4d4d 0 0 0 0 1 270 0 0 40 empty empty 0 8 0 0 0 0 0 0 0 0;
#X obj 123 237 else/note 51 10 Inter empty 5 55 55 55 0 223 223 223 1 1 Cutoff;
#X obj 180 237 else/note 50 10 Inter empty 5 55 55 55 0 223 223 223 1 1 Reson;
#X obj 132 261 else/knob 35 -1 1 0 0 \$0-att-cut \$0-set-att-cut #bbbbbb #7c7c7c black 0 0 0 0 1 320 0 0 0 empty empty 0 8 0 0 0 0 0 0 0 0;
#X obj 189 261 else/knob 35 -1 1 0 0 \$0-att-Q \$0-set-att-Q #bbbbbb #7c7c7c black 0 0 0 0 1 320 0 0 0 empty empty 0 8 0 0 0 0 0 0 0 0;
#X obj 188 158 else/knob 50 0.5 100 2 0.5 \$0-reson \$0-set-reson #e4e4e4 #a8a8a8 #4d4d4d 0 0 0 0 1 270 0 0 0.5 empty empty 0 8 0 0 0 0 0 0 0 0;
#X obj 118 214 note 58 12 Menlo \$0-cutoff-label 0 0 0 0 0 255 255 255 0 1 1340 Hz;
#X obj 189 214 note 48 12 Menlo \$0-reson-label 0 0 0 0 0 255 255 255 0 1 10 Q;
#X obj 215 119 else/button 19 31 #e0e0e0 #808080 2 1 2 0 0 \$0-collapse \$0-button;
#X obj 216 120 cnv 10 17 15 empty \$0-cnv ▼ 5 8 0 12 #bbbbbb #000000 0;
#X obj 216 134 cnv 10 17 15 empty \$0-cnv ▲ 5 5 0 12 #bbbbbb #000000 0;
#X text 129 305 Attenuverters;
#X obj 130 296 else/note 36 10 Menlo \$0-att-cut# 0 0 0 0 0 255 255 255 0 1 0.00;
#X obj 186 296 else/note 40 10 Menlo \$0-att-Q# 0 0 0 0 0 255 255 255 0 1;
#X coords 0 1 100 -1 139 212 1 111 111;
#X restore 15 15 graph;
#X coords 0 0 1 1 139 212 1 15 15;
#X restore 284 176 pd \$0-VCF;
#X obj 307 423 cnv 19 74 29 empty \$0-label-collapsed VCF 16 15 0 24 #bbbbbb #000000 0;
#X obj 306 422 else/button 75 31 #bbbbbb #bbbbbb 2 1 2 0 0 \$0-detatch \$0-uncollapse-set;
#X obj 387 423 cnv 10 17 15 empty empty ▲ 5 8 0 12 #bbbbbb #000000 0;
#X obj 387 437 cnv 10 17 15 empty empty ▼ 5 5 0 12 #bbbbbb #000000 0;
#X obj 386 422 else/button 19 31 #e0e0e0 #808080 2 1 2 0 0 \$0-uncollapse empty;
#N canvas 808 251 218 225 Learn 0;
#N canvas 357 38 761 758 cutoff 0;
#X msg 173 469 forget;
#X obj 40 532 else/midi.learn 1;
#A saved;
#X obj 40 600 t f b;
#X obj 40 112 else/format \$0-%s-learn, f 11;
#X obj 40 162 else/receiver;
#X obj 173 195 else/receiver;
#X msg 90 259 Learn for \$1 knob activated, f 9;
#X obj 90 207 symbol;
#X obj 205 345 symbol;
#X msg 205 378 Forget for \$1 knob;
#X obj 473 721 else/format \$0-set-%s;
#X obj 187 405 print [adsr.m~]:;
#X msg 442 311 learn;
#X msg 467 348 forget;
#X obj 432 403 else/receiver 1;
#X obj 564 401 else/route2 none;
#X msg 564 448 none;
#X obj 173 166 else/format \$0-%s-forget;
#X obj 189 121 else/sender -local sym;
#X obj 260 339 else/receiver -local sym, f 13;
#X obj 473 694 else/receiver -local sym;
#N canvas 268 234 610 478 savestate 0;
#X obj 235 409 outlet;
#X obj 101 283 route bang;
#X obj 339 213 else/format rcv-%s;
#X obj 101 255 route x, f 9;
#X obj 101 224 list trim;
#X obj 168 317 route none;
#X obj 235 359 symbol;
#X obj 239 215 list;
#X obj 264 159 list prepend, f 7;
#X obj 101 164 savestate;
#X obj 263 41 inlet;
#X obj 342 41 inlet;
#X obj 367 135 print [receiver] learn:;
#X obj 367 104 list trim;
#X connect 1 1 5 0;
#X connect 1 1 8 0;
#X connect 2 0 3 1;
#X connect 2 0 8 1;
#X connect 3 0 1 0;
#X connect 4 0 3 0;
#X connect 5 1 6 0;
#X connect 6 0 0 0;
#X connect 7 0 9 0;
#X connect 8 0 7 1;
#X connect 9 0 4 0;
#X connect 9 1 7 0;
#X connect 10 0 8 0;
#X connect 10 0 13 0;
#X connect 11 0 2 0;
#X connect 13 0 12 0;
#X restore 564 495 pd savestate;
#X obj 645 454 else/receiver -local sym, f 13;
#N canvas 251 108 631 527 savestate 0;
#X obj 168 340 outlet;
#X obj 101 261 route bang;
#X obj 101 233 route x, f 9;
#X obj 101 202 list trim;
#X obj 239 193 list;
#X obj 264 137 list prepend, f 7;
#X obj 101 142 savestate;
#X obj 263 79 inlet;
#X obj 342 96 inlet;
#X obj 339 191 else/format %s-learn;
#X obj 168 295 else/insert teach;
#X connect 1 1 5 0;
#X connect 1 1 10 0;
#X connect 2 0 1 0;
#X connect 3 0 2 0;
#X connect 4 0 6 0;
#X connect 5 0 4 1;
#X connect 6 0 3 0;
#X connect 6 1 4 0;
#X connect 7 0 5 0;
#X connect 8 0 9 0;
#X connect 9 0 2 1;
#X connect 9 0 5 1;
#X connect 10 0 0 0;
#X restore 156 579 pd savestate;
#X obj 237 550 else/receiver -local sym;
#X obj 173 22 else/loadbanger -init;
#X obj 433 706 s;
#X msg 40 453 learn;
#X obj 40 200 t b b;
#X obj 173 277 t b b;
#X obj 40 506 else/changed;
#X obj 442 375 else/changed;
#X obj 72 398 send \$0-deactivate, f 13;
#X msg 72 370 deactivate;
#X obj 187 433 r \$0-deactivate;
#X obj 431 266 r \$0-deactivate;
#X obj 173 55 symbol cutoff;
#X obj 433 659 else/rescale -exp 4 40 10000;
#X connect 0 0 30 0;
#X connect 1 0 2 0;
#X connect 1 1 23 0;
#X connect 2 0 37 0;
#X connect 2 1 13 0;
#X connect 3 0 4 0;
#X connect 4 0 28 0;
#X connect 5 0 29 0;
#X connect 6 0 11 0;
#X connect 7 0 6 0;
#X connect 8 0 9 0;
#X connect 9 0 11 0;
#X connect 10 0 26 1;
#X connect 12 0 31 0;
#X connect 13 0 31 0;
#X connect 14 0 37 0;
#X connect 14 1 15 0;
#X connect 15 0 16 0;
#X connect 15 1 21 0;
#X connect 15 1 0 0;
#X connect 16 0 21 0;
#X connect 17 0 5 0;
#X connect 19 0 8 1;
#X connect 20 0 10 0;
#X connect 21 0 14 0;
#X connect 22 0 21 1;
#X connect 23 0 1 0;
#X connect 24 0 23 1;
#X connect 25 0 36 0;
#X connect 27 0 30 0;
#X connect 28 0 27 0;
#X connect 28 0 12 0;
#X connect 28 1 7 0;
#X connect 28 1 33 0;
#X connect 29 0 0 0;
#X connect 29 0 13 0;
#X connect 29 1 8 0;
#X connect 30 0 1 0;
#X connect 31 0 14 0;
#X connect 33 0 32 0;
#X connect 34 0 30 0;
#X connect 35 0 14 0;
#X connect 36 0 3 0;
#X connect 36 0 17 0;
#X connect 36 0 18 0;
#X connect 36 0 7 1;
#X connect 37 0 26 0;
#X restore 55 48 pd cutoff;
#N canvas 357 38 761 758 reson 0;
#X msg 173 469 forget;
#X obj 40 532 else/midi.learn 1;
#A saved;
#X obj 40 600 t f b;
#X obj 40 112 else/format \$0-%s-learn, f 11;
#X obj 40 162 else/receiver;
#X obj 173 195 else/receiver;
#X msg 90 259 Learn for \$1 knob activated, f 9;
#X obj 90 207 symbol;
#X obj 205 345 symbol;
#X msg 205 378 Forget for \$1 knob;
#X obj 473 721 else/format \$0-set-%s;
#X obj 187 405 print [adsr.m~]:;
#X msg 442 311 learn;
#X msg 467 348 forget;
#X obj 432 403 else/receiver 1;
#X obj 564 401 else/route2 none;
#X msg 564 448 none;
#X obj 173 166 else/format \$0-%s-forget;
#X obj 189 121 else/sender -local sym;
#X obj 260 339 else/receiver -local sym, f 13;
#X obj 473 694 else/receiver -local sym;
#N canvas 268 234 610 478 savestate 0;
#X obj 235 409 outlet;
#X obj 101 283 route bang;
#X obj 339 213 else/format rcv-%s;
#X obj 101 255 route x, f 9;
#X obj 101 224 list trim;
#X obj 168 317 route none;
#X obj 235 359 symbol;
#X obj 239 215 list;
#X obj 264 159 list prepend, f 7;
#X obj 101 164 savestate;
#X obj 263 41 inlet;
#X obj 342 41 inlet;
#X obj 367 135 print [receiver] learn:;
#X obj 367 104 list trim;
#X connect 1 1 5 0;
#X connect 1 1 8 0;
#X connect 2 0 3 1;
#X connect 2 0 8 1;
#X connect 3 0 1 0;
#X connect 4 0 3 0;
#X connect 5 1 6 0;
#X connect 6 0 0 0;
#X connect 7 0 9 0;
#X connect 8 0 7 1;
#X connect 9 0 4 0;
#X connect 9 1 7 0;
#X connect 10 0 8 0;
#X connect 10 0 13 0;
#X connect 11 0 2 0;
#X connect 13 0 12 0;
#X restore 564 495 pd savestate;
#X obj 645 454 else/receiver -local sym, f 13;
#N canvas 251 108 631 527 savestate 0;
#X obj 168 340 outlet;
#X obj 101 261 route bang;
#X obj 101 233 route x, f 9;
#X obj 101 202 list trim;
#X obj 239 193 list;
#X obj 264 137 list prepend, f 7;
#X obj 101 142 savestate;
#X obj 263 79 inlet;
#X obj 342 96 inlet;
#X obj 339 191 else/format %s-learn;
#X obj 168 295 else/insert teach;
#X connect 1 1 5 0;
#X connect 1 1 10 0;
#X connect 2 0 1 0;
#X connect 3 0 2 0;
#X connect 4 0 6 0;
#X connect 5 0 4 1;
#X connect 6 0 3 0;
#X connect 6 1 4 0;
#X connect 7 0 5 0;
#X connect 8 0 9 0;
#X connect 9 0 2 1;
#X connect 9 0 5 1;
#X connect 10 0 0 0;
#X restore 156 579 pd savestate;
#X obj 237 550 else/receiver -local sym;
#X obj 173 22 else/loadbanger -init;
#X obj 433 706 s;
#X msg 40 453 learn;
#X obj 40 200 t b b;
#X obj 173 277 t b b;
#X obj 40 506 else/changed;
#X obj 442 375 else/changed;
#X obj 72 398 send \$0-deactivate, f 13;
#X msg 72 370 deactivate;
#X obj 187 433 r \$0-deactivate;
#X obj 431 266 r \$0-deactivate;
#X obj 173 55 symbol reson;
#X obj 433 659 else/rescale -exp 2 0.5 100;
#X connect 0 0 30 0;
#X connect 1 0 2 0;
#X connect 1 1 23 0;
#X connect 2 0 37 0;
#X connect 2 1 13 0;
#X connect 3 0 4 0;
#X connect 4 0 28 0;
#X connect 5 0 29 0;
#X connect 6 0 11 0;
#X connect 7 0 6 0;
#X connect 8 0 9 0;
#X connect 9 0 11 0;
#X connect 10 0 26 1;
#X connect 12 0 31 0;
#X connect 13 0 31 0;
#X connect 14 0 37 0;
#X connect 14 1 15 0;
#X connect 15 0 16 0;
#X connect 15 1 21 0;
#X connect 15 1 0 0;
#X connect 16 0 21 0;
#X connect 17 0 5 0;
#X connect 19 0 8 1;
#X connect 20 0 10 0;
#X connect 21 0 14 0;
#X connect 22 0 21 1;
#X connect 23 0 1 0;
#X connect 24 0 23 1;
#X connect 25 0 36 0;
#X connect 27 0 30 0;
#X connect 28 0 27 0;
#X connect 28 0 12 0;
#X connect 28 1 7 0;
#X connect 28 1 33 0;
#X connect 29 0 0 0;
#X connect 29 0 13 0;
#X connect 29 1 8 0;
#X connect 30 0 1 0;
#X connect 31 0 14 0;
#X connect 33 0 32 0;
#X connect 34 0 30 0;
#X connect 35 0 14 0;
#X connect 36 0 3 0;
#X connect 36 0 17 0;
#X connect 36 0 18 0;
#X connect 36 0 7 1;
#X connect 37 0 26 0;
#X restore 55 75 pd reson;
#N canvas 357 38 761 758 att-cut 0;
#X msg 173 469 forget;
#X obj 40 532 else/midi.learn 1;
#A saved;
#X obj 40 600 t f b;
#X obj 40 112 else/format \$0-%s-learn, f 11;
#X obj 40 162 else/receiver;
#X obj 173 195 else/receiver;
#X msg 90 259 Learn for \$1 knob activated, f 9;
#X obj 90 207 symbol;
#X obj 205 345 symbol;
#X msg 205 378 Forget for \$1 knob;
#X obj 473 721 else/format \$0-set-%s;
#X obj 187 405 print [adsr.m~]:;
#X msg 442 311 learn;
#X msg 467 348 forget;
#X obj 432 403 else/receiver 1;
#X obj 564 401 else/route2 none;
#X msg 564 448 none;
#X obj 173 166 else/format \$0-%s-forget;
#X obj 189 121 else/sender -local sym;
#X obj 260 339 else/receiver -local sym, f 13;
#X obj 473 694 else/receiver -local sym;
#N canvas 268 234 610 478 savestate 0;
#X obj 235 409 outlet;
#X obj 101 283 route bang;
#X obj 339 213 else/format rcv-%s;
#X obj 101 255 route x, f 9;
#X obj 101 224 list trim;
#X obj 168 317 route none;
#X obj 235 359 symbol;
#X obj 239 215 list;
#X obj 264 159 list prepend, f 7;
#X obj 101 164 savestate;
#X obj 263 41 inlet;
#X obj 342 41 inlet;
#X obj 367 135 print [receiver] learn:;
#X obj 367 104 list trim;
#X connect 1 1 5 0;
#X connect 1 1 8 0;
#X connect 2 0 3 1;
#X connect 2 0 8 1;
#X connect 3 0 1 0;
#X connect 4 0 3 0;
#X connect 5 1 6 0;
#X connect 6 0 0 0;
#X connect 7 0 9 0;
#X connect 8 0 7 1;
#X connect 9 0 4 0;
#X connect 9 1 7 0;
#X connect 10 0 8 0;
#X connect 10 0 13 0;
#X connect 11 0 2 0;
#X connect 13 0 12 0;
#X restore 564 495 pd savestate;
#X obj 645 454 else/receiver -local sym, f 13;
#N canvas 251 108 631 527 savestate 0;
#X obj 168 340 outlet;
#X obj 101 261 route bang;
#X obj 101 233 route x, f 9;
#X obj 101 202 list trim;
#X obj 239 193 list;
#X obj 264 137 list prepend, f 7;
#X obj 101 142 savestate;
#X obj 263 79 inlet;
#X obj 342 96 inlet;
#X obj 339 191 else/format %s-learn;
#X obj 168 295 else/insert teach;
#X connect 1 1 5 0;
#X connect 1 1 10 0;
#X connect 2 0 1 0;
#X connect 3 0 2 0;
#X connect 4 0 6 0;
#X connect 5 0 4 1;
#X connect 6 0 3 0;
#X connect 6 1 4 0;
#X connect 7 0 5 0;
#X connect 8 0 9 0;
#X connect 9 0 2 1;
#X connect 9 0 5 1;
#X connect 10 0 0 0;
#X restore 156 579 pd savestate;
#X obj 237 550 else/receiver -local sym;
#X obj 173 22 else/loadbanger -init;
#X obj 433 706 s;
#X msg 40 453 learn;
#X obj 40 200 t b b;
#X obj 173 277 t b b;
#X obj 40 506 else/changed;
#X obj 442 375 else/changed;
#X obj 72 398 send \$0-deactivate, f 13;
#X msg 72 370 deactivate;
#X obj 187 433 r \$0-deactivate;
#X obj 431 266 r \$0-deactivate;
#X obj 173 55 symbol att-cut;
#X obj 433 659 else/rescale -1 1;
#X connect 0 0 30 0;
#X connect 1 0 2 0;
#X connect 1 1 23 0;
#X connect 2 0 37 0;
#X connect 2 1 13 0;
#X connect 3 0 4 0;
#X connect 4 0 28 0;
#X connect 5 0 29 0;
#X connect 6 0 11 0;
#X connect 7 0 6 0;
#X connect 8 0 9 0;
#X connect 9 0 11 0;
#X connect 10 0 26 1;
#X connect 12 0 31 0;
#X connect 13 0 31 0;
#X connect 14 0 37 0;
#X connect 14 1 15 0;
#X connect 15 0 16 0;
#X connect 15 1 21 0;
#X connect 15 1 0 0;
#X connect 16 0 21 0;
#X connect 17 0 5 0;
#X connect 19 0 8 1;
#X connect 20 0 10 0;
#X connect 21 0 14 0;
#X connect 22 0 21 1;
#X connect 23 0 1 0;
#X connect 24 0 23 1;
#X connect 25 0 36 0;
#X connect 27 0 30 0;
#X connect 28 0 27 0;
#X connect 28 0 12 0;
#X connect 28 1 7 0;
#X connect 28 1 33 0;
#X connect 29 0 0 0;
#X connect 29 0 13 0;
#X connect 29 1 8 0;
#X connect 30 0 1 0;
#X connect 31 0 14 0;
#X connect 33 0 32 0;
#X connect 34 0 30 0;
#X connect 35 0 14 0;
#X connect 36 0 3 0;
#X connect 36 0 17 0;
#X connect 36 0 18 0;
#X connect 36 0 7 1;
#X connect 37 0 26 0;
#X restore 57 124 pd att-cut;
#N canvas 357 38 761 758 att-Q 0;
#X msg 173 469 forget;
#X obj 40 532 else/midi.learn 1;
#A saved;
#X obj 40 600 t f b;
#X obj 40 112 else/format \$0-%s-learn, f 11;
#X obj 40 162 else/receiver;
#X obj 173 195 else/receiver;
#X msg 90 259 Learn for \$1 knob activated, f 9;
#X obj 90 207 symbol;
#X obj 205 345 symbol;
#X msg 205 378 Forget for \$1 knob;
#X obj 473 721 else/format \$0-set-%s;
#X obj 187 405 print [adsr.m~]:;
#X msg 442 311 learn;
#X msg 467 348 forget;
#X obj 432 403 else/receiver 1;
#X obj 564 401 else/route2 none;
#X msg 564 448 none;
#X obj 173 166 else/format \$0-%s-forget;
#X obj 189 121 else/sender -local sym;
#X obj 260 339 else/receiver -local sym, f 13;
#X obj 473 694 else/receiver -local sym;
#N canvas 268 234 610 478 savestate 0;
#X obj 235 409 outlet;
#X obj 101 283 route bang;
#X obj 339 213 else/format rcv-%s;
#X obj 101 255 route x, f 9;
#X obj 101 224 list trim;
#X obj 168 317 route none;
#X obj 235 359 symbol;
#X obj 239 215 list;
#X obj 264 159 list prepend, f 7;
#X obj 101 164 savestate;
#X obj 263 41 inlet;
#X obj 342 41 inlet;
#X obj 367 135 print [receiver] learn:;
#X obj 367 104 list trim;
#X connect 1 1 5 0;
#X connect 1 1 8 0;
#X connect 2 0 3 1;
#X connect 2 0 8 1;
#X connect 3 0 1 0;
#X connect 4 0 3 0;
#X connect 5 1 6 0;
#X connect 6 0 0 0;
#X connect 7 0 9 0;
#X connect 8 0 7 1;
#X connect 9 0 4 0;
#X connect 9 1 7 0;
#X connect 10 0 8 0;
#X connect 10 0 13 0;
#X connect 11 0 2 0;
#X connect 13 0 12 0;
#X restore 564 495 pd savestate;
#X obj 645 454 else/receiver -local sym, f 13;
#N canvas 251 108 631 527 savestate 0;
#X obj 168 340 outlet;
#X obj 101 261 route bang;
#X obj 101 233 route x, f 9;
#X obj 101 202 list trim;
#X obj 239 193 list;
#X obj 264 137 list prepend, f 7;
#X obj 101 142 savestate;
#X obj 263 79 inlet;
#X obj 342 96 inlet;
#X obj 339 191 else/format %s-learn;
#X obj 168 295 else/insert teach;
#X connect 1 1 5 0;
#X connect 1 1 10 0;
#X connect 2 0 1 0;
#X connect 3 0 2 0;
#X connect 4 0 6 0;
#X connect 5 0 4 1;
#X connect 6 0 3 0;
#X connect 6 1 4 0;
#X connect 7 0 5 0;
#X connect 8 0 9 0;
#X connect 9 0 2 1;
#X connect 9 0 5 1;
#X connect 10 0 0 0;
#X restore 156 579 pd savestate;
#X obj 237 550 else/receiver -local sym;
#X obj 173 22 else/loadbanger -init;
#X obj 433 706 s;
#X msg 40 453 learn;
#X obj 40 200 t b b;
#X obj 173 277 t b b;
#X obj 40 506 else/changed;
#X obj 442 375 else/changed;
#X obj 72 398 send \$0-deactivate, f 13;
#X msg 72 370 deactivate;
#X obj 187 433 r \$0-deactivate;
#X obj 431 266 r \$0-deactivate;
#X obj 433 659 else/rescale -1 1;
#X obj 173 55 symbol att-Q;
#X connect 0 0 30 0;
#X connect 1 0 2 0;
#X connect 1 1 23 0;
#X connect 2 0 36 0;
#X connect 2 1 13 0;
#X connect 3 0 4 0;
#X connect 4 0 28 0;
#X connect 5 0 29 0;
#X connect 6 0 11 0;
#X connect 7 0 6 0;
#X connect 8 0 9 0;
#X connect 9 0 11 0;
#X connect 10 0 26 1;
#X connect 12 0 31 0;
#X connect 13 0 31 0;
#X connect 14 0 36 0;
#X connect 14 1 15 0;
#X connect 15 0 16 0;
#X connect 15 1 21 0;
#X connect 15 1 0 0;
#X connect 16 0 21 0;
#X connect 17 0 5 0;
#X connect 19 0 8 1;
#X connect 20 0 10 0;
#X connect 21 0 14 0;
#X connect 22 0 21 1;
#X connect 23 0 1 0;
#X connect 24 0 23 1;
#X connect 25 0 37 0;
#X connect 27 0 30 0;
#X connect 28 0 27 0;
#X connect 28 0 12 0;
#X connect 28 1 7 0;
#X connect 28 1 33 0;
#X connect 29 0 0 0;
#X connect 29 0 13 0;
#X connect 29 1 8 0;
#X connect 30 0 1 0;
#X connect 31 0 14 0;
#X connect 33 0 32 0;
#X connect 34 0 30 0;
#X connect 35 0 14 0;
#X connect 36 0 26 0;
#X connect 37 0 3 0;
#X connect 37 0 17 0;
#X connect 37 0 18 0;
#X connect 37 0 7 1;
#X restore 57 148 pd att-Q;
#X restore 300 105 pd Learn;
#X connect 0 0 11 0;
#X connect 0 1 9 0;
#X connect 7 0 11 1;
#X connect 8 0 11 2;
#X connect 11 0 1 0;
#X coords 0 1 100 -1 159 250 2 275 150;
