#N canvas 447 78 546 514 12;
#X obj 43 42 inlet~;
#X obj 43 428 outlet~;
#N canvas 517 59 711 437 preset 0;
#X obj 125 121 else/sender 1 \\\$0-presets;
#X msg 125 86 name \$1;
#X obj 90 171 else/receiver;
#X obj 123 220 route list;
#N canvas 596 76 469 447 id-name-init 0;
#X obj 165 113 + 1;
#X obj 257 100 else/dollsym 1;
#X obj 141 80 value;
#X obj 141 252 outlet;
#X obj 141 51 else/loadbanger 2;
#X obj 141 201 else/dollsym 1;
#X obj 257 76 symbol vcf-id_\\\$0;
#X obj 141 166 makefilename \\\$0-vcf-%d;
#X connect 0 0 2 0;
#X connect 1 0 2 1;
#X connect 2 0 0 0;
#X connect 2 0 7 0;
#X connect 4 0 2 0;
#X connect 4 1 6 0;
#X connect 5 0 3 0;
#X connect 6 0 1 0;
#X connect 7 0 5 0;
#X restore 90 39 pd id-name-init;
#X obj 90 321 else/var \$0-cutoff \$0-reson \$0-att-cut \$0-att-Q;
#X obj 123 257 else/dispatch \$0-set-cutoff \$0-set-reson \$0-set-att-cut \$0-set-att-Q, f 41;
#X connect 1 0 0 0;
#X connect 2 0 3 0;
#X connect 2 0 5 0;
#X connect 3 0 6 0;
#X connect 4 0 1 0;
#X connect 4 0 2 0;
#X restore 338 80 pd preset;
#N canvas 549 148 444 305 init-savestate 0;
#X obj 129 64 savestate;
#X obj 49 125 list;
#X obj 49 43 loadbang;
#X obj 94 131 route list;
#X obj 94 105 list trim;
#X obj 49 202 else/dispatch \$0-set-cutoff \$0-set-reson \$0-set-att-cut \$0-set-att-Q \$0-set-GUI, f 41;
#X obj 189 96 else/var \$0-cutoff \$0-reson \$0-att-cut \$0-att-Q \$0-GUI, f 27;
#X obj 49 161 else/default 500 10 0 0 1;
#X connect 0 0 4 0;
#X connect 0 1 6 0;
#X connect 1 0 7 0;
#X connect 2 0 1 0;
#X connect 3 0 1 1;
#X connect 4 0 3 0;
#X connect 6 0 0 0;
#X connect 7 0 5 0;
#X restore 282 56 pd init-savestate;
#X text 275 153 In;
#X text 328 153 Cutoff;
#X text 395 153 Reson;
#X obj 101 42 inlet~;
#X obj 159 42 inlet~;
#N canvas 270 258 387 333 route 0;
#X obj 141 267 s \$0-set-cutoff;
#X obj 165 238 s \$0-set-reson;
#X obj 185 207 s \$0-att-cut-set;
#X obj 201 177 s \$0-att-Q-set;
#X obj 83 29 inlet;
#X obj 83 63 route cutoff reson cutoff_att reson_att gui, f 26;
#X obj 227 131 s \$0-set-GUI;
#X obj 227 106 != 0;
#X connect 4 0 5 0;
#X connect 5 0 0 0;
#X connect 5 1 1 0;
#X connect 5 2 2 0;
#X connect 5 3 3 0;
#X connect 5 4 7 0;
#X connect 7 0 6 0;
#X restore 131 181 pd route;
#N canvas 859 259 251 248 MIDI-learn 0;
#N canvas 623 376 577 472 cutoff-knob 0;
#X msg 114 218 forget;
#X obj 240 221 savestate;
#X obj 300 268 list;
#X obj 240 326 else/insert teach;
#X obj 96 270 else/midi.learn 1;
#A saved;
#X obj 94 34 r \$0-cutoff-learn;
#X msg 113 64 MIDI-learn for cutoff knob activated;
#X obj 114 130 r \$0-cutoff-forget;
#X msg 127 164 MIDI-forget for cutoff knob;
#X obj 325 243 list prepend cutoff-learn;
#X obj 240 297 else/route2 cutoff-learn;
#X obj 96 405 s \$0-set-cutoff;
#X obj 113 91 print [vcf.m~]:;
#X obj 127 189 print [vcf.m~]:;
#X obj 96 366 else/rescale -exp 4 50 10000;
#X connect 0 0 4 0;
#X connect 1 0 10 0;
#X connect 1 1 2 0;
#X connect 2 0 1 0;
#X connect 3 0 4 0;
#X connect 4 0 14 0;
#X connect 4 1 9 0;
#X connect 5 0 6 0;
#X connect 5 0 4 0;
#X connect 6 0 12 0;
#X connect 7 0 0 0;
#X connect 7 0 8 0;
#X connect 8 0 13 0;
#X connect 9 0 2 1;
#X connect 10 0 3 0;
#X connect 14 0 11 0;
#X restore 52 62 pd cutoff-knob;
#N canvas 888 372 577 472 att-decay-knob 0;
#X msg 114 218 forget;
#X obj 240 221 savestate;
#X obj 300 268 list;
#X obj 240 326 else/insert teach;
#X obj 96 270 else/midi.learn 1;
#A saved;
#X obj 96 366 else/rescale -1 1;
#X obj 113 91 print [vcf.m~]:;
#X obj 127 189 print [vcf.m~]:;
#X obj 94 33 r \$0-att-Q-learn;
#X msg 113 64 MIDI-learn for att-Q knob activated;
#X msg 127 164 MIDI-forget for att-Q knob;
#X obj 114 130 r \$0-att-Q-forget;
#X obj 325 243 list prepend att-Q-learn;
#X obj 240 296 else/route2 att-Q-learn;
#X obj 96 405 s \$0-set-att-Q;
#X connect 0 0 4 0;
#X connect 1 0 13 0;
#X connect 1 1 2 0;
#X connect 2 0 1 0;
#X connect 3 0 4 0;
#X connect 4 0 5 0;
#X connect 4 1 12 0;
#X connect 5 0 14 0;
#X connect 8 0 9 0;
#X connect 8 0 4 0;
#X connect 9 0 6 0;
#X connect 10 0 7 0;
#X connect 11 0 0 0;
#X connect 11 0 10 0;
#X connect 12 0 2 1;
#X connect 13 0 3 0;
#X restore 52 150 pd att-decay-knob;
#N canvas 623 375 577 472 att-cutoff-knob 0;
#X msg 114 218 forget;
#X obj 240 221 savestate;
#X obj 300 268 list;
#X obj 240 326 else/insert teach;
#X obj 96 270 else/midi.learn 1;
#A saved;
#X obj 96 366 else/rescale -1 1;
#X obj 94 34 r \$0-att-cut-learn;
#X msg 113 64 MIDI-learn for att-cutoff knob activated;
#X obj 114 130 r \$0-att-cut-forget;
#X msg 127 163 MIDI-forget for att-cutodd knob;
#X obj 325 243 list prepend att-cut-learn;
#X obj 240 297 else/route2 att-cut-learn;
#X obj 96 405 s \$0-set-att-cut;
#X obj 113 91 print [vcf.m~]:;
#X obj 127 189 print [vcf.m~]:;
#X connect 0 0 4 0;
#X connect 1 0 11 0;
#X connect 1 1 2 0;
#X connect 2 0 1 0;
#X connect 3 0 4 0;
#X connect 4 0 5 0;
#X connect 4 1 10 0;
#X connect 5 0 12 0;
#X connect 6 0 7 0;
#X connect 6 0 4 0;
#X connect 7 0 13 0;
#X connect 8 0 0 0;
#X connect 8 0 9 0;
#X connect 9 0 14 0;
#X connect 10 0 2 1;
#X connect 11 0 3 0;
#X restore 52 126 pd att-cutoff-knob;
#N canvas 776 312 577 472 reson-knob 0;
#X msg 114 218 forget;
#X obj 240 221 savestate;
#X obj 300 268 list;
#X obj 240 326 else/insert teach;
#X obj 96 270 else/midi.learn 1;
#A saved;
#X obj 127 189 print [vcf.m~]:;
#X obj 113 91 print [vcf.m~]:;
#X msg 113 64 MIDI-learn for reson knob activated;
#X msg 127 164 MIDI-forget for reson knob;
#X obj 325 243 list prepend reson-learn;
#X obj 240 297 else/route2 reson-learn;
#X obj 96 404 s \$0-set-reson;
#X obj 114 130 r \$0-reson-forget;
#X obj 94 34 r \$0-reson-learn;
#X obj 96 366 else/rescale -exp 2 0.5 100;
#X connect 0 0 4 0;
#X connect 1 0 10 0;
#X connect 1 1 2 0;
#X connect 2 0 1 0;
#X connect 3 0 4 0;
#X connect 4 0 14 0;
#X connect 4 1 9 0;
#X connect 7 0 6 0;
#X connect 8 0 5 0;
#X connect 9 0 2 1;
#X connect 10 0 3 0;
#X connect 12 0 0 0;
#X connect 12 0 8 0;
#X connect 13 0 7 0;
#X connect 13 0 4 0;
#X connect 14 0 11 0;
#X restore 52 87 pd reson-knob;
#X restore 294 105 pd MIDI-learn;
#N canvas 236 105 743 574 GUI 0;
#X obj 85 155 else/limit 100;
#X msg 214 175 color 0 0 \$1;
#X obj 214 143 * 175;
#X obj 227 116 loadbang;
#X obj 85 127 f;
#X obj 139 112 sel 0;
#X msg 178 398 active 0;
#X msg 158 458 active 1;
#X obj 85 73 r \$0-cutoff;
#X obj 214 82 r \$0-cutoff-active;
#X obj 239 231 r \$0-cutoff-typing;
#X obj 214 292 s \$0-cutoff-label;
#X obj 178 426 s \$0-set-cutoff;
#X msg 239 262 set \$1| Hz;
#X obj 85 189 else/rint;
#X msg 85 225 set \$1 Hz;
#X obj 414 153 else/limit 100;
#X msg 543 173 color 0 0 \$1;
#X obj 543 141 * 175;
#X obj 556 114 loadbang;
#X obj 414 125 f;
#X obj 468 110 sel 0;
#X msg 507 396 active 0;
#X msg 487 456 active 1;
#X obj 414 187 else/rint;
#X obj 414 71 r \$0-reson;
#X obj 543 80 r \$0-reson-active;
#X obj 568 229 r \$0-reson-typing;
#X obj 543 290 s \$0-reson-label;
#X msg 568 260 set \$1| Q;
#X msg 414 223 set \$1 Q;
#X obj 507 424 s \$0-set-reson;
#X obj 488 367 r \$0-reson-tab;
#X obj 159 369 r \$0-cutoff-tab;
#X obj 158 486 s \$0-set-reson;
#X obj 487 484 s \$0-set-cutoff;
#N canvas 185 162 789 513 collapse 0;
#X obj 28 150 r \$0-uncollapse;
#X obj 290 420 r \$0-detatch;
#X obj 232 153 else/canvas.setname \$0-m 2;
#X obj 290 305 r \$0-set-GUI;
#X obj 290 386 s \$0-uncollapse;
#X obj 313 359 s \$0-collapse;
#X obj 290 331 sel 1 0;
#X obj 28 16 r \$0-collapse;
#X obj 290 447 message \; pd-\$0-VCF vis 1;
#X obj 28 184 else/message \; \$0-button readonly 0 \, transparent 2 \; pd-\$0-VCF donecanvasdialog 1 1 1 0 0 1 1 139 212 15 15 \, vis 0 \; \$0-cnv color #bbbbbb #000000 #000000 \; \$0-m goprect 275 150 159 250 \, dirty 0 \; \$0-GUI 1, f 55;
#X obj 28 45 else/message \; \$0-button readonly 1 \, transparent 3 \; pd-\$0-VCF donecanvasdialog 1 1 0 0 0 1 1 139 212 15 15 \; \$0-cnv color #dbdbdb #000000 #dbdbdb \; \$0-m goprect 300 415 112 44 \, dirty 0 \; \$0-GUI 0;
#X obj 487 52 r \$0-detatch-hover;
#X obj 562 418 s \$0-label-collapsed;
#X obj 539 284 sel 0 1;
#X msg 562 317 label ⤢ \, label_font 0 48 \, label_pos 34 12, f 25;
#X obj 469 282 loadbang;
#X obj 507 81 else/canvas.edit 3;
#X obj 539 256 change;
#X obj 507 167 sel 1;
#X obj 487 194 f;
#X obj 507 140 t f f, f 10;
#X obj 507 110 == 0;
#X obj 487 220 spigot;
#X msg 537 366 label VCF \, label_font 0 24 \, label_pos 16 15, f 27;
#X connect 0 0 9 0;
#X connect 1 0 8 0;
#X connect 3 0 6 0;
#X connect 6 0 4 0;
#X connect 6 1 5 0;
#X connect 7 0 10 0;
#X connect 11 0 19 0;
#X connect 13 0 23 0;
#X connect 13 1 14 0;
#X connect 14 0 12 0;
#X connect 15 0 23 0;
#X connect 16 0 21 0;
#X connect 17 0 13 0;
#X connect 18 0 19 0;
#X connect 18 1 17 0;
#X connect 19 0 22 0;
#X connect 20 0 18 0;
#X connect 20 1 22 1;
#X connect 21 0 20 0;
#X connect 22 0 17 0;
#X connect 23 0 12 0;
#X restore 343 409 pd collapse;
#X connect 0 0 14 0;
#X connect 1 0 11 0;
#X connect 2 0 1 0;
#X connect 3 0 2 0;
#X connect 4 0 0 0;
#X connect 5 0 4 0;
#X connect 6 0 12 0;
#X connect 7 0 34 0;
#X connect 8 0 4 0;
#X connect 9 0 2 0;
#X connect 9 0 5 0;
#X connect 10 0 13 0;
#X connect 13 0 11 0;
#X connect 14 0 15 0;
#X connect 15 0 11 0;
#X connect 16 0 24 0;
#X connect 17 0 28 0;
#X connect 18 0 17 0;
#X connect 19 0 18 0;
#X connect 20 0 16 0;
#X connect 21 0 20 0;
#X connect 22 0 31 0;
#X connect 23 0 35 0;
#X connect 24 0 30 0;
#X connect 25 0 20 0;
#X connect 26 0 18 0;
#X connect 26 0 21 0;
#X connect 27 0 29 0;
#X connect 29 0 28 0;
#X connect 30 0 28 0;
#X connect 32 0 22 0;
#X connect 32 0 23 0;
#X connect 33 0 6 0;
#X connect 33 0 7 0;
#X restore 282 80 pd GUI;
#N canvas 212 125 365 519 guts 0;
#X obj 39 55 inlet~;
#X obj 39 441 outlet~;
#X obj 39 385 else/lowpass~, f 17;
#X obj 97 55 inlet~;
#X obj 155 55 inlet~;
#X obj 174 250 r \$0-cutoff;
#X obj 173 302 r \$0-reson;
#X obj 97 336 +~;
#X obj 155 336 +~;
#X obj 97 171 *~;
#X obj 154 171 *~;
#N canvas 486 236 452 284 attenuators 0;
#X obj 109 173 outlet~;
#X obj 234 173 outlet~;
#X obj 109 73 r \$0-att-cut;
#X obj 234 131 * 50;
#X obj 109 131 * 5000;
#X obj 234 73 r \$0-att-Q;
#X connect 2 0 4 0;
#X connect 3 0 1 0;
#X connect 4 0 0 0;
#X connect 5 0 3 0;
#X restore 181 105 pd attenuators;
#X connect 0 0 2 0;
#X connect 2 0 1 0;
#X connect 3 0 9 0;
#X connect 4 0 10 0;
#X connect 5 0 7 1;
#X connect 6 0 8 1;
#X connect 7 0 2 1;
#X connect 8 0 2 2;
#X connect 9 0 7 0;
#X connect 10 0 8 0;
#X connect 11 0 9 1;
#X connect 11 1 10 1;
#X restore 43 202 pd guts;
#N canvas 857 82 176 250 \$0-VCF 0;
#N canvas 838 280 373 410 (subpatch) 0;
#X obj 112 112 cnv 15 137 210 empty empty empty 20 12 0 14 #dbdbdb #373737 0;
#X obj 123 119 else/note 84 24 Inter empty 5 54 54 54 0 187 187 187 1 1 VCF;
#X obj 121 158 else/knob 50 50 10000 4 50 \$0-cutoff \$0-set-cutoff #e4e4e4 #a8a8a8 #4d4d4d 0 0 0 0 1 270 0 0 50 empty empty 0 8 0 0 0 0 0 0 0 0;
#X obj 123 237 else/note 51 10 Inter empty 5 55 55 55 0 223 223 223 1 1 Cutoff;
#X obj 180 237 else/note 50 10 Inter empty 5 55 55 55 0 223 223 223 1 1 Reson;
#X obj 132 261 else/knob 35 -1 1 0 0 \$0-att-cut \$0-set-att-cut #bbbbbb #7c7c7c black 0 0 0 0 1 320 0 0 0 empty empty 0 8 0 0 0 0 0 0 0 0;
#X obj 189 261 else/knob 35 -1 1 0 0 \$0-att-Q \$0-set-att-Q #bbbbbb #7c7c7c black 0 0 0 0 1 320 0 0 0 empty empty 0 8 0 0 0 0 0 0 0 0;
#X text 130 301 Attenuverters;
#X obj 188 158 else/knob 50 0.5 100 2 0.5 \$0-reson \$0-set-reson #e4e4e4 #a8a8a8 #4d4d4d 0 0 0 0 1 270 0 0 0.5 empty empty 0 8 0 0 0 0 0 0 0 0;
#X obj 118 214 note 58 12 Menlo \$0-cutoff-label 0 0 0 0 0 255 255 255 0 1 500 Hz;
#X obj 189 214 note 48 12 Menlo \$0-reson-label 0 0 0 0 0 255 255 255 0 1 10 Q;
#X obj 215 119 else/button 19 31 #e0e0e0 #808080 2 1 2 0 0 \$0-collapse \$0-button;
#X obj 216 120 cnv 10 17 15 empty \$0-cnv ▼ 5 8 0 12 #bbbbbb #000000 0;
#X obj 216 134 cnv 10 17 15 empty \$0-cnv ▲ 5 5 0 12 #bbbbbb #000000 0;
#X coords 0 1 100 -1 139 212 1 111 111;
#X restore 15 15 graph;
#X coords 0 0 1 1 139 212 1 15 15;
#X restore 284 176 pd \$0-VCF;
#X obj 307 423 cnv 19 74 29 empty \$0-label-collapsed VCA-2 5 15 0 24 #bbbbbb #000000 0;
#X obj 306 422 else/button 75 31 #bbbbbb #bbbbbb 2 1 2 0 0 \$0-detatch \$0-uncollapse-set;
#X obj 387 423 cnv 10 17 15 empty empty ▲ 5 8 0 12 #bbbbbb #000000 0;
#X obj 387 437 cnv 10 17 15 empty empty ▼ 5 5 0 12 #bbbbbb #000000 0;
#X obj 386 422 else/button 19 31 #e0e0e0 #808080 2 1 2 0 0 \$0-uncollapse empty;
#X connect 0 0 12 0;
#X connect 0 1 9 0;
#X connect 7 0 12 1;
#X connect 8 0 12 2;
#X connect 12 0 1 0;
#X coords 0 1 100 -1 159 250 2 275 150;
