#N canvas 426 80 680 725 12;
#X obj 237 599 *~;
#N canvas 488 100 934 418 messages 0;
#X obj 477 320 outlet;
#X obj 543 145 tgl 19 0 empty empty empty 0 -10 0 12 #dfdfdf #000000 #000000 0 1;
#X obj 146 135 else/knob 35 -60 60 0 0 empty empty #dfdfdf #7c7c7c #000000 1 0 73 1 1 320 0 0 0 empty empty 0 8 0 0 0 0 0 0 0 0;
#X text 524 128 linear FM, f 6;
#X obj 477 145 tgl 19 0 empty empty empty 0 -10 0 12 #dfdfdf #000000 #000000 0 1;
#X text 470 107 Soft Sync, f 4;
#X obj 74 23 vradio 20 1 0 6 empty empty empty 0 -10 0 12 #dfdfdf #000000 #000000 0;
#X text 42 23 sine;
#X text 49 44 tri;
#X text 49 63 saw;
#X text 42 84 vsaw;
#X text 28 104 square;
#X obj 416 135 else/knob 35 0 1 0 0 empty empty #dfdfdf #7c7c7c #000000 1 0 0 0 1 320 0 0 0 empty empty 0 8 0 0 0 0 0 0 0 0;
#X msg 543 181 lin \$1;
#X msg 477 181 soft \$1;
#X msg 416 181 pwm \$1;
#X msg 74 181 wave \$1;
#X floatatom 74 151 3 0 0 0 - - - 0;
#X obj 607 106 else/knob 35 -1 1 0 0 empty empty #bbbbbb #7c7c7c black 1 0 0 0 1 320 0 0 0 empty empty 0 0 0 0 0 0 0 0 0 0;
#X obj 767 106 else/knob 35 -1 1 0 0 empty empty #bbbbbb #7c7c7c black 1 0 0 0 1 320 0 0 0 empty empty 0 0 0 0 0 0 0 0 0 0;
#X msg 607 181 att_fm \$1;
#X floatatom 607 150 5 0 0 0 - - - 0;
#X floatatom 767 150 5 0 0 0 - - - 0;
#X msg 767 181 att_pwm \$1;
#X obj 686 106 else/knob 35 -1 1 0 0 empty empty #bbbbbb #7c7c7c black 1 0 0 0 1 320 0 0 0 empty empty 0 0 0 0 0 0 0 0 0 0;
#X floatatom 686 150 5 0 0 0 - - - 0;
#X msg 686 181 att_pm \$1;
#X obj 853 151 tgl 19 0 empty empty empty 0 -10 0 12 #dfdfdf #000000 #000000 0 1;
#X msg 853 181 gui \$1;
#X msg 337 181 detune \$1;
#X floatatom 337 153 5 0 0 0 - - - 0;
#X msg 146 181 st \$1;
#X obj 196 135 else/knob 35 -100 100 0 0 empty empty #dfdfdf #7c7c7c #000000 1 0 73 1 1 320 0 0 0 empty empty 0 8 0 0 0 0 0 0 0 0;
#X msg 196 181 cents \$1;
#X msg 266 181 ratio \$1;
#X listbox 266 155 7 0 0 0 - - - 0;
#X msg 266 92 symbol 7/6;
#X msg 278 122 1.5;
#X text 42 123 saw2;
#X connect 1 0 13 0;
#X connect 2 0 31 0;
#X connect 4 0 14 0;
#X connect 6 0 17 0;
#X connect 12 0 15 0;
#X connect 13 0 0 0;
#X connect 14 0 0 0;
#X connect 15 0 0 0;
#X connect 16 0 0 0;
#X connect 17 0 16 0;
#X connect 18 0 21 0;
#X connect 19 0 22 0;
#X connect 20 0 0 0;
#X connect 21 0 20 0;
#X connect 22 0 23 0;
#X connect 23 0 0 0;
#X connect 24 0 25 0;
#X connect 25 0 26 0;
#X connect 26 0 0 0;
#X connect 27 0 28 0;
#X connect 28 0 0 0;
#X connect 29 0 0 0;
#X connect 30 0 29 0;
#X connect 31 0 0 0;
#X connect 32 0 33 0;
#X connect 33 0 0 0;
#X connect 34 0 0 0;
#X connect 35 0 34 0;
#X connect 36 0 35 0;
#X connect 37 0 35 0;
#X restore 64 213 pd messages;
#X obj 42 82 else/keyboard 17 80 3 3 0 127 empty empty;
#X obj 237 630 else/out~;
#X text 290 325 This VCO module has a MIDI pitch input (default 60 for no signal input). The input is polyphonic by the way \, via multichannel signals., f 48;
#X obj 42 177 else/voices~ 4;
#X obj 42 49 else/note.in;
#X obj 255 234 else/adsr.m~;
#A saved 10 20 0.75 342.141 1 0 0 0 0 0 0;
#A saved;
#A saved;
#A saved;
#A saved;
#A saved;
#A saved;
#A saved;
#A saved;
#A saved;
#A saved;
#A saved;
#A saved;
#A saved;
#A saved;
#A saved;
#A saved;
#X obj 198 25 else/note 408 15 Menlo empty 4 0 0 0 0 223 223 223 1 1 í ½í²© [vco.m~] - Voltage Controlled Oscillator;
#X obj 43 251 else/vco.m~;
#A saved 1 0 0 2 0.514286 0 0 0 1 0;
#A saved;
#A saved;
#A saved;
#A saved;
#A saved;
#A saved;
#A saved;
#A saved;
#X text 289 471 There is a detune number box that modulates the pitch in Hz and transposition number boxes that change the pitch in semitones (integer values only) and cents. Alternatively \, you can set transposition with a ratio value either as a float or as a fraction (as in "3/2"). The detuning is added to the transposition., f 48;
#X text 290 378 Other inlets are CV signals to set FM (Frequency Modulation) \, PM (Phase Modulation) \, PWM (for square wave and variable saw) and a sync inlet that takes impulses. The attenuverter for FM \, at maximum values \, represents 5 octaves by default or 1.25 khz in Linear FM mode., f 48;
#X obj 482 82 about.MERDA;
#X text 445 82 see:;
#X text 434 141 see also:;
#X obj 430 171 else/sine~;
#X obj 518 171 else/bl.tri~;
#X obj 430 200 else/bl.saw~;
#X obj 528 200 else/bl.vsaw~;
#X obj 430 228 else/bl.square~;
#X obj 548 228 else/bl.saw2~;
#X text 450 256 ([vco.m~] is a wrapper of these objects above), f 23;
#X connect 0 0 3 0;
#X connect 1 0 9 0;
#X connect 2 0 5 0;
#X connect 5 0 9 0;
#X connect 5 1 7 0;
#X connect 6 0 2 0;
#X connect 7 0 0 1;
#X connect 9 0 0 0;
