#N canvas 232 102 609 530 12;
#X obj 276 94 inlet~;
#X obj 276 259 outlet~;
#X obj 333 94 inlet~;
#X text 343 71 FM;
#X obj 504 94 inlet~;
#X text 512 71 sync;
#X obj 390 94 inlet~;
#N canvas 505 182 462 363 GUI 0;
#X obj 336 91 clip 0 100;
#X msg 336 115 set \$1;
#X obj 336 140 s \$0-mod-set;
#X obj 336 63 r \$0-mod;
#X obj 55 57 else/f2s~ 10;
#X obj 55 86 s~ \$0-transp;
#X obj 235 61 r \$0-soft;
#X obj 235 119 s \$0-set;
#X msg 235 92 soft \$1;
#X obj 94 202 makefilename %.2+d;
#X obj 235 318 s \$0-set-note-st;
#X obj 64 161 sel 0;
#X msg 94 228 set \$1 st;
#X msg 42 268 set +00 st;
#X msg 254 282 set \$1| st;
#X obj 42 21 r \$0-pitch;
#X obj 64 120 r \$0-pitch-active;
#X obj 254 256 r \$0-pitch-typing;
#X msg 235 226 color 0 0 \$1;
#X obj 235 169 loadbang;
#X obj 235 202 * 175;
#N canvas 651 231 811 536 collapse 0;
#X obj 28 155 r \$0-uncollapse;
#X obj 28 21 r \$0-collapse;
#X obj 290 454 message \; pd-\$0-VCO vis 1;
#X obj 290 427 r \$0-detatch;
#X obj 232 158 else/canvas.setname \$0-m 2;
#X obj 290 309 r \$0-set-GUI;
#X obj 290 393 s \$0-uncollapse;
#X obj 313 366 s \$0-collapse;
#X obj 290 338 sel 1 0;
#X obj 487 52 r \$0-detatch-hover;
#X obj 562 418 s \$0-label-collapsed;
#X obj 539 284 sel 0 1;
#X msg 562 317 label ⤢ \, label_font 0 48 \, label_pos 34 12, f 25;
#X obj 469 282 loadbang;
#X obj 507 81 else/canvas.edit 3;
#X obj 539 256 change;
#X obj 507 167 sel 1;
#X obj 487 194 f;
#X obj 507 140 t f f, f 10;
#X obj 507 110 == 0;
#X obj 487 220 spigot;
#X msg 537 366 label VCO \, label_font 0 24 \, label_pos 25 15, f 27;
#X obj 28 189 else/message \; \$0-button readonly 0 \, transparent 2 \; pd-\$0-VCO donecanvasdialog 1 1 1 0 0 1 1 161 301 15 15 \, vis 0 \; \$0-cnv color #bbbbbb #000000 #000000 \; \$0-m goprect 50 50 178 330 \, dirty 0 \; \$0-GUI 1, f 55;
#X obj 28 50 else/message \; \$0-button readonly 1 \, transparent 3 \; pd-\$0-VCO donecanvasdialog 1 1 0 0 0 1 1 161 277 15 15 \; \$0-cnv color #dfdfdf #000000 #dfdfdf \; \$0-m goprect 50 400 132 43 \, dirty 0 \; \$0-GUI 0;
#X connect 0 0 22 0;
#X connect 1 0 23 0;
#X connect 3 0 2 0;
#X connect 5 0 8 0;
#X connect 8 0 6 0;
#X connect 8 1 7 0;
#X connect 9 0 17 0;
#X connect 11 0 21 0;
#X connect 11 1 12 0;
#X connect 12 0 10 0;
#X connect 13 0 21 0;
#X connect 14 0 19 0;
#X connect 15 0 11 0;
#X connect 16 0 17 0;
#X connect 16 1 15 0;
#X connect 17 0 20 0;
#X connect 18 0 16 0;
#X connect 18 1 20 1;
#X connect 19 0 18 0;
#X connect 20 0 15 0;
#X connect 21 0 10 0;
#X restore 277 19 pd collapse;
#X obj 42 190 f;
#X obj 42 215 sel 0;
#X connect 0 0 1 0;
#X connect 1 0 2 0;
#X connect 3 0 0 0;
#X connect 4 0 5 0;
#X connect 6 0 8 0;
#X connect 8 0 7 0;
#X connect 9 0 12 0;
#X connect 11 0 22 0;
#X connect 12 0 10 0;
#X connect 13 0 10 0;
#X connect 14 0 10 0;
#X connect 15 0 4 0;
#X connect 15 0 22 0;
#X connect 16 0 11 0;
#X connect 16 0 20 0;
#X connect 17 0 14 0;
#X connect 18 0 10 0;
#X connect 19 0 20 0;
#X connect 20 0 18 0;
#X connect 22 0 23 0;
#X connect 23 0 13 0;
#X connect 23 1 9 0;
#X restore 395 301 pd GUI;
#X text 87 50 FM;
#X text 130 50 PM;
#X text 398 71 PM;
#X text 279 71 pitch;
#N canvas 141 331 676 449 preset 0;
#X obj 121 133 else/sender 1 \\\$0-presets;
#X msg 121 98 name \$1;
#X obj 98 182 else/receiver;
#X obj 123 222 route list;
#N canvas 596 76 470 347 id-name-init 0;
#X obj 165 113 + 1;
#X obj 257 100 else/dollsym 1;
#X obj 141 80 value;
#X obj 141 252 outlet;
#X obj 141 51 else/loadbanger 2;
#X obj 141 201 else/dollsym 1;
#X obj 257 76 symbol vco-id_\\\$0;
#X obj 141 166 makefilename \\\$0-vco-%d;
#X connect 0 0 2 0;
#X connect 1 0 2 1;
#X connect 2 0 0 0;
#X connect 2 0 7 0;
#X connect 4 0 2 0;
#X connect 4 1 6 0;
#X connect 5 0 3 0;
#X connect 6 0 1 0;
#X connect 7 0 5 0;
#X restore 97 46 pd id-name-init;
#X obj 123 258 else/dispatch \$0-set-pitch \$0-set-lin \$0-set-soft \$0-set-waveform \$0-set-PWM \$0-set-att-fm \$0-set-att-pmt \$0-set-att-pwm \$0-set-detune, f 69;
#X obj 98 331 else/var \$0-pitch \$0-lin \$0-soft \$0-waveform \$0-PWM \$0-att-fm \$0-att-pm \$0-att-pwm \$0-detune;
#X connect 1 0 0 0;
#X connect 2 0 3 0;
#X connect 2 0 6 0;
#X connect 3 0 5 0;
#X connect 4 0 1 0;
#X connect 4 0 2 0;
#X restore 453 301 pd preset;
#N canvas 295 112 627 402 init-savestate 0;
#X obj 71 117 savestate;
#X obj 46 60 loadbang;
#X obj 46 208 list;
#X obj 71 150 list trim;
#X obj 71 180 route list;
#X obj 46 248 else/default 0 0 0 0 0 0 0 0 1 0;
#X obj 46 293 else/dispatch \$0-set-pitch \$0-set-lin \$0-set-soft \$0-set-waveform \$0-set-PWM \$0-set-att-fm \$0-set-att-pmt \$0-set-att-pwm \$0-set-GUI \$0-set-detune, f 76;
#X obj 155 73 else/var \$0-pitch \$0-lin \$0-soft \$0-waveform \$0-PWM \$0-att-fm \$0-att-pm \$0-att-pwm \$0-GUI \$0-detune;
#X connect 0 0 3 0;
#X connect 0 1 7 0;
#X connect 1 0 2 0;
#X connect 2 0 5 0;
#X connect 3 0 4 0;
#X connect 4 0 2 1;
#X connect 5 0 6 0;
#X connect 7 0 0 0;
#X restore 396 272 pd init-savestate;
#N canvas 236 38 825 706 inputs 0;
#X obj 75 49 inlet~;
#X obj 237 49 inlet~;
#X obj 155 368 mtof~;
#X obj 155 338 +~;
#X obj 75 243 +~;
#X obj 173 237 *~ 1;
#X obj 218 443 +~;
#X obj 237 309 *~ 0;
#X obj 262 117 r \$0-lin;
#X obj 198 208 == 0;
#X obj 173 266 *~ 60;
#X obj 304 210 else/f2s~ 10;
#X obj 173 312 *~;
#X obj 237 339 *~ 1250;
#X obj 93 168 r~ \$0-transp;
#N canvas 137 120 311 304 pitch 0;
#X obj 59 36 inlet~;
#X obj 91 95 sel 0;
#X msg 91 119 60;
#X msg 123 159 0;
#X obj 91 71 r \$0-midi;
#X obj 66 236 outlet~;
#X obj 59 162 *~ 1;
#X obj 66 192 +~ 0;
#X connect 0 0 6 0;
#X connect 1 0 2 0;
#X connect 1 1 3 0;
#X connect 1 1 6 1;
#X connect 2 0 6 1;
#X connect 2 0 7 1;
#X connect 3 0 7 1;
#X connect 4 0 1 0;
#X connect 6 0 7 0;
#X connect 7 0 5 0;
#X restore 75 121 pd pitch;
#X obj 218 602 outlet~;
#X obj 418 49 inlet~;
#X obj 418 404 *~;
#X obj 466 411 else/f2s~ 10;
#X obj 679 48 inlet~;
#X obj 418 593 outlet~;
#X obj 679 599 outlet~;
#X obj 570 49 inlet~;
#X obj 570 598 outlet~;
#X obj 570 284 *~;
#X obj 459 213 else/f2s~ 10;
#X obj 459 189 r \$0-att-pwm;
#X obj 304 183 r \$0-att-fm;
#X obj 466 387 r \$0-att-pm;
#X obj 286 397 *~;
#X obj 218 536 ftom~;
#X obj 218 475 clip~ 0 20000;
#X obj 218 568 else/quantizer~ 1e-05;
#X text 86 567 later rethink -->;
#X obj 218 504 +~;
#X obj 258 505 r \$0-detune;
#X connect 0 0 15 0;
#X connect 1 0 5 0;
#X connect 1 0 7 0;
#X connect 2 0 6 0;
#X connect 3 0 2 0;
#X connect 4 0 3 0;
#X connect 5 0 10 0;
#X connect 6 0 32 0;
#X connect 7 0 13 0;
#X connect 8 0 9 0;
#X connect 8 0 7 1;
#X connect 9 0 5 1;
#X connect 10 0 12 0;
#X connect 11 0 12 1;
#X connect 11 0 30 1;
#X connect 12 0 3 1;
#X connect 13 0 30 0;
#X connect 14 0 4 1;
#X connect 15 0 4 0;
#X connect 17 0 18 0;
#X connect 18 0 21 0;
#X connect 19 0 18 1;
#X connect 20 0 22 0;
#X connect 23 0 25 0;
#X connect 25 0 24 0;
#X connect 26 0 25 1;
#X connect 27 0 26 0;
#X connect 28 0 11 0;
#X connect 29 0 19 0;
#X connect 30 0 6 1;
#X connect 31 0 33 0;
#X connect 32 0 35 0;
#X connect 33 0 16 0;
#X connect 35 0 31 0;
#X connect 36 0 35 1;
#X restore 276 157 pd inputs;
#X f 33;
#X obj 447 94 inlet~;
#X text 458 71 PWM;
#N canvas 431 124 575 374 oscillators 0;
#N canvas 399 485 634 435 sine~ 0;
#X obj 30 133 r \$0-set;
#X obj 121 88 inlet~;
#X obj 272 88 inlet~;
#X text 280 66 sync;
#X obj 207 88 inlet~;
#X text 215 66 PM;
#X text 129 66 pitch;
#X obj 124 290 outlet~;
#X obj 452 198 switch~;
#X obj 452 144 r \$0-waveform;
#X obj 452 168 == 0;
#X obj 131 200 else/sine~ -midi;
#X connect 0 0 11 0;
#X connect 1 0 11 0;
#X connect 2 0 11 1;
#X connect 4 0 11 2;
#X connect 9 0 10 0;
#X connect 10 0 8 0;
#X connect 11 0 7 0;
#X restore 175 202 pd sine~;
#X obj 228 89 inlet~;
#X obj 413 89 inlet~;
#X text 421 69 sync;
#X obj 298 89 inlet~;
#X text 306 69 PM;
#X text 236 67 pitch;
#X obj 356 89 inlet~;
#X text 367 68 PWM;
#X obj 175 315 outlet~;
#N canvas 732 121 518 442 tri~ 0;
#X obj 42 135 r \$0-set;
#X obj 163 88 inlet~;
#X obj 314 88 inlet~;
#X text 322 66 sync;
#X obj 249 88 inlet~;
#X text 257 66 PM;
#X text 171 66 pitch;
#X obj 174 349 outlet~;
#X obj 341 244 switch~;
#X obj 341 190 r \$0-waveform;
#X obj 341 214 == 1;
#X obj 173 260 else/bl.tri~ -midi;
#X connect 0 0 11 0;
#X connect 1 0 11 0;
#X connect 2 0 11 1;
#X connect 4 0 11 2;
#X connect 9 0 10 0;
#X connect 10 0 8 0;
#X connect 11 0 7 0;
#X restore 245 201 pd tri~;
#N canvas 267 161 646 410 saw~ 0;
#X obj 257 92 inlet~;
#X obj 408 92 inlet~;
#X text 416 70 sync;
#X obj 343 92 inlet~;
#X text 351 70 PM;
#X text 265 70 pitch;
#X obj 260 294 outlet~;
#X obj 467 197 switch~;
#X obj 467 143 r \$0-waveform;
#X obj 467 167 == 2;
#X obj 171 125 r \$0-set;
#X obj 267 204 else/bl.saw~ -midi;
#X connect 0 0 11 0;
#X connect 1 0 11 1;
#X connect 3 0 11 2;
#X connect 8 0 9 0;
#X connect 9 0 7 0;
#X connect 10 0 11 0;
#X connect 11 0 6 0;
#X restore 308 201 pd saw~;
#N canvas 134 355 627 426 square~ 0;
#X obj 164 88 inlet~;
#X obj 315 88 inlet~;
#X obj 250 88 inlet~;
#X obj 181 335 outlet~;
#X obj 373 91 inlet~;
#X text 377 59 sync;
#X text 255 59 PM;
#X text 175 57 pitch;
#X text 316 58 PWM;
#X obj 360 288 switch~;
#X obj 360 234 r \$0-waveform;
#X obj 360 258 == 4;
#X obj 309 121 +~ 0;
#X obj 397 129 r \$0-PWM;
#X obj 58 147 r \$0-set;
#X obj 307 155 else/rescale~ 0.05 0.95;
#X obj 182 265 else/bl.square~ -midi;
#X connect 0 0 16 0;
#X connect 1 0 12 0;
#X connect 2 0 16 3;
#X connect 4 0 16 2;
#X connect 10 0 11 0;
#X connect 11 0 9 0;
#X connect 12 0 15 0;
#X connect 13 0 12 1;
#X connect 14 0 16 0;
#X connect 15 0 16 1;
#X connect 16 0 3 0;
#X restore 446 201 pd square~;
#N canvas 512 146 518 387 vsaw~ 0;
#X obj 133 88 inlet~;
#X obj 284 88 inlet~;
#X obj 219 88 inlet~;
#X obj 148 325 outlet~;
#X obj 341 88 inlet~;
#X text 339 50 sync;
#X text 224 50 PM;
#X text 154 48 pitch;
#X text 285 49 PWM;
#X obj 376 267 switch~;
#X obj 376 213 r \$0-waveform;
#X obj 376 237 == 3;
#X obj 283 124 +~ 0;
#X obj 354 122 r \$0-PWM;
#X obj 41 139 r \$0-set;
#X obj 281 164 else/rescale~;
#X obj 155 235 else/bl.vsaw~ -midi;
#X connect 0 0 16 0;
#X connect 1 0 12 0;
#X connect 2 0 16 3;
#X connect 4 0 16 2;
#X connect 10 0 11 0;
#X connect 11 0 9 0;
#X connect 12 0 15 0;
#X connect 13 0 12 1;
#X connect 14 0 16 0;
#X connect 15 0 16 1;
#X connect 16 0 3 0;
#X restore 371 201 pd vsaw~;
#X obj 175 259 else/select~ 5 1, f 33;
#X obj 78 151 r \$0-waveform;
#X obj 78 180 + 1;
#X connect 0 0 14 0;
#X connect 1 0 0 0;
#X connect 1 0 10 0;
#X connect 1 0 11 0;
#X connect 1 0 13 0;
#X connect 1 0 12 0;
#X connect 2 0 0 2;
#X connect 2 0 10 2;
#X connect 2 0 11 2;
#X connect 2 0 13 3;
#X connect 2 0 12 3;
#X connect 4 0 0 1;
#X connect 4 0 10 1;
#X connect 4 0 11 1;
#X connect 4 0 13 1;
#X connect 4 0 12 1;
#X connect 7 0 13 2;
#X connect 7 0 12 2;
#X connect 10 0 14 1;
#X connect 11 0 14 2;
#X connect 12 0 14 4;
#X connect 13 0 14 3;
#X connect 14 0 9 0;
#X connect 15 0 16 0;
#X connect 16 0 14 0;
#X restore 276 213 pd oscillators;
#X f 33;
#X text 169 50 PWM;
#N canvas 408 91 467 465 route 0;
#X obj 188 346 s \$0-set-PWM;
#X obj 148 401 s \$0-set-waveform;
#X obj 78 22 inlet;
#X obj 269 186 s \$0-set-att-pwm;
#X obj 255 212 s \$0-set-att-pm;
#X obj 245 237 s \$0-set-att-fm;
#X obj 230 265 s \$0-set-PM;
#X obj 220 291 s \$0-set-lin;
#X obj 203 318 s \$0-set-soft;
#X obj 167 374 s \$0-set-pitch;
#X obj 298 125 s \$0-set-GUI;
#X obj 298 100 != 0;
#X obj 78 56 route wave transp pwm soft lin pm att_fm att_pm att_pwm detune gui, f 35;
#X obj 285 158 s \$0-set-detune;
#X connect 2 0 12 0;
#X connect 11 0 10 0;
#X connect 12 0 1 0;
#X connect 12 1 9 0;
#X connect 12 2 0 0;
#X connect 12 3 8 0;
#X connect 12 4 7 0;
#X connect 12 5 6 0;
#X connect 12 6 5 0;
#X connect 12 7 4 0;
#X connect 12 8 3 0;
#X connect 12 9 13 0;
#X connect 12 10 11 0;
#X restore 315 129 pd route;
#X text 50 50 Freq;
#N canvas 604 467 256 289 MIDI-learn 0;
#N canvas 498 206 577 463 pitch-knob 0;
#X obj 94 34 r \$0-pitch-learn;
#X obj 161 130 r \$0-pitch-forget;
#X obj 96 366 else/rescale -36 36;
#X msg 161 178 forget;
#X obj 240 221 savestate;
#X obj 300 268 list;
#X obj 325 243 list prepend pitchlearn;
#X obj 240 326 else/insert teach;
#X obj 240 297 else/route2 pitchlearn;
#X obj 113 91 print [vco.m~]:;
#X msg 113 64 MIDI-learn for pitch knob activated;
#X obj 217 191 print [vco.m~]:;
#X obj 96 270 else/midi.learn 1;
#A saved;
#X msg 217 167 MIDI-forget for pitch knob;
#X obj 96 405 s \$0-set-pitch;
#X connect 0 0 10 0;
#X connect 0 0 12 0;
#X connect 1 0 3 0;
#X connect 1 0 13 0;
#X connect 2 0 14 0;
#X connect 3 0 12 0;
#X connect 4 0 8 0;
#X connect 4 1 5 0;
#X connect 5 0 4 0;
#X connect 6 0 5 1;
#X connect 7 0 12 0;
#X connect 8 0 7 0;
#X connect 10 0 9 0;
#X connect 12 0 2 0;
#X connect 12 1 6 0;
#X connect 13 0 11 0;
#X restore 52 67 pd pitch-knob;
#N canvas 398 320 577 463 FM-att 0;
#X msg 161 178 forget;
#X obj 230 221 savestate;
#X obj 290 268 list;
#X obj 230 326 else/insert teach;
#X obj 113 91 print [vco.m~]:;
#X obj 217 191 print [vco.m~]:;
#X obj 315 243 list prepend FM-att;
#X obj 230 297 else/route2 FM-att;
#X msg 113 64 MIDI-learn for FM-att activated;
#X obj 94 34 r \$0-att-fm-learn;
#X obj 161 130 r \$0-att-fm-forget;
#X obj 96 366 else/rescale -1 1;
#X obj 96 270 else/midi.learn 1;
#A saved;
#X msg 217 167 MIDI-forget for FM-att;
#X obj 96 405 s \$0-set-att-fm;
#X connect 0 0 12 0;
#X connect 1 0 7 0;
#X connect 1 1 2 0;
#X connect 2 0 1 0;
#X connect 3 0 12 0;
#X connect 6 0 2 1;
#X connect 7 0 3 0;
#X connect 8 0 4 0;
#X connect 9 0 8 0;
#X connect 9 0 12 0;
#X connect 10 0 0 0;
#X connect 10 0 13 0;
#X connect 11 0 14 0;
#X connect 12 0 11 0;
#X connect 12 1 6 0;
#X connect 13 0 5 0;
#X restore 52 132 pd FM-att;
#N canvas 398 320 577 463 PM-att 0;
#X obj 66 92 bng 19 250 50 0 empty empty empty 0 -10 0 12 #fcfcfc #000000 #000000;
#X obj 134 160 bng 19 250 50 0 empty empty empty 0 -10 0 12 #fcfcfc #000000 #000000;
#X msg 161 178 forget;
#X obj 110 160 bng 19 250 50 0 empty empty empty 0 -10 0 12 #fcfcfc #000000 #000000;
#X obj 230 221 savestate;
#X obj 290 268 list;
#X obj 230 326 else/insert teach;
#X obj 113 91 print [vco.m~]:;
#X obj 217 191 print [vco.m~]:;
#X obj 96 366 else/rescale -1 1;
#X obj 94 34 r \$0-att-pm-learn;
#X obj 161 130 r \$0-att-pm-forget;
#X msg 113 64 MIDI-learn for PM-att activated;
#X obj 315 243 list prepend PM-att;
#X obj 230 297 else/route2 PM-att;
#X obj 96 270 else/midi.learn 1;
#A saved;
#X msg 217 167 MIDI-forget for PM-att;
#X obj 96 405 s \$0-set-att-pm;
#X connect 2 0 15 0;
#X connect 3 0 15 0;
#X connect 4 0 14 0;
#X connect 4 1 5 0;
#X connect 5 0 4 0;
#X connect 6 0 15 0;
#X connect 9 0 17 0;
#X connect 10 0 0 0;
#X connect 10 0 12 0;
#X connect 10 0 15 0;
#X connect 11 0 1 0;
#X connect 11 0 2 0;
#X connect 11 0 16 0;
#X connect 12 0 7 0;
#X connect 13 0 5 1;
#X connect 14 0 6 0;
#X connect 15 0 9 0;
#X connect 15 1 13 0;
#X connect 16 0 8 0;
#X restore 52 155 pd PM-att;
#N canvas 154 371 577 463 PWM-knob 0;
#X obj 66 92 bng 19 250 50 0 empty empty empty 0 -10 0 12 #fcfcfc #000000 #000000;
#X obj 134 160 bng 19 250 50 0 empty empty empty 0 -10 0 12 #fcfcfc #000000 #000000;
#X msg 161 178 forget;
#X obj 110 160 bng 19 250 50 0 empty empty empty 0 -10 0 12 #fcfcfc #000000 #000000;
#X obj 230 221 savestate;
#X obj 290 268 list;
#X obj 230 326 else/insert teach;
#X obj 113 91 print [vco.m~]:;
#X obj 217 191 print [vco.m~]:;
#X obj 96 405 s \$0-set-PWM;
#X obj 94 34 r \$0-PWM-learn;
#X obj 161 130 r \$0-PWM-forget;
#X msg 113 64 MIDI-learn for PWM knob activated;
#X obj 96 366 else/rescale -1 1;
#X obj 315 243 list prepend PWM-knob;
#X obj 230 297 else/route2 PWM-knob;
#X obj 96 270 else/midi.learn 1;
#A saved;
#X msg 217 167 MIDI-forget for PWM knob;
#X connect 2 0 16 0;
#X connect 3 0 16 0;
#X connect 4 0 15 0;
#X connect 4 1 5 0;
#X connect 5 0 4 0;
#X connect 6 0 16 0;
#X connect 10 0 0 0;
#X connect 10 0 12 0;
#X connect 10 0 16 0;
#X connect 11 0 1 0;
#X connect 11 0 2 0;
#X connect 11 0 17 0;
#X connect 12 0 7 0;
#X connect 13 0 9 0;
#X connect 14 0 5 1;
#X connect 15 0 6 0;
#X connect 16 0 13 0;
#X connect 16 1 14 0;
#X connect 17 0 8 0;
#X restore 52 92 pd PWM-knob;
#N canvas 430 319 577 463 PWM-att 0;
#X msg 161 178 forget;
#X obj 230 221 savestate;
#X obj 290 268 list;
#X obj 230 326 else/insert teach;
#X obj 113 91 print [vco.m~]:;
#X obj 217 191 print [vco.m~]:;
#X obj 96 366 else/rescale -1 1;
#X obj 94 34 r \$0-att-pwm-learn;
#X msg 113 64 MIDI-learn for PWM-att activated;
#X obj 161 130 r \$0-att-pwm-forget;
#X obj 315 243 list prepend PWM-att;
#X obj 230 297 else/route2 PWM-att;
#X obj 96 270 else/midi.learn 1;
#A saved;
#X msg 217 167 MIDI-forget for PWM-att;
#X obj 96 405 s \$0-set-att-pwm;
#X connect 0 0 12 0;
#X connect 1 0 11 0;
#X connect 1 1 2 0;
#X connect 2 0 1 0;
#X connect 3 0 12 0;
#X connect 6 0 14 0;
#X connect 7 0 8 0;
#X connect 7 0 12 0;
#X connect 8 0 4 0;
#X connect 9 0 0 0;
#X connect 9 0 13 0;
#X connect 10 0 2 1;
#X connect 11 0 3 0;
#X connect 12 0 6 0;
#X connect 12 1 10 0;
#X connect 13 0 5 0;
#X restore 52 178 pd PWM-att;
#X restore 409 332 pd MIDI-learn;
#X obj 276 35 else/initmess 60;
#N canvas 745 99 193 335 \$0-VCO 0;
#N canvas 946 243 524 505 (subpatch) 0;
#X obj 51 51 cnv 19 159 299 empty empty empty 20 12 0 12 #dfdfdf #404040 0;
#X text 148 142 transp;
#X obj 151 161 else/knob 41 -36 36 0 0 \$0-pitch \$0-set-pitch #dfdfdf #7c7c7c black 0 0 73 1 1 320 0 0 0 empty empty 0 8 0 0 0 0 0 0 0 0;
#X text 135 233 Soft Sync, f 4;
#X obj 73 59 else/note 95 24 Inter empty 5 54 54 54 0 187 187 187 1 1 VCO;
#X obj 75 169 else/knob 48 -1 1 0 0 \$0-PWM \$0-set-PWM #dfdfdf #7c7c7c black 0 0 0 0 1 320 0 0 0 empty empty 0 0 0 0 0 0 0 0 0 0;
#X obj 70 293 else/knob 35 -1 1 0 0 \$0-att-fm \$0-set-att-fm #bbbbbb #7c7c7c black 0 0 0 0 1 320 0 0 0 empty empty 0 8 0 0 0 0 0 0 0 0;
#X obj 160 293 else/knob 35 -1 1 0 0 \$0-att-pwm \$0-set-att-pwm #bbbbbb #7c7c7c black 0 0 0 0 1 320 0 0 0 empty empty 0 8 0 0 0 0 0 0 0 0;
#X text 82 271 Attenuverters;
#X text 77 331 FM;
#X text 163 331 PWM;
#X obj 115 293 else/knob 35 -1 1 0 0 \$0-att-pm \$0-set-att-pm #bbbbbb #7c7c7c black 0 0 0 0 1 320 0 0 0 empty empty 0 8 0 0 0 0 0 0 0 0;
#X text 121 331 PM;
#X text 83 148 PWM;
#X obj 62 116 else/popmenu 75 26 12 #dfdfdf black \  \$0-set-waveform \$0-waveform empty empty 0 0 -1 1 0 1 0 0 0 0 0 sine tri saw vsaw square;
#X obj 147 204 else/note 44 12 Inter \$0-set-note-st 0 0 0 0 0 255 255 255 0 0 +00 st;
#X text 60 232 Lin FM, f 3;
#X obj 175 59 else/button 19 31 #e0e0e0 #808080 2 1 2 0 0 \$0-collapse \$0-button;
#X obj 176 60 cnv 10 17 15 empty \$0-cnv ▼ 5 8 0 12 #bbbbbb #000000 0;
#X obj 176 74 cnv 10 17 15 empty \$0-cnv ▲ 5 5 0 12 #bbbbbb #000000 0;
#X obj 86 236 else/button 25 25 #f5f5f5 #808080 1 1 0 1 0 \$0-lin \$0-set-lin;
#X obj 168 236 else/button 25 25 #f5f5f5 #808080 1 1 0 1 0 \$0-soft \$0-set-soft;
#X floatatom 153 119 6 0 0 0 - \$0-set-detune \$0-detune 0;
#X text 151 98 detune;
#X text 70 99 waveform;
#X coords 0 1 100 -1 161 301 1 50 50;
#X restore 15 15 graph;
#X coords 0 0 1 1 161 301 1 15 15;
#X restore 58 71 pd \$0-VCO;
#X text 196 50 SYNC;
#X obj 56 408 cnv 19 95 29 empty \$0-label-collapsed VCO 25 15 0 24 #bbbbbb #000000 0;
#X obj 158 408 cnv 10 17 15 empty empty ▲ 5 8 0 12 #bbbbbb #000000 0;
#X obj 158 422 cnv 10 17 15 empty empty ▼ 5 5 0 12 #bbbbbb #000000 0;
#X obj 157 407 else/button 19 31 #e0e0e0 #808080 2 1 2 0 0 \$0-uncollapse empty;
#X obj 55 407 else/button 97 31 #bbbbbb #bbbbbb 2 1 2 0 0 \$0-detatch \$0-uncollapse-set;
#X connect 0 0 14 0;
#X connect 0 1 19 0;
#X connect 2 0 14 1;
#X connect 4 0 14 4;
#X connect 6 0 14 2;
#X connect 14 0 17 0;
#X connect 14 1 17 1;
#X connect 14 2 17 2;
#X connect 14 3 17 3;
#X connect 15 0 14 3;
#X connect 17 0 1 0;
#X connect 22 0 0 0;
#X coords 0 0 1 1 178 330 2 50 50;
