#N canvas 440 38 598 555 12;
#X obj 276 94 inlet~;
#X obj 276 259 outlet~;
#X obj 333 94 inlet~;
#X text 343 71 FM;
#X obj 504 94 inlet~;
#X text 512 71 sync;
#X obj 390 94 inlet~;
#N canvas 316 126 745 693 GUI 0;
#X obj 584 281 clip 0 100;
#X msg 584 305 set \$1;
#X obj 584 330 s \$0-mod-set;
#X obj 584 253 r \$0-mod;
#X obj 585 140 r \$0-soft;
#X obj 585 198 s \$0-set;
#X msg 585 171 soft \$1;
#N canvas 651 231 811 536 collapse 0;
#X obj 28 155 r \$0-uncollapse;
#X obj 28 21 r \$0-collapse;
#X obj 290 454 message \; pd-\$0-VCO vis 1;
#X obj 290 427 r \$0-detatch;
#X obj 232 158 else/canvas.setname \$0-m 2;
#X obj 290 309 r \$0-set-GUI;
#X obj 290 393 s \$0-uncollapse;
#X obj 313 366 s \$0-collapse;
#X obj 290 338 sel 1 0;
#X obj 487 52 r \$0-detatch-hover;
#X obj 562 418 s \$0-label-collapsed;
#X obj 539 284 sel 0 1;
#X msg 562 317 label ⤢ \, label_font 0 48 \, label_pos 34 12, f 25;
#X obj 469 282 loadbang;
#X obj 507 81 else/canvas.edit 3;
#X obj 539 256 change;
#X obj 507 167 sel 1;
#X obj 487 194 f;
#X obj 507 140 t f f, f 10;
#X obj 507 110 == 0;
#X obj 487 220 spigot;
#X msg 537 366 label VCO \, label_font 0 24 \, label_pos 25 15, f 27;
#X obj 28 189 else/message \; \$0-button readonly 0 \, transparent 2 \; pd-\$0-VCO donecanvasdialog 1 1 1 0 0 1 1 161 301 15 15 \, vis 0 \; \$0-cnv color #bbbbbb #000000 #000000 \; \$0-m goprect 50 50 178 330 \, dirty 0 \; \$0-GUI 1, f 55;
#X obj 28 50 else/message \; \$0-button readonly 1 \, transparent 3 \; pd-\$0-VCO donecanvasdialog 1 1 0 0 0 1 1 161 277 15 15 \; \$0-cnv color #dfdfdf #000000 #dfdfdf \; \$0-m goprect 50 400 132 43 \, dirty 0 \; \$0-GUI 0;
#X connect 0 0 22 0;
#X connect 1 0 23 0;
#X connect 3 0 2 0;
#X connect 5 0 8 0;
#X connect 8 0 6 0;
#X connect 8 1 7 0;
#X connect 9 0 17 0;
#X connect 11 0 21 0;
#X connect 11 1 12 0;
#X connect 12 0 10 0;
#X connect 13 0 21 0;
#X connect 14 0 19 0;
#X connect 15 0 11 0;
#X connect 16 0 17 0;
#X connect 16 1 15 0;
#X connect 17 0 20 0;
#X connect 18 0 16 0;
#X connect 18 1 20 1;
#X connect 19 0 18 0;
#X connect 20 0 15 0;
#X connect 21 0 10 0;
#X restore 575 68 pd collapse;
#X obj 59 101 int;
#X msg 111 139 set \$1;
#X obj 112 258 / 100;
#X obj 253 66 else/frac2dec;
#X obj 295 136 else/ratio2cents;
#X obj 295 163 / 100;
#X msg 295 228 set \$1;
#X obj 295 200 int;
#X obj 410 222 wrap;
#X msg 410 282 set \$1;
#X obj 410 255 * 100;
#X obj 410 312 s \$0-set-cents;
#X obj 59 314 else/hot;
#X obj 59 340 +;
#X obj 249 589 else/f2s~ 10;
#X obj 59 394 else/cents2ratio;
#X obj 59 368 * 100;
#X msg 164 320 set \$1;
#X obj 59 66 clip -60 60;
#X obj 112 202 r \$0-cents;
#X obj 112 229 clip -100 100;
#X obj 253 95 clip 0.0294961 33.9028;
#X obj 253 37 r \$0-ratiobox;
#X obj 249 638 s~ \$0-ratiomul;
#X obj 263 552 s \$0-set-ratiobox;
#X msg 263 491 set \$1;
#X obj 279 464 s \$0-ratio;
#X obj 289 520 r \$0-set-ratio;
#N canvas 540 139 688 393 tab 0;
#X msg 124 151 active 0;
#X msg 105 211 active 1;
#X obj 105 122 r \$0-att-fm-tab;
#X obj 124 179 s \$0-set-att-fm;
#X obj 105 239 s \$0-set-att-pm;
#X msg 298 147 active 0;
#X msg 279 207 active 1;
#X msg 456 146 active 0;
#X msg 437 206 active 1;
#X obj 279 118 r \$0-att-pm-tab;
#X obj 298 175 s \$0-set-att-pm;
#X obj 279 235 s \$0-set-att-pwm;
#X obj 437 117 r \$0-att-pwm-tab;
#X obj 456 174 s \$0-set-att-pwm;
#X obj 437 234 s \$0-set-att-fm;
#X connect 0 0 3 0;
#X connect 1 0 4 0;
#X connect 2 0 0 0;
#X connect 2 0 1 0;
#X connect 5 0 10 0;
#X connect 6 0 11 0;
#X connect 7 0 13 0;
#X connect 8 0 14 0;
#X connect 9 0 5 0;
#X connect 9 0 6 0;
#X connect 12 0 7 0;
#X connect 12 0 8 0;
#X restore 499 487 pd tab;
#N canvas 342 113 568 442 show-numbers 0;
#X obj 91 169 sel 0 1;
#X msg 91 260 set;
#X obj 201 187 spigot;
#X obj 224 226 v \$0-PWM;
#X obj 200 142 r \$0-PWM;
#X obj 203 334 s \$0-pwm#;
#X msg 203 293 set \$1;
#X obj 203 261 else/format %.2f;
#X obj 334 257 r \$0-PWM-typing;
#X msg 334 281 set \$1|;
#X obj 160 100 r \$0-PWM-active;
#X obj 91 102 else/hot;
#X obj 91 132 ||;
#X obj 91 70 r \$0-PWM-hover;
#X obj 104 230 loadbang;
#N canvas 661 151 755 572 att-fm 0;
#X obj 52 122 sel 0 1;
#X msg 52 213 set;
#X obj 164 140 spigot;
#X msg 164 435 set \$1;
#X obj 164 403 else/format %.2f;
#X msg 295 423 set \$1|;
#X obj 52 55 else/hot;
#X obj 52 85 ||;
#X obj 65 183 loadbang;
#X obj 164 476 s \$0-fm-att#;
#X obj 52 23 r \$0-att-fm-hover;
#X obj 121 53 r \$0-att-fm-active;
#X obj 290 56 r \$0-att-fm;
#X obj 295 249 r \$0-att-fm-typing;
#X obj 185 179 v \$0-att-fm;
#X obj 492 373 expr copysign(sqrt(abs($f1)) \, $f1);
#X obj 492 463 s \$0-set-att-fm;
#X obj 444 506 s \$0-real-att-fm;
#X obj 445 181 expr copysign(pow($f1 \, 2) \, $f1);
#X obj 164 211 expr copysign(pow($f1 \, 2) \, $f1);
#X msg 492 436 set \$1;
#X obj 506 403 v \$0-att-fm;
#X obj 467 248 r \$0-att-fm-enter;
#X obj 468 330 else/nmess 1;
#X obj 549 305 b;
#X connect 0 0 1 0;
#X connect 0 1 14 0;
#X connect 1 0 9 0;
#X connect 2 0 19 0;
#X connect 3 0 9 0;
#X connect 4 0 3 0;
#X connect 5 0 9 0;
#X connect 6 0 7 0;
#X connect 6 1 7 1;
#X connect 7 0 0 0;
#X connect 7 0 2 1;
#X connect 8 0 1 0;
#X connect 10 0 6 0;
#X connect 11 0 6 1;
#X connect 12 0 2 0;
#X connect 12 0 18 0;
#X connect 13 0 5 0;
#X connect 13 0 24 0;
#X connect 14 0 19 0;
#X connect 15 0 20 0;
#X connect 15 0 21 0;
#X connect 18 0 17 0;
#X connect 19 0 4 0;
#X connect 20 0 16 0;
#X connect 22 0 23 0;
#X connect 23 0 15 0;
#X connect 23 0 17 0;
#X connect 23 0 4 0;
#X connect 24 0 23 1;
#X restore 384 103 pd att-fm;
#N canvas 661 151 785 574 att-pm 0;
#X obj 52 122 sel 0 1;
#X msg 52 213 set;
#X obj 164 140 spigot;
#X msg 164 435 set \$1;
#X obj 164 403 else/format %.2f;
#X msg 295 423 set \$1|;
#X obj 52 55 else/hot;
#X obj 52 85 ||;
#X obj 65 183 loadbang;
#X obj 492 373 expr copysign(sqrt(abs($f1)) \, $f1);
#X obj 445 181 expr copysign(pow($f1 \, 2) \, $f1);
#X obj 164 211 expr copysign(pow($f1 \, 2) \, $f1);
#X msg 492 436 set \$1;
#X obj 468 330 else/nmess 1;
#X obj 549 305 b;
#X obj 52 23 r \$0-att-pm-hover;
#X obj 121 53 r \$0-att-pm-active;
#X obj 290 56 r \$0-att-pm;
#X obj 185 179 v \$0-att-pm;
#X obj 295 249 r \$0-att-pm-typing;
#X obj 164 476 s \$0-pm-att#;
#X obj 467 248 r \$0-att-pm-enter;
#X obj 506 403 v \$0-att-pm;
#X obj 492 463 s \$0-set-att-pm;
#X obj 444 506 s \$0-real-att-pm;
#X connect 0 0 1 0;
#X connect 0 1 18 0;
#X connect 1 0 20 0;
#X connect 2 0 11 0;
#X connect 3 0 20 0;
#X connect 4 0 3 0;
#X connect 5 0 20 0;
#X connect 6 0 7 0;
#X connect 6 1 7 1;
#X connect 7 0 0 0;
#X connect 7 0 2 1;
#X connect 8 0 1 0;
#X connect 9 0 12 0;
#X connect 9 0 22 0;
#X connect 10 0 24 0;
#X connect 11 0 4 0;
#X connect 12 0 23 0;
#X connect 13 0 9 0;
#X connect 13 0 4 0;
#X connect 13 0 24 0;
#X connect 14 0 13 1;
#X connect 15 0 6 0;
#X connect 16 0 6 1;
#X connect 17 0 2 0;
#X connect 17 0 10 0;
#X connect 18 0 11 0;
#X connect 19 0 5 0;
#X connect 19 0 14 0;
#X connect 21 0 13 0;
#X restore 384 126 pd att-pm;
#N canvas 661 151 785 574 att-pwm 0;
#X obj 52 122 sel 0 1;
#X msg 52 213 set;
#X obj 164 140 spigot;
#X msg 164 435 set \$1;
#X obj 164 403 else/format %.2f;
#X msg 295 423 set \$1|;
#X obj 52 55 else/hot;
#X obj 52 85 ||;
#X obj 65 183 loadbang;
#X obj 492 373 expr copysign(sqrt(abs($f1)) \, $f1);
#X obj 445 181 expr copysign(pow($f1 \, 2) \, $f1);
#X obj 164 211 expr copysign(pow($f1 \, 2) \, $f1);
#X msg 492 436 set \$1;
#X obj 468 330 else/nmess 1;
#X obj 549 305 b;
#X obj 290 56 r \$0-att-pwm;
#X obj 185 179 v \$0-att-pwm;
#X obj 121 53 r \$0-att-pwm-active;
#X obj 52 23 r \$0-att-pwm-hover;
#X obj 295 249 r \$0-att-pwm-typing;
#X obj 164 476 s \$0-pwm-att#;
#X obj 467 248 r \$0-att-pwm-enter;
#X obj 506 403 v \$0-att-pwm;
#X obj 492 463 s \$0-set-att-pwm;
#X obj 444 506 s \$0-real-att-pwm;
#X connect 0 0 1 0;
#X connect 0 1 16 0;
#X connect 1 0 20 0;
#X connect 2 0 11 0;
#X connect 3 0 20 0;
#X connect 4 0 3 0;
#X connect 5 0 20 0;
#X connect 6 0 7 0;
#X connect 6 1 7 1;
#X connect 7 0 0 0;
#X connect 7 0 2 1;
#X connect 8 0 1 0;
#X connect 9 0 12 0;
#X connect 9 0 22 0;
#X connect 10 0 24 0;
#X connect 11 0 4 0;
#X connect 12 0 23 0;
#X connect 13 0 9 0;
#X connect 13 0 4 0;
#X connect 13 0 24 0;
#X connect 14 0 13 1;
#X connect 15 0 2 0;
#X connect 15 0 10 0;
#X connect 16 0 11 0;
#X connect 17 0 6 1;
#X connect 18 0 6 0;
#X connect 19 0 5 0;
#X connect 19 0 14 0;
#X connect 21 0 13 0;
#X restore 384 149 pd att-pwm;
#X connect 0 0 1 0;
#X connect 0 1 3 0;
#X connect 1 0 5 0;
#X connect 2 0 7 0;
#X connect 3 0 7 0;
#X connect 4 0 2 0;
#X connect 6 0 5 0;
#X connect 7 0 6 0;
#X connect 8 0 9 0;
#X connect 9 0 5 0;
#X connect 10 0 11 1;
#X connect 11 0 12 0;
#X connect 11 1 12 1;
#X connect 12 0 0 0;
#X connect 12 0 2 1;
#X connect 13 0 11 0;
#X connect 14 0 1 0;
#X restore 499 444 pd show-numbers;
#X obj 59 31 r \$0-st;
#X obj 111 166 s \$0-set-st;
#X obj 295 312 s \$0-set-st;
#X connect 0 0 1 0;
#X connect 1 0 2 0;
#X connect 3 0 0 0;
#X connect 4 0 6 0;
#X connect 6 0 5 0;
#X connect 8 0 9 0;
#X connect 8 0 20 0;
#X connect 9 0 39 0;
#X connect 10 0 20 1;
#X connect 11 0 29 0;
#X connect 12 0 13 0;
#X connect 13 0 15 0;
#X connect 13 0 16 0;
#X connect 14 0 20 0;
#X connect 14 0 40 0;
#X connect 15 0 14 0;
#X connect 16 0 18 0;
#X connect 16 0 25 0;
#X connect 17 0 19 0;
#X connect 18 0 17 0;
#X connect 20 0 21 0;
#X connect 20 1 21 1;
#X connect 21 0 24 0;
#X connect 22 0 31 0;
#X connect 23 0 22 0;
#X connect 23 0 33 0;
#X connect 23 0 34 0;
#X connect 24 0 23 0;
#X connect 25 0 20 1;
#X connect 26 0 8 0;
#X connect 27 0 28 0;
#X connect 28 0 10 0;
#X connect 29 0 12 0;
#X connect 29 0 22 0;
#X connect 29 0 33 0;
#X connect 29 0 34 0;
#X connect 30 0 11 0;
#X connect 33 0 32 0;
#X connect 35 0 32 0;
#X connect 38 0 26 0;
#X restore 395 301 pd GUI;
#X text 87 50 FM;
#X text 130 50 PM;
#X text 398 71 PM;
#X text 279 71 pitch;
#N canvas 572 333 621 450 preset 0;
#X msg 121 98 name \$1;
#X obj 98 182 else/receiver;
#X obj 123 222 route list;
#N canvas 596 76 470 347 id-name-init 0;
#X obj 165 113 + 1;
#X obj 257 100 else/dollsym 1;
#X obj 141 80 value;
#X obj 141 252 outlet;
#X obj 141 51 else/loadbanger 2;
#X obj 141 201 else/dollsym 1;
#X obj 257 76 symbol vco-id_\\\$0;
#X obj 141 166 makefilename \\\$0-vco-%d;
#X connect 0 0 2 0;
#X connect 1 0 2 1;
#X connect 2 0 0 0;
#X connect 2 0 7 0;
#X connect 4 0 2 0;
#X connect 4 1 6 0;
#X connect 5 0 3 0;
#X connect 6 0 1 0;
#X connect 7 0 5 0;
#X restore 97 46 pd id-name-init;
#X obj 98 331 else/var \$0-ratio \$0-lin \$0-soft \$0-waveform \$0-PWM \$0-att-fm \$0-att-pm \$0-att-pwm \$0-GUI \$0-detune;
#X obj 123 258 else/dispatch \$0-set-ratio \$0-set-lin \$0-set-soft \$0-set-waveform \$0-set-PWM \$0-set-att-fm \$0-set-att-pm \$0-set-att-pwm \$0-set-GUI \$0-set-detune;
#X obj 121 133 else/sender 1 \$0-presets;
#X connect 0 0 6 0;
#X connect 1 0 2 0;
#X connect 1 0 4 0;
#X connect 2 0 5 0;
#X connect 3 0 0 0;
#X connect 3 0 1 0;
#X restore 453 301 pd preset;
#N canvas 892 275 461 483 init-savestate 0;
#X obj 71 117 savestate;
#X obj 46 60 loadbang;
#X obj 46 208 list;
#X obj 71 150 list trim;
#X obj 71 180 route list;
#X obj 169 34 else/var \$0-ratio \$0-lin \$0-soft \$0-waveform \$0-PWM \$0-att-fm \$0-att-pm \$0-att-pwm \$0-GUI \$0-detune, f 32;
#X obj 46 279 else/delete 9 1;
#X obj 46 329 else/dispatch \$0-set-ratio \$0-set-lin \$0-set-soft \$0-set-waveform \$0-set-PWM \$0-set-att-fm \$0-set-att-pm \$0-set-att-pwm \$0-set-detune, f 43;
#X obj 171 286 s \$0-set-GUI;
#X obj 46 248 else/default 1 0 0 0 0.5 0 0 0 1 0;
#X obj 46 303 else/pipe2 1;
#X connect 0 0 3 0;
#X connect 0 1 5 0;
#X connect 1 0 2 0;
#X connect 2 0 9 0;
#X connect 3 0 4 0;
#X connect 4 0 2 1;
#X connect 5 0 0 0;
#X connect 6 0 10 0;
#X connect 6 1 8 0;
#X connect 9 0 6 0;
#X connect 10 0 7 0;
#X restore 396 272 pd init-savestate;
#N canvas 236 38 823 750 inputs 0;
#X obj 75 49 inlet~;
#X obj 237 49 inlet~;
#X obj 155 368 mtof~;
#X obj 155 338 +~;
#X obj 173 237 *~ 1;
#X obj 218 443 +~;
#X obj 237 309 *~ 0;
#X obj 262 117 r \$0-lin;
#X obj 198 208 == 0;
#X obj 173 266 *~ 60;
#X obj 304 210 else/f2s~ 10;
#X obj 173 312 *~;
#X obj 237 339 *~ 1250;
#N canvas 137 120 311 304 pitch 0;
#X obj 59 36 inlet~;
#X obj 91 95 sel 0;
#X msg 91 119 60;
#X msg 123 159 0;
#X obj 91 71 r \$0-midi;
#X obj 66 236 outlet~;
#X obj 59 162 *~ 1;
#X obj 66 192 +~ 0;
#X connect 0 0 6 0;
#X connect 1 0 2 0;
#X connect 1 1 3 0;
#X connect 1 1 6 1;
#X connect 2 0 6 1;
#X connect 2 0 7 1;
#X connect 3 0 7 1;
#X connect 4 0 1 0;
#X connect 6 0 7 0;
#X connect 7 0 5 0;
#X restore 75 121 pd pitch;
#X obj 218 672 outlet~;
#X obj 438 49 inlet~;
#X obj 438 404 *~;
#X obj 456 367 else/f2s~ 10;
#X obj 685 48 inlet~;
#X obj 438 672 outlet~;
#X obj 685 672 outlet~;
#X obj 596 49 inlet~;
#X obj 596 672 outlet~;
#X obj 596 284 *~;
#X obj 460 205 else/f2s~ 10;
#X obj 286 397 *~;
#X obj 218 576 ftom~;
#X obj 218 475 clip~ 0 20000;
#X obj 218 608 else/quantizer~ 1e-05;
#X text 86 607 later rethink -->;
#X obj 218 544 +~;
#X obj 258 545 r \$0-detune;
#X obj 218 513 *~;
#X obj 261 512 r~ \$0-ratiomul;
#X obj 304 183 r \$0-real-att-fm;
#X obj 456 343 r \$0-real-att-pm;
#X obj 460 151 r \$0-real-att-pwm;
#X obj 460 175 * 0.5;
#X text 253 18 FM;
#X text 692 18 sync;
#X text 458 18 PM;
#X text 79 18 pitch;
#X text 608 18 PWM;
#X connect 0 0 13 0;
#X connect 1 0 4 0;
#X connect 1 0 6 0;
#X connect 2 0 5 0;
#X connect 3 0 2 0;
#X connect 4 0 9 0;
#X connect 5 0 27 0;
#X connect 6 0 12 0;
#X connect 7 0 8 0;
#X connect 7 0 6 1;
#X connect 8 0 4 1;
#X connect 9 0 11 0;
#X connect 10 0 11 1;
#X connect 10 0 25 1;
#X connect 11 0 3 1;
#X connect 12 0 25 0;
#X connect 13 0 3 0;
#X connect 15 0 16 0;
#X connect 16 0 19 0;
#X connect 17 0 16 1;
#X connect 18 0 20 0;
#X connect 21 0 23 0;
#X connect 23 0 22 0;
#X connect 24 0 23 1;
#X connect 25 0 5 1;
#X connect 26 0 28 0;
#X connect 27 0 32 0;
#X connect 28 0 14 0;
#X connect 30 0 26 0;
#X connect 31 0 30 1;
#X connect 32 0 30 0;
#X connect 33 0 32 1;
#X connect 34 0 10 0;
#X connect 35 0 17 0;
#X connect 36 0 37 0;
#X connect 37 0 24 0;
#X restore 276 157 pd inputs;
#X f 33;
#X obj 447 94 inlet~;
#X text 458 71 PWM;
#N canvas 431 124 679 381 oscillators 0;
#N canvas 399 485 634 435 sine~ 0;
#X obj 30 133 r \$0-set;
#X obj 121 88 inlet~;
#X obj 272 88 inlet~;
#X text 280 66 sync;
#X obj 207 88 inlet~;
#X text 215 66 PM;
#X text 129 66 pitch;
#X obj 124 290 outlet~;
#X obj 452 198 switch~;
#X obj 452 144 r \$0-waveform;
#X obj 452 168 == 0;
#X obj 131 200 else/sine~ -midi;
#X connect 0 0 11 0;
#X connect 1 0 11 0;
#X connect 2 0 11 1;
#X connect 4 0 11 2;
#X connect 9 0 10 0;
#X connect 10 0 8 0;
#X connect 11 0 7 0;
#X restore 175 202 pd sine~;
#X obj 291 59 inlet~;
#X obj 476 59 inlet~;
#X text 484 39 sync;
#X obj 361 59 inlet~;
#X text 369 39 PM;
#X text 299 37 pitch;
#X obj 419 59 inlet~;
#X text 430 38 PWM;
#X obj 175 315 outlet~;
#N canvas 732 121 518 442 tri~ 0;
#X obj 42 135 r \$0-set;
#X obj 163 88 inlet~;
#X obj 314 88 inlet~;
#X text 322 66 sync;
#X obj 249 88 inlet~;
#X text 257 66 PM;
#X text 171 66 pitch;
#X obj 174 349 outlet~;
#X obj 341 244 switch~;
#X obj 341 190 r \$0-waveform;
#X obj 341 214 == 1;
#X obj 173 260 else/bl.tri~ -midi;
#X connect 0 0 11 0;
#X connect 1 0 11 0;
#X connect 2 0 11 1;
#X connect 4 0 11 2;
#X connect 9 0 10 0;
#X connect 10 0 8 0;
#X connect 11 0 7 0;
#X restore 245 201 pd tri~;
#N canvas 267 161 646 410 saw~ 0;
#X obj 257 92 inlet~;
#X obj 408 92 inlet~;
#X text 416 70 sync;
#X obj 343 92 inlet~;
#X text 351 70 PM;
#X text 265 70 pitch;
#X obj 260 294 outlet~;
#X obj 467 197 switch~;
#X obj 467 143 r \$0-waveform;
#X obj 467 167 == 2;
#X obj 171 125 r \$0-set;
#X obj 267 204 else/bl.saw~ -midi;
#X connect 0 0 11 0;
#X connect 1 0 11 1;
#X connect 3 0 11 2;
#X connect 8 0 9 0;
#X connect 9 0 7 0;
#X connect 10 0 11 0;
#X connect 11 0 6 0;
#X restore 308 201 pd saw~;
#N canvas 134 355 627 426 square~ 0;
#X obj 182 88 inlet~;
#X obj 309 88 inlet~;
#X obj 250 88 inlet~;
#X obj 181 335 outlet~;
#X obj 373 88 inlet~;
#X text 377 62 sync;
#X text 255 62 PM;
#X text 187 62 pitch;
#X text 310 62 PWM;
#X obj 436 288 switch~;
#X obj 436 234 r \$0-waveform;
#X obj 436 258 == 4;
#X obj 385 115 r \$0-PWM;
#X obj 206 179 r \$0-set;
#X obj 182 265 else/bl.square~ -midi;
#X obj 348 179 else/rescale~ -in 0 1 0.05 0.95;
#X obj 385 139 else/f2s~;
#X obj 309 121 +~;
#X connect 0 0 14 0;
#X connect 1 0 17 0;
#X connect 2 0 14 3;
#X connect 4 0 14 2;
#X connect 10 0 11 0;
#X connect 11 0 9 0;
#X connect 12 0 16 0;
#X connect 13 0 14 0;
#X connect 14 0 3 0;
#X connect 15 0 14 1;
#X connect 16 0 17 1;
#X connect 17 0 15 0;
#X restore 446 201 pd square~;
#N canvas 512 146 448 372 vsaw~ 0;
#X obj 66 72 inlet~;
#X obj 192 72 inlet~;
#X obj 130 72 inlet~;
#X obj 66 319 outlet~;
#X obj 252 72 inlet~;
#X text 250 43 sync;
#X text 135 43 PM;
#X text 67 43 pitch;
#X text 196 43 PWM;
#X obj 274 265 switch~;
#X obj 274 207 r \$0-waveform;
#X obj 274 235 == 3;
#X obj 293 106 r \$0-PWM;
#X obj 86 153 r \$0-set;
#X obj 66 219 else/bl.vsaw~ -midi;
#X obj 252 158 clip~ 0 1;
#X obj 252 114 +~;
#X obj 293 130 else/f2s~;
#X connect 0 0 14 0;
#X connect 1 0 16 0;
#X connect 2 0 14 3;
#X connect 4 0 14 2;
#X connect 10 0 11 0;
#X connect 11 0 9 0;
#X connect 12 0 17 0;
#X connect 13 0 14 0;
#X connect 14 0 3 0;
#X connect 15 0 14 1;
#X connect 16 0 15 0;
#X connect 17 0 16 1;
#X restore 371 201 pd vsaw~;
#X obj 78 151 r \$0-waveform;
#X obj 78 180 + 1;
#X obj 175 259 else/select~ 6 1, f 44;
#N canvas 267 161 646 410 saw2~ 0;
#X obj 257 92 inlet~;
#X obj 408 92 inlet~;
#X text 416 70 sync;
#X obj 343 92 inlet~;
#X text 351 70 PM;
#X text 265 70 pitch;
#X obj 266 290 outlet~;
#X obj 467 211 switch~;
#X obj 467 143 r \$0-waveform;
#X obj 171 125 r \$0-set;
#X obj 267 204 else/bl.saw2~ -midi;
#X obj 467 181 == 5;
#X connect 0 0 10 0;
#X connect 1 0 10 1;
#X connect 3 0 10 2;
#X connect 8 0 11 0;
#X connect 9 0 10 0;
#X connect 10 0 6 0;
#X connect 11 0 7 0;
#X restore 532 201 pd saw2~;
#X connect 0 0 16 0;
#X connect 1 0 0 0;
#X connect 1 0 10 0;
#X connect 1 0 11 0;
#X connect 1 0 13 0;
#X connect 1 0 12 0;
#X connect 1 0 17 0;
#X connect 2 0 0 2;
#X connect 2 0 10 2;
#X connect 2 0 11 2;
#X connect 2 0 13 3;
#X connect 2 0 12 3;
#X connect 2 0 17 2;
#X connect 4 0 0 1;
#X connect 4 0 10 1;
#X connect 4 0 11 1;
#X connect 4 0 13 1;
#X connect 4 0 12 1;
#X connect 4 0 17 1;
#X connect 7 0 13 2;
#X connect 7 0 12 2;
#X connect 10 0 16 1;
#X connect 11 0 16 2;
#X connect 12 0 16 4;
#X connect 13 0 16 3;
#X connect 14 0 15 0;
#X connect 15 0 16 0;
#X connect 16 0 9 0;
#X connect 17 0 16 5;
#X restore 276 213 pd oscillators;
#X f 33;
#X text 169 50 PWM;
#N canvas 419 103 559 640 route 0;
#X obj 188 476 s \$0-set-PWM;
#X obj 125 571 s \$0-set-waveform;
#X obj 78 22 inlet;
#X obj 269 316 s \$0-set-att-pwm;
#X obj 255 342 s \$0-set-att-pm;
#X obj 245 367 s \$0-set-att-fm;
#X obj 230 395 s \$0-set-PM;
#X obj 220 421 s \$0-set-lin;
#X obj 203 448 s \$0-set-soft;
#X obj 298 255 s \$0-set-GUI;
#X obj 298 230 != 0;
#X obj 285 288 s \$0-set-detune;
#X obj 78 56 route wave st pwm soft lin pm att_fm att_pm att_pwm detune gui cents ratio, f 41;
#X obj 320 202 s \$0-set-cents;
#X obj 341 145 else/frac2dec;
#X obj 341 109 list;
#X obj 341 176 s \$0-set-ratiobox;
#X obj 122 542 clip 0 5;
#X obj 167 504 s \$0-set-st;
#X connect 2 0 12 0;
#X connect 10 0 9 0;
#X connect 12 0 17 0;
#X connect 12 1 18 0;
#X connect 12 2 0 0;
#X connect 12 3 8 0;
#X connect 12 4 7 0;
#X connect 12 5 6 0;
#X connect 12 6 5 0;
#X connect 12 7 4 0;
#X connect 12 8 3 0;
#X connect 12 9 11 0;
#X connect 12 10 10 0;
#X connect 12 11 13 0;
#X connect 12 12 15 0;
#X connect 14 0 16 0;
#X connect 15 0 14 0;
#X connect 17 0 1 0;
#X restore 315 129 pd route;
#X text 50 50 Freq;
#X obj 276 35 else/initmess 60;
#N canvas 455 181 193 335 \$0-VCO 0;
#N canvas 451 181 270 392 (subpatch) 0;
#X obj 51 51 cnv 19 159 299 empty empty empty 20 12 0 12 #dfdfdf #404040 0;
#X text 135 233 Soft Sync, f 4;
#X obj 73 59 else/note 95 24 Inter empty 5 54 54 54 0 187 187 187 1 1 VCO;
#X obj 58 165 else/knob 48 0 1 0 0.5 \$0-PWM \$0-set-PWM #dfdfdf #7c7c7c #000000 0 0 0 0 1 320 0 0 0.5 empty empty 0 8 5 48 0 0 0 0 0 0;
#X obj 70 303 else/knob 35 -1 1 0 0 \$0-att-fm \$0-set-att-fm #bbbbbb #7c7c7c #000000 0 0 0 0 1 320 0 0 0 empty empty 0 8 0 0 0 0 0 0 0 0;
#X obj 160 303 else/knob 35 -1 1 0 0 \$0-att-pwm \$0-set-att-pwm #bbbbbb #7c7c7c black 0 0 0 0 1 320 0 0 0 empty empty 0 8 0 0 0 0 0 0 0 0;
#X text 77 286 FM;
#X text 163 286 PWM;
#X obj 115 303 else/knob 35 -1 1 0 0 \$0-att-pm \$0-set-att-pm #bbbbbb #7c7c7c black 0 0 0 0 1 320 0 0 0 empty empty 0 8 0 0 0 0 0 0 0 0;
#X text 121 286 PM;
#X text 70 147 PWM;
#X obj 62 116 else/popmenu 75 26 12 #dfdfdf black \  \$0-set-waveform \$0-waveform empty empty 0 0 -1 1 0 1 0 0 0 0 0 sine tri saw vsaw square saw2;
#X text 60 232 Lin FM, f 3;
#X obj 175 59 else/button 19 31 #e0e0e0 #808080 2 1 2 0 0 \$0-collapse \$0-button;
#X obj 176 60 cnv 10 17 15 empty \$0-cnv ▼ 5 8 0 12 #bbbbbb #000000 0;
#X obj 176 74 cnv 10 17 15 empty \$0-cnv ▲ 5 5 0 12 #bbbbbb #000000 0;
#X obj 86 236 else/button 25 25 #f5f5f5 #808080 1 1 0 1 0 \$0-lin \$0-set-lin;
#X obj 168 236 else/button 25 25 #f5f5f5 #808080 1 1 0 1 0 \$0-soft \$0-set-soft;
#X floatatom 153 119 6 0 0 0 - \$0-set-detune \$0-detune 0;
#X floatatom 182 166 3 -60 60 0 - \$0-set-st \$0-st 0;
#X floatatom 154 187 7 -100 100 0 - \$0-set-cents \$0-cents 0;
#X text 151 98 Detune;
#X text 70 99 Waveform;
#X listbox 154 208 7 0 0 0 - \$0-set-ratiobox \$0-ratiobox 0;
#X text 115 187 Cents;
#X text 115 208 Ratio;
#X text 115 166 Semitones;
#X text 114 146 TRANSPOSITION;
#X obj 65 214 else/note 35 10 Menlo \$0-pwm# 0 0 0 0 0 255 255 255 0 1;
#X text 55 269 --- Attenuverters ---;
#X obj 69 338 else/note 35 9 Menlo \$0-fm-att# 0 0 0 0 0 255 255 255 0 1;
#X obj 114 338 else/note 35 9 Menlo \$0-pm-att# 0 0 0 0 0 255 255 255 0 1;
#X obj 159 338 else/note 35 9 Menlo \$0-pwm-att# 0 0 0 0 0 255 255 255 0 1;
#X coords 0 1 100 -1 161 301 1 50 50;
#X restore 15 15 graph;
#X coords 0 0 1 1 161 301 1 15 15;
#X restore 58 71 pd \$0-VCO;
#X text 196 50 SYNC;
#X obj 56 408 cnv 19 95 29 empty \$0-label-collapsed VCO 25 15 0 24 #bbbbbb #000000 0;
#X obj 158 408 cnv 10 17 15 empty empty ▲ 5 8 0 12 #bbbbbb #000000 0;
#X obj 158 422 cnv 10 17 15 empty empty ▼ 5 5 0 12 #bbbbbb #000000 0;
#X obj 157 407 else/button 19 31 #e0e0e0 #808080 2 1 2 0 0 \$0-uncollapse empty;
#X obj 55 407 else/button 97 31 #bbbbbb #bbbbbb 2 1 2 0 0 \$0-detatch \$0-uncollapse-set;
#N canvas 738 345 239 238 Learn 0;
#N canvas 281 38 955 848 PWM-knob 0;
#X msg 205 465 forget;
#X obj 290 521 savestate;
#X obj 368 599 list;
#X obj 290 688 else/insert teach;
#X obj 68 510 else/midi.learn 1;
#A saved;
#X obj 591 223 else/canvas.name 100;
#X obj 591 278 else/receiver;
#X obj 591 403 else/nmess;
#X msg 530 248 1;
#X obj 592 671 else/receiver;
#X obj 592 613 else/dollsym 1;
#X obj 624 458 savestate;
#X obj 684 488 list;
#X msg 591 247 symbol \$1-link;
#X obj 68 563 t f b;
#X msg 657 375 0;
#X obj 710 335 b;
#X msg 482 276 clear;
#X obj 624 577 route bang;
#X msg 750 407 clear;
#X obj 75 104 else/format \$0-%s-learn;
#X obj 456 134 else/format %s-learn;
#X obj 393 561 list prepend, f 7;
#X obj 290 582 list trim, f 4;
#X obj 290 628 route x, f 27;
#X obj 341 18 else/loadbanger -init;
#X obj 785 112 else/format rcv-%s;
#X obj 741 454 list prepend;
#X obj 624 549 route x, f 35;
#X obj 624 518 list trim;
#X obj 75 134 else/receiver;
#X obj 284 139 else/format %s-forget;
#X obj 274 276 else/receiver;
#X msg 94 242 Learn for \$1 knob activated, f 14;
#X obj 94 207 symbol;
#X obj 277 335 symbol;
#X msg 277 364 Forget for \$1 knob;
#X obj 547 750 else/format \$0-set-%s;
#X obj 331 791 send, f 27;
#X obj 517 343 else/route2 empty, f 11;
#X obj 290 656 route bang;
#X obj 341 51 symbol PWM;
#X obj 331 751 else/rescale -1 1;
#X obj 277 401 print [vco.m~]:;
#X connect 0 0 4 0;
#X connect 1 0 23 0;
#X connect 1 1 2 0;
#X connect 2 0 1 0;
#X connect 3 0 4 0;
#X connect 4 0 14 0;
#X connect 4 1 22 0;
#X connect 5 0 13 0;
#X connect 6 0 39 0;
#X connect 7 0 10 0;
#X connect 7 0 0 0;
#X connect 7 0 27 0;
#X connect 7 1 19 0;
#X connect 8 0 7 1;
#X connect 9 0 42 0;
#X connect 10 0 9 0;
#X connect 11 0 29 0;
#X connect 11 1 12 0;
#X connect 12 0 11 0;
#X connect 13 0 6 0;
#X connect 14 0 42 0;
#X connect 14 1 16 0;
#X connect 15 0 7 1;
#X connect 16 0 15 0;
#X connect 16 0 17 0;
#X connect 16 0 27 0;
#X connect 17 0 6 0;
#X connect 17 0 9 0;
#X connect 18 1 10 0;
#X connect 18 1 27 0;
#X connect 19 0 6 0;
#X connect 20 0 30 0;
#X connect 21 0 22 1;
#X connect 21 0 24 1;
#X connect 22 0 2 1;
#X connect 23 0 24 0;
#X connect 24 0 40 0;
#X connect 25 0 41 0;
#X connect 26 0 27 1;
#X connect 26 0 28 1;
#X connect 27 0 12 1;
#X connect 28 0 18 0;
#X connect 29 0 28 0;
#X connect 30 0 4 0;
#X connect 30 0 8 0;
#X connect 30 0 5 0;
#X connect 30 0 34 0;
#X connect 31 0 32 0;
#X connect 32 0 0 0;
#X connect 32 0 16 0;
#X connect 32 0 35 0;
#X connect 33 0 43 0;
#X connect 34 0 33 0;
#X connect 35 0 36 0;
#X connect 36 0 43 0;
#X connect 37 0 38 1;
#X connect 39 1 7 0;
#X connect 40 1 3 0;
#X connect 41 0 20 0;
#X connect 41 0 21 0;
#X connect 41 0 26 0;
#X connect 41 0 31 0;
#X connect 41 0 34 1;
#X connect 41 0 35 1;
#X connect 41 0 37 0;
#X connect 42 0 38 0;
#X restore 86 54 pd PWM-knob;
#N canvas 281 38 955 848 FM-att 0;
#X msg 205 465 forget;
#X obj 290 521 savestate;
#X obj 368 599 list;
#X obj 290 688 else/insert teach;
#X obj 68 510 else/midi.learn 1;
#A saved;
#X obj 591 223 else/canvas.name 100;
#X obj 591 278 else/receiver;
#X obj 591 403 else/nmess;
#X msg 530 248 1;
#X obj 592 671 else/receiver;
#X obj 592 613 else/dollsym 1;
#X obj 624 458 savestate;
#X obj 684 488 list;
#X msg 591 247 symbol \$1-link;
#X obj 68 563 t f b;
#X msg 657 375 0;
#X obj 710 335 b;
#X msg 482 276 clear;
#X obj 624 577 route bang;
#X msg 750 407 clear;
#X obj 75 104 else/format \$0-%s-learn;
#X obj 456 134 else/format %s-learn;
#X obj 393 561 list prepend, f 7;
#X obj 290 582 list trim, f 4;
#X obj 290 628 route x, f 27;
#X obj 341 18 else/loadbanger -init;
#X obj 785 112 else/format rcv-%s;
#X obj 741 454 list prepend;
#X obj 624 549 route x, f 35;
#X obj 624 518 list trim;
#X obj 75 134 else/receiver;
#X obj 284 139 else/format %s-forget;
#X obj 274 276 else/receiver;
#X msg 94 242 Learn for \$1 knob activated, f 14;
#X obj 94 207 symbol;
#X obj 277 335 symbol;
#X msg 277 364 Forget for \$1 knob;
#X obj 547 750 else/format \$0-set-%s;
#X obj 331 791 send, f 27;
#X obj 517 343 else/route2 empty, f 11;
#X obj 290 656 route bang;
#X obj 331 751 else/rescale -1 1;
#X obj 277 401 print [vco.m~]:;
#X obj 341 51 symbol att-fm;
#X connect 0 0 4 0;
#X connect 1 0 23 0;
#X connect 1 1 2 0;
#X connect 2 0 1 0;
#X connect 3 0 4 0;
#X connect 4 0 14 0;
#X connect 4 1 22 0;
#X connect 5 0 13 0;
#X connect 6 0 39 0;
#X connect 7 0 10 0;
#X connect 7 0 0 0;
#X connect 7 0 27 0;
#X connect 7 1 19 0;
#X connect 8 0 7 1;
#X connect 9 0 41 0;
#X connect 10 0 9 0;
#X connect 11 0 29 0;
#X connect 11 1 12 0;
#X connect 12 0 11 0;
#X connect 13 0 6 0;
#X connect 14 0 41 0;
#X connect 14 1 16 0;
#X connect 15 0 7 1;
#X connect 16 0 15 0;
#X connect 16 0 17 0;
#X connect 16 0 27 0;
#X connect 17 0 6 0;
#X connect 17 0 9 0;
#X connect 18 1 10 0;
#X connect 18 1 27 0;
#X connect 19 0 6 0;
#X connect 20 0 30 0;
#X connect 21 0 22 1;
#X connect 21 0 24 1;
#X connect 22 0 2 1;
#X connect 23 0 24 0;
#X connect 24 0 40 0;
#X connect 25 0 43 0;
#X connect 26 0 27 1;
#X connect 26 0 28 1;
#X connect 27 0 12 1;
#X connect 28 0 18 0;
#X connect 29 0 28 0;
#X connect 30 0 4 0;
#X connect 30 0 8 0;
#X connect 30 0 5 0;
#X connect 30 0 34 0;
#X connect 31 0 32 0;
#X connect 32 0 0 0;
#X connect 32 0 16 0;
#X connect 32 0 35 0;
#X connect 33 0 42 0;
#X connect 34 0 33 0;
#X connect 35 0 36 0;
#X connect 36 0 42 0;
#X connect 37 0 38 1;
#X connect 39 1 7 0;
#X connect 40 1 3 0;
#X connect 41 0 38 0;
#X connect 43 0 20 0;
#X connect 43 0 21 0;
#X connect 43 0 26 0;
#X connect 43 0 31 0;
#X connect 43 0 34 1;
#X connect 43 0 35 1;
#X connect 43 0 37 0;
#X restore 84 103 pd FM-att;
#N canvas 281 38 955 848 PM-att 0;
#X msg 205 465 forget;
#X obj 290 521 savestate;
#X obj 368 599 list;
#X obj 290 688 else/insert teach;
#X obj 68 510 else/midi.learn 1;
#A saved;
#X obj 591 223 else/canvas.name 100;
#X obj 591 278 else/receiver;
#X obj 591 403 else/nmess;
#X msg 530 248 1;
#X obj 592 671 else/receiver;
#X obj 592 613 else/dollsym 1;
#X obj 624 458 savestate;
#X obj 684 488 list;
#X msg 591 247 symbol \$1-link;
#X obj 68 563 t f b;
#X msg 657 375 0;
#X obj 710 335 b;
#X msg 482 276 clear;
#X obj 624 577 route bang;
#X msg 750 407 clear;
#X obj 75 104 else/format \$0-%s-learn;
#X obj 456 134 else/format %s-learn;
#X obj 393 561 list prepend, f 7;
#X obj 290 582 list trim, f 4;
#X obj 290 628 route x, f 27;
#X obj 341 18 else/loadbanger -init;
#X obj 785 112 else/format rcv-%s;
#X obj 741 454 list prepend;
#X obj 624 549 route x, f 35;
#X obj 624 518 list trim;
#X obj 75 134 else/receiver;
#X obj 284 139 else/format %s-forget;
#X obj 274 276 else/receiver;
#X msg 94 242 Learn for \$1 knob activated, f 14;
#X obj 94 207 symbol;
#X obj 277 335 symbol;
#X msg 277 364 Forget for \$1 knob;
#X obj 547 750 else/format \$0-set-%s;
#X obj 331 791 send, f 27;
#X obj 517 343 else/route2 empty, f 11;
#X obj 290 656 route bang;
#X obj 331 751 else/rescale -1 1;
#X obj 277 401 print [vco.m~]:;
#X obj 341 51 symbol att-pm;
#X connect 0 0 4 0;
#X connect 1 0 23 0;
#X connect 1 1 2 0;
#X connect 2 0 1 0;
#X connect 3 0 4 0;
#X connect 4 0 14 0;
#X connect 4 1 22 0;
#X connect 5 0 13 0;
#X connect 6 0 39 0;
#X connect 7 0 10 0;
#X connect 7 0 0 0;
#X connect 7 0 27 0;
#X connect 7 1 19 0;
#X connect 8 0 7 1;
#X connect 9 0 41 0;
#X connect 10 0 9 0;
#X connect 11 0 29 0;
#X connect 11 1 12 0;
#X connect 12 0 11 0;
#X connect 13 0 6 0;
#X connect 14 0 41 0;
#X connect 14 1 16 0;
#X connect 15 0 7 1;
#X connect 16 0 15 0;
#X connect 16 0 17 0;
#X connect 16 0 27 0;
#X connect 17 0 6 0;
#X connect 17 0 9 0;
#X connect 18 1 10 0;
#X connect 18 1 27 0;
#X connect 19 0 6 0;
#X connect 20 0 30 0;
#X connect 21 0 22 1;
#X connect 21 0 24 1;
#X connect 22 0 2 1;
#X connect 23 0 24 0;
#X connect 24 0 40 0;
#X connect 25 0 43 0;
#X connect 26 0 27 1;
#X connect 26 0 28 1;
#X connect 27 0 12 1;
#X connect 28 0 18 0;
#X connect 29 0 28 0;
#X connect 30 0 4 0;
#X connect 30 0 8 0;
#X connect 30 0 5 0;
#X connect 30 0 34 0;
#X connect 31 0 32 0;
#X connect 32 0 0 0;
#X connect 32 0 16 0;
#X connect 32 0 35 0;
#X connect 33 0 42 0;
#X connect 34 0 33 0;
#X connect 35 0 36 0;
#X connect 36 0 42 0;
#X connect 37 0 38 1;
#X connect 39 1 7 0;
#X connect 40 1 3 0;
#X connect 41 0 38 0;
#X connect 43 0 20 0;
#X connect 43 0 21 0;
#X connect 43 0 26 0;
#X connect 43 0 31 0;
#X connect 43 0 34 1;
#X connect 43 0 35 1;
#X connect 43 0 37 0;
#X restore 84 127 pd PM-att;
#N canvas 281 38 955 848 PWM-att 0;
#X msg 205 465 forget;
#X obj 290 521 savestate;
#X obj 368 599 list;
#X obj 290 688 else/insert teach;
#X obj 68 510 else/midi.learn 1;
#A saved;
#X obj 591 223 else/canvas.name 100;
#X obj 591 278 else/receiver;
#X obj 591 403 else/nmess;
#X msg 530 248 1;
#X obj 592 671 else/receiver;
#X obj 592 613 else/dollsym 1;
#X obj 624 458 savestate;
#X obj 684 488 list;
#X msg 591 247 symbol \$1-link;
#X obj 68 563 t f b;
#X msg 657 375 0;
#X obj 710 335 b;
#X msg 482 276 clear;
#X obj 624 577 route bang;
#X msg 750 407 clear;
#X obj 75 104 else/format \$0-%s-learn;
#X obj 456 134 else/format %s-learn;
#X obj 393 561 list prepend, f 7;
#X obj 290 582 list trim, f 4;
#X obj 290 628 route x, f 27;
#X obj 341 18 else/loadbanger -init;
#X obj 785 112 else/format rcv-%s;
#X obj 741 454 list prepend;
#X obj 624 549 route x, f 35;
#X obj 624 518 list trim;
#X obj 75 134 else/receiver;
#X obj 284 139 else/format %s-forget;
#X obj 274 276 else/receiver;
#X msg 94 242 Learn for \$1 knob activated, f 14;
#X obj 94 207 symbol;
#X obj 277 335 symbol;
#X msg 277 364 Forget for \$1 knob;
#X obj 547 750 else/format \$0-set-%s;
#X obj 331 791 send, f 27;
#X obj 517 343 else/route2 empty, f 11;
#X obj 290 656 route bang;
#X obj 331 751 else/rescale -1 1;
#X obj 277 401 print [vco.m~]:;
#X obj 341 51 symbol att-pwm;
#X connect 0 0 4 0;
#X connect 1 0 23 0;
#X connect 1 1 2 0;
#X connect 2 0 1 0;
#X connect 3 0 4 0;
#X connect 4 0 14 0;
#X connect 4 1 22 0;
#X connect 5 0 13 0;
#X connect 6 0 39 0;
#X connect 7 0 10 0;
#X connect 7 0 0 0;
#X connect 7 0 27 0;
#X connect 7 1 19 0;
#X connect 8 0 7 1;
#X connect 9 0 41 0;
#X connect 10 0 9 0;
#X connect 11 0 29 0;
#X connect 11 1 12 0;
#X connect 12 0 11 0;
#X connect 13 0 6 0;
#X connect 14 0 41 0;
#X connect 14 1 16 0;
#X connect 15 0 7 1;
#X connect 16 0 15 0;
#X connect 16 0 17 0;
#X connect 16 0 27 0;
#X connect 17 0 6 0;
#X connect 17 0 9 0;
#X connect 18 1 10 0;
#X connect 18 1 27 0;
#X connect 19 0 6 0;
#X connect 20 0 30 0;
#X connect 21 0 22 1;
#X connect 21 0 24 1;
#X connect 22 0 2 1;
#X connect 23 0 24 0;
#X connect 24 0 40 0;
#X connect 25 0 43 0;
#X connect 26 0 27 1;
#X connect 26 0 28 1;
#X connect 27 0 12 1;
#X connect 28 0 18 0;
#X connect 29 0 28 0;
#X connect 30 0 4 0;
#X connect 30 0 8 0;
#X connect 30 0 5 0;
#X connect 30 0 34 0;
#X connect 31 0 32 0;
#X connect 32 0 0 0;
#X connect 32 0 16 0;
#X connect 32 0 35 0;
#X connect 33 0 42 0;
#X connect 34 0 33 0;
#X connect 35 0 36 0;
#X connect 36 0 42 0;
#X connect 37 0 38 1;
#X connect 39 1 7 0;
#X connect 40 1 3 0;
#X connect 41 0 38 0;
#X connect 43 0 20 0;
#X connect 43 0 21 0;
#X connect 43 0 26 0;
#X connect 43 0 31 0;
#X connect 43 0 34 1;
#X connect 43 0 35 1;
#X connect 43 0 37 0;
#X restore 84 150 pd PWM-att;
#X restore 418 332 pd Learn;
#X f 9;
#X connect 0 0 14 0;
#X connect 0 1 19 0;
#X connect 2 0 14 1;
#X connect 4 0 14 4;
#X connect 6 0 14 2;
#X connect 14 0 17 0;
#X connect 14 1 17 1;
#X connect 14 2 17 2;
#X connect 14 3 17 3;
#X connect 15 0 14 3;
#X connect 17 0 1 0;
#X connect 21 0 0 0;
#X coords 0 0 1 1 178 330 2 50 50;
