#N canvas 476 38 833 650 12;
#X declare -path else;
#X obj 119 556 out~;
#X obj 193 479 rescale~ 100 1000;
#X obj 121 166 s~ \$0-in;
#X obj 118 479 r~ \$0-in;
#X obj 195 225 rescale~ 100 1000;
#X obj 102 214 r~ \$0-in;
#X obj 102 344 out~;
#X obj 102 298 +~;
#X obj 61 442 hsl 80 17 0 1 0 0 empty empty empty -2 -8 0 10 #dcdcdc #000000 #000000 0 1;
#X msg 58 468 wet \$1;
#X obj 193 451 osc~ 0.2;
#X obj 195 196 osc~ 0.2;
#X obj 120 264 allpass.filt~ 12, f 22;
#X text 28 441 dry;
#X text 149 441 wet;
#X text 57 38 You can also use [allpass.filt~] to implement a phaser effect. The ELSE library includes a [phaser~] object that is an abstraction based on the [allpass.filt~] object. It's just a bit more convenient., f 55;
#X obj 119 520 phaser~ 12, f 11;
#N canvas 527 76 427 378 phaser-stereo 0;
#X obj 111 280 outlet~;
#X obj 208 279 outlet~;
#X obj 111 114 bl.saw~;
#X obj 208 122 bl.saw~;
#X obj 111 221 phaser~ 16;
#X obj 208 222 phaser~ 14;
#X obj 275 155 osc~ 0.2;
#X obj 275 182 rescale~ 100 1000;
#X obj 208 95 + 0.5;
#X obj 208 48 inlet;
#X connect 2 0 4 0;
#X connect 3 0 5 0;
#X connect 4 0 0 0;
#X connect 5 0 1 0;
#X connect 6 0 7 0;
#X connect 7 0 5 1;
#X connect 7 0 4 1;
#X connect 8 0 3 0;
#X connect 9 0 2 0;
#X connect 9 0 8 0;
#X restore 343 429 pd phaser-stereo;
#X text 295 323 Here's a stereo setting with [phaser~] click ==>, f 25;
#X obj 575 78 declare -path else;
#X obj 350 467 out~;
#X obj 343 402 nbx 5 14 -1e+37 1e+37 0 0 empty empty empty 0 -8 0 10 #fcfcfc #000000 #000000 0 256;
#X obj 343 375 initmess 40;
#X text 405 400 Hz;
#X obj 121 126 play.file~ guitar.mp3 1 1;
#X obj 543 301 else/phaser.m~;
#A saved 0.628849 1.10214 0.743902;
#A saved;
#A saved;
#A saved;
#X obj 543 260 r~ \$0-in;
#X obj 543 509 out~;
#X text 536 146 The [phaser.m~] objecy is the MERDA version of [phaser~] \, fixed at 6 stages and has a dry/wet knob., f 30;
#X connect 1 0 16 1;
#X connect 3 0 16 0;
#X connect 4 0 12 1;
#X connect 5 0 7 0;
#X connect 5 0 12 0;
#X connect 7 0 6 0;
#X connect 8 0 9 0;
#X connect 9 0 16 0;
#X connect 10 0 1 0;
#X connect 11 0 4 0;
#X connect 12 0 7 1;
#X connect 16 0 0 0;
#X connect 17 0 20 0;
#X connect 17 1 20 1;
#X connect 21 0 17 0;
#X connect 22 0 21 0;
#X connect 24 0 2 0;
#X connect 25 0 27 0;
#X connect 26 0 25 0;
