#N canvas 507 40 561 743 10;
#X obj 5 307 cnv 3 550 3 empty empty inlets 8 12 0 13 #dcdcdc #000000 0;
#X obj 5 526 cnv 3 550 3 empty empty outlets 8 12 0 13 #dcdcdc #000000 0;
#X obj 5 647 cnv 3 550 3 empty empty arguments 8 12 0 13 #dcdcdc #000000 0;
#X obj 5 715 cnv 15 552 21 empty empty empty 20 12 0 14 #e0e0e0 #202020 0;
#X obj 95 534 cnv 17 3 17 empty empty 0 5 9 0 16 #dcdcdc #9c9c9c 0;
#X obj 95 315 cnv 17 3 130 empty empty 0 5 9 0 16 #dcdcdc #9c9c9c 0;
#X obj 24 36 cnv 4 4 4 empty empty Attack/Sustain/Release\ gated\ envelope 0 28 2 18 #e0e0e0 #000000 0;
#X obj 132 241 else/out~;
#X obj 132 214 *~;
#X obj 238 235 vsl 18 55 0 1 0 0 ewtwet wefwert empty 0 -9 0 10 #dcdcdc #000000 #000000 0 1;
#X text 261 281 0;
#X text 261 231 1;
#X obj 3 4 cnv 15 301 42 empty empty asr~ 20 20 2 37 #e0e0e0 #000000 0;
#N canvas 0 22 450 278 (subpatch) 0;
#X coords 0 1 100 -1 302 42 1;
#X restore 3 4 graph;
#X obj 95 452 cnv 17 3 17 empty empty 2 5 9 0 16 #dcdcdc #9c9c9c 0;
#X text 131 453 float/signal;
#X text 216 534 - envelope signal;
#X obj 147 131 tgl 20 0 empty empty empty 17 7 0 10 #dcdcdc #000000 #000000 0 1;
#X obj 306 5 cnv 15 250 40 empty empty empty 12 13 0 18 #7c7c7c #e0e4dc 0;
#N canvas 382 141 749 319 (subpatch) 0;
#X coords 0 -1 1 1 252 42 2 0 0;
#X restore 305 4 pd;
#X obj 345 12 cnv 10 10 10 empty empty ELSE 0 15 2 30 #7c7c7c #e0e4dc 0;
#X obj 458 12 cnv 10 10 10 empty empty EL 0 6 2 13 #7c7c7c #e0e4dc 0;
#X obj 478 12 cnv 10 10 10 empty empty Locus 0 6 2 13 #7c7c7c #e0e4dc 0;
#X obj 515 12 cnv 10 10 10 empty empty Solus' 0 6 2 13 #7c7c7c #e0e4dc 0;
#X obj 464 27 cnv 10 10 10 empty empty ELSE 0 6 2 13 #7c7c7c #e0e4dc 0;
#X obj 502 27 cnv 10 10 10 empty empty library 0 6 2 13 #7c7c7c #e0e4dc 0;
#X obj 84 183 osc~ 440;
#X text 217 312 - gate values, f 51;
#N canvas 486 183 804 473 example 0;
#X obj 553 293 *~;
#X obj 553 375 else/out~;
#X obj 553 333 else/lowpass~ 0 20;
#X obj 605 272 else/rescale~ 100 1500;
#X obj 605 102 else/randpulse~ 0.5;
#X obj 78 113 else/tempo 120 100 -on;
#X obj 299 289 catch~ \$0-voice;
#X obj 128 429 clone;
#X text 106 384 see also:;
#X obj 239 187 tgl 22 0 empty empty empty 0 -6 0 8 #d0d0d0 #404040 #000000 0 1;
#X obj 78 158 else/display;
#X obj 104 215 else/suspedal -retrig 1;
#X text 195 190 On/Off;
#X obj 78 188 makenote 127 150;
#X obj 92 406 else/voices;
#X obj 459 220 else/bl.saw~;
#X obj 299 318 else/plate.rev~ 50 0.75 0.5 0.5 0.5, f 18;
#X obj 78 136 else/rand.i 48 72;
#X obj 459 148 else/rand.f~ 50 150;
#X obj 310 364 else/out~;
#X text 674 171 <-- gate value;
#X text 675 300 <-- cutoff;
#X text 529 174 <-- Hz;
#X obj 459 174 else/numbox~ 6 12 100 #c0c0c4 #440008 10 0 0 0;
#X obj 605 171 else/numbox~ 6 12 100 #c0c0c4 #440008 10 0 0 0;
#X obj 605 300 else/numbox~ 6 12 100 #c0c0c4 #440008 10 0 0 0;
#X obj 104 261 else/voices -retrig 1 2 1;
#X obj 104 240 pack float float;
#N canvas 179 291 434 315 voice1 0;
#X obj 73 46 inlet;
#X obj 265 159 tgl 40 0 empty empty empty 17 7 0 10 #dcdcdc #000000 #000000 0 1;
#X obj 265 211 switch~;
#X obj 163 219 *~;
#X obj 73 110 mtof;
#X obj 73 77 unpack float float;
#X obj 98 144 osc~ 0.125;
#X obj 163 251 throw~ \$0-voice;
#X obj 73 173 else/bl.vsaw~;
#X obj 178 131 else/asr~ 10 50;
#X connect 0 0 5 0;
#X connect 1 0 2 0;
#X connect 3 0 7 0;
#X connect 4 0 8 0;
#X connect 5 0 4 0;
#X connect 5 1 9 0;
#X connect 6 0 8 1;
#X connect 8 0 3 0;
#X connect 9 0 3 1;
#X connect 9 1 1 0;
#X restore 104 343 pd voice1;
#N canvas 67 291 438 299 voice2 0;
#X obj 72 37 inlet;
#X obj 270 154 tgl 40 0 empty empty empty 17 7 0 10 #dcdcdc #000000 #000000 0 1;
#X obj 270 206 switch~;
#X obj 162 200 *~;
#X obj 72 101 mtof;
#X obj 72 68 unpack float float;
#X obj 97 135 osc~ 0.125;
#X obj 162 232 throw~ \$0-voice;
#X obj 72 164 else/bl.vsaw~;
#X obj 177 122 else/adsr~ 10 50;
#X connect 0 0 5 0;
#X connect 1 0 2 0;
#X connect 3 0 7 0;
#X connect 4 0 8 0;
#X connect 5 0 4 0;
#X connect 5 1 9 0;
#X connect 6 0 8 1;
#X connect 8 0 3 0;
#X connect 9 0 3 1;
#X connect 9 1 1 0;
#X restore 177 343 pd voice2;
#X text 52 343 open =>;
#X obj 177 309 else/display;
#X obj 104 309 else/display;
#X obj 104 282 route 0 1, f 25;
#X text 26 17 Here we have randomly generated notes into a sustain pedal and then feeding a [voice] object with 2 voices. Also see that each voice subpatch has [asr~]'s status outlet to control a DSP switch for that subpatch - open and check it. You should also try pd's [clone] object for managing polyphonic synths.;
#X obj 605 214 else/asr~ 100 300;
#X text 425 21 [asr~] accepts any gate value \, positive or negative and above 1 or below -1 \, so you can use it to control anything besides amplitude.;
#X connect 0 0 2 0;
#X connect 2 0 1 0;
#X connect 3 0 25 0;
#X connect 4 0 18 0;
#X connect 4 0 24 0;
#X connect 5 0 17 0;
#X connect 6 0 16 0;
#X connect 9 0 11 2;
#X connect 10 0 13 0;
#X connect 11 0 27 0;
#X connect 11 1 27 1;
#X connect 13 0 11 0;
#X connect 13 1 11 1;
#X connect 15 0 0 0;
#X connect 16 0 19 0;
#X connect 16 1 19 1;
#X connect 17 0 10 0;
#X connect 18 0 23 0;
#X connect 23 0 15 0;
#X connect 24 0 35 0;
#X connect 25 0 2 1;
#X connect 26 0 33 0;
#X connect 27 0 26 0;
#X connect 31 0 29 0;
#X connect 32 0 28 0;
#X connect 33 0 32 0;
#X connect 33 1 31 0;
#X connect 35 0 0 1;
#X connect 35 0 3 0;
#X restore 477 244 pd example;
#X text 116 132 gate;
#X obj 378 202 tgl 19 0 empty empty empty 17 7 0 10 #dcdcdc #000000 #000000 0 1;
#X obj 95 555 cnv 17 3 17 empty empty 1 5 9 0 16 #dcdcdc #9c9c9c 0;
#X text 173 555 float;
#N canvas 789 187 414 411 status 0;
#X obj 288 306 switch~;
#X obj 288 238 tgl 50 0 empty empty empty 17 7 0 10 #dcdcdc #000000 #000000 0 1;
#X obj 71 266 *~;
#X obj 49 204 osc~ 440;
#X obj 181 254 else/sig2float~;
#X obj 181 290 vsl 18 100 0 0.5 0 0 empty empty empty 0 -9 0 10 #dcdcdc #000000 #000000 0 1;
#X obj 335 127 else/setdsp~;
#X text 19 67 In the case of turning [switch~] on or off \, this only works for control data input \, because if the audio engine is off you can't use it to turn it on., f 62;
#X obj 71 311 else/out~;
#X msg 143 161 0;
#X text 162 133 gate on;
#X text 171 160 gate off;
#X msg 129 134 127;
#X obj 129 202 else/asr~ 100 300, f 27;
#X text 19 16 [asr~] has a right outlet that sends a status value (1 when the envelope starts and 0 when it ends). This can be useful for different things \, but particularly to turn on and off the DSP processing of a subpatch or abstraction with [switch~]., f 62;
#X connect 1 0 0 0;
#X connect 2 0 8 0;
#X connect 3 0 2 0;
#X connect 4 0 5 0;
#X connect 9 0 13 0;
#X connect 12 0 13 0;
#X connect 13 0 2 1;
#X connect 13 0 4 0;
#X connect 13 1 1 0;
#X restore 483 164 pd status;
#X text 216 555 - envelope status (on: 1 / off: 0);
#X text 179 354 bang;
#X obj 147 156 sig~;
#X obj 5 577 cnv 3 550 3 empty empty flags 8 12 0 13 #dcdcdc #000000 0;
#X obj 378 237 sel 0;
#X obj 378 261 bng 19 250 50 0 empty empty empty 17 7 0 10 #dcdcdc #000000 #000000;
#X text 345 264 done;
#X text 131 652 1) float - attack time in ms (default 10), f 54;
#X text 173 340 float;
#X text 217 340 - gate values in MIDI velocity range (0-127 is 0-1);
#X text 131 326 gate <float>;
#X text 217 326 - control gate values, f 51;
#N canvas 658 80 505 586 control 0;
#X obj 82 443 *~;
#X obj 192 446 vsl 18 100 0 1 0 0 empty empty empty 0 -9 0 10 #dcdcdc #000000 #000000 0 1;
#X obj 82 488 else/out~;
#X obj 82 193 else/keyboard 17 80 3 4 0 0 empty empty;
#X obj 82 282 unpack;
#X floatatom 140 312 5 0 0 0 - - - 16;
#X obj 82 315 mtof;
#X obj 192 420 else/s2f~;
#X obj 211 289 tgl 23 0 empty empty empty 0 -8 0 10 #dfdfdf #000000 #000000 0 1;
#X floatatom 211 322 5 0 0 0 - - - 0;
#X msg 211 345 gate \$1;
#X text 57 103 Control gate is possible in 2 ways. With a float value the MIDI velocity range is considered \, so 0-127 is the same as 0-1 in signal values (float values and values outside this range is possible). Moreover \, a 'gate' message sets the actual gate value in the normal range at control rate., f 68;
#X obj 82 353 osc~ 440;
#X obj 140 385 else/asr~ 150 50;
#X text 57 51 At a gate on (transition from 0 to any value) \, the attack ramp is generated. A gate off (transition from any value to 0) makes [asr~] go to 0 at the specified release time in ms. A gate is possible in the leftmost inlet via signal and control values., f 68;
#X connect 0 0 2 0;
#X connect 3 0 4 0;
#X connect 4 0 6 0;
#X connect 4 1 5 0;
#X connect 5 0 13 0;
#X connect 6 0 12 0;
#X connect 7 0 1 0;
#X connect 8 0 9 0;
#X connect 9 0 10 0;
#X connect 10 0 13 0;
#X connect 12 0 0 0;
#X connect 13 0 0 1;
#X connect 13 0 7 0;
#X restore 447 145 pd control gate;
#N canvas 664 155 462 429 multichannel 0;
#X obj 53 282 *~;
#X obj 208 264 else/meter2~;
#X obj 343 100 else/pulse~ 0.5;
#X obj 208 132 snake~ in 2, f 23;
#X obj 53 317 else/out.mc~;
#X obj 208 101 else/randpulse2~ 1.5;
#X obj 52 177 else/sine~ -mc 440 550;
#X obj 307 249 tgl 25 0 empty empty empty 0 -8 0 10 #dfdfdf #000000 #000000 0 1;
#X obj 208 213 else/asr~ 100 100;
#X text 26 18 If [asr~] has a multichannel left input \, it outputs the same number of channels \, one for each gate signal. Secondary inlets must have the same number of channels if bigger than 1 \, in which case each channel gets its own parameter \, otherwise the single channel input is copied to all channels. The status output considers all channels., f 68;
#X connect 0 0 4 0;
#X connect 2 0 3 1;
#X connect 3 0 8 0;
#X connect 5 0 3 0;
#X connect 6 0 0 0;
#X connect 8 0 0 1;
#X connect 8 0 1 0;
#X connect 8 1 7 0;
#X restore 447 264 pd multichannel;
#X text 149 312 signal(s);
#X text 149 534 signal(s);
#X obj 95 476 cnv 17 3 17 empty empty 3 5 9 0 16 #dcdcdc #9c9c9c 0;
#X text 131 477 float/signal;
#X text 219 133 attack;
#X text 216 477 - release time in ms, f 43;
#X text 216 452 - attack time in ms, f 43;
#X floatatom 224 149 5 0 1000 0 - - - 0;
#X floatatom 301 149 5 0 1000 0 - - - 0;
#X floatatom 124 157 2 0 0 0 - - - 0;
#X obj 238 208 else/s2f~;
#X text 217 354 - trigger at control rate (like an impulse), f 51;
#N canvas 668 105 490 508 curve/lin/lag 0;
#X obj 409 221 else/setdsp~;
#X text 381 128 see also:;
#X obj 49 327 cnv 15 398 138 empty empty empty 20 12 0 14 #e0e0e0 #404040 0;
#N canvas 0 22 450 278 (subpatch) 0;
#X array \$0-log 441 float 0;
#A color 0;
#A width 1;
#X coords 0 1 440 0 400 140 1 0 0;
#X restore 48 326 graph;
#X obj 120 155 bng 20 250 50 0 empty empty empty 17 7 0 10 #dcdcdc #000000 #000000;
#X obj 133 192 else/timed.gate~ 6;
#X obj 381 169 else/lag~;
#X obj 121 284 tabwrite~ \$0-log;
#X text 143 156 <= click;
#X text 341 234 turn on =>;
#X obj 381 148 else/smooth~;
#X msg 265 194 curve \$1;
#X floatatom 265 171 5 0 0 0 - - - 0;
#X msg 235 143 -1;
#X msg 54 184 lin;
#X msg 87 184 lag;
#X msg 295 143 1;
#X msg 265 143 0;
#X text 41 53 You can also set to 'lag' mode \, which uses the same filter as the [lag~] object (and simulates how analog gear work in general). The lag mode is similar to using the curve parameter "1.75" or so. The 'lin' message or flag is like using "curve 0" \, in order to get out of "lag" mode you need to use the 'lin'/'curve' messages., f 68;
#X text 41 14 You can set a curve parameter for [asr~] \, the default is "1" \, "0" is linear and negative values are possible. Note this is like using the curve parameter in the [smooth~] object., f 68;
#X obj 133 241 else/asr~ 1.5 4;
#X connect 4 0 5 0;
#X connect 4 0 7 0;
#X connect 5 0 20 0;
#X connect 11 0 20 0;
#X connect 12 0 11 0;
#X connect 13 0 12 0;
#X connect 14 0 20 0;
#X connect 15 0 20 0;
#X connect 16 0 12 0;
#X connect 17 0 12 0;
#X connect 20 0 7 0;
#X restore 441 223 pd curve/lin/lag;
#X text 185 384 lin;
#X text 217 384 - sets to linear mode \, like using 'curve 0', f 51;
#X text 185 399 lag;
#X text 217 399 - sets to lag filter mode, f 51;
#X text 125 370 curve <float>;
#X text 217 370 - sets log curve parameter (default 1 \, 0 is linear);
#X text 98 584 -curve <float>: sets curve parameter (default 1) | -lin: sets to lin mode (like '-curve 0' | -lag: sets to lag filter mode, f 61;
#N canvas 257 209 334 257 see 0;
#X text 96 44 see also:;
#X obj 99 84 else/envgen~;
#X obj 99 125 else/lag~;
#X obj 99 105 else/smooth~;
#X obj 100 155 else/adsr.m~;
#A saved 10 20 0.5 50 1 0 0 0 0 1 0 0;
#A saved;
#A saved;
#A saved;
#A saved;
#A saved;
#A saved;
#A saved;
#A saved;
#A saved;
#A saved;
#A saved;
#A saved;
#A saved;
#A saved;
#A saved;
#A saved;
#X obj 99 64 else/adsr~;
#X restore 27 257 pd see also;
#X text 119 413 minsus <float>;
#X text 217 413 - zero or above sets minimum sustain time, f 51;
#X text 119 427 maxsus <float>;
#X text 217 427 - zero or above sets maximum sustain time, f 51;
#X obj 95 498 cnv 17 3 17 empty empty 4 5 9 0 16 #dcdcdc #9c9c9c 0;
#X text 131 499 float/signal;
#X text 216 499 - time multiplier, f 43;
#N canvas 424 99 866 725 min/maxsustain 0;
#X obj 114 636 else/out~;
#X obj 205 466 tgl 20 0 empty empty empty 17 7 0 10 #dcdcdc #000000 #000000 0 1;
#X obj 114 594 *~;
#X obj 113 564 else/brown~;
#X obj 205 495 else/tempo~ 60;
#X obj 205 532 else/timed.gate~ 500;
#X text 143 513 impulse =>;
#X text 244 561 <-- gate value;
#X obj 205 561 else/numbox~ 2 12 100 #c0c0c4 #440008 10 0 0 0;
#X obj 311 337 else/out~;
#X obj 374 205 tgl 20 0 empty empty empty 17 7 0 10 #dcdcdc #000000 #000000 0 1;
#X obj 311 305 *~;
#X obj 240 197 else/brown~;
#X text 367 256 <-- impulses;
#X obj 56 324 else/out~;
#X obj 71 191 tgl 20 0 empty empty empty 17 7 0 10 #dcdcdc #000000 #000000 0 1;
#X obj 56 292 *~;
#X obj 55 154 else/brown~;
#X obj 71 220 sig~;
#X obj 179 325 vsl 18 80 0 1 0 0 ewtwet wefwert empty 0 -9 0 10 #dcdcdc #000000 #000000 0 1;
#X text 205 396 0;
#X text 202 321 1;
#X obj 179 298 else/s2f~;
#X obj 338 205 bng 21 250 50 0 empty empty empty 0 -8 0 10 #dfdfdf #000000 #000000;
#X msg 326 180 minsus \$1;
#X msg 295 125 -1;
#X msg 326 125 0;
#X msg 356 124 1000;
#X floatatom 326 156 5 0 0 0 - - - 0;
#X obj 374 233 else/tempo~ 40;
#X obj 326 277 else/adsr~ -minsus 0 50 100 0.5 500;
#X text 50 466 You can also use the [timed.gate~] if you like., f 20;
#X obj 638 344 else/out~;
#X obj 638 312 *~;
#X obj 567 204 else/brown~;
#X msg 622 128 -1;
#X msg 653 128 0;
#X msg 683 128 1000;
#X floatatom 653 159 5 0 0 0 - - - 0;
#X obj 680 211 tgl 20 0 empty empty empty 17 7 0 10 #dcdcdc #000000 #000000 0 1;
#X obj 680 240 sig~;
#X msg 653 183 maxsus \$1;
#X text 545 24 You can also set a maximum sustain time \, so the sustain is over even if the gate is still held. A negative value turns this feature off. A value of zero goes to the release phase as soon as you reach the sustain stage., f 42;
#X text 491 435 You can set both minimum and maximum sustain times to the same value \, so whatever you have as an input (either an impulse or gate) \, you end up forcing a fixed time for sustain phase., f 51;
#X obj 535 630 else/out~;
#X obj 535 588 *~;
#X obj 535 550 else/brown~;
#X obj 667 543 else/float2imp~;
#X obj 667 513 bng 20 250 50 0 empty empty empty 0 -8 0 10 #dfdfdf #000000 #000000;
#X obj 629 543 sig~;
#X obj 629 512 tgl 20 0 empty empty empty 0 -8 0 10 #dfdfdf #000000 #000000 0 1;
#X obj 71 254 else/asr~ 1500 500;
#X text 39 18 By default \, we have an "immediate release" mode after the gate off wherever you're at. So it goes into the release even if the attack stage hasn't finished yet. If you set a minimum sustain time though \, it waits for the attack stage to be over before getting to the release stage even if you have a gate off before that and even if the minimum sustain time is zero. If it's not zero \, then it awaits for that amount of time in ms for the sustain stage to be over. This is well suited for impulses to trigger the envelope as a "one shot"., f 76;
#X obj 205 596 else/asr~ 50 100;
#X obj 653 284 else/asr~ 250 100;
#X obj 629 584 else/adsr~ -minsus 500 -maxsus 500 250 100, f 22;
#X text 414 118 A bang is like opening and closing the gate right away \, so it's like an impulse. It considers the last gate value (1 by default)., f 28;
#X obj 653 106 loadbang;
#X connect 1 0 4 0;
#X connect 2 0 0 0;
#X connect 3 0 2 0;
#X connect 4 0 5 0;
#X connect 5 0 8 0;
#X connect 8 0 53 0;
#X connect 10 0 29 0;
#X connect 11 0 9 0;
#X connect 12 0 11 0;
#X connect 15 0 18 0;
#X connect 16 0 14 0;
#X connect 17 0 16 0;
#X connect 18 0 51 0;
#X connect 22 0 19 0;
#X connect 23 0 30 0;
#X connect 24 0 30 0;
#X connect 25 0 28 0;
#X connect 26 0 28 0;
#X connect 27 0 28 0;
#X connect 28 0 24 0;
#X connect 29 0 30 0;
#X connect 30 0 11 1;
#X connect 33 0 32 0;
#X connect 34 0 33 0;
#X connect 35 0 38 0;
#X connect 36 0 38 0;
#X connect 37 0 38 0;
#X connect 38 0 41 0;
#X connect 39 0 40 0;
#X connect 40 0 54 0;
#X connect 41 0 54 0;
#X connect 45 0 44 0;
#X connect 46 0 45 0;
#X connect 47 0 55 0;
#X connect 48 0 47 0;
#X connect 49 0 55 0;
#X connect 50 0 49 0;
#X connect 51 0 16 1;
#X connect 51 0 22 0;
#X connect 53 0 2 1;
#X connect 54 0 33 1;
#X connect 55 0 45 1;
#X connect 57 0 36 0;
#X restore 435 184 pd min/maxsustain;
#X text 86 609 -minsus <float>: zero or above sets minimum sustain time (default -1), f 69;
#X text 86 624 -maxsus <float>: zero or above sets maximum sustain time (default -1), f 69;
#N canvas 406 217 446 468 mul 0;
#X obj 99 361 else/out~;
#X obj 99 319 *~;
#X obj 99 281 else/brown~;
#X obj 193 270 bng 20 250 50 0 empty empty empty 0 -8 0 10 #dfdfdf #000000 #000000;
#X obj 316 278 sig~ 1;
#X floatatom 316 248 5 0 0 0 - - - 0;
#X msg 286 143 0.5;
#X obj 316 186 else/knob 50 0.25 4 1 1 empty empty #dfdfdf #7c7c7c #000000 1 0 0 0 1 320 0 0 1 empty empty 0 12 0 -15 0 1 0 0 0 0;
#X msg 250 143 0.25;
#X msg 316 143 1, f 2;
#X msg 341 143 2, f 2;
#X msg 367 143 4, f 2;
#X text 40 44 The rightmost inlet sets a time multiplier for all stages \, so it affects the inputs for attack \, release \, but also the minimum and maximum sustain times that you set via messages. This way you can do something like keyboard tracking and have the envelope faster or slower depending on the pitch.;
#X obj 193 315 else/asr~ -minsus 500 250 100, f 21;
#X connect 1 0 0 0;
#X connect 2 0 1 0;
#X connect 3 0 13 0;
#X connect 4 0 13 3;
#X connect 5 0 4 0;
#X connect 6 0 7 0;
#X connect 7 0 5 0;
#X connect 8 0 7 0;
#X connect 9 0 7 0;
#X connect 10 0 7 0;
#X connect 11 0 7 0;
#X connect 13 0 1 1;
#X restore 501 203 pd mul;
#X text 17 81 [asr~] is an attack/sustain/release gated envelope. The attack/release times are set in ms. A gate on sets the maximum attack peak \, which is also the sustain level. A gate off sets the release. The object has multichannel support., f 84;
#X obj 147 179 else/asr~ 50 100, f 39;
#X text 299 133 release;
#X text 131 668 2) float - release time in ms (default 10), f 54;
#X text 131 682 3) float - curve parameter (default 1), f 54;
#X text 131 697 4) float - time multiplier (default 1), f 54;
#X connect 8 0 7 0;
#X connect 17 0 36 0;
#X connect 17 0 57 0;
#X connect 26 0 8 0;
#X connect 30 0 38 0;
#X connect 36 0 81 0;
#X connect 38 0 39 0;
#X connect 55 0 81 1;
#X connect 56 0 81 2;
#X connect 58 0 9 0;
#X connect 81 0 8 1;
#X connect 81 0 58 0;
#X connect 81 1 30 0;
