#N canvas 561 52 563 432 10;
#X obj 4 284 cnv 3 550 3 empty empty inlets 8 12 0 13 #dcdcdc #000000 0;
#X obj 4 338 cnv 3 550 3 empty empty outlets 8 12 0 13 #dcdcdc #000000 0;
#X obj 4 373 cnv 3 550 3 empty empty arguments 8 12 0 13 #dcdcdc #000000 0;
#X obj 155 347 cnv 17 3 17 empty empty 0 5 9 0 16 #dcdcdc #9c9c9c 0;
#X obj 3 405 cnv 15 552 21 empty empty empty 20 12 0 14 #e0e0e0 #202020 0;
#X obj 25 40 cnv 4 4 4 empty empty Convert\ bang\ to\ impulse 0 28 2 18 #e0e0e0 #000000 0;
#X obj 209 211 else/out~;
#X obj 156 292 cnv 17 3 17 empty empty 0 5 9 0 16 #dcdcdc #9c9c9c 0;
#X text 213 291 bang;
#X text 201 347 signal;
#X obj 3 3 cnv 15 301 42 empty empty bang2imp~ 20 20 2 37 #e0e0e0 #000000 0;
#N canvas 0 22 450 278 (subpatch) 0;
#X coords 0 1 100 -1 302 42 1 0 0;
#X restore 2 3 graph;
#X obj 305 4 cnv 15 250 40 empty empty empty 12 13 0 18 #7c7c7c #e0e4dc 0;
#N canvas 382 141 749 319 (subpatch) 0;
#X coords 0 -1 1 1 252 42 2 100 100;
#X restore 304 3 pd;
#X obj 345 11 cnv 10 10 10 empty empty ELSE 0 15 2 30 #7c7c7c #e0e4dc 0;
#X obj 458 11 cnv 10 10 10 empty empty EL 0 6 2 13 #7c7c7c #e0e4dc 0;
#X obj 478 11 cnv 10 10 10 empty empty Locus 0 6 2 13 #7c7c7c #e0e4dc 0;
#X obj 515 11 cnv 10 10 10 empty empty Solus' 0 6 2 13 #7c7c7c #e0e4dc 0;
#X obj 464 26 cnv 10 10 10 empty empty ELSE 0 6 2 13 #7c7c7c #e0e4dc 0;
#X obj 502 26 cnv 10 10 10 empty empty library 0 6 2 13 #7c7c7c #e0e4dc 0;
#X text 25 202 see also:;
#X obj 26 221 else/impseq~;
#X obj 209 152 bng 19 250 50 0 empty empty empty 0 -8 0 10 #dfdfdf #000000 #000000;
#X msg 318 185 0.5;
#X obj 209 185 else/bang2imp~ 1;
#X msg 302 156 1;
#X text 68 94 [bang2imp~] converts bangs to impulses with sample accuracy \, it is an abstraction based on [vline~]. The default impulse value is '1' and can be set via the argument or right inlet., f 66;
#X obj 156 315 cnv 17 3 17 empty empty 1 5 9 0 16 #dcdcdc #9c9c9c 0;
#X text 174 382 1) float - impulse value (default 1);
#X text 207 314 float;
#X text 247 314 - set impulse value;
#X text 247 291 - generate impulse;
#X text 247 347 - impulses from bangs;
#X connect 22 0 24 0;
#X connect 23 0 24 1;
#X connect 24 0 6 0;
#X connect 25 0 24 1;
