#N canvas 460 42 576 515 10;
#X obj 1 327 cnv 3 550 3 empty empty inlets 8 12 0 13 #dcdcdc #000000 0;
#X obj 1 405 cnv 3 550 3 empty empty outlets 8 12 0 13 #dcdcdc #000000 0;
#X obj 1 445 cnv 3 550 3 empty empty arguments 8 12 0 13 #dcdcdc #000000 0;
#X obj 99 414 cnv 17 3 17 empty empty 0 5 9 0 16 #dcdcdc #9c9c9c 0;
#X obj 1 475 cnv 15 552 21 empty empty empty 20 12 0 14 #e0e0e0 #202020 0;
#X obj 4 4 cnv 15 301 42 empty empty biquads~ 20 20 2 37 #e0e0e0 #000000 0;
#X obj 307 5 cnv 15 250 40 empty empty empty 12 13 0 18 #7c7c7c #e0e4dc 0;
#N canvas 0 22 450 278 (subpatch) 0;
#X coords 0 1 100 -1 302 42 1;
#X restore -4 4 graph;
#X obj 346 12 cnv 10 10 10 empty empty ELSE 0 15 2 30 #7c7c7c #e0e4dc 0;
#X obj 24 41 cnv 4 4 4 empty empty Biquad 0 28 2 18 #e0e0e0 #000000 0;
#X obj 84 41 cnv 4 4 4 empty empty series 0 28 2 18 #e0e0e0 #000000 0;
#X obj 459 12 cnv 10 10 10 empty empty EL 0 6 2 13 #7c7c7c #e0e4dc 0;
#X obj 479 12 cnv 10 10 10 empty empty Locus 0 6 2 13 #7c7c7c #e0e4dc 0;
#X obj 516 12 cnv 10 10 10 empty empty Solus' 0 6 2 13 #7c7c7c #e0e4dc 0;
#X obj 465 27 cnv 10 10 10 empty empty ELSE 0 6 2 13 #7c7c7c #e0e4dc 0;
#X obj 503 27 cnv 10 10 10 empty empty library 0 6 2 13 #7c7c7c #e0e4dc 0;
#N canvas 0 22 450 278 (subpatch) 0;
#X coords 0 1 100 -1 252 42 1 0 0;
#X restore 306 4 graph;
#X obj 284 258 else/out~;
#X obj 284 161 noise~;
#X obj 88 214 else/bicoeff2 eq 500 10 24, f 13;
#X obj 175 242 else/bicoeff2 eq 900 10 24, f 13;
#X obj 88 282 send \$0-coeffs;
#X obj 88 189 else/lb 2, f 15;
#X obj 88 255 list;
#X obj 306 191 receive \$0-coeffs;
#X obj 284 222 else/biquads~;
#X text 156 452 (none);
#X obj 99 335 cnv 17 3 65 empty empty 0 5 9 0 16 #dcdcdc #9c9c9c 0;
#X msg 208 193 bypass \$1;
#X obj 208 171 tgl 15 0 empty empty empty 17 7 0 10 #dcdcdc #000000 #000000 0 1;
#X text 163 368 clear -;
#X text 218 368 clears the filter's memory;
#X text 169 352 list -;
#X text 217 352 list of biquad coefficients;
#X text 109 385 bypass <float> -;
#X text 219 385 <1> bypasses the input \, <0> turns the filter on;
#X text 74 90 [biquads~] is a series of biquad filters in cascade. Each biquad section is defined as a list of 5 coefficients (in the same way as Pd Vanilla's [biquad~]). Below we have a series of two biquad sections in cascade. The maximum number of filter stages is 50 \, which provides up to 100th order filters., f 64;
#N canvas 714 99 444 278 multichannel 0;
#X obj 175 104 receive \$0-coeffs;
#X obj 153 135 else/biquads~;
#X obj 153 74 else/white~ -ch 2;
#X obj 153 171 else/out.mc~;
#X text 116 28 There's support for multichannels.;
#X connect 0 0 1 0;
#X connect 1 0 3 0;
#X connect 2 0 1 0;
#X restore 431 283 pd multichannel;
#X text 139 414 signal(s) -;
#X text 139 336 signal(s) -;
#X text 215 336 the signal(s) to be filtered;
#X text 215 414 the filtered signal(s);
#X connect 18 0 25 0;
#X connect 19 0 23 0;
#X connect 20 0 23 1;
#X connect 22 0 19 0;
#X connect 22 1 20 0;
#X connect 23 0 21 0;
#X connect 24 0 25 0;
#X connect 25 0 17 0;
#X connect 28 0 25 0;
#X connect 29 0 28 0;
