#N canvas 672 252 576 557 10;
#X obj 306 7 cnv 15 250 40 empty empty empty 12 13 0 18 #7c7c7c #e0e4dc 0;
#X obj 345 14 cnv 10 10 10 empty empty ELSE 0 15 2 30 #7c7c7c #e0e4dc 0;
#X obj 23 43 cnv 4 4 4 empty empty Vibrato 0 28 2 18 #e0e0e0 #000000 0;
#X obj 458 14 cnv 10 10 10 empty empty EL 0 6 2 13 #7c7c7c #e0e4dc 0;
#X obj 478 14 cnv 10 10 10 empty empty Locus 0 6 2 13 #7c7c7c #e0e4dc 0;
#X obj 515 14 cnv 10 10 10 empty empty Solus' 0 6 2 13 #7c7c7c #e0e4dc 0;
#X obj 464 29 cnv 10 10 10 empty empty ELSE 0 6 2 13 #7c7c7c #e0e4dc 0;
#X obj 502 29 cnv 10 10 10 empty empty library 0 6 2 13 #7c7c7c #e0e4dc 0;
#N canvas 0 22 450 278 (subpatch) 0;
#X coords 0 1 100 -1 252 42 1 0 0;
#X restore 305 6 graph;
#X obj 3 6 cnv 15 301 42 empty empty braids~ 20 20 2 37 #e0e0e0 #000000 0;
#N canvas 0 22 450 278 (subpatch) 0;
#X coords 0 1 100 -1 302 42 1;
#X restore 2 6 graph;
#X obj 7 334 cnv 3 550 3 empty empty inlets 8 12 0 13 #dcdcdc #000000 0;
#X obj 7 411 cnv 3 550 3 empty empty outlets 8 12 0 13 #dcdcdc #000000 0;
#X obj 7 446 cnv 3 550 3 empty empty arguments 8 12 0 13 #dcdcdc #000000 0;
#X obj 5 499 cnv 15 552 21 empty empty empty 20 12 0 14 #e0e0e0 #202020 0;
#X obj 98 293 dac~;
#X msg 98 234 pitch \$1;
#X obj 98 190 * 128;
#X obj 98 168 - 63;
#X obj 98 212 + 8252;
#X symbolatom 167 296 10 0 0 0 - - - 0;
#N canvas 719 346 482 368 sequencer 0;
#X obj 34 85 tgl 15 0 empty empty start 17 7 0 10 #fcfcfc #000000 #000000 0 1;
#X obj 297 113 f;
#X obj 135 85 hradio 15 1 0 8 empty empty empty 0 -8 0 10 #fcfcfc #000000 #000000 0;
#X obj 297 134 mod 8;
#X obj 50 257 f;
#X obj 20 257 f;
#X obj 79 257 f;
#X obj 136 257 f;
#X obj 106 257 f;
#X obj 165 257 f;
#X obj 196 257 f;
#X obj 225 257 f;
#X obj 297 174 select 0 1 2 3 4 5 6 7;
#X obj 35 114 vsl 15 128 0 127 0 1 empty empty empty 0 -9 0 10 #fcfcfc #000000 #000000 7400 1;
#X obj 65 114 vsl 15 128 0 127 0 1 empty empty empty 0 -9 0 10 #fcfcfc #000000 #000000 8800 1;
#X obj 95 114 vsl 15 128 0 127 0 1 empty empty empty 0 -9 0 10 #fcfcfc #000000 #000000 5700 1;
#X obj 123 114 vsl 15 128 0 127 0 1 empty empty empty 0 -9 0 10 #fcfcfc #000000 #000000 7300 1;
#X obj 151 114 vsl 15 128 0 127 0 1 empty empty empty 0 -9 0 10 #fcfcfc #000000 #000000 10300 1;
#X obj 180 114 vsl 15 128 0 127 0 1 empty empty empty 0 -9 0 10 #fcfcfc #000000 #000000 3900 1;
#X obj 211 114 vsl 15 128 0 127 0 1 empty empty empty 0 -9 0 10 #fcfcfc #000000 #000000 7600 1;
#X obj 240 114 vsl 15 128 0 127 0 1 empty empty empty 0 -9 0 10 #fcfcfc #000000 #000000 5800 1;
#X obj 109 304 f;
#X obj 298 7 loadbang;
#X obj 88 86 nbx 3 14 40 350 0 1 empty empty tempo 0 -8 0 10 #fcfcfc #000000 #000000 120 256;
#X obj 297 85 metro;
#X obj 109 329 outlet;
#X obj 324 42 expr 60000 / $f1;
#X obj 347 113 + 1;
#X obj 324 63 / 4;
#X connect 0 0 24 0;
#X connect 1 0 3 0;
#X connect 1 0 27 0;
#X connect 2 0 12 0;
#X connect 3 0 2 0;
#X connect 4 0 21 0;
#X connect 5 0 21 0;
#X connect 6 0 21 0;
#X connect 7 0 21 0;
#X connect 8 0 21 0;
#X connect 9 0 21 0;
#X connect 10 0 21 0;
#X connect 11 0 21 1;
#X connect 12 0 5 0;
#X connect 12 1 4 0;
#X connect 12 2 6 0;
#X connect 12 3 8 0;
#X connect 12 4 7 0;
#X connect 12 5 9 0;
#X connect 12 6 10 0;
#X connect 12 7 11 0;
#X connect 13 0 5 1;
#X connect 14 0 4 1;
#X connect 15 0 6 1;
#X connect 16 0 8 1;
#X connect 17 0 7 1;
#X connect 18 0 9 1;
#X connect 19 0 10 1;
#X connect 20 0 11 1;
#X connect 21 0 25 0;
#X connect 22 0 23 0;
#X connect 23 0 26 0;
#X connect 24 0 1 0;
#X connect 26 0 28 0;
#X connect 27 0 1 1;
#X connect 28 0 24 1;
#X coords 0 -1 1 1 250 180 2 20 70;
#X restore 297 119 pd sequencer;
#X obj 16 149 bng 35 250 50 0 empty empty trigger 0 -8 0 10 #fcfcfc #000000 #000000;
#X msg 16 191 trigger 1;
#X obj 98 259 else/braids~;
#N canvas 756 295 408 471 parameters 0;
#X obj 6 205 outlet;
#X msg 136 172 shape \$1;
#X msg 6 173 timbre \$1;
#X msg 71 173 colour \$1;
#X obj 136 8 vsl 18 153 0 1 0 0 empty empty empty 0 -9 0 10 #fcfcfc #000000 #000000 0 1;
#X obj 71 9 vsl 18 153 0 1 0 0 empty empty empty 0 -9 0 10 #fcfcfc #000000 #000000 0 1;
#X obj 6 8 vsl 18 153 0 1 0 0 empty empty empty 0 -9 0 10 #fcfcfc #000000 #000000 0 1;
#X connect 1 0 0 0;
#X connect 2 0 0 0;
#X connect 3 0 0 0;
#X connect 4 0 1 0;
#X connect 5 0 3 0;
#X connect 6 0 2 0;
#X restore 160 235 pd parameters;
#X obj 297 304 s pitch;
#X obj 98 141 r pitch;
#X connect 16 0 24 0;
#X connect 17 0 19 0;
#X connect 18 0 17 0;
#X connect 19 0 16 0;
#X connect 21 0 26 0;
#X connect 22 0 23 0;
#X connect 23 0 24 0;
#X connect 24 0 15 0;
#X connect 24 0 15 1;
#X connect 24 1 20 0;
#X connect 25 0 24 0;
#X connect 27 0 18 0;
