#N canvas 965 30 938 1001 10;
#X obj 4 511 cnv 15 552 21 empty empty empty 20 12 0 14 #e0e0e0 #202020 0;
#X obj 4 285 cnv 3 550 3 empty empty inlets 8 12 0 13 #dcdcdc #000000 0;
#X obj 4 451 cnv 3 550 3 empty empty arguments 8 12 0 13 #dcdcdc #000000 0;
#X obj 4 4 cnv 15 301 42 empty empty clouds.reverb~ 20 20 2 37 #e0e0e0 #000000 0;
#X obj 307 5 cnv 15 250 40 empty empty empty 12 13 0 18 #7c7c7c #e0e4dc 0;
#N canvas 0 22 450 278 (subpatch) 0;
#X coords 0 1 100 -1 302 42 1;
#X restore 3 4 graph;
#X obj 346 12 cnv 10 10 10 empty empty ELSE 0 15 2 30 #7c7c7c #e0e4dc 0;
#X obj 24 41 cnv 4 4 4 empty empty Comb 0 28 2 18 #e0e0e0 #000000 0;
#X obj 79 41 cnv 4 4 4 empty empty filter 0 28 2 18 #e0e0e0 #000000 0;
#X obj 459 12 cnv 10 10 10 empty empty EL 0 6 2 13 #7c7c7c #e0e4dc 0;
#X obj 479 12 cnv 10 10 10 empty empty Locus 0 6 2 13 #7c7c7c #e0e4dc 0;
#X obj 516 12 cnv 10 10 10 empty empty Solus' 0 6 2 13 #7c7c7c #e0e4dc 0;
#X obj 465 27 cnv 10 10 10 empty empty ELSE 0 6 2 13 #7c7c7c #e0e4dc 0;
#X obj 503 27 cnv 10 10 10 empty empty library 0 6 2 13 #7c7c7c #e0e4dc 0;
#N canvas 0 22 450 278 (subpatch) 0;
#X coords 0 1 100 -1 252 42 1 0 0;
#X restore 306 4 graph;
#X obj 5 388 cnv 3 550 3 empty empty outlets 8 12 0 13 #dcdcdc #000000 0;
#X obj 107 397 cnv 17 3 17 empty empty 0 5 9 0 16 #dcdcdc #9c9c9c 0;
#X obj 5 420 cnv 3 550 3 empty empty flags 8 12 0 13 #dcdcdc #000000 0;
#X obj 30 218 dac~, f 23;
#X obj 30 193 else/clouds.reverb~ 0.8;
#N canvas 965 552 938 479 parms 0;
#X obj 20 256 outlet;
#X obj 310 57 vsl 15 128 0 1 0 1 empty empty lp 0 -9 0 10 #fcfcfc #000000 #000000 12700 1;
#X msg 310 196 lp \$1;
#X obj 30 60 vsl 15 128 0 1 0 1 empty empty amount 0 -9 0 10 #fcfcfc #000000 #000000 12700 1;
#X obj 99 60 vsl 15 128 0 1 0 1 empty empty gain 0 -9 0 10 #fcfcfc #000000 #000000 1750 1;
#X obj 161 61 vsl 15 128 0 1 0 1 empty empty time 0 -9 0 10 #fcfcfc #000000 #000000 9550 1;
#X obj 225 60 vsl 15 128 0 1 0 1 empty empty diffusion 0 -9 0 10 #fcfcfc #000000 #000000 10750 1;
#X msg 30 195 amount \$1;
#X msg 99 194 gain \$1;
#X msg 161 195 time \$1;
#X msg 217 195 diffusion \$1;
#X connect 1 0 2 0;
#X connect 2 0 0 0;
#X connect 3 0 7 0;
#X connect 4 0 8 0;
#X connect 5 0 9 0;
#X connect 6 0 10 0;
#X connect 7 0 0 0;
#X connect 8 0 0 0;
#X connect 9 0 0 0;
#X connect 10 0 0 0;
#X restore 30 145 pd parms;
#X obj 89 145 else/play.file~ violin.flac 1 1;
#X connect 19 0 18 0;
#X connect 19 1 18 1;
#X connect 20 0 19 0;
#X connect 21 0 19 0;
