#N canvas 509 38 565 610 10;
#X obj 4 581 cnv 15 552 21 empty empty empty 20 12 0 14 #e0e0e0 #202020 0;
#X obj 4 289 cnv 3 550 3 empty empty inlets 8 12 0 13 #dcdcdc #000000 0;
#X obj 4 509 cnv 3 550 3 empty empty arguments 8 12 0 13 #dcdcdc #000000 0;
#X obj 128 298 cnv 17 3 46 empty empty 0 5 9 0 16 #dcdcdc #9c9c9c 0;
#X obj 205 226 else/out~;
#X obj 4 4 cnv 15 301 42 empty empty comb.rev~ 20 20 2 37 #e0e0e0 #000000 0;
#X obj 307 5 cnv 15 250 40 empty empty empty 12 13 0 18 #7c7c7c #e0e4dc 0;
#N canvas 0 22 450 278 (subpatch) 0;
#X coords 0 1 100 -1 302 42 1;
#X restore 3 4 graph;
#X obj 346 12 cnv 10 10 10 empty empty ELSE 0 15 2 30 #7c7c7c #e0e4dc 0;
#X obj 24 41 cnv 4 4 4 empty empty Comb 0 28 2 18 #e0e0e0 #000000 0;
#X obj 79 41 cnv 4 4 4 empty empty reverberator 0 28 2 18 #e0e0e0 #000000 0;
#X obj 459 12 cnv 10 10 10 empty empty EL 0 6 2 13 #7c7c7c #e0e4dc 0;
#X obj 479 12 cnv 10 10 10 empty empty Locus 0 6 2 13 #7c7c7c #e0e4dc 0;
#X obj 516 12 cnv 10 10 10 empty empty Solus' 0 6 2 13 #7c7c7c #e0e4dc 0;
#X obj 465 27 cnv 10 10 10 empty empty ELSE 0 6 2 13 #7c7c7c #e0e4dc 0;
#X obj 503 27 cnv 10 10 10 empty empty library 0 6 2 13 #7c7c7c #e0e4dc 0;
#N canvas 0 22 450 278 (subpatch) 0;
#X coords 0 1 100 -1 252 42 1 0 0;
#X restore 306 4 graph;
#N canvas 381 159 855 396 Details 0;
#X floatatom 528 195 5 0 1000 0 - - - 0;
#X floatatom 569 162 8 0 100 0 - - - 0;
#X obj 572 138 hsl 128 15 -0.99 0.99 0 0 empty empty empty -2 -8 0 10 #dcdcdc #000000 #000000 0 1;
#X obj 487 290 else/out~;
#X obj 487 66 bng 21 250 50 0 empty empty empty 17 7 0 10 #dcdcdc #000000 #000000;
#X text 501 194 (D);
#X msg 369 163 size \$1;
#X msg 379 138 100;
#X msg 369 113 1000;
#X text 332 96 change delay size:, f 13;
#X obj 50 162 cnv 15 270 120 empty empty empty 20 12 0 14 #e0e0e0 #404040 0;
#X text 97 175 |;
#X text 97 187 |;
#X text 97 199 |;
#X text 78 210 |;
#X text 120 210 |;
#X text 120 230 |;
#X text 78 230 |;
#X text 81 201 _______;
#X text 81 230 _______;
#X text 97 202 v;
#X text 159 202 |;
#X text 159 213 |;
#X text 159 183 |;
#X text 159 192 |;
#X text 159 178 ^;
#X text 243 176 |;
#X text 243 188 |;
#X text 243 200 |;
#X text 224 211 |;
#X text 266 211 |;
#X text 266 231 |;
#X text 224 231 |;
#X text 227 202 _______;
#X text 227 231 _______;
#X text 243 203 v;
#X text 189 204 |;
#X text 189 214 |;
#X text 189 182 |;
#X text 189 192 |;
#X text 189 177 ^;
#X text 266 168 >;
#X text 126 219 -(*b)-;
#X text 190 220 -(*c)-;
#X text 57 169 x[n] -----(*a)--(+)--(+)----------- y[n];
#X text 78 220 | z^-D |;
#X text 59 254 y[n] = a * x[n] + b * x[n-D] + c * y[n-D];
#X text 224 221 | z^-D |;
#X text 136 300 D = delay time;
#X text 136 313 a = input gain coefficient;
#X text 136 327 b = feedforward gain coefficient;
#X text 136 340 c = feedback gain coefficient;
#X text 82 123 Here's the delay lines diagram of [comb.rev~] and equation:, f 30;
#X text 437 17 The [comb.rev~] object performs a simple linear interpolation for delay time that falls in between sample values., f 61;
#X text 623 161 (a);
#X floatatom 610 212 8 0 100 0 - - - 0;
#X obj 613 188 hsl 128 15 -0.99 0.99 0 0 empty empty empty -2 -8 0 10 #dcdcdc #000000 #000000 0 1;
#X floatatom 685 266 8 0 100 0 - - - 0;
#X obj 688 242 hsl 128 15 -0.99 0.99 0 0 empty empty empty -2 -8 0 10 #dcdcdc #000000 #000000 0 1;
#X text 664 211 (b);
#X text 739 265 (c);
#X obj 487 103 else/float2imp~;
#X obj 487 250 else/comb.rev~ 500 1 0.8 0.8;
#X text 59 35 The first argument sets the maximum delay size and initial delay. You can use the -size flag if you want to specify a delay size and the argument is just a initial delay value. You can also change the size with the 'size' message., f 50;
#X connect 0 0 62 1;
#X connect 1 0 62 2;
#X connect 2 0 1 0;
#X connect 4 0 61 0;
#X connect 6 0 62 0;
#X connect 7 0 6 0;
#X connect 8 0 6 0;
#X connect 55 0 62 3;
#X connect 56 0 55 0;
#X connect 57 0 62 4;
#X connect 58 0 57 0;
#X connect 61 0 62 0;
#X connect 62 0 3 0;
#X restore 439 230 pd Details and \; Filter Equation;
#X text 240 313 - changes the maximum delay size (in ms), f 41;
#X text 154 313 size <float>;
#X text 198 330 clear - clears the delay buffer, f 48;
#X obj 5 434 cnv 3 550 3 empty empty outlets 8 12 0 13 #dcdcdc #000000 0;
#X obj 127 349 cnv 17 3 17 empty empty 1 5 9 0 16 #dcdcdc #9c9c9c 0;
#X obj 127 369 cnv 17 3 17 empty empty 2 5 9 0 16 #dcdcdc #9c9c9c 0;
#X obj 127 409 cnv 17 3 17 empty empty 4 5 9 0 16 #dcdcdc #9c9c9c 0;
#X obj 127 442 cnv 17 3 17 empty empty 0 5 9 0 16 #dcdcdc #9c9c9c 0;
#X obj 127 389 cnv 17 3 17 empty empty 3 5 9 0 16 #dcdcdc #9c9c9c 0;
#X obj 127 389 cnv 17 3 17 empty empty 3 5 9 0 16 #dcdcdc #9c9c9c 0;
#X text 234 350 - D: delay time in ms, f 42;
#X text 234 389 - b: feedforward gain coefficient, f 42;
#X text 234 409 - c: feedback gain coefficient, f 42;
#X text 234 369 - a: input gain coefficient, f 42;
#X obj 267 155 hsl 128 15 40 500 0 0 empty empty empty -2 -8 0 10 #dcdcdc #000000 #000000 0 1;
#X obj 162 125 noise~;
#X obj 205 154 *~;
#X obj 220 126 else/pulse~ 1 0.05;
#X text 61 89 Use [comb.rev~] as a reverberator \, comb filter and delay., f 58;
#X text 131 532 2) float - a: input gain coefficient (default 0), f 65;
#X text 131 547 3) float - b: feedforward gain coefficient (default 0), f 65;
#X text 131 562 4) float - c: feedback gain coefficient (default 0), f 65;
#X text 29 187 see also:;
#X obj 26 210 else/comb.filt~;
#X msg 157 173 clear;
#X text 190 350 signal;
#X text 190 369 signal;
#X text 190 389 signal;
#X text 190 409 signal;
#X floatatom 264 176 9 0 0 0 - - - 0;
#X obj 26 230 else/ffdelay~;
#X obj 26 250 else/fbdelay~;
#X obj 1 468 cnv 3 550 3 empty empty flags 8 12 0 13 #dcdcdc #000000 0;
#X text 185 478 -;
#X text 98 478 -size <float>;
#X text 131 517 1) float - maximum and initial delay time in ms (default 0), f 65;
#X text 199 477 sets delay size \, which defines the delay's maximum time (default 1000 ms or argument's value if flag not given);
#X obj 205 197 else/comb.rev~ -size 500 400 1 0.75 0.75;
#N canvas 701 236 450 300 multichannel 0;
#X obj 134 92 else/play.file~ stereo.wav 1 1;
#X obj 134 123 snake~ in 2;
#X obj 134 191 else/out.mc~;
#X text 83 38 There's support for multichannels \, but only the first inlet takes it (at least for now)., f 44;
#X obj 134 162 else/comb.rev~ 10 1 0.8 0.8;
#X connect 0 0 1 0;
#X connect 0 1 1 1;
#X connect 1 0 4 0;
#X connect 4 0 2 0;
#X restore 439 261 pd multichannel;
#X text 172 443 signal(s);
#X text 180 297 signal(s) - signal input(s) to the filter, f 49;
#X text 239 444 - output(s) from comb filter;
#X connect 32 0 47 0;
#X connect 33 0 34 0;
#X connect 34 0 55 0;
#X connect 35 0 34 1;
#X connect 42 0 55 0;
#X connect 47 0 55 1;
#X connect 55 0 4 0;
