#N canvas 461 52 565 577 10;
#X obj 5 307 cnv 3 550 3 empty empty inlets 8 12 0 13 #dcdcdc #000000 0;
#X obj 5 408 cnv 3 550 3 empty empty outlets 8 12 0 13 #dcdcdc #000000 0;
#X obj 5 504 cnv 3 550 3 empty empty arguments 8 12 0 13 #dcdcdc #000000 0;
#X obj 5 548 cnv 15 552 21 empty empty empty 20 12 0 14 #e0e0e0 #202020 0;
#X obj 306 5 cnv 15 250 40 empty empty empty 12 13 0 18 #7c7c7c #e0e4dc 0;
#N canvas 382 141 749 319 (subpatch) 0;
#X coords 0 -1 1 1 252 42 2 100 100;
#X restore 305 4 pd;
#X obj 346 12 cnv 10 10 10 empty empty ELSE 0 15 2 30 #7c7c7c #e0e4dc 0;
#X obj 459 12 cnv 10 10 10 empty empty EL 0 6 2 13 #7c7c7c #e0e4dc 0;
#X obj 479 12 cnv 10 10 10 empty empty Locus 0 6 2 13 #7c7c7c #e0e4dc 0;
#X obj 516 12 cnv 10 10 10 empty empty Solus' 0 6 2 13 #7c7c7c #e0e4dc 0;
#X obj 465 27 cnv 10 10 10 empty empty ELSE 0 6 2 13 #7c7c7c #e0e4dc 0;
#X obj 503 27 cnv 10 10 10 empty empty library 0 6 2 13 #7c7c7c #e0e4dc 0;
#X obj 305 181 nbx 5 14 -1e+37 1e+37 0 0 empty empty empty 0 -8 0 10 #dcdcdc #000000 #000000 0 256;
#X obj 19 42 cnv 4 4 4 empty empty Damped\ harmonic\ motion\ oscillator 0 28 2 18 #e0e0e0 #000000 0;
#X obj 4 4 cnv 15 301 42 empty empty damp.osc~ 20 20 2 37 #e0e0e0 #000000 0;
#N canvas 0 22 450 278 (subpatch) 0;
#X coords 0 1 100 -1 302 42 1 0 0;
#X restore 3 4 graph;
#X text 366 181 decay time (ms);
#X obj 98 417 cnv 17 3 17 empty empty 0 5 9 0 16 #dcdcdc #9c9c9c 0;
#X obj 98 314 cnv 17 3 45 empty empty 0 5 9 0 16 #dcdcdc #9c9c9c 0;
#X obj 98 363 cnv 17 3 17 empty empty 1 5 9 0 16 #dcdcdc #9c9c9c 0;
#X text 158 417 signal;
#X text 147 527 2) float - decay time in ms (default 0);
#X obj 98 384 cnv 17 3 17 empty empty 2 5 9 0 16 #dcdcdc #9c9c9c 0;
#X text 122 364 float/signal;
#X text 204 387 - decay time in ms;
#X obj 218 241 else/out~;
#X text 122 387 float/signal;
#X obj 5 471 cnv 3 550 3 empty empty flags 8 12 0 13 #dcdcdc #000000 0;
#N canvas 403 222 716 415 examples 0;
#X text 340 36 And now for some computer music cliché with random generators..., f 32;
#X obj 492 196 else/plate.rev~ 5 0.6 0.25 0.8 0.5, f 17;
#X obj 439 162 else/rand.f~ 2500 5000;
#X obj 505 240 else/out~;
#X obj 358 204 else/damp.osc~;
#X obj 440 116 else/rand.f~ 150 500;
#X obj 398 77 else/dust~ 1;
#X text 164 110 trigger;
#X obj 133 143 else/impseq~;
#X obj 133 105 bng 25 250 50 0 empty empty empty 0 -8 0 10 #dfdfdf #000000 #000000;
#X obj 72 212 else/s2f~;
#X obj 72 243 vsl 16 136 -1 1 0 0 empty empty empty 0 -9 0 10 #dfdfdf #000000 #000000 0 1;
#X obj 195 212 else/s2f~;
#X obj 195 243 vsl 16 136 -1 1 0 0 empty empty empty 0 -9 0 10 #dfdfdf #000000 #000000 0 1;
#X obj 72 181 else/damp.osc~ 1 5000;
#X text 32 34 This example shows thw difference between both outputs. The oscillation on the left outlet starts at cosine initial phase \, while right one starts at sine., f 41;
#X obj 309 243 else/oscope~ 137 128 8 3 64 -1 1 0 0 0 0 30 30 30 190 190 190 160 160 160 0 empty;
#X text 477 314 The left outlet generaters loud clicks of course., f 26;
#X connect 1 0 3 0;
#X connect 1 1 3 1;
#X connect 2 0 4 2;
#X connect 4 0 16 0;
#X connect 4 1 16 1;
#X connect 4 1 1 0;
#X connect 5 0 4 0;
#X connect 6 0 2 0;
#X connect 6 0 4 1;
#X connect 6 0 5 0;
#X connect 8 0 14 1;
#X connect 9 0 8 0;
#X connect 10 0 11 0;
#X connect 12 0 13 0;
#X connect 14 0 10 0;
#X connect 14 1 12 0;
#X restore 469 270 pd examples;
#X obj 170 171 nbx 5 14 -1e+37 1e+37 0 0 empty empty empty 0 -8 0 10 #dcdcdc #000000 #000000 0 256;
#X text 158 315 signal;
#X text 321 145 trigger;
#X text 204 364 - trigger (determines the maximum amplitude);
#X text 205 315 - frequency input;
#X text 170 330 list;
#X text 205 330 - frequency and trigger value (normalized to MIDI range);
#X text 205 345 - non zero sets to MIDI pitch input instead of hz.;
#X text 160 482 -midi: sets to MIDI pitch frequency input;
#X text 147 512 1) float - frequency (default 0);
#X text 122 344 midi <float>;
#X text 49 91 [damp.osc~] is based on a complex pole resonant filter with two ouputs (cosine and sine). It takes frequency in hertz or midi and a decay time in ms. It is triggered by signals at zero to non zero transitions or by lists at control rate., f 72;
#X obj 170 208 else/damp.osc~ 250 1500;
#X text 124 171 pitch;
#X obj 98 443 cnv 17 3 17 empty empty 1 5 9 0 16 #dcdcdc #9c9c9c 0;
#X text 158 444 signal;
#N canvas 542 92 684 484 basic 0;
#X obj 97 273 else/out~;
#X obj 164 151 else/impseq~ 1 0.5 0.25 0.1;
#X obj 192 177 else/trighold~;
#X obj 164 120 else/tempo~ -on 120;
#X obj 192 199 else/numbox~ 6 12 100 #c0c0c4 #440008 10 0 0 0;
#X text 33 22 Below we have a sequence of impulse values \, we can then see how the impulse value determines the amplitude/intensity. A trigger happens when there is a 0 to non 0 transition \, and this values determines the maximum amplitude., f 46;
#X obj 402 116 bng 21 250 50 0 empty empty empty 17 7 0 10 #dcdcdc #000000 #000000;
#X obj 402 400 else/out~;
#X obj 402 244 else/keyboard 17 80 2 4 0 0 empty empty;
#X obj 402 210 else/makenote2;
#X listbox 402 340 11 0 0 0 - - - 0;
#X msg 402 179 \$1 127 0.5;
#X floatatom 97 179 5 0 0 0 - - - 12;
#X msg 59 147 midi \$1;
#X obj 59 113 tgl 21 0 empty empty empty 0 -8 0 10 #dfdfdf #000000 #000000 0 1;
#X text 52 364 By default \, the frequency input is in Hertz \, but you can set it to MIDI pitch with the 'midi' message or 'midi' flag., f 44;
#X obj 300 280 else/note.in;
#X obj 97 237 else/damp.osc~ 250 1500;
#X text 334 16 You can use lists for a MIDI/control input. It takes note on messages to trigger it (note offs are just ignored) with pitch and velocity (values from 0 to 127 is normalized to 0 to 1 range (float values and values outside this range is possible). You can get note on list messages with objects like [keyboard] \, [makenote2] and [note.in]., f 52;
#X obj 402 151 else/rand.i 60 84;
#X obj 402 369 else/damp.osc~ -midi 0 500;
#X connect 1 0 2 0;
#X connect 1 0 17 1;
#X connect 2 0 4 0;
#X connect 3 0 1 0;
#X connect 6 0 19 0;
#X connect 8 0 10 0;
#X connect 9 0 8 0;
#X connect 10 0 20 0;
#X connect 11 0 9 0;
#X connect 12 0 17 0;
#X connect 13 0 17 0;
#X connect 14 0 13 0;
#X connect 16 0 10 0;
#X connect 17 0 0 0;
#X connect 17 1 0 1;
#X connect 19 0 11 0;
#X connect 20 0 7 0;
#X connect 20 1 7 1;
#X restore 488 248 pd basic;
#X obj 237 146 else/dust~ 2;
#X text 204 417 - damped oscillator with cosine initial phase;
#X text 204 444 - damped oscillator with sine initial phase;
#X connect 12 0 41 2;
#X connect 29 0 41 0;
#X connect 41 0 25 0;
#X connect 41 1 25 1;
#X connect 46 0 41 1;
