#N canvas 561 70 563 415 10;
#X obj 4 384 cnv 15 552 21 empty empty empty 20 12 0 14 #e0e0e0 #202020 0;
#X obj 5 251 cnv 3 550 3 empty empty inlets 8 12 0 13 #dcdcdc #000000 0;
#X obj 5 285 cnv 3 550 3 empty empty outlets 8 12 0 13 #dcdcdc #000000 0;
#X obj 5 352 cnv 3 550 3 empty empty arguments 8 12 0 13 #dcdcdc #000000 0;
#X obj 127 296 cnv 17 3 17 empty empty n 5 9 0 16 #dcdcdc #9c9c9c 0;
#X obj 127 260 cnv 17 3 17 empty empty 0 5 9 0 16 #dcdcdc #9c9c9c 0;
#X text 112 360 1) float;
#X obj 308 3 cnv 15 250 40 empty empty empty 12 13 0 18 #7c7c7c #e0e4dc 0;
#X obj 347 10 cnv 10 10 10 empty empty ELSE 0 15 2 30 #7c7c7c #e0e4dc 0;
#X obj 25 39 cnv 4 4 4 empty empty Deinterleave\ lists 0 28 2 18 #e0e0e0 #000000 0;
#X obj 460 10 cnv 10 10 10 empty empty EL 0 6 2 13 #7c7c7c #e0e4dc 0;
#X obj 480 10 cnv 10 10 10 empty empty Locus 0 6 2 13 #7c7c7c #e0e4dc 0;
#X obj 517 10 cnv 10 10 10 empty empty Solus' 0 6 2 13 #7c7c7c #e0e4dc 0;
#X obj 466 25 cnv 10 10 10 empty empty ELSE 0 6 2 13 #7c7c7c #e0e4dc 0;
#X obj 504 25 cnv 10 10 10 empty empty library 0 6 2 13 #7c7c7c #e0e4dc 0;
#N canvas 0 22 450 278 (subpatch) 0;
#X coords 0 1 100 -1 252 42 1 0 0;
#X restore 307 2 graph;
#X obj 5 2 cnv 15 301 42 empty empty delace 20 20 2 37 #e0e0e0 #000000 0;
#N canvas 0 22 450 278 (subpatch) 0;
#X coords 0 1 100 -1 302 42 1;
#X restore 4 2 graph;
#X obj 5 323 cnv 3 550 3 empty empty flags 8 12 0 13 #dcdcdc #000000 0;
#X text 166 297 list -;
#X listbox 192 218 7 0 0 0 - - - 0;
#X text 162 261 list -;
#X text 179 330 -z: add zeros for missing elements;
#N canvas 799 247 394 242 -z 0;
#X listbox 68 189 4 0 0 0 - - - 0;
#X listbox 208 189 4 0 0 0 - - - 0;
#X text 47 24 The '-z' flag adds zeros for the case where output lists are not of the same size. This way \, zero are added in the place of missing elements., f 50;
#X obj 68 162 else/delace -z 2;
#X obj 208 162 else/delace 2;
#X listbox 161 189 4 0 0 0 - - - 0;
#X listbox 283 189 4 0 0 0 - - - 0;
#X msg 68 102 list a b c;
#X msg 208 104 1 2 3;
#X connect 3 0 0 0;
#X connect 3 1 5 0;
#X connect 4 0 1 0;
#X connect 4 1 6 0;
#X connect 7 0 3 0;
#X connect 7 0 4 0;
#X connect 8 0 4 0;
#X connect 8 0 3 0;
#X restore 495 206 pd -z;
#X text 33 146 see also:;
#X obj 35 190 else/lace;
#X obj 34 214 else/unmerge;
#X obj 192 191 else/delace 3, f 22;
#X listbox 256 218 7 0 0 0 - - - 0;
#X listbox 321 218 7 0 0 0 - - - 0;
#X msg 192 131 list a b c d e f g h i j k;
#X msg 206 160 1 2 3 4 5 6 7 8 9;
#X text 205 261 lists to be delaced/deinterleaved, f 36;
#X text 208 297 the delaced/deinterleaved lists, f 36;
#X text 171 360 - 'n' number of outlets (default 2 \, min 2 / max 255);
#X text 83 87 [delace] deinterleaves a list according to the number of outlets., f 53;
#X obj 35 167 else/delace~;
#X connect 27 0 20 0;
#X connect 27 1 28 0;
#X connect 27 2 29 0;
#X connect 30 0 27 0;
#X connect 31 0 27 0;
