#N canvas 34 78 565 502 10;
#N canvas 34 78 500 372 (subpatch) 0;
#X coords 0 1 100 -1 302 42 1 0 0;
#X restore 2 3 graph;
#X obj 306 4 cnv 15 250 40 empty empty empty 12 13 0 18 #7c7c7c #e0e4dc 0;
#X obj 345 11 cnv 10 10 10 empty empty ELSE 0 15 2 30 #7c7c7c #e0e4dc 0;
#X obj 458 11 cnv 10 10 10 empty empty EL 0 6 2 13 #7c7c7c #e0e4dc 0;
#X obj 478 11 cnv 10 10 10 empty empty Locus 0 6 2 13 #7c7c7c #e0e4dc 0;
#X obj 515 11 cnv 10 10 10 empty empty Solus' 0 6 2 13 #7c7c7c #e0e4dc 0;
#X obj 464 26 cnv 10 10 10 empty empty ELSE 0 6 2 13 #7c7c7c #e0e4dc 0;
#X obj 502 26 cnv 10 10 10 empty empty library 0 6 2 13 #7c7c7c #e0e4dc 0;
#N canvas 0 22 450 278 (subpatch) 0;
#X coords 0 1 100 -1 252 42 1 0 0;
#X restore 305 3 graph;
#X obj 22 39 cnv 4 4 4 empty empty Receive\ drag-and-drop\ events 0 28 2 18 #e0e0e0 #000000 0;
#X obj 42 119 else/dropzone 80 80;
#X obj 3 4 cnv 15 301 42 empty empty dropzone 20 20 2 37 #e0e0e0 #000000 0;
#X obj -1 266 cnv 3 550 3 empty empty inlets 8 12 0 13 #dcdcdc #000000 0;
#X obj 2 362 cnv 3 550 3 empty empty outlets 8 12 0 13 #dcdcdc #000000 0;
#X obj 2 445 cnv 3 550 3 empty empty flags 8 12 0 13 #dcdcdc #000000 0;
#X obj 2 478 cnv 15 552 21 empty empty empty 20 12 0 14 #e0e0e0 #202020 0;
#X obj 118 274 cnv 17 3 58 empty empty 0 5 9 0 16 #dcdcdc #9c9c9c 0;
#X obj 121 369 cnv 17 3 30 empty empty 0 5 9 0 16 #dcdcdc #9c9c9c 0;
#X text 165 274 dim <f \, f>;
#X text 240 274 - set dimension (horizontal and vertical);
#X text 141 308 height <float>;
#X text 240 308 - set height;
#X text 147 291 width <float>;
#X text 83 453 -dim <f \, f>: set horizontal and vertical dimensions (default 127 \, 127), f 72;
#X text 240 291 - set width, f 12;
#X text 141 325 active <float>;
#X text 139 342 hover <float>;
#X text 240 325 - set accept drag events (default 1);
#X text 243 369 - path of dropped file;
#X text 243 384 - dropped text content;
#X text 243 400 - xy coordinates of drag event;
#X text 243 418 - 1 if currently dragging over object \, 0 otherwise;
#X text 149 368 file <symbol>;
#X text 146 384 text <symbol>;
#X text 173 400 pos <f \, f>;
#X text 158 418 over <float>;
#X text 240 343 - set show hover state when dragging over (default 1);
#X obj 42 159 route file text pos over;
#X obj 46 238 else/display;
#X listbox 102 214 9 0 0 0 - - - 0;
#X floatatom 129 188 5 0 0 0 - - - 12;
#X text 48 82 [dropzone] is a drag-and-drop target. If you drag a file or some text onto it \, it will output the file path or text content., f 69;
#X connect 10 0 37 0;
#X connect 37 0 38 0;
#X connect 37 1 38 0;
#X connect 37 2 39 0;
#X connect 37 3 40 0;
