#N canvas 488 46 559 613 10;
#X obj 306 4 cnv 15 250 40 empty empty empty 12 13 0 18 #7c7c7c #e0e4dc 0;
#N canvas 382 141 749 319 (subpatch) 0;
#X coords 0 -1 1 1 252 42 2 0 0;
#X restore 305 3 pd;
#X obj 345 11 cnv 10 10 10 empty empty ELSE 0 15 2 30 #7c7c7c #e0e4dc 0;
#X obj 25 40 cnv 4 4 4 empty empty Flanger 0 28 2 18 #e0e0e0 #000000 0;
#X obj 458 11 cnv 10 10 10 empty empty EL 0 6 2 13 #7c7c7c #e0e4dc 0;
#X obj 478 11 cnv 10 10 10 empty empty Locus 0 6 2 13 #7c7c7c #e0e4dc 0;
#X obj 515 11 cnv 10 10 10 empty empty Solus' 0 6 2 13 #7c7c7c #e0e4dc 0;
#X obj 464 26 cnv 10 10 10 empty empty ELSE 0 6 2 13 #7c7c7c #e0e4dc 0;
#X obj 502 26 cnv 10 10 10 empty empty library 0 6 2 13 #7c7c7c #e0e4dc 0;
#X obj 3 282 cnv 3 550 3 empty empty inlets 8 12 0 13 #dcdcdc #000000 0;
#X obj 3 423 cnv 3 550 3 empty empty outlets 8 12 0 13 #dcdcdc #000000 0;
#X obj 3 518 cnv 3 550 3 empty empty arguments 8 12 0 13 #dcdcdc #000000 0;
#X obj 132 432 cnv 17 3 17 empty empty 0 5 9 0 16 #dcdcdc #9c9c9c 0;
#X obj 133 290 cnv 17 3 62 empty empty 0 5 9 0 16 #dcdcdc #9c9c9c 0;
#X obj 3 587 cnv 15 552 21 empty empty empty 20 12 0 14 #e0e0e0 #202020 0;
#X obj 133 359 cnv 17 3 17 empty empty 1 5 9 0 16 #dcdcdc #9c9c9c 0;
#X obj 133 379 cnv 17 3 17 empty empty 2 5 9 0 16 #dcdcdc #9c9c9c 0;
#X text 196 432 signal -;
#X text 174 526 1) float;
#X obj 3 3 cnv 15 301 42 empty empty flanger~ 20 20 2 37 #e0e0e0 #000000 0;
#N canvas 0 22 450 278 (subpatch) 0;
#X coords 0 1 100 -1 302 42 1;
#X restore 2 3 graph;
#X obj 198 214 else/out~;
#X text 174 545 2) float;
#X obj 257 149 nbx 5 14 -1e+37 1e+37 0 0 empty empty empty 0 -8 0 10 #dcdcdc #000000 #000000 0 256;
#X obj 316 150 nbx 5 14 -1e+37 1e+37 0 0 empty empty empty 0 -8 0 10 #dcdcdc #000000 #000000 0 256;
#X obj 375 150 nbx 5 14 -1e+37 1e+37 0 0 empty empty empty 0 -8 0 10 #dcdcdc #000000 #000000 0 256;
#X text 196 289 signal -;
#X text 259 289 flanger input, f 33;
#X text 202 359 float -;
#X text 202 380 float -;
#X obj 133 399 cnv 17 3 17 empty empty 3 5 9 0 16 #dcdcdc #9c9c9c 0;
#X text 202 400 float -;
#X text 260 359 rate in Hz;
#X text 257 432 flanger output;
#X text 237 526 - rate in hertz (default 0);
#X text 174 565 3) float;
#X obj 3 456 cnv 3 550 3 empty empty flags 8 12 0 13 #dcdcdc #000000 0;
#X obj 149 121 nbx 5 14 -1e+37 1e+37 0 0 empty empty empty 0 -8 0 10 #dcdcdc #000000 #000000 0 256;
#X text 262 129 rate;
#X text 168 463 -tri - sets waveform to triangular (default sine);
#N canvas 184 348 328 239 see 0;
#X obj 84 126 else/flanger.m~;
#A saved 0.1 0 0 0 0 0 0;
#A saved;
#A saved;
#A saved;
#A saved;
#A saved;
#A saved;
#A saved;
#A saved;
#A saved;
#A saved;
#X obj 89 58 else/chorus~;
#X obj 91 87 else/phaser~;
#X obj 91 30 else/fbdelay2~;
#X restore 32 231 pd see also;
#X text 316 129 feedback;
#X text 382 129 depth;
#X text 237 545 - feedback (default 0);
#X text 237 565 - depth (default 1);
#X obj 149 148 else/bl.saw~ 50;
#X obj 198 183 else/flanger~ -tri 0.1 -0.6 1, f 30;
#X text 154 306 width <float> -;
#X text 259 305 set delay width/amplitude, f 33;
#X text 154 321 delay <float> -;
#X text 259 321 set minimum delay, f 33;
#X text 108 479 -width <float> - set delay width/amplitude (default 10), f 59;
#X text 108 495 -delay <float> - set minimum delay (default 1), f 59;
#X text 60 87 [flanger~] is a Flanger FX abstraction based on [fbdelay2~].;
#N canvas 821 102 467 437 details 0;
#X obj 124 295 else/out~;
#X obj 124 120 nbx 5 14 -1e+37 1e+37 0 0 empty empty empty 0 -8 0 10 #dcdcdc #000000 #000000 0 256;
#X msg 165 203 width \$1;
#X msg 230 225 delay \$1;
#X floatatom 165 178 5 5 15 0 - - - 0;
#X floatatom 230 200 5 0 20 0 - - - 0;
#X text 53 31 The '-width' flag or message sets the delay amplitude range \, controlled by the LFO. The '-delay' flag or message sets the minimum delay value. Hence \, a 'delay' value of '20' and an amplitude of '10' gives us sweeping values between 20 and 30 ms. The biggest delay value allowed in the flanger object is 50 ms.;
#X obj 124 264 else/flanger~ -delay 20 -width 10 0.25;
#X msg 69 219 tri \$1;
#X obj 69 185 tgl 21 0 empty empty empty 0 -8 0 10 #dfdfdf #000000 #000000 0 1;
#X obj 124 147 noise~;
#X floatatom 312 217 5 0 0 0 - - - 0;
#X floatatom 355 232 5 0 0 0 - - - 0;
#X text 63 369 Note that the output can get really loud \, because it adds the input to the delayed signal from [fbdelay2~]. This is especially true if you have higher feedback values. You can use a gain compensation or a soft clipper on the output.;
#X connect 1 0 10 0;
#X connect 2 0 7 0;
#X connect 3 0 7 0;
#X connect 4 0 2 0;
#X connect 5 0 3 0;
#X connect 7 0 0 0;
#X connect 8 0 7 0;
#X connect 9 0 8 0;
#X connect 10 0 7 0;
#X connect 11 0 7 1;
#X connect 12 0 7 2;
#X restore 452 241 pd details;
#X text 260 380 feedback coefficient (-1 to 1);
#X text 260 400 flanger depth (0-1);
#X text 166 336 tri <float> -;
#X text 259 336 non zero sets triangular waveform;
#X connect 23 0 46 1;
#X connect 24 0 46 2;
#X connect 25 0 46 3;
#X connect 37 0 45 0;
#X connect 45 0 46 0;
#X connect 46 0 21 0;
