#N canvas 402 46 565 631 10;
#X obj 4 389 cnv 3 550 3 empty empty inlets 8 12 0 13 #dcdcdc #000000 0;
#X obj 4 485 cnv 3 550 3 empty empty outlets 8 12 0 13 #dcdcdc #000000 0;
#X obj 4 556 cnv 3 550 3 empty empty arguments 8 12 0 13 #dcdcdc #000000 0;
#X obj 6 598 cnv 15 552 21 empty empty empty 20 12 0 14 #e0e0e0 #202020 0;
#X obj 129 494 cnv 17 3 17 empty empty 0 5 9 0 16 #dcdcdc #9c9c9c 0;
#X obj 129 397 cnv 17 3 35 empty empty 0 5 9 0 16 #dcdcdc #9c9c9c 0;
#X obj 129 440 cnv 17 3 17 empty empty 1 5 9 0 16 #dcdcdc #9c9c9c 0;
#X obj 197 314 else/out~;
#X obj 304 270 vsl 18 100 0 1 0 0 ewtwet wefwert empty 0 -9 0 10 #dcdcdc #000000 #000000 0 1;
#X text 327 363 0;
#X text 327 264 1;
#X text 223 415 reset;
#X obj 304 242 else/s2f~;
#X obj 129 462 cnv 17 3 17 empty empty 2 5 9 0 16 #dcdcdc #9c9c9c 0;
#X text 33 239 see also:;
#X obj 23 40 cnv 4 4 4 empty empty Envelope\ follower 0 28 2 18 #e0e0e0 #000000 0;
#X obj 1 3 cnv 15 301 42 empty empty follow~ 20 20 2 37 #e0e0e0 #000000 0;
#X obj 305 4 cnv 15 250 40 empty empty empty 12 13 0 18 #7c7c7c #e0e4dc 0;
#N canvas 382 141 749 319 (subpatch) 0;
#X coords 0 -1 1 1 252 42 2 0 0;
#X restore 304 3 pd;
#X obj 344 11 cnv 10 10 10 empty empty ELSE 0 15 2 30 #7c7c7c #e0e4dc 0;
#X obj 457 11 cnv 10 10 10 empty empty EL 0 6 2 13 #7c7c7c #e0e4dc 0;
#X obj 477 11 cnv 10 10 10 empty empty Locus 0 6 2 13 #7c7c7c #e0e4dc 0;
#X obj 514 11 cnv 10 10 10 empty empty Solus' 0 6 2 13 #7c7c7c #e0e4dc 0;
#X obj 463 26 cnv 10 10 10 empty empty ELSE 0 6 2 13 #7c7c7c #e0e4dc 0;
#X obj 501 26 cnv 10 10 10 empty empty library 0 6 2 13 #7c7c7c #e0e4dc 0;
#N canvas 0 22 450 278 (subpatch) 0;
#X coords 0 1 100 -1 302 42 1;
#X restore 2 3 graph;
#X text 199 494 signal(s);
#X text 163 397 float/signal(s);
#X obj 32 263 else/lag2~;
#X obj 33 310 env~;
#X obj 34 332 sigmund~;
#X text 266 397 - input signal follow envelope;
#X text 266 415 - clears the memory;
#X text 265 439 - attack time in ms;
#X text 224 440 float;
#X text 224 462 float;
#X text 265 461 - release time in ms;
#X text 266 494 - envelope following signal;
#X text 165 562 1) float - attack time in ms (default 0);
#X text 165 577 2) float - release time in ms (default 0);
#X obj 33 284 else/mov.rms~;
#X floatatom 359 189 5 0 0 0 - - - 0;
#X floatatom 415 189 5 0 0 0 - - - 0;
#X obj 197 156 else/play.file~ loop.wav 1 1, f 15;
#X text 363 168 up;
#X text 419 168 down;
#X obj 304 215 else/follow~ 10 150;
#N canvas 640 180 510 456 multichannel 0;
#X obj 206 218 else/s2f~;
#X obj 346 248 setdsp~;
#X obj 206 249 unpack;
#X obj 206 280 vsl 18 120 0 1 0 0 empty empty empty 0 -9 0 10 #dfdfdf #000000 #000000 0 1;
#X obj 239 280 vsl 18 120 0 1 0 0 empty empty empty 0 -9 0 10 #dfdfdf #000000 #000000 0 1;
#X obj 181 120 else/play.file~ stereo.wav 1 1;
#X obj 206 156 snake~ in 2;
#X obj 83 278 else/out.mc~;
#X obj 206 189 else/follow~ 10 100;
#X text 61 43 If [follow~] has a multichannel left input \, it outputs the same number of channels. The values for the float secondary inlets or arguments are applied to all channels., f 65;
#X connect 0 0 2 0;
#X connect 2 0 3 0;
#X connect 2 1 4 0;
#X connect 5 0 6 0;
#X connect 5 1 6 1;
#X connect 6 0 7 0;
#X connect 6 0 8 0;
#X connect 8 0 0 0;
#X restore 424 319 pd multichannel;
#N canvas 374 171 754 447 float-out 0;
#X obj 109 230 else/out~;
#X obj 226 209 vsl 18 100 0 1 0 0 ewtwet wefwert empty 0 -9 0 10 #dcdcdc #000000 #000000 0 1;
#X text 249 302 0;
#X text 249 203 1;
#X floatatom 290 135 5 0 0 0 - - - 0;
#X floatatom 355 135 5 0 0 0 - - - 0;
#X obj 109 102 else/play.file~ loop.wav 1 1, f 15;
#X text 294 114 up;
#X text 359 114 down;
#X obj 226 161 else/follow~ -f 10 150;
#X obj 616 227 setdsp~;
#X obj 476 228 unpack;
#X obj 476 259 vsl 18 120 0 1 0 0 empty empty empty 0 -9 0 10 #dfdfdf #000000 #000000 0 1;
#X obj 509 259 vsl 18 120 0 1 0 0 empty empty empty 0 -9 0 10 #dfdfdf #000000 #000000 0 1;
#X obj 451 99 else/play.file~ stereo.wav 1 1;
#X obj 476 135 snake~ in 2;
#X obj 353 257 else/out.mc~;
#X obj 476 168 else/follow~ -f 10 100;
#X text 237 23 The '-f' flag sets to output floats. A list is given when you have a multichannel connection. The output is at each audio block., f 47;
#X connect 4 0 9 1;
#X connect 5 0 9 2;
#X connect 6 0 0 0;
#X connect 6 0 9 0;
#X connect 9 0 1 0;
#X connect 11 0 12 0;
#X connect 11 1 13 0;
#X connect 14 0 15 0;
#X connect 14 1 15 1;
#X connect 15 0 16 0;
#X connect 15 0 17 0;
#X connect 17 0 11 0;
#X restore 424 342 pd float-out;
#X obj 4 521 cnv 3 550 3 empty empty flag 8 12 0 13 #dcdcdc #000000 0;
#X text 195 531 -f: sets to float output mode;
#X text 54 90 [follow~] is like [lag2~] being fed a signal passing through [abs~]. But Secondary inlets are float only and it can output floats instead. Instead of up/down lag times we now have attack and release times. By default \, the object outputs audio signals \, but you can set a float output with the '-f' flag., f 74;
#X connect 12 0 8 0;
#X connect 41 0 46 1;
#X connect 42 0 46 2;
#X connect 43 0 7 0;
#X connect 43 0 46 0;
#X connect 46 0 12 0;
