#N canvas 470 99 563 499 10;
#X obj 306 4 cnv 15 250 40 empty empty empty 12 13 0 18 #7c7c7c #e0e4dc 0;
#N canvas 382 141 749 319 (subpatch) 0;
#X coords 0 -1 1 1 252 42 2 0 0;
#X restore 305 3 pd;
#X obj 345 11 cnv 10 10 10 empty empty ELSE 0 15 2 30 #7c7c7c #e0e4dc 0;
#X obj 25 40 cnv 4 4 4 empty empty FM\ Formant\ Oscillator 0 28 2 18 #e0e0e0 #000000 0;
#X obj 458 11 cnv 10 10 10 empty empty EL 0 6 2 13 #7c7c7c #e0e4dc 0;
#X obj 478 11 cnv 10 10 10 empty empty Locus 0 6 2 13 #7c7c7c #e0e4dc 0;
#X obj 515 11 cnv 10 10 10 empty empty Solus' 0 6 2 13 #7c7c7c #e0e4dc 0;
#X obj 464 26 cnv 10 10 10 empty empty ELSE 0 6 2 13 #7c7c7c #e0e4dc 0;
#X obj 502 26 cnv 10 10 10 empty empty library 0 6 2 13 #7c7c7c #e0e4dc 0;
#X obj 3 301 cnv 3 550 3 empty empty inlets 8 12 0 13 #dcdcdc #000000 0;
#X obj 3 378 cnv 3 550 3 empty empty outlets 8 12 0 13 #dcdcdc #000000 0;
#X obj 3 411 cnv 3 550 3 empty empty arguments 8 12 0 13 #dcdcdc #000000 0;
#X obj 108 387 cnv 17 3 17 empty empty 0 5 9 0 16 #dcdcdc #9c9c9c 0;
#X obj 3 468 cnv 15 552 21 empty empty empty 20 12 0 14 #e0e0e0 #202020 0;
#X obj 108 332 cnv 17 3 17 empty empty 1 5 9 0 16 #dcdcdc #9c9c9c 0;
#X obj 108 354 cnv 17 3 17 empty empty 2 5 9 0 16 #dcdcdc #9c9c9c 0;
#X text 154 420 1) float;
#X obj 201 172 nbx 5 14 -1e+37 1e+37 0 0 empty empty empty 0 -8 0 10 #dcdcdc #000000 #000000 0 256;
#X obj 3 3 cnv 15 301 42 empty empty formfm~ 20 20 2 37 #e0e0e0 #000000 0;
#N canvas 0 22 450 278 (subpatch) 0;
#X coords 0 1 100 -1 302 42 1;
#X restore 2 3 graph;
#X obj 201 232 else/out~;
#X text 154 434 2) float;
#X text 25 166 see also:;
#X obj 108 309 cnv 17 3 17 empty empty 0 5 9 0 16 #dcdcdc #9c9c9c 0;
#N canvas 646 168 265 356 multichannel 0;
#X obj 57 109 sig~ 50 101;
#X obj 103 147 sig~ 5 7.5;
#X obj 150 174 sig~ 1 0.5;
#X obj 57 200 else/formfm~, f 16;
#X text 67 43 There's support for multichannels., f 18;
#X obj 57 254 else/out.mc~;
#X connect 0 0 3 0;
#X connect 1 0 3 1;
#X connect 2 0 3 2;
#X connect 3 0 5 0;
#X restore 443 242 pd multichannel;
#X text 167 388 signal(s) -;
#X obj 26 207 else/vosim~;
#X obj 26 227 else/formlet~;
#X text 210 420 - fundamental frequency (default 0);
#X text 154 448 3) float;
#X text 167 333 signal(s) -;
#X text 167 355 signal(s) -;
#N canvas 876 216 328 393 example 0;
#X obj 69 265 else/group~ 1 1;
#X obj 69 298 else/out~;
#X obj 69 151 mtof~;
#X obj 69 83 sig~ 60;
#X obj 69 116 +~;
#X obj 118 113 osc~ 4;
#X obj 113 172 sig~ 500 750 1350;
#X obj 138 211 sig~ 1 2 3;
#X obj 69 238 else/formfm~;
#X obj 103 216 /~;
#X obj 118 134 *~ 0.2;
#X text 72 23 An example with a vibrato to better emulate a vocal sound., f 29;
#X connect 0 0 1 0;
#X connect 2 0 8 0;
#X connect 2 0 9 1;
#X connect 3 0 4 0;
#X connect 4 0 2 0;
#X connect 5 0 10 0;
#X connect 6 0 9 0;
#X connect 7 0 8 2;
#X connect 8 0 0 0;
#X connect 9 0 8 1;
#X connect 10 0 4 1;
#X restore 443 264 pd example;
#X obj 26 188 else/formant~;
#X obj 201 200 else/formfm~ 50 7.5 1;
#X text 261 171 fundamental;
#X text 239 333 center/formant frequency ratio, f 43;
#X text 239 355 bandwidth (index), f 43;
#X text 210 448 - bandwidth or fm index (default 0);
#X text 210 434 - formant frequency ratio (default 1);
#X text 58 87 [formfm~] is a FM formant oscillator (actually phase modulation) where you specify the fundamental (f0) frequency \, the center (or formant) frequency as a ratio and the bandwidth (as the modulation index). This is an abstraction based on Pd's F10 example (sweepable FM). The object has support for multichannels., f 70;
#X text 242 388 formant fm oscillator signal(s);
#X text 167 309 signal(s) - fundamental frequency (f0) in hz, f 53;
#N canvas 646 168 435 417 sweeping 0;
#X obj 100 163 else/knob 50 1 10 0 1 empty empty #dfdfdf #7c7c7c #000000 1 0 0 0 1 320 0 0 1 empty empty 0 12 0 -15 0 1 0 0 1 0;
#X obj 54 270 else/formfm~ 150;
#X obj 100 228 else/f2s~ 25;
#X obj 208 272 else/formfm~;
#X obj 208 167 sig~ 150;
#X obj 273 179 else/f2s~ 25;
#X obj 242 219 /~;
#X obj 273 94 else/knob 50 150 1500 0 150 empty empty #dfdfdf #7c7c7c #000000 1 0 0 0 1 320 0 0 150 empty empty 0 12 0 -15 0 1 0 0 1 0;
#X floatatom 273 154 8 0 0 0 - - - 0;
#X text 40 12 The center frequency ratio controls a frequency sweep that is more noticeable with a bandwidth/index value of 0! The ratio input represents the harmonic \, where the fractional part controls cross fading between the harmonics. You can set a center frequency in hertz if you divide it by the fundamental input.;
#X obj 309 208 else/knob 50 0 5 0 1 empty empty #dfdfdf #7c7c7c #000000 1 0 0 0 1 320 0 0 1 empty empty 0 12 0 -15 0 1 0 0 1 0;
#X obj 309 283 else/f2s~ 10;
#X floatatom 309 263 5 0 0 0 - - - 0;
#X obj 54 304 else/out~;
#X obj 208 326 else/out~;
#X connect 0 0 2 0;
#X connect 1 0 13 0;
#X connect 2 0 1 1;
#X connect 3 0 14 0;
#X connect 4 0 6 1;
#X connect 4 0 3 0;
#X connect 5 0 6 0;
#X connect 6 0 3 1;
#X connect 7 0 8 0;
#X connect 8 0 5 0;
#X connect 10 0 12 0;
#X connect 11 0 3 2;
#X connect 12 0 11 0;
#X restore 443 219 pd sweeping;
#X obj 26 247 else/paf~;
#X obj 26 267 else/packet~;
#X connect 17 0 34 0;
#X connect 34 0 20 0;
