#N canvas 471 61 564 457 10;
#X obj 6 303 cnv 3 550 3 empty empty inlets 8 12 0 13 #dcdcdc #000000 0;
#X obj 6 361 cnv 3 550 3 empty empty outlets 8 12 0 13 #dcdcdc #000000 0;
#X obj 6 393 cnv 3 550 3 empty empty arguments 8 12 0 13 #dcdcdc #000000 0;
#X obj 118 369 cnv 17 3 17 empty empty 0 5 9 0 16 #dcdcdc #9c9c9c 0;
#X obj 6 429 cnv 15 552 21 empty empty empty 20 12 0 14 #e0e0e0 #202020 0;
#X obj 118 311 cnv 17 3 17 empty empty 0 5 9 0 16 #dcdcdc #9c9c9c 0;
#X obj 118 337 cnv 17 3 17 empty empty 1 5 9 0 16 #dcdcdc #9c9c9c 0;
#X obj 25 40 cnv 4 4 4 empty empty Release\ gate\ values 0 28 2 18 #e0e0e0 #000000 0;
#X obj 5 3 cnv 15 301 42 empty empty gaterelease~ 20 20 2 37 #e0e0e0 #000000 0;
#N canvas 0 22 450 278 (subpatch) 0;
#X coords 0 1 100 -1 302 42 1 0 0;
#X restore 4 3 graph;
#X obj 307 4 cnv 15 250 40 empty empty empty 12 13 0 18 #7c7c7c #e0e4dc 0;
#N canvas 382 141 749 319 (subpatch) 0;
#X coords 0 -1 1 1 252 42 2 100 100;
#X restore 306 3 pd;
#X obj 347 11 cnv 10 10 10 empty empty ELSE 0 15 2 30 #7c7c7c #e0e4dc 0;
#X obj 460 11 cnv 10 10 10 empty empty EL 0 6 2 13 #7c7c7c #e0e4dc 0;
#X obj 480 11 cnv 10 10 10 empty empty Locus 0 6 2 13 #7c7c7c #e0e4dc 0;
#X obj 517 11 cnv 10 10 10 empty empty Solus' 0 6 2 13 #7c7c7c #e0e4dc 0;
#X obj 466 26 cnv 10 10 10 empty empty ELSE 0 6 2 13 #7c7c7c #e0e4dc 0;
#X obj 504 26 cnv 10 10 10 empty empty library 0 6 2 13 #7c7c7c #e0e4dc 0;
#X text 224 338 - hold time in ms;
#X obj 310 221 nbx 5 14 -1e+37 1e+37 0 0 empty empty empty 0 -8 0 10 #dcdcdc #000000 #000000 0 256;
#X text 184 338 float;
#X text 42 180 see also;
#X text 139 402 1) float - release time in ms (default 0 \, no release time);
#X text 306 200 release time;
#X obj 187 245 else/gaterelease~ 250;
#X obj 187 180 else/randpulse~ 0.5;
#X obj 187 216 else/numbox~ 6 10 100 #C0C0C4 #440008 10 0 0 0;
#X obj 187 275 else/numbox~ 6 10 100 #C0C0C4 #440008 10 0 0 0;
#X obj 44 201 else/gaterelease;
#X obj 44 244 else/gatehold~;
#N canvas 781 160 456 392 multichannel 0;
#X obj 245 224 nbx 5 14 -1e+37 1e+37 0 0 empty empty empty 0 -8 0 10 #dcdcdc #000000 #000000 0 256;
#X text 241 203 release time;
#X obj 122 289 else/s2f~;
#X listbox 122 320 20 0 0 0 - - - 12;
#X obj 136 139 else/s2f~;
#X listbox 136 170 20 0 0 0 - - - 12;
#X obj 122 248 else/gaterelease~ 500;
#X obj 123 105 else/randpulse~ -ch 2 0.5;
#X text 102 53 An example with multichannel input;
#X connect 0 0 6 1;
#X connect 2 0 3 0;
#X connect 4 0 5 0;
#X connect 6 0 2 0;
#X connect 7 0 4 0;
#X connect 7 0 6 0;
#X restore 432 257 pd multichannel;
#X text 56 86 [gaterelease~] allows you to release one gate in your patch while you still hold another. [gaterelease~] releases a gate value after a given amount of time (specified in ms) after the gate has opened. If the gate is closed before the release time \, the object is reset. If the release time is 0 or less \, the object is bypassed. The object has support for multichannels, f 68;
#X text 160 311 signal(s);
#X text 160 370 signal(s);
#X text 224 370 - released gate(s);
#X text 224 311 - gate value(s);
#X obj 44 266 else/gatedelay~;
#X obj 493 108 else/setdsp~;
#X obj 44 222 else/gatemin~;
#X connect 19 0 24 1;
#X connect 24 0 27 0;
#X connect 25 0 26 0;
#X connect 26 0 24 0;
