#N canvas 471 61 567 440 10;
#X obj 6 283 cnv 3 550 3 empty empty inlets 8 12 0 13 #dcdcdc #000000 0;
#X obj 6 341 cnv 3 550 3 empty empty outlets 8 12 0 13 #dcdcdc #000000 0;
#X obj 6 373 cnv 3 550 3 empty empty arguments 8 12 0 13 #dcdcdc #000000 0;
#X obj 118 349 cnv 17 3 17 empty empty 0 5 9 0 16 #dcdcdc #9c9c9c 0;
#X obj 6 409 cnv 15 552 21 empty empty empty 20 12 0 14 #e0e0e0 #202020 0;
#X obj 118 291 cnv 17 3 17 empty empty 0 5 9 0 16 #dcdcdc #9c9c9c 0;
#X obj 118 317 cnv 17 3 17 empty empty 1 5 9 0 16 #dcdcdc #9c9c9c 0;
#X obj 25 40 cnv 4 4 4 empty empty Release\ gate\ values 0 28 2 18 #e0e0e0 #000000 0;
#X obj 5 3 cnv 15 301 42 empty empty gaterelease 20 20 2 37 #e0e0e0 #000000 0;
#N canvas 0 22 450 278 (subpatch) 0;
#X coords 0 1 100 -1 302 42 1 0 0;
#X restore 4 3 graph;
#X obj 307 4 cnv 15 250 40 empty empty empty 12 13 0 18 #7c7c7c #e0e4dc 0;
#N canvas 382 141 749 319 (subpatch) 0;
#X coords 0 -1 1 1 252 42 2 100 100;
#X restore 306 3 pd;
#X obj 347 11 cnv 10 10 10 empty empty ELSE 0 15 2 30 #7c7c7c #e0e4dc 0;
#X obj 460 11 cnv 10 10 10 empty empty EL 0 6 2 13 #7c7c7c #e0e4dc 0;
#X obj 480 11 cnv 10 10 10 empty empty Locus 0 6 2 13 #7c7c7c #e0e4dc 0;
#X obj 517 11 cnv 10 10 10 empty empty Solus' 0 6 2 13 #7c7c7c #e0e4dc 0;
#X obj 466 26 cnv 10 10 10 empty empty ELSE 0 6 2 13 #7c7c7c #e0e4dc 0;
#X obj 504 26 cnv 10 10 10 empty empty library 0 6 2 13 #7c7c7c #e0e4dc 0;
#X text 224 318 - hold time in ms;
#X obj 332 200 nbx 5 14 -1e+37 1e+37 0 0 empty empty empty 0 -8 0 10 #dcdcdc #000000 #000000 0 256;
#X text 184 318 float;
#X text 184 291 float;
#X text 224 291 - gate value;
#X text 184 350 float;
#X floatatom 215 195 12 0 0 0 - - - 0;
#X obj 215 254 else/display;
#X text 42 179 see also;
#X obj 215 163 else/randpulse 0.5;
#X text 139 382 1) float - release time in ms (default 0 \, no release time);
#X text 389 200 release time;
#X obj 215 224 else/gaterelease 250;
#X text 66 86 [gaterelease] allows you to release one gate in your patch while you still hold another. [gaterelease] releases a gate value after a given amount of time (specified in ms) after the gate has opened. If the gate is closed before the release time \, the object is reset. If the release time is 0 or less \, the object is bypassed., f 75;
#X obj 44 224 else/gatehold;
#X obj 44 200 else/gaterelease~;
#X text 224 350 - released gate;
#X obj 44 248 else/gatedelay;
#X connect 19 0 30 1;
#X connect 24 0 30 0;
#X connect 27 0 24 0;
#X connect 30 0 25 0;
