#N canvas 471 61 567 440 10;
#X obj 6 283 cnv 3 550 3 empty empty inlets 8 12 0 13 #dcdcdc #000000 0;
#X obj 6 341 cnv 3 550 3 empty empty outlets 8 12 0 13 #dcdcdc #000000 0;
#X obj 6 373 cnv 3 550 3 empty empty arguments 8 12 0 13 #dcdcdc #000000 0;
#X obj 118 349 cnv 17 3 17 empty empty 0 5 9 0 16 #dcdcdc #9c9c9c 0;
#X obj 6 409 cnv 15 552 21 empty empty empty 20 12 0 14 #e0e0e0 #202020 0;
#X obj 118 291 cnv 17 3 17 empty empty 0 5 9 0 16 #dcdcdc #9c9c9c 0;
#X obj 118 317 cnv 17 3 17 empty empty 1 5 9 0 16 #dcdcdc #9c9c9c 0;
#X obj 25 40 cnv 4 4 4 empty empty Release\ gate\ values 0 28 2 18 #e0e0e0 #000000 0;
#X obj 5 3 cnv 15 301 42 empty empty gatemin 20 20 2 37 #e0e0e0 #000000 0;
#N canvas 0 22 450 278 (subpatch) 0;
#X coords 0 1 100 -1 302 42 1 0 0;
#X restore 4 3 graph;
#X obj 307 4 cnv 15 250 40 empty empty empty 12 13 0 18 #7c7c7c #e0e4dc 0;
#N canvas 382 141 749 319 (subpatch) 0;
#X coords 0 -1 1 1 252 42 2 100 100;
#X restore 306 3 pd;
#X obj 347 11 cnv 10 10 10 empty empty ELSE 0 15 2 30 #7c7c7c #e0e4dc 0;
#X obj 460 11 cnv 10 10 10 empty empty EL 0 6 2 13 #7c7c7c #e0e4dc 0;
#X obj 480 11 cnv 10 10 10 empty empty Locus 0 6 2 13 #7c7c7c #e0e4dc 0;
#X obj 517 11 cnv 10 10 10 empty empty Solus' 0 6 2 13 #7c7c7c #e0e4dc 0;
#X obj 466 26 cnv 10 10 10 empty empty ELSE 0 6 2 13 #7c7c7c #e0e4dc 0;
#X obj 504 26 cnv 10 10 10 empty empty library 0 6 2 13 #7c7c7c #e0e4dc 0;
#X obj 332 200 nbx 5 14 -1e+37 1e+37 0 0 empty empty empty 0 -8 0 10 #dcdcdc #000000 #000000 0 256;
#X text 184 318 float;
#X text 184 291 float;
#X text 224 291 - gate value;
#X text 184 350 float;
#X floatatom 215 195 12 0 0 0 - - - 0;
#X text 43 162 see also;
#X text 389 200 release time;
#X obj 45 227 else/gatehold;
#X obj 45 249 else/gatedelay;
#X floatatom 215 255 12 0 0 0 - - - 0;
#X obj 215 163 else/randpulse 0.75;
#X text 66 86 [gatemin] allows you to set a minimum gate time value \, so if the gate is released before that \, it waits for that minimum gate time. If you release after the minimum gate time \, then the gate is immediately released. If the gate is reopened before the minimum time \, the object is reset and the new gate value takes over., f 75;
#X text 224 318 - minimum time in ms;
#X text 224 350 - the gate with a minimum time;
#X text 139 382 1) float - minimum time in ms (default 0);
#X obj 215 224 else/gatemin 1000, f 20;
#X obj 45 183 else/gatemin~;
#X obj 45 205 else/gaterelease;
#X connect 18 0 34 1;
#X connect 23 0 34 0;
#X connect 29 0 23 0;
#X connect 34 0 28 0;
