#N canvas 471 61 567 440 10;
#X obj 6 283 cnv 3 550 3 empty empty inlets 8 12 0 13 #dcdcdc #000000 0;
#X obj 6 341 cnv 3 550 3 empty empty outlets 8 12 0 13 #dcdcdc #000000 0;
#X obj 6 373 cnv 3 550 3 empty empty arguments 8 12 0 13 #dcdcdc #000000 0;
#X obj 118 349 cnv 17 3 17 empty empty 0 5 9 0 16 #dcdcdc #9c9c9c 0;
#X obj 6 409 cnv 15 552 21 empty empty empty 20 12 0 14 #e0e0e0 #202020 0;
#X obj 118 291 cnv 17 3 17 empty empty 0 5 9 0 16 #dcdcdc #9c9c9c 0;
#X obj 118 317 cnv 17 3 17 empty empty 1 5 9 0 16 #dcdcdc #9c9c9c 0;
#X obj 25 40 cnv 4 4 4 empty empty Hold 0 28 2 18 #e0e0e0 #000000 0;
#X obj 70 40 cnv 4 4 4 empty empty gate 0 28 2 18 #e0e0e0 #000000 0;
#X obj 107 40 cnv 4 4 4 empty empty values 0 28 2 18 #e0e0e0 #000000 0;
#X obj 5 3 cnv 15 301 42 empty empty gatehold 20 20 2 37 #e0e0e0 #000000 0;
#N canvas 0 22 450 278 (subpatch) 0;
#X coords 0 1 100 -1 302 42 1 0 0;
#X restore 4 3 graph;
#X obj 307 4 cnv 15 250 40 empty empty empty 12 13 0 18 #7c7c7c #e0e4dc 0;
#N canvas 382 141 749 319 (subpatch) 0;
#X coords 0 -1 1 1 252 42 2 100 100;
#X restore 306 3 pd;
#X obj 347 11 cnv 10 10 10 empty empty ELSE 0 15 2 30 #7c7c7c #e0e4dc 0;
#X obj 460 11 cnv 10 10 10 empty empty EL 0 6 2 13 #7c7c7c #e0e4dc 0;
#X obj 480 11 cnv 10 10 10 empty empty Locus 0 6 2 13 #7c7c7c #e0e4dc 0;
#X obj 517 11 cnv 10 10 10 empty empty Solus' 0 6 2 13 #7c7c7c #e0e4dc 0;
#X obj 466 26 cnv 10 10 10 empty empty ELSE 0 6 2 13 #7c7c7c #e0e4dc 0;
#X obj 504 26 cnv 10 10 10 empty empty library 0 6 2 13 #7c7c7c #e0e4dc 0;
#N canvas 639 96 517 475 example 0;
#X obj 115 153 else/sine~ 50;
#X obj 71 298 else/sine~ 200;
#X obj 152 266 *~;
#X obj 268 354 *~;
#X obj 167 221 else/adsr~ 400 200 0.5 1000, f 14;
#X obj 283 245 else/adsr~ 100 100 0.5 750;
#X text 77 56 In this example we have a gate controlling two independent envelopes (one that controls the phase modulation index and another that controls the amplitude). The envelope that controls the amplitude has its sustain period enlarged by 500 ms because of the [gatehold~] object.;
#X obj 268 395 else/out~;
#X text 76 21 [gatehold] allows one gate to have a different duration to control a separate parameter., f 59;
#X obj 283 188 else/gatehold 500;
#X obj 283 153 else/pulse 0.2 0.25;
#X msg 167 199 gate \$1;
#X msg 283 217 gate \$1;
#X connect 0 0 2 0;
#X connect 1 0 3 0;
#X connect 2 0 1 2;
#X connect 3 0 7 0;
#X connect 4 0 2 1;
#X connect 5 0 3 1;
#X connect 9 0 12 0;
#X connect 10 0 11 0;
#X connect 10 0 9 0;
#X connect 11 0 4 0;
#X connect 12 0 5 0;
#X restore 476 243 pd example;
#X text 224 318 - hold time in ms;
#X text 224 350 - held gate;
#X text 139 382 1) float - hold time in ms (default 0 \, no hold);
#X obj 304 187 nbx 5 14 -1e+37 1e+37 0 0 empty empty empty 0 -8 0 10 #dcdcdc #000000 #000000 0 256;
#X text 184 318 float;
#X text 361 187 hold time;
#X text 70 88 [gatehold] holds a gate value for a certain amount of time (specified in ms) after the gate has closed. If a new gate starts before the hold time is finished \, the object is retriggered., f 70;
#X text 184 291 float;
#X text 224 291 - gate value;
#X text 184 350 float;
#X obj 205 150 else/randpulse 0.5 0.25;
#X floatatom 205 182 12 0 0 0 - - - 0;
#X obj 205 211 else/gatehold 500;
#X obj 205 241 else/display;
#X text 42 179 see also;
#X obj 44 204 else/gatehold~;
#X obj 44 229 else/gaterelease;
#X obj 44 252 else/gatedelay;
#X connect 24 0 33 1;
#X connect 31 0 32 0;
#X connect 32 0 33 0;
#X connect 33 0 34 0;
