#N canvas 539 66 564 615 10;
#X obj 213 202 hsl 128 15 44.1 44100 1 0 empty empty empty -2 -8 0 10 #dcdcdc #000000 #000000 0 1;
#X obj 23 40 cnv 4 4 4 empty empty Gingerbread 0 28 2 18 #e0e0e0 #000000 0;
#X obj 123 40 cnv 4 4 4 empty empty man 0 28 2 18 #e0e0e0 #000000 0;
#X obj 163 40 cnv 4 4 4 empty empty chaotic 0 28 2 18 #e0e0e0 #000000 0;
#X obj 3 578 cnv 15 552 21 empty empty empty 20 12 0 14 #e0e0e0 #202020 0;
#X obj 3 364 cnv 3 550 3 empty empty inlets 8 12 0 13 #dcdcdc #000000 0;
#X obj 3 435 cnv 3 550 3 empty empty outlets 8 12 0 13 #dcdcdc #000000 0;
#X obj 3 512 cnv 3 550 3 empty empty arguments 8 12 0 13 #dcdcdc #000000 0;
#X obj 75 445 cnv 17 3 17 empty empty 0 5 9 0 16 #dcdcdc #9c9c9c 0;
#X obj 75 374 cnv 17 3 50 empty empty 0 5 9 0 16 #dcdcdc #9c9c9c 0;
#X text 145 519 1) float;
#X obj 210 226 nbx 5 14 -1e+37 1e+37 0 0 empty empty empty 0 -8 0 10 #dcdcdc #000000 #000000 0 256;
#X obj 2 3 cnv 15 301 42 empty empty gbman~ 20 20 2 37 #e0e0e0 #000000 0;
#N canvas 0 22 450 278 (subpatch) 0;
#X coords 0 1 100 -1 302 42 1 0 0;
#X restore 2 3 graph;
#X obj 224 40 cnv 4 4 4 empty empty generator 0 28 2 18 #e0e0e0 #000000 0;
#X text 141 224 rate in Hz;
#X text 145 537 2) float;
#X text 145 555 3) float;
#X obj 210 298 else/out~;
#X text 378 247 (default);
#X text 379 226 initial feedback values;
#X text 205 555 - initial feedback value of y[n-2] (default 2.1);
#X text 205 537 - sets initial feedback value of y[n-1] (default 1.2);
#X text 205 519 - sets frequency in hertz (default nyquist frequency);
#X obj 305 4 cnv 15 250 40 empty empty empty 12 13 0 18 #7c7c7c #e0e4dc 0;
#N canvas 382 141 749 319 (subpatch) 0;
#X coords 0 -1 1 1 252 42 2 0 0;
#X restore 304 3 pd;
#X obj 344 11 cnv 10 10 10 empty empty ELSE 0 15 2 30 #7c7c7c #e0e4dc 0;
#X obj 457 11 cnv 10 10 10 empty empty EL 0 6 2 13 #7c7c7c #e0e4dc 0;
#X obj 477 11 cnv 10 10 10 empty empty Locus 0 6 2 13 #7c7c7c #e0e4dc 0;
#X obj 514 11 cnv 10 10 10 empty empty Solus' 0 6 2 13 #7c7c7c #e0e4dc 0;
#X obj 463 26 cnv 10 10 10 empty empty ELSE 0 6 2 13 #7c7c7c #e0e4dc 0;
#X obj 501 26 cnv 10 10 10 empty empty library 0 6 2 13 #7c7c7c #e0e4dc 0;
#X text 60 87 [gbman~] is a gingerbread man map chaotic generator \, the output is from the difference equation => y[n] = 1 + abs(y[n-1]) - y[n-2] \, but the output is filtered to remove DC offset and rescaled for a proper audio range. This object was first based on SuperCollider's "GbmanN" UGEN. The given reference is: Devaney \, R. L. "The Gingerbreadman." Algorithm 3 \, 15-16 \, Jan. 1992, f 76;
#X text 60 149 The output rate of the equation is given in hertz \, and the initial value is the nyquist frequency. By default \, the initial feedback values of y[n-1] and y[n-2] are 1.2 and 2.1 \, respectively \, but can be changed via arguments or as a list input., f 76;
#N canvas 706 214 550 398 multichannel 0;
#X obj 70 248 else/out.mc~;
#X obj 230 288 else/out~;
#X floatatom 230 106 5 0 0 0 - - - 12;
#X msg 243 137 400 600;
#X msg 256 167 400 600 700;
#X obj 70 158 sig~ 333 444;
#X msg 273 210 set 1 555;
#X text 343 203 the set message sets a single frequency channel, f 24;
#X text 33 14 If there's a multichannel input \, the object outputs the same number of channels. You can initialize the object with multichannel if you give it a list of frequencies with the -mc flag (you can't set phases though). A list input also works if no signal is connected to set it to multichannel with a list of frequency input., f 76;
#X obj 70 197 else/gbman~;
#X obj 230 257 else/gbman~ -mc 440 660;
#X connect 2 0 10 0;
#X connect 3 0 10 0;
#X connect 4 0 10 0;
#X connect 5 0 9 0;
#X connect 6 0 10 0;
#X connect 9 0 0 0;
#X connect 10 0 1 0;
#X restore 427 317 pd multichannel;
#X text 125 390 coeffs <list>;
#X text 214 391 - floats set y[n-1] and y[n-2] \, respectively, f 55;
#X text 119 374 list/signal(s);
#X text 140 446 signal(s);
#X text 205 447 - gingerbread man map chaotic signal(s);
#X text 103 484 -mc <list>: sets multichannel output with a list of frequencies, f 63;
#X obj 13 475 cnv 3 550 3 empty empty flags 8 12 0 13 #dcdcdc #000000 0;
#X text 214 374 - frequency in hertz (negative values accepted) or MIDI;
#X text 99 407 set <float \, float> -;
#X text 226 407 <channel \, freq> set a single frequency channel, f 53;
#X msg 280 226 coeffs 0.3 -0.2;
#X obj 210 273 else/gbman~;
#X msg 287 247 coeffs 1.2 2.1;
#X connect 0 0 11 0;
#X connect 11 0 46 0;
#X connect 45 0 46 0;
#X connect 46 0 18 0;
#X connect 47 0 46 0;
