#N canvas 428 51 563 456 10;
#X obj 4 287 cnv 3 550 3 empty empty inlets 8 12 0 13 #dcdcdc #000000 0;
#X obj 4 360 cnv 3 550 3 empty empty outlets 8 12 0 13 #dcdcdc #000000 0;
#X obj 4 395 cnv 3 550 3 empty empty arguments 8 12 0 13 #dcdcdc #000000 0;
#X obj 158 369 cnv 17 3 17 empty empty 0 5 9 0 16 #dcdcdc #9c9c9c 0;
#X obj 159 296 cnv 17 3 32 empty empty 0 5 9 0 16 #dcdcdc #9c9c9c 0;
#X obj 4 426 cnv 15 552 21 empty empty empty 20 12 0 14 #e0e0e0 #202020 0;
#X obj 306 4 cnv 15 250 40 empty empty empty 12 13 0 18 #7c7c7c #e0e4dc 0;
#N canvas 382 141 749 319 (subpatch) 0;
#X coords 0 -1 1 1 252 42 2 100 100;
#X restore 305 3 pd;
#X obj 345 11 cnv 10 10 10 empty empty ELSE 0 15 2 30 #7c7c7c #e0e4dc 0;
#X obj 23 40 cnv 4 4 4 empty empty 1st\ order\ (1-pole/1-zero)\ highpass\ filter 0 28 2 18 #e0e0e0 #000000 0;
#X obj 458 11 cnv 10 10 10 empty empty EL 0 6 2 13 #7c7c7c #e0e4dc 0;
#X obj 478 11 cnv 10 10 10 empty empty Locus 0 6 2 13 #7c7c7c #e0e4dc 0;
#X obj 515 11 cnv 10 10 10 empty empty Solus' 0 6 2 13 #7c7c7c #e0e4dc 0;
#X obj 464 26 cnv 10 10 10 empty empty ELSE 0 6 2 13 #7c7c7c #e0e4dc 0;
#X obj 502 26 cnv 10 10 10 empty empty library 0 6 2 13 #7c7c7c #e0e4dc 0;
#X obj 285 169 nbx 7 14 -1e+37 1e+37 0 0 empty empty empty 0 -8 0 10 #dcdcdc #000000 #000000 0 256;
#X obj 3 3 cnv 15 301 42 empty empty hip2~ 20 20 2 37 #e0e0e0 #000000 0;
#N canvas 0 22 450 278 (subpatch) 0;
#X coords 0 1 100 -1 302 42 1 0 0;
#X restore 3 3 graph;
#X obj 204 159 noise~;
#X obj 204 220 else/out~;
#X obj 288 147 hsl 128 15 20 20000 1 0 empty empty empty -2 -8 0 10 #dfdfdf #000000 #000000 0 1;
#X text 362 169 cutoff;
#X obj 159 332 cnv 17 3 17 empty empty 1 5 9 0 16 #dcdcdc #9c9c9c 0;
#X text 263 296 - signal to be filtered;
#X text 263 333 - cutoff frequency;
#X text 163 404 1) float - cutoff frequency (default 0);
#X text 219 370 signal;
#X text 263 370 - filtered signal;
#X text 27 180 see also:;
#N canvas 331 137 924 510 formula/response 0;
#X obj 497 33 hsl 128 15 20 22050 1 0 empty \$0-Hz-set empty -2 -8 0 10 #dcdcdc #000000 #000000 0 1;
#X obj 413 41 noise~;
#X obj 413 130 else/out~;
#X obj 494 60 nbx 7 14 20 20000 0 0 \$0-Hz empty empty 0 -8 0 10 #dcdcdc #000000 #000000 0 256;
#X text 514 33 center frequency;
#N canvas 169 38 450 333 coeff 0;
#X obj 71 248 outlet;
#X obj 72 40 r \$0-Hz;
#X text 182 220 (a1) a2 (b1) b2 b3;
#X obj 71 218 pack f 0 f f 0, f 17;
#X obj 71 95 cos;
#X obj 71 120 expr ($f1 - 1 + sqrt(1 - $f1*$f1)) / $f1;
#X obj 146 189 * -1;
#X obj 71 70 else/hz2rad;
#X obj 71 145 expr 1 - $f1 \; 1 - 0.5 * $f1;
#X connect 1 0 7 0;
#X connect 3 0 0 0;
#X connect 4 0 5 0;
#X connect 5 0 8 0;
#X connect 6 0 3 3;
#X connect 7 0 4 0;
#X connect 8 0 3 0;
#X connect 8 1 3 2;
#X connect 8 1 6 0;
#X restore 13 173 pd coeff;
#X obj 13 200 else/biplot;
#X obj 413 94 else/hip2~ 100;
#X text 121 72 This filter has a better overall frequency response resolution than [hip~] for higher frequencies., f 43;
#X connect 0 0 3 0;
#X connect 1 0 7 0;
#X connect 3 0 7 1;
#X connect 5 0 6 0;
#X connect 7 0 2 0;
#X restore 409 227 pd formula/response;
#X obj 29 224 else/lop2~;
#N canvas 628 213 399 315 multichannel 0;
#X obj 123 121 else/white~ -ch 2;
#X obj 123 239 else/out.mc~;
#X text 51 29 The filter outputs the same number of channels as the left input. If the right input has more than one channel \, the number channels must match. A single value gets repeated to meet the number of multichannels., f 49;
#X obj 123 188 else/hip2~;
#X obj 180 154 sig~ 1500 5000;
#X connect 0 0 3 0;
#X connect 3 0 1 0;
#X connect 4 0 3 1;
#X restore 432 248 pd multichannel;
#X text 199 333 signal(s);
#X text 199 296 signal(s);
#X obj 204 195 else/hip2~ 500;
#X obj 30 202 hip~;
#X obj 29 247 else/highpass~;
#X text 77 91 [hip2~] is kinda just like [hip~] and 1st order highpass filter (1-pole \, 1-zero). It has a different and more accurate frequency response and support for multichannels., f 64;
#X msg 154 160 clear;
#X text 223 312 clear;
#X text 263 312 - clear the filter state;
#X connect 15 0 34 1;
#X connect 18 0 34 0;
#X connect 20 0 15 0;
#X connect 34 0 19 0;
#X connect 38 0 34 0;
