#N canvas 476 70 559 402 10;
#X obj 305 5 cnv 15 250 40 empty empty empty 12 13 0 18 #7c7c7c #e0e4dc 0;
#N canvas 382 141 749 319 (subpatch) 0;
#X coords 0 -1 1 1 252 42 2 100 100;
#X restore 304 4 pd;
#X obj 344 12 cnv 10 10 10 empty empty ELSE 0 15 2 30 #7c7c7c #e0e4dc 0;
#X obj 22 51 cnv 4 4 4 empty empty Convert\ hertz\ to\ bpm 0 28 2 18 #e0e0e0 #000000 0;
#X obj 457 12 cnv 10 10 10 empty empty EL 0 6 2 13 #7c7c7c #e0e4dc 0;
#X obj 477 12 cnv 10 10 10 empty empty Locus 0 6 2 13 #7c7c7c #e0e4dc 0;
#X obj 514 12 cnv 10 10 10 empty empty Solus' 0 6 2 13 #7c7c7c #e0e4dc 0;
#X obj 463 27 cnv 10 10 10 empty empty ELSE 0 6 2 13 #7c7c7c #e0e4dc 0;
#X obj 501 27 cnv 10 10 10 empty empty library 0 6 2 13 #7c7c7c #e0e4dc 0;
#X obj 2 4 cnv 15 301 42 empty empty hz2bpm 20 20 2 37 #e0e0e0 #000000 0;
#N canvas 0 22 450 278 (subpatch) 0;
#X coords 0 1 100 -1 302 42 1 0 0;
#X restore 2 4 graph;
#X obj 3 239 cnv 3 550 3 empty empty inlets 8 12 0 13 #dcdcdc #000000 0;
#X obj 3 303 cnv 3 550 3 empty empty outlets 8 12 0 13 #dcdcdc #000000 0;
#X obj 146 312 cnv 17 3 17 empty empty 0 5 9 0 16 #dcdcdc #9c9c9c 0;
#X obj 147 248 cnv 17 3 17 empty empty 0 5 9 0 16 #dcdcdc #9c9c9c 0;
#X obj 3 366 cnv 15 552 21 empty empty empty 20 12 0 14 #e0e0e0 #202020 0;
#X obj 163 152 nbx 5 14 -1e+37 1e+37 0 0 empty empty empty 0 -8 0 10 #dcdcdc #000000 #000000 0 256;
#X obj 163 209 nbx 5 14 -1e+37 1e+37 0 0 empty empty empty 0 -8 0 10 #dcdcdc #000000 #000000 0 256;
#X obj 3 338 cnv 3 550 3 empty empty arg 8 12 0 13 #dcdcdc #000000 0;
#X text 220 249 list;
#X text 220 312 list;
#X text 86 345 float/symbol - beat length (as decimal or fraction) - default '1/4', f 67;
#X obj 147 271 cnv 17 3 17 empty empty 1 5 9 0 16 #dcdcdc #9c9c9c 0;
#X text 172 272 float/symbol;
#X text 253 272 - beat length.;
#X obj 286 152 nbx 5 14 -1e+37 1e+37 0 0 empty empty empty 0 -8 0 10 #dcdcdc #000000 #000000 0 256;
#X obj 286 209 nbx 5 14 -1e+37 1e+37 0 0 empty empty empty 0 -8 0 10 #dcdcdc #000000 #000000 0 256;
#X msg 373 152 1/4;
#X text 16 159 see also:;
#X obj 22 186 else/bpm;
#X obj 163 179 else/hz2bpm;
#X obj 286 179 else/hz2bpm 3/8;
#X msg 394 177 1/8;
#X text 74 98 [hz2bpm] converts from Hz to BPM according to a beat lenght (default 1/4). You can change the beat length via the argument or right inlet., f 52;
#X text 253 249 - Hz value(s);
#X text 253 312 - BPM value(s);
#X obj 22 206 else/bpm2hz;
#X connect 16 0 30 0;
#X connect 25 0 31 0;
#X connect 27 0 31 1;
#X connect 30 0 17 0;
#X connect 31 0 26 0;
#X connect 32 0 31 1;
