#N canvas 635 77 569 627 10;
#X obj 4 338 cnv 3 550 3 empty empty inlets 8 12 0 13 #dcdcdc #000000 0;
#X obj 4 463 cnv 3 550 3 empty empty outlets 8 12 0 13 #dcdcdc #000000 0;
#X obj 4 550 cnv 3 550 3 empty empty arguments 8 12 0 13 #dcdcdc #000000 0;
#X obj 82 472 cnv 17 3 17 empty empty 0 5 9 0 16 #dcdcdc #9c9c9c 0;
#X obj 92 347 cnv 17 3 60 empty empty 0 5 9 0 16 #dcdcdc #9c9c9c 0;
#X obj 4 596 cnv 15 552 21 empty empty empty 20 12 0 14 #e0e0e0 #202020 0;
#X obj 306 4 cnv 15 250 40 empty empty empty 12 13 0 18 #7c7c7c #e0e4dc 0;
#N canvas 382 141 749 319 (subpatch) 0;
#X coords 0 -1 1 1 252 42 2 100 100;
#X restore 305 3 pd;
#X obj 345 11 cnv 10 10 10 empty empty ELSE 0 15 2 30 #7c7c7c #e0e4dc 0;
#X obj 23 40 cnv 4 4 4 empty empty MIDI\ Keyboard\ tracking 0 28 2 18 #e0e0e0 #000000 0;
#X obj 458 11 cnv 10 10 10 empty empty EL 0 6 2 13 #7c7c7c #e0e4dc 0;
#X obj 478 11 cnv 10 10 10 empty empty Locus 0 6 2 13 #7c7c7c #e0e4dc 0;
#X obj 515 11 cnv 10 10 10 empty empty Solus' 0 6 2 13 #7c7c7c #e0e4dc 0;
#X obj 464 26 cnv 10 10 10 empty empty ELSE 0 6 2 13 #7c7c7c #e0e4dc 0;
#X obj 502 26 cnv 10 10 10 empty empty library 0 6 2 13 #7c7c7c #e0e4dc 0;
#X obj 3 3 cnv 15 301 42 empty empty keytrack2~ 20 20 2 37 #e0e0e0 #000000 0;
#N canvas 0 22 450 278 (subpatch) 0;
#X coords 0 1 100 -1 302 42 1 0 0;
#X restore 3 3 graph;
#X obj 233 190 hsl 121 16 0 120 0 0 empty empty empty -2 -8 0 10 #dfdfdf #000000 #000000 0 1;
#X text 243 190 MIDI pitch input;
#X text 188 297 ratio;
#X obj 4 498 cnv 3 550 3 empty empty flags 8 12 0 13 #dcdcdc #000000 0;
#X text 105 507 -mode <float>: set non-linear mode (default 0), f 54;
#X obj 92 417 cnv 17 3 17 empty empty 1 5 9 0 16 #dcdcdc #9c9c9c 0;
#N canvas 712 216 657 473 basic 0;
#X obj 45 61 else/keyboard 17 80 4 2 0 0 empty empty;
#X obj 98 293 else/knob 61 0 200 0 100 empty empty #dfdfdf #7c7c7c #000000 1 0 0 0 1 320 0 0 0 empty empty 0 12 0 -15 0 1 0 0 0 0;
#X floatatom 98 370 5 0 0 0 - - - 0;
#X text 282 166 By default we have a single reference point of MIDI pitch 60 (C4) and a tracking amount of 100%. This means that C4 outputs a ratio of 1 and C5 outputs an octave higher (a ratio of 2) and C3 outputs an octave below (a 0.5 ratio)!, f 50;
#X text 282 232 A tracking of 50% means that an octave higher is half an octave \, so we have a ratio that is equal to the square root of 2 and a 200% tracking gives us a ratio of 4 (2 octaves)!, f 50;
#X msg 68 223 ref 48;
#X msg 76 250 ref 48 60;
#X msg 57 195 ref 60;
#X text 282 284 You can change the reference point with the 'ref' message or '-ref' flag with up to 2 values. If you have 2 values like '48 60' \, then you have a range from 40 to 60 where the output is always 1! Values above 60 get tracked according to this upper reference point and values below get tracked according to the lower reference point. A single value sets both the lower and upper references., f 50;
#X obj 168 293 else/knob 61 0 200 0 100 empty empty #dfdfdf #7c7c7c #000000 1 0 0 0 1 320 0 0 0 empty empty 0 12 0 -15 0 1 0 0 0 0;
#X floatatom 168 370 5 0 0 0 - - - 0;
#X text 282 380 You can set two tracking values \, below and above the reference point(s)., f 50;
#X text 108 276 below;
#X text 178 276 above;
#X obj 45 156 mono~;
#X obj 46 396 else/keytrack2~, f 18;
#X obj 46 433 else/numbox~ 6 10 100 #C0C0C4 #440008 10 0 0 0;
#X obj 546 70 else/setdsp~;
#X obj 45 13 loadbang;
#X msg 45 34 60 127;
#X connect 0 0 14 0;
#X connect 1 0 2 0;
#X connect 2 0 15 1;
#X connect 5 0 15 0;
#X connect 6 0 15 0;
#X connect 7 0 15 0;
#X connect 9 0 10 0;
#X connect 10 0 15 2;
#X connect 14 0 15 0;
#X connect 15 0 16 0;
#X connect 18 0 19 0;
#X connect 19 0 0 0;
#X restore 476 209 pd basic;
#X text 195 348 MIDI input value(s) to be tracked/mapped, f 57;
#X text 115 364 ref <list> -;
#X text 195 363 up to two reference points;
#X text 103 395 mode <float> -;
#X text 195 394 non-zero sets to satruated (tanh) exponential mode;
#N canvas 755 211 570 456 example 0;
#X obj 47 60 else/keyboard 17 80 4 2 0 0 empty empty;
#X obj 89 346 else/moog~ 500 0.5 0.5;
#X obj 47 250 else/bl.saw~ -midi, f 12;
#X obj 89 377 out~;
#X floatatom 175 220 5 0 0 0 - - - 0;
#X msg 132 192 ref \$1;
#X floatatom 132 168 5 0 0 0 - - - 0;
#X text 277 295 You can experiment with different values., f 35;
#X floatatom 219 221 5 0 0 0 - - - 0;
#X text 277 188 A classic example is to control the cutoff frequency of a filter. By default \, in this example we have a 500 hz cutoff that corresponds to a MIDI pitch of 48 (C3) and a tracking amount of 50% below and 100% above. Hence \, C4 moves the cutoff an octave higher and C2 a tritone lower., f 35;
#X obj 47 165 else/mono~;
#X obj 47 13 loadbang;
#X msg 47 34 60 127;
#X obj 132 245 else/keytrack2~ 50 100 48, f 15;
#X obj 132 283 *~ 500;
#X obj 132 314 else/numbox~ 6 10 100 #C0C0C4 #440008 10 0 0 0;
#X connect 0 0 10 0;
#X connect 1 0 3 0;
#X connect 2 0 1 0;
#X connect 4 0 13 1;
#X connect 5 0 13 0;
#X connect 6 0 5 0;
#X connect 8 0 13 2;
#X connect 10 0 2 0;
#X connect 10 0 13 0;
#X connect 11 0 12 0;
#X connect 12 0 0 0;
#X connect 13 0 14 0;
#X connect 14 0 15 0;
#X connect 15 0 1 1;
#X restore 464 229 pd example;
#N canvas 597 190 671 607 exponential 1;
#X obj 35 66 else/keyboard 17 80 5 2 0 0 empty empty;
#X obj 62 204 else/knob 68 -4 4 0 0 empty empty #dfdfdf #7c7c7c #000000 1 0 0 0 1 320 0 0 0 empty empty 0 12 0 -15 0 1 0 0 0 0;
#X floatatom 62 312 8 0 0 0 - - - 0;
#X obj 401 288 cnv 15 198 138 empty empty empty 20 12 0 14 #e0e0e0 #404040 0;
#N canvas 0 22 450 278 (subpatch) 0;
#X array \$0-positive 128 float 0;
#A color 0;
#A width 1;
#X coords 0 1 127 0 200 140 1 0 0;
#X restore 400 287 graph;
#X obj 201 428 cnv 15 198 138 empty empty empty 20 12 0 14 #e0e0e0 #404040 0;
#N canvas 0 22 450 278 (subpatch) 0;
#X array \$0-negative 128 float 0;
#A color 0;
#A width 1;
#X coords 0 1 127 0 200 140 1 0 0;
#X restore 200 427 graph;
#N canvas 265 141 542 364 plot 0;
#X floatatom 73 89 10 1 1.2 0 - - - 0;
#X obj 100 205 trigger float float;
#X obj 100 146 trigger bang float, f 23;
#X obj 100 246 else/rescale;
#X msg 235 210 exp \$1;
#X obj 302 210 trigger float float;
#X obj 302 151 trigger bang float, f 23;
#X obj 302 251 else/rescale;
#X msg 437 215 exp \$1;
#X obj 302 122 * -1;
#X obj 100 275 tabwrite \$0-positive;
#X obj 302 280 tabwrite \$0-negative;
#X obj 302 183 else/loop 128;
#X obj 100 178 else/loop 128;
#X obj 73 124 sel 1;
#X msg 70 145 0;
#X obj 73 44 inlet;
#X obj 73 65 abs;
#X connect 0 0 9 0;
#X connect 0 0 14 0;
#X connect 1 0 3 0;
#X connect 1 1 10 1;
#X connect 2 0 13 0;
#X connect 2 1 4 0;
#X connect 3 0 10 0;
#X connect 4 0 3 0;
#X connect 5 0 7 0;
#X connect 5 1 11 1;
#X connect 6 0 12 0;
#X connect 6 1 8 0;
#X connect 7 0 11 0;
#X connect 8 0 7 0;
#X connect 9 0 6 0;
#X connect 12 0 5 0;
#X connect 13 0 1 0;
#X connect 14 0 15 0;
#X connect 14 1 2 0;
#X connect 15 0 2 0;
#X connect 16 0 17 0;
#X connect 17 0 0 0;
#X restore 76 284 pd plot;
#X text 161 164 By default we have a linear tracking in pitch difference. But you can use exponential factors. An exponential factor of '1' or '0' is linear and '0' is the default. Values greater than one expand the tracking amount \, where A semitone difference is much lower than higher intervals. Regardless of the exponential factor \, if you have a tracking amount of 100% \, an octave higher or lower will still be the same as linear (respectively '2' and '0.5'). Exponential values lower than 1 have the opposite behaviour. Note that below and above the reference point(s) we have a mirrored behaviour., f 74;
#X floatatom 79 371 6 0 0 0 - - - 0;
#X floatatom 123 371 6 0 0 0 - - - 0;
#X msg 62 337 exp \$1 \$1;
#X text 163 268 Hence \, they form a sort of 'S' shaped curve if you have the same value. The plot below is done with a [rescale] object. Of course \, you can set two different values for below and above the reference points., f 37;
#X text 168 361 Changing the amount also affects the overall range of the curve below and above., f 32;
#X text 413 460 You can have negative values \, which will reverse the curves. For instance '1 -1' has a linear rise up to the reference point then it drops decreasing in linear again., f 34;
#X obj 36 436 else/numbox~ 6 10 100 #C0C0C4 #440008 10 0 0 0;
#X obj 36 395 else/keytrack2~;
#X obj 35 171 else/mono~;
#X obj 35 17 loadbang;
#X msg 35 38 60 127;
#X connect 0 0 17 0;
#X connect 1 0 2 0;
#X connect 1 0 7 0;
#X connect 2 0 11 0;
#X connect 9 0 16 1;
#X connect 10 0 16 2;
#X connect 11 0 16 0;
#X connect 16 0 15 0;
#X connect 17 0 16 0;
#X connect 18 0 19 0;
#X connect 19 0 0 0;
#X restore 440 249 pd exponential;
#N canvas 575 171 757 526 exp-mode 0;
#X obj 112 65 else/keyboard 17 80 5 2 0 0 empty empty;
#X obj 137 209 else/knob 61 0 2 0 1 empty empty #dfdfdf #7c7c7c #000000 1 0 0 0 1 320 0 0 0 empty empty 0 12 0 -15 0 1 0 0 0 0;
#X floatatom 137 281 8 0 0 0 - - - 0;
#X floatatom 156 363 5 0 0 0 - - - 0;
#X msg 47 308 mode \$1;
#X obj 47 276 tgl 21 0 empty empty empty 0 -8 0 10 #dfdfdf #000000 #000000 0 1;
#X obj 47 250 loadbang;
#X text 298 202 You can change the exponential mode to another one based on 'tanh' \, where the exponential factor is actually a saturation factor. This is more suited to generate an S curve that compresses to the extremes. A zero value is linear and negative values also flip horizontally., f 52;
#X text 247 353 Changing the amount also affects the overall range of the curve., f 26;
#X floatatom 200 363 5 0 0 0 - - - 0;
#X obj 137 304 else/pack2;
#X obj 206 210 else/knob 61 0 2 0 1 empty empty #dfdfdf #7c7c7c #000000 1 0 0 0 1 320 0 0 0 empty empty 0 12 0 -15 0 1 0 0 0 0;
#X floatatom 206 282 8 0 0 0 - - - 0;
#X msg 137 326 exp \$1 \$2;
#X obj 113 432 else/s2f~;
#X listbox 113 463 13 0 0 0 - - - 16;
#X obj 111 14 loadbang;
#X msg 111 35 60 127;
#X obj 113 400 else/keytrack2~;
#X obj 112 170 else/mono~;
#X connect 0 0 19 0;
#X connect 1 0 2 0;
#X connect 2 0 10 0;
#X connect 3 0 18 1;
#X connect 4 0 18 0;
#X connect 5 0 4 0;
#X connect 6 0 5 0;
#X connect 9 0 18 2;
#X connect 10 0 13 0;
#X connect 11 0 12 0;
#X connect 12 0 10 1;
#X connect 13 0 18 0;
#X connect 14 0 15 0;
#X connect 16 0 17 0;
#X connect 17 0 0 0;
#X connect 18 0 14 0;
#X connect 19 0 18 0;
#X restore 458 270 pd exp-mode;
#X text 38 243 see also:;
#X obj 36 264 else/keytrack~;
#X text 195 472 the tracked/mapped output as a ratio, f 58;
#X text 136 576 2) list - up to 2 reference points (default 60);
#X text 272 216 amount below (%);
#X floatatom 317 238 5 0 0 0 - - - 0;
#X text 349 234 amount above (%), f 9;
#X obj 91 439 cnv 17 3 17 empty empty 2 5 9 0 16 #dcdcdc #9c9c9c 0;
#X text 145 418 float -;
#X text 145 440 float -;
#X text 115 379 exp <f \, f> -;
#X text 195 378 the two exponential factors below and above the reference;
#X text 195 418 track amount below the reference;
#X text 194 440 track amount above the reference;
#X obj 230 263 else/keytrack2~;
#X obj 230 297 else/numbox~ 6 10 100 #C0C0C4 #440008 10 0 0 0;
#X text 47 90 [keytrack2~] is like [keytrack~] but you can set different parameters up and below the reference point(s). It maps MIDI pitch input from a keyboard and outputs a function you can use to control things like a filter cutoff. The output is pitch ratio value. By default we have MIDI pitch 60 (middle C) as an unaltered reference point (ratio 1). The tracking amount affects the mapping amount \, where a minimum value of 0 sets no tracking (all ratios are equal to 1)., f 69;
#X obj 230 238 else/numbox~ 3 10 100 #c0c0c4 #440008 10 0 0 0;
#X floatatom 273 238 5 0 0 0 - - - 0;
#X text 121 348 signal(s) -;
#X text 121 472 signal(s) -;
#X text 136 560 1) list - track amount below and above (default 100 \, 100);
#X text 99 526 -exp <list>: 2 exponential factors below and above (default 0 0 \, linear), f 73;
#X obj 36 285 else/keytrack2;
#N canvas 575 171 357 298 multichannel 0;
#X obj 94 171 else/s2f~;
#X listbox 94 202 16 0 0 0 - - - 16;
#X obj 94 92 sig~ 48 60 72;
#X text 85 47 There's support for multichannels., f 18;
#X obj 248 77 else/setdsp~;
#X obj 94 135 else/keytrack2~;
#X connect 0 0 1 0;
#X connect 2 0 5 0;
#X connect 5 0 0 0;
#X restore 433 292 pd multichannel;
#X obj 485 96 else/setdsp~;
#X connect 17 0 49 0;
#X connect 37 0 46 2;
#X connect 46 0 47 0;
#X connect 49 0 46 0;
#X connect 50 0 46 1;
