#N canvas 614 85 562 572 10;
#X obj 4 311 cnv 3 550 3 empty empty inlets 8 12 0 13 #dcdcdc #000000 0;
#X obj 4 415 cnv 3 550 3 empty empty outlets 8 12 0 13 #dcdcdc #000000 0;
#X obj 4 499 cnv 3 550 3 empty empty arguments 8 12 0 13 #dcdcdc #000000 0;
#X obj 136 424 cnv 17 3 17 empty empty 0 5 9 0 16 #dcdcdc #9c9c9c 0;
#X obj 77 320 cnv 17 3 60 empty empty 0 5 9 0 16 #dcdcdc #9c9c9c 0;
#X obj 4 545 cnv 15 552 21 empty empty empty 20 12 0 14 #e0e0e0 #202020 0;
#X obj 306 4 cnv 15 250 40 empty empty empty 12 13 0 18 #7c7c7c #e0e4dc 0;
#N canvas 382 141 749 319 (subpatch) 0;
#X coords 0 -1 1 1 252 42 2 100 100;
#X restore 305 3 pd;
#X obj 345 11 cnv 10 10 10 empty empty ELSE 0 15 2 30 #7c7c7c #e0e4dc 0;
#X obj 23 40 cnv 4 4 4 empty empty MIDI\ Keyboard\ tracking 0 28 2 18 #e0e0e0 #000000 0;
#X obj 458 11 cnv 10 10 10 empty empty EL 0 6 2 13 #7c7c7c #e0e4dc 0;
#X obj 478 11 cnv 10 10 10 empty empty Locus 0 6 2 13 #7c7c7c #e0e4dc 0;
#X obj 515 11 cnv 10 10 10 empty empty Solus' 0 6 2 13 #7c7c7c #e0e4dc 0;
#X obj 464 26 cnv 10 10 10 empty empty ELSE 0 6 2 13 #7c7c7c #e0e4dc 0;
#X obj 502 26 cnv 10 10 10 empty empty library 0 6 2 13 #7c7c7c #e0e4dc 0;
#X obj 3 3 cnv 15 301 42 empty empty keytrack 20 20 2 37 #e0e0e0 #000000 0;
#N canvas 0 22 450 278 (subpatch) 0;
#X coords 0 1 100 -1 302 42 1 0 0;
#X restore 3 3 graph;
#X obj 203 190 hsl 121 16 0 120 0 0 empty empty empty -2 -8 0 10 #dfdfdf #000000 #000000 0 1;
#X floatatom 200 215 4 0 0 0 - - - 0;
#X text 213 190 MIDI pitch input;
#X text 158 273 ratio;
#X text 342 273 amount (%);
#X text 165 424 list;
#X text 201 424 - The tracked/mapped output as a ratio;
#X obj 4 450 cnv 3 550 3 empty empty flags 8 12 0 13 #dcdcdc #000000 0;
#X text 143 459 -mode <float>: set non-linear mode (default 0), f 54;
#X obj 77 390 cnv 17 3 17 empty empty 1 5 9 0 16 #dcdcdc #9c9c9c 0;
#X obj 304 217 else/knob 50 0 200 0 100 empty empty #dfdfdf #7c7c7c #000000 1 0 0 0 1 320 0 0 0 empty empty 0 12 0 -15 0 1 0 0 0 0;
#X floatatom 304 274 5 0 0 0 - - - 0;
#N canvas 712 216 583 426 basic 0;
#X obj 45 31 else/keyboard 17 80 4 2 0 0 empty empty;
#X obj 45 136 stripnote;
#X text 148 180 amount (%);
#X obj 151 202 else/knob 61 0 200 0 100 empty empty #dfdfdf #7c7c7c #000000 1 0 0 0 1 320 0 0 0 empty empty 0 12 0 -15 0 1 0 0 0 0;
#X floatatom 151 279 5 0 0 0 - - - 0;
#X floatatom 46 346 8 0 0 0 - - - 16;
#X obj 46 316 else/keytrack, f 18;
#X text 243 155 By default we have a single reference point of MIDI pitch 60 (C4) and a tracking amount of 100%. This means that C4 outputs a ratio of 1 and C5 outputs an octave higher (a ratio of 2) and C3 outputs an octave below (a 0.5 ratio)!, f 45;
#X text 243 231 A tracking of 50% means that an octave higher is half an octave \, so we have a ratio that is equal to the square root of 2 and a 200% tracking gives us a ratio of 4 (2 octaves)!, f 45;
#X msg 68 193 ref 48;
#X msg 76 220 ref 48 60;
#X msg 57 165 ref 60;
#X text 243 283 You can change the reference point with the 'ref' message or via arguments with up to 2 values. If you have 2 values like '48 60' \, then you have a range from 40 to 60 where the output is always 1! Values above 60 get tracked according to this upper reference point and values below get tracked according to the lower reference point. A single value sets both the lower and upper references., f 45;
#X connect 0 0 1 0;
#X connect 1 0 6 0;
#X connect 3 0 4 0;
#X connect 4 0 6 1;
#X connect 6 0 5 0;
#X connect 9 0 6 0;
#X connect 10 0 6 0;
#X connect 11 0 6 0;
#X restore 480 207 pd basic;
#X text 141 321 list -;
#X text 185 321 MIDI input value(s) to be tracked/mapped, f 50;
#X text 105 337 ref <list> -;
#X text 185 336 up to two reference points;
#X text 93 368 mode <float> -;
#X text 185 367 non-zero sets to satruated (tanh) exponential mode;
#N canvas 712 216 570 431 example 0;
#X obj 47 31 else/keyboard 17 80 4 2 0 0 empty empty;
#X obj 89 297 else/moog~ 500 0.5 0.5;
#X obj 132 239 * 500;
#X obj 47 221 else/bl.saw~ -midi, f 12;
#X obj 89 328 out~;
#X floatatom 132 269 9 0 0 0 - - - 0;
#X floatatom 207 168 5 0 0 0 - - - 0;
#X msg 132 168 ref \$1;
#X floatatom 132 139 5 0 0 0 - - - 0;
#X text 204 150 amount;
#X text 280 148 A classic example is to control the cutoff frequency of a filter. By default \, in this example we have a 500 hz cutoff that corresponds to a MIDI pitch of 48 (C3) and a tracking amount of 50%. Hence \, C4 moves the cutoff a tritone higher and C2 a tritone lower., f 36;
#X text 280 245 You can experiment with different values., f 36;
#X obj 47 136 else/mono;
#X obj 132 196 else/keytrack 50 48, f 13;
#X connect 0 0 12 0;
#X connect 1 0 4 0;
#X connect 2 0 5 0;
#X connect 3 0 1 0;
#X connect 5 0 1 1;
#X connect 6 0 13 1;
#X connect 7 0 13 0;
#X connect 8 0 7 0;
#X connect 12 0 3 0;
#X connect 12 0 13 0;
#X connect 13 0 2 0;
#X restore 468 227 pd example;
#N canvas 597 190 671 566 exponential 0;
#X obj 35 31 else/keyboard 17 80 5 2 0 0 empty empty;
#X obj 35 136 stripnote;
#X obj 62 169 else/knob 68 -4 4 0 0 empty empty #dfdfdf #7c7c7c #000000 1 0 0 0 1 320 0 0 0 empty empty 0 12 0 -15 0 1 0 0 0 0;
#X floatatom 36 376 8 0 0 0 - - - 16;
#X obj 36 330 else/keytrack;
#X floatatom 62 277 8 0 0 0 - - - 0;
#X msg 62 302 exp \$1;
#X obj 401 253 cnv 15 198 138 empty empty empty 20 12 0 14 #e0e0e0 #404040 0;
#N canvas 0 22 450 278 (subpatch) 0;
#X array \$0-positive 128 float 0;
#A color 0;
#A width 1;
#X coords 0 1 127 0 200 140 1 0 0;
#X restore 400 252 graph;
#X obj 201 393 cnv 15 198 138 empty empty empty 20 12 0 14 #e0e0e0 #404040 0;
#N canvas 0 22 450 278 (subpatch) 0;
#X array \$0-negative 128 float 0;
#A color 0;
#A width 1;
#X coords 0 1 127 0 200 140 1 0 0;
#X restore 200 392 graph;
#N canvas 265 141 542 364 plot 0;
#X floatatom 73 89 10 1 1.2 0 - - - 0;
#X obj 100 205 trigger float float;
#X obj 100 146 trigger bang float, f 23;
#X obj 100 246 else/rescale;
#X msg 235 210 exp \$1;
#X obj 302 210 trigger float float;
#X obj 302 151 trigger bang float, f 23;
#X obj 302 251 else/rescale;
#X msg 437 215 exp \$1;
#X obj 302 122 * -1;
#X obj 100 275 tabwrite \$0-positive;
#X obj 302 280 tabwrite \$0-negative;
#X obj 302 183 else/loop 128;
#X obj 100 178 else/loop 128;
#X obj 73 124 sel 1;
#X msg 70 145 0;
#X obj 73 40 inlet;
#X obj 73 65 abs;
#X connect 0 0 9 0;
#X connect 0 0 14 0;
#X connect 1 0 3 0;
#X connect 1 1 10 1;
#X connect 2 0 13 0;
#X connect 2 1 4 0;
#X connect 3 0 10 0;
#X connect 4 0 3 0;
#X connect 5 0 7 0;
#X connect 5 1 11 1;
#X connect 6 0 12 0;
#X connect 6 1 8 0;
#X connect 7 0 11 0;
#X connect 8 0 7 0;
#X connect 9 0 6 0;
#X connect 12 0 5 0;
#X connect 13 0 1 0;
#X connect 14 0 15 0;
#X connect 14 1 2 0;
#X connect 15 0 2 0;
#X connect 16 0 17 0;
#X connect 17 0 0 0;
#X restore 76 249 pd plot;
#X text 161 129 By default we have a linear tracking in pitch difference. But you can use exponential factors. An exponential factor of '1' or '0' is linear and '0' is the default. Values greater than one expand the tracking amount \, where A semitone difference is much lower than higher intervals. Regardless of the exponential factor \, if you have a tracking amount of 100% \, an octave higher or lower will still be the same as linear (respectively '2' and '0.5'). Exponential values lower than 1 have the opposite behaviour. Note that below and above the reference point(s) we have a mirrored behaviour., f 74;
#X text 163 233 Hence \, they form a sort of 'S' shaped curve. The plot below is done with a [rescale] object., f 31;
#X obj 133 299 else/knob 61 0 200 0 100 empty empty #dfdfdf #7c7c7c #000000 1 0 0 0 1 320 0 0 0 empty empty 0 12 0 -15 0 1 0 0 0 0;
#X floatatom 133 378 8 0 0 0 - - - 0;
#X text 217 310 Changing the amount also affects the overall range of the curve., f 26;
#X text 36 422 You can have negative values \, which will reverse the mapping. For instance \, with "-1" the ratio decreases above the the reference point(s). Test above., f 24;
#X connect 0 0 1 0;
#X connect 1 0 4 0;
#X connect 2 0 5 0;
#X connect 2 0 11 0;
#X connect 4 0 3 0;
#X connect 5 0 6 0;
#X connect 6 0 4 0;
#X connect 14 0 15 0;
#X connect 14 0 4 1;
#X restore 444 247 pd exponential;
#N canvas 575 171 738 469 exp-mode 0;
#X obj 112 35 else/keyboard 17 80 5 2 0 0 empty empty;
#X obj 112 140 stripnote;
#X obj 137 179 else/knob 61 -2 2 0 0 empty empty #dfdfdf #7c7c7c #000000 1 0 0 0 1 320 0 0 0 empty empty 0 12 0 -15 0 1 0 0 0 0;
#X floatatom 113 400 8 0 0 0 - - - 16;
#X obj 113 330 else/keytrack;
#X floatatom 137 251 8 0 0 0 - - - 0;
#X msg 137 296 exp \$1;
#X obj 210 293 else/knob 61 0 200 0 100 empty empty #dfdfdf #7c7c7c #000000 1 0 0 0 1 320 0 0 0 empty empty 0 12 0 -15 0 1 0 0 0 0;
#X floatatom 210 365 8 0 0 0 - - - 0;
#X msg 47 278 mode \$1;
#X obj 47 246 tgl 21 0 empty empty empty 0 -8 0 10 #dfdfdf #000000 #000000 0 1;
#X obj 47 220 loadbang;
#X text 301 300 Changing the amount also affects the overall range of the curve., f 26;
#X text 301 155 You can change the exponential mode to another one based on 'tanh' \, where the exponential factor is actually a saturation factor. This is more suited to generate an S curve that compresses to the extremes. A zero value is linear and negative values also reverse the mapping horizontally., f 52;
#X connect 0 0 1 0;
#X connect 1 0 4 0;
#X connect 2 0 5 0;
#X connect 4 0 3 0;
#X connect 5 0 6 0;
#X connect 6 0 4 0;
#X connect 7 0 8 0;
#X connect 7 0 4 1;
#X connect 9 0 4 0;
#X connect 10 0 9 0;
#X connect 11 0 10 0;
#X restore 462 267 pd exp-mode;
#X listbox 200 273 12 0 0 0 - - - 0;
#X msg 152 190 60 72;
#X text 52 185 there's support for list input, f 15;
#X text 32 227 see also:;
#X text 51 86 [keytrack] maps MIDI pitch input from a keyboard and outputs a function you can use to control things like a filter cutoff. By default we have MIDI pitch 60 (middle C) as an unaltered reference point (ratio 1). Hence \, the mapping occurs above and down the reference point or range (as you can set a lower and upper reference points forming an unaltered range). The tracking amount affects the mapping amount \, where a minimum value of 0 sets no tracking (all ratios are equal to 1). See also [keytrack2] \, which lets you set different parameters up and down the reference range., f 79;
#X obj 32 247 else/keytrack~;
#X obj 32 267 else/keytrack2;
#X text 99 352 exp <float> -;
#X text 185 351 exponential factor;
#X text 135 391 float -;
#X text 185 391 track amount value;
#X text 149 477 -exp <float>: exponential factors (default 0 \, linear);
#X text 157 507 1) float - track amount (default 100);
#X text 157 524 2) list - up to 2 reference points (default 60);
#X obj 200 239 else/keytrack;
#X connect 17 0 18 0;
#X connect 18 0 53 0;
#X connect 27 0 28 0;
#X connect 27 0 53 1;
#X connect 40 0 53 0;
#X connect 53 0 39 0;
