#N canvas 561 70 563 436 10;
#X obj 308 3 cnv 15 250 40 empty empty empty 12 13 0 18 #7c7c7c #e0e4dc 0;
#X obj 347 10 cnv 10 10 10 empty empty ELSE 0 15 2 30 #7c7c7c #e0e4dc 0;
#X obj 25 39 cnv 4 4 4 empty empty Interleave\ multichannel\ signals 0 28 2 18 #e0e0e0 #000000 0;
#X obj 460 10 cnv 10 10 10 empty empty EL 0 6 2 13 #7c7c7c #e0e4dc 0;
#X obj 480 10 cnv 10 10 10 empty empty Locus 0 6 2 13 #7c7c7c #e0e4dc 0;
#X obj 517 10 cnv 10 10 10 empty empty Solus' 0 6 2 13 #7c7c7c #e0e4dc 0;
#X obj 466 25 cnv 10 10 10 empty empty ELSE 0 6 2 13 #7c7c7c #e0e4dc 0;
#X obj 504 25 cnv 10 10 10 empty empty library 0 6 2 13 #7c7c7c #e0e4dc 0;
#N canvas 0 22 450 278 (subpatch) 0;
#X coords 0 1 100 -1 252 42 1 0 0;
#X restore 307 2 graph;
#X obj 5 2 cnv 15 301 42 empty empty lace~ 20 20 2 37 #e0e0e0 #000000 0;
#N canvas 0 22 450 278 (subpatch) 0;
#X coords 0 1 100 -1 302 42 1;
#X restore 4 2 graph;
#N canvas 791 278 386 295 -z 0;
#X obj 97 210 else/s2f~;
#X listbox 97 236 13 0 0 0 - - - 0;
#X obj 97 184 else/lace~ -z 2;
#X obj 97 108 sig~ 1 2;
#X obj 184 136 sig~ 3 4 5;
#X obj 207 210 else/s2f~;
#X obj 207 184 else/lace~ 2;
#X text 47 24 The '-z' flag adds zeros for the case where multichannel signals are not of the same size in number of channels. This way \, zero are added in the place of missing channels to match the size of the multichannel signal with most channels., f 50;
#X listbox 207 236 13 0 0 0 - - - 0;
#X connect 0 0 1 0;
#X connect 2 0 0 0;
#X connect 3 0 2 0;
#X connect 3 0 6 0;
#X connect 4 0 2 1;
#X connect 4 0 6 1;
#X connect 5 0 8 0;
#X connect 6 0 5 0;
#X restore 482 249 pd -z;
#X text 39 171 see also:;
#X obj 190 132 sig~ 1 2 3;
#X obj 190 208 else/lace~ 3, f 25;
#X obj 190 234 else/s2f~;
#X listbox 190 260 19 0 0 0 - - - 0;
#X obj 263 157 sig~ 4 5 6;
#X obj 337 182 sig~ 7 8 9;
#X text 75 87 [lace~] interleaves two or more multichannel signals.;
#X obj 476 78 else/setdsp~;
#X obj 39 222 else/lace;
#X obj 39 248 else/merge~;
#X obj 4 293 cnv 3 550 3 empty empty inlets 8 12 0 13 #dcdcdc #000000 0;
#X obj 3 334 cnv 3 550 3 empty empty outlets 8 12 0 13 #dcdcdc #000000 0;
#X obj 3 370 cnv 3 550 3 empty empty arguments 8 12 0 13 #dcdcdc #000000 0;
#X obj 114 343 cnv 17 3 17 empty empty 0 5 9 0 16 #dcdcdc #9c9c9c 0;
#X obj 3 407 cnv 15 552 21 empty empty empty 20 12 0 14 #e0e0e0 #202020 0;
#X obj 114 305 cnv 17 3 17 empty empty n 5 9 0 16 #dcdcdc #9c9c9c 0;
#X text 117 379 1) float;
#X text 177 379 - number of inlets (default and minimum 2);
#X text 148 306 signals - multichannel signals to lace/interleave;
#X text 152 343 signals - laced/interleaved signals;
#X obj 39 195 else/delace~;
#X connect 13 0 14 0;
#X connect 14 0 15 0;
#X connect 15 0 16 0;
#X connect 17 0 14 1;
#X connect 18 0 14 2;
