#N canvas 561 70 565 386 10;
#X obj 4 354 cnv 15 552 21 empty empty empty 20 12 0 14 #e0e0e0 #202020 0;
#X obj 5 221 cnv 3 550 3 empty empty inlets 8 12 0 13 #dcdcdc #000000 0;
#X obj 5 255 cnv 3 550 3 empty empty outlets 8 12 0 13 #dcdcdc #000000 0;
#X obj 5 322 cnv 3 550 3 empty empty arguments 8 12 0 13 #dcdcdc #000000 0;
#X obj 127 266 cnv 17 3 17 empty empty 0 5 9 0 16 #dcdcdc #9c9c9c 0;
#X obj 127 230 cnv 17 3 17 empty empty 0 5 9 0 16 #dcdcdc #9c9c9c 0;
#X text 112 330 1) float;
#X obj 308 3 cnv 15 250 40 empty empty empty 12 13 0 18 #7c7c7c #e0e4dc 0;
#X obj 347 10 cnv 10 10 10 empty empty ELSE 0 15 2 30 #7c7c7c #e0e4dc 0;
#X obj 25 39 cnv 4 4 4 empty empty Interleave\ lists 0 28 2 18 #e0e0e0 #000000 0;
#X obj 460 10 cnv 10 10 10 empty empty EL 0 6 2 13 #7c7c7c #e0e4dc 0;
#X obj 480 10 cnv 10 10 10 empty empty Locus 0 6 2 13 #7c7c7c #e0e4dc 0;
#X obj 517 10 cnv 10 10 10 empty empty Solus' 0 6 2 13 #7c7c7c #e0e4dc 0;
#X obj 466 25 cnv 10 10 10 empty empty ELSE 0 6 2 13 #7c7c7c #e0e4dc 0;
#X obj 504 25 cnv 10 10 10 empty empty library 0 6 2 13 #7c7c7c #e0e4dc 0;
#N canvas 0 22 450 278 (subpatch) 0;
#X coords 0 1 100 -1 252 42 1 0 0;
#X restore 307 2 graph;
#X obj 5 2 cnv 15 301 42 empty empty lace 20 20 2 37 #e0e0e0 #000000 0;
#N canvas 0 22 450 278 (subpatch) 0;
#X coords 0 1 100 -1 302 42 1;
#X restore 4 2 graph;
#X text 171 330 - 'n' number of inlets (default 2 \, min 2 / max 255);
#X obj 5 293 cnv 3 550 3 empty empty flags 8 12 0 13 #dcdcdc #000000 0;
#X text 166 267 list -;
#X obj 192 161 else/lace 3, f 25;
#X msg 192 131 list a b c;
#X msg 339 131 list x y z;
#X msg 265 131 1 2 3;
#X listbox 192 188 19 0 0 0 - - - 0;
#X text 162 231 list -;
#X text 208 267 the laced/interleaved list, f 36;
#X text 205 231 lists to be laced/interleaved, f 36;
#X text 179 300 -z: add zeros for missing elements;
#N canvas 799 247 394 242 -z 0;
#X listbox 98 189 13 0 0 0 - - - 0;
#X obj 98 162 else/lace -z 2;
#X text 47 24 The '-z' flag adds zeros for the case where lists are not of the same size. This way \, zero are added in the place of missing elements to match the size of the biggest list., f 50;
#X listbox 208 189 13 0 0 0 - - - 0;
#X obj 208 162 else/lace 2;
#X msg 98 102 1 2;
#X msg 179 104 list a b c;
#X connect 1 0 0 0;
#X connect 4 0 3 0;
#X connect 5 0 1 0;
#X connect 5 0 4 0;
#X connect 6 0 1 1;
#X connect 6 0 4 1;
#X restore 477 179 pd -z;
#X text 28 137 see also:;
#X obj 28 161 else/delace;
#X obj 28 187 else/merge;
#X text 83 87 [lace] interleaves two or more lists. A bang is considered an empty list., f 59;
#X connect 21 0 25 0;
#X connect 22 0 21 0;
#X connect 23 0 21 2;
#X connect 24 0 21 1;
