#N canvas 538 75 564 506 10;
#X obj 4 477 cnv 15 552 21 empty \$0-pddp.cnv.footer empty 20 12 0 14 #dcdcdc #404040 0;
#X obj 4 411 cnv 3 550 3 empty \$0-pddp.cnv.outlets outlets 8 12 0 13 #dcdcdc #000000 0;
#X obj 4 444 cnv 3 550 3 empty empty flags 8 12 0 13 #dcdcdc #000000 0;
#X obj 308 8 cnv 15 250 40 empty empty empty 12 13 0 18 #7c7c7c #e0e4dc 0;
#N canvas 382 141 749 319 (subpatch) 0;
#X coords 0 -1 1 1 252 42 2 0 0;
#X restore 307 7 pd;
#X obj 347 15 cnv 10 10 10 empty empty ELSE 0 15 2 30 #7c7c7c #e0e4dc 0;
#X obj 25 44 cnv 4 4 4 empty empty Mono\ or\ multichannel\ dB\ level\ adjustment 0 28 2 18 #e0e0e0 #000000 0;
#X obj 460 15 cnv 10 10 10 empty empty EL 0 6 2 13 #7c7c7c #e0e4dc 0;
#X obj 480 15 cnv 10 10 10 empty empty Locus 0 6 2 13 #7c7c7c #e0e4dc 0;
#X obj 517 15 cnv 10 10 10 empty empty Solus' 0 6 2 13 #7c7c7c #e0e4dc 0;
#X obj 466 30 cnv 10 10 10 empty empty ELSE 0 6 2 13 #7c7c7c #e0e4dc 0;
#X obj 504 30 cnv 10 10 10 empty empty library 0 6 2 13 #7c7c7c #e0e4dc 0;
#X obj 99 418 cnv 17 3 17 empty \$0-pddp.cnv.let.0 0 5 9 0 16 #dcdcdc #9c9c9c 0;
#X text 171 419 signal;
#X text 217 419 - the adjusted gain signal;
#X obj 5 7 cnv 15 301 42 empty empty level~ 20 20 2 37 #e0e0e0 #000000 0;
#N canvas 0 22 450 278 (subpatch) 0;
#X coords 0 1 100 -1 302 42 1;
#X restore 5 7 graph;
#X obj 1 350 cnv 3 550 3 empty \$0-pddp.cnv.inlets inlets 8 12 0 13 #dcdcdc #000000 0;
#X obj 99 358 cnv 17 3 45 empty \$0-pddp.cnv.let.0 0 5 9 0 16 #dcdcdc #9c9c9c 0;
#X text 156 358 signal(s);
#X text 220 358 - incoming signal(s) whose gain will be adjusted, f 51;
#X text 108 387 savestate <float>;
#N canvas 818 172 324 469 multichannel 0;
#X text 74 65 Multichannel support example.;
#X obj 99 106 else/white~ -ch 2;
#X obj 99 231 else/meter2~;
#X obj 99 382 else/out.mc~;
#X obj 99 141 else/level~;
#A saved 0;
#X connect 1 0 4 0;
#X connect 2 0 3 0;
#X connect 4 0 2 0;
#X restore 443 303 pd multichannel;
#X obj 233 203 else/level~ 1;
#A saved 0.333333;
#X obj 233 284 else/out~;
#X text 220 387 - non zero sets to state saving mode, f 51;
#X text 164 455 -savestate: sets to state saving mode;
#X msg 303 173 savestate 1;
#X obj 233 167 noise~;
#X text 144 373 set <float>;
#X text 220 373 - set dB value, f 51;
#X text 62 91 [level~] is a convenient abstraction for adjusting a signal's gain in dB. At "12 o'clock" we have 'Unity Gain" \, which is 0 dB. Moving clockwise we linearly up to 12dB \, whereas counterclockwise moves nonlinearly to -100 \, and reaching '-100' effectively means -inf dB (total silence). It has support for multichannel signals., f 74;
#N canvas 371 376 322 366 see 0;
#X obj 74 82 else/gain~ 1 0 20 0 0;
#A saved;
#X text 106 148 <= [else/gain~];
#X obj 132 85 else/knob 50 0 127 0 0 empty empty #dfdfdf #7c7c7c black 1 0 0 0 1 320 0 0 0 empty empty 0 12 6 -15 0 1 0 0 0 0;
#X text 192 106 <-- knob;
#X obj 77 220 else/level.m~;
#A saved 0 0;
#A saved;
#X obj 98 24 else/vca~;
#X restore 35 294 pd see also;
#X connect 23 0 24 0;
#X connect 27 0 23 0;
#X connect 28 0 23 0;
