#N canvas 400 57 563 640 10;
#X obj 306 4 cnv 15 250 40 empty empty empty 12 13 0 18 #7c7c7c #e0e4dc 0;
#N canvas 382 141 749 319 (subpatch) 0;
#X coords 0 -1 1 1 252 42 2 100 100;
#X restore 305 3 pd;
#X obj 345 11 cnv 10 10 10 empty empty ELSE 0 15 2 30 #7c7c7c #e0e4dc 0;
#X obj 23 40 cnv 4 4 4 empty empty Generate\ harmonic\ series 0 28 2 18 #e0e0e0 #000000 0;
#X obj 458 11 cnv 10 10 10 empty empty EL 0 6 2 13 #7c7c7c #e0e4dc 0;
#X obj 478 11 cnv 10 10 10 empty empty Locus 0 6 2 13 #7c7c7c #e0e4dc 0;
#X obj 515 11 cnv 10 10 10 empty empty Solus' 0 6 2 13 #7c7c7c #e0e4dc 0;
#X obj 464 26 cnv 10 10 10 empty empty ELSE 0 6 2 13 #7c7c7c #e0e4dc 0;
#X obj 502 26 cnv 10 10 10 empty empty library 0 6 2 13 #7c7c7c #e0e4dc 0;
#X obj 3 3 cnv 15 301 42 empty empty list.harm 20 20 2 37 #e0e0e0 #000000 0;
#N canvas 0 22 450 278 (subpatch) 0;
#X coords 0 1 100 -1 302 42 1 0 0;
#X restore 3 3 graph;
#X obj 4 346 cnv 3 550 3 empty empty inlets 8 12 0 13 #dcdcdc #000000 0;
#X obj 4 470 cnv 3 550 3 empty empty outlets 8 12 0 13 #dcdcdc #000000 0;
#X obj 4 543 cnv 3 550 3 empty empty arguments 8 12 0 13 #dcdcdc #000000 0;
#X obj 122 355 cnv 17 3 52 empty empty 0 5 9 0 16 #dcdcdc #9c9c9c 0;
#X obj 122 418 cnv 17 3 17 empty empty 1 5 9 0 16 #dcdcdc #9c9c9c 0;
#X obj 122 441 cnv 17 3 17 empty empty 2 5 9 0 16 #dcdcdc #9c9c9c 0;
#X obj 4 611 cnv 15 552 21 empty empty empty 20 12 0 14 #e0e0e0 #202020 0;
#X text 180 355 float;
#X text 180 417 float;
#X text 180 441 float;
#X text 186 481 list;
#X obj 122 480 cnv 17 3 17 empty empty 0 5 9 0 16 #dcdcdc #9c9c9c 0;
#X text 150 572 2) float;
#X text 150 554 1) float;
#X text 150 589 3) float;
#X obj 166 230 bng 19 250 50 0 empty empty empty 0 -8 0 10 #dfdfdf #000000 #000000;
#X text 186 371 bang;
#X text 39 222 see also:;
#X obj 38 272 else/amean;
#X obj 38 294 else/loop;
#X obj 4 505 cnv 3 550 3 empty empty flags 8 12 0 13 #dcdcdc #000000 0;
#X floatatom 210 236 5 0 0 0 - - - 0;
#X floatatom 274 248 5 0 0 0 - - - 0;
#X msg 274 223 3;
#X obj 38 248 else/list.inc;
#X floatatom 351 248 7 0 0 0 - - - 0;
#X msg 351 223 1.013;
#X msg 198 203 100 5 0.5;
#X text 216 589 - harmonic index (default 1);
#X text 216 572 - number of harmonics (default 1);
#X text 216 554 - fundamental (default 0);
#X text 226 417 - number of harmonics;
#X text 226 441 - harmonic index;
#X text 226 481 - the generated harmonic series;
#N canvas 631 212 472 331 subharmonics 0;
#X obj 96 153 bng 19 250 50 0 empty empty empty 0 -8 0 10 #dfdfdf #000000 #000000;
#X floatatom 169 177 5 0 0 0 - - - 0;
#X floatatom 235 199 5 0 0 0 - - - 0;
#X msg 235 174 3;
#X floatatom 327 199 7 0 0 0 - - - 0;
#X msg 327 174 1.013;
#X msg 157 144 100 5 0.5;
#X listbox 144 256 39 0 0 0 - - - 0;
#X msg 144 108 sub \$1;
#X obj 144 80 tgl 16 0 empty empty empty 0 -8 0 10 #dfdfdf #000000 #000000 0 21;
#X obj 144 226 else/list.harm -sub 100 5 1.003;
#X text 110 20 The 'sub' flag or message generates a list of subharmonics \, where the fundamental is divided by the generated harmonic series., f 43;
#X connect 0 0 10 0;
#X connect 1 0 10 0;
#X connect 2 0 10 1;
#X connect 3 0 2 0;
#X connect 4 0 10 2;
#X connect 5 0 4 0;
#X connect 6 0 10 0;
#X connect 8 0 10 0;
#X connect 9 0 8 0;
#X connect 10 0 7 0;
#X restore 434 297 pd subharmonics;
#X listbox 198 305 29 0 0 0 - - - 0;
#X obj 198 275 else/list.harm 100 5 1.003;
#X text 62 91 Use [list.harm] to generate a list of harmonics. The left inlet sets the fundamental \, the mid inlet sets the number of partials \, and the right inlet sets the harmonic index. The default harmonic index is '1' \, so the generated harmonic series is '1 2 3 4 etc...' and an index of '0.5' generates '1 1.5 2 2.5 etc...' \, the fundamental value is then multiplied by this series., f 68;
#X text 128 516 -sub: sets to subharmonic mode;
#X text 144 386 sub <float>;
#X text 226 386 - sets to subharmonic mode, f 35;
#X text 226 371 - generate harmonic series with current values;
#X text 226 355 - set fundamental and generate series;
#X connect 26 0 47 0;
#X connect 32 0 47 0;
#X connect 33 0 47 1;
#X connect 34 0 33 0;
#X connect 36 0 47 2;
#X connect 37 0 36 0;
#X connect 38 0 47 0;
#X connect 47 0 46 0;
