#N canvas 569 38 565 666 10;
#X obj 3 374 cnv 3 550 3 empty empty inlets 8 12 0 13 #dcdcdc #000000 0;
#X obj 3 532 cnv 3 550 3 empty empty outlets 8 12 0 13 #dcdcdc #000000 0;
#X obj 3 589 cnv 3 550 3 empty empty arguments 8 12 0 13 #dcdcdc #000000 0;
#X obj 92 541 cnv 17 3 17 empty empty 0 5 9 0 16 #dcdcdc #9c9c9c 0;
#X obj 92 382 cnv 17 3 143 empty empty 0 5 9 0 16 #dcdcdc #9c9c9c 0;
#X obj 3 635 cnv 15 552 21 empty empty empty 20 12 0 14 #e0e0e0 #202020 0;
#X obj 306 4 cnv 15 250 40 empty empty empty 12 13 0 18 #7c7c7c #e0e4dc 0;
#N canvas 382 141 749 319 (subpatch) 0;
#X coords 0 -1 1 1 252 42 2 100 100;
#X restore 305 3 pd;
#X obj 345 11 cnv 10 10 10 empty empty ELSE 0 15 2 30 #7c7c7c #e0e4dc 0;
#X obj 458 11 cnv 10 10 10 empty empty EL 0 6 2 13 #7c7c7c #e0e4dc 0;
#X obj 478 11 cnv 10 10 10 empty empty Locus 0 6 2 13 #7c7c7c #e0e4dc 0;
#X obj 515 11 cnv 10 10 10 empty empty Solus' 0 6 2 13 #7c7c7c #e0e4dc 0;
#X obj 464 26 cnv 10 10 10 empty empty ELSE 0 6 2 13 #7c7c7c #e0e4dc 0;
#X obj 502 26 cnv 10 10 10 empty empty library 0 6 2 13 #7c7c7c #e0e4dc 0;
#X obj 3 4 cnv 15 301 42 empty empty lsystem 20 20 2 37 #e0e0e0 #000000 0;
#N canvas 0 22 450 278 (subpatch) 0;
#X coords 0 1 100 -1 302 42 1 0 0;
#X restore 2 3 graph;
#X obj 30 40 cnv 4 4 4 empty empty L-system\ generator 0 28 2 18 #e0e0e0 #000000 0;
#N canvas 888 53 398 507 rules 0;
#X text 87 107 axiom a \; a a b \; b a \;;
#X text 56 86 For example \, this is a valid text:, f 47;
#X text 56 25 The text file must contain separate lines for each generation rule. The syntax is the element to be substituted followed by the substitution elements. You also need to define the axiom \, which is the first produced string., f 47;
#X text 56 156 This produces in the first iteration the 'a' output. The first rule is to substitute 'a' for 'a b' \, hence \, on the second iteration we have 'a b'. On the third iteration 'a' becomes 'a b' again \, and 'b' becomes 'a' \, so we have 'a b a'! And so on..., f 47;
#X text 55 235 This is a classic example of L-System called 'algae' and generates the Fibonacci word (where the length of each output is the Fibonacci sequence), f 47;
#X listbox 146 371 20 0 0 0 - - - 0;
#X msg 146 294 step;
#X obj 146 422 list length;
#X floatatom 146 447 8 0 0 0 - - - 0;
#X obj 156 397 print pattern;
#X msg 160 316 reset;
#X obj 146 342 else/lsystem algae.txt;
#X floatatom 275 370 5 0 0 0 - - - 0;
#X connect 5 0 7 0;
#X connect 5 0 9 0;
#X connect 6 0 11 0;
#X connect 7 0 8 0;
#X connect 10 0 11 0;
#X connect 11 0 5 0;
#X connect 11 1 12 0;
#X restore 491 302 pd rules;
#X msg 164 161 4;
#X listbox 201 317 20 0 0 0 - - - 0;
#X obj 201 161 bng 16 250 50 0 empty empty empty 0 -8 0 10 #dfdfdf #000000 #000000;
#X text 162 381 bang;
#X text 156 396 float;
#X text 162 541 list;
#X text 198 541 - the fractal pattern;
#X text 158 597 1) symbol - textfile containing the rules;
#X text 162 411 step;
#X text 198 411 -;
#X msg 215 185 step;
#X text 248 185 iterate a new generation step;
#X msg 224 210 reset;
#X text 263 211 reset step to '0';
#X text 156 437 reset;
#X text 198 437 - reset 'step' message to zero, f 52;
#X text 210 411 iterates and outputs a new generation step (from 0 when reseted or from the last generated pattern), f 50;
#X obj 201 345 print pattern;
#X text 108 482 import <list>;
#X text 198 482 - import text from a list, f 52;
#X msg 89 202 show;
#X msg 131 202 hide;
#X text 48 187 same as click, f 7;
#X text 62 290 click to show text -->;
#X text 162 497 show;
#X text 162 512 hide;
#X text 198 497 - show text window (same as clicking on the object), f 52;
#X text 198 512 - hide text window, f 52;
#X floatatom 342 316 4 0 0 0 - - - 0;
#X text 370 310 step number, f 6;
#X text 223 154 generates the pattern with the start step number (given as argument or float input), f 43;
#X text 94 146 set start step and output, f 14;
#X text 198 381 - generate output from start step, f 52;
#X text 198 396 - set start step and generate output, f 52;
#X text 164 613 2) float - start number of generation steps;
#X text 60 95 An L-system (Lindenmayer system) is a formal grammar used to generate recursive \, self-similar fractal patterns. It takes a textfile containing generation rules and a start number of generation steps as arguments., f 72;
#X text 108 452 open <symbol>;
#X msg 233 236 open cantor.txt;
#X text 334 235 open a new textfile;
#N canvas 676 118 662 445 import 0;
#X restore 485 324 pd import;
#N canvas 631 133 453 599 example 1;
#X obj 116 378 else/play.file~ bagal.flac, f 15;
#X obj 227 378 else/play.file~ dholak.flac, f 15;
#X obj 129 189 tgl 21 1 empty empty empty 0 -8 0 10 #dfdfdf #000000 #000000 0 1;
#X obj 119 504 out~;
#X obj 116 317 select a b, f 11;
#X obj 116 294 else/list.seq -loop;
#X listbox 116 160 42 0 0 0 - - - 0;
#X obj 227 321 bng 16 250 50 0 empty empty empty 0 -8 0 10 #dfdfdf #000000 #000000;
#X obj 116 84 else/initmess 7;
#X floatatom 116 107 4 1 8 0 - - - 0;
#X obj 116 430 else/drive~ 5;
#X obj 227 430 else/drive~ 5;
#X text 94 25 An example using the generated string to control a rythmic pattern., f 37;
#X obj 116 131 else/lsystem algae.txt;
#X obj 116 348 bng 16 250 50 0 empty empty empty 0 -8 0 10 #dfdfdf #000000 #000000;
#X obj 227 348 bng 16 250 50 0 empty empty empty 0 -8 0 10 #dfdfdf #000000 #000000;
#X obj 116 460 else/stereo.rev~ 1 0.5 0 0.1, f 16;
#X obj 67 230 sel 0;
#X msg 67 251 goto 1;
#X obj 129 234 else/tempo -mul 4 60 5, f 11;
#X connect 0 0 10 0;
#X connect 1 0 11 0;
#X connect 2 0 17 0;
#X connect 2 0 19 0;
#X connect 4 0 14 0;
#X connect 4 1 15 0;
#X connect 5 0 4 0;
#X connect 5 1 7 0;
#X connect 6 0 5 0;
#X connect 8 0 9 0;
#X connect 9 0 13 0;
#X connect 10 0 16 0;
#X connect 11 0 16 1;
#X connect 13 0 6 0;
#X connect 14 0 0 0;
#X connect 15 0 1 0;
#X connect 16 0 3 0;
#X connect 16 1 3 1;
#X connect 17 0 18 0;
#X connect 18 0 5 0;
#X connect 19 0 5 0;
#X restore 479 345 pd example;
#X obj 92 564 cnv 17 3 17 empty empty 1 5 9 0 16 #dcdcdc #9c9c9c 0;
#X text 156 564 float;
#X text 198 564 - number of steps;
#X msg 241 262 open;
#X text 274 262 opens dialog window;
#X text 198 452 - open textfile \, no symbol opens dialog window, f 52;
#X text 108 467 save <symbol>;
#X text 198 467 - save textfile \, no symbol saves to current name, f 52;
#X obj 201 290 else/lsystem algae.txt 5;
#X connect 18 0 67 0;
#X connect 19 0 35 0;
#X connect 20 0 67 0;
#X connect 28 0 67 0;
#X connect 30 0 67 0;
#X connect 38 0 67 0;
#X connect 39 0 67 0;
#X connect 55 0 67 0;
#X connect 62 0 67 0;
#X connect 67 0 19 0;
#X connect 67 1 46 0;
