#N canvas 406 27 564 509 10;
#X obj 2 3 cnv 15 301 42 empty empty midi.in 20 20 2 37 #e0e0e0 #000000 0;
#N canvas 0 22 450 278 (subpatch) 0;
#X coords 0 1 100 -1 302 42 1;
#X restore 2 3 graph;
#X obj 306 4 cnv 15 250 40 empty empty empty 12 13 0 18 #7c7c7c #e0e4dc 0;
#X obj 345 11 cnv 10 10 10 empty empty ELSE 0 15 2 30 #7c7c7c #e0e4dc 0;
#X obj 458 11 cnv 10 10 10 empty empty EL 0 6 2 13 #7c7c7c #e0e4dc 0;
#X obj 478 11 cnv 10 10 10 empty empty Locus 0 6 2 13 #7c7c7c #e0e4dc 0;
#X obj 515 11 cnv 10 10 10 empty empty Solus' 0 6 2 13 #7c7c7c #e0e4dc 0;
#X obj 464 26 cnv 10 10 10 empty empty ELSE 0 6 2 13 #7c7c7c #e0e4dc 0;
#X obj 502 26 cnv 10 10 10 empty empty library 0 6 2 13 #7c7c7c #e0e4dc 0;
#N canvas 0 22 450 278 (subpatch) 0;
#X coords 0 1 100 -1 252 42 1;
#X restore 305 3 graph;
#X obj 22 39 cnv 4 4 4 empty empty Get\ cooked\ MIDI\ data 0 28 2 18 #e0e0e0 #000000 0;
#N canvas 841 64 525 475 input 0;
#X obj 34 25 hsl 155 18 0 127 0 0 empty empty empty -2 -10 0 12 #dfdfdf #000000 #000000 0 1;
#X obj 393 431 outlet;
#X obj 31 126 s \$0-raw;
#X obj 393 371 r \$0-raw;
#X msg 31 59 \$1 13;
#X obj 31 89 else/ctl.out 4;
#X obj 235 21 else/keyboard 15 55 1 4 0 0 empty empty;
#X obj 235 96 else/note.out 5;
#X obj 235 131 s \$0-raw;
#X floatatom 419 218 5 0 128 0 - - - 12;
#X obj 419 294 s \$0-raw;
#X obj 419 257 else/pgm.out 11;
#X floatatom 30 192 5 0 127 0 - - - 12;
#X obj 30 268 s \$0-raw;
#X floatatom 170 192 5 0 127 0 - - - 12;
#X obj 170 268 s \$0-raw;
#X text 86 61 value \, control #;
#X floatatom 222 192 5 0 127 0 - - - 12;
#X obj 30 231 else/touch.out 13;
#X floatatom 308 200 5 0 127 0 - - - 12;
#X obj 308 276 s \$0-raw;
#X obj 308 239 else/bend.out 5;
#X obj 311 169 hsl 155 18 -1 1 0 0 empty empty empty -2 -10 0 12 #dfdfdf #000000 #000000 0 1;
#X obj 225 386 else/sysrt.out, f 15;
#X msg 39 343 clock;
#X msg 119 343 start;
#X msg 164 343 continue;
#X msg 225 343 stop;
#X msg 322 343 reset;
#X msg 265 343 sensing;
#X msg 82 343 tick;
#X obj 170 231 else/ptouch.out 12;
#X obj 364 15 else/keyboard 15 55 1 4 0 0 empty empty;
#X obj 364 137 s \$0-raw;
#X obj 364 102 else/note.out -rel 4;
#X obj 364 77 stripnote;
#X text 241 418 not yet;
#X connect 0 0 4 0;
#X connect 3 0 1 0;
#X connect 4 0 5 0;
#X connect 5 0 2 0;
#X connect 6 0 7 0;
#X connect 7 0 8 0;
#X connect 9 0 11 0;
#X connect 11 0 10 0;
#X connect 12 0 18 0;
#X connect 14 0 31 0;
#X connect 17 0 31 1;
#X connect 18 0 13 0;
#X connect 19 0 21 0;
#X connect 21 0 20 0;
#X connect 22 0 19 0;
#X connect 24 0 23 0;
#X connect 25 0 23 0;
#X connect 26 0 23 0;
#X connect 27 0 23 0;
#X connect 28 0 23 0;
#X connect 29 0 23 0;
#X connect 30 0 23 0;
#X connect 31 0 15 0;
#X connect 32 0 35 0;
#X connect 34 0 33 0;
#X connect 35 0 34 0;
#X connect 35 1 34 1;
#X restore 244 154 pd input;
#X obj 2 255 cnv 3 550 3 empty empty inlets 8 12 0 13 #dcdcdc #000000 0;
#X obj 2 341 cnv 3 550 3 empty empty outlets 8 12 0 13 #dcdcdc #000000 0;
#X obj 2 439 cnv 3 550 3 empty empty arguments 8 12 0 13 #dcdcdc #000000 0;
#X obj 120 351 cnv 17 3 17 empty empty 0 5 9 0 16 #dcdcdc #9c9c9c 0;
#X obj 2 470 cnv 15 552 21 empty empty empty 20 12 0 14 #e0e0e0 #202020 0;
#X text 170 269 float;
#X text 214 270 - Raw MIDI data;
#X obj 244 218 else/display -noflash;
#X text 148 352 anything;
#N canvas 670 144 610 527 example 0;
#X obj 34 25 hsl 155 18 0 127 0 0 empty empty empty -2 -10 0 12 #dfdfdf #000000 #000000 0 1;
#X obj 31 126 s \$0-raw;
#X obj 43 331 r \$0-raw;
#X msg 31 59 \$1 13;
#X obj 31 89 else/ctl.out 4;
#X obj 235 21 else/keyboard 15 55 1 4 0 0 empty empty;
#X obj 235 96 else/note.out 5;
#X obj 235 131 s \$0-raw;
#X floatatom 30 201 5 0 128 0 - - - 12;
#X obj 30 277 s \$0-raw;
#X obj 30 240 else/pgm.out 11;
#X floatatom 146 198 5 0 127 0 - - - 12;
#X obj 146 274 s \$0-raw;
#X floatatom 286 198 5 0 127 0 - - - 12;
#X obj 286 274 s \$0-raw;
#X text 86 61 value \, control #;
#X floatatom 338 198 5 0 127 0 - - - 12;
#X obj 146 237 else/touch.out 13;
#X floatatom 423 213 5 0 127 0 - - - 12;
#X obj 423 289 s \$0-raw;
#X obj 423 252 else/bend.out 5;
#X obj 426 182 hsl 155 18 -1 1 0 0 empty empty empty -2 -10 0 12 #dfdfdf #000000 #000000 0 1;
#X obj 43 364 else/midi.in;
#X obj 43 449 else/display -noflash;
#X obj 107 449 else/display -noflash;
#X obj 172 449 else/display -noflash;
#X obj 236 449 else/display -noflash;
#X obj 301 449 else/display -noflash;
#X obj 365 449 else/display -noflash;
#X text 152 340 The [midi.in] object is useful in conjunction to [route] if you need to collect more than one type of MIDI data.;
#X obj 286 237 else/ptouch.out 12;
#X obj 43 400 route list noteoff ctl touch polytouch pgm bend, f 75;
#X obj 426 449 else/display -noflash;
#X obj 395 17 else/keyboard 15 55 1 4 0 0 empty empty;
#X obj 395 139 s \$0-raw;
#X obj 395 104 else/note.out -rel 4;
#X obj 395 79 stripnote;
#X connect 0 0 3 0;
#X connect 2 0 22 0;
#X connect 3 0 4 0;
#X connect 4 0 1 0;
#X connect 5 0 6 0;
#X connect 6 0 7 0;
#X connect 8 0 10 0;
#X connect 10 0 9 0;
#X connect 11 0 17 0;
#X connect 13 0 30 0;
#X connect 16 0 30 1;
#X connect 17 0 12 0;
#X connect 18 0 20 0;
#X connect 20 0 19 0;
#X connect 21 0 18 0;
#X connect 22 0 31 0;
#X connect 30 0 14 0;
#X connect 31 0 23 0;
#X connect 31 1 24 0;
#X connect 31 2 25 0;
#X connect 31 3 26 0;
#X connect 31 4 27 0;
#X connect 31 5 28 0;
#X connect 31 6 32 0;
#X connect 33 0 36 0;
#X connect 35 0 34 0;
#X connect 36 0 35 0;
#X connect 36 1 35 1;
#X restore 463 216 pd example;
#X text 61 87 [midi.in] sends "cooked" MIDI data instead of "raw" data like [midiin] with MIDI data type symbol \, values and channel (but a note output is sent as a simple numeric list). It can take a raw MIDI input via its inlet but it also listens to your connected MIDI device., f 72;
#X text 48 191 see also;
#X obj 41 219 else/midi.out;
#X obj 244 186 else/midi.in;
#X text 163 447 1) float - MIDI channel (0 is OMNI);
#X obj 121 314 cnv 17 3 17 empty empty 1 5 9 0 16 #dcdcdc #9c9c9c 0;
#X text 166 315 float;
#X text 210 316 - MIDI Channel;
#X obj 120 376 cnv 17 3 17 empty empty 1 5 9 0 16 #dcdcdc #9c9c9c 0;
#X text 165 377 float;
#X text 209 378 - MIDI Channel;
#N canvas 792 220 442 303 channel 0;
#X msg 202 149 1;
#X msg 235 149 5;
#X text 265 149 <= channel;
#X msg 184 123 0;
#X text 212 123 <= omni;
#X text 17 24 An argument sets the channel number. If so \, only MIDI messages that correspond to that channel are sent. If no channel is given \, it loads "0" as the default and the object operates in omni mode \, where the objects outputs values from all channels and the channel number is output in the right outlet. You can also change the channel with the right inlet (0 sets to omni)., f 67;
#X obj 202 215 else/display;
#X obj 133 249 else/display;
#X obj 133 187 else/midi.in;
#X connect 0 0 8 1;
#X connect 1 0 8 1;
#X connect 3 0 8 1;
#X connect 8 0 7 0;
#X connect 8 1 6 0;
#X restore 463 162 pd channel;
#X text 209 352 - Cooked MIDI data;
#X obj 121 265 cnv 17 3 42 empty empty 0 5 9 0 16 #dcdcdc #9c9c9c 0;
#X text 134 286 ext <float>;
#X text 209 286 - non zero sets to listen only to external input source;
#X obj 2 405 cnv 3 550 3 empty empty flags 8 12 0 13 #dcdcdc #000000 0;
#X text 131 414 -ext: - only listen to external input source, f 72;
#N canvas 653 199 427 384 external 0;
#X obj 175 221 else/midi;
#X obj 175 309 print;
#X msg 111 240 ext \$1;
#X obj 111 212 tgl 19 0 empty empty empty 0 -8 0 10 #dfdfdf #000000 #000000 0 1;
#X text 37 42 The object automatically listens to whatever is connected as a MIDI device in Pd. So it's like it has a bult in [midiin] object feeding it. This is considered to be an "internal" source.;
#X text 37 96 The left inlet provides and "external" source of raw MIDI data input. This is needed if you have \, for instance \, the [midi] object from ELSE reading a MIDI file or something. If \, by any chance \, you just want the object to receive from this external source and not listen to the internal connected device \, you can use the '-ext' flag or 'ext' message \, to force only the external input.;
#X obj 175 277 else/midi.in;
#X connect 0 0 6 0;
#X connect 2 0 6 0;
#X connect 3 0 2 0;
#X connect 6 0 1 0;
#X restore 458 189 pd external;
#X connect 11 0 25 0;
#X connect 25 0 19 0;
