#N canvas 429 83 567 582 10;
#X obj 3 302 cnv 3 550 3 empty empty inlets 8 12 0 13 #dcdcdc #000000 0;
#X obj 3 432 cnv 3 550 3 empty empty outlets 8 12 0 13 #dcdcdc #000000 0;
#X obj 3 488 cnv 3 550 3 empty empty flags 8 12 0 13 #dcdcdc #000000 0;
#X obj 133 441 cnv 17 3 17 empty empty 0 5 9 0 16 #dcdcdc #9c9c9c 0;
#X obj 134 310 cnv 17 3 60 empty empty 0 5 9 0 16 #dcdcdc #9c9c9c 0;
#X obj 3 550 cnv 15 552 21 empty empty empty 20 12 0 14 #e0e0e0 #202020 0;
#X obj 306 4 cnv 15 250 40 empty empty empty 12 13 0 18 #7c7c7c #e0e4dc 0;
#N canvas 382 141 749 319 (subpatch) 0;
#X coords 0 -1 1 1 252 42 2 100 100;
#X restore 305 3 pd;
#X obj 345 11 cnv 10 10 10 empty empty ELSE 0 15 2 30 #7c7c7c #e0e4dc 0;
#X obj 21 40 cnv 4 4 4 empty empty Mixdown\ a\ multichannel\ input\ into\ a\ stereo\ output 0 28 2 18 #e0e0e0 #000000 0;
#X obj 458 11 cnv 10 10 10 empty empty EL 0 6 2 13 #7c7c7c #e0e4dc 0;
#X obj 478 11 cnv 10 10 10 empty empty Locus 0 6 2 13 #7c7c7c #e0e4dc 0;
#X obj 515 11 cnv 10 10 10 empty empty Solus' 0 6 2 13 #7c7c7c #e0e4dc 0;
#X obj 464 26 cnv 10 10 10 empty empty ELSE 0 6 2 13 #7c7c7c #e0e4dc 0;
#X obj 502 26 cnv 10 10 10 empty empty library 0 6 2 13 #7c7c7c #e0e4dc 0;
#N canvas 207 34 366 264 (subpatch) 0;
#X obj 51 101 tgl 42 0 \$0-tgl-s \$0-tgl-r empty 1 8 1 9 #4a4f51 #cde5c3 #fcfcfc 0 1;
#X obj 215 68 route dsp;
#X obj 215 37 receive pd;
#N canvas 977 77 379 291 set_color 0;
#X obj 47 30 inlet;
#X obj 147 200 s \$0-cnv;
#X obj 47 83 select 0 1;
#X obj 47 220 s \$0-tgl-r;
#N canvas 0 22 712 637 off 0;
#X obj 490 220 * -1;
#X obj 424 300 +;
#X obj 409 325 +;
#X obj 347 219 * -65536;
#X obj 424 220 * -256;
#X obj 409 356 - 1;
#X obj 390 189 unpack f f f;
#X obj 225 295 +;
#X obj 210 320 +;
#X obj 148 214 * -65536;
#X obj 225 215 * -256;
#X obj 291 215 * -1;
#X obj 210 351 - 1;
#X obj 191 184 unpack f f f;
#X obj 379 423 pack;
#X msg 395 152 124 124 124;
#X msg 203 154 220 220 220;
#X obj 238 121 t b b;
#X obj 238 81 inlet;
#X obj 378 485 outlet;
#X connect 0 0 1 1;
#X connect 1 0 2 1;
#X connect 2 0 5 0;
#X connect 3 0 2 0;
#X connect 4 0 1 0;
#X connect 5 0 14 1;
#X connect 6 0 3 0;
#X connect 6 1 4 0;
#X connect 6 2 0 0;
#X connect 7 0 8 1;
#X connect 8 0 12 0;
#X connect 9 0 8 0;
#X connect 10 0 7 0;
#X connect 11 0 7 1;
#X connect 12 0 14 0;
#X connect 13 0 9 0;
#X connect 13 1 10 0;
#X connect 13 2 11 0;
#X connect 14 0 19 0;
#X connect 15 0 6 0;
#X connect 16 0 13 0;
#X connect 17 0 16 0;
#X connect 17 1 15 0;
#X connect 18 0 17 0;
#X restore 47 113 pd off;
#X msg 47 180 color \$1 \$2 0;
#X msg 147 131 -4.86997e+06 -1.34937e+07;
#X msg 147 171 color \$1 0 \$2;
#X connect 0 0 2 0;
#X connect 2 0 4 0;
#X connect 2 1 6 0;
#X connect 4 0 5 0;
#X connect 4 0 7 0;
#X connect 5 0 3 0;
#X connect 6 0 7 0;
#X connect 6 0 5 0;
#X connect 7 0 1 0;
#X restore 215 165 pd set_color;
#X obj 135 122 r \$0-tgl-s;
#N canvas 121 482 450 300 (subpatch) 0;
#X obj 101 101 cnv 25 40 25 empty \$0-cnv DSP 3 13 0 20 #4a4f51 #cde5c3 0;
#X coords 0 -1 1 1 42 27 1 100 100;
#X restore 51 144 pd;
#X obj 226 139 s \$0-tgl-r;
#X msg 226 115 set \$1;
#X msg 135 177 \; pd dsp \$1;
#N canvas 256 32 278 194 load_check 0;
#X obj 136 53 sig~ 1;
#X obj 74 24 loadbang;
#X obj 136 86 snapshot~;
#X obj 91 52 del 5;
#X obj 136 151 outlet;
#X obj 74 103 tgl 15 0 empty empty empty 17 7 0 10 #fcfcfc #000000 #000000 0 1;
#X obj 74 126 switch~;
#X connect 0 0 2 0;
#X connect 1 0 3 0;
#X connect 1 0 5 0;
#X connect 2 0 4 0;
#X connect 3 0 2 0;
#X connect 3 0 5 0;
#X connect 5 0 6 0;
#X restore 51 72 pd load_check;
#X connect 1 0 3 0;
#X connect 1 0 7 0;
#X connect 2 0 1 0;
#X connect 4 0 8 0;
#X connect 4 0 3 0;
#X connect 7 0 6 0;
#X connect 9 0 0 0;
#X coords 0 -1 1 1 44 72 2 50 100;
#X restore 505 71 pd;
#X obj 134 379 cnv 17 3 17 empty empty 1 5 9 0 16 #dcdcdc #9c9c9c 0;
#X obj 3 4 cnv 15 301 42 empty empty mix~ 20 20 2 37 #e0e0e0 #000000 0;
#N canvas 0 22 450 278 (subpatch) 0;
#X coords 0 1 100 -1 302 42 1 0 0;
#X restore 2 3 graph;
#X obj 133 463 cnv 17 3 17 empty empty 1 5 9 0 16 #dcdcdc #9c9c9c 0;
#X text 219 463 signal;
#X obj 207 231 else/out~;
#X text 168 495 -gain <list> sets gain values (default 1), f 45;
#X text 213 309 signals;
#X text 271 309 - multichannel input to mix;
#X text 195 354 pan <list>;
#X text 271 354 - pan value(s) from -1 (L) to 1 (R);
#X text 189 324 gain <list>;
#X text 165 380 float/signal(s);
#X obj 134 402 cnv 17 3 17 empty empty 2 5 9 0 16 #dcdcdc #9c9c9c 0;
#X text 165 403 float/signal(s);
#X text 219 441 signal;
#X obj 190 156 else/sine~ -mc 440 660;
#X obj 51 210 else/pan2~;
#X text 51 182 see also:;
#X text 271 324 - gain value(s);
#X text 271 403 - pan value(s);
#X text 271 441 - left mix output;
#X text 271 463 - right mix output;
#X text 168 527 -pan <list> sets gain values (default 0), f 45;
#X obj 51 253 else/group~;
#X obj 51 231 else/pan~;
#X text 75 91 [mix~] \, for now \, takes a MC input and considers them as mono channels that you can set the gain and stereo panning. Later it might take other configurations. The outputs are MC signals for Left and Right channels.;
#X obj 190 186 else/mix~ -gain 0.5 0.5 -pan -1 1, f 23;
#X text 201 339 db <list>;
#X text 271 339 - gain value(s) in dB;
#X text 168 511 -db <list> sets gain values in db (default 0);
#X text 271 380 - gain value(s) (linear only \, no dB);
#N canvas 547 151 636 537 basic 0;
#X obj 199 381 else/out~;
#X obj 321 124 else/multi.vsl 200 127 0 1 8 empty empty empty 247 247 247 220 220 220 0 0 0 0 0 1 holder holder 0.244094 0 0 0 0 0 0 0;
#X obj 224 270 else/f2s~ 10;
#X obj 224 295 pow~ 4;
#X obj 199 190 else/sine~ -mc 300 400 500 600 700 900 900 1000, f 16;
#X obj 321 251 knob 25 -1 1 0 0 empty empty #dfdfdf #7c7c7c black 1 0 0 0 1 320 0 0 0 empty empty 0 12 6 -15 0 1 0 0 0 0;
#X obj 346 251 knob 25 -1 1 0 0 empty empty #dfdfdf #7c7c7c black 1 0 0 0 1 320 0 0 0 empty empty 0 12 6 -15 0 1 0 0 0 0;
#X obj 371 251 knob 25 -1 1 0 0 empty empty #dfdfdf #7c7c7c black 1 0 0 0 1 320 0 0 0 empty empty 0 12 6 -15 0 1 0 0 0 0;
#X obj 396 251 knob 25 -1 1 0 0 empty empty #dfdfdf #7c7c7c black 1 0 0 0 1 320 0 0 0 empty empty 0 12 6 -15 0 1 0 0 0 0;
#X obj 421 251 knob 25 -1 1 0 0 empty empty #dfdfdf #7c7c7c black 1 0 0 0 1 320 0 0 0 empty empty 0 12 6 -15 0 1 0 0 0 0;
#X obj 446 251 knob 25 -1 1 0 0 empty empty #dfdfdf #7c7c7c black 1 0 0 0 1 320 0 0 0 empty empty 0 12 6 -15 0 1 0 0 0 0;
#X obj 471 251 knob 25 -1 1 0 0 empty empty #dfdfdf #7c7c7c black 1 0 0 0 1 320 0 0 0 empty empty 0 12 6 -15 0 1 0 0 0 0;
#X obj 496 251 knob 25 -1 1 0 0 empty empty #dfdfdf #7c7c7c black 1 0 0 0 1 320 0 0 0 empty empty 0 12 6 -15 0 1 0 0 0 0;
#X obj 321 304 else/pack2 0 0 0 0 0 0 0 0;
#X obj 321 327 else/f2s~ 10;
#X obj 110 367 else/meter2~;
#X text 81 34 If the secondary inlets have a signal with a single channel for gain and pan \, the single value is applied to all channels. If a secondary inlet is also a multichhanel signal \, then each channel gets its gain/pan value. Note \, however \, that the number of multichannels in secondary inlets need to match the same number of channels from the left input., f 73;
#X text 83 108 When secondary inlets don't have signals connected \, you can use the 'gain' and 'pan' messages with multiple values., f 34;
#X obj 199 324 else/mix~;
#X connect 1 0 2 0;
#X connect 2 0 3 0;
#X connect 3 0 18 1;
#X connect 4 0 18 0;
#X connect 5 0 13 0;
#X connect 6 0 13 1;
#X connect 7 0 13 2;
#X connect 8 0 13 3;
#X connect 9 0 13 4;
#X connect 10 0 13 5;
#X connect 11 0 13 6;
#X connect 12 0 13 7;
#X connect 13 0 14 0;
#X connect 14 0 18 2;
#X connect 18 0 0 0;
#X connect 18 0 15 0;
#X connect 18 1 0 1;
#X connect 18 1 15 1;
#X restore 457 224 pd basic;
#N canvas 504 179 660 519 dB 0;
#X obj 293 326 else/out~;
#X obj 415 59 else/multi.vsl 200 127 -24 0 8 empty empty empty 247 247 247 220 220 220 0 0 0 0 0 1 holder holder -24 -24 -24 -24 -24 -24 -24 -24;
#X obj 318 220 else/f2s~ 10;
#X obj 318 240 pow~ 4;
#X obj 293 135 else/sine~ -mc 300 400 500 600 700 900 900 1000, f 16;
#X obj 415 186 knob 25 -1 1 0 0 empty empty #dfdfdf #7c7c7c black 1 0 0 0 1 320 0 0 0 empty empty 0 12 6 -15 0 1 0 0 0 0;
#X obj 440 186 knob 25 -1 1 0 0 empty empty #dfdfdf #7c7c7c black 1 0 0 0 1 320 0 0 0 empty empty 0 12 6 -15 0 1 0 0 0 0;
#X obj 465 186 knob 25 -1 1 0 0 empty empty #dfdfdf #7c7c7c black 1 0 0 0 1 320 0 0 0 empty empty 0 12 6 -15 0 1 0 0 0 0;
#X obj 490 186 knob 25 -1 1 0 0 empty empty #dfdfdf #7c7c7c black 1 0 0 0 1 320 0 0 0 empty empty 0 12 6 -15 0 1 0 0 0 0;
#X obj 515 186 knob 25 -1 1 0 0 empty empty #dfdfdf #7c7c7c black 1 0 0 0 1 320 0 0 0 empty empty 0 12 6 -15 0 1 0 0 0 0;
#X obj 540 186 knob 25 -1 1 0 0 empty empty #dfdfdf #7c7c7c black 1 0 0 0 1 320 0 0 0 empty empty 0 12 6 -15 0 1 0 0 0 0;
#X obj 565 186 knob 25 -1 1 0 0 empty empty #dfdfdf #7c7c7c black 1 0 0 0 1 320 0 0 0 empty empty 0 12 6 -15 0 1 0 0 0 0;
#X obj 590 186 knob 25 -1 1 0 0 empty empty #dfdfdf #7c7c7c black 1 0 0 0 1 320 0 0 0 empty empty 0 12 6 -15 0 1 0 0 0 0;
#X obj 415 239 else/pack2 0 0 0 0 0 0 0 0;
#X obj 415 262 else/f2s~ 10;
#X obj 204 312 else/meter2~;
#X obj 293 269 else/mix~;
#X obj 318 199 else/db2lin;
#X obj 141 240 else/out~;
#X obj 118 126 else/sine~ -mc 440 660;
#X obj 118 156 else/mix~ -db -6 -6 -pan -1 1, f 19;
#X obj 55 226 meter2~;
#X text 46 40 The mid signal inlet only takes linear gain values \, so you need to convert from dB if you wanna feed it that. But it is possible to give db values with the '-db' flag or the "db" message., f 51;
#X connect 1 0 17 0;
#X connect 2 0 3 0;
#X connect 3 0 16 1;
#X connect 4 0 16 0;
#X connect 5 0 13 0;
#X connect 6 0 13 1;
#X connect 7 0 13 2;
#X connect 8 0 13 3;
#X connect 9 0 13 4;
#X connect 10 0 13 5;
#X connect 11 0 13 6;
#X connect 12 0 13 7;
#X connect 13 0 14 0;
#X connect 14 0 16 2;
#X connect 16 0 0 0;
#X connect 16 0 15 0;
#X connect 16 1 0 1;
#X connect 16 1 15 1;
#X connect 17 0 2 0;
#X connect 19 0 20 0;
#X connect 20 0 18 0;
#X connect 20 0 21 0;
#X connect 20 1 18 1;
#X connect 20 1 21 1;
#X restore 475 247 pd dB;
#X connect 32 0 43 0;
#X connect 43 0 21 0;
#X connect 43 1 21 1;
