#N canvas 494 45 559 433 10;
#X obj 4 281 cnv 3 550 3 empty empty inlets 8 12 0 13 #dcdcdc #000000 0;
#X obj 4 337 cnv 3 550 3 empty empty outlets 8 12 0 13 #dcdcdc #000000 0;
#X obj 4 372 cnv 3 550 3 empty empty arguments 8 12 0 13 #dcdcdc #000000 0;
#X obj 132 349 cnv 17 3 17 empty empty 0 5 9 0 16 #dcdcdc #9c9c9c 0;
#X obj 126 290 cnv 17 3 39 empty empty 0 5 9 0 16 #dcdcdc #9c9c9c 0;
#X obj 4 405 cnv 15 552 21 empty empty empty 20 12 0 14 #e0e0e0 #202020 0;
#X obj 203 187 bng 19 250 50 0 empty empty empty 17 7 0 10 #dcdcdc #000000 #000000;
#X text 171 311 bang;
#X obj 306 4 cnv 15 250 40 empty empty empty 12 13 0 18 #7c7c7c #e0e4dc 0;
#N canvas 382 141 749 319 (subpatch) 0;
#X coords 0 -1 1 1 252 42 2 100 100;
#X restore 305 3 pd;
#X obj 345 11 cnv 10 10 10 empty empty ELSE 0 15 2 30 #7c7c7c #e0e4dc 0;
#X obj 23 40 cnv 4 4 4 empty empty Get\ number\ of\ channels\ from\ multi-channel\ connections 0 28 2 18 #e0e0e0 #000000 0;
#X obj 458 11 cnv 10 10 10 empty empty EL 0 6 2 13 #7c7c7c #e0e4dc 0;
#X obj 478 11 cnv 10 10 10 empty empty Locus 0 6 2 13 #7c7c7c #e0e4dc 0;
#X obj 515 11 cnv 10 10 10 empty empty Solus' 0 6 2 13 #7c7c7c #e0e4dc 0;
#X obj 464 26 cnv 10 10 10 empty empty ELSE 0 6 2 13 #7c7c7c #e0e4dc 0;
#X obj 502 26 cnv 10 10 10 empty empty library 0 6 2 13 #7c7c7c #e0e4dc 0;
#X obj 3 3 cnv 15 301 42 empty empty nchs~ 20 20 2 37 #e0e0e0 #000000 0;
#N canvas 0 22 450 278 (subpatch) 0;
#X coords 0 1 100 -1 302 42 1 0 0;
#X restore 3 3 graph;
#X text 165 349 float;
#X obj 232 246 else/display;
#X obj 232 218 else/nchs~;
#X floatatom 232 165 5 0 0 0 - - - 0;
#X floatatom 283 166 5 0 0 0 - - - 0;
#X text 201 311 - query number of channels;
#X text 201 349 - the number of channels;
#X text 227 381 NONE;
#X obj 456 177 else/setdsp~;
#X obj 232 188 snake~ in;
#X text 63 84 [nchs~] gets the number of channels from a multi-channel connection \, as provided by [snake~ in] \, [clone] or other objects. The object outputs values whenever the DSP chain gets updated and you can also query for the number of channels with a bang message. It also works in subpatches or abstractions because [inlet~] is also multi-channel aware., f 68;
#X text 152 291 signals;
#X text 201 291 - input signal to query number of channels;
#X connect 6 0 21 0;
#X connect 21 0 20 0;
#X connect 22 0 28 0;
#X connect 23 0 28 1;
#X connect 28 0 21 0;
