#N canvas 532 81 561 463 10;
#X obj 2 282 cnv 3 552 3 empty empty inlets 8 12 0 13 #dcdcdc #000000 0;
#X obj 2 337 cnv 3 550 3 empty empty outlets 8 12 0 13 #dcdcdc #000000 0;
#X obj 2 402 cnv 3 550 3 empty empty arguments 8 12 0 13 #dcdcdc #000000 0;
#X obj 150 316 cnv 17 3 17 empty empty 1 5 9 0 16 #dcdcdc #9c9c9c 0;
#X obj 150 348 cnv 17 3 17 empty empty 0 5 9 0 16 #dcdcdc #9c9c9c 0;
#X obj 150 289 cnv 17 3 17 empty empty 0 5 9 0 16 #dcdcdc #9c9c9c 0;
#X obj 2 429 cnv 15 552 21 empty empty empty 20 12 0 14 #e0e0e0 #202020 0;
#X text 215 290 -;
#X text 175 290 float;
#X text 215 317 -;
#X text 175 317 float;
#X text 215 350 -;
#X text 240 409 (none);
#X text 232 317 note velocity, f 25;
#X text 232 290 midi pitch, f 25;
#X text 181 350 list;
#X obj 2 2 cnv 15 301 42 empty empty notes.on 20 20 2 37 #e0e0e0 #000000 0;
#N canvas 0 22 450 278 (subpatch) 0;
#X coords 0 1 100 -1 302 42 1;
#X restore 2 2 graph;
#X obj 23 39 cnv 4 4 4 empty empty List\ of\ active\ picthes 0 28 2 18 #e0e0e0 #000000 0;
#X obj 306 3 cnv 15 250 40 empty empty empty 12 13 0 18 #7c7c7c #e0e4dc 0;
#N canvas 382 141 749 319 (subpatch) 0;
#X coords 0 -1 1 1 252 42 2 100 100;
#X restore 305 2 pd;
#X obj 345 10 cnv 10 10 10 empty empty ELSE 0 15 2 30 #7c7c7c #e0e4dc 0;
#X obj 458 10 cnv 10 10 10 empty empty EL 0 6 2 13 #7c7c7c #e0e4dc 0;
#X obj 478 10 cnv 10 10 10 empty empty Locus 0 6 2 13 #7c7c7c #e0e4dc 0;
#X obj 515 10 cnv 10 10 10 empty empty Solus' 0 6 2 13 #7c7c7c #e0e4dc 0;
#X obj 464 25 cnv 10 10 10 empty empty ELSE 0 6 2 13 #7c7c7c #e0e4dc 0;
#X obj 502 25 cnv 10 10 10 empty empty library 0 6 2 13 #7c7c7c #e0e4dc 0;
#X text 52 83 [notes.on] sends a sorted list of MIDI pitches for active note on messages., f 63;
#X obj 189 222 else/notes.on, f 15;
#X listbox 189 251 28 0 0 0 - - - 0;
#X obj 189 117 else/keyboard 14 60 2 3 0 0 empty empty;
#X obj 208 192 else/note.in;
#X text 21 202 see also:;
#X obj 22 227 else/noteinfo;
#X floatatom 292 222 5 0 0 0 - - - 0;
#X text 232 350 active pitches (or symbol 'none' if empty);
#X obj 150 376 cnv 17 3 17 empty empty 1 5 9 0 16 #dcdcdc #9c9c9c 0;
#X text 215 377 -;
#X text 175 377 float;
#X text 232 377 number of voices, f 25;
#X connect 28 0 29 0;
#X connect 28 1 34 0;
#X connect 30 0 28 0;
#X connect 31 0 28 0;
