#N canvas 441 65 560 477 10;
#X obj 3 280 cnv 3 550 3 empty empty inlets 8 12 0 13 #dcdcdc #000000 0;
#X obj 3 353 cnv 3 550 3 empty empty outlets 8 12 0 13 #dcdcdc #000000 0;
#X obj 3 410 cnv 3 550 3 empty empty arguments 8 12 0 13 #dcdcdc #000000 0;
#X obj 133 362 cnv 17 3 17 empty empty 0 5 9 0 16 #dcdcdc #9c9c9c 0;
#X obj 134 288 cnv 17 3 35 empty empty 0 5 9 0 16 #dcdcdc #9c9c9c 0;
#X obj 3 444 cnv 15 552 21 empty empty empty 20 12 0 14 #e0e0e0 #202020 0;
#X obj 306 4 cnv 15 250 40 empty empty empty 12 13 0 18 #7c7c7c #e0e4dc 0;
#N canvas 382 141 749 319 (subpatch) 0;
#X coords 0 -1 1 1 252 42 2 100 100;
#X restore 305 3 pd;
#X obj 345 11 cnv 10 10 10 empty empty ELSE 0 15 2 30 #7c7c7c #e0e4dc 0;
#X obj 75 40 cnv 4 4 4 empty empty panning 0 28 2 18 #e0e0e0 #000000 0;
#X obj 21 40 cnv 4 4 4 empty empty Stereo 0 28 2 18 #e0e0e0 #000000 0;
#X obj 458 11 cnv 10 10 10 empty empty EL 0 6 2 13 #7c7c7c #e0e4dc 0;
#X obj 478 11 cnv 10 10 10 empty empty Locus 0 6 2 13 #7c7c7c #e0e4dc 0;
#X obj 515 11 cnv 10 10 10 empty empty Solus' 0 6 2 13 #7c7c7c #e0e4dc 0;
#X obj 464 26 cnv 10 10 10 empty empty ELSE 0 6 2 13 #7c7c7c #e0e4dc 0;
#X obj 502 26 cnv 10 10 10 empty empty library 0 6 2 13 #7c7c7c #e0e4dc 0;
#N canvas 207 34 366 264 (subpatch) 0;
#X obj 51 101 tgl 42 0 \$0-tgl-s \$0-tgl-r empty 1 8 1 9 #4a4f51 #cde5c3 #fcfcfc 0 1;
#X obj 215 68 route dsp;
#X obj 215 37 receive pd;
#N canvas 977 77 379 291 set_color 0;
#X obj 47 30 inlet;
#X obj 147 200 s \$0-cnv;
#X obj 47 83 select 0 1;
#X obj 47 220 s \$0-tgl-r;
#N canvas 0 22 712 637 off 0;
#X obj 490 220 * -1;
#X obj 424 300 +;
#X obj 409 325 +;
#X obj 347 219 * -65536;
#X obj 424 220 * -256;
#X obj 409 356 - 1;
#X obj 390 189 unpack f f f;
#X obj 225 295 +;
#X obj 210 320 +;
#X obj 148 214 * -65536;
#X obj 225 215 * -256;
#X obj 291 215 * -1;
#X obj 210 351 - 1;
#X obj 191 184 unpack f f f;
#X obj 379 423 pack;
#X msg 395 152 124 124 124;
#X msg 203 154 220 220 220;
#X obj 238 121 t b b;
#X obj 238 81 inlet;
#X obj 378 485 outlet;
#X connect 0 0 1 1;
#X connect 1 0 2 1;
#X connect 2 0 5 0;
#X connect 3 0 2 0;
#X connect 4 0 1 0;
#X connect 5 0 14 1;
#X connect 6 0 3 0;
#X connect 6 1 4 0;
#X connect 6 2 0 0;
#X connect 7 0 8 1;
#X connect 8 0 12 0;
#X connect 9 0 8 0;
#X connect 10 0 7 0;
#X connect 11 0 7 1;
#X connect 12 0 14 0;
#X connect 13 0 9 0;
#X connect 13 1 10 0;
#X connect 13 2 11 0;
#X connect 14 0 19 0;
#X connect 15 0 6 0;
#X connect 16 0 13 0;
#X connect 17 0 16 0;
#X connect 17 1 15 0;
#X connect 18 0 17 0;
#X restore 47 113 pd off;
#X msg 47 180 color \$1 \$2 0;
#X msg 147 131 -4.86997e+06 -1.34937e+07;
#X msg 147 171 color \$1 0 \$2;
#X connect 0 0 2 0;
#X connect 2 0 4 0;
#X connect 2 1 6 0;
#X connect 4 0 5 0;
#X connect 4 0 7 0;
#X connect 5 0 3 0;
#X connect 6 0 7 0;
#X connect 6 0 5 0;
#X connect 7 0 1 0;
#X restore 215 165 pd set_color;
#X obj 135 122 r \$0-tgl-s;
#N canvas 121 482 450 300 (subpatch) 0;
#X obj 101 101 cnv 25 40 25 empty \$0-cnv DSP 3 13 0 20 #4a4f51 #cde5c3 0;
#X coords 0 -1 1 1 42 27 1 100 100;
#X restore 51 144 pd;
#X obj 226 139 s \$0-tgl-r;
#X msg 226 115 set \$1;
#X msg 135 177 \; pd dsp \$1;
#N canvas 256 32 278 194 load_check 0;
#X obj 136 53 sig~ 1;
#X obj 74 24 loadbang;
#X obj 136 86 snapshot~;
#X obj 91 52 del 5;
#X obj 136 151 outlet;
#X obj 74 103 tgl 15 0 empty empty empty 17 7 0 10 #fcfcfc #000000 #000000 0 1;
#X obj 74 126 switch~;
#X connect 0 0 2 0;
#X connect 1 0 3 0;
#X connect 1 0 5 0;
#X connect 2 0 4 0;
#X connect 3 0 2 0;
#X connect 3 0 5 0;
#X connect 5 0 6 0;
#X restore 51 72 pd load_check;
#X connect 1 0 3 0;
#X connect 1 0 7 0;
#X connect 2 0 1 0;
#X connect 4 0 8 0;
#X connect 4 0 3 0;
#X connect 7 0 6 0;
#X connect 9 0 0 0;
#X coords 0 -1 1 1 44 72 2 50 100;
#X restore 505 71 pd;
#X obj 134 330 cnv 17 3 17 empty empty 1 5 9 0 16 #dcdcdc #9c9c9c 0;
#X text 163 331 float/signal;
#X obj 279 129 hsl 128 15 -1 1 0 0 empty empty empty -2 -8 0 10 #dcdcdc #000000 #000000 0 1;
#X floatatom 276 153 9 0 0 0 - - - 0;
#X obj 184 145 osc~ 440;
#X obj 3 4 cnv 15 301 42 empty empty pan2~ 20 20 2 37 #e0e0e0 #000000 0;
#N canvas 0 22 450 278 (subpatch) 0;
#X coords 0 1 100 -1 302 42 1 0 0;
#X restore 2 3 graph;
#X obj 184 178 else/pan2~;
#X text 261 128 L;
#X text 411 128 R;
#X text 75 91 [pan2~] performs an equal power (sin/cos) panning.;
#X text 251 331 - pan value: from -1 (L) to 1 (R);
#X obj 133 384 cnv 17 3 17 empty empty 1 5 9 0 16 #dcdcdc #9c9c9c 0;
#X text 199 384 signal;
#X text 154 421 1) float - initial pan value (default 0);
#X obj 168 213 else/out~;
#X text 181 362 signal(s);
#X obj 276 177 else/f2s~ 10;
#N canvas 405 152 726 417 multichannel 0;
#X obj 211 159 knob 50 -1 1 0 0 empty empty #dfdfdf #7c7c7c black 1 0 0 0 1 320 0 0 0 empty empty 0 0 0 0 0 0 0 0;
#X obj 211 221 f2s~;
#X obj 122 244 else/pan2~;
#X obj 122 301 else/out~;
#X obj 122 170 else/sine~ -mc 400 600, f 12;
#X obj 522 84 knob 50 -1 1 0 0 empty empty #dfdfdf #7c7c7c black 1 0 0 0 1 320 0 0 0 empty empty 0 0 0 0 0 0 0 0;
#X obj 436 195 else/pan2~;
#X obj 407 274 else/out~;
#X obj 521 242 else/meter2~;
#X obj 594 242 else/meter2~;
#X obj 436 101 else/sine~ -mc 400 600, f 12;
#X obj 122 272 else/sum~;
#X obj 209 272 else/sum~;
#X obj 75 301 env~;
#X floatatom 75 322 5 0 0 0 - - - 0;
#X obj 233 301 env~;
#X floatatom 233 322 5 0 0 0 - - - 0;
#X obj 579 84 knob 50 -1 1 0 0 empty empty #dfdfdf #7c7c7c black 1 0 0 0 1 320 0 0 0 empty empty 0 0 0 0 0 0 0 0;
#X text 47 39 If the object has a multichannel left input \, it outputs the same number of channels. If the secondary inlets have a signal with a single channel for panning \, the single value is applied to all channels. If a secondary inlet is also a multichhanel signal \, then each channel gets its panning value. Note \, however \, that the number of multichannels in secondary inlets need to match the same number of channels from the left input., f 55;
#X obj 522 141 else/pack2;
#X obj 522 162 else/insert pan;
#X text 435 34 the 'pan' message can be used to set panning for one or more channels., f 36;
#X connect 0 0 1 0;
#X connect 1 0 2 1;
#X connect 2 0 11 0;
#X connect 2 1 12 0;
#X connect 4 0 2 0;
#X connect 5 0 19 0;
#X connect 6 0 8 0;
#X connect 6 0 7 0;
#X connect 6 1 9 0;
#X connect 6 1 7 1;
#X connect 10 0 6 0;
#X connect 11 0 3 0;
#X connect 11 0 13 0;
#X connect 12 0 3 1;
#X connect 12 0 15 0;
#X connect 13 0 14 0;
#X connect 15 0 16 0;
#X connect 17 0 19 1;
#X connect 19 0 20 0;
#X connect 20 0 6 0;
#X restore 427 235 pd multichannel;
#X text 175 305 pan <list>;
#X text 181 288 signal(s);
#X text 251 288 - signal input (s);
#X text 251 305 - pan value(s) from -1 (L) to 1 (R);
#X text 251 362 - left channel(s);
#X text 251 384 - right channel(s);
#X connect 19 0 20 0;
#X connect 20 0 34 0;
#X connect 21 0 24 0;
#X connect 24 0 32 0;
#X connect 24 1 32 1;
#X connect 34 0 24 1;
