#N canvas 354 23 560 711 10;
#X obj 4 232 cnv 3 550 3 empty empty inlets 8 12 0 13 #dcdcdc #000000 0;
#X obj 4 525 cnv 3 550 3 empty empty outlets 8 12 0 13 #dcdcdc #000000 0;
#X obj 4 574 cnv 3 550 3 empty empty flags 8 12 0 13 #dcdcdc #000000 0;
#X obj 106 532 cnv 17 3 17 empty empty 0 5 9 0 16 #dcdcdc #9c9c9c 0;
#X obj 107 239 cnv 17 3 161 empty empty 0 5 9 0 16 #dcdcdc #9c9c9c 0;
#X obj 4 682 cnv 15 552 21 empty empty empty 20 12 0 14 #e0e0e0 #202020 0;
#X obj 306 4 cnv 15 250 40 empty empty empty 12 13 0 18 #7c7c7c #e0e4dc 0;
#N canvas 382 141 749 319 (subpatch) 0;
#X coords 0 -1 1 1 252 42 2 100 100;
#X restore 305 3 pd;
#X obj 345 11 cnv 10 10 10 empty empty ELSE 0 15 2 30 #7c7c7c #e0e4dc 0;
#X obj 23 40 cnv 4 4 4 empty empty 6\ operators\ Phase\ Modulation\ Matrix 0 28 2 18 #e0e0e0 #000000 0;
#X obj 458 11 cnv 10 10 10 empty empty EL 0 6 2 13 #7c7c7c #e0e4dc 0;
#X obj 478 11 cnv 10 10 10 empty empty Locus 0 6 2 13 #7c7c7c #e0e4dc 0;
#X obj 515 11 cnv 10 10 10 empty empty Solus' 0 6 2 13 #7c7c7c #e0e4dc 0;
#X obj 464 26 cnv 10 10 10 empty empty ELSE 0 6 2 13 #7c7c7c #e0e4dc 0;
#X obj 502 26 cnv 10 10 10 empty empty library 0 6 2 13 #7c7c7c #e0e4dc 0;
#X obj 3 3 cnv 15 301 42 empty empty pm6~ 20 20 2 37 #e0e0e0 #000000 0;
#N canvas 0 22 450 278 (subpatch) 0;
#X coords 0 1 100 -1 302 42 1 0 0;
#X restore 3 3 graph;
#X obj 210 173 else/out~;
#X obj 107 404 cnv 17 3 17 empty empty 1 5 9 0 16 #dcdcdc #9c9c9c 0;
#X text 196 404 signal;
#X obj 107 424 cnv 17 3 17 empty empty 2 5 9 0 16 #dcdcdc #9c9c9c 0;
#X text 196 424 signal;
#X text 196 532 signal;
#X obj 106 552 cnv 17 3 17 empty empty 1 5 9 0 16 #dcdcdc #9c9c9c 0;
#X text 196 552 signal;
#X text 239 532 - left output;
#X text 239 552 - right output;
#X text 157 662 1) float - frequency in hz (default 0);
#X obj 4 655 cnv 3 550 3 empty empty arguments 8 12 0 13 #dcdcdc #000000 0;
#X text 160 238 float/signal;
#X text 240 238 - frequency in hertz, f 47;
#X text 160 283 ratio <list>;
#X text 240 283 - set frequency ratio for operators, f 47;
#X text 240 298 - set detuning frequency for operators, f 47;
#X text 154 298 detune <list>;
#X text 172 313 pan <list>;
#X text 240 313 - set panning for operators, f 47;
#X text 136 343 ratio'n' <float>;
#X text 130 359 detune'n' <float>;
#X text 148 374 pan'n' <float>;
#X text 136 267 'i'to'j' <float>;
#X text 240 374 - set op panning ('pan1' sets op1 \, etc), f 47;
#X text 240 359 - set op detuning ('detune1' sets op1 \, etc), f 47;
#X text 240 343 - set op ratio ('ratio1' sets op1 \, etc), f 47;
#X text 240 267 - set index ('1to2' sets op1 to op2 index \, etc);
#X text 172 252 idx <list>;
#X text 240 252 - set modulation matrix values, f 47;
#X text 115 580 -ratio <list>: set frequency ratio (default all = 1), f 56;
#X text 109 608 -detune <list>: set frequency detuning (default all = 0), f 57;
#X text 127 622 -pan <list>: set paning (default all = 0), f 54;
#X text 127 636 -idx <list>: set modulation matrix (default all = 0), f 54;
#N canvas 330 94 899 534 basic 0;
#X msg 155 199 detune1 \$1;
#X msg 168 249 detune2 \$1;
#X floatatom 156 177 5 0 0 0 - - - 0;
#X floatatom 168 228 5 0 0 0 - - - 0;
#X obj 195 451 else/out~;
#X obj 93 199 sig~ 440;
#X floatatom 93 168 5 0 0 0 - - - 0;
#X floatatom 536 159 5 0 0 0 - - - 0;
#X obj 593 446 else/out~;
#X text 499 36 Similarly \, you also have 'pan' and 'vol' messages and flags. This sets panning (from -1 to 1) for each oscillator or linear volume gain for each oscillator.;
#X obj 536 98 else/knob 50 -1 1 0 0 empty empty #dfdfdf #7c7c7c black 1 0 0 0 1 320 0 0 0;
#X floatatom 674 230 5 0 0 0 - - - 0;
#X obj 674 169 else/knob 50 0 1 0 0 empty empty #dfdfdf #7c7c7c black 1 0 0 0 1 320 0 0 0;
#X msg 674 252 vol1 \$1;
#X text 721 331 default values;
#X floatatom 601 189 5 0 0 0 - - - 0;
#X obj 601 128 else/knob 50 -1 1 0 0 empty empty #dfdfdf #7c7c7c black 1 0 0 0 1 320 0 0 0;
#X msg 536 181 pan1 \$1;
#X msg 601 211 pan2 \$1;
#X floatatom 747 255 5 0 0 0 - - - 0;
#X obj 747 194 else/knob 50 0 1 0 0 empty empty #dfdfdf #7c7c7c black 1 0 0 0 1 320 0 0 0;
#X msg 747 277 vol2 \$1;
#X text 679 83 Note that panning and volume levels generate internal ramps of 10 ms at signal rate to reach the values., f 30;
#X floatatom 263 206 5 0 0 0 - - - 0;
#X floatatom 275 257 5 0 0 0 - - - 0;
#X text 35 84 You can set the ratio of each operator with messages \, as in 'ratio1' (for operator 1) or 'ratio2' (for operator 2). The 'ratio' or flag message accepts a list for all operators. Similarly the 'detune1' message sets the detuning for operator 1 and so on \, and the 'detune' message or flag sets detuning in hz for all as well., f 71;
#X msg 262 228 ratio1 \$1;
#X msg 275 278 ratio2 \$1;
#X msg 265 332 ratio 1.01 1.5 2 0.5 \, detune 10 5 1 -1, f 21;
#X text 35 22 The operators are sine wavetables oscillators. The input frequency is in hertz but each operator has its own ratio factor according to the input frequency. The default ratio value is "1" \, so it's the same as the input frequency. You can also define a 'detune' parameter in hz for each operator., f 71;
#X msg 723 352 pan 0 0 0 0 0 0 \, vol 1 1 1 1 1 1, f 16;
#X obj 154 398 else/pm6~ -ratio 1 1.5001 0.5 2 1 3 -detune 1 0.5 0 5 1 0.5, f 35;
#X obj 601 409 else/pm6~ 440;
#X connect 0 0 31 0;
#X connect 1 0 31 0;
#X connect 2 0 0 0;
#X connect 3 0 1 0;
#X connect 5 0 31 0;
#X connect 6 0 5 0;
#X connect 7 0 17 0;
#X connect 10 0 7 0;
#X connect 11 0 13 0;
#X connect 12 0 11 0;
#X connect 13 0 32 0;
#X connect 15 0 18 0;
#X connect 16 0 15 0;
#X connect 17 0 32 0;
#X connect 18 0 32 0;
#X connect 19 0 21 0;
#X connect 20 0 19 0;
#X connect 21 0 32 0;
#X connect 23 0 26 0;
#X connect 24 0 27 0;
#X connect 26 0 31 0;
#X connect 27 0 31 0;
#X connect 28 0 31 0;
#X connect 30 0 32 0;
#X connect 31 0 4 0;
#X connect 31 1 4 1;
#X connect 32 0 8 0;
#X connect 32 1 8 1;
#X restore 493 118 pd basic;
#X obj 215 122 else/initmess 1to2 0.5;
#X text 306 148 frequency;
#N canvas 689 85 549 586 modulation 0;
#X obj 109 343 else/out~;
#X floatatom 54 176 7 0 0 0 - - - 0;
#X obj 54 116 knob 50 -1 1 0 0 empty empty #dfdfdf #7c7c7c black 1 0 0 0 1 320 0 0 0;
#X obj 240 116 knob 50 -1 1 0 0 empty empty #dfdfdf #7c7c7c black 1 0 0 0 1 320 0 0 0;
#X obj 114 116 knob 50 -1 1 0 0 empty empty #dfdfdf #7c7c7c black 1 0 0 0 1 320 0 0 0;
#X obj 179 116 knob 50 -1 1 0 0 empty empty #dfdfdf #7c7c7c black 1 0 0 0 1 320 0 0 0;
#X text 22 12 You can set the modulation index for all possible interactions \, which include the operator modulating itself or each other. Use messages 'i'to'j' to set oprator 'i' modulating the input of 'j'. Note that for feedback modulation \, there's a mean average filter of 2 samples being applied., f 65;
#X msg 114 179 2to1 \$1;
#X msg 179 179 3to1 \$1;
#X msg 240 179 4to1 \$1;
#X msg 54 200 1to4 \$1;
#X text 37 424 The 'idx' message or flag sets the modulation index for all values in the modulation matrix. The list is:, f 55;
#X text 64 473 "1to1" \, "2to1" \, "3to1" \, "4to1" \, "5to1" \, "6to1" \, "1to2" \, "2to2" \, "3to2" \, "4to2" \, "5to2" \, "6to2" \, "1to3" \, "2to3" \, "3to3" \, "4to3" \, "5to3" \, "6to3" \, "1to4" \, "2to4" \, "3to4" \, "4to4" \, "5to4" \, "6to4" \, "1to5" \, "2to5" \, "3to5" \, "4to5" \, "5to5" \, "6to5" \, "1to6" \, "2to6" \, "3to6" \, "4to6" \, "5to6" \, "6to6"., f 47;
#X msg 242 217 idx 0.01 0.02 0.03 0.04 0.05 0.06 -0.01 -0.02 -0.03 -0.04 -0.05 -0.06 0.01 -0.02 0.03 -0.04 0.05 -0.06 0.001 0.002 0.003 0.004 0.005 0.006 -0.01 -0.02 -0.03 -0.04 -0.05 -0.06 0.1 0.2 0.3 0.4 0.5 0.6, f 35;
#X obj 114 307 else/pm6~ 440;
#X connect 1 0 10 0;
#X connect 2 0 1 0;
#X connect 3 0 9 0;
#X connect 4 0 7 0;
#X connect 5 0 8 0;
#X connect 7 0 14 0;
#X connect 8 0 14 0;
#X connect 9 0 14 0;
#X connect 10 0 14 0;
#X connect 13 0 14 0;
#X connect 14 0 0 0;
#X connect 14 1 0 1;
#X restore 463 140 pd modulation;
#N canvas 668 120 492 535 example 0;
#X obj 179 172 nbx 3 17 -1 1 0 0 \$0-1to1 fddfd empty 0 -10 0 12 #bbbbbb #000000 #000000 0 256;
#X obj 224 172 nbx 3 17 -1 1 0 0 \$0-2to1 fddfd empty 0 -10 0 12 #ffffff #000000 #000000 0 256;
#X obj 179 229 nbx 3 17 -1 1 0 0 \$0-1to4 fddfd empty 0 -10 0 12 #ffffff #000000 #000000 0 256;
#X obj 179 210 nbx 3 17 -1 1 0 0 \$0-1to3 fddfd empty 0 -10 0 12 #ffffff #000000 #000000 0 256;
#X obj 179 191 nbx 3 17 -1 1 0 0 \$0-1to2 fddfd empty 0 -10 0 12 #ffffff #000000 #000000 0 256;
#X obj 224 191 nbx 3 17 -1 1 0 0 \$0-2to2 fddfd empty 0 -10 0 12 #bbbbbb #000000 #000000 0 256;
#X obj 179 294 nbx 3 17 0 1 0 0 \$0-vol1 \$0-set-vol1 empty 0 -10 0 12 #000000 #ffffff #000000 0 256;
#X obj 224 294 nbx 3 17 0 1 0 0 \$0-vol2 \$0-set-vol2 empty 0 -10 0 12 #000000 #ffffff #000000 0 256;
#X obj 269 294 nbx 3 17 0 1 0 0 \$0-vol3 \$0-set-vol3 empty 0 -10 0 12 #000000 #ffffff #000000 0 256;
#X obj 180 318 knob 35 -1 1 0 0 \$0-pan1 empty #dfdfdf #7c7c7c black 0 0 0 0 1 320 0 0 0;
#X obj 224 229 nbx 3 17 -1 1 0 0 \$0-2to4 fddfd empty 0 -10 0 12 #ffffff #000000 #000000 0 256;
#X obj 224 210 nbx 3 17 -1 1 0 0 \$0-2to3 fddfd empty 0 -10 0 12 #ffffff #000000 #000000 0 256;
#X obj 269 210 nbx 3 17 -1 1 0 0 \$0-3to3 fddfd empty 0 -10 0 12 #bbbbbb #000000 #000000 0 256;
#X obj 314 229 nbx 3 17 -1 1 0 0 \$0-4to4 fddfd empty 0 -10 0 12 #bbbbbb #000000 #000000 0 256;
#X obj 269 191 nbx 3 17 -1 1 0 0 \$0-3to2 fddfd empty 0 -10 0 12 #ffffff #000000 #000000 0 256;
#X obj 269 172 nbx 3 17 -1 1 0 0 \$0-3to1 fddfd empty 0 -10 0 12 #ffffff #000000 #000000 0 256;
#X obj 269 229 nbx 3 17 -1 1 0 0 \$0-3to4 fddfd empty 0 -10 0 12 #ffffff #000000 #000000 0 256;
#X obj 314 191 nbx 3 17 -1 1 0 0 \$0-4to2 fddfd empty 0 -10 0 12 #ffffff #000000 #000000 0 256;
#X obj 314 172 nbx 3 17 -1 1 0 0 \$0-4to1 fddfd empty 0 -10 0 12 #ffffff #000000 #000000 0 256;
#X obj 314 210 nbx 3 17 -1 1 0 0 \$0-4to3 fddfd empty 0 -10 0 12 #ffffff #000000 #000000 0 256;
#X obj 314 294 nbx 3 17 0 1 0 0 \$0-vol4 \$0-set-vol4 empty 0 -10 0 12 #000000 #ffffff #000000 0 256;
#X obj 119 172 nbx 4 17 -1000 1000 0 0 \$0-detune1 fddfd empty 0 -10 0 12 #f5f7fe #000000 #000000 0 256;
#X text 64 149 Ratio:;
#X text 140 296 Level;
#X text 152 328 Pan;
#X text 243 149 Modulation Matrix:;
#X obj 60 173 nbx 4 17 0 100 0 0 \$0-ratio1 \$0-set-ratio1 empty 0 -10 0 12 #fefb00 #000000 #000000 0 256;
#X obj 60 210 nbx 4 17 0 100 0 0 \$0-ratio3 \$0-set-ratio3 empty 0 -10 0 12 #fefb00 #000000 #000000 0 256;
#X obj 60 229 nbx 4 17 0 100 0 0 \$0-ratio4 \$0-set-ratio4 empty 0 -10 0 12 #fefb00 #000000 #000000 0 256;
#X obj 60 191 nbx 4 17 0 100 0 0 \$0-ratio2 \$0-set-ratio2 empty 0 -10 0 12 #fefb00 #000000 #000000 0 256;
#X text 122 149 Detune:;
#X obj 119 210 nbx 4 17 -1000 1000 0 0 \$0-detune3 fddfd empty 0 -10 0 12 #f5f7fe #000000 #000000 0 256;
#X obj 119 229 nbx 4 17 -1000 1000 0 0 \$0-detune4 fddfd empty 0 -10 0 12 #f5f7fe #000000 #000000 0 256;
#X obj 119 191 nbx 4 17 -1000 1000 0 0 \$0-detune2 fddfd empty 0 -10 0 12 #f5f7fe #000000 #000000 0 256;
#N canvas 240 69 1019 622 set 0;
#X obj 22 42 r \$0-detune1;
#X obj 22 90 s \$0-set;
#X obj 104 90 s \$0-set;
#X obj 104 42 r \$0-detune2;
#X obj 185 90 s \$0-set;
#X obj 265 90 s \$0-set;
#X obj 185 42 r \$0-detune3;
#X obj 22 170 s \$0-set;
#X obj 104 170 s \$0-set;
#X obj 185 170 s \$0-set;
#X obj 265 170 s \$0-set;
#X obj 22 122 r \$0-ratio1;
#X msg 22 66 detune1 \$1;
#X msg 104 66 detune2 \$1;
#X msg 185 66 detune3 \$1;
#X msg 22 146 ratio1 \$1;
#X obj 104 122 r \$0-ratio2;
#X obj 185 122 r \$0-ratio3;
#X obj 265 122 r \$0-ratio4;
#X msg 104 146 ratio2 \$1;
#X msg 185 146 ratio3 \$1;
#X msg 265 146 ratio4 \$1;
#X obj 56 501 outlet;
#X obj 22 260 s \$0-set;
#X obj 104 260 s \$0-set;
#X obj 185 260 s \$0-set;
#X obj 265 260 s \$0-set;
#X obj 22 212 r \$0-vol1;
#X obj 104 212 r \$0-vol2;
#X obj 185 212 r \$0-vol3;
#X obj 265 212 r \$0-vol4;
#X msg 22 236 vol1 \$1;
#X msg 104 236 vol2 \$1;
#X msg 185 236 vol3 \$1;
#X msg 265 236 vol4 \$1;
#X obj 22 350 s \$0-set;
#X obj 104 350 s \$0-set;
#X obj 185 350 s \$0-set;
#X obj 265 350 s \$0-set;
#X obj 22 302 r \$0-pan1;
#X msg 22 326 pan1 \$1;
#X msg 104 326 pan2 \$1;
#X msg 185 326 pan3 \$1;
#X msg 265 326 pan4 \$1;
#X obj 56 461 r \$0-set;
#X obj 568 88 s \$0-set;
#X obj 638 88 s \$0-set;
#X obj 708 88 s \$0-set;
#X obj 778 88 s \$0-set;
#X obj 568 168 s \$0-set;
#X obj 638 168 s \$0-set;
#X obj 708 168 s \$0-set;
#X obj 778 168 s \$0-set;
#X obj 568 258 s \$0-set;
#X obj 638 258 s \$0-set;
#X obj 708 258 s \$0-set;
#X obj 778 258 s \$0-set;
#X obj 568 348 s \$0-set;
#X obj 638 348 s \$0-set;
#X obj 708 348 s \$0-set;
#X obj 778 348 s \$0-set;
#X obj 568 40 r \$0-1to1;
#X msg 568 64 1to1 \$1;
#X obj 638 40 r \$0-2to1;
#X obj 708 40 r \$0-3to1;
#X obj 778 40 r \$0-4to1;
#X msg 638 64 2to1 \$1;
#X msg 708 64 3to1 \$1;
#X msg 778 64 4to1 \$1;
#X obj 568 120 r \$0-1to2;
#X msg 568 144 1to2 \$1;
#X obj 638 120 r \$0-2to2;
#X msg 638 144 2to2 \$1;
#X obj 708 120 r \$0-3to2;
#X msg 708 144 3to2 \$1;
#X obj 778 120 r \$0-4to2;
#X obj 568 210 r \$0-1to3;
#X obj 638 210 r \$0-2to3;
#X obj 708 210 r \$0-3to3;
#X obj 778 210 r \$0-4to3;
#X msg 568 234 1to3 \$1;
#X msg 638 234 2to3 \$1;
#X msg 708 234 3to3 \$1;
#X msg 778 234 4to3 \$1;
#X obj 568 300 r \$0-1to4;
#X obj 638 300 r \$0-2to4;
#X obj 708 300 r \$0-3to4;
#X obj 778 300 r \$0-4to4;
#X msg 568 324 1to4 \$1;
#X msg 638 324 2to4 \$1;
#X msg 708 324 3to4 \$1;
#X msg 778 324 4to4 \$1;
#X obj 104 302 r \$0-pan2;
#X obj 185 302 r \$0-pan3;
#X obj 265 302 r \$0-pan4;
#X obj 153 571 s \$0-set-ratio1;
#X obj 167 419 else/initmess 1;
#X obj 167 549 s \$0-set-ratio2;
#X obj 179 527 s \$0-set-ratio3;
#X obj 190 505 s \$0-set-ratio4;
#X obj 357 419 else/initmess 1;
#X obj 343 571 s \$0-set-vol1;
#X obj 357 550 s \$0-set-vol2;
#X obj 367 530 s \$0-set-vol3;
#X obj 377 510 s \$0-set-vol4;
#X obj 265 42 r \$0-detune4;
#X msg 265 66 detune4 \$1;
#X msg 778 144 4to2 \$1;
#X obj 345 90 s \$0-set;
#X obj 425 90 s \$0-set;
#X obj 345 170 s \$0-set;
#X obj 425 170 s \$0-set;
#X obj 345 260 s \$0-set;
#X obj 425 260 s \$0-set;
#X obj 345 350 s \$0-set;
#X obj 425 350 s \$0-set;
#X msg 345 326 pan3 \$1;
#X msg 425 326 pan4 \$1;
#X obj 345 42 r \$0-detune5;
#X msg 345 66 detune5 \$1;
#X obj 425 42 r \$0-detune6;
#X msg 425 66 detune6 \$1;
#X obj 345 122 r \$0-ratio5;
#X msg 345 146 ratio5 \$1;
#X obj 425 122 r \$0-ratio6;
#X msg 425 146 ratio6 \$1;
#X obj 345 212 r \$0-vol5;
#X msg 345 236 vol5 \$1;
#X obj 425 212 r \$0-vol6;
#X msg 425 236 vol6 \$1;
#X obj 345 302 r \$0-pan5;
#X obj 425 302 r \$0-pan6;
#X obj 200 483 s \$0-set-ratio5;
#X obj 211 461 s \$0-set-ratio6;
#X obj 386 488 s \$0-set-vol5;
#X obj 396 468 s \$0-set-vol6;
#X obj 848 88 s \$0-set;
#X obj 918 88 s \$0-set;
#X obj 848 168 s \$0-set;
#X obj 918 168 s \$0-set;
#X obj 848 258 s \$0-set;
#X obj 918 258 s \$0-set;
#X obj 848 348 s \$0-set;
#X obj 918 348 s \$0-set;
#X obj 848 40 r \$0-5to1;
#X msg 848 64 5to1 \$1;
#X obj 918 40 r \$0-6to1;
#X msg 918 64 6to1 \$1;
#X obj 848 120 r \$0-5to2;
#X obj 918 120 r \$0-6to2;
#X msg 848 144 5to2 \$1;
#X msg 918 144 6to2 \$1;
#X obj 848 210 r \$0-5to3;
#X obj 918 210 r \$0-6to3;
#X obj 848 300 r \$0-5to4;
#X obj 918 300 r \$0-6to4;
#X obj 568 431 s \$0-set;
#X obj 638 431 s \$0-set;
#X obj 708 431 s \$0-set;
#X obj 778 431 s \$0-set;
#X obj 568 521 s \$0-set;
#X obj 638 521 s \$0-set;
#X obj 708 521 s \$0-set;
#X obj 778 521 s \$0-set;
#X obj 848 431 s \$0-set;
#X obj 918 431 s \$0-set;
#X obj 848 521 s \$0-set;
#X obj 918 521 s \$0-set;
#X obj 568 383 r \$0-1to5;
#X obj 638 383 r \$0-2to5;
#X obj 708 383 r \$0-3to5;
#X obj 778 383 r \$0-4to5;
#X obj 848 383 r \$0-5to5;
#X obj 918 383 r \$0-6to5;
#X obj 568 473 r \$0-1to6;
#X obj 638 473 r \$0-2to6;
#X obj 708 473 r \$0-3to6;
#X obj 778 473 r \$0-4to6;
#X obj 848 473 r \$0-5to6;
#X obj 918 473 r \$0-6to6;
#X msg 848 407 5to5 \$1;
#X msg 848 234 5to3 \$1;
#X msg 918 234 6to3 \$1;
#X msg 848 324 5to4 \$1;
#X msg 918 324 6to4 \$1;
#X msg 568 407 1to5 \$1;
#X msg 638 407 2to5 \$1;
#X msg 708 407 3to5 \$1;
#X msg 778 407 4to5 \$1;
#X msg 918 407 6to5 \$1;
#X msg 568 497 1to6 \$1;
#X msg 638 497 2to6 \$1;
#X msg 708 497 3to6 \$1;
#X msg 778 497 4to6 \$1;
#X msg 848 497 5to6 \$1;
#X msg 918 497 6to6 \$1;
#X connect 0 0 12 0;
#X connect 3 0 13 0;
#X connect 6 0 14 0;
#X connect 11 0 15 0;
#X connect 12 0 1 0;
#X connect 13 0 2 0;
#X connect 14 0 4 0;
#X connect 15 0 7 0;
#X connect 16 0 19 0;
#X connect 17 0 20 0;
#X connect 18 0 21 0;
#X connect 19 0 8 0;
#X connect 20 0 9 0;
#X connect 21 0 10 0;
#X connect 27 0 31 0;
#X connect 28 0 32 0;
#X connect 29 0 33 0;
#X connect 30 0 34 0;
#X connect 31 0 23 0;
#X connect 32 0 24 0;
#X connect 33 0 25 0;
#X connect 34 0 26 0;
#X connect 39 0 40 0;
#X connect 40 0 35 0;
#X connect 41 0 36 0;
#X connect 42 0 37 0;
#X connect 43 0 38 0;
#X connect 44 0 22 0;
#X connect 61 0 62 0;
#X connect 62 0 45 0;
#X connect 63 0 66 0;
#X connect 64 0 67 0;
#X connect 65 0 68 0;
#X connect 66 0 46 0;
#X connect 67 0 47 0;
#X connect 68 0 48 0;
#X connect 69 0 70 0;
#X connect 70 0 49 0;
#X connect 71 0 72 0;
#X connect 72 0 50 0;
#X connect 73 0 74 0;
#X connect 74 0 51 0;
#X connect 75 0 107 0;
#X connect 76 0 80 0;
#X connect 77 0 81 0;
#X connect 78 0 82 0;
#X connect 79 0 83 0;
#X connect 80 0 53 0;
#X connect 81 0 54 0;
#X connect 82 0 55 0;
#X connect 83 0 56 0;
#X connect 84 0 88 0;
#X connect 85 0 89 0;
#X connect 86 0 90 0;
#X connect 87 0 91 0;
#X connect 88 0 57 0;
#X connect 89 0 58 0;
#X connect 90 0 59 0;
#X connect 91 0 60 0;
#X connect 92 0 41 0;
#X connect 93 0 42 0;
#X connect 94 0 43 0;
#X connect 96 0 95 0;
#X connect 96 0 97 0;
#X connect 96 0 98 0;
#X connect 96 0 99 0;
#X connect 96 0 132 0;
#X connect 96 0 133 0;
#X connect 100 0 101 0;
#X connect 100 0 102 0;
#X connect 100 0 103 0;
#X connect 100 0 104 0;
#X connect 100 0 134 0;
#X connect 100 0 135 0;
#X connect 105 0 106 0;
#X connect 106 0 5 0;
#X connect 107 0 52 0;
#X connect 116 0 114 0;
#X connect 117 0 115 0;
#X connect 118 0 119 0;
#X connect 119 0 108 0;
#X connect 120 0 121 0;
#X connect 121 0 109 0;
#X connect 122 0 123 0;
#X connect 123 0 110 0;
#X connect 124 0 125 0;
#X connect 125 0 111 0;
#X connect 126 0 127 0;
#X connect 127 0 112 0;
#X connect 128 0 129 0;
#X connect 129 0 113 0;
#X connect 130 0 116 0;
#X connect 131 0 117 0;
#X connect 144 0 145 0;
#X connect 145 0 136 0;
#X connect 146 0 147 0;
#X connect 147 0 137 0;
#X connect 148 0 150 0;
#X connect 149 0 151 0;
#X connect 150 0 138 0;
#X connect 151 0 139 0;
#X connect 152 0 181 0;
#X connect 153 0 182 0;
#X connect 154 0 183 0;
#X connect 155 0 184 0;
#X connect 168 0 185 0;
#X connect 169 0 186 0;
#X connect 170 0 187 0;
#X connect 171 0 188 0;
#X connect 172 0 180 0;
#X connect 173 0 189 0;
#X connect 174 0 190 0;
#X connect 175 0 191 0;
#X connect 176 0 192 0;
#X connect 177 0 193 0;
#X connect 178 0 194 0;
#X connect 179 0 195 0;
#X connect 180 0 164 0;
#X connect 181 0 140 0;
#X connect 182 0 141 0;
#X connect 183 0 142 0;
#X connect 184 0 143 0;
#X connect 185 0 156 0;
#X connect 186 0 157 0;
#X connect 187 0 158 0;
#X connect 188 0 159 0;
#X connect 189 0 165 0;
#X connect 190 0 160 0;
#X connect 191 0 161 0;
#X connect 192 0 162 0;
#X connect 193 0 163 0;
#X connect 194 0 166 0;
#X connect 195 0 167 0;
#X restore 105 362 pd set;
#X obj 102 446 else/out~;
#X obj 227 318 knob 35 -1 1 0 0 \$0-pan2 empty #dfdfdf #7c7c7c black 0 0 0 0 1 320 0 0 0;
#X obj 272 318 knob 35 -1 1 0 0 \$0-pan3 empty #dfdfdf #7c7c7c black 0 0 0 0 1 320 0 0 0;
#X obj 318 318 knob 35 -1 1 0 0 \$0-pan4 empty #dfdfdf #7c7c7c black 0 0 0 0 1 320 0 0 0;
#X floatatom 52 364 5 0 0 0 - - - 12;
#X obj 359 294 nbx 3 17 0 1 0 0 \$0-vol5 \$0-set-vol5 empty 0 -10 0 12 #000000 #ffffff #000000 0 256;
#X obj 363 318 knob 35 -1 1 0 0 \$0-pan5 empty #dfdfdf #7c7c7c black 0 0 0 0 1 320 0 0 0;
#X obj 404 294 nbx 3 17 0 1 0 0 \$0-vol6 \$0-set-vol6 empty 0 -10 0 12 #000000 #ffffff #000000 0 256;
#X obj 408 318 knob 35 -1 1 0 0 \$0-pan6 empty #dfdfdf #7c7c7c black 0 0 0 0 1 320 0 0 0;
#X obj 359 248 nbx 3 17 -1 1 0 0 \$0-5to5 fddfd empty 0 -10 0 12 #bbbbbb #000000 #000000 0 256;
#X obj 404 267 nbx 3 17 -1 1 0 0 \$0-6to6 fddfd empty 0 -10 0 12 #bbbbbb #000000 #000000 0 256;
#X obj 119 248 nbx 4 17 -1000 1000 0 0 \$0-detune5 fddfd empty 0 -10 0 12 #f5f7fe #000000 #000000 0 256;
#X obj 119 267 nbx 4 17 -1000 1000 0 0 \$0-detune6 fddfd empty 0 -10 0 12 #f5f7fe #000000 #000000 0 256;
#X obj 60 248 nbx 4 17 0 100 0 0 \$0-ratio5 \$0-set-ratio5 empty 0 -10 0 12 #fefb00 #000000 #000000 0 256;
#X obj 60 267 nbx 4 17 0 100 0 0 \$0-ratio6 \$0-set-ratio6 empty 0 -10 0 12 #fefb00 #000000 #000000 0 256;
#X obj 179 267 nbx 3 17 -1 1 0 0 \$0-1to6 fddfd empty 0 -10 0 12 #ffffff #000000 #000000 0 256;
#X obj 179 248 nbx 3 17 -1 1 0 0 \$0-1to5 fddfd empty 0 -10 0 12 #ffffff #000000 #000000 0 256;
#X obj 224 267 nbx 3 17 -1 1 0 0 \$0-2to6 fddfd empty 0 -10 0 12 #ffffff #000000 #000000 0 256;
#X obj 224 248 nbx 3 17 -1 1 0 0 \$0-2to5 fddfd empty 0 -10 0 12 #ffffff #000000 #000000 0 256;
#X obj 269 267 nbx 3 17 -1 1 0 0 \$0-3to6 fddfd empty 0 -10 0 12 #ffffff #000000 #000000 0 256;
#X obj 269 248 nbx 3 17 -1 1 0 0 \$0-3to5 fddfd empty 0 -10 0 12 #ffffff #000000 #000000 0 256;
#X obj 359 191 nbx 3 17 -1 1 0 0 \$0-5to2 fddfd empty 0 -10 0 12 #ffffff #000000 #000000 0 256;
#X obj 359 172 nbx 3 17 -1 1 0 0 \$0-5to1 fddfd empty 0 -10 0 12 #ffffff #000000 #000000 0 256;
#X obj 404 191 nbx 3 17 -1 1 0 0 \$0-6to2 fddfd empty 0 -10 0 12 #ffffff #000000 #000000 0 256;
#X obj 404 172 nbx 3 17 -1 1 0 0 \$0-6to1 fddfd empty 0 -10 0 12 #ffffff #000000 #000000 0 256;
#X obj 359 210 nbx 3 17 -1 1 0 0 \$0-5to3 fddfd empty 0 -10 0 12 #ffffff #000000 #000000 0 256;
#X obj 404 210 nbx 3 17 -1 1 0 0 \$0-6to3 fddfd empty 0 -10 0 12 #ffffff #000000 #000000 0 256;
#X obj 359 229 nbx 3 17 -1 1 0 0 \$0-5to4 fddfd empty 0 -10 0 12 #ffffff #000000 #000000 0 256;
#X obj 404 229 nbx 3 17 -1 1 0 0 \$0-6to4 fddfd empty 0 -10 0 12 #ffffff #000000 #000000 0 256;
#X obj 404 248 nbx 3 17 -1 1 0 0 \$0-6to5 fddfd empty 0 -10 0 12 #ffffff #000000 #000000 0 256;
#X obj 314 267 nbx 3 17 -1 1 0 0 \$0-4to6 fddfd empty 0 -10 0 12 #ffffff #000000 #000000 0 256;
#X obj 314 248 nbx 3 17 -1 1 0 0 \$0-4to5 fddfd empty 0 -10 0 12 #ffffff #000000 #000000 0 256;
#X obj 359 267 nbx 3 17 -1 1 0 0 \$0-5to6 fddfd empty 0 -10 0 12 #ffffff #000000 #000000 0 256;
#X text 58 342 Hz;
#X obj 105 407 else/pm6~ 440;
#X text 31 173 OP1;
#X text 31 192 OP2;
#X text 31 211 OP3;
#X text 31 230 OP4;
#X text 31 248 OP5;
#X text 31 267 OP6;
#X text 185 361 OP1;
#X text 233 361 OP2;
#X text 278 361 OP3;
#X text 326 361 OP4;
#X text 370 361 OP5;
#X text 418 361 OP6;
#X text 37 36 Here's an example with GUI controls for you to have fun. You can set ratio \, detune \, level and pan for each operator. The modulation matrix sets the modulation index value for all possibilities. The gray diagonal row represents all 6 operators and the modulation index on how each modulator modulates itself. The bottom left half portion represents feed forward modulation \, from operaor 1 to operator 6 \, while the other right top half sets feedback modulation from operator 6 to operator 1!, f 66;
#X connect 34 0 69 0;
#X connect 39 0 69 0;
#X connect 69 0 35 0;
#X connect 69 1 35 1;
#X restore 481 181 pd example;
#N canvas 826 157 353 348 level-in 0;
#X obj 139 248 else/out~;
#X obj 105 160 sig~;
#X obj 105 123 tgl 21 0 empty empty empty 0 -8 0 10 #dfdfdf #000000 #000000 0 1;
#X obj 139 160 sig~;
#X obj 139 123 tgl 21 0 empty empty empty 0 -8 0 10 #dfdfdf #000000 #000000 0 1;
#X obj 172 160 sig~;
#X obj 172 123 tgl 21 0 empty empty empty 0 -8 0 10 #dfdfdf #000000 #000000 0 1;
#X obj 206 160 sig~;
#X obj 206 123 tgl 21 0 empty empty empty 0 -8 0 10 #dfdfdf #000000 #000000 0 1;
#X text 104 100 op1;
#X text 137 100 op2;
#X text 170 100 op3;
#X text 203 100 op4;
#X text 33 38 There are signal inputs to adjust the levels of each operator. use this to include things like envelopes that controls the amplitude of each operator., f 44;
#X obj 239 160 sig~;
#X obj 239 123 tgl 21 0 empty empty empty 0 -8 0 10 #dfdfdf #000000 #000000 0 1;
#X obj 273 160 sig~;
#X obj 273 123 tgl 21 0 empty empty empty 0 -8 0 10 #dfdfdf #000000 #000000 0 1;
#X text 237 100 op5;
#X text 270 100 op6;
#X obj 72 197 else/pm6~ 440, f 34;
#X connect 1 0 20 1;
#X connect 2 0 1 0;
#X connect 3 0 20 2;
#X connect 4 0 3 0;
#X connect 5 0 20 3;
#X connect 6 0 5 0;
#X connect 7 0 20 4;
#X connect 8 0 7 0;
#X connect 14 0 20 5;
#X connect 15 0 14 0;
#X connect 16 0 20 6;
#X connect 17 0 16 0;
#X connect 20 0 0 0;
#X connect 20 1 0 1;
#X restore 475 160 pd level-in;
#X obj 107 444 cnv 17 3 17 empty empty 3 5 9 0 16 #dcdcdc #9c9c9c 0;
#X text 196 444 signal;
#X obj 107 464 cnv 17 3 17 empty empty 4 5 9 0 16 #dcdcdc #9c9c9c 0;
#X text 196 464 signal;
#X text 172 328 vol <list>;
#X text 240 328 - set volume for operators, f 47;
#X text 148 388 vol'n' <float>;
#X text 240 388 - set op volume ('pan1' sets op1 \, etc), f 47;
#X text 127 594 -vol <list>: set volumes (default all = 1), f 54;
#X text 239 404 - master level for operator 1;
#X text 239 424 - master level for operator 2;
#X text 239 444 - master level for operator 3;
#X text 239 465 - master level for operator 4;
#X text 88 122 set mod index -----> (from op1 to op2), f 20;
#X obj 107 484 cnv 17 3 17 empty empty 5 5 9 0 16 #dcdcdc #9c9c9c 0;
#X text 196 484 signal;
#X obj 107 504 cnv 17 3 17 empty empty 6 5 9 0 16 #dcdcdc #9c9c9c 0;
#X text 196 504 signal;
#X text 239 485 - master level for operator 5;
#X text 239 505 - master level for operator 6;
#X text 61 85 [op6~] is a 6 operators FM (actually phase modulation) synthesizer. Each oscillator can modulate itself and each other., f 69;
#X obj 215 148 else/pm6~ 440;
#N canvas 628 213 479 379 multichannel 0;
#X obj 191 264 else/out.mc~;
#X text 39 21 The object has multichannel support. If the left input has more than one channel \, it outputs the same number of channels in both outlets. If the secondary inlets have a signal with a single channel for the operator's master level \, the single value is applied to all channels. If a secondary inlet is also a multichhanel signal \, then each channel gets its master level value. Note \, however \, that the number of multichannels in secondary inlets need to match the same number of channels from the left input., f 70;
#X obj 191 213 else/pm6~, f 11;
#X obj 191 155 else/sigs~ 333 444;
#X connect 2 0 0 0;
#X connect 3 0 2 0;
#X restore 451 203 pd multichannel;
#X obj 27 187 else/pm~;
#X obj 21 208 else/pm4~;
#X text 20 163 see also:;
#X connect 52 0 78 0;
#X connect 78 0 17 0;
#X connect 78 1 17 1;
