#N canvas 406 23 561 610 10;
#X obj 306 4 cnv 15 250 40 empty empty empty 12 13 0 18 #7c7c7c #e0e4dc 0;
#N canvas 382 141 749 319 (subpatch) 0;
#X coords 0 -1 1 1 252 42 2 0 0;
#X restore 305 3 pd;
#X obj 345 11 cnv 10 10 10 empty empty ELSE 0 15 2 30 #7c7c7c #e0e4dc 0;
#X obj 458 11 cnv 10 10 10 empty empty EL 0 6 2 13 #7c7c7c #e0e4dc 0;
#X obj 478 11 cnv 10 10 10 empty empty Locus 0 6 2 13 #7c7c7c #e0e4dc 0;
#X obj 515 11 cnv 10 10 10 empty empty Solus' 0 6 2 13 #7c7c7c #e0e4dc 0;
#X obj 464 26 cnv 10 10 10 empty empty ELSE 0 6 2 13 #7c7c7c #e0e4dc 0;
#X obj 502 26 cnv 10 10 10 empty empty library 0 6 2 13 #7c7c7c #e0e4dc 0;
#X obj 2 305 cnv 3 550 3 empty empty inlets 8 12 0 13 #dcdcdc #000000 0;
#X obj 3 418 cnv 3 550 3 empty empty outlets 8 12 0 13 #dcdcdc #000000 0;
#X obj 3 493 cnv 3 550 3 empty empty arguments 8 12 0 13 #dcdcdc #000000 0;
#X obj 122 427 cnv 17 3 17 empty empty 0 5 9 0 16 #dcdcdc #9c9c9c 0;
#X obj 122 312 cnv 17 3 32 empty empty 0 5 9 0 16 #dcdcdc #9c9c9c 0;
#X obj 3 583 cnv 15 552 21 empty empty empty 20 12 0 14 #e0e0e0 #202020 0;
#X text 165 314 float/signal -;
#X obj 122 370 cnv 17 3 17 empty empty 2 5 9 0 16 #dcdcdc #9c9c9c 0;
#X text 165 372 float/signal -;
#X obj 122 393 cnv 17 3 17 empty empty 3 5 9 0 16 #dcdcdc #9c9c9c 0;
#X text 200 427 signal -;
#X text 134 502 1) float;
#N canvas 207 34 366 264 (subpatch) 0;
#X obj 51 101 tgl 42 0 \$0-tgl-s \$0-tgl-r empty 1 8 1 9 #dcdcdc #7c7c7c #fcfcfc 0 1;
#X obj 215 68 route dsp;
#X obj 215 37 receive pd;
#N canvas 977 77 379 291 set_color 0;
#X obj 47 30 inlet;
#X obj 147 200 s \$0-cnv;
#X obj 47 83 select 0 1;
#X obj 47 220 s \$0-tgl-r;
#N canvas 0 22 712 637 off 0;
#X obj 490 220 * -1;
#X obj 424 300 +;
#X obj 409 325 +;
#X obj 347 219 * -65536;
#X obj 424 220 * -256;
#X obj 409 356 - 1;
#X obj 390 189 unpack f f f;
#X obj 225 295 +;
#X obj 210 320 +;
#X obj 148 214 * -65536;
#X obj 225 215 * -256;
#X obj 291 215 * -1;
#X obj 210 351 - 1;
#X obj 191 184 unpack f f f;
#X obj 379 423 pack;
#X msg 395 152 124 124 124;
#X msg 203 154 220 220 220;
#X obj 238 121 t b b;
#X obj 238 81 inlet;
#X obj 378 485 outlet;
#X connect 0 0 1 1;
#X connect 1 0 2 1;
#X connect 2 0 5 0;
#X connect 3 0 2 0;
#X connect 4 0 1 0;
#X connect 5 0 14 1;
#X connect 6 0 3 0;
#X connect 6 1 4 0;
#X connect 6 2 0 0;
#X connect 7 0 8 1;
#X connect 8 0 12 0;
#X connect 9 0 8 0;
#X connect 10 0 7 0;
#X connect 11 0 7 1;
#X connect 12 0 14 0;
#X connect 13 0 9 0;
#X connect 13 1 10 0;
#X connect 13 2 11 0;
#X connect 14 0 19 0;
#X connect 15 0 6 0;
#X connect 16 0 13 0;
#X connect 17 0 16 0;
#X connect 17 1 15 0;
#X connect 18 0 17 0;
#X restore 47 113 pd off;
#X msg 47 180 color \$1 \$2 0;
#X msg 147 131 -4.86997e+06 -1.34937e+07;
#X msg 147 171 color \$1 0 \$2;
#X connect 0 0 2 0;
#X connect 2 0 4 0;
#X connect 2 1 6 0;
#X connect 4 0 5 0;
#X connect 4 0 7 0;
#X connect 5 0 3 0;
#X connect 6 0 7 0;
#X connect 6 0 5 0;
#X connect 7 0 1 0;
#X restore 215 165 pd set_color;
#X obj 135 122 r \$0-tgl-s;
#N canvas 121 482 450 300 (subpatch) 0;
#X obj 101 101 cnv 25 40 25 empty \$0-cnv DSP 3 13 0 20 #dcdcdc #7c7c7c 0;
#X coords 0 -1 1 1 42 27 1 100 100;
#X restore 51 144 pd;
#X obj 226 139 s \$0-tgl-r;
#X msg 226 115 set \$1;
#X msg 135 177 \; pd dsp \$1;
#N canvas 256 32 278 194 load_check 0;
#X obj 136 53 sig~ 1;
#X obj 74 24 loadbang;
#X obj 136 86 snapshot~;
#X obj 91 52 del 5;
#X obj 136 151 outlet;
#X obj 74 103 tgl 15 0 empty empty empty 17 7 0 10 #fcfcfc #000000 #000000 0 1;
#X obj 74 126 switch~;
#X connect 0 0 2 0;
#X connect 1 0 3 0;
#X connect 1 0 5 0;
#X connect 2 0 4 0;
#X connect 3 0 2 0;
#X connect 3 0 5 0;
#X connect 5 0 6 0;
#X restore 51 72 pd load_check;
#X connect 1 0 3 0;
#X connect 1 0 7 0;
#X connect 2 0 1 0;
#X connect 4 0 8 0;
#X connect 4 0 3 0;
#X connect 7 0 6 0;
#X connect 9 0 0 0;
#X coords 0 -1 1 1 44 72 2 50 100;
#X restore 505 71 pd;
#X obj 209 240 else/out~;
#X text 134 521 2) float;
#X obj 25 40 cnv 4 4 4 empty empty Phase\ modulation\ unit 0 28 2 18 #e0e0e0 #000000 0;
#X obj 122 347 cnv 17 3 17 empty empty 1 5 9 0 16 #dcdcdc #9c9c9c 0;
#X text 165 350 float/signal -;
#X text 134 541 3) float;
#X text 134 561 4) float;
#X text 165 394 float/signal -;
#X text 262 315 carrier frequency in hz;
#X text 261 372 modulation index;
#X text 261 394 phase input of modulator oscillator;
#X text 261 427 phase modulation output;
#X text 193 502 - carrier frequency in hertz (default 0);
#X text 261 351 modulation frequency in hz;
#X text 193 541 - modulation index (default 0);
#X text 193 561 - phase input of modulator oscillator (default 0);
#X obj 3 3 cnv 15 301 42 empty empty pm~ 20 20 2 37 #e0e0e0 #000000 0;
#N canvas 0 22 450 278 (subpatch) 0;
#X coords 0 1 100 -1 302 42 1;
#X restore 2 3 graph;
#X obj 176 175 nbx 5 14 -1e+37 1e+37 0 0 empty empty empty 0 -8 0 10 #dcdcdc #000000 #000000 0 256;
#X obj 240 176 nbx 5 14 -1e+37 1e+37 0 0 empty empty empty 0 -8 0 10 #dcdcdc #000000 #000000 0 256;
#X obj 305 157 nbx 5 14 -1e+37 1e+37 0 0 empty empty empty 0 -8 0 10 #dcdcdc #000000 #000000 0 256;
#X obj 308 135 hsl 128 15 0 1 0 0 empty empty empty -2 -8 0 10 #dcdcdc #000000 #000000 0 1;
#X obj 305 175 else/float2sig~ 10;
#X text 176 155 carrier;
#X text 247 155 mod;
#X text 362 157 index;
#X obj 209 207 else/pm~ 220 440;
#N canvas 657 177 554 362 ratio 0;
#X obj 208 238 else/out~;
#X obj 193 173 nbx 5 14 -1e+37 1e+37 0 0 empty empty empty 0 -8 0 10 #dcdcdc #000000 #000000 0 256;
#X obj 257 174 nbx 5 14 -1e+37 1e+37 0 0 empty empty empty 0 -8 0 10 #dcdcdc #000000 #000000 0 256;
#X obj 324 149 nbx 5 14 -1e+37 1e+37 0 0 empty empty empty 0 -8 0 10 #dcdcdc #000000 #000000 0 256;
#X obj 327 127 hsl 128 15 0 1 0 0 empty empty empty -2 -8 0 10 #dcdcdc #000000 #000000 0 1;
#X obj 324 173 else/float2sig~ 10;
#X text 193 153 carrier;
#X text 381 149 index;
#X obj 208 205 else/pm~ -ratio 220 1.501;
#X text 264 153 ratio;
#X text 107 37 In 'ratio' mode \, that you can set with the 'ratio' message or '-ratio' flag \, the modulator frequency parameter is set as a ratio of the carrier frequency.;
#X msg 115 159 ratio \$1;
#X obj 115 123 tgl 21 0 empty empty empty 0 -8 0 10 #dfdfdf #000000 #000000 0 1;
#X connect 1 0 8 0;
#X connect 2 0 8 1;
#X connect 3 0 5 0;
#X connect 4 0 3 0;
#X connect 5 0 8 2;
#X connect 8 0 0 0;
#X connect 11 0 8 0;
#X connect 12 0 11 0;
#X restore 473 220 pd ratio;
#N canvas 623 259 421 309 mod-input 0;
#X obj 111 189 else/out~;
#X obj 111 148 else/pm~ 220 331 0.5;
#X obj 228 94 osc~ 440;
#X obj 228 118 *~ 0.3;
#X text 65 37 The rightmost input is a phase modulation input for the modulator oscillator., f 41;
#X connect 1 0 0 0;
#X connect 2 0 3 0;
#X connect 3 0 1 3;
#X restore 450 246 pd mod-input;
#N canvas 628 213 479 379 multichannel 0;
#X obj 191 284 else/out.mc~;
#X obj 191 233 else/pm~;
#X obj 191 155 else/sigs~ 333 444;
#X obj 206 180 else/sigs~ 222 333;
#X obj 221 207 else/sigs~ 0.3 0.5;
#X text 39 21 The object has multichannel support. If the left input has more than one channel \, it outputs the same number of channels in both outlets. If the secondary inlets have a signal with a single channel \, the single value is applied to all channels. If a secondary inlet is also a multichhanel signal \, then each channel gets its own value. Note \, however \, that the number of multichannels in secondary inlets need to match the same number of channels from the left input., f 70;
#X connect 1 0 0 0;
#X connect 2 0 1 0;
#X connect 3 0 1 1;
#X connect 4 0 1 2;
#X restore 432 272 pd multichannel;
#X text 159 329 ratio <float> -;
#X text 262 330 non zero sets to ratio mode;
#X obj 3 454 cnv 3 550 3 empty empty flags 8 12 0 13 #dcdcdc #000000 0;
#X text 200 466 -ratio: sets to ratio mode;
#X text 193 521 - modulation frequency in hertz or ratio (default 0);
#X text 43 90 [pm~] is a very basic and simple phase modulation unit \, which consists of a pair of sinusoidal oscillators \, where one modulates the phase input of another., f 65;
#X text 27 189 see also;
#X obj 27 208 else/fm~;
#X obj 27 229 else/pm2~;
#X obj 27 250 else/fbsine~;
#X obj 27 271 else/xmod~;
#X connect 39 0 47 0;
#X connect 40 0 47 1;
#X connect 41 0 43 0;
#X connect 42 0 41 0;
#X connect 43 0 47 2;
#X connect 47 0 21 0;
