#N canvas 514 43 561 433 10;
#X obj 22 40 cnv 4 4 4 empty empty Midi\ polyphonic\ aftertouch\ output 0 28 2 18 #e0e0e0 #000000 0;
#X obj 2 3 cnv 15 301 42 empty empty ptouch.out 20 20 2 37 #e0e0e0 #000000 0;
#N canvas 0 22 450 278 (subpatch) 0;
#X coords 0 1 100 -1 302 42 1 0 0;
#X restore 2 3 graph;
#X obj 1 243 cnv 3 550 3 empty empty inlets 8 12 0 13 #dcdcdc #000000 0;
#X obj 1 328 cnv 3 550 3 empty empty outlets 8 12 0 13 #dcdcdc #000000 0;
#X obj 1 365 cnv 3 550 3 empty empty arguments 8 12 0 13 #dcdcdc #000000 0;
#X obj 1 402 cnv 15 552 21 empty empty empty 20 12 0 14 #e0e0e0 #202020 0;
#X text 208 375 -;
#X text 149 375 1) float;
#X text 197 256 float;
#X obj 153 338 cnv 17 3 17 empty empty 0 5 9 0 16 #dcdcdc #9c9c9c 0;
#X text 237 338 -;
#X text 197 338 float;
#X obj 305 4 cnv 15 250 40 empty empty empty 12 13 0 18 #7c7c7c #e0e4dc 0;
#N canvas 382 141 749 319 (subpatch) 0;
#X coords 0 -1 1 1 252 42 2 100 100;
#X restore 304 3 pd;
#X obj 344 11 cnv 10 10 10 empty empty ELSE 0 15 2 30 #7c7c7c #e0e4dc 0;
#X obj 457 11 cnv 10 10 10 empty empty EL 0 6 2 13 #7c7c7c #e0e4dc 0;
#X obj 477 11 cnv 10 10 10 empty empty Locus 0 6 2 13 #7c7c7c #e0e4dc 0;
#X obj 514 11 cnv 10 10 10 empty empty Solus' 0 6 2 13 #7c7c7c #e0e4dc 0;
#X obj 463 26 cnv 10 10 10 empty empty ELSE 0 6 2 13 #7c7c7c #e0e4dc 0;
#X obj 501 26 cnv 10 10 10 empty empty library 0 6 2 13 #7c7c7c #e0e4dc 0;
#X text 252 338 raw MIDI stream, f 18;
#X text 222 375 sets channel number (default 1);
#X text 41 148 see also:;
#X obj 217 213 midiout;
#X obj 217 147 nbx 3 14 -1e+37 1e+37 0 0 empty empty empty 0 -8 0 10 #dcdcdc #000000 #000000 0 256;
#X obj 316 146 nbx 3 14 -1e+37 1e+37 0 0 empty empty empty 0 -8 0 10 #dcdcdc #000000 #000000 0 256;
#X text 329 127 ch;
#X text 237 281 -;
#X text 197 281 float;
#X obj 217 180 else/ptouch.out 4;
#X text 257 127 pressure;
#X text 219 127 key;
#X obj 266 147 nbx 3 14 -1e+37 1e+37 0 0 empty empty empty 0 -8 0 10 #dcdcdc #000000 #000000 0 256;
#X obj 30 173 else/ptouch.in;
#X obj 30 198 else/touch.out;
#X text 69 85 [ptouch.out] formats and sends raw MIDI polyphonic aftertouch messages. An argument sets channel number (the default is 1)., f 66;
#X obj 153 254 cnv 17 3 17 empty empty 0 5 9 0 16 #dcdcdc #9c9c9c 0;
#X obj 153 278 cnv 17 3 17 empty empty 1 5 9 0 16 #dcdcdc #9c9c9c 0;
#X text 237 305 -;
#X text 197 305 float;
#X obj 153 302 cnv 17 3 17 empty empty 2 5 9 0 16 #dcdcdc #9c9c9c 0;
#X text 252 305 MIDI channel;
#X text 252 281 Aftertouch value;
#X text 237 256 - Key value;
#X connect 25 0 30 0;
#X connect 26 0 30 2;
#X connect 30 0 24 0;
#X connect 33 0 30 1;
