#N canvas 454 41 560 426 10;
#X obj 23 41 cnv 4 4 4 empty empty Midi\ polyphonic\ aftertouch\ input 0 28 2 18 #e0e0e0 #000000 0;
#X obj 3 4 cnv 15 301 42 empty empty ptouch.in 20 20 2 37 #e0e0e0 #000000 0;
#N canvas 0 22 450 278 (subpatch) 0;
#X coords 0 1 100 -1 302 42 1 0 0;
#X restore 3 4 graph;
#X obj 2 246 cnv 3 550 3 empty empty inlets 8 12 0 13 #dcdcdc #000000 0;
#X obj 2 303 cnv 3 550 3 empty empty outlets 8 12 0 13 #dcdcdc #000000 0;
#X obj 2 366 cnv 3 550 3 empty empty arguments 8 12 0 13 #dcdcdc #000000 0;
#X obj 155 257 cnv 17 3 17 empty empty 0 5 9 0 16 #dcdcdc #9c9c9c 0;
#X obj 2 399 cnv 15 552 21 empty empty empty 20 12 0 14 #e0e0e0 #202020 0;
#X text 210 375 -;
#X text 152 375 1) float;
#X text 194 259 float;
#X text 239 259 - raw MIDI data stream;
#X text 239 313 -;
#X obj 306 5 cnv 15 250 40 empty empty empty 12 13 0 18 #7c7c7c #e0e4dc 0;
#N canvas 382 141 749 319 (subpatch) 0;
#X coords 0 -1 1 1 252 42 2 100 100;
#X restore 305 4 pd;
#X obj 345 12 cnv 10 10 10 empty empty ELSE 0 15 2 30 #7c7c7c #e0e4dc 0;
#X obj 458 12 cnv 10 10 10 empty empty EL 0 6 2 13 #7c7c7c #e0e4dc 0;
#X obj 478 12 cnv 10 10 10 empty empty Locus 0 6 2 13 #7c7c7c #e0e4dc 0;
#X obj 515 12 cnv 10 10 10 empty empty Solus' 0 6 2 13 #7c7c7c #e0e4dc 0;
#X obj 464 27 cnv 10 10 10 empty empty ELSE 0 6 2 13 #7c7c7c #e0e4dc 0;
#X obj 502 27 cnv 10 10 10 empty empty library 0 6 2 13 #7c7c7c #e0e4dc 0;
#N canvas 792 220 453 261 channel 0;
#X msg 230 141 1;
#X msg 263 141 5;
#X text 293 141 <= channel;
#X msg 212 115 0;
#X text 240 115 <= omni;
#X obj 149 141 midiin;
#X text 19 15 An argument sets the channel number. If so \, only MIDI messages that correspond to that channel are sent. If no channel is given \, it loads "0" as the default and the object operates in omni mode \, where the objects outputs values from all channels and the channel number is output in the right outlet. You can also change the channel with the right inlet (0 sets to omni)., f 67;
#X obj 230 203 else/display;
#X obj 149 203 else/display;
#X obj 149 179 else/ptouch.in;
#X connect 0 0 9 1;
#X connect 1 0 9 1;
#X connect 3 0 9 1;
#X connect 5 0 9 0;
#X connect 9 0 8 0;
#X connect 9 1 7 0;
#X restore 473 216 pd channel;
#X text 224 375 sets channel number (default 0 - OMNI);
#X text 239 282 -;
#X text 199 282 float;
#X text 254 282 MIDI channel, f 31;
#X obj 155 279 cnv 17 3 17 empty empty 1 5 9 0 16 #dcdcdc #9c9c9c 0;
#X text 43 139 see also:;
#X obj 204 213 else/display;
#X text 310 216 MIDI channel;
#X obj 285 213 else/display;
#X msg 232 148 164 \, 68 \, 88;
#X obj 204 179 else/ptouch.in;
#X msg 204 124 170 \, 60 \, 120;
#X obj 38 160 else/ptouch.out;
#X obj 38 183 else/touch.in;
#X obj 155 313 cnv 17 3 17 empty empty 0 5 9 0 16 #dcdcdc #9c9c9c 0;
#X text 240 341 -;
#X text 200 341 float;
#X obj 155 339 cnv 17 3 17 empty empty 1 5 9 0 16 #dcdcdc #9c9c9c 0;
#X text 255 341 MIDI channel;
#X text 69 86 [ptouch.in] extracts MIDI polyphonic aftertouch information from raw MIDI input (such as from [midiin])., f 62;
#X text 69 216 Pitch and Aftertouch;
#X text 205 313 list;
#X text 254 314 Key and Aftertouch;
#X connect 31 0 32 0;
#X connect 32 0 28 0;
#X connect 32 1 30 0;
#X connect 33 0 32 0;
