#N canvas 513 49 564 655 10;
#X obj 194 181 hsl 128 15 441 44100 1 0 empty empty empty -2 -8 0 10 #dcdcdc #000000 #000000 0 1;
#X obj 306 4 cnv 15 250 40 empty empty empty 12 13 0 18 #7c7c7c #e0e4dc 0;
#N canvas 382 141 749 319 (subpatch) 0;
#X coords 0 -1 1 1 252 42 2 100 100;
#X restore 305 3 pd;
#X obj 345 11 cnv 10 10 10 empty empty ELSE 0 15 2 30 #7c7c7c #e0e4dc 0;
#X obj 23 40 cnv 4 4 4 empty empty General 0 28 2 18 #e0e0e0 #000000 0;
#X obj 458 11 cnv 10 10 10 empty empty EL 0 6 2 13 #7c7c7c #e0e4dc 0;
#X obj 478 11 cnv 10 10 10 empty empty Locus 0 6 2 13 #7c7c7c #e0e4dc 0;
#X obj 464 26 cnv 10 10 10 empty empty ELSE 0 6 2 13 #7c7c7c #e0e4dc 0;
#X obj 205 40 cnv 4 4 4 empty empty chaotic 0 28 2 18 #e0e0e0 #000000 0;
#X obj 3 627 cnv 15 552 21 empty empty empty 20 12 0 14 #e0e0e0 #202020 0;
#X obj 3 381 cnv 3 550 3 empty empty inlets 8 12 0 13 #dcdcdc #000000 0;
#X obj 3 452 cnv 3 550 3 empty empty outlets 8 12 0 13 #dcdcdc #000000 0;
#X obj 3 526 cnv 3 550 3 empty empty arguments 8 12 0 13 #dcdcdc #000000 0;
#X obj 94 461 cnv 17 3 17 empty empty 0 5 9 0 16 #dcdcdc #9c9c9c 0;
#X text 137 533 1) float;
#X obj 191 205 nbx 7 14 -1e+37 1e+37 0 0 empty empty empty 0 -8 0 10 #dcdcdc #000000 #000000 0 256;
#X obj 2 3 cnv 15 301 42 empty empty quad~ 20 20 2 37 #e0e0e0 #000000 0;
#N canvas 0 22 450 278 (subpatch) 0;
#X coords 0 1 100 -1 302 42 1 0 0;
#X restore 2 3 graph;
#X obj 266 40 cnv 4 4 4 empty empty generator 0 28 2 18 #e0e0e0 #000000 0;
#X text 120 204 rate in Hz;
#X text 137 550 2) float;
#X text 137 567 3) float;
#X text 197 533 - sets frequency in hertz (default: nyquist);
#X obj 191 313 else/out~;
#X text 218 463 - general quadratic map chaotic signal;
#X text 197 550 - sets a (default 1);
#X text 197 567 - sets b (default -1);
#X text 197 584 - sets c (default -0.75);
#X text 137 584 4) float;
#X text 137 602 5) float;
#X obj 88 40 cnv 4 4 4 empty empty quadratic 0 28 2 18 #e0e0e0 #000000 0;
#X obj 164 40 cnv 4 4 4 empty empty map 0 28 2 18 #e0e0e0 #000000 0;
#X text 197 602 - sets initial value of y[n-1] (default 0);
#X obj 191 285 else/quad~;
#X obj 89 390 cnv 17 3 50 empty empty 0 5 9 0 16 #dcdcdc #9c9c9c 0;
#X text 129 407 coeffs <list>;
#X text 123 390 list/signal(s);
#X text 104 424 set <float \, float> -;
#X text 231 424 <channel \, freq> set a single frequency channel;
#X text 218 390 - frequency in hertz (negative values accepted);
#X text 218 408 - up to 4 floats set 'a' \, 'b' \, 'c' and y[n-1];
#X text 150 462 signal(s);
#X text 84 91 based on SuperCollider's "QuadN" UGEN \, [quad~] generates a chaotic signal from the difference equation \; y[n] = a * y[n-1]^2 + b * y[n-1] + c;
#X text 83 139 The output rate of the equation is given in hertz (default: nyquist). The object has support for multichannels.;
#X text 94 497 -mc <list>: sets multichannel output with a list of frequencies, f 63;
#X obj 4 488 cnv 3 550 3 empty empty flags 8 12 0 13 #dcdcdc #000000 0;
#N canvas 839 247 549 379 multichannel 0;
#X obj 70 248 else/out.mc~;
#X obj 230 288 else/out~;
#X floatatom 230 106 5 0 0 0 - - - 12;
#X msg 243 137 400 600;
#X msg 256 167 400 600 700;
#X obj 70 158 sig~ 333 444;
#X msg 273 210 set 1 555;
#X text 343 203 the set message sets a single frequency channel, f 24;
#X text 33 14 If there's a multichannel input \, each represents a frequency and the object outputs the same number of channels. You can initialize it with the -mc flag (you can't set coeffs then) for multichannel output \, in which case you give it a list of frequencies. A list input also works if no signal is connected to set it to multichannel with a list of frequency input. The set message sets the frequency for one of the channels., f 76;
#X obj 70 197 quad~;
#X obj 230 257 else/quad~ -mc 440 660;
#X connect 2 0 10 0;
#X connect 3 0 10 0;
#X connect 4 0 10 0;
#X connect 5 0 9 0;
#X connect 6 0 10 0;
#X connect 9 0 0 0;
#X connect 10 0 1 0;
#X restore 409 331 pd multichannel;
#X msg 229 258 coeffs 1 -1 -0.75 0;
#X text 363 233 'a' \, 'b' \, 'c' and 'yn';
#X text 353 259 default;
#X msg 210 233 coeffs 0.8 -0.8 -0.5 0.4;
#X connect 0 0 15 0;
#X connect 15 0 33 0;
#X connect 33 0 23 0;
#X connect 47 0 33 0;
#X connect 50 0 33 0;
