#N canvas 495 38 565 593 10;
#X obj 7 566 cnv 15 552 21 empty empty empty 20 12 0 14 #e0e0e0 #202020 0;
#X obj 7 295 cnv 3 550 3 empty empty inlets 8 12 0 13 #dcdcdc #000000 0;
#X obj 7 415 cnv 3 550 3 empty empty outlets 8 12 0 13 #dcdcdc #000000 0;
#X obj 7 485 cnv 3 550 3 empty empty arguments 8 12 0 13 #dcdcdc #000000 0;
#X obj 101 424 cnv 17 3 17 empty empty 0 5 9 0 16 #dcdcdc #9c9c9c 0;
#X obj 100 393 cnv 17 3 17 empty empty 1-n 5 9 0 16 #dcdcdc #9c9c9c 0;
#X text 176 314 stop - stops recording the sample, f 61;
#X text 128 329 set <symbol> -;
#X text 116 493 1) symbol;
#X text 116 510 2) float;
#X obj 101 301 cnv 17 3 86 empty empty 0 5 9 0 16 #dcdcdc #9c9c9c 0;
#X text 170 300 start - starts recording the sample, f 62;
#X text 163 393 signal - signal inputs to record for each channel;
#X obj 7 533 cnv 3 550 3 empty empty click 8 12 0 13 #dcdcdc #000000 0;
#X text 108 543 clicking on the object opens dialog box to set a file to save to, f 65;
#X text 128 342 rate <float> - sets sample rate of the file (default Pd's samplerate), f 69;
#X text 163 425 bang - outputs a bang when stops recording;
#X text 128 356 fade <float> - sets fade time (minimum 1), f 69;
#X text 110 370 maxtime <float> - sets maximum recording time in ms, f 72;
#X obj 7 451 cnv 3 550 3 empty empty flags 8 12 0 13 #dcdcdc #000000 0;
#X text 182 493 - (optional) file name to save to (default file.wav);
#X text 182 510 - number of channels to record (default 1), f 52;
#X text 218 328 sets file name (no symbol opens dialog box), f 54;
#X obj 306 5 cnv 15 250 40 empty empty empty 12 13 0 18 #7c7c7c #e0e4dc 0;
#X obj 345 12 cnv 10 10 10 empty empty ELSE 0 15 2 30 #7c7c7c #e0e4dc 0;
#X obj 23 41 cnv 4 4 4 empty empty Record 0 28 2 18 #e0e0e0 #000000 0;
#X obj 82 41 cnv 4 4 4 empty empty sound 0 28 2 18 #e0e0e0 #000000 0;
#X obj 458 12 cnv 10 10 10 empty empty EL 0 6 2 13 #7c7c7c #e0e4dc 0;
#X obj 478 12 cnv 10 10 10 empty empty Locus 0 6 2 13 #7c7c7c #e0e4dc 0;
#X obj 515 12 cnv 10 10 10 empty empty Solus' 0 6 2 13 #7c7c7c #e0e4dc 0;
#X obj 464 27 cnv 10 10 10 empty empty ELSE 0 6 2 13 #7c7c7c #e0e4dc 0;
#X obj 502 27 cnv 10 10 10 empty empty library 0 6 2 13 #7c7c7c #e0e4dc 0;
#N canvas 0 22 450 278 (subpatch) 0;
#X coords 0 1 100 -1 252 42 1 0 0;
#X restore 305 4 graph;
#X obj 3 4 cnv 15 301 42 empty empty rec.file~ 20 20 2 37 #e0e0e0 #000000 0;
#N canvas 0 22 450 278 (subpatch) 0;
#X coords 0 1 100 -1 302 42 1;
#X restore 2 4 graph;
#X obj 133 41 cnv 4 4 4 empty empty file 0 28 2 18 #e0e0e0 #000000 0;
#X obj 77 248 bng 19 250 50 0 empty empty empty 17 7 0 10 #dcdcdc #000000 #000000;
#X obj 492 88 else/setdsp~;
#X obj 337 201 else/play.file~ 2;
#X msg 337 174 open test.wav;
#N canvas 802 48 440 618 flags 0;
#X text 38 21 By default \, [rec.file~] performs a fade in and fade out of 10 ms. This means that when you stop recording \, it takes an extra 10 ms to finish recording the file. The outlet only outputs a bang after this fade out. You can change and set the fade to 0 ms (no fading) with the -fade flag or fade message., f 60;
#X text 38 98 You can also set a maximum recording time. In this case \, the object automatically stops recording at that given time. Note \, however \, that the fade out will happen first. Say \, for instance \, you have a 1000 ms maximum recording time and a fade time of 50 ms \, at 950 ms the fade out starts and the recording finishes at 1000 ms indeed.;
#X text 38 178 By default \, [rec.file~] performs a fade in and fade out of 10 ms. This means that when you stop recording \, it takes an extra 10 ms to finish recording the file. The outlet only outputs a bang after this fade out. You can change and set the fade to 0 ms (no fading) with the -fade flag or fade message., f 60;
#X obj 134 339 else/brown~;
#X obj 56 435 bng 20 250 50 0 empty empty empty 17 7 0 10 #dcdcdc #000000 #000000;
#X msg 56 347 start;
#X obj 183 491 else/play.file~ 2;
#X msg 183 465 open test.wav;
#X text 38 251 A maximum time of 0 or less means no maximum time \, and the recording goes on indefinitely. The maxtime needs to be at least twice the fade time \, otherwise it is ignored and the recording goes on indefinitely as well.;
#X obj 134 367 else/plate.rev~ 50 0.6 0.25 0.8 0.8;
#X obj 173 531 else/out~;
#X obj 56 404 else/rec.file~ test.wav -maxtime 500 -fade 250 2;
#X connect 3 0 9 0;
#X connect 5 0 11 0;
#X connect 6 0 10 0;
#X connect 6 1 10 1;
#X connect 7 0 6 0;
#X connect 9 0 11 0;
#X connect 9 1 11 1;
#X connect 11 0 4 0;
#X restore 480 254 pd flags;
#X text 124 461 -maxtime <float> (default 0) | -fade <float> (default 10);
#X text 53 91 [rec.file~] is a convenient abstraction based on [writesf~] \, so it records sample files that you can load with other objects \, such as [sample~] \, [play.file~] \, [player~] and others.;
#X obj 315 231 else/out~;
#X obj 77 168 noise~;
#X obj 224 190 else/brown~;
#X obj 77 220 else/rec.file~ test.wav 2;
#X msg 37 191 start;
#X msg 84 191 stop;
#X msg 125 194 set test2.aif;
#X msg 316 150 open test2.aif;
#X connect 38 0 43 0;
#X connect 38 1 43 1;
#X connect 39 0 38 0;
#X connect 44 0 46 0;
#X connect 45 0 46 1;
#X connect 46 0 36 0;
#X connect 47 0 46 0;
#X connect 48 0 46 0;
#X connect 49 0 46 0;
#X connect 50 0 38 0;
