#N canvas 413 39 564 447 10;
#X obj 4 287 cnv 3 550 3 empty empty inlets 8 12 0 13 #dcdcdc #000000 0;
#X obj 4 347 cnv 3 550 3 empty empty outlets 8 12 0 13 #dcdcdc #000000 0;
#X obj 4 382 cnv 3 550 3 empty empty arguments 8 12 0 13 #dcdcdc #000000 0;
#X obj 142 356 cnv 17 3 17 empty empty 0 5 9 0 16 #dcdcdc #9c9c9c 0;
#X obj 139 296 cnv 17 3 17 empty empty 0 5 9 0 16 #dcdcdc #9c9c9c 0;
#X obj 4 417 cnv 15 552 21 empty empty empty 20 12 0 14 #e0e0e0 #202020 0;
#X obj 306 4 cnv 15 250 40 empty empty empty 12 13 0 18 #7c7c7c #e0e4dc 0;
#N canvas 382 141 749 319 (subpatch) 0;
#X coords 0 -1 1 1 252 42 2 100 100;
#X restore 305 3 pd;
#X obj 345 11 cnv 10 10 10 empty empty ELSE 0 15 2 30 #7c7c7c #e0e4dc 0;
#X obj 23 40 cnv 4 4 4 empty empty Remove\ elements\ from\ a\ list 0 28 2 18 #e0e0e0 #000000 0;
#X obj 458 11 cnv 10 10 10 empty empty EL 0 6 2 13 #7c7c7c #e0e4dc 0;
#X obj 478 11 cnv 10 10 10 empty empty Locus 0 6 2 13 #7c7c7c #e0e4dc 0;
#X obj 515 11 cnv 10 10 10 empty empty Solus' 0 6 2 13 #7c7c7c #e0e4dc 0;
#X obj 464 26 cnv 10 10 10 empty empty ELSE 0 6 2 13 #7c7c7c #e0e4dc 0;
#X obj 502 26 cnv 10 10 10 empty empty library 0 6 2 13 #7c7c7c #e0e4dc 0;
#X obj 3 3 cnv 15 301 42 empty empty remove 20 20 2 37 #e0e0e0 #000000 0;
#N canvas 0 22 450 278 (subpatch) 0;
#X coords 0 1 100 -1 302 42 1 0 0;
#X restore 3 3 graph;
#X obj 139 318 cnv 17 3 17 empty empty 1 5 9 0 16 #dcdcdc #9c9c9c 0;
#X listbox 298 196 8 0 0 0 - - - 0;
#X text 351 197 <--- set new element value, f 13;
#X obj 175 251 else/display;
#X text 170 356 list;
#X obj 175 222 else/remove 4 5, f 21;
#X msg 175 192 1 2 3 4 5 6;
#X msg 298 148 3 4 5;
#X msg 149 168 1 4 5 4 3 4 5 6;
#X msg 309 170 4;
#X msg 267 148 4 5;
#X text 157 392 1) list - elements to remove (default none);
#X obj 324 227 bng 18 250 50 0 empty empty empty 0 -8 0 10 #dfdfdf #000000 #000000;
#X text 346 227 none;
#X text 169 319 list;
#X text 203 319 - elements to remove (bang is an empty list);
#X text 168 297 list;
#X text 203 297 - input list;
#X text 204 356 - list with removed elements;
#X text 28 216 see also;
#X obj 26 245 else/replace;
#X text 78 91 [remove] removes one or more number elements from a list. The right inlet or arguments set the elements to remove., f 58;
#X msg 345 171 symbol x;
#X msg 73 166 list x y z;
#X connect 18 0 22 1;
#X connect 22 0 20 0;
#X connect 23 0 22 0;
#X connect 24 0 18 0;
#X connect 25 0 22 0;
#X connect 26 0 18 0;
#X connect 27 0 18 0;
#X connect 29 0 22 1;
#X connect 39 0 18 0;
#X connect 40 0 22 0;
