#N canvas 659 93 564 435 10;
#X obj 4 3 cnv 15 301 42 empty empty reorder 20 20 2 37 #e0e0e0 #000000 0;
#X obj 307 4 cnv 15 250 40 empty empty empty 12 13 0 18 #7c7c7c #e0e4dc 0;
#N canvas 0 22 450 278 (subpatch) 0;
#X coords 0 1 100 -1 302 42 1;
#X restore 2 3 graph;
#X obj 24 40 cnv 4 4 4 empty empty Reorder\ messages 0 28 2 18 #e0e0e0 #000000 0;
#X obj 307 4 cnv 15 250 40 empty empty empty 12 13 0 18 #7c7c7c #e0e4dc 0;
#N canvas 382 141 749 319 (subpatch) 0;
#X coords 0 -1 1 1 252 42 2 0 0;
#X restore 306 3 pd;
#X obj 346 11 cnv 10 10 10 empty empty ELSE 0 15 2 30 #7c7c7c #e0e4dc 0;
#X obj 459 11 cnv 10 10 10 empty empty EL 0 6 2 13 #7c7c7c #e0e4dc 0;
#X obj 479 11 cnv 10 10 10 empty empty Locus 0 6 2 13 #7c7c7c #e0e4dc 0;
#X obj 516 11 cnv 10 10 10 empty empty Solus' 0 6 2 13 #7c7c7c #e0e4dc 0;
#X obj 465 26 cnv 10 10 10 empty empty ELSE 0 6 2 13 #7c7c7c #e0e4dc 0;
#X obj 503 26 cnv 10 10 10 empty empty library 0 6 2 13 #7c7c7c #e0e4dc 0;
#X obj 4 281 cnv 3 550 3 empty empty inlets 8 12 0 13 #dcdcdc #000000 0;
#X obj 4 339 cnv 3 550 3 empty empty outlets 8 12 0 13 #dcdcdc #000000 0;
#X obj 4 375 cnv 3 550 3 empty empty arguments 8 12 0 13 #dcdcdc #000000 0;
#X obj 103 348 cnv 17 3 17 empty empty 0 5 9 0 16 #dcdcdc #9c9c9c 0;
#X obj 104 289 cnv 17 3 17 empty empty 0 5 9 0 16 #dcdcdc #9c9c9c 0;
#X obj 4 410 cnv 15 552 21 empty empty empty 20 12 0 14 #e0e0e0 #202020 0;
#X obj 169 229 else/display;
#X obj 104 314 cnv 17 3 17 empty empty 1 5 9 0 16 #dcdcdc #9c9c9c 0;
#X text 134 290 anything -;
#X msg 183 165 list a b c d e f;
#X msg 168 140 zero one two three four five;
#X text 62 95 [reorder] reorders messages according to a given index map via arguments or the second inlet., f 63;
#X text 207 291 a message to reorder, f 51;
#X text 159 315 list -;
#X text 207 315 index reorder map;
#X text 140 385 1) list - index reorder map, f 67;
#X text 136 348 anything -;
#X text 209 349 the reordered message;
#X msg 310 174 0 1 2 3 4 5;
#X msg 327 198 2 4 3 5 1 0;
#X obj 169 198 else/reorder 2 4 3 5 1 0;
#X connect 21 0 32 0;
#X connect 22 0 32 0;
#X connect 30 0 32 1;
#X connect 31 0 32 1;
#X connect 32 0 18 0;
