#N canvas 564 50 565 745 10;
#X obj 3 450 cnv 3 550 3 empty empty inlets 8 12 0 13 #dcdcdc #000000 0;
#X obj 3 568 cnv 3 550 3 empty empty outlets 8 12 0 13 #dcdcdc #000000 0;
#X obj 86 577 cnv 17 3 17 empty empty 0 5 9 0 16 #dcdcdc #9c9c9c 0;
#X obj 2 3 cnv 15 301 42 empty empty resonators2~ 20 20 2 37 #e0e0e0 #000000 0;
#X obj 306 4 cnv 15 250 40 empty empty empty 12 13 0 18 #7c7c7c #e0e4dc 0;
#N canvas 0 22 450 278 (subpatch) 0;
#X coords 0 1 100 -1 302 42 1;
#X restore 2 3 graph;
#N canvas 382 141 749 319 (subpatch) 0;
#X coords 0 -1 1 1 252 42 2 0 0;
#X restore 305 3 pd;
#X obj 345 11 cnv 10 10 10 empty empty ELSE 0 15 2 30 #7c7c7c #e0e4dc 0;
#X obj 23 40 cnv 4 4 4 empty empty Bank\ of\ [vcf2~]\ resonators 0 28 2 18 #e0e0e0 #000000 0;
#X obj 458 11 cnv 10 10 10 empty empty EL 0 6 2 13 #7c7c7c #e0e4dc 0;
#X obj 478 11 cnv 10 10 10 empty empty Locus 0 6 2 13 #7c7c7c #e0e4dc 0;
#X obj 464 26 cnv 10 10 10 empty empty ELSE 0 6 2 13 #7c7c7c #e0e4dc 0;
#X obj 181 384 else/out~;
#X text 125 489 decay <list>;
#X text 137 503 amp <list>;
#X text 131 517 ramp <list>;
#X text 209 517 - list of ramp time for all filters in the bank;
#X text 37 274 see also:;
#X obj 5 720 cnv 15 552 21 empty empty empty 20 12 0 14 #e0e0e0 #202020 0;
#X obj 5 623 cnv 3 550 3 empty empty flags 8 12 0 13 #dcdcdc #000000 0;
#X text 113 532 rampall float>;
#X text 208 532 - sets ramp time for all filters in the bank;
#X obj 86 457 cnv 17 3 105 empty empty 0 5 9 0 16 #dcdcdc #9c9c9c 0;
#X text 122 644 -decay <list>: sets list of decay time for the resonators, f 58;
#X text 134 658 -amp <list>: sets list of amplitudes for the resonators, f 56;
#X text 128 672 -ramp <list>: sets list of ramp time for the resonators, f 57;
#X text 104 686 -rampall <float>: sets a ramp time for all resonators, f 61;
#X text 209 503 - list of amplitudes for the filters;
#X text 209 489 - list of decay times for the filters;
#N canvas 764 93 539 458 multichannel 0;
#X obj 101 353 else/out~;
#X obj 101 312 else/xselect.mc~ 200 1;
#X obj 137 237 hradio 16 1 0 4 empty empty empty 0 -8 0 10 #dfdfdf #000000 #000000 0;
#X floatatom 137 260 4 0 0 0 - - - 0;
#X obj 137 282 + 1;
#X msg 164 154 mc \$1;
#X obj 164 126 tgl 18 0 empty empty empty 0 -8 0 10 #dfdfdf #000000 #000000 0 1;
#X obj 101 140 sig~ 300;
#X text 133 40 The "-mc" flag or message sets to multichannel output \, where each resonator in the bank is in a different channel., f 47;
#X obj 356 152 else/dust~ 25;
#X obj 101 186 else/resonators2~ -mc -ratio 1 3.3 6.7 8.1 -decay 900 800 700 900 -amp 0.9 0.3 0.2 0.2, f 43;
#X obj 356 353 else/out~;
#X obj 356 312 else/xselect.mc~ 200 1;
#X obj 392 237 hradio 16 1 0 4 empty empty empty 0 -8 0 10 #dfdfdf #000000 #000000 0;
#X floatatom 392 260 4 0 0 0 - - - 0;
#X obj 392 282 + 1;
#X connect 1 0 0 0;
#X connect 2 0 3 0;
#X connect 3 0 4 0;
#X connect 4 0 1 0;
#X connect 5 0 10 0;
#X connect 6 0 5 0;
#X connect 7 0 10 0;
#X connect 9 0 10 1;
#X connect 10 0 1 0;
#X connect 10 1 12 0;
#X connect 12 0 11 0;
#X connect 13 0 14 0;
#X connect 14 0 15 0;
#X connect 15 0 12 0;
#X restore 422 410 pd multichannel;
#X text 182 700 -mc: sets to multichannel output, f 48;
#X text 143 547 mc float>;
#X text 208 547 - non zero sets to multichannel output;
#X obj 36 399 else/resonbank~;
#X obj 36 374 else/oscbank~;
#X obj 181 197 keyboard 13 50 2 3 0 0 empty empty;
#X obj 181 256 stripnote;
#X obj 181 280 mtof;
#X obj 181 304 sig~;
#X text 125 458 float/signal;
#X text 125 473 ratio <list>;
#X text 210 458 - fundamental frequencies;
#X text 209 473 - list of ratios for the filters' frequencies;
#X text 143 577 signal(s);
#X text 122 629 -ratio <list>: sets list of ratios for the resonators' frequencies, f 66;
#X obj 376 302 else/impseq~;
#X obj 376 279 / 127;
#X obj 181 329 else/resonators2~ -ratio 1 2 2.803 3.871 -decay 1000 205 1000 196 -amp 1 0.044 0.891 0.0891, f 33;
#X obj 36 299 else/vcf2~;
#X obj 36 349 else/resonators~;
#X obj 86 601 cnv 17 3 17 empty empty 1 5 9 0 16 #dcdcdc #9c9c9c 0;
#X text 143 601 signal(s);
#X text 210 577 - the resonator real part output signal(s);
#X text 210 601 - the resonator imaginary part output signal(s);
#X text 59 84 [resonators2~] is like [resonators~] but instead of [resonant~] filters it's a bank made of [vcf2~] filters - therefore \, it is also considered a bank of [damp.osc~] objects \, since [damp.osc~] is based on [vcf2~]. Unlike [resonbank~] it takes a frequency input in the left inlet and a list of frequency ratios for each resonator in the bank. The right input is for the excitation signal \, which must be an impulse since noise sources and noise bursts generate very loud outputs. The number of filters is set via the parameter list size (such as the ratio list). There's also support for multichannel output., f 80;
#X obj 36 324 else/damp.osc~;
#N canvas 825 256 460 466 example 0;
#X obj 122 131 loadbang;
#X text 203 118 click on the messages below to alter between them, f 27;
#X obj 305 283 else/dust~ 5;
#X floatatom 173 268 5 0 0 0 - - - 0;
#X msg 173 289 rampall \$1;
#X text 318 327 <- ramp time.;
#X msg 146 209 ratio 1.4 2.9 3.1 3.3 4.9 5.8 6.9 7.5 \, decay 1000 800 2500 700 500 1200 1700 900 \, amp 1 1 1 1 0.9 0.8 0.9 1, f 42;
#X floatatom 64 123 5 0 0 0 - - - 0;
#X obj 64 98 initmess 100;
#X text 60 32 Here a ramp time is given to set a transition time in ms between parameter changes of resonant frequency ratios \, decay and amplitude. By default \, this is set to 10 ms.;
#X msg 122 154 ratio 1 2.5 3 3.7 4.2 5.1 5.9 6.5 \, decay 2000 900 1500 900 2000 800 1500 900 \, amp 0.9 1 0.9 1 0.8 0.9 0.7 1, f 42;
#X obj 122 326 else/resonators2~ -rampall 2000;
#X obj 122 362 else/out~;
#X connect 0 0 10 0;
#X connect 2 0 11 1;
#X connect 3 0 4 0;
#X connect 4 0 11 0;
#X connect 6 0 11 0;
#X connect 7 0 11 0;
#X connect 8 0 7 0;
#X connect 10 0 11 0;
#X connect 11 0 12 0;
#X connect 11 1 12 1;
#X restore 452 389 pd example;
#X connect 35 0 36 0;
#X connect 36 0 37 0;
#X connect 36 1 46 0;
#X connect 37 0 38 0;
#X connect 38 0 47 0;
#X connect 45 0 47 1;
#X connect 46 0 45 0;
#X connect 47 0 12 0;
#X connect 47 1 12 1;
