#N canvas 491 46 565 591 10;
#X obj 4 355 cnv 3 550 3 empty empty inlets 8 12 0 13 #dcdcdc #000000 0;
#X obj 4 435 cnv 3 550 3 empty empty outlets 8 12 0 13 #dcdcdc #000000 0;
#X obj 4 521 cnv 3 550 3 empty empty arguments 8 12 0 13 #dcdcdc #000000 0;
#X obj 116 445 cnv 17 3 17 empty empty 0 5 9 0 16 #dcdcdc #9c9c9c 0;
#X obj 117 365 cnv 17 3 64 empty empty 0 5 9 0 16 #dcdcdc #9c9c9c 0;
#X obj 4 554 cnv 15 552 21 empty empty empty 20 12 0 14 #e0e0e0 #202020 0;
#X obj 306 4 cnv 15 250 40 empty empty empty 12 13 0 18 #7c7c7c #e0e4dc 0;
#N canvas 382 141 749 319 (subpatch) 0;
#X coords 0 -1 1 1 252 42 2 100 100;
#X restore 305 3 pd;
#X obj 345 11 cnv 10 10 10 empty empty ELSE 0 15 2 30 #7c7c7c #e0e4dc 0;
#X obj 23 40 cnv 4 4 4 empty empty Convert\ scale\ into\ a\ frequency\ list 0 28 2 18 #e0e0e0 #000000 0;
#X obj 458 11 cnv 10 10 10 empty empty EL 0 6 2 13 #7c7c7c #e0e4dc 0;
#X obj 478 11 cnv 10 10 10 empty empty Locus 0 6 2 13 #7c7c7c #e0e4dc 0;
#X obj 515 11 cnv 10 10 10 empty empty Solus' 0 6 2 13 #7c7c7c #e0e4dc 0;
#X obj 464 26 cnv 10 10 10 empty empty ELSE 0 6 2 13 #7c7c7c #e0e4dc 0;
#X obj 502 26 cnv 10 10 10 empty empty library 0 6 2 13 #7c7c7c #e0e4dc 0;
#X obj 3 3 cnv 15 301 42 empty empty scale2freq 20 20 2 37 #e0e0e0 #000000 0;
#N canvas 0 22 450 278 (subpatch) 0;
#X coords 0 1 100 -1 302 42 1 0 0;
#X restore 3 3 graph;
#X obj 180 235 else/scale2freq;
#X obj 180 263 print Frequency list -->;
#X obj 180 181 else/eqdiv 7 2;
#X obj 180 152 bng 19 250 50 0 empty empty empty 0 -8 0 10 #dfdfdf #000000 #000000;
#X listbox 180 207 55 0 0 0 - - - 0;
#X text 125 207 cents ->;
#X text 194 365 list;
#X text 224 365 - scale in cents to convert to a frequency list;
#X obj 4 470 cnv 3 550 3 empty empty flags 8 12 0 13 #dcdcdc #000000 0;
#X text 194 446 list;
#X text 224 446 - frequency list;
#X text 146 397 base <float>;
#X text 146 413 range <f \, f>;
#X text 78 479 -base <float>: sets base pitch value in MIDI (default 60);
#X text 224 397 - sets base pitch value in MIDI;
#X text 78 496 -range <float float>: sets min/max frequency range in Hz (default 20 20000), f 75;
#X text 224 413 - sets min/max frequency range in Hz;
#N canvas 679 52 570 520 base/range 0;
#X obj 106 345 else/insert set;
#X obj 106 376 else/messbox 400 100 235 235 235 0 0 0 0 10;
#X msg 128 253 base \$1;
#X floatatom 128 227 5 0 0 0 - - - 12;
#X floatatom 201 225 7 0 0 0 - - - 12;
#X floatatom 306 225 7 0 0 0 - - - 12;
#X obj 106 107 bng 22 250 50 0 empty empty empty 0 -8 0 10 #dfdfdf #000000 #000000;
#X obj 106 314 else/scale2freq 0 244.969 506.68 738.5 974.751 1200;
#X text 80 47 By default \, the generated scale uses a base (fundamental) pitch of 60 (middle C). The scale is generated upwards and downwards from this pitch until reaching minimum and maximum bounds (20 to 20000 hz by default)., f 72;
#X obj 128 203 ftom;
#X floatatom 128 177 5 0 0 0 - - - 12;
#X text 190 128 You can change the base and range with messages or flags. Microtonal base pitch is also possible. You can also use [ftom] to set a base value according to a hertz input (or also [mtof] for range input). After setting new base/range values you have to send a bang to generate a new list., f 51;
#X text 423 313 pelog scale;
#X obj 201 256 else/pack2 20 2000;
#X obj 201 277 else/insert range;
#X text 31 109 generate ->;
#X connect 0 0 1 0;
#X connect 2 0 7 0;
#X connect 3 0 2 0;
#X connect 4 0 13 0;
#X connect 5 0 13 1;
#X connect 6 0 7 0;
#X connect 7 0 0 0;
#X connect 9 0 3 0;
#X connect 10 0 9 0;
#X connect 13 0 14 0;
#X connect 14 0 7 0;
#X restore 442 254 pd base/range;
#X text 165 532 list - scale in cents;
#X text 16 203 see also:;
#X obj 17 223 else/scales;
#X text 194 380 bang;
#X obj 17 244 else/scale2cents;
#X obj 17 266 else/scala;
#X text 224 380 - generate frequency list;
#X text 62 88 [scale2freq] gets a scale as a list of cents values \, a base/fundamental pitch and outputs a list of frequency in hertz between a minimum and maximum value. Below we use [eqdiv] to generate a scale. Use it to feed values to things like [resonbank~] and stuff., f 71;
#X text 48 305 Objects you can use [scale2freq] with:, f 19;
#X obj 180 311 else/resonbank~;
#X obj 284 311 else/bpbank~;
#X obj 374 311 else/pvretune~;
#X connect 17 0 18 0;
#X connect 19 0 21 0;
#X connect 20 0 19 0;
#X connect 21 0 17 0;
