#N canvas 552 38 567 477 10;
#X obj 306 5 cnv 15 250 40 empty empty empty 12 13 0 18 #7c7c7c #e0e4dc 0;
#X obj 345 12 cnv 10 10 10 empty empty ELSE 0 15 2 30 #7c7c7c #e0e4dc 0;
#X obj 23 41 cnv 4 4 4 empty empty Query\ sound\ file\ information 0 28 2 18 #e0e0e0 #000000 0;
#X obj 458 12 cnv 10 10 10 empty empty EL 0 6 2 13 #7c7c7c #e0e4dc 0;
#X obj 478 12 cnv 10 10 10 empty empty Locus 0 6 2 13 #7c7c7c #e0e4dc 0;
#X obj 515 12 cnv 10 10 10 empty empty Solus' 0 6 2 13 #7c7c7c #e0e4dc 0;
#X obj 464 27 cnv 10 10 10 empty empty ELSE 0 6 2 13 #7c7c7c #e0e4dc 0;
#X obj 502 27 cnv 10 10 10 empty empty library 0 6 2 13 #7c7c7c #e0e4dc 0;
#N canvas 0 22 450 278 (subpatch) 0;
#X coords 0 1 100 -1 252 42 1 0 0;
#X restore 305 4 graph;
#X obj 3 4 cnv 15 301 42 empty empty sfinfo 20 20 2 37 #e0e0e0 #000000 0;
#N canvas 0 22 450 278 (subpatch) 0;
#X coords 0 1 100 -1 302 42 1;
#X restore 2 4 graph;
#X obj 7 435 cnv 15 552 21 empty empty empty 20 12 0 14 #e0e0e0 #202020 0;
#X obj 7 299 cnv 3 550 3 empty empty inlets 8 12 0 13 #dcdcdc #000000 0;
#X obj 7 364 cnv 3 550 3 empty empty outlets 8 12 0 13 #dcdcdc #000000 0;
#X obj 7 400 cnv 3 550 3 empty empty arguments 8 12 0 13 #dcdcdc #000000 0;
#X obj 130 310 cnv 17 3 50 empty empty 0 5 9 0 16 #dcdcdc #9c9c9c 0;
#X obj 212 142 loadbang;
#X obj 130 377 cnv 17 3 17 empty empty 0 5 9 0 16 #dcdcdc #9c9c9c 0;
#X text 29 167 see also:;
#X obj 26 211 else/play.file~;
#X obj 26 231 else/player~;
#X obj 26 251 else/sample~;
#X obj 26 191 else/sfload;
#X msg 212 167 read bubul.mp3 \, channels;
#X obj 212 215 else/sfinfo;
#X floatatom 212 264 3 0 0 0 - - - 0;
#X text 164 311 read <symbol> - read sound file;
#X text 246 413 none;
#X text 194 376 anything - sound file's information;
#X text 195 326 channels - query for number of channels;
#X msg 228 191 read loop.aif \, inst;
#X obj 267 264 print inst;
#X obj 212 238 route channels inst;
#N canvas 812 247 432 275 inst 0;
#X text 104 81 - Base Note // MIDI note number 0-127 \; - Detune // Detune in cents (-50 to +50) \; - lowNote // MIDI note number 0-127 \; - highNote // MIDI note number 0-127 \; - lowVelocity // MIDI velocity 1-127 \; - highVelocity // MIDI velocity 1-127 \; - gain // Gain in dB \; - sustain loop // 0-2 \; - loop start point \; - loop end start point \; - release loop // 0-2 \; - loop start point \; - loop end start point \;;
#X text 65 39 Aif files can contain "Instrument" Metadata \, in which the list of 13 output numeric values are:, f 48;
#X restore 355 264 pd inst;
#X text 74 87 [sfinfo] supports all files that [sfload] and [play.file~] support and can be used to query file sample information but so far only channels and 'inst' info for aif files (this object is still very experimental)., f 71;
#X text 219 343 inst - query instrument metadata for aif files;
#X connect 16 0 23 0;
#X connect 23 0 24 0;
#X connect 24 0 32 0;
#X connect 30 0 24 0;
#X connect 32 0 25 0;
#X connect 32 1 31 0;
