#N canvas 598 96 561 352 10;
#X obj 4 229 cnv 3 550 3 empty empty inlets 8 12 0 13 #dcdcdc #000000 0;
#X obj 4 261 cnv 3 550 3 empty empty outlets 8 12 0 13 #dcdcdc #000000 0;
#X obj 4 293 cnv 3 550 3 empty empty arguments 8 12 0 13 #dcdcdc #000000 0;
#X obj 4 322 cnv 15 552 21 empty empty empty 20 12 0 14 #e0e0e0 #202020 0;
#X obj 307 4 cnv 15 250 40 empty empty empty 12 13 0 18 #7c7c7c #e0e4dc 0;
#N canvas 382 141 749 319 (subpatch) 0;
#X coords 0 -1 1 1 252 42 2 100 100;
#X restore 306 3 pd;
#X obj 346 11 cnv 10 10 10 empty empty ELSE 0 15 2 30 #7c7c7c #e0e4dc 0;
#X obj 22 40 cnv 4 4 4 empty empty Sign\ function 0 28 2 18 #e0e0e0 #000000 0;
#X obj 459 11 cnv 10 10 10 empty empty EL 0 6 2 13 #7c7c7c #e0e4dc 0;
#X obj 479 11 cnv 10 10 10 empty empty Locus 0 6 2 13 #7c7c7c #e0e4dc 0;
#X obj 516 11 cnv 10 10 10 empty empty Solus' 0 6 2 13 #7c7c7c #e0e4dc 0;
#X obj 465 26 cnv 10 10 10 empty empty ELSE 0 6 2 13 #7c7c7c #e0e4dc 0;
#X obj 503 26 cnv 10 10 10 empty empty library 0 6 2 13 #7c7c7c #e0e4dc 0;
#X obj 4 4 cnv 15 301 42 empty empty sign 20 20 2 37 #e0e0e0 #000000 0;
#N canvas 0 22 450 278 (subpatch) 0;
#X coords 0 1 100 -1 302 42 1 0 0;
#X restore 3 4 graph;
#X obj 116 269 cnv 17 3 17 empty empty 0 5 9 0 16 #dcdcdc #9c9c9c 0;
#X obj 117 238 cnv 17 3 17 empty empty 0 5 9 0 16 #dcdcdc #9c9c9c 0;
#X obj 179 142 nbx 3 14 -1e+37 1e+37 0 0 empty empty empty 0 -8 0 10 #dcdcdc #000000 #000000 0 256;
#X obj 228 173 else/sign;
#X msg 228 141 -11 0 30 4 -2 0 1;
#X listbox 228 197 17 0 0 0 - - - 0;
#X text 32 166 see also;
#X obj 32 192 else/sign~;
#X text 161 239 list - input to sign function, f 44;
#X text 161 269 list - output of sign function, f 44;
#X text 205 303 none, f 5;
#X text 87 87 [sign] has the value −1 or +1 if the input is \, respectively \, negative or positive. If the input is 0 \, the output is also that. As an expression \, we have sign = (in > 0) - (in < 0)., f 61;
#X connect 17 0 18 0;
#X connect 18 0 20 0;
#X connect 19 0 18 0;
