#N canvas 526 68 565 487 10;
#X obj 4 248 cnv 3 550 3 empty empty inlets 8 12 0 13 #dcdcdc #000000 0;
#X obj 4 343 cnv 3 550 3 empty empty outlets 8 12 0 13 #dcdcdc #000000 0;
#X obj 4 426 cnv 3 550 3 empty empty arguments 8 12 0 13 #dcdcdc #000000 0;
#X obj 6 457 cnv 15 552 21 empty empty empty 20 12 0 14 #e0e0e0 #202020 0;
#X obj 126 352 cnv 17 3 17 empty empty 0 5 9 0 16 #dcdcdc #9c9c9c 0;
#X obj 126 259 cnv 17 3 50 empty empty 0 5 9 0 16 #dcdcdc #9c9c9c 0;
#X obj 23 41 cnv 4 4 4 empty empty Control\ smoothner 0 28 2 18 #e0e0e0 #000000 0;
#X obj 126 316 cnv 17 3 17 empty empty 1 5 9 0 16 #dcdcdc #9c9c9c 0;
#X obj 2 4 cnv 15 301 42 empty empty smooth 20 20 2 37 #e0e0e0 #000000 0;
#N canvas 0 22 450 278 (subpatch) 0;
#X coords 0 1 100 -1 302 42 1;
#X restore 2 4 graph;
#N canvas 793 172 522 312 example 0;
#X obj 79 188 osc~;
#X obj 79 225 else/out~;
#X text 211 80 <= random values in 200-800 range;
#X text 188 136 <= values are smoothened \, generating a portamento;
#X obj 79 80 else/rand.f 200 800;
#X obj 79 37 else/tempo -on 60;
#X obj 79 136 else/smooth 500;
#X floatatom 79 109 8 0 0 0 - - - 0;
#X floatatom 79 162 8 0 0 0 - - - 0;
#X connect 0 0 1 0;
#X connect 4 0 7 0;
#X connect 5 0 4 0;
#X connect 6 0 8 0;
#X connect 7 0 6 0;
#X connect 8 0 0 0;
#X restore 469 185 pd example;
#X text 185 432 1) float - glide time in ms (default 0);
#X text 217 277 reset;
#X obj 305 5 cnv 15 250 40 empty empty empty 12 13 0 18 #7c7c7c #e0e4dc 0;
#N canvas 382 141 749 319 (subpatch) 0;
#X coords 0 -1 1 1 252 42 2 0 0;
#X restore 304 4 pd;
#X obj 344 12 cnv 10 10 10 empty empty ELSE 0 15 2 30 #7c7c7c #e0e4dc 0;
#X obj 457 12 cnv 10 10 10 empty empty EL 0 6 2 13 #7c7c7c #e0e4dc 0;
#X obj 477 12 cnv 10 10 10 empty empty Locus 0 6 2 13 #7c7c7c #e0e4dc 0;
#X obj 514 12 cnv 10 10 10 empty empty Solus' 0 6 2 13 #7c7c7c #e0e4dc 0;
#X obj 463 27 cnv 10 10 10 empty empty ELSE 0 6 2 13 #7c7c7c #e0e4dc 0;
#X obj 501 27 cnv 10 10 10 empty empty library 0 6 2 13 #7c7c7c #e0e4dc 0;
#X text 28 155 see also:;
#X obj 6 378 cnv 3 550 3 empty empty flags 8 12 0 13 #dcdcdc #000000 0;
#X text 260 293 - sets curve factor;
#X text 130 385 -curve <float>: sets curve factor (default '0' \, linear);
#N canvas 735 180 532 282 curve 0;
#X obj 387 163 else/asr~;
#X obj 387 187 else/adsr~;
#X text 320 174 see also:;
#X text 272 96 You can set curve factors. This is like setting the curve parameter of [asr~] and [adsr~] objects. The default is '0' (linear)., f 31;
#X msg 133 69 4;
#X msg 163 69 -4;
#X floatatom 163 98 5 0 0 0 - - - 0;
#X obj 63 198 hsl 128 15 0 1 0 0 empty empty empty -2 -8 0 10 #dcdcdc #000000 #000000 0 1;
#X obj 60 111 else/pulse 0.25;
#X obj 60 133 else/display 2;
#X msg 194 69 0.5;
#X msg 228 69 -0.5;
#X msg 163 121 curve \$1;
#X obj 60 172 else/smooth 2000, f 18;
#X connect 4 0 6 0;
#X connect 5 0 6 0;
#X connect 6 0 12 0;
#X connect 8 0 9 0;
#X connect 9 0 13 0;
#X connect 10 0 6 0;
#X connect 11 0 6 0;
#X connect 12 0 13 0;
#X connect 13 0 7 0;
#X restore 481 208 pd curve;
#X text 259 315 - smooth time in ms;
#X obj 31 178 else/smooth2;
#X obj 32 203 else/glide;
#X obj 103 203 else/slew;
#X obj 111 178 else/smooth~;
#X text 124 89 [smooth~] smoothens a control transition with linear interpolation by default \, at a given time in ms. You can also have exponential curves., f 52;
#X obj 245 214 hsl 136 16 0 1 0 0 empty empty empty -2 -8 0 10 #dfdfdf #000000 #000000 0 1;
#X text 217 259 float;
#X text 260 277 - resets to input value;
#X text 217 316 float;
#X text 169 293 curve <float>;
#X text 217 352 float;
#X text 260 352 - smoothned control;
#X obj 242 156 else/pulse 0.5;
#X obj 242 185 else/smooth 1000;
#X text 104 404 -rate <float>: sets refresh rate in ms (default 5 \, minimum 1), f 61;
#X text 260 259 - control input;
#X connect 39 0 40 0;
#X connect 40 0 32 0;
