#N canvas 548 78 563 548 10;
#X obj 305 5 cnv 15 250 40 empty empty empty 12 13 0 18 #7c7c7c #e0e4dc 0;
#N canvas 382 141 749 319 (subpatch) 0;
#X coords 0 -1 1 1 252 42 2 100 100;
#X restore 304 4 pd;
#X obj 344 12 cnv 10 10 10 empty empty ELSE 0 15 2 30 #7c7c7c #e0e4dc 0;
#X obj 457 12 cnv 10 10 10 empty empty EL 0 6 2 13 #7c7c7c #e0e4dc 0;
#X obj 477 12 cnv 10 10 10 empty empty Locus 0 6 2 13 #7c7c7c #e0e4dc 0;
#X obj 514 12 cnv 10 10 10 empty empty Solus' 0 6 2 13 #7c7c7c #e0e4dc 0;
#X obj 463 27 cnv 10 10 10 empty empty ELSE 0 6 2 13 #7c7c7c #e0e4dc 0;
#X obj 501 27 cnv 10 10 10 empty empty library 0 6 2 13 #7c7c7c #e0e4dc 0;
#X obj 3 507 cnv 15 552 21 empty empty empty 20 12 0 14 #e0e0e0 #202020 0;
#X obj 6 246 cnv 3 550 3 empty empty inlets 8 12 0 13 #dcdcdc #000000 0;
#X obj 6 362 cnv 3 550 3 empty empty outlets 8 12 0 13 #dcdcdc #000000 0;
#X obj 6 452 cnv 3 550 3 empty empty arguments 8 12 0 13 #dcdcdc #000000 0;
#X obj 97 255 cnv 17 3 48 empty empty 0 5 9 0 16 #dcdcdc #9c9c9c 0;
#X obj 97 372 cnv 17 3 17 empty empty 0 5 9 0 16 #dcdcdc #9c9c9c 0;
#X text 169 461 1) float;
#X text 169 482 2) float;
#X obj 97 311 cnv 17 3 17 empty empty 1 5 9 0 16 #dcdcdc #9c9c9c 0;
#X obj 97 335 cnv 17 3 17 empty empty 2 5 9 0 16 #dcdcdc #9c9c9c 0;
#X text 31 143 see also:;
#X text 236 310 - ramp-up time in ms;
#X text 237 334 - ramp-down time in ms;
#X text 237 461 - ramp-up time in ms (default 0);
#X text 237 482 - ramp-down time in ms (default 0);
#X obj 2 4 cnv 15 301 42 empty empty smooth2 20 20 2 37 #e0e0e0 #000000 0;
#N canvas 0 22 450 278 (subpatch) 0;
#X coords 0 1 100 -1 302 42 1 0 0;
#X restore 2 3 graph;
#X obj 6 399 cnv 3 550 3 empty empty flags 8 12 0 13 #dcdcdc #000000 0;
#X text 188 271 reset;
#N canvas 699 216 522 312 example 0;
#X obj 80 185 osc~;
#X obj 80 232 else/out~;
#X text 212 97 <= random values in 200-800 range;
#X text 221 143 <= values are smoothened \, generating a portamento, f 25;
#X obj 80 54 else/tempo -on 60;
#X obj 80 97 else/rand.f 200 800;
#X obj 80 143 else/smooth2 1000 500;
#X connect 0 0 1 0;
#X connect 4 0 5 0;
#X connect 5 0 6 0;
#X connect 6 0 0 0;
#X restore 453 165 pd example;
#X text 163 371 signal(s);
#X obj 23 40 cnv 4 4 4 empty empty Control\ smoothner 0 28 2 18 #e0e0e0 #000000 0;
#X text 140 287 curve <float>;
#X text 238 287 - sets curve factor;
#X text 237 371 - smoothned signal(s);
#X text 110 406 -curve <float>: sets curve factor (default '0' \, linear);
#X obj 33 166 else/smooth;
#X obj 110 167 else/glide2;
#X obj 34 191 else/slew2;
#X obj 105 191 else/smooth2~;
#X obj 223 182 else/smooth2 1000 500;
#X obj 223 154 else/pulse 0.5;
#X obj 226 210 hsl 136 16 0 1 0 0 empty empty empty -2 -8 0 10 #dfdfdf #000000 #000000 0 1;
#X text 104 427 -rate <float>: sets refresh rate in ms (default 5 \, minimum 1), f 61;
#X text 188 310 float;
#X text 188 334 float;
#X text 238 271 - resets to input value;
#X text 189 255 float;
#X text 237 255 - incoming control to smooth out;
#X text 94 91 [smooth2] is just like [smooth] but has distinct ramp times for both up and down.;
#N canvas 735 180 532 282 curve 0;
#X obj 387 163 else/asr~;
#X obj 387 187 else/adsr~;
#X text 320 174 see also:;
#X text 272 96 You can set curve factors. This is like setting the curve parameter of [asr~] and [adsr~] objects. The default is '0' (linear)., f 31;
#X msg 133 69 4;
#X msg 163 69 -4;
#X floatatom 163 98 5 0 0 0 - - - 0;
#X obj 63 198 hsl 128 15 0 1 0 0 empty empty empty -2 -8 0 10 #dcdcdc #000000 #000000 0 1;
#X obj 60 111 else/pulse 0.25;
#X obj 60 133 else/display 2;
#X msg 194 69 0.5;
#X msg 228 69 -0.5;
#X msg 163 121 curve \$1;
#X obj 60 172 else/smooth2 2000 1000;
#X connect 4 0 6 0;
#X connect 5 0 6 0;
#X connect 6 0 12 0;
#X connect 8 0 9 0;
#X connect 9 0 13 0;
#X connect 10 0 6 0;
#X connect 11 0 6 0;
#X connect 12 0 13 0;
#X connect 13 0 7 0;
#X restore 465 188 pd curve;
#X connect 38 0 40 0;
#X connect 39 0 38 0;
