#N canvas 412 23 561 510 10;
#X obj 1 477 cnv 15 552 21 empty \$0-pddp.cnv.footer empty 20 12 0 14 #dcdcdc #404040 0;
#X obj 1 356 cnv 3 550 3 empty \$0-pddp.cnv.inlets inlets 8 12 0 13 #dcdcdc #000000 0;
#X obj 1 413 cnv 3 550 3 empty \$0-pddp.cnv.outlets outlets 8 12 0 13 #dcdcdc #000000 0;
#X obj 1 444 cnv 3 550 3 empty \$0-pddp.cnv.argument argument 8 12 0 13 #dcdcdc #000000 0;
#X obj 78 364 cnv 17 3 37 empty \$0-pddp.cnv.let.0 0 5 9 0 16 #dcdcdc #9c9c9c 0;
#X obj 2 1 cnv 15 301 42 empty empty sum~ 20 20 2 37 #e0e0e0 #000000 0;
#X obj 305 2 cnv 15 250 40 empty empty empty 12 13 0 18 #7c7c7c #e0e4dc 0;
#N canvas 0 22 450 278 (subpatch) 0;
#X coords 0 1 100 -1 302 42 1;
#X restore 2 1 graph;
#N canvas 382 141 749 319 (subpatch) 0;
#X coords 0 -1 1 1 252 42 2 0 0;
#X restore 304 1 pd;
#X obj 344 9 cnv 10 10 10 empty empty ELSE 0 15 2 30 #7c7c7c #e0e4dc 0;
#X obj 22 38 cnv 4 4 4 empty empty Sum\ multi-channel\ signals\ into\ a\ single\ channel 0 28 2 18 #e0e0e0 #000000 0;
#X obj 457 9 cnv 10 10 10 empty empty EL 0 6 2 13 #7c7c7c #e0e4dc 0;
#X obj 477 9 cnv 10 10 10 empty empty Locus 0 6 2 13 #7c7c7c #e0e4dc 0;
#X obj 514 9 cnv 10 10 10 empty empty Solus' 0 6 2 13 #7c7c7c #e0e4dc 0;
#X obj 463 24 cnv 10 10 10 empty empty ELSE 0 6 2 13 #7c7c7c #e0e4dc 0;
#X obj 501 24 cnv 10 10 10 empty empty library 0 6 2 13 #7c7c7c #e0e4dc 0;
#X obj 78 420 cnv 17 3 17 empty \$0-pddp.cnv.let.0 0 5 9 0 16 #dcdcdc #9c9c9c 0;
#X text 124 451 1) float;
#X obj 171 157 osc~ 440;
#X obj 240 157 osc~ 660;
#X obj 171 247 else/sum~;
#X obj 171 186 snake~ in 2, f 12;
#X obj 171 281 else/out.mc~;
#X obj 264 185 tgl 16 0 empty empty empty 0 -8 0 10 #dfdfdf #000000 #000000 0 1;
#X msg 264 211 sum \$1;
#X text 358 199 zero passes unchanged;
#X text 128 364 signals;
#X text 183 364 - incoming multichannel connection to sum;
#X text 104 381 sum <float>;
#X text 116 421 signal(s);
#X text 66 96 [sum~] takes a multisignal connection and sums them into a single mono channel.;
#X text 286 185 non zero sums to a single channel;
#X text 183 381 - non zero sums to a single channel \, zero passes unchanged;
#X text 180 421 - summed (mono) or unsummed multichannel signals;
#X text 184 451 - non zero sums (default) \, zero passes unchanged;
#X connect 18 0 21 0;
#X connect 19 0 21 1;
#X connect 20 0 22 0;
#X connect 21 0 20 0;
#X connect 23 0 24 0;
#X connect 24 0 20 0;
#X coords 0 510 1 509 74 39 0;
