#N canvas 512 53 561 487 10;
#X obj 5 282 cnv 3 550 3 empty empty inlets 8 12 0 13 #dcdcdc #000000 0;
#X obj 5 355 cnv 3 550 3 empty empty outlets 8 12 0 13 #dcdcdc #000000 0;
#X obj 5 417 cnv 3 550 3 empty empty arguments 8 12 0 13 #dcdcdc #000000 0;
#X obj 5 461 cnv 15 552 21 empty empty empty 20 12 0 14 #e0e0e0 #202020 0;
#X obj 306 5 cnv 15 250 40 empty empty empty 12 13 0 18 #7c7c7c #e0e4dc 0;
#N canvas 382 141 749 319 (subpatch) 0;
#X coords 0 -1 1 1 252 42 2 100 100;
#X restore 305 4 pd;
#X obj 346 12 cnv 10 10 10 empty empty ELSE 0 15 2 30 #7c7c7c #e0e4dc 0;
#X obj 459 12 cnv 10 10 10 empty empty EL 0 6 2 13 #7c7c7c #e0e4dc 0;
#X obj 479 12 cnv 10 10 10 empty empty Locus 0 6 2 13 #7c7c7c #e0e4dc 0;
#X obj 516 12 cnv 10 10 10 empty empty Solus' 0 6 2 13 #7c7c7c #e0e4dc 0;
#X obj 465 27 cnv 10 10 10 empty empty ELSE 0 6 2 13 #7c7c7c #e0e4dc 0;
#X obj 503 27 cnv 10 10 10 empty empty library 0 6 2 13 #7c7c7c #e0e4dc 0;
#X obj 314 160 nbx 5 14 -1e+37 1e+37 0 0 empty empty empty 0 -8 0 10 #dcdcdc #000000 #000000 0 256;
#X obj 19 42 cnv 4 4 4 empty empty Resonant\ complex\ one\ pole\ filter 0 28 2 18 #e0e0e0 #000000 0;
#X obj 4 4 cnv 15 301 42 empty empty vcf2~ 20 20 2 37 #e0e0e0 #000000 0;
#N canvas 0 22 450 278 (subpatch) 0;
#X coords 0 1 100 -1 302 42 1 0 0;
#X restore 3 4 graph;
#X obj 128 364 cnv 17 3 17 empty empty 0 5 9 0 16 #dcdcdc #9c9c9c 0;
#X obj 128 289 cnv 17 3 17 empty empty 0 5 9 0 16 #dcdcdc #9c9c9c 0;
#X obj 128 310 cnv 17 3 17 empty empty 1 5 9 0 16 #dcdcdc #9c9c9c 0;
#X text 188 364 signal;
#X text 147 440 2) float - decay time in ms (default 0);
#X obj 128 331 cnv 17 3 17 empty empty 2 5 9 0 16 #dcdcdc #9c9c9c 0;
#X text 152 311 float/signal;
#X obj 211 218 else/out~;
#X text 152 334 float/signal;
#X text 188 290 signal;
#X text 147 425 1) float - frequency (default 0);
#X obj 128 390 cnv 17 3 17 empty empty 1 5 9 0 16 #dcdcdc #9c9c9c 0;
#X text 188 391 signal;
#X obj 255 159 nbx 5 14 -1e+37 1e+37 0 0 empty empty empty 0 -8 0 10 #dcdcdc #000000 #000000 0 256;
#X text 325 142 t60;
#X text 256 142 freq;
#X text 235 290 - filter input;
#X text 234 311 - resonant frequency in hertz;
#X text 234 334 - t60 decay time in ms (resonance);
#X obj 203 153 noise~;
#N canvas 646 183 349 405 details 0;
#X text 117 110 trigger;
#X obj 86 143 else/impseq~;
#X obj 86 105 bng 25 250 50 0 empty empty empty 0 -8 0 10 #dfdfdf #000000 #000000;
#X obj 86 206 else/s2f~;
#X obj 86 237 vsl 16 136 -1 1 0 0 empty empty empty 0 -9 0 10 #dfdfdf #000000 #000000 0 1;
#X obj 185 206 else/s2f~;
#X obj 185 237 vsl 16 136 -1 1 0 0 empty empty empty 0 -9 0 10 #dfdfdf #000000 #000000 0 1;
#X text 43 22 This example shows thw difference between both outputs. By feeding an impulse you get an oscillation on the left outlet starts at cosine initial phase \, while right one starts at sine., f 41;
#X obj 86 175 else/vcf2~ 1 5000;
#X obj 257 268 else/setdsp~;
#X connect 1 0 8 0;
#X connect 2 0 1 0;
#X connect 3 0 4 0;
#X connect 5 0 6 0;
#X connect 8 0 3 0;
#X connect 8 1 5 0;
#X restore 467 245 pd details;
#X obj 41 248 vcf~;
#X text 42 185 see also:;
#X obj 41 206 else/damp.osc~;
#X obj 89 248 cpole~;
#X text 234 364 - real part of the filter;
#X text 234 391 - imaginary part of the filter;
#X obj 203 187 else/vcf2~ 500 100;
#X text 69 91 [vcf2~] is a wrap around [cpole~] just like [vcf~] \, but has no constant maximum gain at 0dB (so it has a constant skirt and resonates \, like [resonant~]) and takes a decay time for resonance (also as a signal)., f 71;
#X obj 41 227 else/resonant~;
#X connect 12 0 43 2;
#X connect 29 0 43 1;
#X connect 35 0 43 0;
#X connect 43 0 23 0;
#X connect 43 1 23 1;
