#N canvas 483 59 563 628 10;
#X obj 306 4 cnv 15 250 40 empty empty empty 12 13 0 18 #7c7c7c #e0e4dc 0;
#N canvas 382 141 749 319 (subpatch) 0;
#X coords 0 -1 1 1 252 42 2 0 0;
#X restore 305 3 pd;
#X obj 345 11 cnv 10 10 10 empty empty ELSE 0 15 2 30 #7c7c7c #e0e4dc 0;
#X obj 25 40 cnv 4 4 4 empty empty VOSIM\ oscillator 0 28 2 18 #e0e0e0 #000000 0;
#X obj 458 11 cnv 10 10 10 empty empty EL 0 6 2 13 #7c7c7c #e0e4dc 0;
#X obj 478 11 cnv 10 10 10 empty empty Locus 0 6 2 13 #7c7c7c #e0e4dc 0;
#X obj 515 11 cnv 10 10 10 empty empty Solus' 0 6 2 13 #7c7c7c #e0e4dc 0;
#X obj 464 26 cnv 10 10 10 empty empty ELSE 0 6 2 13 #7c7c7c #e0e4dc 0;
#X obj 502 26 cnv 10 10 10 empty empty library 0 6 2 13 #7c7c7c #e0e4dc 0;
#X obj 3 361 cnv 3 550 3 empty empty inlets 8 12 0 13 #dcdcdc #000000 0;
#X obj 3 482 cnv 3 550 3 empty empty outlets 8 12 0 13 #dcdcdc #000000 0;
#X obj 3 516 cnv 3 550 3 empty empty arguments 8 12 0 13 #dcdcdc #000000 0;
#X obj 106 491 cnv 17 3 17 empty empty 0 5 9 0 16 #dcdcdc #9c9c9c 0;
#X obj 3 596 cnv 15 552 21 empty empty empty 20 12 0 14 #e0e0e0 #202020 0;
#X obj 106 458 cnv 17 3 17 empty empty 1 5 9 0 16 #dcdcdc #9c9c9c 0;
#X text 144 525 1) float;
#X obj 3 3 cnv 15 301 42 empty empty vosim~ 20 20 2 37 #e0e0e0 #000000 0;
#N canvas 0 22 450 278 (subpatch) 0;
#X coords 0 1 100 -1 302 42 1;
#X restore 2 3 graph;
#X obj 193 278 else/out~;
#X text 144 540 2) float;
#X obj 106 370 cnv 17 3 77 empty empty 0 5 9 0 16 #dcdcdc #9c9c9c 0;
#X msg 247 202 reset;
#X text 246 173 reset phase, f 5;
#X text 336 174 center freq, f 6;
#X text 200 177 Hz;
#X floatatom 193 202 5 0 0 0 - - - 0;
#X floatatom 340 206 5 0 0 0 - - - 0;
#X text 203 525 - fundamental frequency in hertz (default 0);
#X text 203 540 - center/formant frequency in hertz (default 0);
#X text 144 556 3) float;
#X text 144 572 4) float;
#X text 203 572 - duty cycle (default 1);
#X text 203 556 - decay (default 0.8);
#X text 188 403 reset -;
#X text 235 403 resets phase, f 48;
#X text 236 458 center/formant frequency, f 50;
#X text 236 418 decay (from 0-1), f 50;
#X text 236 433 duty cycle (from 0-1), f 50;
#X obj 193 247 else/vosim~ 300 700 0.9 1;
#X text 58 97 [vosim~] implements a VOSIM synthesis algorithm. This is an oscillator that you specify the fundamental (f0) frequency and the center (or formant) frequency (both parameters in hertz). This technique is used to synthesize vocal sounds. The object has support for multichannels., f 70;
#X text 133 370 list/signal(s) - frequency in hz or midi, f 65;
#X text 164 458 signal(s) -;
#X text 182 492 signal - vosim oscillator signal;
#X text 28 196 see also:;
#X obj 32 219 else/paf~;
#N canvas 646 168 725 625 multichannel 0;
#X obj 479 95 knob 50 100 10000 1 500 empty empty #dfdfdf #7c7c7c #000000 1 0 0 0 1 320 0 0 100 empty empty 0 8 0 0 0 1 0 0 0 0;
#X obj 479 152 else/pack2;
#X obj 479 299 else/out.mc~;
#X listbox 479 176 17 0 0 0 - - - 0;
#X obj 536 95 knob 50 100 10000 1 750 empty empty #dfdfdf #7c7c7c #000000 1 0 0 0 1 320 0 0 100 empty empty 0 8 0 0 0 1 0 0 0 0;
#X obj 359 95 knob 50 50 500 1 150 empty empty #dfdfdf #7c7c7c #000000 1 0 0 0 1 320 0 0 50 empty empty 0 8 0 0 0 1 0 0 0 0;
#X obj 359 152 else/pack2;
#X listbox 359 176 17 0 0 0 - - - 0;
#X obj 111 181 sig~ 500 750;
#X obj 90 260 else/out.mc~;
#X obj 90 147 sig~ 150 200;
#X obj 416 95 knob 50 50 500 1 200 empty empty #dfdfdf #7c7c7c #000000 1 0 0 0 1 320 0 0 50 empty empty 0 8 0 0 0 1 0 0 0 0;
#X obj 479 204 else/insert cf;
#X obj 196 382 sig~ 100;
#X obj 196 487 else/group~ 1 1;
#X obj 196 520 else/out~;
#X text 341 465 With multichannel signals you can set different formant regions for the same funcdamental. Use the [group~] object to mixdown the multichannel output into a single normalized channel., f 34;
#X obj 90 229 else/vosim~;
#X text 52 26 The oscillator outputs the same number of channels as the input with most channels. If the other input also has more than one channel \, the number channels must match. A single value gets repeated to meet the number of multichannels., f 32;
#X text 317 24 When no signal is connected you can use a float or list message to set the fundamental frquencies and number of channels. The 'cf' works the same for center frequency.;
#X obj 479 258 else/vosim~;
#X obj 196 460 else/vosim~;
#X obj 220 415 else/initmess cf 500 750 1350;
#X connect 0 0 1 0;
#X connect 1 0 3 0;
#X connect 3 0 12 0;
#X connect 4 0 1 1;
#X connect 5 0 6 0;
#X connect 6 0 7 0;
#X connect 7 0 20 0;
#X connect 8 0 17 1;
#X connect 10 0 17 0;
#X connect 11 0 6 1;
#X connect 12 0 20 0;
#X connect 13 0 21 0;
#X connect 14 0 15 0;
#X connect 17 0 9 0;
#X connect 20 0 2 0;
#X connect 21 0 14 0;
#X connect 22 0 21 0;
#X restore 432 290 pd multichannel;
#N canvas 876 216 328 393 example 0;
#X obj 69 265 else/group~ 1 1;
#X obj 69 298 else/out~;
#X obj 69 151 mtof~;
#X obj 69 83 sig~ 60;
#X obj 69 116 +~;
#X obj 118 113 osc~ 4;
#X obj 118 134 *~ 0.1;
#X obj 93 193 else/initmess cf 500 750 1350;
#X obj 69 238 else/vosim~;
#X text 72 23 An example with a vibrato to better emulate a vocal sound., f 29;
#X connect 0 0 1 0;
#X connect 2 0 8 0;
#X connect 3 0 4 0;
#X connect 4 0 2 0;
#X connect 5 0 6 0;
#X connect 6 0 4 1;
#X connect 7 0 8 0;
#X connect 8 0 0 0;
#X restore 462 312 pd example;
#X text 158 388 cf <flist> -;
#X text 235 388 list of center frequencies, f 48;
#X obj 32 261 else/formlet~;
#X obj 32 241 else/formant~;
#X text 140 418 decay <float> -;
#X text 146 433 duty <float> -;
#N canvas 727 204 529 500 details 0;
#X obj 165 371 else/out~;
#X floatatom 93 86 7 0 1 0 - - - 0;
#X obj 167 80 hsl 136 16 0 1 0 0 empty empty empty -2 -8 0 10 #fcfcfc #000000 #000000 0 1;
#X obj 96 49 hsl 136 16 0 1 0 0 empty empty empty -2 -8 0 10 #fcfcfc #000000 #000000 0 1;
#X text 138 49 decay;
#X floatatom 164 106 7 0 1 0 - - - 0;
#X text 203 81 duty cycle;
#X msg 93 109 decay \$1;
#X msg 164 129 duty \$1;
#X obj 193 202 else/graph~;
#X obj 165 161 else/vosim~ 100 1350;
#X connect 1 0 7 0;
#X connect 2 0 5 0;
#X connect 3 0 1 0;
#X connect 5 0 8 0;
#X connect 7 0 10 0;
#X connect 8 0 10 0;
#X connect 10 0 0 0;
#X connect 10 0 9 0;
#X restore 462 268 pd details;
#X obj 32 282 else/formfm~;
#X obj 32 303 else/packet~;
#X connect 21 0 38 0;
#X connect 25 0 38 0;
#X connect 26 0 38 1;
#X connect 38 0 18 0;
