#N canvas 463 50 562 563 10;
#X obj 3 333 cnv 3 550 3 empty empty inlets 8 12 0 13 #dcdcdc #000000 0;
#X obj 3 426 cnv 3 550 3 empty empty outlets 8 12 0 13 #dcdcdc #000000 0;
#X obj 3 496 cnv 3 550 3 empty empty arguments 8 12 0 13 #dcdcdc #000000 0;
#X obj 93 435 cnv 17 3 17 empty empty 0 5 9 0 16 #dcdcdc #9c9c9c 0;
#X obj 94 341 cnv 17 3 31 empty empty 0 5 9 0 16 #dcdcdc #9c9c9c 0;
#X obj 3 533 cnv 15 552 21 empty empty empty 20 12 0 14 #e0e0e0 #202020 0;
#X obj 3 4 cnv 15 301 42 empty empty xfade.mc~ 20 20 2 37 #e0e0e0 #000000 0;
#X obj 306 4 cnv 15 250 40 empty empty empty 12 13 0 18 #7c7c7c #e0e4dc 0;
#N canvas 0 22 450 278 (subpatch) 0;
#X coords 0 1 100 -1 302 42 1 0 0;
#X restore 2 3 graph;
#N canvas 382 141 749 319 (subpatch) 0;
#X coords 0 -1 1 1 252 42 2 100 100;
#X restore 305 3 pd;
#X obj 345 11 cnv 10 10 10 empty empty ELSE 0 15 2 30 #7c7c7c #e0e4dc 0;
#X obj 133 40 cnv 4 4 4 empty empty Crossfade 0 28 2 18 #e0e0e0 #000000 0;
#X obj 21 40 cnv 4 4 4 empty empty Multi-channel 0 28 2 18 #e0e0e0 #000000 0;
#X obj 458 11 cnv 10 10 10 empty empty EL 0 6 2 13 #7c7c7c #e0e4dc 0;
#X obj 478 11 cnv 10 10 10 empty empty Locus 0 6 2 13 #7c7c7c #e0e4dc 0;
#X obj 515 11 cnv 10 10 10 empty empty Solus' 0 6 2 13 #7c7c7c #e0e4dc 0;
#X obj 464 26 cnv 10 10 10 empty empty ELSE 0 6 2 13 #7c7c7c #e0e4dc 0;
#X obj 502 26 cnv 10 10 10 empty empty library 0 6 2 13 #7c7c7c #e0e4dc 0;
#X obj 94 382 cnv 17 3 17 empty empty 1 5 9 0 16 #dcdcdc #9c9c9c 0;
#X obj 94 403 cnv 17 3 17 empty empty 2 5 9 0 16 #dcdcdc #9c9c9c 0;
#X obj 342 217 hsl 128 15 -1 1 0 0 empty empty empty -2 -8 0 10 #dcdcdc #000000 #000000 0 1;
#X floatatom 339 238 8 0 0 0 - - - 0;
#X text 324 216 A;
#X text 475 217 B;
#X obj 178 270 else/out.mc~;
#X obj 178 236 else/xfade.mc~, f 19;
#X text 211 341 - multichannel input (A);
#X text 211 383 - multichannel input (B);
#X text 153 341 signals;
#X text 153 383 signals;
#X text 153 435 signals;
#X text 213 435 - crossfaded output;
#X text 150 509 1) float - initial mix value (default 0);
#X obj 339 259 else/float2sig~ 10;
#X text 29 257 see also:;
#X obj 25 283 else/xfade~;
#N canvas 736 171 446 278 lin 0;
#X floatatom 245 143 9 0 0 0 - - - 0;
#X obj 134 133 sig~ 1;
#X obj 189 133 sig~ 2;
#X obj 134 221 else/numbox~ 6 10 100 #C0C0C4 #440008 10 0 0 0;
#X obj 338 135 else/setdsp~;
#X msg 78 132 lin \$1;
#X obj 78 103 tgl 19 0 empty empty empty 0 -8 0 10 #dfdfdf #000000 #000000 0 1;
#X text 43 41 The '-lin' flag or 'lin' message sets to linear crossfade.;
#X obj 245 81 else/knob 50 -1 1 0 0 empty empty #dfdfdf #7c7c7c black 1 0 0 0 1 320 0 0 0 empty empty 0 0 0 0 0 0 0 0 0 0;
#X obj 134 175 else/xfade.mc~ -lin;
#X connect 0 0 9 2;
#X connect 1 0 9 0;
#X connect 2 0 9 1;
#X connect 5 0 9 0;
#X connect 6 0 5 0;
#X connect 8 0 0 0;
#X connect 9 0 3 0;
#X restore 479 262 pd lin;
#X text 129 356 lin <float>;
#X text 210 356 - non zero sets to linear crossfade;
#X obj 3 461 cnv 3 550 3 empty empty flags 8 12 0 13 #dcdcdc #000000 0;
#X text 189 472 -lin: sets crossfade to linear;
#X obj 233 187 else/sine~ -mc 660 1320;
#X obj 178 154 else/white~ -ch 2;
#X text 141 404 signal(s);
#X text 211 404 - the mix value(s) from -1 (A) to 1 (B);
#X text 75 87 [xfade.mc~] crossfades between two multichannel sources. By default \, it performs equal power crossfade \, but can also do linear. The position can also be a multichannel signal \, in which case each channel gets its crossfade position., f 68;
#N canvas 736 171 477 428 multichannel-position 0;
#X obj 123 318 else/out.mc~;
#X obj 123 284 else/xfade.mc~, f 19;
#X obj 178 145 else/sine~ -mc 660 1320;
#X obj 123 112 else/white~ -ch 2;
#X obj 234 187 else/knob 50 -1 1 0 0 empty empty #dfdfdf #7c7c7c #000000 1 0 0 0 1 320 0 0 0 empty empty 0 12 0 -15 0 1 0 0 0 0;
#X floatatom 234 242 5 0 0 0 - - - 0;
#X obj 234 262 sig~ 0 0, f 11;
#X obj 297 187 else/knob 50 -1 1 0 0 empty empty #dfdfdf #7c7c7c #000000 1 0 0 0 1 320 0 0 0 empty empty 0 12 0 -15 0 1 0 0 0 0;
#X floatatom 297 242 5 0 0 0 - - - 0;
#X text 105 29 A multichannel position example. Not that if the number of multichannels mismatch \, the object becomes silent., f 41;
#X connect 1 0 0 0;
#X connect 2 0 1 1;
#X connect 3 0 1 0;
#X connect 4 0 5 0;
#X connect 5 0 6 0;
#X connect 6 0 1 2;
#X connect 7 0 8 0;
#X connect 8 0 6 1;
#X restore 367 292 pd multichannel-position;
#X connect 20 0 21 0;
#X connect 21 0 33 0;
#X connect 25 0 24 0;
#X connect 33 0 25 2;
#X connect 41 0 25 1;
#X connect 42 0 25 0;
