#N canvas 469 24 564 640 10;
#X obj 4 399 cnv 3 550 3 empty empty inlets 8 12 0 13 #dcdcdc #000000 0;
#X obj 4 492 cnv 3 550 3 empty empty outlets 8 12 0 13 #dcdcdc #000000 0;
#X obj 4 563 cnv 3 550 3 empty empty arguments 8 12 0 13 #dcdcdc #000000 0;
#X obj 98 501 cnv 17 3 17 empty empty 0 5 9 0 16 #dcdcdc #9c9c9c 0;
#X obj 98 446 cnv 17 3 17 empty empty 1 5 9 0 16 #dcdcdc #9c9c9c 0;
#X obj 2 3 cnv 15 301 42 empty empty xgate2~ 20 20 2 37 #e0e0e0 #000000 0;
#X obj 306 4 cnv 15 250 40 empty empty empty 12 13 0 18 #7c7c7c #e0e4dc 0;
#N canvas 0 22 450 278 (subpatch) 0;
#X coords 0 1 100 -1 302 42 1;
#X restore 2 3 graph;
#N canvas 382 141 749 319 (subpatch) 0;
#X coords 0 -1 1 1 252 42 2 0 0;
#X restore 305 3 pd;
#X obj 345 11 cnv 10 10 10 empty empty ELSE 0 15 2 30 #7c7c7c #e0e4dc 0;
#X obj 23 40 cnv 4 4 4 empty empty Route 0 28 2 18 #e0e0e0 #000000 0;
#X obj 142 40 cnv 4 4 4 empty empty with 0 28 2 18 #e0e0e0 #000000 0;
#X obj 458 11 cnv 10 10 10 empty empty EL 0 6 2 13 #7c7c7c #e0e4dc 0;
#X obj 478 11 cnv 10 10 10 empty empty Locus 0 6 2 13 #7c7c7c #e0e4dc 0;
#X obj 464 26 cnv 10 10 10 empty empty ELSE 0 6 2 13 #7c7c7c #e0e4dc 0;
#X obj 73 40 cnv 4 4 4 empty empty an 0 28 2 18 #e0e0e0 #000000 0;
#X obj 182 40 cnv 4 4 4 empty empty crossfade 0 28 2 18 #e0e0e0 #000000 0;
#X obj 98 406 cnv 17 3 33 empty empty 0 5 9 0 16 #dcdcdc #9c9c9c 0;
#X obj 4 611 cnv 15 552 21 empty empty empty 20 12 0 14 #e0e0e0 #202020 0;
#X text 164 406 signal;
#X obj 97 40 cnv 4 4 4 empty empty input 0 28 2 18 #e0e0e0 #000000 0;
#X text 207 501 - routed outputs with crossfade;
#X obj 267 150 hsl 128 15 0 1 0 0 empty empty empty -2 -8 0 10 #dcdcdc #000000 #000000 0 1;
#X floatatom 264 170 8 0 0 0 - - - 0;
#X obj 189 174 noise~;
#X text 330 191 select output channel;
#N canvas 207 34 366 264 (subpatch) 0;
#X obj 51 101 tgl 42 0 \$0-tgl-s \$0-tgl-r empty 1 8 1 9 #dcdcdc #7c7c7c #fcfcfc 0 1;
#X obj 215 68 route dsp;
#X obj 215 37 receive pd;
#N canvas 977 77 379 291 set_color 0;
#X obj 47 30 inlet;
#X obj 147 200 s \$0-cnv;
#X obj 47 83 select 0 1;
#X obj 47 220 s \$0-tgl-r;
#N canvas 0 22 712 637 off 0;
#X obj 490 220 * -1;
#X obj 424 300 +;
#X obj 409 325 +;
#X obj 347 219 * -65536;
#X obj 424 220 * -256;
#X obj 409 356 - 1;
#X obj 390 189 unpack f f f;
#X obj 225 295 +;
#X obj 210 320 +;
#X obj 148 214 * -65536;
#X obj 225 215 * -256;
#X obj 291 215 * -1;
#X obj 210 351 - 1;
#X obj 191 184 unpack f f f;
#X obj 379 423 pack;
#X msg 395 152 124 124 124;
#X msg 203 154 220 220 220;
#X obj 238 121 t b b;
#X obj 238 81 inlet;
#X obj 378 485 outlet;
#X connect 0 0 1 1;
#X connect 1 0 2 1;
#X connect 2 0 5 0;
#X connect 3 0 2 0;
#X connect 4 0 1 0;
#X connect 5 0 14 1;
#X connect 6 0 3 0;
#X connect 6 1 4 0;
#X connect 6 2 0 0;
#X connect 7 0 8 1;
#X connect 8 0 12 0;
#X connect 9 0 8 0;
#X connect 10 0 7 0;
#X connect 11 0 7 1;
#X connect 12 0 14 0;
#X connect 13 0 9 0;
#X connect 13 1 10 0;
#X connect 13 2 11 0;
#X connect 14 0 19 0;
#X connect 15 0 6 0;
#X connect 16 0 13 0;
#X connect 17 0 16 0;
#X connect 17 1 15 0;
#X connect 18 0 17 0;
#X restore 47 113 pd off;
#X msg 47 180 color \$1 \$2 0;
#X msg 147 131 -4.86997e+06 -1.34937e+07;
#X msg 147 171 color \$1 0 \$2;
#X connect 0 0 2 0;
#X connect 2 0 4 0;
#X connect 2 1 6 0;
#X connect 4 0 5 0;
#X connect 4 0 7 0;
#X connect 5 0 3 0;
#X connect 6 0 7 0;
#X connect 6 0 5 0;
#X connect 7 0 1 0;
#X restore 215 165 pd set_color;
#X obj 135 122 r \$0-tgl-s;
#N canvas 121 482 450 300 (subpatch) 0;
#X obj 101 101 cnv 25 40 25 empty \$0-cnv DSP 3 13 0 20 #dcdcdc #7c7c7c 0;
#X coords 0 -1 1 1 42 27 1 100 100;
#X restore 51 144 pd;
#X obj 226 139 s \$0-tgl-r;
#X msg 226 115 set \$1;
#X msg 135 177 \; pd dsp \$1;
#N canvas 256 32 278 194 load_check 0;
#X obj 136 53 sig~ 1;
#X obj 74 24 loadbang;
#X obj 136 86 snapshot~;
#X obj 91 52 del 5;
#X obj 136 151 outlet;
#X obj 74 103 tgl 15 0 empty empty empty 17 7 0 10 #fcfcfc #000000 #000000 0 1;
#X obj 74 126 switch~;
#X connect 0 0 2 0;
#X connect 1 0 3 0;
#X connect 1 0 5 0;
#X connect 2 0 4 0;
#X connect 3 0 2 0;
#X connect 3 0 5 0;
#X connect 5 0 6 0;
#X restore 51 72 pd load_check;
#X connect 1 0 3 0;
#X connect 1 0 7 0;
#X connect 2 0 1 0;
#X connect 4 0 8 0;
#X connect 4 0 3 0;
#X connect 7 0 6 0;
#X connect 9 0 0 0;
#X coords 0 -1 1 1 44 72 2 50 100;
#X restore 505 71 pd;
#X obj 215 249 else/meter4~;
#N canvas 881 158 307 506 example 0;
#X obj 61 236 else/meter4~;
#X obj 61 134 noise~;
#X obj 131 115 else/rand.i~ 0 3;
#X obj 131 87 else/tempo~ -on 60 100;
#X obj 131 142 else/numbox~ 6 12 100 #c0c0c4 #440008 10 0 0 0;
#X text 30 31 An example on how to change the route output channel without crossfading at signal rate., f 37;
#X obj 61 198 else/xgate2.mc~ -index 4;
#X obj 61 401 else/out.mc~;
#X connect 0 0 7 0;
#X connect 1 0 6 0;
#X connect 2 0 4 0;
#X connect 3 0 2 0;
#X connect 4 0 6 1;
#X connect 6 0 0 0;
#X restore 466 353 pd example;
#X obj 264 192 else/f2s~;
#X text 115 588 2) float - spread (default 1), f 69;
#X obj 98 468 cnv 17 3 17 empty empty 2 5 9 0 16 #dcdcdc #9c9c9c 0;
#X text 210 406 - input signal, f 53;
#X text 210 446 - output position;
#X text 210 468 - spread parameter;
#N canvas 623 86 531 562 spread 0;
#X text 53 39 The Sine/Cosine function is used for crossfading and the default spread value of 1 means the usual equal power crossfade between 2 adjacent channels \, where the mid point between the 2 channels means both have the same amplitude at square root of 0.5 (0.707107)., f 71;
#X text 53 101 Spread values greater than 1 spreads the signal to more than 2 adjacent channels. A spread value of two will spread the input to the 2 adjacent channels (to the right and to the left) with an amplidute of the square root of 0.5! Values smaller than 1 narrows the crossfading point closer to the selected channel. A value of 0.5 provides no actual crossfading \, meaning that 2 adjacent channels get muted at the mid point. Values smaller than 0.5 are possible and it narrows down even more at the channel center., f 71;
#X obj 222 223 hsl 128 15 0 1 0 0 empty empty empty -2 -8 0 10 #dcdcdc #000000 #000000 0 1;
#X floatatom 219 243 8 0 0 0 - - - 0;
#X obj 158 275 noise~;
#X obj 219 265 else/f2s~;
#X floatatom 306 294 10 0 0 0 - - - 0;
#X obj 158 374 else/meter8~;
#X obj 309 269 hsl 128 15 0.25 4 1 0 empty empty empty -2 -8 0 10 #dcdcdc #000000 #000000 0 1;
#X text 314 247 spread parameter;
#X text 321 321 note you can also use signals to set the spread parameter., f 21;
#X obj 158 322 else/xgate2.mc~ 8 0.5;
#X connect 2 0 3 0;
#X connect 3 0 5 0;
#X connect 4 0 11 0;
#X connect 5 0 11 1;
#X connect 6 0 11 2;
#X connect 8 0 6 0;
#X connect 11 0 7 0;
#X restore 471 329 pd spread;
#N canvas 661 154 459 446 index 0;
#X obj 209 136 hsl 128 15 0 4 0 0 empty empty empty -2 -8 0 10 #dcdcdc #000000 #000000 0 1;
#X floatatom 206 160 8 0 0 0 - - - 0;
#X obj 136 151 noise~;
#X text 273 183 select output channel;
#X obj 136 258 else/meter4~;
#X obj 206 184 else/f2s~;
#X msg 55 176 index \$1;
#X obj 55 144 tgl 21 0 empty empty empty 0 -8 0 10 #dfdfdf #000000 #000000 0 1;
#X text 61 32 At indexed mode the output channel selection is by channel number (not normalized from 0 to 1) \, where channels are indexes by 0 to 'n - 1'. A value of 'n' is possible but it circulates back to the first left channel.;
#X obj 136 216 else/xgate2.mc~ -index 4;
#X connect 0 0 1 0;
#X connect 1 0 5 0;
#X connect 2 0 9 0;
#X connect 5 0 9 1;
#X connect 6 0 9 0;
#X connect 7 0 6 0;
#X connect 9 0 4 0;
#X restore 477 305 pd index;
#X text 128 446 float/signal;
#X text 128 468 float/signal;
#X obj 4 528 cnv 3 550 3 empty empty flags 8 12 0 13 #dcdcdc #000000 0;
#X text 151 536 -index: sets to indexed mode, f 29;
#X text 122 423 index <float>;
#X text 210 423 - non zero sets to indexed mode (default non indexed);
#X obj 215 218 else/xgate2.mc~ 4;
#X text 158 501 signals;
#X text 115 572 1) float - number of output channels (default/min 2 \, max 512), f 69;
#X text 42 91 [xgate2.mc~] routes an input signal to 'n' specified channels in a multichannel output with crossfading between adjacent channels according to a spread parameter. By default we have a circular round by setting the output position from 0 to 1!, f 73;
#X text 34 276 see also:;
#X obj 30 302 else/xgate2.mc~;
#X obj 30 329 else/xgate~;
#X obj 30 357 else/xselect~;
#X connect 22 0 23 0;
#X connect 23 0 29 0;
#X connect 24 0 43 0;
#X connect 29 0 43 1;
#X connect 43 0 27 0;
