#N canvas 484 35 561 620 10;
#X obj 2 3 cnv 15 301 42 empty empty xgate.mc~ 20 20 2 37 #e0e0e0 #000000 0;
#X obj 306 4 cnv 15 250 40 empty empty empty 12 13 0 18 #7c7c7c #e0e4dc 0;
#N canvas 0 22 450 278 (subpatch) 0;
#X coords 0 1 100 -1 302 42 1;
#X restore 2 3 graph;
#N canvas 382 141 749 319 (subpatch) 0;
#X coords 0 -1 1 1 252 42 2 0 0;
#X restore 305 3 pd;
#X obj 345 11 cnv 10 10 10 empty empty ELSE 0 15 2 30 #7c7c7c #e0e4dc 0;
#X obj 23 40 cnv 4 4 4 empty empty Route\ an\ input\ to\ a\ multichannel\ output 0 28 2 18 #e0e0e0 #000000 0;
#X obj 458 11 cnv 10 10 10 empty empty EL 0 6 2 13 #7c7c7c #e0e4dc 0;
#X obj 478 11 cnv 10 10 10 empty empty Locus 0 6 2 13 #7c7c7c #e0e4dc 0;
#X obj 464 26 cnv 10 10 10 empty empty ELSE 0 6 2 13 #7c7c7c #e0e4dc 0;
#X obj 215 137 noise~;
#N canvas 207 34 366 264 (subpatch) 0;
#X obj 51 101 tgl 42 0 \$0-tgl-s \$0-tgl-r empty 1 8 1 9 #4a4f51 #cde5c3 #fcfcfc 0 1;
#X obj 215 68 route dsp;
#X obj 215 37 receive pd;
#N canvas 977 77 379 291 set_color 0;
#X obj 47 30 inlet;
#X obj 147 200 s \$0-cnv;
#X obj 47 83 select 0 1;
#X obj 47 220 s \$0-tgl-r;
#N canvas 0 22 712 637 off 0;
#X obj 490 220 * -1;
#X obj 424 300 +;
#X obj 409 325 +;
#X obj 347 219 * -65536;
#X obj 424 220 * -256;
#X obj 409 356 - 1;
#X obj 390 189 unpack f f f;
#X obj 225 295 +;
#X obj 210 320 +;
#X obj 148 214 * -65536;
#X obj 225 215 * -256;
#X obj 291 215 * -1;
#X obj 210 351 - 1;
#X obj 191 184 unpack f f f;
#X obj 379 423 pack;
#X msg 395 152 124 124 124;
#X msg 203 154 220 220 220;
#X obj 238 121 t b b;
#X obj 238 81 inlet;
#X obj 378 485 outlet;
#X connect 0 0 1 1;
#X connect 1 0 2 1;
#X connect 2 0 5 0;
#X connect 3 0 2 0;
#X connect 4 0 1 0;
#X connect 5 0 14 1;
#X connect 6 0 3 0;
#X connect 6 1 4 0;
#X connect 6 2 0 0;
#X connect 7 0 8 1;
#X connect 8 0 12 0;
#X connect 9 0 8 0;
#X connect 10 0 7 0;
#X connect 11 0 7 1;
#X connect 12 0 14 0;
#X connect 13 0 9 0;
#X connect 13 1 10 0;
#X connect 13 2 11 0;
#X connect 14 0 19 0;
#X connect 15 0 6 0;
#X connect 16 0 13 0;
#X connect 17 0 16 0;
#X connect 17 1 15 0;
#X connect 18 0 17 0;
#X restore 47 113 pd off;
#X msg 47 180 color \$1 \$2 0;
#X msg 147 131 -4.86997e+06 -1.34937e+07;
#X msg 147 171 color \$1 0 \$2;
#X connect 0 0 2 0;
#X connect 2 0 4 0;
#X connect 2 1 6 0;
#X connect 4 0 5 0;
#X connect 4 0 7 0;
#X connect 5 0 3 0;
#X connect 6 0 7 0;
#X connect 6 0 5 0;
#X connect 7 0 1 0;
#X restore 215 165 pd set_color;
#X obj 135 122 r \$0-tgl-s;
#N canvas 121 482 450 300 (subpatch) 0;
#X obj 101 101 cnv 25 40 25 empty \$0-cnv DSP 3 13 0 20 #4a4f51 #cde5c3 0;
#X coords 0 -1 1 1 42 27 1 100 100;
#X restore 51 144 pd;
#X obj 226 139 s \$0-tgl-r;
#X msg 226 115 set \$1;
#X msg 135 177 \; pd dsp \$1;
#N canvas 256 32 278 194 load_check 0;
#X obj 136 53 sig~ 1;
#X obj 74 24 loadbang;
#X obj 136 86 snapshot~;
#X obj 91 52 del 5;
#X obj 136 151 outlet;
#X obj 74 103 tgl 15 0 empty empty empty 17 7 0 10 #fcfcfc #000000 #000000 0 1;
#X obj 74 126 switch~;
#X connect 0 0 2 0;
#X connect 1 0 3 0;
#X connect 1 0 5 0;
#X connect 2 0 4 0;
#X connect 3 0 2 0;
#X connect 3 0 5 0;
#X connect 5 0 6 0;
#X restore 51 72 pd load_check;
#X connect 1 0 3 0;
#X connect 1 0 7 0;
#X connect 2 0 1 0;
#X connect 4 0 8 0;
#X connect 4 0 3 0;
#X connect 7 0 6 0;
#X connect 9 0 0 0;
#X coords 0 -1 1 1 44 72 2 50 100;
#X restore 505 71 pd;
#X obj 4 423 cnv 3 550 3 empty empty inlets 8 12 0 13 #dcdcdc #000000 0;
#X obj 4 501 cnv 3 550 3 empty empty outlets 8 12 0 13 #dcdcdc #000000 0;
#X obj 4 537 cnv 3 550 3 empty empty arguments 8 12 0 13 #dcdcdc #000000 0;
#X obj 4 592 cnv 15 552 21 empty empty empty 20 12 0 14 #e0e0e0 #202020 0;
#X obj 127 510 cnv 17 3 17 empty empty 0 5 9 0 16 #dcdcdc #9c9c9c 0;
#X obj 127 431 cnv 17 3 62 empty empty 0 5 9 0 16 #dcdcdc #9c9c9c 0;
#X text 208 446 float;
#X text 166 461 time <float>;
#X text 254 461 - crossfade time in ms;
#X text 141 558 2) float - crossfade time in ms (default 0 - no crossfade);
#X text 141 573 3) float - initially selected channel (default 0: none), f 58;
#X obj 268 128 hradio 15 1 0 5 empty empty empty 0 -8 0 10 #dcdcdc #000000 #000000 0;
#X floatatom 268 151 5 0 0 0 - - - 0;
#X text 308 150 select output (0 = none);
#X text 254 446 - selected outlet (0 is none);
#X text 254 431 - input signal to route;
#X text 254 512 - routed output;
#X text 141 543 1) float - number of outlets/channels (default 1 \, max 500);
#X obj 215 205 else/meter4~;
#X text 99 230 [else/meter4~] =>;
#X text 44 301 see also:;
#X text 184 431 signal(s);
#X text 184 512 signal(s);
#X obj 215 175 else/xgate.mc~ 4 1000 3;
#X obj 215 356 else/out.mc~;
#X obj 40 327 else/xgate~;
#X text 83 87 [xgate.mc~] routes to a channel output in a multichannel connection.;
#X obj 40 351 else/xgate2.mc~;
#X obj 40 375 else/xselect~;
#N canvas 647 87 546 599 mc-input 0;
#X obj 108 111 hradio 19 1 0 5 empty empty empty 0 -8 0 10 #dcdcdc #000000 #000000 0;
#X floatatom 108 138 3 0 0 0 - - - 0;
#X text 132 139 select output (0 = none);
#X obj 108 243 meter8~;
#X listbox 122 437 20 0 0 0 - - - 16;
#X text 37 23 The object can also take multichannel inputs. In this case \, the total output channels are actually the number of outputs set by the argument times the number of input channels \, which actually become the number of grouped channels. Then \, tne channel selection routes to the given group., f 73;
#X obj 139 172 else/sigs~ 0.1 1;
#X obj 122 408 else/s2f~;
#X obj 108 206 xgate.mc~ 4 200;
#X listbox 108 535 9 0 0 0 - - - 12;
#X obj 108 506 else/s2f~;
#X listbox 179 535 9 0 0 0 - - - 12;
#X obj 179 506 else/s2f~;
#X obj 108 475 else/unmerge~ 4 2, f 48;
#X listbox 250 535 9 0 0 0 - - - 12;
#X obj 250 506 else/s2f~;
#X listbox 321 535 9 0 0 0 - - - 12;
#X obj 321 506 else/s2f~;
#X text 322 305 Hint: you can use [unmerge~] to route a multichannel input to a separate outlet if you need it. See below., f 29;
#X connect 0 0 1 0;
#X connect 1 0 8 0;
#X connect 3 0 7 0;
#X connect 3 0 13 0;
#X connect 6 0 8 0;
#X connect 7 0 4 0;
#X connect 8 0 3 0;
#X connect 10 0 9 0;
#X connect 12 0 11 0;
#X connect 13 0 10 0;
#X connect 13 1 12 0;
#X connect 13 2 15 0;
#X connect 13 3 17 0;
#X connect 15 0 14 0;
#X connect 17 0 16 0;
#X restore 465 373 pd mc-input;
#X msg 149 137 n 2;
#X msg 183 137 n 4;
#X text 184 476 n <float>;
#X text 250 476 - set number of output channels;
#X connect 9 0 34 0;
#X connect 22 0 23 0;
#X connect 23 0 34 0;
#X connect 29 0 35 0;
#X connect 34 0 29 0;
#X connect 41 0 34 0;
#X connect 42 0 34 0;
