#N canvas 483 52 564 573 10;
#X obj 4 305 cnv 3 550 3 empty empty inlets 8 12 0 13 #dcdcdc #000000 0;
#X obj 4 416 cnv 3 550 3 empty empty outlets 8 12 0 13 #dcdcdc #000000 0;
#X obj 83 425 cnv 17 3 17 empty empty 0 5 9 0 16 #dcdcdc #9c9c9c 0;
#X obj 83 365 cnv 17 3 17 empty empty n+1 5 9 0 16 #dcdcdc #9c9c9c 0;
#X text 157 364 signal;
#X text 148 425 signal;
#X obj 157 241 else/out~;
#X obj 2 3 cnv 15 301 42 empty empty xselect2~ 20 20 2 37 #e0e0e0 #000000 0;
#N canvas 0 22 450 278 (subpatch) 0;
#X coords 0 1 100 -1 302 42 1;
#X restore 2 3 graph;
#X obj 23 40 cnv 4 4 4 empty empty Select 0 28 2 18 #e0e0e0 #000000 0;
#X obj 141 40 cnv 4 4 4 empty empty with 0 28 2 18 #e0e0e0 #000000 0;
#X obj 76 40 cnv 4 4 4 empty empty channel 0 28 2 18 #e0e0e0 #000000 0;
#X obj 185 40 cnv 4 4 4 empty empty crossfade 0 28 2 18 #e0e0e0 #000000 0;
#X obj 83 313 cnv 17 3 43 empty empty n 5 9 0 16 #dcdcdc #9c9c9c 0;
#X obj 346 128 hsl 128 15 0 1 0 0 empty empty empty -2 -8 0 10 #dcdcdc #000000 #000000 0 1;
#X floatatom 343 150 11 0 0 0 - - - 0;
#X text 157 312 signal;
#X text 361 128 select channels;
#X text 115 327 index <float>;
#X text 203 327 - <1> sets to indexed mode \, <0> to non-indexed (default);
#N canvas 205 111 917 381 modes 0;
#X msg 67 161 index \$1;
#X obj 67 138 tgl 15 0 empty empty empty 17 7 0 10 #dcdcdc #000000 #000000 0 1;
#X obj 108 263 else/out~;
#X obj 297 150 hsl 128 15 0 3 0 0 empty empty empty -2 -8 0 10 #dcdcdc #000000 #000000 0 1;
#X floatatom 294 172 11 0 0 0 - - - 0;
#X text 312 150 select channels;
#X obj 108 196 osc~ 220;
#X obj 232 196 osc~ 440;
#X obj 170 196 osc~ 330;
#X obj 294 196 else/f2s~;
#X obj 108 228 else/xselect2~ -index 3, f 42;
#X text 79 47 At indexed mode the output channel selection is by channel number (not normalized from 0 to 1) \, where channels are indexes by 0 to 'n - 1'. Values outside this range are possible but fade out to silence (same is true for non indexed mode).;
#X obj 498 126 tgl 15 0 empty empty empty 17 7 0 10 #dcdcdc #000000 #000000 0 1;
#X obj 539 251 else/out~;
#X obj 539 184 osc~ 220;
#X obj 669 184 osc~ 440;
#X obj 604 184 osc~ 330;
#X obj 539 216 else/xselect2~ -circular 3, f 44;
#X obj 734 154 phasor~ 0.5;
#X obj 734 186 else/numbox~ 6 10 100 #C0C0C4 #440008 10 0 0 0;
#X msg 498 149 circular \$1;
#X text 476 42 In circular mode \, the selection input from 0 to 1 is circular \, meaning that 1 goes back to 0! If in indexed mode as well \, values are from 0 to 'n' \, where 'n' goes back to 0! Values outside the range wrap around. Note how this mode makes this object the 'inverse' of [pan~]., f 62;
#X connect 0 0 10 0;
#X connect 1 0 0 0;
#X connect 3 0 4 0;
#X connect 4 0 9 0;
#X connect 6 0 10 0;
#X connect 7 0 10 2;
#X connect 8 0 10 1;
#X connect 9 0 10 3;
#X connect 10 0 2 0;
#X connect 12 0 20 0;
#X connect 14 0 17 0;
#X connect 15 0 17 2;
#X connect 16 0 17 1;
#X connect 17 0 13 0;
#X connect 18 0 19 0;
#X connect 19 0 17 3;
#X connect 20 0 17 0;
#X restore 480 217 pd modes;
#X obj 157 206 else/xselect2~ 3, f 42;
#X obj 306 4 cnv 15 250 40 empty empty empty 12 13 0 18 #7c7c7c #e0e4dc 0;
#N canvas 382 141 749 319 (subpatch) 0;
#X coords 0 -1 1 1 252 42 2 0 0;
#X restore 305 3 pd;
#X obj 345 11 cnv 10 10 10 empty empty ELSE 0 15 2 30 #7c7c7c #e0e4dc 0;
#X obj 458 11 cnv 10 10 10 empty empty EL 0 6 2 13 #7c7c7c #e0e4dc 0;
#X obj 478 11 cnv 10 10 10 empty empty Locus 0 6 2 13 #7c7c7c #e0e4dc 0;
#X obj 515 11 cnv 10 10 10 empty empty Solus' 0 6 2 13 #7c7c7c #e0e4dc 0;
#X obj 464 26 cnv 10 10 10 empty empty ELSE 0 6 2 13 #7c7c7c #e0e4dc 0;
#X obj 502 26 cnv 10 10 10 empty empty library 0 6 2 13 #7c7c7c #e0e4dc 0;
#N canvas 816 163 476 356 example 0;
#X obj 43 236 else/out~;
#X text 106 38 An example on how to change the input channel at signal rate., f 32;
#X obj 43 128 noise~;
#X obj 206 155 else/cusp~ 1000;
#X obj 152 128 else/perlin~ 400;
#X obj 97 128 osc~ 700;
#X obj 313 135 else/rand.i~ 0 3;
#X obj 313 164 else/numbox~ 3 12 100 #c0c0c4 #440008 10 0 0 0;
#X obj 313 103 else/tempo~ -on 60 100;
#X obj 43 201 else/xselect2~ -index 4, f 46;
#X connect 2 0 9 0;
#X connect 3 0 9 3;
#X connect 4 0 9 2;
#X connect 5 0 9 1;
#X connect 6 0 7 0;
#X connect 7 0 9 4;
#X connect 8 0 6 0;
#X connect 9 0 0 0;
#X restore 468 265 pd example;
#X text 28 189 see also:;
#X obj 25 212 else/xselect~;
#X obj 25 236 else/select~;
#X obj 157 174 osc~ 220;
#X obj 281 174 osc~ 440;
#X obj 219 174 osc~ 330;
#X obj 343 174 else/f2s~;
#X obj 25 259 else/xgate2~;
#X obj 83 389 cnv 17 3 17 empty empty n+2 5 9 0 16 #dcdcdc #9c9c9c 0;
#X text 157 388 signal;
#X text 203 364 - input position;
#X text 203 388 - spread parameter;
#X text 194 425 - crossfaded input channels;
#X obj 4 493 cnv 3 550 3 empty empty arguments 8 12 0 13 #dcdcdc #000000 0;
#X obj 4 542 cnv 15 552 21 empty empty empty 20 12 0 14 #e0e0e0 #202020 0;
#X text 115 520 2) float - spread (default 1), f 69;
#X obj 4 451 cnv 3 550 3 empty empty flags 8 12 0 13 #dcdcdc #000000 0;
#X text 151 459 -index: sets to indexed mode, f 29;
#X text 115 504 1) float - number of output channels (default/min 2 \, max 512), f 69;
#N canvas 673 91 527 437 spread 0;
#X text 53 39 The Sine/Cosine function is used for crossfading and the default spread value of 1 means the usual equal power crossfade between 2 adjacent channels \, where the mid point between the 2 channels means both have the same amplitude at square root of 0.5 (0.707107)., f 71;
#X text 53 101 Spread values greater than 1 spreads the signal to more than 2 adjacent channels. A spread value of two will spread the input to the 2 adjacent channels (to the right and to the left) with an amplidute of the square root of 0.5! Values smaller than 1 narrows the crossfading point closer to the selected channel. A value of 0.5 provides no actual crossfading \, meaning that 2 adjacent channels get muted at the mid point. Values smaller than 0.5 are possible and it narrows down even more at the channel center., f 71;
#X floatatom 323 333 10 0 0 0 - - - 0;
#X obj 326 308 hsl 128 15 0.25 2 0 0 empty empty empty -2 -8 0 10 #dcdcdc #000000 #000000 0 1;
#X text 334 308 spread parameter;
#X text 330 354 note you can also use signals to set the spread parameter., f 21;
#X obj 50 351 else/out~;
#X obj 252 238 hsl 128 15 0 1 0 0 empty empty empty -2 -8 0 10 #dcdcdc #000000 #000000 0 1;
#X floatatom 249 260 11 0 0 0 - - - 0;
#X text 267 238 select channels;
#X obj 249 284 else/f2s~ 25;
#X obj 50 316 else/xselect2~ 4 0.5, f 42;
#X obj 199 288 noise~;
#X obj 25 264 osc~ 440;
#X obj 149 264 osc~ 1880;
#X obj 87 264 osc~ 980;
#X connect 2 0 11 5;
#X connect 3 0 2 0;
#X connect 7 0 8 0;
#X connect 8 0 10 0;
#X connect 10 0 11 4;
#X connect 11 0 6 0;
#X connect 12 0 11 3;
#X connect 13 0 11 0;
#X connect 14 0 11 2;
#X connect 15 0 11 1;
#X restore 474 241 pd spread;
#X text 203 312 - input channel to select from, f 56;
#X text 97 342 circular <float>;
#X text 203 342 - <1> sets to circular mode \, (default non-circular);
#X text 58 86 [xselect2~] selects from 'n' inputs with crossfading between adjacent channels according to a spread parameter., f 61;
#X text 151 473 -circular: sets to circular mode;
#X connect 14 0 15 0;
#X connect 15 0 37 0;
#X connect 21 0 6 0;
#X connect 34 0 21 0;
#X connect 35 0 21 2;
#X connect 36 0 21 1;
#X connect 37 0 21 3;
