#N canvas 462 64 403 514 12;
#X obj 140 55 inlet~;
#X obj 140 428 outlet~;
#X obj 140 375 else/sum~;
#X msg 55 212 resize \$1;
#X obj 55 143 else/nchs~;
#X obj 55 179 change;
#X obj 162 338 r \$0-sum;
#X obj 140 276 clone -d rampnoise.mc-unit 1;
#N canvas 246 110 465 549 route 0;
#X msg 195 239 sum \$1;
#X obj 195 205 change -1;
#X obj 102 35 inlet;
#X obj 102 103 route sum;
#X obj 102 143 != 0;
#X obj 195 130 route -sum;
#X msg 195 160 1;
#X obj 195 68 else/loadbanger 2;
#X msg 311 135 0;
#X obj 195 99 else/args -;
#X obj 195 272 s \$0-sum;
#X obj 102 338 route seed;
#X obj 102 362 route bang float;
#X msg 102 406 all seed;
#X msg 178 410 all seed \$1;
#X obj 181 467 outlet;
#X obj 322 252 loadbang;
#X obj 322 276 else/args -;
#X obj 322 300 route -seed;
#X obj 322 324 route float;
#X connect 0 0 10 0;
#X connect 1 0 0 0;
#X connect 2 0 3 0;
#X connect 3 0 4 0;
#X connect 3 1 11 0;
#X connect 4 0 1 0;
#X connect 5 0 6 0;
#X connect 6 0 1 0;
#X connect 7 0 9 0;
#X connect 7 1 8 0;
#X connect 8 0 1 0;
#X connect 9 0 5 0;
#X connect 11 0 12 0;
#X connect 12 0 13 0;
#X connect 12 1 14 0;
#X connect 13 0 15 0;
#X connect 14 0 15 0;
#X connect 16 0 17 0;
#X connect 17 0 18 0;
#X connect 18 0 19 0;
#X connect 19 0 14 0;
#X restore 179 93 pd route;
#X connect 0 0 4 0;
#X connect 0 0 7 0;
#X connect 0 1 8 0;
#X connect 2 0 1 0;
#X connect 3 0 7 0;
#X connect 4 0 5 0;
#X connect 5 0 3 0;
#X connect 6 0 2 0;
#X connect 7 0 2 0;
#X connect 8 0 7 0;
