#N canvas 274 43 603 350 10;
#X declare -path else;
#X obj 75 48 inlet~ fwd;
#N canvas 604 92 693 550 route/init 0;
#X obj 297 471 outlet;
#X obj 156 35 inlet;
#X obj 57 266 else/order;
#X obj 138 267 else/order;
#X obj 217 268 else/order;
#X obj 297 268 else/order;
#X obj 57 330 else/insert 1 freq;
#X obj 217 330 else/insert 1 amp, f 11;
#X obj 297 300 else/insert 1 ramp, f 11;
#N canvas 547 79 708 641 init 0;
#X obj 213 102 trigger anything bang;
#X obj 156 73 route bang;
#X obj 213 128 else/break -;
#X obj 216 293 else/insert freq;
#X obj 232 240 else/insert amp;
#X obj 246 219 else/insert ramp;
#X obj 156 50 else/args;
#X obj 90 337 else/stack;
#X msg 90 309 dump;
#X obj 90 585 outlet;
#X obj 255 471 v n_\$0;
#X obj 356 216 v n_\$0;
#X obj 90 20 else/loadbanger 4;
#X obj 255 494 max 1;
#X obj 348 186 list length;
#X obj 255 525 s \$0-n;
#X obj 223 266 else/insert decay;
#X msg 595 367 rampall \$1;
#X msg 466 307 ampall \$1;
#X msg 365 386 decayall \$1;
#X obj 188 493 v mc_\$0;
#X obj 188 522 s \$0-mc;
#X msg 203 464 1;
#X obj 153 218 t b b;
#X msg 564 270 attackall \$1;
#X obj 213 153 route -freq -decay -amp -ramp -rampall -decayall -ampall -mc -attackall -attack, f 80;
#X obj 511 215 else/insert attack;
#X connect 0 0 2 0;
#X connect 1 1 0 0;
#X connect 2 0 25 0;
#X connect 3 0 7 1;
#X connect 4 0 7 1;
#X connect 5 0 7 1;
#X connect 6 0 1 0;
#X connect 7 0 9 0;
#X connect 8 0 7 0;
#X connect 10 0 13 0;
#X connect 12 0 8 0;
#X connect 12 1 23 0;
#X connect 12 2 6 0;
#X connect 13 0 15 0;
#X connect 14 0 11 0;
#X connect 16 0 7 1;
#X connect 17 0 7 1;
#X connect 18 0 7 1;
#X connect 19 0 7 1;
#X connect 20 0 21 0;
#X connect 22 0 20 0;
#X connect 23 0 20 0;
#X connect 23 1 10 0;
#X connect 24 0 7 1;
#X connect 25 0 3 0;
#X connect 25 0 14 0;
#X connect 25 1 14 0;
#X connect 25 1 16 0;
#X connect 25 2 4 0;
#X connect 25 2 14 0;
#X connect 25 3 5 0;
#X connect 25 3 14 0;
#X connect 25 4 17 0;
#X connect 25 5 19 0;
#X connect 25 6 18 0;
#X connect 25 7 22 0;
#X connect 25 8 24 0;
#X connect 25 9 14 0;
#X connect 25 9 26 0;
#X connect 26 0 7 1;
#X restore 191 69 pd init;
#X obj 138 304 else/insert 1 decay;
#N canvas 266 157 199 256 route 0;
#X obj 71 81 route mc;
#X obj 71 145 == 0;
#X obj 71 187 s \$0-sum;
#X msg 71 166 sum \$1;
#X obj 84 108 r \$0-mc;
#X obj 71 40 inlet;
#X connect 0 0 1 0;
#X connect 1 0 3 0;
#X connect 3 0 2 0;
#X connect 4 0 1 0;
#X connect 5 0 0 0;
#X restore 575 111 pd route mc;
#N canvas 424 155 573 493 resize 0;
#X obj 139 392 outlet;
#X obj 112 61 inlet;
#X obj 131 161 r \$0-n;
#X msg 112 218 resize \$1;
#X obj 112 97 list length;
#X obj 112 124 max 1;
#X obj 112 195 change;
#X msg 190 320 all ramp \$1;
#X obj 190 295 f 10;
#X obj 112 249 t b a;
#X obj 190 61 inlet;
#X obj 280 61 inlet;
#X obj 380 61 inlet;
#X msg 380 320 all decay \$1;
#X obj 380 295 f 0;
#X msg 280 320 all amp \$1;
#X obj 470 61 inlet;
#X obj 470 295 f 0;
#X msg 470 320 all attack \$1;
#X obj 280 295 f 1;
#X connect 1 0 4 0;
#X connect 2 0 6 0;
#X connect 3 0 9 0;
#X connect 4 0 5 0;
#X connect 5 0 6 0;
#X connect 6 0 3 0;
#X connect 7 0 0 0;
#X connect 8 0 7 0;
#X connect 9 0 8 0;
#X connect 9 0 14 0;
#X connect 9 0 17 0;
#X connect 9 0 19 0;
#X connect 9 1 0 0;
#X connect 10 0 8 0;
#X connect 11 0 19 0;
#X connect 12 0 14 0;
#X connect 13 0 0 0;
#X connect 14 0 13 0;
#X connect 15 0 0 0;
#X connect 16 0 17 0;
#X connect 17 0 18 0;
#X connect 18 0 0 0;
#X connect 19 0 15 0;
#X restore 430 264 pd resize and all;
#X obj 297 144 t l l;
#X obj 227 149 t l l;
#X obj 172 166 t l l;
#X obj 105 192 t l l;
#X obj 156 106 route freq decay amp ramp rampall ampall decayall attackall attack, f 66;
#X obj 564 266 else/order;
#X obj 564 172 t l l;
#X obj 564 298 else/insert 1 attack, f 11;
#X connect 1 0 17 0;
#X connect 2 0 6 0;
#X connect 3 0 10 0;
#X connect 4 0 7 0;
#X connect 5 0 8 0;
#X connect 6 0 0 0;
#X connect 7 0 0 0;
#X connect 8 0 0 0;
#X connect 9 0 17 0;
#X connect 10 0 0 0;
#X connect 12 0 0 0;
#X connect 13 0 5 0;
#X connect 13 1 12 0;
#X connect 14 0 4 0;
#X connect 14 1 12 0;
#X connect 15 0 3 0;
#X connect 15 1 12 0;
#X connect 16 0 2 0;
#X connect 16 1 12 0;
#X connect 17 0 16 0;
#X connect 17 1 15 0;
#X connect 17 2 14 0;
#X connect 17 3 13 0;
#X connect 17 4 12 1;
#X connect 17 5 12 2;
#X connect 17 6 12 3;
#X connect 17 7 12 4;
#X connect 17 8 19 0;
#X connect 17 9 11 0;
#X connect 18 0 20 0;
#X connect 19 0 18 0;
#X connect 19 1 12 0;
#X connect 20 0 0 0;
#X restore 132 99 pd route/init;
#X obj 75 287 outlet~;
#N canvas 360 151 395 378 sum 0;
#X obj 223 170 r \$0-n;
#X obj 212 220 expr 1/$f1;
#X obj 118 200 *~ 0;
#X obj 118 138 else/sum~;
#X obj 193 88 r \$0-sum;
#X obj 193 137 sel 0 1;
#X obj 212 196 f;
#X msg 176 172 1;
#X obj 118 48 inlet~;
#X obj 118 282 outlet~;
#X obj 193 111 route sum;
#X connect 0 0 6 0;
#X connect 1 0 2 1;
#X connect 2 0 9 0;
#X connect 3 0 2 0;
#X connect 4 0 3 0;
#X connect 4 0 10 0;
#X connect 5 0 7 0;
#X connect 5 1 6 0;
#X connect 6 0 1 0;
#X connect 7 0 2 1;
#X connect 8 0 3 0;
#X connect 10 0 5 0;
#X restore 75 223 pd sum;
#X obj 75 175 clone -x -do else/resonclone2 1;
#X text 344 167 Part of ELSE \; https://github.com/porres/pd-else;
#X text 346 148 Alexandre Torres Porres (2017);
#X obj 352 113 declare -path else;
#X connect 0 0 4 0;
#X connect 0 1 1 0;
#X connect 1 0 4 0;
#X connect 3 0 2 0;
#X connect 4 0 3 0;
