#N struct 1033-f float x;
#N canvas 562 103 560 375 10;
#X obj 3 3 cnv 15 301 42 empty empty median 20 20 2 37 -233017 -1 0
;
#X obj 306 4 cnv 15 250 40 empty empty empty 12 13 0 18 -128992 -233080
0;
#N canvas 0 22 450 278 (subpatch) 0;
#X coords 0 1 100 -1 302 42 1;
#X restore 2 3 graph;
#X obj 23 40 cnv 4 4 4 empty empty List 0 28 2 18 -233017 -1 0;
#X obj 58 40 cnv 4 4 4 empty empty median 0 28 2 18 -233017 -1 0;
#X obj 306 4 cnv 15 250 40 empty empty empty 12 13 0 18 -128992 -233080
0;
#N canvas 382 141 749 319 (subpatch) 0;
#X coords 0 -1 1 1 252 42 2 0 0;
#X restore 305 3 pd;
#X obj 345 11 cnv 10 10 10 empty empty ELSE 0 15 2 30 -128992 -233080
0;
#X obj 458 11 cnv 10 10 10 empty empty EL 0 6 2 13 -128992 -233080
0;
#X obj 478 11 cnv 10 10 10 empty empty Locus 0 6 2 13 -128992 -233080
0;
#X obj 515 11 cnv 10 10 10 empty empty Solus' 0 6 2 13 -128992 -233080
0;
#X obj 464 26 cnv 10 10 10 empty empty ELSE 0 6 2 13 -128992 -233080
0;
#X obj 502 26 cnv 10 10 10 empty empty library 0 6 2 13 -128992 -233080
0;
#X obj 3 247 cnv 3 550 3 empty empty inlets 8 12 0 13 -228856 -1 0
;
#X obj 3 278 cnv 3 550 3 empty empty outlets 8 12 0 13 -228856 -1 0
;
#X obj 3 315 cnv 3 550 3 empty empty arguments 8 12 0 13 -228856 -1
0;
#X obj 112 287 cnv 17 3 17 empty empty 0 5 9 0 16 -228856 -162280 0
;
#X obj 113 255 cnv 17 3 17 empty empty 0 5 9 0 16 -228856 -162280 0
;
#X obj 3 346 cnv 15 552 21 empty empty empty 20 12 0 14 -233017 -33289
0;
#X obj 231 212 else/display;
#X obj 231 181 else/median;
#X msg 243 158 4 1 3 2;
#X text 170 324 (none);
#X text 164 287 float -;
#X text 221 288 the median of the input list;
#X text 169 256 list -;
#X text 222 257 the float list to calculate the median on;
#X msg 231 135 9 0 3 1 10 20 33;
#X text 75 88 The [median] objects retunrs the median of a number list.
Non float elements are ignored.;
#X connect 20 0 19 0;
#X connect 21 0 20 0;
#X connect 27 0 20 0;
