#N canvas 409 49 575 637 12;
#X declare -path else;
#X obj 322 32 declare -path else;
#X obj 272 261 else/display;
#X floatatom 100 203 5 0 0 0 - - - 0;
#X msg 114 238 anything;
#X text 55 89 [pd.link] allows you to communicate to/from different Pd instances via network \, so you can use different versions of Pd and even different forks of Pure Data (such as PlugData).;
#X text 55 141 All you need is a symbol address \, so it's much simlper than using OSC or FUDI., f 60;
#X obj 272 402 numbox~ 6 12 100 #C0C0C4 #440008 10 0 0 0;
#X obj 98 361 stepnoise~ 0.5;
#X obj 416 360 setdsp~;
#X obj 98 389 numbox~ 6 12 100 #C0C0C4 #440008 10 0 0 0;
#X obj 98 418 pd.link~ sig;
#X obj 272 366 pd.link~ sig;
#X obj 100 277 pd.link control;
#X obj 272 232 pd.link control;
#X text 91 498 The signal version [pd.link~] allows you to send and receive audio streams. Open their help files for more details., f 49;
#X connect 2 0 12 0;
#X connect 3 0 12 0;
#X connect 7 0 9 0;
#X connect 9 0 10 0;
#X connect 11 0 6 0;
#X connect 13 0 1 0;
