#N canvas 523 23 598 619 12;
#X declare -path else;
#X obj 37 227 declare -path else;
#X obj 194 202 keyboard 17 80 3 3 0 0 empty empty;
#X listbox 194 296 9 0 0 0 - - - 0;
#X obj 331 366 - 60;
#X obj 194 329 stripnote;
#X obj 67 539 out~;
#X text 23 29 The [plaits~] object from the ELSE library ports a famous eurorack module to Pure Data. Check its help file. It contains many synthesis techniques \, most of which are presented in this tutorial., f 75;
#X obj 194 539 out~;
#X text 204 429 input directly in MIDI pitch., f 15;
#X obj 194 495 plaits~ -midi 60;
#X floatatom 67 455 5 0 0 0 - - - 16;
#X obj 331 539 out~;
#X floatatom 331 455 5 0 0 0 - - - 16;
#X obj 331 495 plaits~ -cv;
#X text 391 458 CV;
#X obj 331 413 / 60;
#X text 23 80 The code of this original module takes pitch input in CV taking into consideration an explicit voltage value taking into consideratio the V/oct in -5v to 5v range. For this object though this has been disconsidered and we have instead a 'cv' input with audio signal from -1 to 1 \, where The 0V referenceis middle C (MIDI Pitch 60). The default input is in Hertz and you can also have MIDI though., f 75;
#X obj 67 495 plaits~;
#X obj 67 417 mtof;
#X text 127 458 hz;
#X connect 1 0 2 0;
#X connect 2 0 4 0;
#X connect 3 0 15 0;
#X connect 4 0 3 0;
#X connect 4 0 9 0;
#X connect 4 0 18 0;
#X connect 9 0 7 0;
#X connect 9 1 7 1;
#X connect 10 0 17 0;
#X connect 12 0 13 0;
#X connect 13 0 11 0;
#X connect 13 1 11 1;
#X connect 15 0 12 0;
#X connect 17 0 5 0;
#X connect 17 1 5 1;
#X connect 18 0 10 0;
