#N canvas 690 67 777 384 12;
#X declare -path else;
#X obj 349 57 hsl 200 15 1 40 0 0 \$0-width \$0-width-set Sustain -2
-8 1 12 -191407 -1 -1 3572 1;
#X obj 349 92 hsl 200 15 0.9 0.999 0 0 \$0-feedback \$0-feedback-set
Feedback -2 -8 1 12 -228856 -1 -1 19096 1;
#X obj 349 127 hsl 200 15 100 8000 0 0 \$0-cutoff \$0-cutoff-set Cutoff
-2 -8 1 12 -220731 -1 -1 14106 1;
#X obj 62 45 tgl 30 0 empty \$0-metro empty 17 7 0 10 -228856 -1 -1
1 1;
#X floatatom 115 69 5 0 0 0 - - -;
#X obj 118 44 hsl 128 15 500 3000 0 0 empty \$0-tempo Tempo -2 -8 0
10 -228856 -1 -1 12700 1;
#X obj 62 91 metro, f 8;
#N canvas 454 408 375 283 init 0;
#X obj 230 44 table \$0-ch1 6;
#X obj 230 66 table \$0-ch2 6;
#X obj 230 90 table \$0-ch3 6;
#X obj 230 112 table \$0-ch4 6;
#X obj 230 136 table \$0-ch5 6;
#X obj 230 158 table \$0-ch6 6;
#X obj 230 182 table \$0-ch7 6;
#X obj 230 204 table \$0-ch8 6;
#X obj 24 26 initmess \; \$0-tempo 3000 \; \$0-metro 1 \; \$0-ch1 0
40 47 52 56 59 64 \; \$0-ch2 0 43 47 50 55 62 67 \; \$0-ch3 0 45 52
57 60 64 69 \; \$0-ch4 0 42 49 54 57 61 66 \; \$0-ch5 0 40 47 54 59
62 66 \; \$0-ch6 0 44 49 56 61 65 68 \; \$0-ch7 0 38 41 45 50 57 62
\; \$0-ch8 0 35 42 47 50 54 59 \; \$0-cutoff-set 5700 \; \$0-feedback-set
0.995 \; \$0-width-set 8 \; pd dsp 1;
#X restore 194 80 pd init \; tables;
#X obj 62 243 drive~;
#X obj 62 275 out~;
#X obj 62 122 rand.i 1 8;
#X obj 609 79 declare -path else;
#X floatatom 62 150 3 0 0 0 - - -;
#X text 89 150 <= chord number;
#X msg 62 178 all \$1;
#X text 338 178 This example has eigth 6-voice chords \, which are
stored in tables and randomly picked. Each voice is played by a different
copy of an abstraction inside [clone]. They're also attacked at a different
time with a random delay value., f 57;
#X obj 62 209 clone 6 karplus-voice \$0;
#X text 338 254 Not much else is new \, we have the same duration/sustain
parameter from the last example. Note that the patch ID number (\$0)
from this window is passed inside clone as an argument so we can communicate
with the instances.;
#X text 239 209 <= click;
#X connect 3 0 6 0;
#X connect 4 0 6 1;
#X connect 5 0 4 0;
#X connect 6 0 10 0;
#X connect 8 0 9 0;
#X connect 10 0 12 0;
#X connect 12 0 14 0;
#X connect 14 0 16 0;
#X connect 16 0 8 0;
