#N canvas 785 242 690 536 12;
#X declare -path else;
#X obj 246 326 mtof;
#X obj 195 114 del;
#X obj 195 16 inlet;
#X obj 383 415 *~;
#X obj 383 341 noise~;
#N canvas 1119 320 410 311 feedback_&_Filter 0;
#X obj 177 27 inlet~;
#X obj 177 225 outlet~;
#X obj 112 189 delwrite~ \$0-delay 1000;
#X obj 49 124 block~ 1;
#X obj 177 110 lop~;
#X obj 38 27 inlet;
#X obj 177 146 *~ 0;
#X obj 224 110 r \$2-feedback;
#X obj 202 77 r \$2-cutoff;
#X obj 38 62 delread4~ \$0-delay;
#X connect 0 0 4 0;
#X connect 4 0 6 0;
#X connect 5 0 9 0;
#X connect 6 0 2 0;
#X connect 6 0 1 0;
#X connect 7 0 6 1;
#X connect 8 0 4 1;
#X connect 9 0 4 0;
#X restore 246 445 pd feedback_&_Filter;
#X obj 299 326 / 127;
#X obj 246 383 /;
#X msg 246 354 1000 \$1;
#X obj 195 58 trigger bang float;
#X obj 401 386 vline~;
#X obj 195 233 tabread;
#X msg 318 189 set \$1;
#X obj 195 141 t b b;
#X obj 272 232 rand.i 50 128;
#X obj 246 485 outlet~;
#X obj 195 178 f \$1;
#X obj 318 158 makefilename \$2-ch%d;
#X obj 299 267 r \$2-width;
#X obj 410 59 declare -path else;
#X obj 195 86 rand.f 0 500;
#X text 233 114 <= attack at a random value between 0 and 500 ms;
#X text 58 178 use instance ====> number to pick a note from the chord
, f 18;
#X text 376 190 <= set table name from chord number;
#X floatatom 246 414 8 0 0 0 - - -;
#X text 132 415 period in ms =>;
#X text 376 232 <= random velocity;
#X obj 246 299 makenote;
#X connect 0 0 8 0;
#X connect 1 0 13 0;
#X connect 2 0 9 0;
#X connect 3 0 5 1;
#X connect 4 0 3 0;
#X connect 5 0 15 0;
#X connect 6 0 10 0;
#X connect 7 0 24 0;
#X connect 8 0 7 0;
#X connect 9 0 20 0;
#X connect 9 1 17 0;
#X connect 10 0 3 1;
#X connect 11 0 27 0;
#X connect 12 0 11 0;
#X connect 13 0 16 0;
#X connect 13 1 14 0;
#X connect 14 0 27 1;
#X connect 16 0 11 0;
#X connect 17 0 12 0;
#X connect 18 0 27 2;
#X connect 20 0 1 0;
#X connect 24 0 5 0;
#X connect 27 0 0 0;
#X connect 27 1 6 0;
