#N canvas 332 85 1008 480 12;
#X obj 816 133 hz2rad;
#X obj 816 163 clip 0 1;
#X floatatom 816 190 11 0 0 0 - - - 0;
#X obj 658 323 out~;
#X text 162 150 y[n] = y[-1] + f * (x[n] - y[-1]);
#X text 66 194 Where 'f' is input frequency in radians per sample., f 52;
#X obj 648 289 fexpr~ $y + f * ($x - $y);
#X text 38 25 As seen in the formula from the last example \, for delta values smaller than the slew limits \, we have a one pole filter with the 'f' cutoff parameter. This slew limit is the maximum change in amplitude \, which for the audio output is a peak to peak amplitude of "2" \, so this value is good enough for any reasonable audio input., f 61;
#X obj 819 70 hsl 162 19 20 7020 1 0 empty empty empty -2 -10 0 12 #dfdfdf #000000 #000000 0 1;
#X floatatom 816 98 7 0 0 0 - - - 0;
#X obj 648 94 noise~;
#X obj 683 161 slop~ 0 2 0 2 0;
#X obj 700 192 out~;
#X obj 816 217 v f;
#X obj 816 43 initmess 150;
#X text 38 119 In this case \, the formula from the last example can be simplified to:, f 61;
#X obj 124 302 cnv 15 270 55 empty empty empty 5 12 0 14 #fcc4c4 #404040 0;
#X text 136 320 H(z) =;
#X text 193 305 Y(z);
#X text 194 328 X(z);
#X text 185 313 _______;
#X text 258 313 _________________;
#X text 243 319 =;
#X text 270 330 1 - b * z^-1;
#X text 301 306 a;
#X text 32 236 If you are savyy with math \, we can rewrite the filter formula to: y[n] = a*x[n] + b*y[-1] \, where 'a' is radians per sample and b is "1 - a". And this gives us the following transfer function:, f 62;
#X text 34 388 It was shown previously in this section that this is the exact same formula for [lop~]. So [slop~] acts exactly like it! It has the exact same frequency response and shown earlier and all!;
#X obj 512 172 lop~;
#X obj 514 285 out~;
#X obj 649 393 print~ fexpr~;
#X obj 527 254 print~ lop~;
#X obj 684 260 print~ slop~;
#X obj 615 212 bng 21 250 50 0 empty empty empty 0 -10 0 12 #dfdfdf #000000 #000000;
#X text 547 210 compare;
#X connect 0 0 1 0;
#X connect 1 0 2 0;
#X connect 2 0 13 0;
#X connect 6 0 3 0;
#X connect 6 0 29 0;
#X connect 8 0 9 0;
#X connect 9 0 0 0;
#X connect 9 0 11 1;
#X connect 9 0 27 1;
#X connect 10 0 11 0;
#X connect 10 0 6 0;
#X connect 10 0 27 0;
#X connect 11 0 12 0;
#X connect 11 0 31 0;
#X connect 14 0 8 0;
#X connect 27 0 28 0;
#X connect 27 0 30 0;
#X connect 32 0 31 0;
#X connect 32 0 30 0;
#X connect 32 0 29 0;
