#N canvas 808 331 451 193 12;
#X obj 307 25 bng 15 250 50 0 empty empty empty 17 7 0 10 -262144 -1
-1;
#X obj 307 58 luarecv \$0-stuff;
#X msg 132 24 99;
#X msg 132 58 1 2 3;
#X msg 132 92 foo 1 bar 99;
#X obj 132 126 s \$0-stuff;
#X floatatom 184 24 5 0 0 0 - - #0-stuff, f 5;
#X obj 307 92 list prepend set;
#X obj 307 126 list trim;
#X text 333 23 <-- then here;
#X msg 307 160;
#X text 17 59 click here -->;
#X connect 0 0 1 0;
#X connect 1 0 7 0;
#X connect 2 0 5 0;
#X connect 3 0 5 0;
#X connect 4 0 5 0;
#X connect 7 0 8 0;
#X connect 8 0 10 0;
