#N canvas 615 159 584 263 10;
#X text 316 157 Part of ELSE \; https://github.com/porres/pd-else;
#X text 318 138 Alexandre Torres Porres (2017);
#X obj 65 220 outlet~;
#N canvas 505 98 698 549 load_args 0;
#X obj 473 280 sel 0;
#X obj 387 209 list split 1;
#X msg 427 310 10;
#X obj 427 256 moses 0;
#X msg 429 334 all \$1;
#X obj 427 233 route float;
#X msg 383 113 all 1;
#X obj 149 106 trigger anything bang;
#X obj 428 396 outlet;
#X obj 317 382 outlet;
#X obj 215 361 outlet;
#X obj 136 363 outlet;
#X obj 149 157 route -freq -q -amp -ramp;
#X obj 142 62 route bang;
#X obj 143 36 inlet;
#X obj 149 132 else/break -;
#X obj 342 270 else/order;
#X obj 255 270 else/order;
#X obj 176 269 else/order;
#X obj 95 268 else/order;
#X connect 0 0 2 0;
#X connect 0 1 4 0;
#X connect 1 1 5 0;
#X connect 2 0 4 0;
#X connect 3 0 2 0;
#X connect 3 1 0 0;
#X connect 4 0 8 0;
#X connect 5 0 3 0;
#X connect 6 0 9 0;
#X connect 7 0 15 0;
#X connect 7 1 6 0;
#X connect 12 0 19 0;
#X connect 12 1 18 0;
#X connect 12 2 17 0;
#X connect 12 3 16 0;
#X connect 12 4 1 0;
#X connect 13 0 6 0;
#X connect 13 0 2 0;
#X connect 13 1 7 0;
#X connect 14 0 13 0;
#X connect 15 0 12 0;
#X connect 16 0 8 0;
#X connect 17 0 9 0;
#X connect 18 0 10 0;
#X connect 19 0 11 0;
#X restore 204 119 pd load_args;
#N canvas 284 164 483 412 route 0;
#X obj 328 280 outlet;
#X obj 243 273 outlet;
#X obj 168 273 outlet;
#X obj 93 279 outlet;
#X obj 137 83 inlet;
#X obj 137 120 route freq q amp ramp;
#X obj 83 184 else/order;
#X obj 164 185 else/order;
#X obj 243 186 else/order;
#X obj 329 186 else/order;
#X connect 4 0 5 0;
#X connect 5 0 6 0;
#X connect 5 1 7 0;
#X connect 5 2 8 0;
#X connect 5 3 9 0;
#X connect 6 0 3 0;
#X connect 7 0 2 0;
#X connect 8 0 1 0;
#X connect 9 0 0 0;
#X restore 106 119 pd route;
#X obj 49 38 inlet~ fwd;
#X obj 204 92 else/args;
#X obj 65 174 clone -x \$1 else/bpclone \$1;
#X obj 204 68 else/lb;
#X connect 3 0 7 1;
#X connect 3 1 7 2;
#X connect 3 2 7 3;
#X connect 3 3 7 4;
#X connect 4 0 7 1;
#X connect 4 1 7 2;
#X connect 4 2 7 3;
#X connect 4 3 7 4;
#X connect 5 0 7 0;
#X connect 5 1 4 0;
#X connect 6 0 3 0;
#X connect 7 0 2 0;
#X connect 8 0 6 0;
