#N canvas 627 190 601 337 12;
#X declare -path else;
#X obj 64 158 router;
#X obj 164 158 router;
#X obj 178 276 outlet;
#X obj 64 34 inlet;
#X obj 164 34 inlet;
#N canvas 816 328 485 461 set 0;
#X obj 100 409 outlet;
#X obj 100 149 pdcontrol;
#X msg 100 113 args;
#X obj 100 185 break -;
#X obj 100 222 route -s;
#X msg 100 371 1;
#X obj 100 79 lb 2;
#X obj 181 291 s \$0-m-args;
#X obj 167 361 s \$0-s-args;
#X obj 210 207 dollsym 1;
#X obj 210 143 canvas.name -env 1;
#X obj 210 175 makefilename \\\$0-clock-%s;
#X obj 210 246 s \$0-name;
#X msg 243 61 1;
#X obj 243 95 v \$0-s-beat;
#X obj 100 324 route bang;
#X connect 1 0 3 0;
#X connect 2 0 1 0;
#X connect 3 0 4 0;
#X connect 4 0 15 0;
#X connect 4 1 7 0;
#X connect 5 0 0 0;
#X connect 6 0 2 0;
#X connect 6 1 10 0;
#X connect 6 1 13 0;
#X connect 9 0 12 0;
#X connect 10 0 11 0;
#X connect 11 0 9 0;
#X connect 13 0 14 0;
#X connect 15 0 5 0;
#X connect 15 1 8 0;
#X connect 15 1 5 0;
#X restore 238 92 pd set;
#N canvas 624 280 659 523 main 0;
#X msg 254 182 tempo \$1 permin;
#X obj 254 42 inlet;
#X obj 85 41 inlet;
#X obj 139 472 outlet;
#X msg 279 302 beat \$1;
#X obj 279 263 f 1;
#X obj 279 420 s;
#X obj 139 131 != 0;
#X obj 139 363 t b b b;
#X obj 297 381 r \$0-name;
#X obj 254 133 f 120;
#X obj 139 243 metro;
#N canvas 367 76 567 532 args 0;
#X obj 165 104 r \$0-m-args;
#X obj 165 330 unpack;
#X obj 272 190 route symbol;
#X msg 272 231 1;
#X msg 389 231 0;
#X obj 165 289 router;
#X obj 165 200 t a a;
#X obj 272 152 list split 1;
#X obj 272 330 unpack s f f;
#X obj 289 409 outlet;
#X obj 389 409 outlet;
#X obj 199 409 outlet;
#X connect 0 0 6 0;
#X connect 1 0 9 0;
#X connect 1 1 10 0;
#X connect 2 0 3 0;
#X connect 2 1 4 0;
#X connect 3 0 5 1;
#X connect 4 0 5 1;
#X connect 5 0 1 0;
#X connect 5 1 8 0;
#X connect 6 0 5 0;
#X connect 6 1 7 0;
#X connect 7 0 2 0;
#X connect 8 0 11 0;
#X connect 8 1 9 0;
#X connect 8 2 10 0;
#X restore 439 125 pd args;
#X obj 439 248 dollsym 1;
#X obj 439 287 s \$0-name;
#X obj 462 213 s \$0-m-beat;
#X obj 485 172 s \$0-m-beat-div;
#X obj 274 96 r \$0-m-beat;
#X obj 279 224 r \$0-m-beat-div;
#X obj 85 95 route bang float;
#X obj 85 170 f;
#X obj 85 204 sel 1;
#X obj 85 243 t b b;
#X msg 85 269 resync;
#X connect 0 0 6 0;
#X connect 0 0 11 0;
#X connect 1 0 10 0;
#X connect 2 0 19 0;
#X connect 4 0 6 0;
#X connect 5 0 4 0;
#X connect 5 0 11 1;
#X connect 7 0 11 0;
#X connect 7 0 6 0;
#X connect 7 0 20 1;
#X connect 8 0 3 0;
#X connect 8 1 6 0;
#X connect 8 2 5 0;
#X connect 8 2 10 0;
#X connect 9 0 6 1;
#X connect 10 0 0 0;
#X connect 11 0 8 0;
#X connect 12 0 13 0;
#X connect 12 1 15 0;
#X connect 12 2 16 0;
#X connect 13 0 14 0;
#X connect 17 0 10 0;
#X connect 18 0 5 0;
#X connect 19 0 20 0;
#X connect 19 1 7 0;
#X connect 20 0 21 0;
#X connect 21 0 22 0;
#X connect 22 0 11 0;
#X connect 22 1 23 0;
#X connect 23 0 6 0;
#X restore 64 214 pd main;
#N canvas 484 126 671 736 synced 0;
#X obj 225 228 receiver;
#X obj 311 462 t b f, f 9;
#X obj 407 314 route beat;
#X obj 311 355 * 1;
#X obj 311 393 max 0.001;
#X obj 426 52 inlet;
#X obj 260 638 metro 1, f 14;
#X obj 261 689 outlet;
#X obj 311 430 change -1;
#X obj 311 534 != 0;
#X obj 311 502 v \$0-on;
#X obj 311 563 sel 1;
#X obj 155 153 v \$0-on;
#X obj 65 52 inlet;
#X obj 65 226 select 0 1;
#X msg 102 330 set -1;
#X obj 189 408 sel 1;
#X obj 225 194 r \$0-name;
#X obj 311 314 v \$0-s-beat;
#X obj 426 220 v \$0-s-beat;
#X obj 65 98 route float bang;
#X obj 426 180 frac2dec;
#X msg 65 462 0;
#N canvas 367 76 567 532 args 0;
#X obj 272 190 route symbol;
#X msg 272 231 1;
#X msg 389 231 0;
#X obj 165 289 router;
#X obj 165 200 t a a;
#X obj 272 152 list split 1;
#X obj 369 409 outlet;
#X obj 272 409 outlet;
#X obj 165 104 r \$0-s-args;
#X obj 272 327 unmerge;
#X connect 0 0 1 0;
#X connect 0 1 2 0;
#X connect 1 0 3 1;
#X connect 2 0 3 1;
#X connect 3 0 6 0;
#X connect 3 1 9 0;
#X connect 4 0 3 0;
#X connect 4 1 5 0;
#X connect 5 0 0 0;
#X connect 8 0 4 0;
#X connect 9 0 7 0;
#X connect 9 1 6 0;
#X restore 532 111 pd args;
#X obj 532 180 dollsym 1;
#X obj 532 220 s \$0-name;
#X obj 225 258 routeall float tempo bang resync, f 25;
#X connect 0 0 26 0;
#X connect 1 0 10 0;
#X connect 1 1 6 1;
#X connect 2 0 3 1;
#X connect 3 0 4 0;
#X connect 4 0 8 0;
#X connect 5 0 21 0;
#X connect 6 0 7 0;
#X connect 8 0 1 0;
#X connect 9 0 11 0;
#X connect 10 0 9 0;
#X connect 11 0 6 0;
#X connect 13 0 20 0;
#X connect 14 0 22 0;
#X connect 14 1 15 0;
#X connect 15 0 8 0;
#X connect 16 1 6 0;
#X connect 16 1 15 0;
#X connect 17 0 0 0;
#X connect 18 0 3 0;
#X connect 20 0 12 0;
#X connect 20 0 14 0;
#X connect 20 1 15 0;
#X connect 21 0 19 0;
#X connect 22 0 6 0;
#X connect 23 0 24 0;
#X connect 23 1 21 0;
#X connect 24 0 25 0;
#X connect 26 0 16 0;
#X connect 26 1 6 0;
#X connect 26 2 18 0;
#X connect 26 3 15 0;
#X connect 26 4 2 0;
#X restore 178 214 pd synced;
#X text 312 164 Part of ELSE \; https://github.com/porres/pd-else;
#X text 314 145 Alexandre Torres Porres (2021);
#X obj 354 81 declare -path else;
#X connect 0 0 6 0;
#X connect 0 1 7 0;
#X connect 1 0 6 1;
#X connect 1 1 7 1;
#X connect 3 0 0 0;
#X connect 4 0 1 0;
#X connect 5 0 1 1;
#X connect 5 0 0 1;
#X connect 6 0 2 0;
#X connect 7 0 2 0;
