#N canvas 689 172 560 350 10;
#X obj 51 263 *~;
#X msg 241 171 -100;
#X floatatom 286 172 5 0 0 0 - - - 0;
#X obj 332 171 unpack;
#X obj 51 27 inlet~;
#X obj 51 309 outlet~;
#X obj 219 27 inlet;
#X obj 241 146 route bang float list -size, f 31;
#X obj 378 171 s \$0-size;
#X obj 136 100 r \$0-size;
#X msg 96 134 size \$1;
#X text 272 261 Part of ELSE \; https://github.com/porres/pd-else;
#X text 274 242 Alexandre Torres Porres (2018);
#X obj 268 93 args;
#X obj 268 119 break -;
#X obj 76 170 mov.rms~ 256 -db;
#X obj 156 238 glide~ 10;
#X obj 156 211 op~ >=;
#X obj 268 70 lb;
#X connect 0 0 5 0;
#X connect 1 0 17 1;
#X connect 2 0 17 1;
#X connect 3 0 2 0;
#X connect 3 1 16 1;
#X connect 4 0 0 0;
#X connect 4 0 15 0;
#X connect 6 0 17 1;
#X connect 7 0 1 0;
#X connect 7 1 2 0;
#X connect 7 2 3 0;
#X connect 7 3 8 0;
#X connect 9 0 10 0;
#X connect 9 0 15 1;
#X connect 10 0 15 0;
#X connect 13 0 14 0;
#X connect 14 0 7 0;
#X connect 15 0 17 0;
#X connect 16 0 0 1;
#X connect 17 0 16 0;
#X connect 18 0 13 0;
