#N canvas 473 23 411 467 10;
#X declare -path else -lib else;
#X text 190 166 Check declare's help file for more information., f 25;
#X obj 18 11 cnv 15 350 40 empty empty empty 12 13 0 18 #7c7c7c #e0e4dc 0;
#N canvas 382 141 749 319 (subpatch) 0;
#X coords 0 -1 1 1 352 42 2 100 100;
#X restore 17 10 pd;
#X obj 57 18 cnv 10 10 10 empty empty ELSE 0 15 2 30 #7c7c7c #e0e4dc 0;
#X obj 167 25 cnv 10 10 10 empty empty EL 0 6 2 13 #7c7c7c #e0e4dc 0;
#X obj 187 25 cnv 10 10 10 empty empty Locus 0 6 2 13 #7c7c7c #e0e4dc 0;
#X obj 224 25 cnv 10 10 10 empty empty Solus' 0 6 2 13 #7c7c7c #e0e4dc 0;
#X obj 263 25 cnv 10 10 10 empty empty ELSE 0 6 2 13 #7c7c7c #e0e4dc 0;
#X obj 301 25 cnv 10 10 10 empty empty library 0 6 2 13 #7c7c7c #e0e4dc 0;
#X text 48 410 Bug/Issue report:;
#X text 50 272 Check ELSE's readme:;
#X text 49 377 ELSE's repository;
#X text 147 72 ELSE's meta =>;
#X obj 243 72 else-meta;
#X obj 276 235 else;
#X obj 182 272 else/openfile -h README.pdf;
#X obj 251 344 else/openfile -h All_objects.pd;
#X obj 160 377 else/openfile -h http://www.github.com/porres/pd-else;
#X obj 160 410 else/openfile -h https://github.com/porres/pd-issues;
#X text 47 344 All objects in the ELSE library:;
#X obj 179 302 else/openfile -h changelog.txt;
#X text 50 302 Check the CHANGELOG:;
#X text 34 113 You can install the ELSE library by adding it to "Preferences => Path" AND "Preferences => Starup". Alternatively you can also use [declare]:;
#X obj 68 165 declare -path else -lib else, f 18;
#X text 52 213 Also \, check the else binary \, which carries more information about the library:, f 42;
