#N canvas 729 540 663 231 10;
#X text 384 88 Part of ELSE \; https://github.com/porres/pd-else;
#X text 386 69 Alexandre Torres Porres (2017);
#X obj 107 38 inlet~;
#X obj 107 70 fexpr~ $x1[0] != 0 && $x1[-1] == 0;
#X obj 107 132 outlet;
#X obj 107 105 threshold~ 0.5 0 0.5 0;
#X connect 2 0 3 0;
#X connect 3 0 5 0;
#X connect 5 0 4 0;
