#N struct 1008-point float x0 float y0 float xs float ys float fg float in float gridx float gridy;
#N canvas 528 62 573 660 10;
#X obj 6 620 cnv 15 552 21 empty empty empty 20 12 0 14 #e0e0e0 #202020 0;
#X obj 7 239 cnv 3 550 3 empty empty inlets 8 12 0 13 #dcdcdc #000000 0;
#X obj 8 536 cnv 3 550 3 empty empty outlets 8 12 0 13 #dcdcdc #000000 0;
#X obj 6 594 cnv 3 550 3 empty empty arguments 8 12 0 13 #dcdcdc #000000 0;
#X obj 75 246 cnv 17 3 241 empty empty 0 5 9 0 16 #dcdcdc #9c9c9c 0;
#X text 161 245 signal;
#X text 206 543 (none);
#X obj 75 492 cnv 17 3 17 empty empty 1 5 9 0 16 #dcdcdc #9c9c9c 0;
#X text 161 492 signal;
#X text 205 492 - signal to be displayed on the Y axis, f 55;
#X text 205 245 - signal to be displayed in the X axis, f 55;
#X text 207 599 (none);
#X obj 6 564 cnv 3 550 3 empty empty flags 8 12 0 13 #dcdcdc #000000 0;
#X text 95 372 fgcolor <f \, f \, f>;
#X text 95 386 bgcolor <f \, f \, f>;
#X text 83 400 gridcolor <f \, f \, f>;
#X obj 501 60 else/setdsp~;
#X obj 307 6 cnv 15 250 40 empty empty empty 12 13 0 18 #7c7c7c #e0e4dc 0;
#N canvas 382 141 749 319 (subpatch) 0;
#X coords 0 -1 1 1 252 42 2 100 100;
#X restore 306 5 pd;
#X obj 346 13 cnv 10 10 10 empty empty ELSE 0 15 2 30 #7c7c7c #e0e4dc 0;
#X obj 24 42 cnv 4 4 4 empty empty 3D\ oscilloscope\ display 0 28 2 18 #e0e0e0 #000000 0;
#X obj 459 13 cnv 10 10 10 empty empty EL 0 6 2 13 #7c7c7c #e0e4dc 0;
#X obj 479 13 cnv 10 10 10 empty empty Locus 0 6 2 13 #7c7c7c #e0e4dc 0;
#X obj 516 13 cnv 10 10 10 empty empty Solus' 0 6 2 13 #7c7c7c #e0e4dc 0;
#X obj 465 28 cnv 10 10 10 empty empty ELSE 0 6 2 13 #7c7c7c #e0e4dc 0;
#X obj 503 28 cnv 10 10 10 empty empty library 0 6 2 13 #7c7c7c #e0e4dc 0;
#X obj 4 5 cnv 15 301 42 empty empty scope3d~ 20 20 2 37 #e0e0e0 #000000 0;
#N canvas 0 22 450 278 (subpatch) 0;
#X coords 0 1 100 -1 302 42 1 0 0;
#X restore 4 5 graph;
#X text 205 372 - sets front/signal RGB color (values 0-255), f 55;
#X text 205 386 - sets background RGB color (values 0-255), f 55;
#X text 205 400 - sets grid RGB color (values 0-255), f 55;
#N canvas 593 43 510 693 buffer_period 0;
#X obj 150 143 hsl 136 16 1 1024 1 0 empty empty empty -2 -10 0 12 #dfdfdf #000000 #000000 0 1;
#X floatatom 147 164 7 0 0 0 - - - 0;
#X obj 63 89 hsl 136 16 2 1024 1 0 empty empty empty -2 -10 0 12 #dfdfdf #000000 #000000 0 1;
#X floatatom 60 110 8 0 0 0 - - - 0;
#X obj 192 289 hsl 136 16 50 1000 1 0 empty empty empty -2 -10 0 12 #dfdfdf #000000 #000000 0 1;
#X floatatom 189 310 7 0 0 0 - - - 0;
#X text 113 110 samples per line;
#X text 198 164 nlines;
#X msg 60 130 nsamples \$1;
#X msg 147 184 nlines \$1;
#X obj 372 139 else/setdsp~;
#X obj 199 378 osc~ 200;
#X obj 268 378 osc~ 300.1;
#X text 268 87 Settings for buffer size and refresh rate period., f 24;
#X msg 189 330 rate \$1;
#X text 239 310 refresh rate in ms;
#X text 243 244 number of samples per line & number of lines in buffer, f 27;
#X listbox 164 249 10 0 0 0 - - - 12;
#X obj 164 222 else/initmess 256 128;
#X text 52 7 "nlines" sets the number of lines in the display. The number of samples represented by each line is set by "nsamples". Therefore \, the total number of samples (or period) displayed in the scope is equal to: nsamples * nlines. You can also set both parameters with a list input., f 63;
#X obj 147 414 scope3d~ 0 0 250 250 1 0 1 1 0.75 1 50 256 128 30 30 30 190 190 190 160 160 160;
#X connect 0 0 1 0;
#X connect 1 0 9 0;
#X connect 2 0 3 0;
#X connect 3 0 8 0;
#X connect 4 0 5 0;
#X connect 5 0 14 0;
#X connect 8 0 20 0;
#X connect 9 0 20 0;
#X connect 11 0 20 0;
#X connect 12 0 20 1;
#X connect 14 0 20 0;
#X connect 17 0 20 0;
#X connect 18 0 17 0;
#X restore 428 185 pd buffer_period;
#X obj 228 65 osc~ 100;
#X obj 294 65 osc~ 201;
#X obj 361 67 osc~ 302;
#X obj 75 513 cnv 17 3 17 empty empty 2 5 9 0 16 #dcdcdc #9c9c9c 0;
#X text 161 513 signal;
#X text 36 116 [scope3d~] displays signals in 3D. This is an object coded in Lua and is very very experimental and likely to change and break., f 26;
#X text 119 414 rotate <f \, f>;
#X text 144 570 all messages are also flags (preceded by '-');
#X text 125 456 drag <float>;
#X text 125 316 zoom <float>;
#N canvas 626 294 417 233 see 0;
#X text 127 22 For up to 2D plots \, see:;
#X text 159 49 [scope~];
#X obj 106 86 else/scope~ 200 100 256 3 128 -1 1 0 0 0 0 30 30 30 190 190 190 160 160 160 0 empty;
#X restore 96 180 pd see also;
#X text 83 330 perspective <float>;
#X text 205 428 - rotate around x axis in degrees, f 55;
#X text 205 442 - rotate around y axis in degrees, f 55;
#X text 205 470 - enable/disable grid visualization, f 55;
#X text 125 470 grid <float>;
#X text 113 273 nlines <float>;
#X text 101 259 nsamples <float>;
#X text 137 302 dim <f \, f>;
#X text 107 428 rotatex <float>;
#X text 107 442 rotatey <float>;
#X text 205 513 - signal to be displayed on the Z axis, f 55;
#X text 119 344 width <float>;
#N canvas 687 69 521 648 receive 0;
#X obj 297 129 hsl 136 16 0.25 1 1 0 empty empty empty -2 -10 0 12 #dfdfdf #000000 #000000 0 1;
#X floatatom 294 152 5 0 0 0 - - - 0;
#X msg 294 176 zoom \$1;
#X obj 138 285 osc~ 100;
#X obj 223 285 osc~ 201;
#X obj 311 285 osc~ 302;
#X obj 102 197 loadbang;
#X text 39 17 The object below has a receive symbol \, so you can send messages to it via a [send] object (but not audio). The receive symbol can be set with the receive message or the -receive flag. Dollar signs must be escaped. If you set a receive name as "empty" then it can't receive messages anymore., f 69;
#X obj 193 120 else/setdsp~;
#X obj 102 323 scope3d~ 0 0 250 250 1 0 1 1 0.580277 1 50 8 256 30 30 30 190 190 190 160 160 160;
#X msg 102 220 receive \\\$0-scope3d~;
#X obj 294 204 send \$0-scope3d~;
#X msg 117 248 receive empty;
#X connect 0 0 1 0;
#X connect 1 0 2 0;
#X connect 2 0 11 0;
#X connect 3 0 9 0;
#X connect 4 0 9 1;
#X connect 5 0 9 2;
#X connect 6 0 10 0;
#X connect 10 0 9 0;
#X connect 12 0 9 0;
#X restore 428 206 pd receive;
#X text 125 358 rate <float>;
#X text 205 302 - sets width/height dimensions (default 140 140), f 55;
#X text 205 316 - sets zoom level (default 1), f 55;
#X text 205 330 - sets perspective level (default 1), f 55;
#X text 205 344 - sets line width (default \, min 1), f 55;
#X text 205 358 - sets refresh rate period in ms (default 50), f 55;
#X text 205 414 - rotate around x/y axis in degrees (default 0 0), f 55;
#X text 205 456 - enable/disable mouse interaction (default 1), f 55;
#X text 205 259 - sets number of samples per line (def 8 \, values >= 2), f 55;
#N canvas 302 113 969 542 basic 0;
#X obj 370 187 osc~ 80;
#X obj 70 458 s \$0-basic;
#X obj 342 155 r \$0-basic;
#X obj 98 269 hsl 136 16 0.25 1.5 1 0 empty empty empty -2 -10 0 12 #dfdfdf #000000 #000000 0 1;
#X floatatom 95 290 5 0 0 0 - - - 0;
#X msg 95 310 zoom \$1;
#X floatatom 70 204 5 0 0 0 - - - 0;
#X msg 70 226 width \$1;
#X msg 119 397 grid \$1;
#X obj 119 366 tgl 23 0 empty empty empty 0 -10 0 12 #dfdfdf #000000 #000000 0 1;
#X obj 73 183 hsl 136 16 1 5 0 0 empty empty empty -2 -10 0 12 #dfdfdf #000000 #000000 0 1;
#X msg 52 146 dim \$1 \$2;
#X floatatom 52 89 5 0 0 0 - - - 0;
#X floatatom 133 89 5 0 0 0 - - - 0;
#X text 110 206 set line width;
#X text 120 147 set width and height;
#X obj 236 372 else/setdsp~;
#X floatatom 640 295 5 0 0 0 - - - 0;
#X listbox 713 174 13 0 0 0 - - - 0;
#X obj 713 42 slider2d 127 127 0 360 0 360 1 211 211 211 0 0 0 0 0 0 0 0 empty empty;
#X msg 747 376 drag \$1;
#X obj 747 348 tgl 21 0 empty empty empty 0 -8 0 10 #dfdfdf #000000 #000000 0 1;
#X msg 640 319 rotatex \$1;
#X obj 713 444 s \$0-basic;
#X text 329 48 You can use mouse to rotate the display in 2 dimensions \, just click and drag. You can use the "drag 0" message to disable mouse dragging. You can also use 'rotate' \, 'rotatex' and 'rotatey' messages for rotatation., f 57;
#X obj 713 15 else/initmess 0 0;
#X text 253 304 click and drag to rotate., f 9;
#X text 305 315 --->;
#X obj 640 234 else/knob 50 0 360 0 0 empty empty #dfdfdf #7c7c7c black 1 0 0 0 1 320 0 0 0;
#X floatatom 732 295 5 0 0 0 - - - 0;
#X obj 732 233 else/knob 50 0 360 0 0 empty empty #dfdfdf #7c7c7c black 1 0 0 0 1 320 0 0 0;
#X msg 732 319 rotatey \$1;
#X floatatom 814 362 5 0 0 0 - - - 0;
#X msg 814 391 perspective \$1;
#X obj 814 301 else/knob 50 1 2 0 1 empty empty #dfdfdf #7c7c7c black 1 0 0 0 1 320 0 0 1;
#X text 329 18 To the left we have basic appaerance messages to set dimension sizes \, line width \, zoom and grid., f 57;
#X text 329 101 To perspective setting enhances the 3D effect and changes the 'depth feel'. Increasing it appear more dramatically different in size based on their distance.;
#X obj 52 116 pack2 250 250, f 14;
#X obj 52 29 else/knob 50 0 250 0 250 empty empty #dfdfdf #7c7c7c black 1 0 0 0 1 320 0 0 0;
#X obj 133 29 else/knob 50 0 250 0 250 empty empty #dfdfdf #7c7c7c black 1 0 0 0 1 320 0 0 0;
#X obj 342 224 scope3d~ 0 0 250 250 1 0 1 1 0.75 1 50 8 256 30 30 30 190 190 190 160 160 160;
#X obj 463 187 osc~ 40;
#X obj 585 187 osc~ 120;
#X obj 119 339 loadbang;
#X msg 713 196 rotate \$1 \$2;
#X connect 0 0 40 0;
#X connect 2 0 40 0;
#X connect 3 0 4 0;
#X connect 4 0 5 0;
#X connect 5 0 1 0;
#X connect 6 0 7 0;
#X connect 7 0 1 0;
#X connect 8 0 1 0;
#X connect 9 0 8 0;
#X connect 10 0 6 0;
#X connect 11 0 1 0;
#X connect 12 0 37 0;
#X connect 13 0 37 1;
#X connect 17 0 22 0;
#X connect 18 0 44 0;
#X connect 19 0 18 0;
#X connect 20 0 23 0;
#X connect 21 0 20 0;
#X connect 22 0 23 0;
#X connect 25 0 19 0;
#X connect 28 0 17 0;
#X connect 29 0 31 0;
#X connect 30 0 29 0;
#X connect 31 0 23 0;
#X connect 32 0 33 0;
#X connect 33 0 23 0;
#X connect 34 0 32 0;
#X connect 37 0 11 0;
#X connect 38 0 12 0;
#X connect 39 0 13 0;
#X connect 41 0 40 1;
#X connect 42 0 40 2;
#X connect 43 0 9 0;
#X connect 44 0 23 0;
#X restore 428 164 pd basic;
#N canvas 460 82 574 541 colors 0;
#X obj 341 272 osc~ 24;
#X text 58 309 RGB colors (values from 0-255) for fgcolor (front/signal) \, bgcolor (background) & grid (gridcolor)., f 35;
#X obj 55 217 else/pack2 fgcolor f f f, f 13;
#X obj 67 49 vsl 15 128 0 255 0 0 rjhfkjfbws \$0-Rf empty 0 -9 0 10 #fc0000 #fcfcfc #000000 0 1;
#X floatatom 67 191 5 0 0 0 - - - 0;
#X obj 105 49 vsl 15 128 0 255 0 0 xaslkdjla \$0-Gf empty 0 -9 0 10 #00fc00 #fcfcfc #000000 0 1;
#X floatatom 105 191 5 0 0 0 - - - 0;
#X obj 145 49 vsl 15 128 0 255 0 0 qdaskjlf \$0-Bf empty 0 -9 0 10 #0000fc #fcfcfc #000000 0 1;
#X floatatom 145 191 5 0 0 0 - - - 0;
#X obj 193 217 else/pack2 bgcolor f f f, f 13;
#X obj 326 217 else/pack2 gridcolor f f f, f 15;
#X obj 346 49 vsl 15 128 0 255 0 0 rjhfkjfbws \$0-Rg empty 0 -9 0 10 #fc0000 #fcfcfc #000000 0 1;
#X floatatom 346 191 5 0 0 0 - - - 0;
#X obj 384 49 vsl 15 128 0 255 0 0 xaslkdjla \$0-Gg empty 0 -9 0 10 #00fc00 #fcfcfc #000000 0 1;
#X floatatom 384 191 5 0 0 0 - - - 0;
#X obj 424 49 vsl 15 128 0 255 0 0 qdaskjlf \$0-Bg empty 0 -9 0 10 #0000fc #fcfcfc #000000 0 1;
#X floatatom 424 191 5 0 0 0 - - - 0;
#X obj 205 49 vsl 15 128 0 255 0 0 rjhfkjfbws \$0-Rb empty 0 -9 0 10 #fc0000 #fcfcfc #000000 0 1;
#X floatatom 205 191 5 0 0 0 - - - 0;
#X obj 243 49 vsl 15 128 0 255 0 0 xaslkdjla \$0-Gb empty 0 -9 0 10 #00fc00 #fcfcfc #000000 0 1;
#X floatatom 243 191 5 0 0 0 - - - 0;
#X obj 283 49 vsl 15 128 0 255 0 0 qdaskjlf \$0-Bb empty 0 -9 0 10 #0000fc #fcfcfc #000000 0 1;
#X floatatom 283 191 5 0 0 0 - - - 0;
#X obj 422 272 osc~ 49;
#X obj 131 375 else/setdsp~;
#X obj 326 311 scope3d~ 20 20 200 200 1 0 1 1 0.9 1 50 8 512 30 30 30 190 190 190 160 160 160;
#X connect 0 0 25 0;
#X connect 2 0 25 0;
#X connect 3 0 4 0;
#X connect 4 0 2 1;
#X connect 5 0 6 0;
#X connect 6 0 2 2;
#X connect 7 0 8 0;
#X connect 8 0 2 3;
#X connect 9 0 25 0;
#X connect 10 0 25 0;
#X connect 11 0 12 0;
#X connect 12 0 10 1;
#X connect 13 0 14 0;
#X connect 14 0 10 2;
#X connect 15 0 16 0;
#X connect 16 0 10 3;
#X connect 17 0 18 0;
#X connect 18 0 9 1;
#X connect 19 0 20 0;
#X connect 20 0 9 2;
#X connect 21 0 22 0;
#X connect 22 0 9 3;
#X connect 23 0 25 1;
#X restore 485 164 pd colors;
#X text 205 273 - sets number of lines to draw (values 1-1024 \, def 256);
#X text 173 288 list;
#X text 205 288 - sets 'nsamples' and 'nlines', f 55;
#X obj 228 89 scope3d~ -zoom 0.75;
#X connect 32 0 70 0;
#X connect 33 0 70 1;
#X connect 34 0 70 2;
