#N canvas 588 29 636 647 12;
#X declare -path else;
#X obj 347 506 vsl 18 100 0 1 0 0 empty empty empty 0 -9 0 10 -228856
-1 -1 0 1;
#X msg 361 399 0 1000 1;
#X obj 327 318 tgl 17 0 empty empty empty 17 7 0 10 -228856 -1 -1 0
1;
#X msg 327 343 500 \$1;
#X text 424 399 start \, duration \, target;
#X text 374 342 duration \, target;
#X obj 111 474 vsl 18 100 0 1 0 0 empty empty empty 0 -9 0 10 -228856
-1 -1 0 1;
#X obj 111 362 bng 18 250 50 0 empty empty empty 17 7 0 10 -228856
-1 -1;
#X obj 111 396 envgen~ 0 1000 1 250 0.25 250 0.25 500 1 250 1 250 0
, f 26;
#X text 86 144 The line segments are set in pairs of duration and target
value \, which is the opposite of the [line] family of objects from
Pd Vanilla. But if you have an odd number of elements \, the first
float sets a staring point. In the case of a single float \, this is
also true \, but it's the start and end point \, so \, in practical
terms \, it just jumps to that value (like [line]/[line~]/[vline~].
See examples below and check its help file., f 65;
#X obj 347 470 s2f~;
#X obj 111 438 s2f~;
#X obj 403 24 declare -path else;
#X obj 472 513 setdsp~;
#X msg 347 370 0 0.5;
#X obj 347 431 envgen~;
#X text 389 369 jumps immediately;
#X text 85 252 This object is very complex. Take a moment to study
its help file and keep checking the documentation for the next examples.
, f 65;
#X text 86 65 The [envgen~] object from ELSE is similar to the [vline~]
object as it generate multiple lines \, but it has a quite different
syntax and also other features \, as it is an envelope generator after
all. Let's present it here as a line generator before using it as a
proper envelope generator in the next examples., f 65;
#X connect 1 0 15 0;
#X connect 2 0 3 0;
#X connect 3 0 15 0;
#X connect 7 0 8 0;
#X connect 8 0 11 0;
#X connect 10 0 0 0;
#X connect 11 0 6 0;
#X connect 14 0 15 0;
#X connect 15 0 10 0;
