#N canvas 872 41 550 699 12;
#X declare -path else;
#X obj 376 13 declare -path else;
#X text 38 60 The [eqdiv] object from ELSE gives us a full scale based
on equal divisions of an interval. Remember we get a ratio value of
one step of an equal division of an interval 'x' in 'y' parts if we
raise the interval value (x) to the power of 1/y. Below \, instead
of an octave \, we are dividing the interval of 3 \, which is an ovtave
plus a fifth. The division is in 13 equal steps. This scale is known
as the Bohlen-Pierce scale., f 65;
#X obj 153 244 display;
#X obj 153 312 display;
#X obj 153 279 ratio2cents;
#X text 108 245 ratio;
#X obj 153 187 bng 18 250 50 0 empty empty empty 17 7 0 10 -228856
-1 -1;
#X obj 153 215 expr pow(3 \, 1./13);
#X text 108 314 cents;
#X text 176 187 <= click;
#X obj 225 460 bng 18 250 50 0 empty empty empty 17 7 0 10 -228856
-1 -1;
#X text 248 460 <= click;
#X obj 358 286 display;
#X obj 358 253 ratio2cents;
#X obj 358 196 bng 18 250 50 0 empty empty empty 17 7 0 10 -228856
-1 -1;
#X text 381 196 <= click;
#X obj 358 224 float 3;
#X text 314 314 value of 3 in cents;
#X text 55 365 So \, intead of 100 cents \, each step of this scale
increases about 146 cents. The [eqdiv] object returns the value in
cents of all intervals in the scale \, for the bohlen-pierce we get
values from 0 cents to 1901.95 cents.;
#X obj 225 615 print CENTS;
#X msg 237 494 2 12;
#X text 276 493 <= equal temperament;
#X msg 247 522 2 13;
#X msg 257 548 3 13;
#X text 296 547 <= Bohlen-Perce;
#X text 286 520 <= octave divided by 13;
#X obj 225 580 eqdiv 3 13;
#X connect 2 0 4 0;
#X connect 4 0 3 0;
#X connect 6 0 7 0;
#X connect 7 0 2 0;
#X connect 10 0 26 0;
#X connect 13 0 12 0;
#X connect 14 0 16 0;
#X connect 16 0 13 0;
#X connect 20 0 26 0;
#X connect 22 0 26 0;
#X connect 23 0 26 0;
#X connect 26 0 19 0;
