#N canvas 424 42 510 441 10;
#X declare -lib pdlua;
#X floatatom 371 118 5 0 0 0 - - - 0;
#X floatatom 250 103 5 0 0 0 - - - 0;
#X msg 252 73 symbol x;
#X msg 252 49 list a b c;
#X msg 251 27 a b c;
#X floatatom 108 212 5 0 0 0 - - - 0;
#X floatatom 64 258 5 0 0 0 - - - 0;
#X floatatom 64 214 5 0 0 0 - - - 0;
#X floatatom 50 92 5 0 0 0 - - - 0;
#X floatatom 57 137 5 0 0 0 - - - 0;
#X floatatom 102 141 5 0 0 0 - - - 0;
#X floatatom 148 139 5 0 0 0 - - - 0;
#X obj 64 235 ldemux zwei;
#X floatatom 131 262 5 0 0 0 - - - 0;
#X floatatom 109 309 5 0 0 0 - - - 0;
#X floatatom 65 355 5 0 0 0 - - - 0;
#X floatatom 65 308 5 0 0 0 - - - 0;
#X floatatom 106 356 5 0 0 0 - - - 0;
#X obj 65 332 ldemux;
#X text 20 72 2nd arg gives default outlet;
#X obj 51 112 ldemux 3 2;
#X obj 219 286 print lu1;
#X obj 286 282 print lu2;
#X obj 307 252 print lu3;
#X obj 324 225 print lu4;
#X obj 329 194 print lu5;
#X obj 366 175 print lu6;
#X text 169 346 outlet number starts from 1 like Lua!;
#X obj 359 47 declare -lib pdlua;
#X obj 250 141 ldemux 6, f 19;
#X connect 0 0 29 1;
#X connect 1 0 29 0;
#X connect 2 0 29 0;
#X connect 3 0 29 0;
#X connect 4 0 29 0;
#X connect 5 0 12 1;
#X connect 7 0 12 0;
#X connect 8 0 20 0;
#X connect 12 0 6 0;
#X connect 12 1 13 0;
#X connect 14 0 18 1;
#X connect 16 0 18 0;
#X connect 18 0 15 0;
#X connect 18 1 17 0;
#X connect 20 0 9 0;
#X connect 20 1 10 0;
#X connect 20 2 11 0;
#X connect 29 0 21 0;
#X connect 29 1 22 0;
#X connect 29 2 23 0;
#X connect 29 3 24 0;
#X connect 29 4 25 0;
#X connect 29 5 26 0;
