#N canvas 432 51 590 403 10;
#X declare -lib pdlua;
#X obj 138 287 ltabfill \$0-table w -> sin(2*pi*w*x);
#X obj 89 240 bng 15 250 50 0 empty empty empty 17 7 0 10 #fcfcfc #000000 #000000;
#X floatatom 387 244 5 0 0 2 w - - 0;
#X obj 138 207 symbol \$0-table-1;
#X obj 150 253 symbol \$0-table-2;
#X obj 150 232 bng 15 250 50 0 empty empty empty 17 7 0 10 #fcfcfc #000000 #000000;
#X obj 138 184 bng 15 250 50 0 empty empty empty 17 7 0 10 #fcfcfc #000000 #000000;
#X obj 310 182 table \$0-table-1 333;
#X obj 310 205 table \$0-table-2 555;
#X text 71 65 [ltabfill] is a clone of [lexpr] that writes a function to a table. The first argument and inlet is the name of the table \, then the usual [lexpr] stuff follows. There is an additional implicit parameter to the expression \, named 'x' \, which ranges from [0..1) no matter the size of the array. Note: you might have to close/reopen the table displays for them to refresh correctly.;
#X text 70 328 See also:;
#X obj 109 347 lexpr x -> x;
#X obj 339 26 declare -lib pdlua;
#X connect 1 0 0 0;
#X connect 2 0 0 1;
#X connect 3 0 0 0;
#X connect 4 0 0 0;
#X connect 5 0 4 0;
#X connect 6 0 3 0;
