#N canvas 401 38 799 836 12;
#X obj 68 472 t b l;
#X obj 100 520 unpack;
#X obj 60 512 list;
#X obj 60 614 t l l;
#X obj 186 413 until;
#X msg 186 441 0;
#X obj 100 550 + 1;
#X obj 282 429 t b l;
#X obj 322 468 unpack;
#X obj 282 529 list;
#X obj 282 590 t l l;
#X obj 322 528 + 1;
#X obj 282 771 outlet~;
#X obj 186 771 outlet~;
#X obj 68 46 inlet;
#X obj 186 132 f \$1;
#X obj 186 106 loadbang;
#X obj 186 167 max 1;
#X obj 68 222 else/voices 1 1;
#X obj 68 448 else/slice 2;
#X obj 282 560 else/replace;
#X obj 60 582 else/replace;
#X obj 186 261 t f f;
#X obj 186 469 else/group;
#X obj 282 695 /~ 127;
#X obj 489 46 inlet;
#X msg 106 195 n \$1;
#X obj 68 78 route list n, f 5;
#X obj 282 396 else/delete 2;
#X obj 282 658 else/f2s~ 0;
#X obj 186 658 else/f2s~ 0;
#X obj 207 215 else/initmess 1;
#X obj 68 253 else/routeall polytouch noteoff, f 13;
#X obj 433 375 else/delete 2 2;
#X obj 591 375 else/delete 2 2;
#X obj 432 429 t b l;
#X obj 472 468 unpack;
#X obj 432 529 list;
#X obj 432 590 t l l;
#X obj 472 528 + 1;
#X obj 432 762 outlet~;
#X obj 432 560 else/replace;
#X obj 432 695 /~ 127;
#X obj 432 658 else/f2s~ 0;
#X obj 592 429 t b l;
#X obj 632 468 unpack;
#X obj 592 529 list;
#X obj 592 590 t l l;
#X obj 632 528 + 1;
#X obj 592 762 outlet~;
#X obj 592 560 else/replace;
#X obj 592 695 /~ 127;
#X obj 592 658 else/f2s~ 0;
#X obj 186 595 t l;
#X msg 375 429 \$1 0;
#X obj 282 733 else/gatenorm~ -off;
#X obj 352 696 r \$0-norm;
#X obj 430 241 float2imp~;
#X connect 0 0 2 0;
#X connect 0 1 1 0;
#X connect 1 0 6 0;
#X connect 1 1 21 2;
#X connect 2 0 21 0;
#X connect 3 0 30 0;
#X connect 3 1 2 1;
#X connect 4 0 5 0;
#X connect 5 0 23 0;
#X connect 6 0 21 1;
#X connect 7 0 9 0;
#X connect 7 1 8 0;
#X connect 8 0 11 0;
#X connect 8 1 20 2;
#X connect 9 0 20 0;
#X connect 10 0 29 0;
#X connect 10 1 9 1;
#X connect 11 0 20 1;
#X connect 14 0 27 0;
#X connect 15 0 17 0;
#X connect 16 0 15 0;
#X connect 17 0 26 0;
#X connect 17 0 22 0;
#X connect 18 0 32 0;
#X connect 19 0 0 0;
#X connect 20 0 10 0;
#X connect 21 0 3 0;
#X connect 22 0 4 0;
#X connect 22 1 23 1;
#X connect 23 0 2 1;
#X connect 23 0 9 1;
#X connect 23 0 53 0;
#X connect 23 0 37 1;
#X connect 23 0 46 1;
#X connect 24 0 55 0;
#X connect 25 0 18 1;
#X connect 26 0 18 0;
#X connect 27 0 18 0;
#X connect 27 1 17 0;
#X connect 27 2 18 0;
#X connect 28 0 7 0;
#X connect 29 0 24 0;
#X connect 30 0 13 0;
#X connect 31 0 32 1;
#X connect 32 0 33 0;
#X connect 32 1 34 0;
#X connect 32 2 28 0;
#X connect 32 2 19 0;
#X connect 33 0 35 0;
#X connect 34 0 44 0;
#X connect 34 0 54 0;
#X connect 35 0 37 0;
#X connect 35 1 36 0;
#X connect 36 0 39 0;
#X connect 36 1 41 2;
#X connect 37 0 41 0;
#X connect 38 0 43 0;
#X connect 38 1 37 1;
#X connect 39 0 41 1;
#X connect 41 0 38 0;
#X connect 42 0 40 0;
#X connect 43 0 42 0;
#X connect 44 0 46 0;
#X connect 44 1 45 0;
#X connect 45 0 48 0;
#X connect 45 1 50 2;
#X connect 46 0 50 0;
#X connect 47 0 52 0;
#X connect 47 1 46 1;
#X connect 48 0 50 1;
#X connect 50 0 47 0;
#X connect 51 0 49 0;
#X connect 52 0 51 0;
#X connect 53 0 30 0;
#X connect 53 0 29 0;
#X connect 53 0 43 0;
#X connect 53 0 52 0;
#X connect 54 0 7 0;
#X connect 55 0 12 0;
#X connect 56 0 55 1;
