#N canvas 688 129 354 334 10;
#X declare -path else;
#X obj 51 101 tgl 42 0 \$0-tgl-s \$0-tgl-r empty 1 8 1 9 #dcdcdc #7c7c7c #fcfcfc 0 1;
#N canvas 121 446 450 300 (subpatch) 0;
#X obj 101 101 cnv 25 40 25 empty \$0-cnv DSP 3 13 0 20 #dcdcdc #7c7c7c 0;
#X coords 0 -1 1 1 42 27 1 100 100;
#X restore 51 144 pd;
#X obj 51 40 inlet;
#X text 122 128 Part of ELSE \; https://github.com/porres/pd-else;
#X text 124 109 Alexandre Torres Porres (2017);
#X obj 44 276 outlet;
#X obj 51 102 cnv 1 6 1 empty empty empty 20 12 0 14 #000000 #404040 0;
#X obj 51 169 cnv 1 6 1 empty empty empty 20 12 0 14 #000000 #404040 0;
#X obj 44 203 r \$0-tgl-s;
#N canvas 603 92 527 451 guts 0;
#X obj 180 372 outlet;
#X obj 243 190 tgl 15 0 empty empty empty 17 7 0 10 #fcfcfc #000000 #000000 0 1;
#X obj 243 213 switch~;
#X obj 180 177 != 0;
#X obj 180 147 route float;
#X obj 296 147 bang~;
#X msg 326 193 0;
#X msg 296 194 1;
#X obj 361 216 route dsp;
#N canvas 313 129 304 335 set_color 0;
#X obj 47 30 inlet;
#X obj 76 176 s \$0-cnv;
#X obj 47 83 select 0 1;
#X obj 46 291 s \$0-tgl-r;
#X obj 70 57 r \$0-tgl-s;
#X msg 46 211 color #DCDCDC #7C7C7C 0;
#X msg 76 114 color #4A4F51 0 #CDE5C3;
#X obj 145 172 s \$0-tgl-r;
#X msg 97 139 color #4A4F51 #CDE5C3 0;
#X obj 88 262 s \$0-cnv;
#X msg 87 238 color #DCDCDC 0 #7C7C7C;
#X connect 0 0 2 0;
#X connect 2 0 5 0;
#X connect 2 1 6 0;
#X connect 4 0 2 0;
#X connect 5 0 3 0;
#X connect 5 0 10 0;
#X connect 6 0 1 0;
#X connect 6 0 8 0;
#X connect 8 0 7 0;
#X connect 10 0 9 0;
#X restore 372 277 pd set_color;
#X obj 361 326 s \$0-tgl-r;
#X msg 361 302 set \$1;
#X obj 61 39 inlet;
#X obj 61 169 != 0;
#X obj 61 143 route float bang;
#X obj 361 185 r pd;
#X obj 361 250 change -1;
#X obj 180 120 args;
#X obj 180 90 lb;
#X connect 1 0 2 0;
#X connect 3 0 0 0;
#X connect 4 0 3 0;
#X connect 4 1 1 0;
#X connect 4 1 6 0;
#X connect 5 0 1 0;
#X connect 5 0 7 0;
#X connect 6 0 16 0;
#X connect 7 0 16 0;
#X connect 8 0 16 0;
#X connect 11 0 10 0;
#X connect 12 0 14 0;
#X connect 13 0 0 0;
#X connect 14 0 13 0;
#X connect 14 1 0 0;
#X connect 15 0 8 0;
#X connect 16 0 9 0;
#X connect 16 0 11 0;
#X connect 17 0 4 0;
#X connect 18 0 17 0;
#X restore 51 67 pd guts;
#X msg 59 230 \; pd dsp \$1;
#X obj 153 76 declare -path else;
#X connect 2 0 9 0;
#X connect 8 0 5 0;
#X connect 8 0 10 0;
#X connect 9 0 0 0;
#X coords 0 -1 1 1 44 72 2 50 100;
