#N canvas 434 92 866 687 12;
#X declare -path else;
#X obj 663 119 setdsp~;
#X obj 685 58 declare -path else;
#X text 64 132 This object was used in this tutorial to implement a
linear and exponential slew (portamento). The 3rd and 5th inlet were
used to set the linear ramp \, while the 4th and 6th controlled the
non linear one., f 61;
#X text 196 275 y[n] = y[-1] + (x[n] - y[-1]) * rad;
#X obj 73 584 v rad;
#X obj 232 436 fexpr~ $y1 + ($x1-$y1) * rad;
#X text 64 41 The [slop~] object is very maleable and can be configured
in different ways. It can be a slew limiter \, a linear low-pass filter
or various other things. The name tries to convey that its identity
is in the eye o the beholder. Miller's intention was to design the
most flexible nonlinear one-pole filter he could., f 61;
#X floatatom 706 401 0 0 0 0 - - -;
#X obj 706 356 expr 1000./$f1;
#X text 738 401 frequency;
#X floatatom 706 322 5 10 125 0 - - -;
#X obj 576 493 graph~ 10000 3 -0.025 1.025 200 140;
#X obj 576 354 pulse~ 4;
#X obj 576 442 slop~ 1e+09, f 19;
#X obj 73 522 hz2rad;
#X obj 232 394 pulse~ 4;
#X obj 232 476 graph~ 10000 3 -0.025 1.025 200 140;
#X obj 73 454 expr 1000./$f1;
#X floatatom 73 420 5 10 125 0 - - -;
#X floatatom 73 552 0 0 0 0 - - -;
#X obj 73 385 initmess 125;
#X obj 706 292 initmess 125;
#X text 115 420 ms;
#X floatatom 73 492 5 10 125 0 - - -;
#X text 115 493 Hz;
#X text 745 321 ms;
#X text 539 240 Compare it now to the [slop~] object.;
#X text 64 202 So if you just use the 4th/6th inlets you have a "simple"
one pole filter. Let's consider the same value input for both inlets.
This input is the cuttof frequency in radians per sample \, lets call
it 'rad'. Its filter formula can then be simplified as:, f 61;
#X text 67 311 You can see this implemented in [fexpr~] below. The
input is the ramp up/down in ms \, converted to hz and then radians
per sample.;
#X connect 5 0 16 0;
#X connect 7 0 13 5;
#X connect 7 0 13 3;
#X connect 8 0 7 0;
#X connect 10 0 8 0;
#X connect 12 0 13 0;
#X connect 13 0 11 0;
#X connect 14 0 19 0;
#X connect 15 0 5 0;
#X connect 17 0 23 0;
#X connect 18 0 17 0;
#X connect 19 0 4 0;
#X connect 20 0 18 0;
#X connect 21 0 10 0;
#X connect 23 0 14 0;
