#N canvas 774 200 452 460 10;
#X declare -lib else;
#X text 58 200 Check declare's help file for more information.;
#X obj 46 28 cnv 15 350 40 empty empty empty 12 13 0 18 -128992 -233080
0;
#N canvas 382 141 749 319 (subpatch) 0;
#X coords 0 -1 1 1 352 42 2 100 100;
#X restore 45 27 pd;
#X obj 85 35 cnv 10 10 10 empty empty ELSE 0 15 2 30 -128992 -233080
0;
#X obj 195 42 cnv 10 10 10 empty empty EL 0 6 2 13 -128992 -233080
0;
#X obj 215 42 cnv 10 10 10 empty empty Locus 0 6 2 13 -128992 -233080
0;
#X obj 252 42 cnv 10 10 10 empty empty Solus' 0 6 2 13 -128992 -233080
0;
#X obj 291 42 cnv 10 10 10 empty empty ELSE 0 6 2 13 -128992 -233080
0;
#X obj 329 42 cnv 10 10 10 empty empty library 0 6 2 13 -128992 -233080
0;
#X obj 271 91 else-meta;
#X obj 172 373 openfile http://www.github.com/porres/pd-else -h
;
#X obj 191 307 openfile README.pdf -h;
#X obj 172 406 openfile https://github.com/porres/pd-issues
-h;
#X text 60 406 Bug/Issue report:;
#X text 59 307 Check ELSE's readme:;
#X text 61 373 ELSE's repository;
#X text 59 340 All objetcs in the ELSE library:;
#X text 175 89 ELSE's meta =>;
#X obj 263 340 openfile All_objects.pd -h;
#X obj 230 169 declare -lib else;
#X text 59 134 You can install the ELSE library by adding it to"Preferences
=> Startup". Or you can also use [declare] as follows:, f 51;
#X obj 235 263 else;
#X text 59 224 Aletrantively \, you can load it by creating the 'else'
object (check its help file as well):, f 49;
