#N canvas 563 23 555 515 12;
#X declare -path else;
#X obj 68 182 noise~;
#X obj 68 218 bpbank~ 4 -freq 250 600 1050 1470 -q 30 25 30 20, f 24;
#X obj 295 181 noise~;
#X obj 295 217 resonbank~ 4 -freq 150 400 950 1270 -decay 50 100 70 90, f 31;
#X obj 369 16 declare -path else;
#X obj 295 267 out~;
#X obj 68 268 out~;
#X text 70 66 The ELSE library has a few filterbank objects. These are banks of filters in parallel. For instance \, we have [bpbank~] is a bank made of [bandpass~] objects in parallel. Another example is [resonbank~] \, which is composed of [resonant~] objects in parallel., f 61;
#X text 98 410 These can also output multichannel connections where each filter in the bank is in a different channel. Check the help files for more info., f 57;
#X obj 131 357 resonbank2~;
#X text 227 350 see also [resonbank2~] for a bank of [resonant2~] filters., f 35;
#X connect 0 0 1 0;
#X connect 1 0 6 0;
#X connect 2 0 3 0;
#X connect 3 0 5 0;
