#N canvas 316 117 527 427 12;
#X declare -path else;
#X obj 173 371 outlet;
#X obj 94 32 inlet;
#X text 251 206 Part of ELSE \; https://github.com/porres/pd-else;
#X text 251 187 Alexandre Torres Porres (2022), f 33;
#N canvas 502 215 396 339 time 0;
#X obj 120 92 r \$0-bpm;
#X obj 61 20 inlet;
#X obj 149 266 outlet;
#X obj 61 54 t f f;
#X obj 117 56 v \$0_time;
#X obj 61 219 v \$0_time;
#X obj 120 140 /;
#X msg 120 116 60000 \$1;
#X obj 61 185 select 0, f 13;
#X obj 202 100 else/initmess \$1;
#X obj 202 124 moses 1;
#X obj 61 115 * 500;
#X obj 248 155 s \$0-bpm;
#X connect 0 0 7 0;
#X connect 1 0 3 0;
#X connect 3 0 11 0;
#X connect 3 1 4 0;
#X connect 5 0 2 0;
#X connect 6 0 11 1;
#X connect 7 0 6 0;
#X connect 8 0 5 0;
#X connect 8 1 2 0;
#X connect 9 0 10 0;
#X connect 10 1 12 0;
#X connect 11 0 8 0;
#X restore 194 269 pd time;
#X obj 258 28 inlet;
#X obj 258 138 s \$0-bpm;
#X obj 106 187 else/delete 2;
#X obj 145 86 list length;
#X obj 145 110 > 2;
#X obj 106 146 spigot;
#X obj 78 227 t a a, f 14;
#X obj 94 88 t a a;
#X obj 258 106 max 1;
#X obj 304 268 declare -path else;
#N canvas 284 85 463 388 note-off 0;
#X obj 75 46 inlet;
#X obj 255 325 outlet;
#X obj 141 164 else/pipe2;
#X obj 75 106 else/replace 2 0;
#X obj 141 198 else/slice 2;
#X obj 255 262 list append;
#X obj 248 181 else/args;
#X obj 248 152 loadbang;
#X obj 248 208 else/slice 1;
#X obj 208 46 inlet;
#X connect 0 0 3 0;
#X connect 2 0 4 0;
#X connect 3 0 2 0;
#X connect 4 0 5 0;
#X connect 5 0 1 0;
#X connect 6 0 8 0;
#X connect 7 0 6 0;
#X connect 8 1 5 1;
#X connect 9 0 2 1;
#X restore 78 321 pd note-off;
#X connect 1 0 12 0;
#X connect 4 0 15 1;
#X connect 5 0 13 0;
#X connect 7 0 11 0;
#X connect 7 1 4 0;
#X connect 8 0 9 0;
#X connect 9 0 10 1;
#X connect 10 0 7 0;
#X connect 11 0 15 0;
#X connect 11 1 0 0;
#X connect 12 0 10 0;
#X connect 12 1 8 0;
#X connect 13 0 6 0;
#X connect 15 0 0 0;
