#N canvas 438 77 671 649 12;
#X declare -path else;
#X obj 438 19 declare -path else;
#X obj 221 268 float2imp~;
#X obj 221 236 bng 20 250 50 0 empty empty empty 17 7 0 10 #dcdcdc #000000 #000000;
#X obj 77 262 brown~;
#X obj 77 335 out~;
#X obj 77 302 autofade2~ sin 0 1000;
#X text 66 62 The [decay~] is the one object solely dedicated to decay only envelopes \, but we've seen other objects that are also useful and are also the main objects for envelope generation in Pd. Nonetheless \, we can still use mode objects. The [lag~] object was shown as something we can use just for setting a decay envelope and there are other similar objects that were previously introduced that can also be used \, like [autofade2~] \, [glide2~] \, [smooth2~] and even [slew2~]. All of these follow the same idea of setting the upward ramp to 0!, f 75;
#X text 244 299 A sine decay ramp, f 7;
#X obj 428 267 float2imp~;
#X obj 428 235 bng 20 250 50 0 empty empty empty 17 7 0 10 #dcdcdc #000000 #000000;
#X obj 364 331 out~;
#X obj 428 299 glide2~ -exp 4 0 1000;
#X obj 364 271 brown~;
#X obj 364 300 *~;
#X text 524 244 A quartic decay ramp, f 10;
#N canvas 573 218 711 556 slew 0;
#X obj 151 278 brown~;
#X obj 138 382 vsl 18 100 0 1 0 0 ewtwet wefwert empty 0 -9 0 10 #dcdcdc #000000 #000000 0 1;
#X text 161 475 0;
#X text 161 376 1;
#X obj 202 349 *~;
#X obj 220 154 bng 20 250 50 0 empty empty empty 17 7 0 10 #dcdcdc #000000 #000000;
#X obj 202 394 out~;
#X obj 138 354 s2f~;
#X text 140 39 Why not use a slew limiter as a decay only envelope? Here we have an example with both [slew2~] and [slop~]., f 31;
#X text 144 106 Note that these are linear.;
#X floatatom 220 217 7 0 0 0 - - - 0;
#X obj 220 188 rand.f 0.2 1;
#X floatatom 502 260 0 0 0 0 - - - 0;
#X floatatom 502 171 5 10 125 0 - - - 0;
#X obj 502 230 /;
#X obj 520 201 sr~;
#X obj 502 141 initmess 1;
#X obj 505 366 vsl 18 100 0 1 0 0 ewtwet wefwert empty 0 -9 0 10 #dcdcdc #000000 #000000 0 1;
#X text 528 459 0;
#X text 528 360 1;
#X obj 505 338 s2f~;
#X obj 439 291 slop~ 1e+09 0 0 1e+09 0;
#X floatatom 399 201 7 0 0 0 - - - 0;
#X obj 399 172 rand.f 0.2 1;
#X obj 374 290 brown~;
#X obj 374 349 *~;
#X obj 374 384 out~;
#X obj 399 138 bng 20 250 50 0 empty empty empty 17 7 0 10 #dcdcdc #000000 #000000;
#X obj 220 247 float2imp~;
#X obj 399 231 float2imp~;
#X obj 220 283 slew2~ -1 1;
#X connect 0 0 4 0;
#X connect 4 0 6 0;
#X connect 5 0 11 0;
#X connect 7 0 1 0;
#X connect 10 0 28 0;
#X connect 11 0 10 0;
#X connect 12 0 21 2;
#X connect 13 0 14 0;
#X connect 14 0 12 0;
#X connect 15 0 14 1;
#X connect 16 0 13 0;
#X connect 20 0 17 0;
#X connect 21 0 25 1;
#X connect 21 0 20 0;
#X connect 22 0 29 0;
#X connect 23 0 22 0;
#X connect 24 0 25 0;
#X connect 25 0 26 0;
#X connect 27 0 23 0;
#X connect 28 0 30 0;
#X connect 29 0 21 0;
#X connect 30 0 4 1;
#X connect 30 0 7 0;
#X restore 446 507 pd slew limiters;
#X obj 174 484 float2imp~;
#X obj 174 452 bng 20 250 50 0 empty empty empty 17 7 0 10 #dcdcdc #000000 #000000;
#X obj 110 554 out~;
#X obj 110 488 brown~;
#X obj 110 517 *~;
#X obj 174 516 smooth2~ -curve 1 0 1000;
#X connect 1 0 5 1;
#X connect 2 0 1 0;
#X connect 3 0 5 0;
#X connect 5 0 4 0;
#X connect 8 0 11 0;
#X connect 9 0 8 0;
#X connect 11 0 13 1;
#X connect 12 0 13 0;
#X connect 13 0 10 0;
#X connect 16 0 21 0;
#X connect 17 0 16 0;
#X connect 19 0 20 0;
#X connect 20 0 18 0;
#X connect 21 0 20 1;
