#N canvas 179 95 765 601 12;
#X declare -path else;
#N canvas 383 23 335 489 (subpatch) 0;
#X obj 51 51 cnv 15 240 388 empty empty empty 20 12 0 14 #dbdbdb #373737 0;
#X obj 116 56 note 101 24 Inter empty 5 54 54 54 0 187 187 187 1 1 PLAITS;
#X obj 219 116 else/knob 50 0 1 0 0.5 \$0-harmonics \$0-set-harmonics #dfdfdf #7c7c7c black 0 0 0 0 1 320 0 0 0.5;
#X text 213 96 Harmonics;
#X obj 68 194 else/knob 50 0 1 0 0.5 \$0-timbre \$0-set-timbre #dfdfdf #7c7c7c black 0 0 0 0 1 320 0 0 0.5;
#X text 69 174 Timbre;
#X obj 218 194 else/knob 50 0 1 0 0.5 \$0-morph \$0-set-morph #dfdfdf #7c7c7c black 0 0 0 0 1 320 0 0 0.5;
#X text 223 174 Morph;
#X obj 67 116 else/knob 50 -24 24 0 0 \$0-freq \$0-set-freq #dfdfdf #7c7c7c black 0 0 0 0 1 320 0 0 0;
#X text 60 96 Frequency;
#X obj 142 106 vradio 18 1 0 8 \$0-radio-1 \$0-set-radio-1 empty 0 -8 0 10 #dfdfdf #00b1a5 #000000 0;
#X obj 160 106 vradio 18 1 0 8 \$0-radio-2 \$0-set-radio-2 empty 0 -8 0 10 #dfdfdf #dfdfdf #000000 0;
#X obj 178 106 vradio 18 1 0 8 \$0-radio-3 \$0-set-radio-3 empty 0 -8 0 10 #dfdfdf #dfdfdf #000000 0;
#X obj 58 260 else/note 220 12 Menlo \$0-label 4 0 0 0 0 223 223 223 1 1 Pair of classic waveforms;
#X obj 112 300 else/knob 50 0 1 0 0.5 \$0-cutoff \$0-set-cutoff #dfdfdf #7c7c7c black 0 0 0 0 1 320 0 0 0;
#X obj 182 300 else/knob 50 0 1 0 0.5 \$0-decay \$0-set-decay #dfdfdf #7c7c7c black 0 0 0 0 1 320 0 0 0;
#X text 115 282 Cutoff;
#X text 187 282 Decay;
#X text 78 312 LPG;
#X obj 126 378 knob 40 -1 1 0 0 \$0-timbre-att \$0-set-timbre-att #202020 #7c7c7c #ff0400 0 0 0 0 1 320 0 0 0;
#X obj 76 378 knob 40 -1 1 0 0 \$0-freq-att \$0-set-freq-att #202020 #7c7c7c #ff0400 0 0 0 0 1 320 0 0 0;
#X obj 176 378 knob 40 -1 1 0 0 \$0-harmonics-att \$0-set-harmonics-att #202020 #7c7c7c #ff0400 0 0 0 0 1 320 0 0 0;
#X obj 226 378 knob 40 -1 1 0 0 \$0-morph-att \$0-set-morph-att #202020 #7c7c7c #ff0400 0 0 0 0 1 320 0 0 0;
#X text 80 356 ----- Attenuverters -----;
#X text 86 420 FM;
#X text 122 420 Timbre;
#X text 183 420 Harm;
#X text 228 420 Morph;
#X coords 0 1 100 -1 242 390 1 50 50;
#X restore 410 148 graph;
#X obj 69 75 inlet~;
#X obj 69 538 outlet~;
#N canvas 243 43 732 415 preset 0;
#X obj 125 121 else/sender 1 \\\$0-presets;
#X msg 125 86 name \$1;
#X obj 90 161 else/receiver;
#X obj 123 210 route list;
#N canvas 596 76 491 352 id-name-init 0;
#X obj 165 113 + 1;
#X obj 257 100 else/dollsym 1;
#X obj 141 80 value;
#X obj 141 252 outlet;
#X obj 141 51 else/loadbanger 2;
#X obj 141 201 else/dollsym 1;
#X obj 257 76 symbol plaits-id_\\\$0;
#X obj 141 166 else/format symbol \\\$0-plaits-%d;
#X connect 0 0 2 0;
#X connect 1 0 2 1;
#X connect 2 0 0 0;
#X connect 2 0 7 0;
#X connect 4 0 2 0;
#X connect 4 1 6 0;
#X connect 5 0 3 0;
#X connect 6 0 1 0;
#X connect 7 0 5 0;
#X restore 90 39 pd id-name-init;
#X obj 90 310 else/var \$0-freq \$0-harmonics \$0-timbre \$0-morph \$0-model \$0-cutoff \$0-decay \$0-freq-att \$0-timbre-att \$0-harmonics-att \$0-morph-att;
#X obj 123 247 else/dispatch \$0-set-freq \$0-set-harmonics \$0-set-timbre \$0-set-morph \$0-set-model \$0-set-cutoff \$0-set-decay \$0-set-freq-att \$0-set-timbre-att \$0-set-harmonics-att \$0-set-morph-att, f 69;
#X connect 1 0 0 0;
#X connect 2 0 3 0;
#X connect 2 0 5 0;
#X connect 3 0 6 0;
#X connect 4 0 1 0;
#X connect 4 0 2 0;
#X restore 537 67 pd preset;
#N canvas 560 213 643 344 init-savestate 0;
#X obj 74 87 savestate;
#X obj 405 177 declare -path else;
#X obj 49 125 list;
#X obj 49 43 loadbang;
#X obj 49 222 else/dispatch \$0-set-freq \$0-set-harmonics \$0-set-timbre \$0-set-morph \$0-set-model \$0-set-cutoff \$0-set-decay \$0-set-freq-att \$0-set-timbre-att \$0-set-harmonics-att \$0-set-morph-att;
#X obj 49 178 else/default 0 0.5 0.5 0.5 0 0.5 0.5 0 0 0 0;
#X obj 134 119 else/var \$0-freq \$0-harmonics \$0-timbre \$0-morph \$0-model \$0-cutoff \$0-decay \$0-freq-att \$0-timbre-att \$0-harmonics-att \$0-morph-att, f 67;
#X connect 0 0 2 1;
#X connect 0 1 6 0;
#X connect 2 0 5 0;
#X connect 3 0 2 0;
#X connect 5 0 4 0;
#X connect 6 0 0 0;
#X restore 482 44 pd init-savestate;
#X obj 179 538 outlet~;
#N canvas 260 95 923 567 GUI 0;
#N canvas 181 203 498 298 radio-1 0;
#X obj 90 43 r \$0-radio-1;
#X msg 117 127 color #dfdfdf #dfdfdf #000000;
#X obj 90 71 t f b;
#X obj 125 153 s \$0-set-radio-2;
#X obj 132 95 s \$0-set-radio-1;
#X obj 90 204 outlet;
#X obj 117 176 s \$0-set-radio-3;
#X msg 214 23 color #dfdfdf #00ff00 #000000;
#X msg 132 71 color #dfdfdf #00b1a5 #000000;
#X connect 0 0 2 0;
#X connect 1 0 3 0;
#X connect 1 0 6 0;
#X connect 2 0 5 0;
#X connect 2 1 1 0;
#X connect 2 1 8 0;
#X connect 8 0 4 0;
#X restore 117 81 pd radio-1;
#N canvas 202 189 450 300 radio-2 0;
#X obj 85 98 t f b;
#X obj 85 231 outlet;
#X obj 85 40 r \$0-radio-2;
#X obj 127 122 s \$0-set-radio-2;
#X obj 85 68 + 8;
#X msg 112 154 color #dfdfdf #dfdfdf #000000;
#X obj 123 178 s \$0-set-radio-1;
#X obj 112 199 s \$0-set-radio-3;
#X msg 127 98 color #dfdfdf #ff518d #000000;
#X connect 0 0 1 0;
#X connect 0 1 5 0;
#X connect 0 1 8 0;
#X connect 2 0 4 0;
#X connect 4 0 0 0;
#X connect 5 0 6 0;
#X connect 5 0 7 0;
#X connect 8 0 3 0;
#X restore 169 123 pd radio-2;
#N canvas 202 189 450 300 radio-3 0;
#X obj 85 98 t f b;
#X obj 85 231 outlet;
#X obj 112 207 s \$0-set-radio-1;
#X msg 112 154 color #dfdfdf #dfdfdf #000000;
#X obj 85 40 r \$0-radio-3;
#X obj 85 68 + 16;
#X obj 130 182 s \$0-set-radio-2;
#X obj 127 122 s \$0-set-radio-3;
#X msg 127 98 color #dfdfdf #f4560a #000000;
#X connect 0 0 1 0;
#X connect 0 1 3 0;
#X connect 0 1 8 0;
#X connect 3 0 2 0;
#X connect 3 0 6 0;
#X connect 4 0 5 0;
#X connect 5 0 0 0;
#X connect 8 0 7 0;
#X restore 200 169 pd radio-3;
#X obj 169 212 s \$0-model;
#X obj 167 311 else/spread 8 16;
#X obj 43 397 symbol2any;
#X obj 43 464 s \$0-label;
#X obj 43 225 r \$0-name;
#X obj 43 259 route 0;
#X obj 43 293 route name;
#X obj 43 360 symbol;
#X obj 221 400 s \$0-set-radio-2;
#X obj 276 367 s \$0-set-radio-3;
#X obj 202 432 s \$0-set-radio-1;
#X obj 167 264 r \$0-set-model;
#X obj 221 341 - 8;
#X obj 276 339 - 16;
#X obj 43 430 else/insert set;
#X obj 43 321 else/changed;
#X obj 437 57 r \$0-model;
#X obj 492 255 r \$0-morph;
#X obj 453 122 r \$0-harmonics;
#X obj 503 320 r \$0-cutoff;
#X obj 516 384 r \$0-decay;
#X obj 478 187 r \$0-timbre;
#X msg 437 86 model \$1;
#X msg 453 151 harmonics \$1;
#X msg 478 216 timbre \$1;
#X msg 492 284 morph \$1;
#X msg 503 349 cutoff \$1;
#X msg 516 411 decay \$1;
#X obj 438 498 s \$0-to-plaits;
#X obj 438 468 else/insert all;
#X obj 646 136 r \$0-fm-in;
#X obj 596 27 r \$0-trig;
#X msg 596 53 trigger \$1;
#X obj 622 82 r \$0-level;
#X msg 622 108 level \$1;
#X obj 646 522 s \$0-to-plaits;
#X obj 646 492 else/insert all;
#X msg 646 163 freq_active \$1;
#X obj 663 189 r \$0-t-in;
#X msg 663 216 timbre_active \$1;
#X obj 679 246 r \$0-m-in;
#X msg 679 273 morph_active \$1;
#X obj 708 361 r \$0-timbre-att;
#X msg 708 388 all timbre_mod \$1;
#X obj 693 306 r \$0-freq-att;
#X msg 693 333 all freq_mod \$1;
#X msg 718 447 all morphq_mod \$1;
#X obj 718 420 r \$0-morph-att;
#X connect 0 0 3 0;
#X connect 1 0 3 0;
#X connect 2 0 3 0;
#X connect 4 0 13 0;
#X connect 4 1 15 0;
#X connect 4 2 16 0;
#X connect 5 0 17 0;
#X connect 7 0 8 0;
#X connect 8 0 9 0;
#X connect 9 0 18 0;
#X connect 10 0 5 0;
#X connect 14 0 4 0;
#X connect 15 0 11 0;
#X connect 16 0 12 0;
#X connect 17 0 6 0;
#X connect 18 0 10 0;
#X connect 19 0 25 0;
#X connect 20 0 28 0;
#X connect 21 0 26 0;
#X connect 22 0 29 0;
#X connect 23 0 30 0;
#X connect 24 0 27 0;
#X connect 25 0 32 0;
#X connect 26 0 32 0;
#X connect 27 0 32 0;
#X connect 28 0 32 0;
#X connect 29 0 32 0;
#X connect 30 0 32 0;
#X connect 32 0 31 0;
#X connect 33 0 40 0;
#X connect 34 0 35 0;
#X connect 35 0 39 0;
#X connect 36 0 37 0;
#X connect 37 0 39 0;
#X connect 39 0 38 0;
#X connect 40 0 39 0;
#X connect 41 0 42 0;
#X connect 42 0 39 0;
#X connect 43 0 44 0;
#X connect 44 0 39 0;
#X connect 45 0 46 0;
#X connect 46 0 39 0;
#X connect 47 0 48 0;
#X connect 48 0 39 0;
#X connect 49 0 39 0;
#X connect 50 0 49 0;
#X restore 482 67 pd GUI;
#N canvas 331 193 776 381 set 0;
#X obj 116 311 outlet;
#X obj 118 151 t b f;
#X obj 118 101 change 0;
#X obj 118 73 else/nchs~;
#X obj 118 35 inlet~;
#X obj 118 195 else/var \$0-model \$0-harmonics \$0-timbre \$0-morph \$0-trig \$0-cutoff \$0-decay, f 77;
#X obj 118 227 else/dispatch \$0-model \$0-harmonics \$0-timbre \$0-morph \$0-trig \$0-cutoff \$0-decay, f 82;
#X obj 116 273 r \$0-to-plaits;
#X obj 179 161 s \$0-to-plaits;
#X msg 179 136 resize \$1;
#X connect 1 0 5 0;
#X connect 1 1 9 0;
#X connect 2 0 1 0;
#X connect 3 0 2 0;
#X connect 4 0 3 0;
#X connect 5 0 6 0;
#X connect 7 0 0 0;
#X connect 9 0 8 0;
#X restore 12 220 pd set;
#X obj 290 380 s \$0-name;
#X obj 87 176 r \$0-freq;
#X obj 69 205 +~;
#X obj 69 244 mtof~;
#X obj 125 75 inlet~;
#X obj 69 315 clone -d plaits.unit 1, f 32;
#N canvas 52 101 1125 413 check 0;
#X obj 23 37 inlet~;
#X obj 23 320 outlet~;
#X obj 59 79 else/pick~ 1;
#X obj 59 126 else/s2f~;
#X obj 59 159 change;
#X obj 59 102 else/op~ != 1e+06;
#X obj 59 247 s \$0-trig;
#X obj 23 275 else/select~ 1;
#X obj 196 32 inlet~;
#X obj 196 315 outlet~;
#X obj 232 74 else/pick~ 1;
#X obj 232 121 else/s2f~;
#X obj 232 154 change;
#X obj 232 97 else/op~ != 1e+06;
#X obj 196 270 else/select~ 1;
#X obj 232 222 s \$0-level;
#X obj 426 37 inlet~;
#X obj 426 320 outlet~;
#X obj 462 79 else/pick~ 1;
#X obj 462 126 else/s2f~;
#X obj 462 159 change;
#X obj 462 102 else/op~ != 1e+06;
#X obj 426 275 else/select~ 1;
#X obj 596 32 inlet~;
#X obj 596 315 outlet~;
#X obj 632 74 else/pick~ 1;
#X obj 632 121 else/s2f~;
#X obj 632 154 change;
#X obj 632 97 else/op~ != 1e+06;
#X obj 596 270 else/select~ 1;
#X obj 766 32 inlet~;
#X obj 766 315 outlet~;
#X obj 936 37 inlet~;
#X obj 936 320 outlet~;
#X obj 972 79 else/pick~ 1;
#X obj 972 126 else/s2f~;
#X obj 972 159 change;
#X obj 972 102 else/op~ != 1e+06;
#X obj 936 275 else/select~ 1;
#X obj 766 268 *~;
#X obj 462 247 s \$0-fm-in;
#X obj 632 222 s \$0-t-in;
#X obj 972 247 s \$0-m-in;
#X obj 794 145 r \$0-morph-att;
#X obj 794 177 else/f2s~;
#X connect 0 0 2 0;
#X connect 0 0 7 0;
#X connect 2 0 5 0;
#X connect 3 0 4 0;
#X connect 4 0 7 0;
#X connect 4 0 6 0;
#X connect 5 0 3 0;
#X connect 7 0 1 0;
#X connect 8 0 10 0;
#X connect 8 0 14 0;
#X connect 10 0 13 0;
#X connect 11 0 12 0;
#X connect 12 0 14 0;
#X connect 12 0 15 0;
#X connect 13 0 11 0;
#X connect 14 0 9 0;
#X connect 16 0 18 0;
#X connect 16 0 22 0;
#X connect 18 0 21 0;
#X connect 19 0 20 0;
#X connect 20 0 22 0;
#X connect 20 0 40 0;
#X connect 21 0 19 0;
#X connect 22 0 17 0;
#X connect 23 0 25 0;
#X connect 23 0 29 0;
#X connect 25 0 28 0;
#X connect 26 0 27 0;
#X connect 27 0 29 0;
#X connect 27 0 41 0;
#X connect 28 0 26 0;
#X connect 29 0 24 0;
#X connect 30 0 39 0;
#X connect 32 0 34 0;
#X connect 32 0 38 0;
#X connect 34 0 37 0;
#X connect 35 0 36 0;
#X connect 36 0 38 0;
#X connect 36 0 42 0;
#X connect 37 0 35 0;
#X connect 38 0 33 0;
#X connect 39 0 31 0;
#X connect 43 0 44 0;
#X connect 44 0 39 1;
#X restore 223 248 pd check;
#X f 10;
#X obj 175 75 inlet~;
#X obj 275 26 initmess 1e+06;
#X obj 224 75 inlet~;
#X obj 275 75 inlet~;
#X obj 325 75 inlet~;
#X obj 376 75 inlet~;
#X text 522 126 FM;
#X text 568 126 T;
#X text 611 126 H;
#X text 650 126 M;
#X text 401 126 Freq;
#X text 437 126 Trig;
#X text 476 126 Level;
#X connect 1 0 10 0;
#X connect 1 0 7 0;
#X connect 7 0 13 0;
#X connect 9 0 10 1;
#X connect 10 0 11 0;
#X connect 11 0 13 0;
#X connect 12 0 14 0;
#X connect 13 0 2 0;
#X connect 13 1 5 0;
#X connect 13 2 8 0;
#X connect 14 0 13 1;
#X connect 14 1 13 2;
#X connect 14 2 13 3;
#X connect 14 3 13 4;
#X connect 14 4 13 5;
#X connect 14 5 13 6;
#X connect 15 0 14 1;
#X connect 16 0 15 0;
#X connect 16 0 12 0;
#X connect 16 0 17 0;
#X connect 16 0 20 0;
#X connect 16 0 19 0;
#X connect 16 0 18 0;
#X connect 17 0 14 2;
#X connect 18 0 14 3;
#X connect 19 0 14 4;
#X connect 20 0 14 5;
#X coords 0 1 100 -1 262 422 2 400 125;
