#N canvas 224 191 834 367 12;
#X declare -path else;
#X obj 272 71 inlet~;
#X obj 272 266 outlet~;
#X obj 343 71 inlet~;
#N canvas 756 249 538 397 GUI 0;
#X obj 233 39 r \$0-cutoff;
#X msg 233 98 set \$1;
#X obj 233 129 s \$0-set-cutoff-nbx;
#X obj 57 87 log 30;
#X obj 57 60 / 500;
#X obj 57 114 expr $f1 * 2 -1;
#X obj 57 26 r \$0-cutoff-nbx;
#X obj 233 70 else/rescale -log -in -1 1 500 15000;
#X msg 233 285 set \$1;
#X obj 57 301 expr $f1 * 2 -1;
#X obj 233 226 r \$0-decay;
#X obj 233 316 s \$0-set-decay-nbx;
#X obj 57 213 r \$0-decay-nbx;
#X obj 233 257 else/rescale -log -in -1 1 100 10000;
#X obj 57 274 log 100;
#X obj 57 247 / 100;
#X obj 57 148 s \$0-set-cutoff;
#X obj 57 335 s \$0-set-decay;
#X connect 0 0 7 0;
#X connect 1 0 2 0;
#X connect 3 0 5 0;
#X connect 4 0 3 0;
#X connect 5 0 16 0;
#X connect 6 0 4 0;
#X connect 7 0 1 0;
#X connect 8 0 11 0;
#X connect 9 0 17 0;
#X connect 10 0 13 0;
#X connect 12 0 15 0;
#X connect 13 0 8 0;
#X connect 14 0 9 0;
#X connect 15 0 14 0;
#X restore 663 162 pd GUI;
#N canvas 438 147 301 372 (subpatch) 0;
#X obj 51 51 cnv 19 145 251 empty empty empty 20 12 0 12 #e0e0e0 #404040 0;
#X floatatom 67 160 6 100 10000 0 - \$0-set-decay-nbx \$0-decay-nbx 0;
#X obj 63 103 else/knob 50 -1 1 0 -1 \$0-decay \$0-set-decay #dfdfdf #7c7c7c black 0 0 0 0 1 320 0 0 -1;
#X obj 70 60 note 101 24 Inter empty 5 54 54 54 0 187 187 187 1 1 PLUCK;
#X floatatom 140 160 6 500 15000 0 - \$0-set-cutoff-nbx \$0-cutoff-nbx 0;
#X obj 136 103 else/knob 50 -1 1 0 -1 \$0-cutoff \$0-set-cutoff #dfdfdf #7c7c7c black 0 0 0 0 1 320 0 0 -1;
#X text 68 178 Decay;
#X text 137 178 Cutoff;
#X obj 144 206 else/knob 35 -1 1 0 0 \$0-att-cut \$0-att-cut-set #bbbbbb #7c7c7c black 0 0 0 0 1 320 0 0 0;
#X obj 71 206 else/knob 35 -1 1 0 0 \$0-att-decay \$0-att-decay-set #bbbbbb #7c7c7c black 0 0 0 0 1 320 0 0 0;
#X text 78 243 Attenuverters;
#X floatatom 117 272 3 0 0 0 - \$0-set-n-voices \$0-n-voices 16;
#X obj 87 272 tgl 23 0 \$0-midi-mode \$0-set-midi-mode empty 0 -10 0 12 #dfdfdf #ff0400 #000000 0 1;
#X text 55 273 MIDI;
#X text 151 275 Voices;
#X coords 0 1 100 -1 147 253 1 50 50;
#X restore 59 72 graph;
#N canvas 138 43 459 429 preset 0;
#X obj 121 133 else/sender 1 \\\$0-presets;
#X msg 121 98 name \$1;
#X obj 98 182 else/receiver;
#X obj 123 222 route list;
#N canvas 596 76 470 347 id-name-init 0;
#X obj 165 113 + 1;
#X obj 257 100 else/dollsym 1;
#X obj 141 80 value;
#X obj 141 252 outlet;
#X obj 141 51 else/loadbanger 2;
#X obj 141 201 else/dollsym 1;
#X obj 257 76 symbol pluck-id_\\\$0;
#X obj 141 166 else/format symbol \\\$0-pluck-%d;
#X connect 0 0 2 0;
#X connect 1 0 2 1;
#X connect 2 0 0 0;
#X connect 2 0 7 0;
#X connect 4 0 2 0;
#X connect 4 1 6 0;
#X connect 5 0 3 0;
#X connect 6 0 1 0;
#X connect 7 0 5 0;
#X restore 97 46 pd id-name-init;
#X obj 123 258 else/dispatch \$0-set-decay \$0-set-cutoff \$0-att-decay-set \$0-att-cut-set, f 40;
#X obj 98 331 else/var \$0-decay \$0-cutoff \$0-att-decay \$0-att-cut, f 27;
#X connect 1 0 0 0;
#X connect 2 0 3 0;
#X connect 2 0 6 0;
#X connect 3 0 5 0;
#X connect 4 0 1 0;
#X connect 4 0 2 0;
#X restore 719 162 pd preset;
#N canvas 618 163 503 369 init-savestate 0;
#X obj 110 106 savestate;
#X obj 287 206 declare -path else;
#X obj 85 67 loadbang;
#X obj 85 165 list;
#X obj 85 250 else/dispatch \$0-set-decay \$0-set-cutoff \$0-att-decay-set \$0-att-cut-set, f 40;
#X obj 170 142 else/var \$0-decay \$0-cutoff \$0-att-decay \$0-att-cut, f 27;
#X obj 85 205 else/default 0 1;
#X connect 0 0 3 1;
#X connect 0 1 5 0;
#X connect 2 0 3 0;
#X connect 3 0 6 0;
#X connect 5 0 0 0;
#X connect 6 0 4 0;
#X restore 663 133 pd init-savestate;
#X text 340 50 Trigger;
#N canvas 218 85 681 604 set 0;
#X obj 102 36 inlet~;
#X obj 370 560 outlet;
#X obj 378 36 inlet;
#N canvas 133 232 467 494 list 0;
#X obj 86 245 else/router;
#X obj 197 299 else/mono;
#X obj 197 333 pack;
#X obj 197 367 list prepend 0;
#X obj 185 71 r \$0-n-voices;
#X obj 185 95 max 1;
#X obj 185 119 int;
#X obj 274 204 s \$0-set-n-voices;
#X msg 274 177 set \$1;
#X obj 86 59 inlet;
#X obj 207 198 s \$0-n;
#X obj 132 182 == 1;
#X msg 185 250 voices \$1;
#X obj 66 309 else/voices 1 1;
#X obj 197 414 outlet;
#X connect 0 0 13 0;
#X connect 0 1 1 0;
#X connect 1 0 2 0;
#X connect 1 1 2 1;
#X connect 2 0 3 0;
#X connect 3 0 14 0;
#X connect 4 0 5 0;
#X connect 5 0 6 0;
#X connect 6 0 8 0;
#X connect 6 0 10 0;
#X connect 6 0 11 0;
#X connect 6 0 12 0;
#X connect 8 0 7 0;
#X connect 9 0 0 0;
#X connect 11 0 0 1;
#X connect 12 0 13 0;
#X connect 13 0 14 0;
#X restore 378 177 pd list;
#X obj 378 83 route list cutoff decay cutoff_att decay_att, f 23;
#X obj 478 181 s \$0-set-decay;
#X obj 466 207 s \$0-set-cutoff;
#X obj 496 158 s \$0-att-cut-set;
#X obj 504 129 s \$0-att-decay-set;
#X obj 102 271 t b f, f 36;
#X obj 102 241 change 0;
#X obj 102 131 else/nchs~;
#X msg 418 350 resize \$1;
#X obj 102 159 spigot;
#X obj 194 159 == 0;
#X obj 304 120 r \$0-n;
#X obj 194 120 r \$0-midi-mode;
#X obj 256 188 spigot;
#X obj 102 303 else/var \$0-freq \$0-model \$0-harmonics \$0-timbre \$0-morph \$0-cutoff \$0-decay \$0-trig \$0-level \$0-fm-in \$0-t-in \$0-m-in \$0-freq-att \$0-timbre-att \$0-morph-att \$0-midi-mode, f 32;
#X obj 102 427 else/dispatch \$0-freq \$0-model \$0-harmonics \$0-timbre \$0-morph \$0-cutoff \$0-decay \$0-trig \$0-level \$0-fm-in \$0-t-in \$0-m-in \$0-freq-att \$0-timbre-att \$0-morph-att \$0-midi-mode, f 32;
#X connect 0 0 11 0;
#X connect 2 0 4 0;
#X connect 3 0 1 0;
#X connect 4 0 3 0;
#X connect 4 1 6 0;
#X connect 4 2 5 0;
#X connect 4 3 7 0;
#X connect 4 4 8 0;
#X connect 9 0 18 0;
#X connect 9 1 12 0;
#X connect 10 0 9 0;
#X connect 11 0 13 0;
#X connect 12 0 1 0;
#X connect 13 0 10 0;
#X connect 14 0 13 1;
#X connect 15 0 17 0;
#X connect 16 0 17 1;
#X connect 16 0 14 0;
#X connect 17 0 10 0;
#X connect 18 0 19 0;
#X restore 256 145 pd set;
#X obj 414 71 inlet~;
#X obj 491 71 inlet~;
#N canvas 249 235 764 419 att 0;
#X obj 491 185 r \$0-cutoff;
#X obj 491 215 else/f2s~;
#X obj 452 63 inlet~;
#X obj 452 296 outlet~;
#X obj 452 204 +~;
#X obj 452 251 else/rescale~ -log -in -1 1 500 15000;
#X obj 452 134 *~;
#X obj 491 149 else/f2s~;
#X obj 491 119 r \$0-att-cut;
#X obj 150 220 else/f2s~;
#X obj 111 68 inlet~;
#X obj 111 301 outlet~;
#X obj 111 209 +~;
#X obj 111 139 *~;
#X obj 150 154 else/f2s~;
#X obj 111 256 else/rescale~ -log -in -1 1 100 10000;
#X obj 150 190 r \$0-decay;
#X obj 150 124 r \$0-att-decay;
#X obj 597 155 numbox~ 6 12 100 #C0C0C4 #440008 10 0 0 0;
#X connect 0 0 1 0;
#X connect 1 0 4 1;
#X connect 2 0 6 0;
#X connect 4 0 5 0;
#X connect 5 0 3 0;
#X connect 6 0 4 0;
#X connect 7 0 6 1;
#X connect 7 0 18 0;
#X connect 8 0 7 0;
#X connect 9 0 12 1;
#X connect 10 0 13 0;
#X connect 12 0 15 0;
#X connect 13 0 12 0;
#X connect 14 0 13 1;
#X connect 15 0 11 0;
#X connect 16 0 9 0;
#X connect 17 0 14 0;
#X restore 414 130 pd att;
#X obj 570 71 inlet~;
#X text 51 52 Freq;
#X text 87 52 Tr;
#X text 161 52 Cut;
#X text 110 52 Decay;
#X text 197 51 In;
#X text 279 50 Freq;
#X text 493 48 Cutoff;
#X text 417 48 Decay;
#X text 622 71 IN;
#N canvas 145 291 464 411 check 0;
#X obj 113 54 inlet~;
#X obj 113 337 outlet~;
#X obj 149 96 else/pick~ 1;
#X obj 221 239 noise~;
#X obj 149 213 + 1;
#X obj 113 282 xselect~ 2 100 1;
#X obj 149 152 else/s2f~;
#X text 114 24 noise;
#X obj 149 184 change -1;
#X obj 149 124 else/op~ == 1e+06;
#X connect 0 0 2 0;
#X connect 0 0 5 0;
#X connect 2 0 9 0;
#X connect 3 0 5 1;
#X connect 4 0 5 0;
#X connect 5 0 1 0;
#X connect 6 0 8 0;
#X connect 8 0 4 0;
#X connect 9 0 6 0;
#X restore 523 145 pd check;
#X f 10;
#X obj 570 41 initmess 1e+06;
#X obj 272 214 clone -d pluck.unit 1, f 31;
#X connect 0 0 8 0;
#X connect 0 0 24 0;
#X connect 0 1 8 1;
#X connect 2 0 24 1;
#X connect 8 0 24 0;
#X connect 9 0 11 0;
#X connect 10 0 11 1;
#X connect 11 0 24 2;
#X connect 11 1 24 3;
#X connect 12 0 22 0;
#X connect 22 0 24 4;
#X connect 23 0 12 0;
#X connect 24 0 1 0;
#X coords 0 -1 1 1 165 286 2 50 50;
