#N canvas 639 80 717 556 12;
#X obj 23 445 outlet~;
#N canvas 243 43 704 487 preset 0;
#X obj 125 121 else/sender 1 \\\$0-presets;
#X msg 125 86 name \$1;
#X obj 90 171 else/receiver;
#X obj 123 215 route list;
#N canvas 468 182 491 352 id-name-init 0;
#X obj 165 113 + 1;
#X obj 257 100 else/dollsym 1;
#X obj 141 80 value;
#X obj 141 252 outlet;
#X obj 141 51 else/loadbanger 2;
#X obj 141 201 else/dollsym 1;
#X obj 257 76 symbol vca-id_\\\$0;
#X obj 141 166 makefilename \\\$0-vca-%d;
#X connect 0 0 2 0;
#X connect 1 0 2 1;
#X connect 2 0 0 0;
#X connect 2 0 7 0;
#X connect 4 0 2 0;
#X connect 4 1 6 0;
#X connect 5 0 3 0;
#X connect 6 0 1 0;
#X connect 7 0 5 0;
#X restore 90 39 pd id-name-init;
#X obj 123 247 else/dispatch \$0-set-bpm \$0-set-mul \$0-set-run \$0-midi1-set \$0-midi2-set \$0-midi3-set \$0-midi4-set \$0-midi5-set \$0-midi6-set \$0-midi7-set \$0-midi8-set \$0-trig1-set \$0-trig2-set \$0-trig3-set \$0-trig4-set \$0-trig5-set \$0-trig6-set \$0-trig7-set \$0-trig8-set, f 65;
#X obj 90 321 else/var \$0-bpm \$0-mul \$0-run \$0-midi1 \$0-midi2 \$0-midi3 \$0-midi4 \$0-midi5 \$0-midi6 \$0-midi7 \$0-midi8 \$0-trig1 \$0-trig2 \$0-trig3 \$0-trig4 \$0-trig5 \$0-trig6 \$0-trig7 \$0-trig8, f 44;
#X connect 1 0 0 0;
#X connect 2 0 3 0;
#X connect 2 0 6 0;
#X connect 3 0 5 0;
#X connect 4 0 1 0;
#X connect 4 0 2 0;
#X restore 372 454 pd preset;
#N canvas 248 344 746 335 init-savestate 1;
#X obj 147 60 savestate;
#X obj 49 125 list;
#X obj 49 43 loadbang;
#X obj 99 120 route list;
#X obj 99 94 list trim;
#X obj 49 222 else/dispatch \$0-set-bpm \$0-set-mul \$0-set-run \$0-midi1-set \$0-midi2-set \$0-midi3-set \$0-midi4-set \$0-midi5-set \$0-midi6-set \$0-midi7-set \$0-midi8-set \$0-trig1-set \$0-trig2-set \$0-trig3-set \$0-trig4-set \$0-trig5-set \$0-trig6-set \$0-trig7-set \$0-trig8-set, f 64;
#X obj 207 92 else/var \$0-bpm \$0-mul \$0-run \$0-midi1 \$0-midi2 \$0-midi3 \$0-midi4 \$0-midi5 \$0-midi6 \$0-midi7 \$0-midi8 \$0-trig1 \$0-trig2 \$0-trig3 \$0-trig4 \$0-trig5 \$0-trig6 \$0-trig7 \$0-trig8, f 44;
#X obj 49 171 else/default 60 4 60 60 60 60 60 60 60 60 60 1 1 1 1 1 1 1 1;
#X connect 0 0 4 0;
#X connect 0 1 6 0;
#X connect 1 0 7 0;
#X connect 2 0 1 0;
#X connect 3 0 1 1;
#X connect 4 0 3 0;
#X connect 6 0 0 0;
#X connect 7 0 5 0;
#X restore 314 421 pd init-savestate;
#N canvas 200 115 571 511 GUI 0;
#X obj 284 157 table \$0-seq 8;
#N canvas 204 251 922 619 knob1 0;
#X obj 118 279 else/format %s%d;
#X msg 251 221 set \$1;
#X obj 251 186 clip 0 7;
#X obj 118 86 r \$0-note1;
#X obj 251 398 s \$0-oct1-set;
#X obj 482 86 r \$0-midi1;
#X obj 118 309 else/note2midi;
#X obj 118 252 symbol;
#X obj 195 221 t b f;
#X msg 677 306 set \$1;
#X obj 677 398 s \$0-note1-set;
#X obj 364 86 r \$0-knob1;
#X obj 532 335 expr fmod($f1 \, 12);
#X msg 532 364 set \$1;
#X obj 364 338 +;
#X obj 407 235 clip 0 7;
#X obj 251 86 r \$0-oct1;
#X obj 407 279 + 1;
#X obj 407 303 * 12;
#X msg 308 221 set \$2;
#N canvas 630 111 587 522 check 0;
#X obj 398 33 inlet;
#X obj 398 69 list fromsymbol;
#X obj 398 100 list split 1;
#X obj 294 214 list tosymbol;
#X obj 438 137 list tosymbol;
#X msg 310 382 set \$1;
#X obj 294 457 outlet;
#X obj 310 406 s \$0-note1-set;
#X obj 91 317 symbol;
#X obj 130 264 r \$0-note1-set;
#X obj 184 316 symbol;
#X obj 130 288 route symbol set;
#X obj 233 154 else/spread 97 104;
#X obj 91 151 else/spread 65 72;
#X obj 91 208 b;
#X obj 294 239 expr toupper($s1);
#X obj 149 218 list tosymbol;
#X obj 294 267 expr strcat($s1 \, $s2);
#X connect 0 0 1 0;
#X connect 1 0 2 0;
#X connect 2 0 13 0;
#X connect 2 1 4 0;
#X connect 3 0 15 0;
#X connect 4 0 17 1;
#X connect 5 0 7 0;
#X connect 8 0 6 0;
#X connect 8 0 5 0;
#X connect 9 0 11 0;
#X connect 10 0 8 1;
#X connect 11 1 10 0;
#X connect 12 0 14 0;
#X connect 12 1 3 0;
#X connect 12 2 14 0;
#X connect 13 0 14 0;
#X connect 13 1 3 0;
#X connect 13 1 16 0;
#X connect 13 2 12 0;
#X connect 14 0 8 0;
#X connect 15 0 17 0;
#X connect 16 0 17 0;
#X connect 17 0 5 0;
#X connect 17 0 6 0;
#X restore 118 176 pd check;
#X obj 532 398 s \$0-knob1-set;
#X msg 407 202 \$2;
#X obj 364 398 s \$0-midi1-set;
#X obj 532 306 else/quantizer 0.5;
#X msg 411 358 set \$1;
#X obj 483 429 tabwrite \$0-seq;
#X msg 483 398 \$1 0;
#X obj 523 131 else/midi2note -list;
#X connect 0 0 6 0;
#X connect 1 0 4 0;
#X connect 2 0 1 0;
#X connect 2 0 8 0;
#X connect 3 0 20 0;
#X connect 5 0 24 0;
#X connect 5 0 27 0;
#X connect 5 0 28 0;
#X connect 6 0 23 0;
#X connect 7 0 0 0;
#X connect 8 0 7 0;
#X connect 8 1 0 1;
#X connect 9 0 10 0;
#X connect 11 0 14 0;
#X connect 12 0 13 0;
#X connect 13 0 21 0;
#X connect 14 0 23 0;
#X connect 15 0 17 0;
#X connect 15 0 0 1;
#X connect 16 0 15 0;
#X connect 16 0 2 0;
#X connect 17 0 18 0;
#X connect 18 0 14 1;
#X connect 19 0 4 0;
#X connect 20 0 7 0;
#X connect 22 0 15 0;
#X connect 24 0 12 0;
#X connect 24 0 25 0;
#X connect 25 0 23 0;
#X connect 27 0 26 0;
#X connect 28 0 9 0;
#X connect 28 0 19 0;
#X connect 28 0 22 0;
#X restore 154 142 pd knob1;
#N canvas 204 251 881 582 knob2 0;
#X obj 118 279 else/format %s%d;
#X msg 251 221 set \$1;
#X obj 251 186 clip 0 7;
#X obj 118 309 else/note2midi;
#X obj 118 252 symbol;
#X obj 195 221 t b f;
#X msg 677 306 set \$1;
#X obj 532 335 expr fmod($f1 \, 12);
#X msg 532 364 set \$1;
#X obj 364 258 +;
#X obj 407 255 clip 0 7;
#X obj 407 279 + 1;
#X obj 407 303 * 12;
#X msg 308 221 set \$2;
#N canvas 630 111 587 522 check 0;
#X obj 398 33 inlet;
#X obj 398 69 list fromsymbol;
#X obj 398 100 list split 1;
#X obj 294 214 list tosymbol;
#X obj 438 137 list tosymbol;
#X msg 310 382 set \$1;
#X obj 294 457 outlet;
#X obj 310 406 s \$0-note1-set;
#X obj 91 317 symbol;
#X obj 130 264 r \$0-note1-set;
#X obj 184 316 symbol;
#X obj 130 288 route symbol set;
#X obj 233 154 else/spread 97 104;
#X obj 91 151 else/spread 65 72;
#X obj 91 208 b;
#X obj 294 239 expr toupper($s1);
#X obj 149 218 list tosymbol;
#X obj 294 267 expr strcat($s1 \, $s2);
#X connect 0 0 1 0;
#X connect 1 0 2 0;
#X connect 2 0 13 0;
#X connect 2 1 4 0;
#X connect 3 0 15 0;
#X connect 4 0 17 1;
#X connect 5 0 7 0;
#X connect 8 0 6 0;
#X connect 8 0 5 0;
#X connect 9 0 11 0;
#X connect 10 0 8 1;
#X connect 11 1 10 0;
#X connect 12 0 14 0;
#X connect 12 1 3 0;
#X connect 12 2 14 0;
#X connect 13 0 14 0;
#X connect 13 1 3 0;
#X connect 13 1 16 0;
#X connect 13 2 12 0;
#X connect 14 0 8 0;
#X connect 15 0 17 0;
#X connect 16 0 17 0;
#X connect 17 0 5 0;
#X connect 17 0 6 0;
#X restore 118 176 pd check;
#X msg 407 222 \$2;
#X obj 532 306 else/quantizer 0.5;
#X msg 411 358 set \$1;
#X obj 483 429 tabwrite \$0-seq;
#X obj 523 131 else/midi2note -list;
#X obj 118 86 r \$0-note2;
#X obj 251 86 r \$0-oct2;
#X obj 364 86 r \$0-knob2;
#X obj 482 86 r \$0-midi2;
#X obj 251 398 s \$0-oct2-set;
#X obj 364 398 s \$0-midi2-set;
#X msg 483 398 \$1 1;
#X obj 532 398 s \$0-knob2-set;
#X obj 677 398 s \$0-note2-set;
#X connect 0 0 3 0;
#X connect 1 0 24 0;
#X connect 2 0 1 0;
#X connect 2 0 5 0;
#X connect 3 0 25 0;
#X connect 4 0 0 0;
#X connect 5 0 4 0;
#X connect 5 1 0 1;
#X connect 6 0 28 0;
#X connect 7 0 8 0;
#X connect 8 0 27 0;
#X connect 9 0 25 0;
#X connect 10 0 11 0;
#X connect 10 0 0 1;
#X connect 11 0 12 0;
#X connect 12 0 9 1;
#X connect 13 0 24 0;
#X connect 14 0 4 0;
#X connect 15 0 10 0;
#X connect 16 0 7 0;
#X connect 16 0 17 0;
#X connect 17 0 25 0;
#X connect 19 0 6 0;
#X connect 19 0 13 0;
#X connect 19 0 15 0;
#X connect 20 0 14 0;
#X connect 21 0 10 0;
#X connect 21 0 2 0;
#X connect 22 0 9 0;
#X connect 23 0 16 0;
#X connect 23 0 26 0;
#X connect 23 0 19 0;
#X connect 26 0 18 0;
#X restore 154 164 pd knob2;
#N canvas 204 251 922 619 knob4 0;
#X obj 118 279 else/format %s%d;
#X msg 251 221 set \$1;
#X obj 251 186 clip 0 7;
#X obj 118 309 else/note2midi;
#X obj 118 252 symbol;
#X obj 195 221 t b f;
#X msg 677 306 set \$1;
#X obj 532 335 expr fmod($f1 \, 12);
#X msg 532 364 set \$1;
#X obj 364 258 +;
#X obj 407 255 clip 0 7;
#X obj 407 279 + 1;
#X obj 407 303 * 12;
#X msg 308 221 set \$2;
#N canvas 630 111 587 522 check 0;
#X obj 398 33 inlet;
#X obj 398 69 list fromsymbol;
#X obj 398 100 list split 1;
#X obj 294 214 list tosymbol;
#X obj 438 137 list tosymbol;
#X msg 310 382 set \$1;
#X obj 294 457 outlet;
#X obj 310 406 s \$0-note1-set;
#X obj 91 317 symbol;
#X obj 130 264 r \$0-note1-set;
#X obj 184 316 symbol;
#X obj 130 288 route symbol set;
#X obj 233 154 else/spread 97 104;
#X obj 91 151 else/spread 65 72;
#X obj 91 208 b;
#X obj 294 239 expr toupper($s1);
#X obj 149 218 list tosymbol;
#X obj 294 267 expr strcat($s1 \, $s2);
#X connect 0 0 1 0;
#X connect 1 0 2 0;
#X connect 2 0 13 0;
#X connect 2 1 4 0;
#X connect 3 0 15 0;
#X connect 4 0 17 1;
#X connect 5 0 7 0;
#X connect 8 0 6 0;
#X connect 8 0 5 0;
#X connect 9 0 11 0;
#X connect 10 0 8 1;
#X connect 11 1 10 0;
#X connect 12 0 14 0;
#X connect 12 1 3 0;
#X connect 12 2 14 0;
#X connect 13 0 14 0;
#X connect 13 1 3 0;
#X connect 13 1 16 0;
#X connect 13 2 12 0;
#X connect 14 0 8 0;
#X connect 15 0 17 0;
#X connect 16 0 17 0;
#X connect 17 0 5 0;
#X connect 17 0 6 0;
#X restore 118 176 pd check;
#X msg 407 222 \$2;
#X obj 532 306 else/quantizer 0.5;
#X msg 411 358 set \$1;
#X obj 483 429 tabwrite \$0-seq;
#X obj 523 131 else/midi2note -list;
#X obj 118 86 r \$0-note4;
#X obj 251 86 r \$0-oct4;
#X obj 364 86 r \$0-knob4;
#X obj 482 86 r \$0-midi4;
#X obj 251 398 s \$0-oct4-set;
#X obj 364 398 s \$0-midi4-set;
#X msg 483 398 \$1 3;
#X obj 532 398 s \$0-knob4-set;
#X obj 677 398 s \$0-note4-set;
#X connect 0 0 3 0;
#X connect 1 0 24 0;
#X connect 2 0 1 0;
#X connect 2 0 5 0;
#X connect 3 0 25 0;
#X connect 4 0 0 0;
#X connect 5 0 4 0;
#X connect 5 1 0 1;
#X connect 6 0 28 0;
#X connect 7 0 8 0;
#X connect 8 0 27 0;
#X connect 9 0 25 0;
#X connect 10 0 11 0;
#X connect 10 0 0 1;
#X connect 11 0 12 0;
#X connect 12 0 9 1;
#X connect 13 0 24 0;
#X connect 14 0 4 0;
#X connect 15 0 10 0;
#X connect 16 0 7 0;
#X connect 16 0 17 0;
#X connect 17 0 25 0;
#X connect 19 0 6 0;
#X connect 19 0 13 0;
#X connect 19 0 15 0;
#X connect 20 0 14 0;
#X connect 21 0 10 0;
#X connect 21 0 2 0;
#X connect 22 0 9 0;
#X connect 23 0 16 0;
#X connect 23 0 26 0;
#X connect 23 0 19 0;
#X connect 26 0 18 0;
#X restore 154 208 pd knob4;
#N canvas 204 251 922 619 knob5 0;
#X obj 118 279 else/format %s%d;
#X msg 251 221 set \$1;
#X obj 251 186 clip 0 7;
#X obj 118 309 else/note2midi;
#X obj 118 252 symbol;
#X obj 195 221 t b f;
#X msg 677 306 set \$1;
#X obj 532 335 expr fmod($f1 \, 12);
#X msg 532 364 set \$1;
#X obj 364 258 +;
#X obj 407 255 clip 0 7;
#X obj 407 279 + 1;
#X obj 407 303 * 12;
#X msg 308 221 set \$2;
#N canvas 630 111 587 522 check 0;
#X obj 398 33 inlet;
#X obj 398 69 list fromsymbol;
#X obj 398 100 list split 1;
#X obj 294 214 list tosymbol;
#X obj 438 137 list tosymbol;
#X msg 310 382 set \$1;
#X obj 294 457 outlet;
#X obj 310 406 s \$0-note1-set;
#X obj 91 317 symbol;
#X obj 130 264 r \$0-note1-set;
#X obj 184 316 symbol;
#X obj 130 288 route symbol set;
#X obj 233 154 else/spread 97 104;
#X obj 91 151 else/spread 65 72;
#X obj 91 208 b;
#X obj 294 239 expr toupper($s1);
#X obj 149 218 list tosymbol;
#X obj 294 267 expr strcat($s1 \, $s2);
#X connect 0 0 1 0;
#X connect 1 0 2 0;
#X connect 2 0 13 0;
#X connect 2 1 4 0;
#X connect 3 0 15 0;
#X connect 4 0 17 1;
#X connect 5 0 7 0;
#X connect 8 0 6 0;
#X connect 8 0 5 0;
#X connect 9 0 11 0;
#X connect 10 0 8 1;
#X connect 11 1 10 0;
#X connect 12 0 14 0;
#X connect 12 1 3 0;
#X connect 12 2 14 0;
#X connect 13 0 14 0;
#X connect 13 1 3 0;
#X connect 13 1 16 0;
#X connect 13 2 12 0;
#X connect 14 0 8 0;
#X connect 15 0 17 0;
#X connect 16 0 17 0;
#X connect 17 0 5 0;
#X connect 17 0 6 0;
#X restore 118 176 pd check;
#X msg 407 222 \$2;
#X obj 532 306 else/quantizer 0.5;
#X msg 411 358 set \$1;
#X obj 483 429 tabwrite \$0-seq;
#X obj 523 131 else/midi2note -list;
#X obj 118 86 r \$0-note5;
#X obj 251 85 r \$0-oct5;
#X obj 364 86 r \$0-knob5;
#X obj 482 86 r \$0-midi5;
#X obj 251 398 s \$0-oct5-set;
#X obj 364 398 s \$0-midi5-set;
#X msg 483 398 \$1 4;
#X obj 532 398 s \$0-knob5-set;
#X obj 677 398 s \$0-note5-set;
#X connect 0 0 3 0;
#X connect 1 0 24 0;
#X connect 2 0 1 0;
#X connect 2 0 5 0;
#X connect 3 0 25 0;
#X connect 4 0 0 0;
#X connect 5 0 4 0;
#X connect 5 1 0 1;
#X connect 6 0 28 0;
#X connect 7 0 8 0;
#X connect 8 0 27 0;
#X connect 9 0 25 0;
#X connect 10 0 11 0;
#X connect 10 0 0 1;
#X connect 11 0 12 0;
#X connect 12 0 9 1;
#X connect 13 0 24 0;
#X connect 14 0 4 0;
#X connect 15 0 10 0;
#X connect 16 0 7 0;
#X connect 16 0 17 0;
#X connect 17 0 25 0;
#X connect 19 0 6 0;
#X connect 19 0 13 0;
#X connect 19 0 15 0;
#X connect 20 0 14 0;
#X connect 21 0 10 0;
#X connect 21 0 2 0;
#X connect 22 0 9 0;
#X connect 23 0 16 0;
#X connect 23 0 26 0;
#X connect 23 0 19 0;
#X connect 26 0 18 0;
#X restore 154 229 pd knob5;
#N canvas 204 251 922 619 knob6 0;
#X obj 118 279 else/format %s%d;
#X msg 251 221 set \$1;
#X obj 251 186 clip 0 7;
#X obj 118 309 else/note2midi;
#X obj 118 252 symbol;
#X obj 195 221 t b f;
#X msg 677 306 set \$1;
#X obj 532 335 expr fmod($f1 \, 12);
#X msg 532 364 set \$1;
#X obj 364 258 +;
#X obj 407 255 clip 0 7;
#X obj 407 279 + 1;
#X obj 407 303 * 12;
#X msg 308 221 set \$2;
#N canvas 630 111 587 522 check 0;
#X obj 398 33 inlet;
#X obj 398 69 list fromsymbol;
#X obj 398 100 list split 1;
#X obj 294 214 list tosymbol;
#X obj 438 137 list tosymbol;
#X msg 310 382 set \$1;
#X obj 294 457 outlet;
#X obj 310 406 s \$0-note1-set;
#X obj 91 317 symbol;
#X obj 130 264 r \$0-note1-set;
#X obj 184 316 symbol;
#X obj 130 288 route symbol set;
#X obj 233 154 else/spread 97 104;
#X obj 91 151 else/spread 65 72;
#X obj 91 208 b;
#X obj 294 239 expr toupper($s1);
#X obj 149 218 list tosymbol;
#X obj 294 267 expr strcat($s1 \, $s2);
#X connect 0 0 1 0;
#X connect 1 0 2 0;
#X connect 2 0 13 0;
#X connect 2 1 4 0;
#X connect 3 0 15 0;
#X connect 4 0 17 1;
#X connect 5 0 7 0;
#X connect 8 0 6 0;
#X connect 8 0 5 0;
#X connect 9 0 11 0;
#X connect 10 0 8 1;
#X connect 11 1 10 0;
#X connect 12 0 14 0;
#X connect 12 1 3 0;
#X connect 12 2 14 0;
#X connect 13 0 14 0;
#X connect 13 1 3 0;
#X connect 13 1 16 0;
#X connect 13 2 12 0;
#X connect 14 0 8 0;
#X connect 15 0 17 0;
#X connect 16 0 17 0;
#X connect 17 0 5 0;
#X connect 17 0 6 0;
#X restore 118 176 pd check;
#X msg 407 222 \$2;
#X obj 532 306 else/quantizer 0.5;
#X msg 411 358 set \$1;
#X obj 483 429 tabwrite \$0-seq;
#X obj 523 131 else/midi2note -list;
#X obj 118 86 r \$0-note6;
#X obj 251 86 r \$0-oct6;
#X obj 364 86 r \$0-knob6;
#X obj 482 86 r \$0-midi6;
#X obj 251 398 s \$0-oct6-set;
#X obj 364 398 s \$0-midi6-set;
#X msg 483 398 \$1 5;
#X obj 532 398 s \$0-knob6-set;
#X obj 677 398 s \$0-note6-set;
#X connect 0 0 3 0;
#X connect 1 0 24 0;
#X connect 2 0 1 0;
#X connect 2 0 5 0;
#X connect 3 0 25 0;
#X connect 4 0 0 0;
#X connect 5 0 4 0;
#X connect 5 1 0 1;
#X connect 6 0 28 0;
#X connect 7 0 8 0;
#X connect 8 0 27 0;
#X connect 9 0 25 0;
#X connect 10 0 11 0;
#X connect 10 0 0 1;
#X connect 11 0 12 0;
#X connect 12 0 9 1;
#X connect 13 0 24 0;
#X connect 14 0 4 0;
#X connect 15 0 10 0;
#X connect 16 0 7 0;
#X connect 16 0 17 0;
#X connect 17 0 25 0;
#X connect 19 0 6 0;
#X connect 19 0 13 0;
#X connect 19 0 15 0;
#X connect 20 0 14 0;
#X connect 21 0 10 0;
#X connect 21 0 2 0;
#X connect 22 0 9 0;
#X connect 23 0 16 0;
#X connect 23 0 26 0;
#X connect 23 0 19 0;
#X connect 26 0 18 0;
#X restore 154 252 pd knob6;
#N canvas 204 251 922 619 knob7 0;
#X obj 118 279 else/format %s%d;
#X msg 251 221 set \$1;
#X obj 251 186 clip 0 7;
#X obj 118 309 else/note2midi;
#X obj 118 252 symbol;
#X obj 195 221 t b f;
#X msg 677 306 set \$1;
#X obj 532 335 expr fmod($f1 \, 12);
#X msg 532 364 set \$1;
#X obj 364 258 +;
#X obj 407 255 clip 0 7;
#X obj 407 279 + 1;
#X obj 407 303 * 12;
#X msg 308 221 set \$2;
#N canvas 630 111 587 522 check 0;
#X obj 398 33 inlet;
#X obj 398 69 list fromsymbol;
#X obj 398 100 list split 1;
#X obj 294 214 list tosymbol;
#X obj 438 137 list tosymbol;
#X msg 310 382 set \$1;
#X obj 294 457 outlet;
#X obj 310 406 s \$0-note1-set;
#X obj 91 317 symbol;
#X obj 130 264 r \$0-note1-set;
#X obj 184 316 symbol;
#X obj 130 288 route symbol set;
#X obj 233 154 else/spread 97 104;
#X obj 91 151 else/spread 65 72;
#X obj 91 208 b;
#X obj 294 239 expr toupper($s1);
#X obj 149 218 list tosymbol;
#X obj 294 267 expr strcat($s1 \, $s2);
#X connect 0 0 1 0;
#X connect 1 0 2 0;
#X connect 2 0 13 0;
#X connect 2 1 4 0;
#X connect 3 0 15 0;
#X connect 4 0 17 1;
#X connect 5 0 7 0;
#X connect 8 0 6 0;
#X connect 8 0 5 0;
#X connect 9 0 11 0;
#X connect 10 0 8 1;
#X connect 11 1 10 0;
#X connect 12 0 14 0;
#X connect 12 1 3 0;
#X connect 12 2 14 0;
#X connect 13 0 14 0;
#X connect 13 1 3 0;
#X connect 13 1 16 0;
#X connect 13 2 12 0;
#X connect 14 0 8 0;
#X connect 15 0 17 0;
#X connect 16 0 17 0;
#X connect 17 0 5 0;
#X connect 17 0 6 0;
#X restore 118 176 pd check;
#X msg 407 222 \$2;
#X obj 532 306 else/quantizer 0.5;
#X msg 411 358 set \$1;
#X obj 483 429 tabwrite \$0-seq;
#X obj 523 131 else/midi2note -list;
#X obj 118 86 r \$0-note7;
#X obj 251 86 r \$0-oct7;
#X obj 364 86 r \$0-knob7;
#X obj 482 86 r \$0-midi7;
#X obj 251 398 s \$0-oct7-set;
#X obj 364 398 s \$0-midi7-set;
#X msg 483 398 \$1 6;
#X obj 532 398 s \$0-knob7-set;
#X obj 677 398 s \$0-note7-set;
#X connect 0 0 3 0;
#X connect 1 0 24 0;
#X connect 2 0 1 0;
#X connect 2 0 5 0;
#X connect 3 0 25 0;
#X connect 4 0 0 0;
#X connect 5 0 4 0;
#X connect 5 1 0 1;
#X connect 6 0 28 0;
#X connect 7 0 8 0;
#X connect 8 0 27 0;
#X connect 9 0 25 0;
#X connect 10 0 11 0;
#X connect 10 0 0 1;
#X connect 11 0 12 0;
#X connect 12 0 9 1;
#X connect 13 0 24 0;
#X connect 14 0 4 0;
#X connect 15 0 10 0;
#X connect 16 0 7 0;
#X connect 16 0 17 0;
#X connect 17 0 25 0;
#X connect 19 0 6 0;
#X connect 19 0 13 0;
#X connect 19 0 15 0;
#X connect 20 0 14 0;
#X connect 21 0 10 0;
#X connect 21 0 2 0;
#X connect 22 0 9 0;
#X connect 23 0 16 0;
#X connect 23 0 26 0;
#X connect 23 0 19 0;
#X connect 26 0 18 0;
#X restore 154 274 pd knob7;
#N canvas 299 216 922 619 knob8 0;
#X obj 118 279 else/format %s%d;
#X msg 251 221 set \$1;
#X obj 251 186 clip 0 7;
#X obj 118 309 else/note2midi;
#X obj 118 252 symbol;
#X obj 195 221 t b f;
#X msg 677 306 set \$1;
#X obj 532 335 expr fmod($f1 \, 12);
#X msg 532 364 set \$1;
#X obj 364 258 +;
#X obj 407 255 clip 0 7;
#X obj 407 279 + 1;
#X obj 407 303 * 12;
#X msg 308 221 set \$2;
#N canvas 630 111 587 522 check 0;
#X obj 398 33 inlet;
#X obj 398 69 list fromsymbol;
#X obj 398 100 list split 1;
#X obj 294 214 list tosymbol;
#X obj 438 137 list tosymbol;
#X msg 310 382 set \$1;
#X obj 294 457 outlet;
#X obj 310 406 s \$0-note1-set;
#X obj 91 317 symbol;
#X obj 130 264 r \$0-note1-set;
#X obj 184 316 symbol;
#X obj 130 288 route symbol set;
#X obj 233 154 else/spread 97 104;
#X obj 91 151 else/spread 65 72;
#X obj 91 208 b;
#X obj 294 239 expr toupper($s1);
#X obj 149 218 list tosymbol;
#X obj 294 267 expr strcat($s1 \, $s2);
#X connect 0 0 1 0;
#X connect 1 0 2 0;
#X connect 2 0 13 0;
#X connect 2 1 4 0;
#X connect 3 0 15 0;
#X connect 4 0 17 1;
#X connect 5 0 7 0;
#X connect 8 0 6 0;
#X connect 8 0 5 0;
#X connect 9 0 11 0;
#X connect 10 0 8 1;
#X connect 11 1 10 0;
#X connect 12 0 14 0;
#X connect 12 1 3 0;
#X connect 12 2 14 0;
#X connect 13 0 14 0;
#X connect 13 1 3 0;
#X connect 13 1 16 0;
#X connect 13 2 12 0;
#X connect 14 0 8 0;
#X connect 15 0 17 0;
#X connect 16 0 17 0;
#X connect 17 0 5 0;
#X connect 17 0 6 0;
#X restore 118 176 pd check;
#X msg 407 222 \$2;
#X obj 532 306 else/quantizer 0.5;
#X msg 411 358 set \$1;
#X obj 483 429 tabwrite \$0-seq;
#X obj 523 131 else/midi2note -list;
#X obj 118 86 r \$0-note8;
#X obj 251 86 r \$0-oct8;
#X obj 364 86 r \$0-knob8;
#X obj 482 86 r \$0-midi8;
#X obj 251 398 s \$0-oct8-set;
#X obj 364 398 s \$0-midi8-set;
#X msg 483 398 \$1 7;
#X obj 532 398 s \$0-knob8-set;
#X obj 677 398 s \$0-note8-set;
#X connect 0 0 3 0;
#X connect 1 0 24 0;
#X connect 2 0 1 0;
#X connect 2 0 5 0;
#X connect 3 0 25 0;
#X connect 4 0 0 0;
#X connect 5 0 4 0;
#X connect 5 1 0 1;
#X connect 6 0 28 0;
#X connect 7 0 8 0;
#X connect 8 0 27 0;
#X connect 9 0 25 0;
#X connect 10 0 11 0;
#X connect 10 0 0 1;
#X connect 11 0 12 0;
#X connect 12 0 9 1;
#X connect 13 0 24 0;
#X connect 14 0 4 0;
#X connect 15 0 10 0;
#X connect 16 0 7 0;
#X connect 16 0 17 0;
#X connect 17 0 25 0;
#X connect 19 0 6 0;
#X connect 19 0 13 0;
#X connect 19 0 15 0;
#X connect 20 0 14 0;
#X connect 21 0 10 0;
#X connect 21 0 2 0;
#X connect 22 0 9 0;
#X connect 23 0 16 0;
#X connect 23 0 26 0;
#X connect 23 0 19 0;
#X connect 26 0 18 0;
#X restore 154 296 pd knob8;
#N canvas 204 251 922 619 knob3 0;
#X obj 118 279 else/format %s%d;
#X msg 251 221 set \$1;
#X obj 251 186 clip 0 7;
#X obj 118 309 else/note2midi;
#X obj 118 252 symbol;
#X obj 195 221 t b f;
#X msg 677 306 set \$1;
#X obj 532 335 expr fmod($f1 \, 12);
#X msg 532 364 set \$1;
#X obj 364 258 +;
#X obj 407 255 clip 0 7;
#X obj 407 279 + 1;
#X obj 407 303 * 12;
#X msg 308 221 set \$2;
#N canvas 630 111 587 522 check 0;
#X obj 398 33 inlet;
#X obj 398 69 list fromsymbol;
#X obj 398 100 list split 1;
#X obj 294 214 list tosymbol;
#X obj 438 137 list tosymbol;
#X msg 310 382 set \$1;
#X obj 294 457 outlet;
#X obj 310 406 s \$0-note1-set;
#X obj 91 317 symbol;
#X obj 130 264 r \$0-note1-set;
#X obj 184 316 symbol;
#X obj 130 288 route symbol set;
#X obj 233 154 else/spread 97 104;
#X obj 91 151 else/spread 65 72;
#X obj 91 208 b;
#X obj 294 239 expr toupper($s1);
#X obj 149 218 list tosymbol;
#X obj 294 267 expr strcat($s1 \, $s2);
#X connect 0 0 1 0;
#X connect 1 0 2 0;
#X connect 2 0 13 0;
#X connect 2 1 4 0;
#X connect 3 0 15 0;
#X connect 4 0 17 1;
#X connect 5 0 7 0;
#X connect 8 0 6 0;
#X connect 8 0 5 0;
#X connect 9 0 11 0;
#X connect 10 0 8 1;
#X connect 11 1 10 0;
#X connect 12 0 14 0;
#X connect 12 1 3 0;
#X connect 12 2 14 0;
#X connect 13 0 14 0;
#X connect 13 1 3 0;
#X connect 13 1 16 0;
#X connect 13 2 12 0;
#X connect 14 0 8 0;
#X connect 15 0 17 0;
#X connect 16 0 17 0;
#X connect 17 0 5 0;
#X connect 17 0 6 0;
#X restore 118 176 pd check;
#X msg 407 222 \$2;
#X obj 532 306 else/quantizer 0.5;
#X msg 411 358 set \$1;
#X obj 483 429 tabwrite \$0-seq;
#X obj 523 131 else/midi2note -list;
#X obj 118 86 r \$0-note3;
#X obj 251 86 r \$0-oct3;
#X obj 364 85 r \$0-knob3;
#X obj 482 85 r \$0-midi3;
#X obj 251 398 s \$0-oct3-set;
#X obj 364 398 s \$0-midi3-set;
#X msg 483 398 \$1 2;
#X obj 532 398 s \$0-knob3-set;
#X obj 677 398 s \$0-note3-set;
#X connect 0 0 3 0;
#X connect 1 0 24 0;
#X connect 2 0 1 0;
#X connect 2 0 5 0;
#X connect 3 0 25 0;
#X connect 4 0 0 0;
#X connect 5 0 4 0;
#X connect 5 1 0 1;
#X connect 6 0 28 0;
#X connect 7 0 8 0;
#X connect 8 0 27 0;
#X connect 9 0 25 0;
#X connect 10 0 11 0;
#X connect 10 0 0 1;
#X connect 11 0 12 0;
#X connect 12 0 9 1;
#X connect 13 0 24 0;
#X connect 14 0 4 0;
#X connect 15 0 10 0;
#X connect 16 0 7 0;
#X connect 16 0 17 0;
#X connect 17 0 25 0;
#X connect 19 0 6 0;
#X connect 19 0 13 0;
#X connect 19 0 15 0;
#X connect 20 0 14 0;
#X connect 21 0 10 0;
#X connect 21 0 2 0;
#X connect 22 0 9 0;
#X connect 23 0 16 0;
#X connect 23 0 26 0;
#X connect 23 0 19 0;
#X connect 26 0 18 0;
#X restore 154 186 pd knob3;
#X restore 312 454 pd GUI;
#N canvas 304 89 758 431 (subpatch) 0;
#X obj 112 112 cnv 15 435 260 empty empty empty 20 12 0 14 #dbdbdb #373737 0;
#X obj 238 126 else/note 185 18 Inter empty 5 54 54 54 0 187 187 187 1 1 8-Step Sequencer;
#X floatatom 360 323 5 0 0 0 - \$0-set-bpm \$0-bpm 16;
#X text 330 326 BPM;
#X obj 210 323 tgl 25 0 \$0-run \$0-set-run empty 0 -10 0 12 #202020 #ffffff #ffffff 0 1;
#X text 179 328 RUN;
#X obj 288 323 bng 25 250 50 0 \$0-reset \$0-set-reset empty 0 -10 0 12 #000000 #ffffff #000000;
#X text 244 326 Reset;
#X floatatom 456 323 3 1 8 0 - \$0-set-mul \$0-mul 16;
#X text 428 326 MUL;
#X obj 139 287 bng 19 100 100 0 \$0-b1 \$0-set-b1 empty 0 -10 0 12 #202020 #ff0400 #000000;
#X obj 190 287 bng 19 100 100 0 \$0-b2 \$0-set-b2 empty 0 -10 0 12 #202020 #ff0400 #000000;
#X obj 243 287 bng 19 100 100 0 \$0-b3 \$0-set-b3 empty 0 -10 0 12 #202020 #ff0400 #000000;
#X obj 294 287 bng 19 100 100 0 \$0-b4 \$0-set-b4 empty 0 -10 0 12 #202020 #ff0400 #000000;
#X obj 347 287 bng 19 100 100 0 \$0-b5 \$0-set-b5 empty 0 -10 0 12 #202020 #ff0400 #000000;
#X obj 398 287 bng 19 100 100 0 \$0-b6 \$0-set-b6 empty 0 -10 0 12 #202020 #ff0400 #000000;
#X obj 450 287 bng 19 100 100 0 \$0-b7 \$0-set-b7 empty 0 -10 0 12 #202020 #ff0400 #000000;
#X obj 502 287 bng 19 100 100 0 \$0-b8 \$0-set-b8 empty 0 -10 0 12 #202020 #ff0400 #000000;
#X floatatom 127 237 6 12 108 0 - \$0-midi1-set \$0-midi1 0;
#X floatatom 179 237 6 12 108 0 - \$0-midi2-set \$0-midi2 0;
#X floatatom 231 237 6 12 108 0 - \$0-midi3-set \$0-midi3 0;
#X floatatom 283 237 6 12 108 0 - \$0-midi4-set \$0-midi4 0;
#X floatatom 335 237 6 12 108 0 - \$0-midi5-set \$0-midi5 0;
#X floatatom 387 237 6 12 108 0 - \$0-midi6-set \$0-midi6 0;
#X floatatom 439 237 6 12 108 0 - \$0-midi7-set \$0-midi7 0;
#X floatatom 491 237 6 12 108 0 - \$0-midi8-set \$0-midi8 0;
#X obj 137 261 tgl 22 0 \$0-trig1 \$0-trig1-set empty 0 -10 0 12 #202020 #ffffff #000000 0 1;
#X obj 189 261 tgl 22 0 \$0-trig2 \$0-trig2-set empty 0 -10 0 12 #202020 #ffffff #000000 0 1;
#X obj 241 261 tgl 22 0 \$0-trig3 \$0-trig3-set empty 0 -10 0 12 #202020 #ffffff #000000 0 1;
#X obj 292 261 tgl 22 0 \$0-trig4 \$0-trig4-set empty 0 -10 0 12 #202020 #ffffff #000000 0 1;
#X obj 345 261 tgl 22 0 \$0-trig5 \$0-trig5-set empty 0 -10 0 12 #202020 #ffffff #000000 0 1;
#X obj 397 261 tgl 22 0 \$0-trig6 \$0-trig6-set empty 0 -10 0 12 #202020 #ffffff #000000 0 1;
#X obj 449 261 tgl 22 0 \$0-trig7 \$0-trig7-set empty 0 -10 0 12 #202020 #ffffff #000000 0 1;
#X obj 501 261 tgl 22 0 \$0-trig8 \$0-trig8-set empty 0 -10 0 12 #202020 #ffffff #000000 0 1;
#X obj 123 183 else/knob 50 0 11.5 0 0 \$0-knob1 \$0-knob1-set #000000 #7c7c7c #ffffff 1 0 24 1 1 320 0 0 0 empty empty 0 8 0 0 0 0 0 0;
#X obj 175 183 else/knob 50 0 11.5 0 0 \$0-knob2 \$0-knob2-set #000000 #7c7c7c #ffffff 1 0 24 1 1 320 0 0 0 empty empty 0 8 0 0 0 0 0 0;
#X obj 227 183 else/knob 50 0 11.5 0 0 \$0-knob3 \$0-knob3-set #000000 #7c7c7c #ffffff 1 0 24 1 1 320 0 0 0 empty empty 0 8 0 0 0 0 0 0;
#X obj 279 183 else/knob 50 0 11.5 0 0 \$0-knob4 \$0-knob4-set #000000 #7c7c7c #ffffff 1 0 24 1 1 320 0 0 0 empty empty 0 8 0 0 0 0 0 0;
#X obj 331 183 else/knob 50 0 11.5 0 0 \$0-knob5 \$0-knob5-set #000000 #7c7c7c #ffffff 1 0 24 1 1 320 0 0 0 empty empty 0 8 0 0 0 0 0 0;
#X obj 383 183 else/knob 50 0 11.5 0 0 \$0-knob6 \$0-knob6-set #000000 #7c7c7c #ffffff 1 0 24 1 1 320 0 0 0 empty empty 0 8 0 0 0 0 0 0;
#X obj 435 183 else/knob 50 0 11.5 0 0 \$0-knob7 \$0-knob7-set #000000 #7c7c7c #ffffff 1 0 24 1 1 320 0 0 0 empty empty 0 8 0 0 0 0 0 0;
#X obj 487 183 else/knob 50 0 11.5 0 0 \$0-knob8 \$0-knob8-set #000000 #7c7c7c #ffffff 1 0 24 1 1 320 0 0 0 empty empty 0 8 0 0 0 0 0 0;
#X floatatom 156 162 2 0 7 0 - \$0-oct1-set \$0-oct1 0;
#X symbolatom 124 162 4 0 0 0 - \$0-note1-set \$0-note1 0;
#X floatatom 208 162 2 0 7 0 - \$0-oct2-set \$0-oct2 0;
#X symbolatom 176 162 4 0 0 0 - \$0-note2-set \$0-note2 0;
#X floatatom 260 162 2 0 7 0 - \$0-oct3-set \$0-oct3 0;
#X symbolatom 228 162 4 0 0 0 - \$0-note3-set \$0-note3 0;
#X floatatom 312 162 2 0 7 0 - \$0-oct4-set \$0-oct4 0;
#X symbolatom 280 162 4 0 0 0 - \$0-note4-set \$0-note4 0;
#X floatatom 364 162 2 0 7 0 - \$0-oct5-set \$0-oct5 0;
#X symbolatom 332 162 4 0 0 0 - \$0-note5-set \$0-note5 0;
#X floatatom 416 162 2 0 7 0 - \$0-oct6-set \$0-oct6 0;
#X symbolatom 384 162 4 0 0 0 - \$0-note6-set \$0-note6 0;
#X floatatom 468 162 2 0 7 0 - \$0-oct7-set \$0-oct7 0;
#X symbolatom 436 162 4 0 0 0 - \$0-note7-set \$0-note7 0;
#X floatatom 520 162 2 0 7 0 - \$0-oct8-set \$0-oct8 0;
#X symbolatom 488 162 4 0 0 0 - \$0-note8-set \$0-note8 0;
#X coords 0 1 100 -1 437 262 1 111 111;
#X restore 208 86 graph;
#N canvas 402 50 780 704 seq 0;
#X msg 268 440 goto 1;
#X obj 192 83 r \$0-bpm;
#X obj 175 57 r \$0-run;
#X obj 268 139 r \$0-reset;
#X obj 159 623 outlet;
#X msg 159 28 mul \$1;
#X obj 159 -2 r \$0-mul;
#X obj 445 458 s \$0-set-b1;
#X obj 465 434 s \$0-set-b2;
#X obj 495 411 s \$0-set-b3;
#X obj 515 385 s \$0-set-b4;
#X obj 541 361 s \$0-set-b5;
#X obj 561 337 s \$0-set-b6;
#X obj 566 304 s \$0-set-b7;
#X obj 586 278 s \$0-set-b8;
#X obj 159 114 else/tempo;
#X obj 221 549 v;
#X obj 221 623 outlet;
#X obj 71 90 r \$0-clock;
#X obj 293 386 tabread \$0-seq 8;
#X obj 293 197 else/count 0 7;
#X msg 293 170 reset;
#X obj 159 506 f;
#X obj 268 497 else/list.seq -loop \$0-trig1 \$0-trig2 \$0-trig3 \$0-trig4 \$0-trig5 \$0-trig6 \$0-trig7 \$0-trig8, f 47;
#X obj 350 231 select 0 1 2 3 4 5 6 7, f 39;
#X obj 159 145 t b b b;
#X obj 160 587 spigot;
#X connect 0 0 23 0;
#X connect 1 0 15 1;
#X connect 2 0 15 0;
#X connect 3 0 0 0;
#X connect 3 0 21 0;
#X connect 5 0 15 0;
#X connect 6 0 5 0;
#X connect 15 0 25 0;
#X connect 16 0 17 0;
#X connect 16 0 26 1;
#X connect 18 0 25 0;
#X connect 19 0 22 1;
#X connect 20 0 19 0;
#X connect 20 0 24 0;
#X connect 21 0 20 0;
#X connect 22 0 26 0;
#X connect 23 0 16 1;
#X connect 24 0 7 0;
#X connect 24 1 8 0;
#X connect 24 2 9 0;
#X connect 24 3 10 0;
#X connect 24 4 11 0;
#X connect 24 5 12 0;
#X connect 24 6 13 0;
#X connect 24 7 14 0;
#X connect 25 0 22 0;
#X connect 25 1 20 0;
#X connect 25 1 16 0;
#X connect 25 2 23 0;
#X connect 26 0 4 0;
#X restore 23 115 pd seq;
#X obj 23 22 inlet;
#N canvas 203 105 568 377 route 0;
#X obj 60 61 inlet;
#X obj 129 299 s \$0-set-reset;
#X obj 115 327 s \$0-set-run;
#X obj 154 273 s \$0-set-bpm;
#X obj 171 244 s \$0-set-mul;
#X obj 207 178 else/dispatch \$0-set-step1 \$0-set-step2 \$0-set-step3 \$0-set-step4 \$0-set-step5 \$0-set-step6 \$0-set-step7 \$0-set-step8, f 39;
#X obj 60 95 route run reset bpm mul set bang;
#X obj 246 127 s \$0-clock;
#X connect 0 0 6 0;
#X connect 6 0 2 0;
#X connect 6 1 1 0;
#X connect 6 2 3 0;
#X connect 6 3 4 0;
#X connect 6 4 5 0;
#X connect 6 5 7 0;
#X restore 23 69 pd route;
#N canvas 637 317 236 253 MIDI-learn 0;
#N canvas 776 312 577 472 step1-knob 0;
#X msg 114 218 forget;
#X obj 240 221 savestate;
#X obj 300 268 list;
#X obj 240 326 else/insert teach;
#X obj 96 270 else/midi.learn 1;
#A saved;
#X obj 113 91 print [seq8.m~]:;
#X obj 127 189 print [seq8.m~]:;
#X obj 94 34 r \$0-step1-learn;
#X msg 113 64 MIDI-learn for step1 knob activated;
#X msg 127 164 MIDI-forget for step1 knob;
#X obj 325 243 list prepend step1-learn;
#X obj 240 297 else/route2 step1-learn;
#X obj 96 366 else/rescale -2 2;
#X obj 114 130 r \$0-step1-forget;
#X obj 96 405 s \$0-set-step1;
#X connect 0 0 4 0;
#X connect 1 0 11 0;
#X connect 1 1 2 0;
#X connect 2 0 1 0;
#X connect 3 0 4 0;
#X connect 4 0 12 0;
#X connect 4 1 10 0;
#X connect 7 0 8 0;
#X connect 7 0 4 0;
#X connect 8 0 5 0;
#X connect 9 0 6 0;
#X connect 10 0 2 1;
#X connect 11 0 3 0;
#X connect 12 0 14 0;
#X connect 13 0 0 0;
#X connect 13 0 9 0;
#X restore 54 26 pd step1-knob;
#N canvas 776 312 577 472 step2-knob 0;
#X msg 114 218 forget;
#X obj 240 221 savestate;
#X obj 300 268 list;
#X obj 240 326 else/insert teach;
#X obj 96 270 else/midi.learn 1;
#A saved;
#X obj 113 91 print [seq8.m~]:;
#X obj 127 189 print [seq8.m~]:;
#X obj 96 366 else/rescale -2 2;
#X obj 94 34 r \$0-step2-learn;
#X msg 113 64 MIDI-learn for step2 knob activated;
#X obj 114 130 r \$0-step2-forget;
#X msg 127 164 MIDI-forget for step2 knob;
#X obj 325 243 list prepend step2-learn;
#X obj 240 297 else/route2 step2-learn;
#X obj 96 405 s \$0-set-step2;
#X connect 0 0 4 0;
#X connect 1 0 13 0;
#X connect 1 1 2 0;
#X connect 2 0 1 0;
#X connect 3 0 4 0;
#X connect 4 0 7 0;
#X connect 4 1 12 0;
#X connect 7 0 14 0;
#X connect 8 0 9 0;
#X connect 8 0 4 0;
#X connect 9 0 5 0;
#X connect 10 0 0 0;
#X connect 10 0 11 0;
#X connect 11 0 6 0;
#X connect 12 0 2 1;
#X connect 13 0 3 0;
#X restore 54 50 pd step2-knob;
#N canvas 776 312 577 472 step3-knob 0;
#X msg 114 218 forget;
#X obj 240 221 savestate;
#X obj 300 268 list;
#X obj 240 326 else/insert teach;
#X obj 96 270 else/midi.learn 1;
#A saved;
#X obj 113 91 print [seq8.m~]:;
#X obj 127 189 print [seq8.m~]:;
#X obj 96 366 else/rescale -2 2;
#X obj 94 34 r \$0-step3-learn;
#X msg 113 64 MIDI-learn for step3 knob activated;
#X obj 114 130 r \$0-step3-forget;
#X msg 127 164 MIDI-forget for step3 knob;
#X obj 325 243 list prepend step3-learn;
#X obj 240 297 else/route2 step3-learn;
#X obj 96 405 s \$0-set-step3;
#X connect 0 0 4 0;
#X connect 1 0 13 0;
#X connect 1 1 2 0;
#X connect 2 0 1 0;
#X connect 3 0 4 0;
#X connect 4 0 7 0;
#X connect 4 1 12 0;
#X connect 7 0 14 0;
#X connect 8 0 9 0;
#X connect 8 0 4 0;
#X connect 9 0 5 0;
#X connect 10 0 0 0;
#X connect 10 0 11 0;
#X connect 11 0 6 0;
#X connect 12 0 2 1;
#X connect 13 0 3 0;
#X restore 54 75 pd step3-knob;
#N canvas 776 312 577 472 step4-knob 0;
#X msg 114 218 forget;
#X obj 240 221 savestate;
#X obj 300 268 list;
#X obj 240 326 else/insert teach;
#X obj 96 270 else/midi.learn 1;
#A saved;
#X obj 113 91 print [seq8.m~]:;
#X obj 127 189 print [seq8.m~]:;
#X obj 96 366 else/rescale -2 2;
#X obj 94 34 r \$0-step4-learn;
#X msg 113 64 MIDI-learn for step4 knob activated;
#X obj 114 130 r \$0-step4-forget;
#X msg 127 164 MIDI-forget for step4 knob;
#X obj 325 243 list prepend step4-learn;
#X obj 240 297 else/route2 step4-learn;
#X obj 96 405 s \$0-set-step4;
#X connect 0 0 4 0;
#X connect 1 0 13 0;
#X connect 1 1 2 0;
#X connect 2 0 1 0;
#X connect 3 0 4 0;
#X connect 4 0 7 0;
#X connect 4 1 12 0;
#X connect 7 0 14 0;
#X connect 8 0 9 0;
#X connect 8 0 4 0;
#X connect 9 0 5 0;
#X connect 10 0 0 0;
#X connect 10 0 11 0;
#X connect 11 0 6 0;
#X connect 12 0 2 1;
#X connect 13 0 3 0;
#X restore 54 99 pd step4-knob;
#N canvas 776 312 577 472 step5-knob 0;
#X msg 114 218 forget;
#X obj 240 221 savestate;
#X obj 300 268 list;
#X obj 240 326 else/insert teach;
#X obj 96 270 else/midi.learn 1;
#A saved;
#X obj 113 91 print [seq8.m~]:;
#X obj 127 189 print [seq8.m~]:;
#X obj 96 366 else/rescale -2 2;
#X obj 94 34 r \$0-step5-learn;
#X msg 113 64 MIDI-learn for step5 knob activated;
#X obj 114 130 r \$0-step5-forget;
#X msg 127 164 MIDI-forget for step5 knob;
#X obj 325 243 list prepend step5-learn;
#X obj 240 297 else/route2 step5-learn;
#X obj 96 405 s \$0-set-step5;
#X connect 0 0 4 0;
#X connect 1 0 13 0;
#X connect 1 1 2 0;
#X connect 2 0 1 0;
#X connect 3 0 4 0;
#X connect 4 0 7 0;
#X connect 4 1 12 0;
#X connect 7 0 14 0;
#X connect 8 0 9 0;
#X connect 8 0 4 0;
#X connect 9 0 5 0;
#X connect 10 0 0 0;
#X connect 10 0 11 0;
#X connect 11 0 6 0;
#X connect 12 0 2 1;
#X connect 13 0 3 0;
#X restore 54 126 pd step5-knob;
#N canvas 776 312 577 472 step6-knob 0;
#X msg 114 218 forget;
#X obj 240 221 savestate;
#X obj 300 268 list;
#X obj 240 326 else/insert teach;
#X obj 96 270 else/midi.learn 1;
#A saved;
#X obj 113 91 print [seq8.m~]:;
#X obj 127 189 print [seq8.m~]:;
#X obj 96 366 else/rescale -2 2;
#X obj 94 34 r \$0-step6-learn;
#X msg 113 64 MIDI-learn for step6 knob activated;
#X obj 114 130 r \$0-step6-forget;
#X msg 127 164 MIDI-forget for step6 knob;
#X obj 325 243 list prepend step6-learn;
#X obj 240 297 else/route2 step6-learn;
#X obj 96 405 s \$0-set-step6;
#X connect 0 0 4 0;
#X connect 1 0 13 0;
#X connect 1 1 2 0;
#X connect 2 0 1 0;
#X connect 3 0 4 0;
#X connect 4 0 7 0;
#X connect 4 1 12 0;
#X connect 7 0 14 0;
#X connect 8 0 9 0;
#X connect 8 0 4 0;
#X connect 9 0 5 0;
#X connect 10 0 0 0;
#X connect 10 0 11 0;
#X connect 11 0 6 0;
#X connect 12 0 2 1;
#X connect 13 0 3 0;
#X restore 54 150 pd step6-knob;
#N canvas 776 312 577 472 step7-knob 0;
#X msg 114 218 forget;
#X obj 240 221 savestate;
#X obj 300 268 list;
#X obj 240 326 else/insert teach;
#X obj 96 270 else/midi.learn 1;
#A saved;
#X obj 113 91 print [seq8.m~]:;
#X obj 127 189 print [seq8.m~]:;
#X obj 96 366 else/rescale -2 2;
#X obj 94 34 r \$0-step7-learn;
#X msg 113 64 MIDI-learn for step7 knob activated;
#X obj 114 130 r \$0-step7-forget;
#X msg 127 164 MIDI-forget for step7 knob;
#X obj 325 243 list prepend step7-learn;
#X obj 240 297 else/route2 step7-learn;
#X obj 96 405 s \$0-set-step7;
#X connect 0 0 4 0;
#X connect 1 0 13 0;
#X connect 1 1 2 0;
#X connect 2 0 1 0;
#X connect 3 0 4 0;
#X connect 4 0 7 0;
#X connect 4 1 12 0;
#X connect 7 0 14 0;
#X connect 8 0 9 0;
#X connect 8 0 4 0;
#X connect 9 0 5 0;
#X connect 10 0 0 0;
#X connect 10 0 11 0;
#X connect 11 0 6 0;
#X connect 12 0 2 1;
#X connect 13 0 3 0;
#X restore 54 175 pd step7-knob;
#N canvas 776 312 577 472 step8-knob 0;
#X msg 114 218 forget;
#X obj 240 221 savestate;
#X obj 300 268 list;
#X obj 240 326 else/insert teach;
#X obj 96 270 else/midi.learn 1;
#A saved;
#X obj 113 91 print [seq8.m~]:;
#X obj 127 189 print [seq8.m~]:;
#X obj 96 366 else/rescale -2 2;
#X obj 114 130 r \$0-step1-forget;
#X obj 94 34 r \$0-step8-learn;
#X msg 113 64 MIDI-learn for step8 knob activated;
#X msg 127 164 MIDI-forget for step8 knob;
#X obj 325 243 list prepend step8-learn;
#X obj 240 297 else/route2 step8-learn;
#X obj 96 405 s \$0-set-step8;
#X connect 0 0 4 0;
#X connect 1 0 13 0;
#X connect 1 1 2 0;
#X connect 2 0 1 0;
#X connect 3 0 4 0;
#X connect 4 0 7 0;
#X connect 4 1 12 0;
#X connect 7 0 14 0;
#X connect 8 0 0 0;
#X connect 8 0 11 0;
#X connect 9 0 10 0;
#X connect 9 0 4 0;
#X connect 10 0 5 0;
#X connect 11 0 6 0;
#X connect 12 0 2 1;
#X connect 13 0 3 0;
#X restore 54 199 pd step8-knob;
#X restore 334 489 pd MIDI-learn;
#X obj 23 182 vline~;
#X obj 83 445 outlet~;
#X obj 83 180 else/float2imp~;
#X connect 5 0 9 0;
#X connect 5 1 11 0;
#X connect 6 0 7 0;
#X connect 9 0 0 0;
#X connect 11 0 10 0;
#X coords 0 1 100 -1 458 283 2 200 75;
