#N canvas 260 35 696 619 12;
#X obj 363 175 list fromsymbol;
#X obj 363 203 slice -8;
#X obj 416 229 equal 45 104 101 108 112 46 112 100;
#X obj 310 185 t s s;
#X obj 310 229 spigot;
#X obj 310 144 dir -ext .pd;
#X obj 259 225 stack;
#X obj 310 66 t b b;
#X msg 259 110 clear;
#X obj 310 32 bng 19 250 50 0 empty empty empty 0 -10 0 12 #fcfcfc #000000 #000000;
#X msg 310 110 dir \, dump;
#X obj 306 359 pack s s;
#X msg 306 435 \; pd open \$1 \$2;
#X obj 252 472 symbol;
#X obj 220 388 del 5000;
#X obj 259 308 t b s;
#X msg 252 507 \; pd-\$1 menuclose;
#X obj 49 187 f;
#X obj 49 215 * 5000;
#X msg 49 291 \; pd fast-forward \$1;
#X obj 49 52 bng 45 250 50 0 empty empty empty 0 -10 0 12 #dfdfdf #000000 #000000;
#X obj 49 117 t b b;
#X obj 220 412 t b b;
#X obj 523 103 setdsp~ 1;
#X obj 308 325 print;
#X obj 71 509 text define test;
#X msg 483 389 1e+09;
#X obj 429 424 text insert test;
#X msg 70 478 write test.txt;
#X obj 483 362 loadbang;
#X obj 393 362 != 0;
#X obj 180 450 spigot;
#X floatatom 67 164 5 0 0 0 - - - 0;
#X obj 49 244 t f b, f 6;
#X connect 0 0 1 0;
#X connect 1 1 2 0;
#X connect 2 0 4 1;
#X connect 3 0 4 0;
#X connect 3 1 0 0;
#X connect 4 0 6 1;
#X connect 5 0 3 0;
#X connect 5 1 11 1;
#X connect 6 0 15 0;
#X connect 6 1 30 0;
#X connect 6 1 32 0;
#X connect 7 0 10 0;
#X connect 7 1 8 0;
#X connect 8 0 6 0;
#X connect 9 0 7 0;
#X connect 10 0 5 0;
#X connect 11 0 12 0;
#X connect 13 0 16 0;
#X connect 14 0 22 0;
#X connect 15 0 14 0;
#X connect 15 0 28 0;
#X connect 15 1 11 0;
#X connect 15 1 13 1;
#X connect 15 1 24 0;
#X connect 15 1 27 0;
#X connect 17 0 18 0;
#X connect 18 0 33 0;
#X connect 20 0 21 0;
#X connect 21 0 17 0;
#X connect 21 1 7 0;
#X connect 22 0 31 0;
#X connect 22 1 13 0;
#X connect 26 0 27 1;
#X connect 28 0 25 0;
#X connect 29 0 26 0;
#X connect 30 0 31 1;
#X connect 31 0 6 0;
#X connect 32 0 17 1;
#X connect 33 0 19 0;
#X connect 33 1 6 0;
