#N canvas 406 23 505 685 12;
#X declare -path else;
#X obj 198 570 *~;
#X obj 156 378 mtof;
#X obj 216 346 display;
#X obj 156 347 display;
#X obj 156 536 bl.saw~;
#X text 38 137 The object keeps track of up the pressed notes. By default \, any new note is played \, but when you release it \, it plays back the last pressed note. Check the help file for more information.;
#X obj 198 602 out~;
#X obj 301 25 declare -path else;
#X obj 156 223 keyboard 17 80 2 3 1 0 empty empty;
#X obj 156 474 glide~;
#X obj 216 535 adsr~ 200 50 0.75 250;
#X obj 236 409 != 0;
#X obj 156 321 mono, f 9;
#X obj 236 436 changed;
#X msg 236 466 0;
#X msg 282 465 100;
#X floatatom 236 503 5 0 0 0 - - - 0;
#X obj 90 235 notein;
#X obj 84 266 pack;
#X text 39 68 You need special management of MIDI input data to deal with either a monophonic or polyphonic synth. The [mono] object \, from ELSE \, manages note messages and emulates the behaviour of classic monophonic synthesizers.;
#X connect 0 0 6 0;
#X connect 1 0 9 0;
#X connect 2 0 11 0;
#X connect 2 0 10 0;
#X connect 3 0 1 0;
#X connect 4 0 0 0;
#X connect 8 0 12 0;
#X connect 9 0 4 0;
#X connect 10 0 0 1;
#X connect 11 0 13 0;
#X connect 12 0 3 0;
#X connect 12 1 2 0;
#X connect 13 0 14 0;
#X connect 13 1 15 0;
#X connect 14 0 16 0;
#X connect 15 0 16 0;
#X connect 16 0 9 1;
#X connect 17 0 18 0;
#X connect 17 1 18 1;
#X connect 18 0 12 0;
