#N canvas 464 45 541 612 12;
#X declare -path else;
#X obj 311 18 declare -path else;
#X obj 138 209 else/keyboard 17 80 2 4 0 0 empty empty;
#N canvas 470 55 473 376 random 0;
#X obj 86 246 pack f f;
#X obj 86 283 outlet;
#X obj 50 19 inlet;
#X obj 50 44 expr random(60 \, 72) \; random(90 \, 127) \; random(750 \, 1250);
#X obj 86 221 makenote;
#X obj 183 116 expr $f1 + random(2 \, 5);
#X obj 199 140 expr $f1 + random(2 \, 5);
#X obj 217 164 expr $f1 + random(2 \, 5);
#X connect 0 0 1 0;
#X connect 2 0 3 0;
#X connect 3 0 4 0;
#X connect 3 0 5 0;
#X connect 3 1 4 1;
#X connect 3 2 4 2;
#X connect 4 0 0 0;
#X connect 4 1 0 1;
#X connect 5 0 6 0;
#X connect 5 0 4 0;
#X connect 6 0 7 0;
#X connect 6 0 4 0;
#X connect 7 0 4 0;
#X restore 138 178 pd random chords;
#X obj 138 148 bng 21 250 50 0 empty empty empty 17 7 0 10 #dcdcdc #000000 #000000;
#X obj 180 400 *~;
#X obj 138 311 voices~ 4;
#X obj 180 450 meter4~;
#X obj 55 512 out.mc~;
#X obj 55 478 spread.mc~ 2;
#X text 223 304 This is an bastraction based on [voices]. Check its help file for more details., f 41;
#X text 17 60 The [voices~] object offers a different approach for polyphony by making usage of multichannel connections by carrying each voice in a different channel of the multichannel connection. This procedure discards completely the need of [clone] \, but is abit more CPU intensive., f 67;
#X obj 198 358 adsr~ 150 25 0.75 350;
#X obj 138 344 sine~ -midi, f 5;
#X connect 1 0 5 0;
#X connect 2 0 1 0;
#X connect 3 0 2 0;
#X connect 4 0 6 0;
#X connect 4 0 8 0;
#X connect 5 0 12 0;
#X connect 5 1 11 0;
#X connect 8 0 7 0;
#X connect 11 0 4 1;
#X connect 12 0 4 0;
