#N canvas 114 346 591 297 10;
#X declare -path else;
#X obj 165 226 outlet~;
#X obj 165 174 *~;
#X text 379 106 Part of ELSE \; https://github.com/porres/pd-else;
#X text 381 87 Alexandre Torres Porres (2017);
#X text 383 151 This is an abstraction used on the [bpbank~] object, f 27;
#X obj 49 129 else/bandpass~;
#X obj 49 35 inlet~ fwd;
#X obj 131 57 route freq q amp ramp;
#X obj 427 60 declare -path else;
#X obj 68 94 else/f2s~ 10;
#X obj 161 94 else/f2s~ 10;
#X obj 249 94 else/f2s~ 10 1;
#X connect 1 0 0 0;
#X connect 5 0 1 0;
#X connect 6 0 5 0;
#X connect 6 1 7 0;
#X connect 7 0 9 0;
#X connect 7 1 10 0;
#X connect 7 2 11 0;
#X connect 7 3 9 1;
#X connect 7 3 10 1;
#X connect 7 3 11 1;
#X connect 9 0 5 1;
#X connect 10 0 5 2;
#X connect 11 0 1 1;
