#N canvas 588 157 587 286 10;
#X declare -path else;
#X obj 165 226 outlet~;
#X obj 165 174 *~;
#X text 343 105 Part of ELSE \; https://github.com/porres/pd-else;
#X text 345 86 Alexandre Torres Porres (2017);
#X obj 49 35 inlet~ fwd;
#X obj 49 129 else/resonant~;
#X obj 131 57 route freq decay amp ramp;
#X obj 343 54 declare -path else;
#X text 347 150 This is an abstraction used on the [resonbank~] object, f 27;
#X obj 75 94 else/f2s~ 10;
#X obj 161 94 else/f2s~ 10;
#X obj 247 94 else/f2s~ 10 1;
#X connect 1 0 0 0;
#X connect 4 0 5 0;
#X connect 4 1 6 0;
#X connect 5 0 1 0;
#X connect 6 0 9 0;
#X connect 6 1 10 0;
#X connect 6 2 11 0;
#X connect 6 3 9 1;
#X connect 6 3 10 1;
#X connect 6 3 11 1;
#X connect 9 0 5 1;
#X connect 10 0 5 2;
#X connect 11 0 1 1;
