#N canvas 412 23 577 666 12;
#X declare -path else;
#X obj 338 27 declare -path else;
#X obj 97 538 out~;
#X obj 81 464 pm2~ -detune 1 0.5 -ratio 1 1.5001 -pan -0.5 0.5, f 18;
#X obj 391 351 nbx 3 17 -1 1 0 0 \$0-1to1 fddfd empty 0 -10 0 12 #bbbbbb #000000 #000000 0 256;
#X obj 436 347 nbx 3 17 -1 1 0 0 \$0-2to1 fddfd empty 0 -10 0 12 #ffffff #000000 #000000 0 256;
#X obj 391 370 nbx 3 17 -1 1 0 0 \$0-1to2 fddfd empty 0 -10 0 12 #ffffff #000000 #000000 0 256;
#X obj 436 370 nbx 3 17 -1 1 0 0 \$0-2to2 fddfd empty 0 -10 0 12 #bbbbbb #000000 #000000 0 256;
#X obj 394 415 nbx 3 17 0 1 0 0 \$0-vol1 \$0-set-vol1 empty 0 -10 0 12 #000000 #ffffff #000000 0 256;
#X obj 439 415 nbx 3 17 0 1 0 0 \$0-vol2 \$0-set-vol2 empty 0 -10 0 12 #000000 #ffffff #000000 0 256;
#X obj 395 439 knob 35 -1 1 0 0 \$0-pan1 empty #dfdfdf #7c7c7c black 0 0 0 0 1 320 0 0 0;
#X obj 278 444 nbx 4 17 -1000 1000 0 0 \$0-detune1 fddfd empty 0 -10 0 12 #f5f7fe #000000 #000000 0 256;
#X text 285 349 Ratio:;
#X text 354 415 Level;
#X text 370 447 Pan;
#X text 402 314 Modulation Matrix:, f 10;
#X obj 281 373 nbx 4 17 0 100 0 0 \$0-ratio1 \$0-set-ratio1 empty 0 -10 0 12 #fefb00 #000000 #000000 0 256;
#X obj 281 391 nbx 4 17 0 100 0 0 \$0-ratio2 \$0-set-ratio2 empty 0 -10 0 12 #fefb00 #000000 #000000 0 256;
#X text 281 421 Detune:;
#X obj 278 463 nbx 4 17 -1000 1000 0 0 \$0-detune2 fddfd empty 0 -10 0 12 #f5f7fe #000000 #000000 0 256;
#N canvas 240 69 469 516 set 0;
#X obj 22 42 r \$0-detune1;
#X obj 22 90 s \$0-set;
#X obj 134 90 s \$0-set;
#X obj 134 42 r \$0-detune2;
#X obj 22 170 s \$0-set;
#X obj 134 170 s \$0-set;
#X obj 22 122 r \$0-ratio1;
#X msg 22 66 detune1 \$1;
#X msg 134 66 detune2 \$1;
#X msg 22 146 ratio1 \$1;
#X obj 134 122 r \$0-ratio2;
#X msg 134 146 ratio2 \$1;
#X obj 226 448 outlet;
#X obj 22 260 s \$0-set;
#X obj 134 260 s \$0-set;
#X obj 22 212 r \$0-vol1;
#X obj 134 212 r \$0-vol2;
#X msg 22 236 vol1 \$1;
#X msg 134 236 vol2 \$1;
#X obj 22 350 s \$0-set;
#X obj 134 350 s \$0-set;
#X obj 22 302 r \$0-pan1;
#X msg 22 326 pan1 \$1;
#X msg 134 326 pan2 \$1;
#X obj 226 408 r \$0-set;
#X obj 252 102 s \$0-set;
#X obj 322 102 s \$0-set;
#X obj 252 182 s \$0-set;
#X obj 322 182 s \$0-set;
#X obj 252 54 r \$0-1to1;
#X msg 252 78 1to1 \$1;
#X obj 322 54 r \$0-2to1;
#X msg 322 78 2to1 \$1;
#X obj 252 134 r \$0-1to2;
#X msg 252 158 1to2 \$1;
#X obj 322 134 r \$0-2to2;
#X msg 322 158 2to2 \$1;
#X obj 134 302 r \$0-pan2;
#X obj 289 231 else/initmess 1;
#X obj 289 309 s \$0-set-vol1;
#X obj 311 268 s \$0-set-vol2;
#X connect 0 0 7 0;
#X connect 3 0 8 0;
#X connect 6 0 9 0;
#X connect 7 0 1 0;
#X connect 8 0 2 0;
#X connect 9 0 4 0;
#X connect 10 0 11 0;
#X connect 11 0 5 0;
#X connect 15 0 17 0;
#X connect 16 0 18 0;
#X connect 17 0 13 0;
#X connect 18 0 14 0;
#X connect 21 0 22 0;
#X connect 22 0 19 0;
#X connect 23 0 20 0;
#X connect 24 0 12 0;
#X connect 29 0 30 0;
#X connect 30 0 25 0;
#X connect 31 0 32 0;
#X connect 32 0 26 0;
#X connect 33 0 34 0;
#X connect 34 0 27 0;
#X connect 35 0 36 0;
#X connect 36 0 28 0;
#X connect 37 0 23 0;
#X connect 38 0 39 0;
#X connect 38 0 40 0;
#X restore 116 415 pd set;
#X obj 442 439 knob 35 -1 1 0 0 \$0-pan2 empty #dfdfdf #7c7c7c black 0 0 0 0 1 320 0 0 0;
#X text 52 354 Hz;
#X text 252 373 OP1;
#X text 252 392 OP2;
#X text 400 482 OP1;
#X text 448 482 OP2;
#X text 40 216 In the matrix modulation \, The gray diagonal row represents the 2 operators and the modulation index on how each modulator modulates itself. The bottom left number represents feed forward modulation from operaor 1 to operator 2 \, while the other right top number sets feedback modulation from operator 2 to operator 1!, f 69;
#X text 40 68 This family of objects presents a set of higher level synthesizers that implement phase modulation with. Let's start with [pm2~] \, which is a pm synth with just 2 sin wave oscillators (aka 'operators'). It takes a frequency input and a ratio for both operators according to this frequency input. You can also set a detuning factor \, a volume and panning output for each oscillator. So it is a more versatile version of cross modulation with feedback. The modulation index is set with a modulation matrix where you can set how each ooerator modulates itself (with feedback) and each other (which also involves feedback modulation., f 69;
#X obj 81 356 numbox~ 6 12 100 #C0C0C4 #440008 10 0 0 0;
#X obj 81 324 initmess 440;
#X text 256 530 The [pm4~] and [pm6~] variants just include more operators \, 4 and 6 respectively. Check the help files for more details., f 34;
#X obj 297 612 pm4~, f 7;
#X obj 368 612 pm6~, f 10;
#X connect 2 0 1 0;
#X connect 2 1 1 1;
#X connect 19 0 2 0;
#X connect 28 0 2 0;
#X connect 29 0 28 0;
