#N struct 1004-cell float x float y float cellsize float color;
#N struct 1006-point float x0 float y0 float xs float ys float fg float in float gridx float gridy;
#N struct 1063-slot float x float y float slotsize float color float width float bordercolor;
#N canvas 549 38 541 693 10;
#N canvas 240 37 975 767 GUI 0;
#X text 48 -899 [biplot];
#X text 204 -962 [pic] =>;
#X text 565 -1011 [function] =>;
#X text 807 113 [display] =>;
#X text 78 -569 [slider2d];
#X text 624 81 <= [gain~];
#X text 664 142 [gain2~] =>;
#X text 57 -139 [graph~];
#X text 62 -383 [mix2~];
#X text 172 -384 [mix4~];
#X text 454 -561 [keyboard];
#X text 837 49 [note];
#X text 269 -138 [spectrograph~];
#X text 758 -186 [drumseq];
#X text 785 11 [button] =>;
#X text 593 -423 [range.hsl] =>;
#X text 418 -376 [meter~];
#X text 499 -376 [meter2~];
#X text 586 -376 [meter4~];
#X text 699 -376 [meter8~];
#X text 625 -73 [setdsp~];
#X text 107 -1009 [mtx.ctl];
#X text 273 -570 [circle];
#X text 765 -107 [messbox];
#X text 281 -1014 [pad] =>;
#X obj 517 -966 else/colors;
#X obj 516 -932 else/openfile;
#X obj 110 -987 else/mtx.ctl;
#X obj 345 -1030 else/pad 127 127 255 255 255;
#X obj 266 -966 else/pic 0 empty empty empty 0 0;
#X obj 656 -1018 else/function 200 100 empty empty 0 1 220 220 220 50 50 50 0 0 0 0 0 1000 0;
#X obj 82 -545 else/slider2d 127 127 0 127 0 127 1 255 255 255 0 0 0 0 0 0 0 0 empty empty;
#X obj 48 -876 else/biplot;
#X obj 455 -536 else/keyboard 17 80 4 3 0 0 empty empty;
#X obj 690 -423 else/range.hsl;
#X obj 69 -358 else/mix2~;
#X obj 173 -358 else/mix4~;
#X obj 427 -358 else/meter~;
#X obj 500 -358 else/meter2~;
#X obj 583 -357 else/meter4~;
#X obj 700 -357 else/meter8~;
#X obj 762 -165 else/drum.seq;
#X obj 55 -115 else/graph~;
#X obj 267 -115 else/spectrograph~;
#X obj 631 -54 else/setdsp~;
#X obj 770 -86 else/messbox 150 50 235 235 235 0 0 0 0 10;
#X obj 862 9 else/button 20 20 #FFFFFF #808080 0 1 0 0 0 empty empty;
#X obj 840 64 else/note 51 20 helvetica empty 0 0 0 0 0 255 255 255 0 0 note;
#X obj 889 111 else/display;
#X obj 740 67 else/gain2~;
#A saved;
#X obj 595 68 else/gain~;
#A saved;
#X obj 410 48 else/out8~;
#X obj 300 48 else/out4~;
#X obj 183 46 else/out~;
#X obj 638 434 else/multi.vsl;
#X obj 36 156 else/zbiplot;
#X obj 506 230 else/bicoeff 450 150 peaking;
#X text 46 129 [zbiplot];
#X text 685 407 [multi.vsl];
#X text 548 199 [bicoeff];
#X text 806 156 [numbox~] ->;
#X obj 892 157 numbox~ 6 10 100 #C0C0C4 #440008 10 0 0 0;
#X obj 623 -179 else/knob 50 0 127 0 0 empty empty #dfdfdf #7c7c7c black 0 0 0 0 1 320 0 0 0 empty empty 0 0 0 0 0 0 0 0 0 0;
#X text 569 -171 [knob];
#X obj 73 46 else/out.mc~;
#X obj 95 693 else/scope~ 200 100 256 3 128 -1 1 0 0 0 0 30 30 30 190 190 190 160 160 160 0 empty;
#X text 134 665 [scope~];
#X text 707 739 [popmenu];
#X text 425 639 [scope3d~];
#X obj 713 636 else/level~;
#A saved 0;
#X text 719 608 [level];
#X obj 708 769 else/popmenu 128 26 12 #dfdfdf black \  empty empty empty empty 1 0 -1 1 0 1 0 0 0 0 0;
#X obj 273 -547 else/circle;
#X obj 396 670 else/scope3d~ 0 0 140 140 1 0 1 1 1 1 20 8 256 30 30 30 190 190 190 160 160 160 empty;
#X restore 150 222 pd GUI;
#X obj 385 121 switch~;
#X obj 18 34 cnv 30 279 30 empty empty ALL\ OBJECTS\ IN\ THE\ ELSE\ LIBRARY: 12 15 0 14 #e0e0e0 #404040 0;
#N canvas 149 184 672 303 (subpatch) 0;
#X obj 333 117 else;
#X msg 333 90 version;
#X obj 333 62 loadbang;
#X obj 333 203 s \$0-label;
#X obj 333 147 else/format version\ %d.%d-%d\ %s-%d;
#X msg 333 175 label \$1;
#X connect 0 0 4 0;
#X connect 1 0 0 0;
#X connect 2 0 1 0;
#X connect 4 0 5 0;
#X connect 5 0 3 0;
#X coords 0 -1 1 1 174 30 2 100 100;
#X restore 66 82 pd;
#X obj 67 83 cnv 15 172 28 empty \$0-label version\ 1.0-0\ rc-14 8 14 0 14 #e0e0e0 #404040 0;
#N canvas 568 23 241 168 FFT 0;
#X obj 55 52 else/hann~;
#X obj 55 78 else/bin.shift~;
#X restore 255 222 pd FFT;
#N canvas 660 186 345 460 Patch/subpatch_management 0;
#X obj 70 41 else/meter;
#X obj 71 16 else/args;
#X obj 71 93 else/blocksize~;
#X obj 71 119 else/fontsize;
#X obj 71 167 else/canvas.active;
#X obj 71 191 else/canvas.bounds;
#X obj 71 215 else/canvas.vis;
#X obj 71 239 else/canvas.edit;
#X obj 71 264 else/canvas.setname;
#X obj 71 316 else/canvas.zoom;
#X obj 71 339 else/click;
#X obj 71 363 else/properties;
#X obj 71 388 else/dollsym;
#X obj 71 435 else/receiver;
#X obj 71 459 else/loadbanger;
#X obj 181 459 else/lb;
#X obj 71 143 else/retrieve;
#X obj 71 69 else/presets;
#A saved -empty- \; -empty- \; -empty- \; -empty- \; -empty- \; -empty- \; -empty- \; -empty- \; -empty- \; -empty- \; -empty- \; -empty- \; -empty- \; -empty- \; -empty- \; -empty- \; -empty- \; -empty- \; -empty- \; -empty- \; -empty- \; -empty- \; -empty- \; -empty- \; -empty- \; -empty- \; -empty- \; -empty- \; -empty- \; -empty- \; -empty- \; -empty- \; -empty- \; -empty- \; -empty- \; -empty- \; -empty- \; -empty- \; -empty- \; -empty- \; -empty- \; -empty- \; -empty- \; -empty- \; -empty- \; -empty- \; -empty- \; -empty- \; -empty- \; -empty- \; -empty- \; -empty- \; -empty- \; -empty- \; -empty- \; -empty- \; -empty- \; -empty- \; -empty- \; -empty- \; -empty- \; -empty- \; -empty- \; -empty- \;;
#X obj 71 289 else/canvas.name;
#X obj 71 412 else/sender;
#X obj 72 511 else/dispatch;
#X obj 73 534 else/var;
#X obj 74 561 else/nop~;
#X obj 72 485 else/send2~;
#X obj 74 587 else/abs.pd~;
#X obj 74 612 else/sendmidi;
#X restore 46 255 pd Patch/subpatch_management;
#N canvas 655 96 310 486 MIDI 0;
#X obj 72 125 else/sysrt.in;
#X obj 72 151 else/sysrt.out;
#X obj 72 177 else/ctl.in;
#X obj 72 203 else/ctl.out;
#X obj 72 229 else/touch.in;
#X obj 72 255 else/touch.out;
#X obj 72 341 else/pgm.in;
#X obj 73 367 else/pgm.out;
#X obj 72 393 else/bend.in;
#X obj 72 419 else/bend.out;
#X obj 72 445 else/note.in;
#X obj 72 471 else/note.out;
#X obj 72 545 else/panic;
#X obj 72 571 else/mono;
#X obj 72 621 else/voices;
#X obj 72 672 else/suspedal;
#X obj 72 99 else/midi.learn;
#A saved;
#A saved;
#X obj 72 495 else/midi.clock;
#X obj 72 520 else/noteinfo;
#X obj 73 21 else/midi;
#X obj 73 49 else/midi.in;
#X obj 73 75 else/midi.out;
#X obj 73 283 else/ptouch.in;
#X obj 73 309 else/ptouch.out;
#X obj 72 598 else/mono~;
#X obj 72 646 else/voices~;
#X restore 161 284 pd MIDI;
#N canvas 591 107 264 441 Math_functions 0;
#X obj 48 24 else/add;
#X obj 48 50 else/add~;
#X obj 48 76 else/median;
#X obj 48 103 else/avg;
#X obj 48 127 else/mov.avg;
#X obj 48 201 else/lcm;
#X obj 48 227 else/gcd;
#X obj 48 253 else/count;
#X obj 48 279 else/ceil;
#X obj 48 304 else/ceil~;
#X obj 48 328 else/factor;
#X obj 48 352 else/floor;
#X obj 48 378 else/floor~;
#X obj 48 451 else/rint;
#X obj 48 477 else/rint~;
#X obj 48 503 else/quantizer;
#X obj 48 529 else/quantizer~;
#X obj 48 558 else/fold;
#X obj 48 584 else/fold~;
#X obj 48 610 else/lastvalue;
#X obj 48 636 else/mag;
#X obj 48 662 else/mag~;
#X obj 48 688 else/sin~;
#X obj 48 740 else/wrap2;
#X obj 48 766 else/wrap2~;
#X obj 48 791 else/op~;
#X obj 48 425 else/trunc~;
#X obj 48 815 else/op;
#X obj 48 401 else/trunc;
#X obj 48 151 else/frac.add;
#X obj 48 175 else/frac.mul;
#X obj 48 713 else/tanh~;
#X restore 270 284 pd Math_functions;
#N canvas 399 116 193 126 File_Management 0;
#X obj 60 55 else/dir;
#X restore 37 284 pd File_Management;
#N canvas 479 51 344 644 DSP(assorted) 0;
#X obj 104 77 else/downsample~;
#X obj 104 102 else/conv~;
#X obj 104 127 else/chorus~;
#X obj 104 154 else/shaper~;
#X obj 104 240 else/drive~;
#X obj 104 270 else/flanger~;
#X obj 104 301 else/freq.shift~;
#X obj 104 329 else/pitch.shift~;
#X obj 104 358 else/ping.pong~;
#X obj 104 385 else/phaser~;
#X obj 104 414 else/rm~;
#X obj 104 444 else/tremolo~;
#X obj 104 472 else/vibrato~;
#X obj 104 499 else/vocoder~ 16;
#X obj 104 527 else/morph~;
#X obj 104 553 else/freeze~;
#X obj 104 580 else/pvoc.freeze~;
#X obj 104 210 else/power~;
#X obj 104 27 else/vca~;
#X obj 104 49 else/vca2~;
#X obj 104 182 else/crush~;
#X restore 57 377 pd DSP(assorted);
#N canvas 701 163 238 235 DSP(dynamics) 0;
#X obj 64 48 else/compress~;
#X obj 64 76 else/duck~;
#X obj 65 125 else/noisegate~;
#X obj 65 151 else/norm~;
#X obj 65 100 else/expand~;
#X restore 270 376 pd DSP(dynamics);
#N canvas 983 73 238 235 DSP(reverberation) 0;
#X obj 45 15 else/allpass.rev~;
#X obj 45 41 else/comb.rev~;
#X obj 45 69 else/mono.rev~;
#X obj 45 93 else/stereo.rev~;
#X obj 45 121 else/plate.rev~;
#X obj 45 145 else/giga.rev~;
#X obj 45 172 else/free.rev~;
#X obj 45 198 else/fdn.rev~;
#X restore 383 377 pd DSP(reverberation);
#N canvas 530 48 273 530 DSP(filters) 0;
#X obj 42 -9 else/allpass.2nd~;
#X obj 42 17 else/allpass.filt~;
#X obj 42 65 else/comb.filt~;
#X obj 42 114 else/lop.bw~;
#X obj 42 139 else/hip.bw~;
#X obj 42 166 else/biquads~;
#X obj 42 192 else/bandpass~;
#X obj 42 220 else/bandstop~;
#X obj 42 245 else/crossover~;
#X obj 42 271 else/bpbank~;
#X obj 42 297 else/bicoeff2;
#X obj 42 323 else/brickwall~;
#X obj 42 348 else/eq~;
#X obj 42 374 else/highpass~;
#X obj 42 400 else/highshelf~;
#X obj 42 428 else/lowpass~;
#X obj 42 455 else/lowshelf~;
#X obj 42 481 else/mov.avg~;
#X obj 42 509 else/resonbank~;
#X obj 42 535 else/resonbank2~;
#X obj 42 562 else/resonant~;
#X obj 42 639 else/svfilter~;
#X obj 42 88 else/lop2~;
#X obj 42 40 else/bitnormal~;
#X obj 42 589 else/resonator~;
#X obj 42 614 else/resonator2~;
#X restore 46 406 pd DSP(filters);
#N canvas 709 140 278 492 Buffer/Sampling/Playing/Granulation 0;
#X obj 58 54 else/sample~;
#X obj 58 78 else/player~;
#X obj 58 103 else/tabplayer~;
#X obj 58 127 else/tabwriter~;
#X obj 58 152 else/gran.player~;
#X obj 58 177 else/pvoc.player~;
#X obj 58 203 else/pvoc.live~;
#X obj 58 227 else/grain.live~;
#X obj 58 252 else/grain.sampler~;
#X obj 58 278 else/rec.file~;
#X obj 58 303 else/batch.rec~;
#X obj 58 327 else/batch.write~;
#X obj 58 351 else/play.file~;
#X obj 59 30 else/tabreader~;
#X obj 58 425 else/sfload;
#X obj 58 451 else/sfinfo;
#X obj 58 376 else/streamin~;
#X obj 58 400 else/streamout~;
#X restore 154 407 pd Buffer/Sampling/Playing/Granulation;
#N canvas 1011 188 230 109 Granular_synth 0;
#X obj 62 47 else/grain.synth~;
#X restore 86 438 pd Granular_synth;
#N canvas 452 259 220 145 Physical_Modelling 0;
#X obj 56 51 else/pluck~;
#X restore 218 438 pd Physical_Modelling;
#N canvas 601 42 327 616 Oscillators 0;
#X obj 71 22 else/cosine~;
#X obj 71 50 else/impulse~;
#X obj 71 77 else/impulse2~;
#X obj 173 77 else/imp2~;
#X obj 173 48 else/imp~;
#X obj 71 104 else/parabolic~;
#X obj 71 132 else/pulse~;
#X obj 71 160 else/saw~;
#X obj 71 189 else/saw2~;
#X obj 71 277 else/oscbank~;
#X obj 71 303 else/sine~;
#X obj 71 331 else/square~;
#X obj 72 360 else/tri~;
#X obj 72 388 else/vsaw~;
#X obj 72 491 else/wavetable~;
#X obj 186 491 else/wt~;
#X obj 72 612 else/bl.imp~;
#X obj 72 640 else/bl.imp2~;
#X obj 72 668 else/bl.saw~;
#X obj 72 696 else/bl.saw2~;
#X obj 72 729 else/bl.square~;
#X obj 72 758 else/bl.tri~;
#X obj 72 785 else/bl.vsaw~;
#X obj 72 813 else/bl.wavetable~;
#X obj 72 412 else/gaussian~;
#X obj 73 583 else/blip~;
#X obj 73 554 bl.osc~;
#X obj 72 248 else/oscnoise~;
#X obj 73 840 else/oscnoise~;
#X obj 72 438 else/pm~;
#X obj 72 463 else/fm~;
#X obj 72 523 else/wt2d~;
#X obj 73 866 else/damp.osc~;
#X obj 72 216 else/superosc~;
#X restore 374 438 pd Oscillators;
#N canvas 798 47 264 684 Control(Fader/Panning/Routing) 0;
#X obj 64 128 else/balance~;
#X obj 64 218 else/pan2~;
#X obj 64 240 else/pan4~;
#X obj 64 330 else/spread~;
#X obj 64 373 else/rotate~;
#X obj 64 414 else/xfade~;
#X obj 64 455 else/xgate~;
#X obj 64 496 else/xgate2~;
#X obj 64 539 else/xselect~;
#X obj 64 561 else/xselect2~;
#X obj 64 628 else/mtx~;
#X obj 63 42 else/autofade~;
#X obj 63 64 else/autofade2~;
#X obj 63 20 else/fader~;
#X obj 64 582 else/xselect.mc~;
#X obj 64 352 else/spread.mc~;
#X obj 64 394 else/rotate.mc~;
#X obj 64 435 else/xfade.mc~;
#X obj 64 476 else/xgate.mc~;
#X obj 64 174 else/pan~;
#X obj 64 517 else/xgate2.mc~;
#X obj 64 606 else/xselect2.mc~;
#X obj 64 650 else/mtx.mc~;
#X obj 63 86 else/autofade.mc~;
#X obj 64 106 else/autofade2.mc~;
#X obj 64 196 else/pan.mc~;
#X obj 64 306 else/width~;
#X obj 64 284 else/ms.dec~;
#X obj 64 262 else/ms.enc~;
#X obj 64 151 else/pan.stereo~;
#X restore 26 501 pd Control(Fader/Panning/Routing);
#N canvas 457 71 332 382 Control(Sequencers) 0;
#X obj 83 51 else/euclid;
#X obj 83 74 else/score;
#X obj 83 96 else/score2;
#X obj 83 120 else/pattern;
#X obj 83 146 else/sequencer;
#X obj 83 171 else/sequencer~;
#X obj 83 196 else/impseq~;
#X obj 84 249 else/rec;
#X obj 84 273 else/rec2 \$0-name;
#X obj 83 220 else/phaseseq~;
#X obj 84 304 else/phaseseq~;
#X obj 84 332 else/list.seq;
#X obj 83 25 else/arpeggiator;
#X obj 203 25 else/arp;
#X restore 236 500 pd Control(Sequencers);
#N canvas 653 78 261 244 Control(Envelopes) 0;
#X obj 78 80 else/adsr~;
#X obj 78 24 else/decay~;
#X obj 78 111 else/envelope~;
#X obj 78 135 else/envgen~;
#X obj 78 53 else/asr~;
#X restore 383 500 pd Control(Envelopes);
#N canvas 522 164 279 453 Control(Ramp/Line_Generators/Smoothening 0;
#X obj 86 28 else/function~;
#X obj 86 76 else/glide~;
#X obj 87 100 else/glide2~;
#X obj 86 53 else/ramp~;
#X obj 87 367 else/lag~;
#X obj 87 393 else/lag2~;
#X obj 87 419 else/susloop~;
#X obj 87 271 else/slew;
#X obj 87 294 else/slew2;
#X obj 87 321 else/slew~;
#X obj 87 344 else/slew2~;
#X obj 86 130 else/glide;
#X obj 86 154 else/glide2;
#X obj 86 180 else/smooth~;
#X obj 86 204 else/smooth2~;
#X obj 86 225 else/smooth;
#X obj 86 249 else/smooth2;
#X restore 40 535 pd Control(Ramp/Line_Generators/Smoothening;
#N canvas 929 74 253 216 Control(Control_Rate_LFO) 0;
#X obj 86 87 else/lfo;
#X obj 86 109 else/impulse;
#X obj 86 132 else/pulse;
#X obj 86 63 else/pimp;
#X obj 86 39 else/phasor;
#X restore 112 569 pd Control(Control_Rate_LFO);
#N canvas 635 95 416 516 Control(Triggers) 0;
#X obj 61 21 else/above;
#X obj 61 46 else/above~;
#X obj 61 70 else/bangdiv;
#X obj 61 98 else/chance;
#X obj 61 125 else/chance~;
#X obj 61 152 else/dust~;
#X obj 61 179 else/dust2~;
#X obj 61 207 else/gatehold~;
#X obj 61 352 else/gate2imp~;
#X obj 61 378 else/pimp~;
#X obj 61 432 else/pulsecount~;
#X obj 61 456 else/pulsediv~;
#X obj 61 481 else/sh~;
#X obj 61 506 else/schmitt;
#X obj 61 533 else/schmitt~;
#X obj 61 559 else/status;
#X obj 61 589 else/status~;
#X obj 61 619 else/trig.delay~;
#X obj 61 647 else/toggleff~;
#X obj 61 677 else/timed.gate~;
#X obj 61 706 else/timed.gate;
#X obj 61 734 else/match~;
#X obj 61 761 else/trig2bang~;
#X obj 61 787 else/trig2bang;
#X obj 61 837 else/trighold~;
#X obj 61 404 else/pimpmul~;
#X obj 61 230 else/gatehold;
#X obj 61 303 else/gaterelease~;
#X obj 61 328 else/gaterelease;
#X obj 61 811 else/float2imp~;
#X obj 61 278 else/gatedelay~;
#X obj 60 254 else/gatedelay;
#X restore 295 570 pd Control(Triggers);
#N canvas 744 219 235 261 Control(Triggers/Clocks) 0;
#X obj 67 86 else/tempo;
#X obj 67 109 else/tempo~;
#X obj 67 133 else/metronome;
#X obj 67 62 else/clock;
#X obj 67 39 else/speed;
#X obj 67 183 else/polymetro;
#X obj 67 207 else/polymetro~;
#X obj 67 159 else/metronome~;
#X restore 134 603 pd Control(Triggers/Clocks);
#N canvas 833 176 231 433 Analysis 0;
#X obj 70 22 else/changed~;
#X obj 70 47 else/changed2~;
#X obj 70 73 else/detect~;
#X obj 71 98 else/lastvalue;
#X obj 71 123 else/median~;
#X obj 71 148 else/range;
#X obj 71 199 else/range~;
#X obj 71 224 else/peak~;
#X obj 71 249 else/rms~;
#X obj 71 275 else/mov.rms~;
#X obj 71 331 else/vu~;
#X obj 71 357 else/zerocross~;
#X obj 71 173 else/tap;
#X obj 71 382 else/beat~;
#X obj 71 301 else/follow~;
#X restore 312 603 pd Analysis;
#X text 7 192 =====================================================================================, f 85;
#X text 7 11 =====================================================================================, f 85;
#N canvas 879 143 350 528 Control(Random/Stochastic) 0;
#X obj 126 291 else/drunkard;
#X obj 126 317 else/drunkard~;
#X obj 126 343 else/randpulse;
#X obj 126 369 else/randpulse2;
#X obj 126 395 else/stepnoise;
#X obj 126 421 else/rampnoise;
#X obj 126 447 else/lfnoise;
#X obj 126 473 else/markov;
#X obj 127 29 else/rand.f;
#X obj 127 55 else/rand.f~;
#X obj 127 81 else/rand.i;
#X obj 127 107 else/rand.i~;
#X obj 127 136 else/rand.list;
#X obj 126 263 else/brown;
#X obj 126 238 else/rand.hist;
#X obj 128 212 else/histogram;
#A saved;
#X obj 127 163 else/rand.u;
#X obj 127 187 else/rand.dist;
#X restore 318 535 pd Control(Random/Stochastic);
#N canvas 683 140 279 418 Math(conversion) 0;
#X obj 60 17 else/hex2dec;
#X obj 60 43 else/dec2hex;
#X obj 60 69 else/bpm;
#X obj 60 95 else/car2pol;
#X obj 60 121 else/car2pol~;
#X obj 60 147 else/pol2car;
#X obj 60 173 else/pol2car~;
#X obj 60 240 else/cents2ratio;
#X obj 60 265 else/cents2ratio~;
#X obj 60 291 else/ratio2cents;
#X obj 60 317 else/ratio2cents~;
#X obj 60 343 else/ms2samps;
#X obj 60 369 else/ms2samps~;
#X obj 60 395 else/samps2ms;
#X obj 60 421 else/samps2ms~;
#X obj 60 494 else/db2lin;
#X obj 60 520 else/db2lin~;
#X obj 60 546 else/float2bits;
#X obj 60 572 else/hz2rad;
#X obj 60 598 else/rad2hz;
#X obj 60 626 else/lin2db;
#X obj 60 652 else/lin2db~;
#X obj 60 701 else/rescale;
#X obj 60 727 else/rescale~;
#X obj 60 444 else/deg2rad;
#X obj 60 467 else/rad2deg;
#X obj 60 195 else/pz2coeff;
#X obj 60 216 else/coeff2pz;
#X obj 60 675 else/dbgain~;
#X restore 387 284 pd Math(conversion);
#N canvas 1012 129 205 207 Math(constant) 0;
#X obj 72 50 else/sr~;
#X obj 72 76 else/nyquist~;
#X obj 72 102 else/pi;
#X obj 72 128 else/e;
#X restore 66 315 pd Math(constant);
#N canvas 366 184 200 117 Math(logic) 0;
#X obj 63 45 else/loop;
#X restore 183 315 pd Math(logic);
#N canvas 522 26 319 675 Message_management 0;
#X obj 70 71 else/format;
#X obj 70 94 else/unite;
#X obj 70 117 else/separate;
#X obj 70 167 else/any2symbol;
#X obj 70 191 else/symbol2any;
#X obj 70 215 else/changed;
#X obj 70 241 else/hot;
#X obj 70 265 else/limit;
#X obj 70 289 else/initmess;
#X obj 70 335 else/message;
#X obj 70 359 else/pack2;
#X obj 70 384 else/pick;
#X obj 70 410 else/spread;
#X obj 70 433 else/router;
#X obj 70 459 else/routeall;
#X obj 70 484 else/routetype;
#X obj 70 508 else/selector;
#X obj 70 532 else/stack;
#X obj 70 612 else/sig2float~;
#X obj 70 638 else/float2sig~;
#X obj 191 612 else/s2f~;
#X obj 191 638 else/f2s~;
#X obj 70 584 else/pipe2;
#X obj 70 312 else/default;
#X obj 70 45 else/nmess;
#X obj 70 557 else/store;
#A saved;
#X obj 70 21 else/swap2;
#X obj 71 141 else/route2;
#X restore 229 255 pd Message_management;
#N canvas 522 132 182 91 Assorted 0;
#X obj 73 30 else;
#X restore 71 222 pd Assorted;
#N canvas 835 177 225 194 Table 0;
#X obj 70 43 else/tabgen;
#X obj 70 70 else/tabreader;
#X obj 70 100 else/tabreader~;
#X obj 71 129 else/buffer;
#X restore 305 222 pd Table;
#N canvas 403 148 235 240 OSC 0;
#X obj 64 48 else/osc.route;
#X obj 64 80 else/osc.format;
#X obj 64 112 else/osc.parse;
#X obj 64 144 else/osc.send;
#X obj 64 176 else/osc.receive;
#X restore 219 284 pd OSC;
#N canvas 410 296 313 226 Control(Mouse/keyboard_interaction) 0;
#X obj 84 52 else/mouse;
#X obj 85 80 else/canvas.mouse;
#X obj 85 112 else/keycode;
#X obj 83 145 else/keymap;
#X obj 85 180 else/keypress;
#X restore 241 469 pd Control(Mouse/keyboard_interaction);
#N canvas 848 204 238 265 Synthesizers 0;
#X obj 78 116 else/plaits~;
#X obj 79 144 else/sfz~;
#X obj 78 173 else/sfont~;
#X obj 79 206 else/synth~;
#X obj 78 23 else/pm2~;
#X obj 78 49 else/pm4~;
#X obj 78 79 else/pm6~, f 10;
#X restore 402 406 pd Synthesizers;
#N canvas 162 143 378 247 DSP(delays) 0;
#X obj 101 95 else/fbdelay~;
#X obj 101 121 else/ffdelay~;
#X obj 101 147 else/revdelay~;
#X obj 102 173 else/filterdelay~;
#X obj 101 46 else/del.in~ \$0x;
#X obj 101 69 else/del.out~ \$0x;
#X restore 171 376 pd DSP(delays);
#N canvas 89 79 314 198 time 0;
#X obj 120 58 else/chrono;
#X obj 114 88 else/datetime;
#X restore 200 222 pd time;
#N canvas 568 23 219 496 Tuning/notes 0;
#X obj 50 68 else/autotune;
#X obj 50 91 else/autotune2;
#X obj 50 161 else/retune;
#X obj 50 186 else/eqdiv;
#X obj 50 294 else/frac2dec;
#X obj 50 363 else/midi2freq;
#X obj 50 44 else/scales;
#X obj 50 250 else/cents2frac;
#X obj 50 272 else/frac2cents;
#X obj 50 207 else/scale2cents;
#X obj 50 227 else/cents2scale;
#X obj 50 340 else/freq2midi;
#X obj 50 318 else/dec2frac;
#X obj 50 114 else/makenote2;
#X obj 50 137 else/scala;
#X obj 50 409 else/midi2note;
#X obj 50 386 else/note2midi;
#X obj 50 433 else/notedur2ratio;
#X restore 367 222 pd Tuning/notes;
#N canvas 445 74 436 508 List_management 0;
#X obj 73 20 else/break;
#X obj 73 45 else/order;
#X obj 73 69 else/group;
#X obj 73 93 else/combine;
#X obj 72 116 else/scramble;
#X obj 73 139 else/buffer;
#X obj 73 163 else/interpolate;
#X obj 73 237 else/morph;
#X obj 73 260 else/sort;
#X obj 73 282 else/iterate;
#X obj 73 307 else/insert;
#X obj 72 332 else/reverse;
#X obj 72 357 else/rotate;
#X obj 72 381 else/sum;
#X obj 72 405 else/slice;
#X obj 72 475 else/stream;
#X obj 73 499 else/merge;
#X obj 73 522 else/unmerge;
#X obj 72 428 else/morph;
#X obj 72 452 else/interpolate;
#X obj 73 546 else/amean;
#X obj 74 567 else/gmean;
#X obj 73 188 else/delete;
#X obj 73 213 else/replace;
#X obj 72 595 else/remove;
#X obj 72 621 else/equal;
#X obj 73 645 else/list.inc;
#X obj 73 720 else/lace;
#X obj 73 745 else/delace;
#X obj 74 693 else/rand.dev;
#X obj 73 670 else/list.harm;
#X restore 367 255 pd List_management;
#N canvas 479 51 243 411 Audio 0;
#X obj 87 26 else/nchs~;
#X obj 87 51 else/pick~;
#X obj 87 76 else/get~;
#X obj 87 103 else/sum~;
#X obj 87 131 else/merge~;
#X obj 87 185 else/select~;
#X obj 87 158 else/unmerge~;
#X obj 87 215 else/slice~;
#X obj 87 246 else/repeat~;
#X obj 89 274 else/lace~;
#X obj 89 302 else/delace~;
#X obj 89 362 else/mix~;
#X obj 89 332 else/group~;
#X restore 285 315 pd Audio Multichannel Tools;
#N canvas 696 90 297 439 Noise/chaotic/stochastic 0;
#X obj 85 85 else/brown~;
#X obj 85 115 else/crackle~;
#X obj 85 145 else/perlin~;
#X obj 85 178 else/cusp~;
#X obj 85 207 else/fbsine~;
#X obj 85 240 else/fbsine2~;
#X obj 85 269 else/gbman~;
#X obj 85 297 else/gray~;
#X obj 85 326 else/henon~;
#X obj 85 355 else/ikeda~;
#X obj 85 382 else/latoocarfian~;
#X obj 84 410 else/lorenz~;
#X obj 83 440 else/lfnoise~;
#X obj 83 468 else/lincong~;
#X obj 83 496 else/logistic~;
#X obj 82 524 else/quad~;
#X obj 82 552 else/rampnoise~;
#X obj 82 580 else/randpulse~;
#X obj 82 611 else/randpulse2~;
#X obj 82 638 else/standard~;
#X obj 82 668 else/stepnoise~;
#X obj 83 727 else/xmod~;
#X obj 83 754 else/xmod2~;
#X obj 85 59 else/white~;
#X obj 83 697 else/pink~;
#X obj 84 32 else/gendyn~;
#X obj 83 783 else/velvet~;
#X restore 45 469 pd Noise/chaotic/stochastic;
#X obj 459 56 else/setdsp~;
#X obj 385 56 bng 33 250 50 0 empty empty empty 0 -8 0 10 #dfdfdf #000000 #000000;
#X obj 282 131 else/meter;
#X obj 282 152 nbx 3 15 -1e+37 1e+37 0 0 \$0-x \$0-x empty 0 -8 0 13 #dfdfdf #000000 #000000 0 256;
#X obj 339 57 tgl 33 0 empty empty empty 0 -8 0 10 #dfdfdf #000000 #000000 0 1;
#N canvas 149 184 672 303 (subpatch) 0;
#X coords 0 -1 1 1 280 31 2 100 100;
#X restore 17 34 pd;
#X text 334 36 TEST DSP STUFF;
#N canvas 622 222 370 199 analog 0;
#X obj 148 91 else/circuit~;
#X restore 136 346 pd analog circuitry emulation;
#X obj 133 151 All_about_else;
#X text 143 131 see also:;
#X text 7 628 =====================================================================================, f 85;
#X obj 328 655 about.MERDA;
#X text 89 655 ELSE includes M.E.R.D.A \, check it out:;
#N canvas 886 296 324 169 scripting 0;
#X obj 136 60 else/lua;
#X restore 329 346 pd scripting;
#X connect 45 0 1 0;
#X connect 46 0 47 0;
#X connect 48 0 1 0;
