#N canvas 349 48 849 655 12;
#X obj 73 25 cnv 15 250 40 empty empty empty 12 13 0 18 #7c7c7c #e0e4dc 0;
#N canvas 382 141 749 319 (subpatch) 0;
#X coords 0 -1 1 1 252 42 2 100 100;
#X restore 72 24 pd;
#X obj 112 32 cnv 10 10 10 empty empty ELSE 0 15 2 30 #7c7c7c #e0e4dc 0;
#X obj 225 32 cnv 10 10 10 empty empty EL 0 6 2 13 #7c7c7c #e0e4dc 0;
#X obj 245 32 cnv 10 10 10 empty empty Locus 0 6 2 13 #7c7c7c #e0e4dc 0;
#X obj 282 32 cnv 10 10 10 empty empty Solus' 0 6 2 13 #7c7c7c #e0e4dc 0;
#X obj 231 47 cnv 10 10 10 empty empty ELSE 0 6 2 13 #7c7c7c #e0e4dc 0;
#X obj 269 47 cnv 10 10 10 empty empty library 0 6 2 13 #7c7c7c #e0e4dc 0;
#X text 133 75 by Porres & others;
#X text 25 335 ELSE is shipped with a huge and general computer music tutorial that depends on the library. Find the folder named Live-Electronics-Tutorial inside the else folder and check its readme., f 52;
#X obj 472 114 else/openfile -h https://www.patreon.com/porres;
#X text 456 397 ELSE is also part of the amazing PlugData project by Tim Schoen. Check it out!, f 49;
#X obj 665 421 else/openfile -h https://plugdata.org/;
#X text 460 148 You can also send me some cash on paypal:;
#X text 691 113 <-- click;
#X text 460 201 Brasileiros podem apoiar mandando PIX:;
#X text 633 224 el.locus.solus@gmail.com;
#X text 644 166 mentalosmosis@yahoo.com;
#X text 25 234 To use the browser plugin \, right click on an empty space on the patch canvas and check entry menus for 'vanilla' and 'else' \, which will allow you to choose and add the desired object in the spot you right clicked on. The objects are separated by categories and is a nice way to check the objects in ELSE., f 52;
#X obj 461 310 else/openfile -h https://www.instagram.com/alexandre.torres.porres/;
#X text 460 258 I post lots of Pd stuff in my instagram \, you can follow me if you like for some ELSE news and more stuff:, f 48;
#X obj 522 358 else/openfile -h https://www.instagram.com/el.locus.solus/;
#X text 462 337 sometimes it is named as:;
#X obj 258 421 All_about_else;
#X text 65 421 Check for more details -->;
#X text 25 123 Hey \, you downloaded the 'ELSE' library from 'deken' \, nice! This is a library mostly composed of separate binaries \, so you need to add its path to your search paths. You must also load the 'else' binary as a library \, which will give you some information on the terminal \, install an object browser plugin and allow 'lua' scripting., f 52;
#X text 471 480 Note: - If you already had an earlier version of ELSE installed when you downloaded this version \, you have to restart Pure Data for some changes to take effect!!!, f 45;
#N canvas 558 286 432 535 all_objects 0;
#X msg 282 103 version;
#X obj 242 189 symbol;
#X obj 67 234 file which;
#X obj 67 441 file splitname;
#X msg 67 470 \; pd open \$2 \$1;
#X obj 308 167 t s;
#X obj 182 221 t s b;
#X obj 182 246 spigot;
#X msg 242 247 1;
#X obj 182 331 pdcontrol;
#X obj 182 278 file splitname;
#X obj 182 390 file normalize;
#X obj 182 363 file which;
#X msg 182 301 dir 0 ../9.else/\$2;
#X obj 242 220 sel plugdata Pd-Vanilla;
#X obj 282 36 loadbang;
#X obj 282 129 else, f 6;
#X msg 67 159 symbol else/All_else_objects.pd;
#X obj 67 120 delay 1500;
#X connect 0 0 16 0;
#X connect 1 0 14 0;
#X connect 2 0 3 0;
#X connect 2 1 6 0;
#X connect 3 0 4 0;
#X connect 5 0 1 1;
#X connect 6 0 7 0;
#X connect 6 1 1 0;
#X connect 7 0 10 0;
#X connect 8 0 7 1;
#X connect 9 0 12 0;
#X connect 10 0 13 0;
#X connect 11 0 3 0;
#X connect 12 0 11 0;
#X connect 13 0 9 0;
#X connect 14 0 8 0;
#X connect 15 0 0 0;
#X connect 15 0 18 0;
#X connect 16 2 5 0;
#X connect 17 0 2 0;
#X connect 18 0 17 0;
#X restore 207 573 pd all_objects;
#X obj 19 456 cnv 19 410 100 empty empty empty 20 12 0 12 #ffc7c6 #404040 0;
#X text 27 462 MAC users \, hold on as Pd is freezing while it takes a good amount of time to open "All_else_objects" \, which loads ALL objects from ELSE. This is a one time thing and the externals will load fast afterwards. I think it's best to wait for them all to load like this and never worry anymore with externals taking long to load., f 55;
#X text 449 32 Please consider supporting this project by paying me a monthly coffe \, or beer \, or some other cheap drug on Patreon. I also offer exclusive rewards for subscribers., f 50;
