#N canvas 708 52 560 513 10;
#X obj 4 337 cnv 3 550 3 empty empty inlets 8 12 0 13 -228856 -1 0
;
#X obj 4 404 cnv 3 550 3 empty empty outlets 8 12 0 13 -228856 -1 0
;
#X obj 4 439 cnv 3 550 3 empty empty arguments 8 12 0 13 -228856 -1
0;
#X obj 86 413 cnv 17 3 17 empty empty 0 5 9 0 16 -228856 -162280 0
;
#X obj 87 346 cnv 17 3 50 empty empty 0 5 9 0 16 -228856 -162280 0
;
#X obj 4 472 cnv 15 552 21 empty empty empty 20 12 0 14 -233017 -33289
0;
#X text 161 364 bang;
#X text 167 382 set;
#X text 125 345 float/list;
#X text 191 345 - cents value(s);
#X text 191 413 - converted ratio value(s);
#X obj 3 3 cnv 15 301 42 empty empty flipflop~ 20 20 2 37 -233017 -1
0;
#X obj 306 4 cnv 15 250 40 empty empty empty 12 13 0 18 -128992 -233080
0;
#N canvas 0 22 450 278 (subpatch) 0;
#X coords 0 1 100 -1 302 42 1 0 0;
#X restore 2 3 graph;
#N canvas 382 141 749 319 (subpatch) 0;
#X coords 0 -1 1 1 252 42 2 100 100;
#X restore 305 3 pd;
#X obj 345 11 cnv 10 10 10 empty empty ELSE 0 15 2 30 -128992 -233080
0;
#X obj 23 40 cnv 4 4 4 empty empty Toggle 0 28 2 18 -233017 -1 0;
#X obj 82 40 cnv 4 4 4 empty empty flip 0 28 2 18 -233017 -1 0;
#X obj 458 11 cnv 10 10 10 empty empty EL 0 6 2 13 -128992 -233080
0;
#X obj 478 11 cnv 10 10 10 empty empty Locus 0 6 2 13 -128992 -233080
0;
#X obj 515 11 cnv 10 10 10 empty empty Solus' 0 6 2 13 -128992 -233080
0;
#X obj 464 26 cnv 10 10 10 empty empty ELSE 0 6 2 13 -128992 -233080
0;
#X obj 502 26 cnv 10 10 10 empty empty library 0 6 2 13 -128992 -233080
0;
#X text 125 413 float/list;
#X text 137 448 1) float - initial cents value (default 0);
#X text 191 382 - sets next value to be converted via bang (only float)
;
#X text 191 364 - convert or output the last converted value (only
float);
#X obj 116 40 cnv 4 4 4 empty empty flop 0 28 2 18 -233017 -1 0;
#X obj 186 275 nbx 8 14 -1e+37 1e+37 0 0 empty empty empty 0 -8 0 10
-228856 -1 -1 0 256;
#N canvas 1046 306 123 217 snapshot~ 0;
#X obj 29 107 snapshot~;
#X obj 46 79 metro 100;
#X obj 46 53 loadbang;
#X obj 29 146 outlet;
#X obj 29 25 inlet~;
#X connect 0 0 3 0;
#X connect 1 0 0 0;
#X connect 2 0 1 0;
#X connect 4 0 0 0;
#X restore 186 246 pd snapshot~;
#X obj 186 213 else/flipflop~;
#X obj 186 174 trigate~;
#X obj 184 148 bng 15 250 50 0 empty empty empty 17 7 0 10 -262144
-1 -1;
#X obj 294 183 trigate~;
#X obj 292 157 bng 15 250 50 0 empty empty empty 17 7 0 10 -262144
-1 -1;
#X obj 46 173 number~;
#X text 61 86 set resset flip flop;
#X connect 29 0 28 0;
#X connect 30 0 29 0;
#X connect 31 0 30 0;
#X connect 32 0 31 0;
#X connect 33 0 30 1;
#X connect 34 0 33 0;
#X connect 35 0 30 0;
