#N canvas 448 83 447 385 12;
#X declare -lib pdlua;
#X obj 106 86 tgl 20 0 empty empty empty 17 7 0 10 #dfdfdf #000000 #000000 0 1;
#X obj 106 140 tictoc 1000;
#X obj 106 179 bng 20 250 50 0 empty empty empty 17 7 0 10 #dfdfdf #000000 #000000;
#X obj 180 314 noteout 10;
#X msg 180 86 500;
#X msg 214 86 250;
#X msg 248 86 100;
#X msg 282 86 50;
#X msg 139 86 1000;
#X msg 106 213 32;
#X msg 180 213 33;
#X obj 180 273 makenote 64 50;
#X obj 228 28 declare -lib pdlua;
#X obj 180 179 bng 20 250 50 0 empty empty empty 17 7 0 10 #dfdfdf #000000 #000000;
#X connect 0 0 1 0;
#X connect 1 0 2 0;
#X connect 1 1 13 0;
#X connect 2 0 9 0;
#X connect 4 0 1 1;
#X connect 5 0 1 1;
#X connect 6 0 1 1;
#X connect 7 0 1 1;
#X connect 8 0 1 1;
#X connect 9 0 11 0;
#X connect 10 0 11 0;
#X connect 11 0 3 0;
#X connect 11 1 3 1;
#X connect 13 0 10 0;
