#N canvas 503 63 691 626 12;
#X declare -path else;
#X obj 491 34 declare -path else;
#X obj 103 319 tgl 20 0 empty empty empty 17 7 0 10 #dfdfdf #000000
#000000 0 1;
#X floatatom 156 326 5 0 0 0 - - - 0;
#X obj 126 534 out~;
#X obj 70 319 bng 20 250 50 0 empty empty empty 17 7 0 10 #dfdfdf #000000
#000000;
#X obj 103 393 bng 17 250 50 0 empty empty empty 17 7 0 10 #dfdfdf
#000000 #000000;
#X obj 213 393 bng 17 250 50 0 empty empty empty 17 7 0 10 #dfdfdf
#000000 #000000;
#X obj 302 393 bng 17 250 50 0 empty empty empty 17 7 0 10 #dfdfdf
#000000 #000000;
#X obj 280 326 else/display 4;
#X msg 280 251 1/3;
#X msg 269 229 4/3;
#X msg 294 300 0.75;
#X msg 288 276 1.5;
#X obj 383 326 else/display 4;
#X msg 372 229 3/2;
#X msg 383 251 0.333333;
#X msg 397 300 3/4;
#X msg 391 276 2/3;
#X obj 213 325 tgl 20 0 empty empty empty 17 7 0 10 #dfdfdf #000000
#000000 0 1;
#X text 43 80 A [clock] object sends bangs at a regular tempo and controls
other synced [clock] objects with a relative tempo. This is similar
to the last example with [pimpmul~] \, because when you change the
relative tempo \, you can't keep them in sync anymore., f 87;
#X obj 242 325 bng 20 250 50 0 empty empty empty 17 7 0 10 #dfdfdf
#000000 #000000;
#X text 43 136 This would be a control equivalent \, but now we have
a single object \, that can be either a "master" or a "slave". We've
seen this term when studying "hard sync" and it's worth noting that
despite old literature uses these terms there's an understanding we
should stop using them. One option is to use "main" and "synced" instead.
See the help file of the object., f 87;
#X obj 103 364 clock 60;
#X obj 213 364 clock -s 2;
#X obj 302 364 clock -s 3/2;
#X obj 508 489 tap;
#X obj 508 452 bng 17 250 50 0 empty empty empty 17 7 0 10 #dfdfdf
#000000 #000000;
#X floatatom 508 525 7 0 0 0 - - - 0;
#X text 444 387 See also the [tap] object that can set a tempo from
"tapping" on a bang., f 25;
#X obj 103 421 impseq~;
#X obj 213 421 impseq~;
#X obj 302 421 impseq~;
#X obj 302 458 resonant~ 2350 200, f 9;
#X obj 213 458 resonant~ 1050 200, f 9;
#X obj 103 497 drive~ 5;
#X obj 103 451 resonant~ 450 300, f 9;
#X connect 1 0 22 0;
#X connect 2 0 22 1;
#X connect 4 0 22 0;
#X connect 5 0 29 0;
#X connect 6 0 30 0;
#X connect 7 0 31 0;
#X connect 8 0 23 1;
#X connect 9 0 8 0;
#X connect 10 0 8 0;
#X connect 11 0 8 0;
#X connect 12 0 8 0;
#X connect 13 0 24 1;
#X connect 14 0 13 0;
#X connect 15 0 13 0;
#X connect 16 0 13 0;
#X connect 17 0 13 0;
#X connect 18 0 23 0;
#X connect 18 0 24 0;
#X connect 20 0 23 0;
#X connect 20 0 24 0;
#X connect 22 0 5 0;
#X connect 23 0 6 0;
#X connect 24 0 7 0;
#X connect 25 0 27 0;
#X connect 26 0 25 0;
#X connect 29 0 35 0;
#X connect 30 0 33 0;
#X connect 31 0 32 0;
#X connect 32 0 3 1;
#X connect 33 0 3 1;
#X connect 34 0 3 0;
#X connect 35 0 34 0;
