#N canvas 269 57 894 724 12;
#X declare -path else;
#X obj 170 296 readsf~;
#X msg 125 259 stop;
#X obj 245 298 spigot;
#X obj 284 270 tgl 19 0 empty empty empty 17 7 0 10 #dcdcdc #000000 #000000 0 1;
#X text 307 270 loop;
#X obj 220 206 openpanel;
#X obj 220 179 bng 19 250 50 0 empty empty empty 17 7 0 10 #dcdcdc #000000 #000000;
#X msg 170 270 open \$1 \, 1;
#X obj 170 329 out~;
#X obj 170 168 bng 19 250 50 0 empty empty empty 17 7 0 10 #dcdcdc #000000 #000000;
#X text 243 181 Choose file;
#X text 127 167 play;
#X text 25 72 An open message with a sound file is needed every time before playing the file. A "start" message (or a non zero number) plays the file \, and a "stop" (or zero) stops it. When its done playing \, a bang is sent out the right outlet. We use this bang for a loop below., f 60;
#X obj 121 654 out~;
#X obj 121 551 bng 19 250 50 0 empty empty empty 17 7 0 10 #dcdcdc #000000 #000000;
#X obj 173 490 tgl 19 0 empty empty empty 17 7 0 10 #dcdcdc #000000 #000000 0 1;
#X text 84 551 play;
#X msg 173 517 loop \$1;
#X msg 177 545 open;
#X text 218 546 Choose file;
#X msg 178 571 stop;
#X obj 641 38 declare -path else;
#X text 25 10 The simplest way to play a sound file in Pd Vanilla is with the [readsf~] object. It plays directly from your hard drive and offers not that many features. Check help file for more details.;
#X obj 272 650 bng 18 250 50 0 empty empty empty 17 7 0 10 #dcdcdc #000000 #000000;
#X text 298 650 fiinisehd;
#X obj 121 618 play.file~ violin.flac;
#X obj 170 244 symbol voice.wav;
#X text 35 400 The [play.file~] object from ELSE is a compiled object that is much more convenient \, with multi channel support and also support for MP3 \, FLAC \, WAV \, AIF \, AAC \, OGG & OPUS file extensions. Check its help file for more details and features., f 57;
#X obj 524 218 tgl 20 0 empty empty empty 17 7 0 10 #dcdcdc #000000 #000000 0 1;
#X msg 557 284 stream http://netpd.org:8010/netpd.mp3;
#X msg 570 347 stream http://localhost:8000/pd.ogg;
#X msg 547 254 open https://radio.plaza.one/ogg;
#X text 595 226 open live stream from links;
#X text 601 323 open a local stream;
#X obj 694 403 tgl 21 0 empty empty empty 0 -8 0 10 #dfdfdf #000000 #000000 0 1;
#X obj 694 524 tgl 21 0 empty empty empty 0 -8 0 10 #dfdfdf #000000 #000000 0 1;
#X obj 706 446 noise~;
#X obj 760 447 osc~ 440;
#X obj 523 416 streamin~ 2;
#X obj 523 463 out~;
#X text 519 89 [streamin~] is kinda like [play.file~] \, but browses and plays files from web links. It supports AAC \, AIF \, CAF \, FLAC \, MP3 \, OGG \, OPUS & WAV. It works for either for live stream or files hosted online (in which case the object works just like [play.file~])., f 44;
#X obj 694 494 streamout~;
#X text 537 583 [streamout~] is more limited for now. It streams ogg files via an icecast server. Support for more formats is comming. Check the help file of both files., f 41;
#X connect 0 0 8 0;
#X connect 0 1 2 0;
#X connect 1 0 0 0;
#X connect 2 0 9 0;
#X connect 3 0 2 1;
#X connect 5 0 26 0;
#X connect 6 0 5 0;
#X connect 7 0 0 0;
#X connect 9 0 26 0;
#X connect 14 0 25 0;
#X connect 15 0 17 0;
#X connect 17 0 25 0;
#X connect 18 0 25 0;
#X connect 20 0 25 0;
#X connect 25 0 13 0;
#X connect 25 1 23 0;
#X connect 26 0 7 0;
#X connect 28 0 38 0;
#X connect 29 0 38 0;
#X connect 30 0 38 0;
#X connect 31 0 38 0;
#X connect 34 0 41 0;
#X connect 36 0 41 0;
#X connect 37 0 41 1;
#X connect 38 0 39 0;
#X connect 38 1 39 1;
#X connect 41 0 35 0;
