#N canvas 379 23 596 471 12;
#X declare -path else;
#X obj 428 47 declare -path else;
#X obj 111 309 osc~ 440;
#X obj 69 350 out4~;
#X obj 210 350 out8~;
#X text 69 414 quadraphonic;
#X text 228 410 octaphonic;
#X text 39 227 There are also [out4~] and [out8~] for quadraphonic and octaphonic input/output setups., f 40;
#X obj 69 138 out.mc~;
#X text 58 32 The ELSE library also offers [out.mc~] for multichannel input/output., f 39;
#X obj 69 97 osc.mc~ 220 440 660 880;
#X text 242 96 4 channel input;
#X obj 456 279 gain2~;
#X obj 440 397 dac~;
#X obj 250 309 osc~ 880;
#X obj 456 213 osc~ 440;
#X obj 475 245 osc~ 880;
#X text 415 136 there's also [gain2~] for a stereo input., f 21;
#X connect 1 0 2 0;
#X connect 1 0 2 1;
#X connect 1 0 2 2;
#X connect 1 0 2 3;
#X connect 9 0 7 0;
#X connect 11 0 12 0;
#X connect 11 1 12 1;
#X connect 13 0 3 0;
#X connect 13 0 3 1;
#X connect 13 0 3 2;
#X connect 13 0 3 3;
#X connect 13 0 3 4;
#X connect 13 0 3 5;
#X connect 13 0 3 6;
#X connect 13 0 3 7;
#X connect 14 0 11 0;
#X connect 15 0 11 1;
