#N canvas 579 63 483 711 12;
#X declare -path else;
#X obj 255 26 declare -path else;
#X obj 304 201 level~;
#A saved 0;
#X obj 304 169 noise~;
#X obj 304 289 meter~;
#X obj 216 596 out~;
#X obj 119 231 level.m~;
#A saved 0;
#A saved;
#X obj 119 429 meter~;
#X text 76 75 The [level.m~] is the MERDA version of [level~] and is just a simple tool for adjusting the level whose only difference to the original GUI abstraction is the fact that it has state saving and the preset management., f 48;
#X connect 1 0 3 0;
#X connect 2 0 1 0;
#X connect 2 0 5 0;
#X connect 3 0 4 1;
#X connect 5 0 6 0;
#X connect 6 0 4 0;
