#N canvas 620 38 567 637 12;
#X declare -path else;
#X obj 193 491 free.rev~;
#X text 58 57 The [free.rev~] object from ELSE is an abstraction that implements the widely known 'freeverb' open source algorithm., f 59;
#X text 58 106 It uses a Schroeder/Moorer model design \, with 8 comb filters in parallel going into 4 stages of allpass filters., f 59;
#X text 58 142 This example is a bit more sophisticated. Like the FDN reverberastors \, it has a 'decay' parameter (which affects the feedback coefficient of the comb filters) and a high frequency damping parameter (that controls the cutoff of an internal lowpass filter).;
#X obj 193 318 hsl 128 15 0 1 0 1 empty empty empty 20 8 0 10 #dcdcdc #000000 #000000 9400 0;
#X floatatom 190 344 5 0 0 0 - - - 0;
#X floatatom 273 368 5 0 0 0 - - - 0;
#X msg 273 394 damp \$1;
#X obj 276 345 hsl 128 15 0 1 0 1 empty empty empty 20 8 0 10 #dcdcdc #000000 #000000 8300 0;
#X msg 190 370 decay \$1;
#X obj 351 381 hsl 128 15 0 1 0 1 empty empty empty 20 8 0 10 #dcdcdc #000000 #000000 8100 0;
#X floatatom 348 404 5 0 0 0 - - - 0;
#X msg 348 428 wet \$1;
#X obj 331 16 declare -path else;
#X obj 177 530 out~;
#X text 58 219 Additionally \, it has a 'width' parameter that controls how much both inputs are mixed or not. This controls the stereo spread. Open the abstraction to check it out. Check also its help file.;
#X obj 60 386 play.file~ didge.flac 1 1, f 14;
#X connect 0 0 14 0;
#X connect 0 1 14 1;
#X connect 4 0 5 0;
#X connect 5 0 9 0;
#X connect 6 0 7 0;
#X connect 7 0 0 0;
#X connect 8 0 6 0;
#X connect 9 0 0 0;
#X connect 10 0 11 0;
#X connect 11 0 12 0;
#X connect 12 0 0 0;
#X connect 16 0 0 0;
#X connect 16 1 0 1;
