#N canvas 557 60 656 424 12;
#X declare -path else;
#X msg 162 285 resize \$1;
#X obj 75 26 inlet;
#X obj 130 181 list length;
#X obj 75 270 else/order;
#X obj 75 374 outlet~;
#X msg 255 289 all \$1;
#X obj 255 263 f;
#X obj 255 26 inlet;
#N canvas 212 149 467 313 init 0;
#X obj 125 71 else/args;
#X obj 125 139 list split 1;
#X obj 125 37 loadbang;
#X obj 165 180 route bang;
#X obj 232 222 s \$0-list;
#X obj 126 244 outlet;
#X connect 0 0 1 0;
#X connect 1 0 5 0;
#X connect 1 1 3 0;
#X connect 2 0 0 0;
#X connect 3 1 4 0;
#X restore 269 231 pd init;
#X obj 162 259 change 1;
#X text 374 153 Part of ELSE \; https://github.com/porres/pd-else;
#X text 376 134 Alexandre Torres Porres (2023);
#X obj 98 91 r \$0-list;
#X obj 436 250 else/order;
#X obj 98 115 t l l;
#X obj 130 213 t b f;
#X obj 75 191 t l l;
#X obj 75 326 clone -do -x 1 float2sig.unit, f 52;
#X obj 398 79 declare -path else;
#X connect 0 0 17 0;
#X connect 1 0 16 0;
#X connect 2 0 15 0;
#X connect 3 0 17 0;
#X connect 5 0 17 1;
#X connect 6 0 5 0;
#X connect 7 0 6 0;
#X connect 8 0 6 0;
#X connect 9 0 0 0;
#X connect 12 0 14 0;
#X connect 13 0 17 2;
#X connect 14 0 13 0;
#X connect 14 1 2 0;
#X connect 15 0 6 0;
#X connect 15 1 9 0;
#X connect 16 0 3 0;
#X connect 16 1 2 0;
#X connect 17 0 4 0;
