#N canvas 487 115 686 413 12;
#X declare -path else;
#X obj 96 84 abs~;
#X obj 96 203 fexpr~ if($x > $y \, $x \, $y);
#X obj 96 14 inlet~;
#X obj 96 331 outlet~;
#X obj 214 14 inlet;
#X obj 214 65 route bang;
#X text 423 113 Part of ELSE \; https://github.com/porres/pd-else;
#X text 425 94 Alexandre Torres Porres (2019);
#X obj 334 331 outlet;
#X msg 214 127 set -100;
#X obj 96 110 else/lin2db~;
#X obj 334 234 else/trig2bang~;
#X obj 334 203 else/above~;
#X obj 489 181 declare -path else;
#X obj 226 255 else/db2lin~;
#X obj 96 287 else/xselect~ 2 0 1;
#X obj 135 46 route lin;
#X obj 32 96 != 0;
#X obj 32 120 + 1;
#X obj 316 91 else/args -;
#X obj 316 63 loadbang;
#X obj 316 115 route -lin;
#X msg 316 139 2;
#X obj 316 163 s \$0-sel;
#X obj 113 256 r \$0-sel;
#X connect 0 0 10 0;
#X connect 1 0 14 0;
#X connect 1 0 15 0;
#X connect 2 0 0 0;
#X connect 2 1 16 0;
#X connect 4 0 5 0;
#X connect 5 0 9 0;
#X connect 9 0 1 0;
#X connect 10 0 1 0;
#X connect 10 0 12 0;
#X connect 11 0 8 0;
#X connect 12 0 11 0;
#X connect 14 0 15 1;
#X connect 15 0 3 0;
#X connect 16 0 17 0;
#X connect 17 0 18 0;
#X connect 18 0 15 0;
#X connect 19 0 21 0;
#X connect 20 0 19 0;
#X connect 20 0 9 0;
#X connect 21 0 22 0;
#X connect 22 0 23 0;
#X connect 24 0 15 0;
