#N canvas 173 57 1166 439 10;
#X declare -path else;
#X obj 51 151 cnv 15 176 144 empty empty empty 20 12 0 14 #e0e0e0 #404040 0;
#X obj 181 158 vu 15 120 \$0-R empty -1 -8 0 10 #000000 #000000 1 0;
#X obj 163 158 vu 15 120 \$0-L empty -1 -8 0 10 #000000 #000000 0 0;
#X obj 789 12 inlet~;
#X obj 878 14 inlet~;
#X obj 976 197 pack;
#X obj 1008 197 pack;
#X text 46 350 Part of ELSE \; https://github.com/porres/pd-else;
#X obj 51 151 cnv 1 6 1 empty empty empty 20 12 0 14 #000000 #404040 0;
#X obj 74 151 cnv 1 7 1 empty empty empty 20 12 0 14 #000000 #404040 0;
#X obj 879 332 outlet~;
#X obj 789 333 outlet~;
#X obj 932 331 outlet;
#X obj 629 12 inlet~;
#X obj 718 14 inlet~;
#X obj 719 332 outlet~;
#X obj 629 333 outlet~;
#X obj 145 158 vu 15 120 \$0-L empty -1 -8 0 10 #000000 #000000 0 0;
#X obj 127 158 vu 15 120 \$0-L empty -1 -8 0 10 #000000 #000000 0 0;
#X obj 98 151 cnv 1 7 1 empty empty empty 20 12 0 14 #000000 #404040 0;
#X obj 123 151 cnv 1 7 1 empty empty empty 20 12 0 14 #000000 #404040 0;
#X obj 909 197 pack;
#X obj 943 197 pack;
#X text 48 331 Alexandre Torres Porres (2019);
#X obj 449 12 inlet~;
#X obj 538 14 inlet~;
#X obj 539 332 outlet~;
#X obj 449 333 outlet~;
#X obj 289 12 inlet~;
#X obj 378 14 inlet~;
#X obj 379 332 outlet~;
#X obj 289 333 outlet~;
#X obj 109 158 vu 15 120 \$0-L empty -1 -8 0 10 #000000 #000000 0 0;
#X obj 91 158 vu 15 120 \$0-L empty -1 -8 0 10 #000000 #000000 0 0;
#X obj 73 158 vu 15 120 \$0-L empty -1 -8 0 10 #000000 #000000 0 0;
#X obj 55 158 vu 15 120 \$0-L empty -1 -8 0 10 #000000 #000000 0 0;
#X obj 147 151 cnv 1 7 1 empty empty empty 20 12 0 14 #000000 #404040 0;
#X obj 196 151 cnv 1 7 1 empty empty empty 20 12 0 14 #000000 #404040 0;
#X obj 172 151 cnv 1 7 1 empty empty empty 20 12 0 14 #000000 #404040 0;
#X obj 221 151 cnv 1 6 1 empty empty empty 20 12 0 14 #000000 #404040 0;
#X obj 51 294 cnv 1 6 1 empty empty empty 20 12 0 14 #000000 #404040 0;
#X obj 71 294 cnv 1 7 1 empty empty empty 20 12 0 14 #000000 #404040 0;
#X obj 92 294 cnv 1 7 1 empty empty empty 20 12 0 14 #000000 #404040 0;
#X obj 114 294 cnv 1 7 1 empty empty empty 20 12 0 14 #000000 #404040 0;
#X obj 135 294 cnv 1 7 1 empty empty empty 20 12 0 14 #000000 #404040 0;
#X obj 178 294 cnv 1 7 1 empty empty empty 20 12 0 14 #000000 #404040 0;
#X obj 157 294 cnv 1 7 1 empty empty empty 20 12 0 14 #000000 #404040 0;
#X obj 221 294 cnv 1 6 1 empty empty empty 20 12 0 14 #000000 #404040 0;
#X obj 199 294 cnv 1 7 1 empty empty empty 20 12 0 14 #000000 #404040 0;
#X obj 909 285 list;
#X obj 851 220 pack;
#X obj 883 220 pack;
#X obj 784 220 pack;
#X obj 818 220 pack;
#X text 56 279 1;
#X text 75 279 2;
#X text 92 279 3;
#X text 111 279 4;
#X text 128 279 5;
#X text 146 279 6;
#X text 165 279 7;
#X text 183 279 8;
#X obj 930 229 else/merge 4;
#X obj 805 252 else/merge 4;
#X obj 992 77 declare -path else;
#X obj 295 50 snake~ out 8;
#N canvas 275 222 423 406 vu 0;
#X obj 84 57 inlet~;
#X obj 84 202 env~ 1024;
#X obj 176 171 abs~;
#X obj 176 236 snapshot~;
#X obj 176 269 rmstodb;
#X obj 176 201 slop~ 0 0 0 0 1e+09;
#X obj 84 236 t f b;
#X obj 84 277 - 100;
#X obj 176 294 - 100;
#X obj 242 174 expr 1000 / $f1;
#X obj 242 132 else/initmess 500;
#X obj 84 347 outlet;
#X obj 176 347 outlet;
#X connect 0 0 1 0;
#X connect 0 0 2 0;
#X connect 1 0 6 0;
#X connect 2 0 5 0;
#X connect 3 0 4 0;
#X connect 4 0 8 0;
#X connect 5 0 3 0;
#X connect 6 0 7 0;
#X connect 6 1 3 0;
#X connect 7 0 11 0;
#X connect 8 0 12 0;
#X connect 9 0 5 3;
#X connect 10 0 9 0;
#X restore 891 96 pd vu;
#N canvas 275 222 423 406 vu 0;
#X obj 84 57 inlet~;
#X obj 84 202 env~ 1024;
#X obj 176 171 abs~;
#X obj 176 236 snapshot~;
#X obj 176 269 rmstodb;
#X obj 176 201 slop~ 0 0 0 0 1e+09;
#X obj 84 236 t f b;
#X obj 84 277 - 100;
#X obj 176 294 - 100;
#X obj 242 174 expr 1000 / $f1;
#X obj 242 132 else/initmess 500;
#X obj 84 347 outlet;
#X obj 176 347 outlet;
#X connect 0 0 1 0;
#X connect 0 0 2 0;
#X connect 1 0 6 0;
#X connect 2 0 5 0;
#X connect 3 0 4 0;
#X connect 4 0 8 0;
#X connect 5 0 3 0;
#X connect 6 0 7 0;
#X connect 6 1 3 0;
#X connect 7 0 11 0;
#X connect 8 0 12 0;
#X connect 9 0 5 3;
#X connect 10 0 9 0;
#X restore 807 94 pd vu;
#N canvas 275 222 423 406 vu 0;
#X obj 84 57 inlet~;
#X obj 84 202 env~ 1024;
#X obj 176 171 abs~;
#X obj 176 236 snapshot~;
#X obj 176 269 rmstodb;
#X obj 176 201 slop~ 0 0 0 0 1e+09;
#X obj 84 236 t f b;
#X obj 84 277 - 100;
#X obj 176 294 - 100;
#X obj 242 174 expr 1000 / $f1;
#X obj 242 132 else/initmess 500;
#X obj 84 347 outlet;
#X obj 176 347 outlet;
#X connect 0 0 1 0;
#X connect 0 0 2 0;
#X connect 1 0 6 0;
#X connect 2 0 5 0;
#X connect 3 0 4 0;
#X connect 4 0 8 0;
#X connect 5 0 3 0;
#X connect 6 0 7 0;
#X connect 6 1 3 0;
#X connect 7 0 11 0;
#X connect 8 0 12 0;
#X connect 9 0 5 3;
#X connect 10 0 9 0;
#X restore 729 93 pd vu;
#N canvas 275 222 423 406 vu 0;
#X obj 84 57 inlet~;
#X obj 84 202 env~ 1024;
#X obj 176 171 abs~;
#X obj 176 236 snapshot~;
#X obj 176 269 rmstodb;
#X obj 176 201 slop~ 0 0 0 0 1e+09;
#X obj 84 236 t f b;
#X obj 84 277 - 100;
#X obj 176 294 - 100;
#X obj 242 174 expr 1000 / $f1;
#X obj 242 132 else/initmess 500;
#X obj 84 347 outlet;
#X obj 176 347 outlet;
#X connect 0 0 1 0;
#X connect 0 0 2 0;
#X connect 1 0 6 0;
#X connect 2 0 5 0;
#X connect 3 0 4 0;
#X connect 4 0 8 0;
#X connect 5 0 3 0;
#X connect 6 0 7 0;
#X connect 6 1 3 0;
#X connect 7 0 11 0;
#X connect 8 0 12 0;
#X connect 9 0 5 3;
#X connect 10 0 9 0;
#X restore 642 94 pd vu;
#N canvas 275 222 423 406 vu 0;
#X obj 84 57 inlet~;
#X obj 84 202 env~ 1024;
#X obj 176 171 abs~;
#X obj 176 236 snapshot~;
#X obj 176 269 rmstodb;
#X obj 176 201 slop~ 0 0 0 0 1e+09;
#X obj 84 236 t f b;
#X obj 84 277 - 100;
#X obj 176 294 - 100;
#X obj 242 174 expr 1000 / $f1;
#X obj 242 132 else/initmess 500;
#X obj 84 347 outlet;
#X obj 176 347 outlet;
#X connect 0 0 1 0;
#X connect 0 0 2 0;
#X connect 1 0 6 0;
#X connect 2 0 5 0;
#X connect 3 0 4 0;
#X connect 4 0 8 0;
#X connect 5 0 3 0;
#X connect 6 0 7 0;
#X connect 6 1 3 0;
#X connect 7 0 11 0;
#X connect 8 0 12 0;
#X connect 9 0 5 3;
#X connect 10 0 9 0;
#X restore 551 96 pd vu;
#N canvas 275 222 423 406 vu 0;
#X obj 84 57 inlet~;
#X obj 84 202 env~ 1024;
#X obj 176 171 abs~;
#X obj 176 236 snapshot~;
#X obj 176 269 rmstodb;
#X obj 176 201 slop~ 0 0 0 0 1e+09;
#X obj 84 236 t f b;
#X obj 84 277 - 100;
#X obj 176 294 - 100;
#X obj 242 174 expr 1000 / $f1;
#X obj 242 132 else/initmess 500;
#X obj 84 347 outlet;
#X obj 176 347 outlet;
#X connect 0 0 1 0;
#X connect 0 0 2 0;
#X connect 1 0 6 0;
#X connect 2 0 5 0;
#X connect 3 0 4 0;
#X connect 4 0 8 0;
#X connect 5 0 3 0;
#X connect 6 0 7 0;
#X connect 6 1 3 0;
#X connect 7 0 11 0;
#X connect 8 0 12 0;
#X connect 9 0 5 3;
#X connect 10 0 9 0;
#X restore 467 94 pd vu;
#N canvas 275 222 423 406 vu 0;
#X obj 84 57 inlet~;
#X obj 84 202 env~ 1024;
#X obj 176 171 abs~;
#X obj 176 236 snapshot~;
#X obj 176 269 rmstodb;
#X obj 176 201 slop~ 0 0 0 0 1e+09;
#X obj 84 236 t f b;
#X obj 84 277 - 100;
#X obj 176 294 - 100;
#X obj 242 174 expr 1000 / $f1;
#X obj 242 132 else/initmess 500;
#X obj 84 347 outlet;
#X obj 176 347 outlet;
#X connect 0 0 1 0;
#X connect 0 0 2 0;
#X connect 1 0 6 0;
#X connect 2 0 5 0;
#X connect 3 0 4 0;
#X connect 4 0 8 0;
#X connect 5 0 3 0;
#X connect 6 0 7 0;
#X connect 6 1 3 0;
#X connect 7 0 11 0;
#X connect 8 0 12 0;
#X connect 9 0 5 3;
#X connect 10 0 9 0;
#X restore 388 91 pd vu;
#N canvas 275 222 423 406 vu 0;
#X obj 84 57 inlet~;
#X obj 84 202 env~ 1024;
#X obj 176 171 abs~;
#X obj 176 236 snapshot~;
#X obj 176 269 rmstodb;
#X obj 176 201 slop~ 0 0 0 0 1e+09;
#X obj 84 236 t f b;
#X obj 84 277 - 100;
#X obj 176 294 - 100;
#X obj 242 174 expr 1000 / $f1;
#X obj 242 132 else/initmess 500;
#X obj 84 347 outlet;
#X obj 176 347 outlet;
#X connect 0 0 1 0;
#X connect 0 0 2 0;
#X connect 1 0 6 0;
#X connect 2 0 5 0;
#X connect 3 0 4 0;
#X connect 4 0 8 0;
#X connect 5 0 3 0;
#X connect 6 0 7 0;
#X connect 6 1 3 0;
#X connect 7 0 11 0;
#X connect 8 0 12 0;
#X connect 9 0 5 3;
#X connect 10 0 9 0;
#X restore 302 94 pd vu;
#X connect 3 0 11 0;
#X connect 3 0 67 0;
#X connect 4 0 10 0;
#X connect 4 0 66 0;
#X connect 5 0 62 2;
#X connect 5 0 2 0;
#X connect 6 0 62 3;
#X connect 6 0 1 0;
#X connect 13 0 16 0;
#X connect 13 0 69 0;
#X connect 14 0 15 0;
#X connect 14 0 68 0;
#X connect 21 0 62 0;
#X connect 21 0 18 0;
#X connect 22 0 62 1;
#X connect 22 0 17 0;
#X connect 24 0 27 0;
#X connect 24 0 71 0;
#X connect 25 0 26 0;
#X connect 25 0 70 0;
#X connect 28 0 31 0;
#X connect 28 0 65 0;
#X connect 29 0 30 0;
#X connect 29 0 72 0;
#X connect 49 0 12 0;
#X connect 50 0 63 2;
#X connect 50 0 33 0;
#X connect 51 0 63 3;
#X connect 51 0 32 0;
#X connect 52 0 63 0;
#X connect 52 0 35 0;
#X connect 53 0 63 1;
#X connect 53 0 34 0;
#X connect 62 0 49 1;
#X connect 63 0 49 0;
#X connect 65 0 73 0;
#X connect 65 1 72 0;
#X connect 65 2 71 0;
#X connect 65 3 70 0;
#X connect 65 4 69 0;
#X connect 65 5 68 0;
#X connect 65 6 67 0;
#X connect 65 7 66 0;
#X connect 66 0 6 0;
#X connect 66 1 6 1;
#X connect 67 0 5 0;
#X connect 67 1 5 1;
#X connect 68 0 22 0;
#X connect 68 1 22 1;
#X connect 69 0 21 0;
#X connect 69 1 21 1;
#X connect 70 0 51 0;
#X connect 70 1 51 1;
#X connect 71 0 50 0;
#X connect 71 1 50 1;
#X connect 72 0 53 0;
#X connect 72 1 53 1;
#X connect 73 0 52 0;
#X connect 73 1 52 1;
#X coords 0 -1 1 1 178 146 2 50 150;
