#N canvas 428 116 519 357 12;
#X declare -path /Users/porres/Desktop/Git/Live-Electronics-Tutorial/Examples/Part.04-Control/18-MIDI-CV-OSC/1.MIDI/3.Monophony.Polyphony;
#X declare -path /Users/porres/Desktop/Git/pd-else/Code_source/Abstractions/audio;
#X declare -path else;
#X obj 88 53 inlet;
#X obj 88 259 outlet~;
#N canvas 486 149 540 394 route 0;
#X obj 70 36 inlet;
#X obj 242 182 else/insert all;
#X obj 242 292 outlet;
#N canvas 318 55 978 592 init 0;
#X obj 128 411 list;
#X obj 128 189 route bang;
#X obj 195 225 else/slice 2;
#X obj 329 327 s \$0-n;
#X obj 262 295 unpack s f;
#X obj 58 16 inlet;
#X obj 58 83 list;
#X obj 252 352 r \$0-n;
#X obj 29 277 r \$0-load;
#X obj 128 384 else/pack2 synth.voice.template 1 \$0;
#X obj 128 105 else/args -;
#X obj 195 255 else/swap2;
#X obj 19 429 route bang;
#N canvas 107 74 450 371 route 0;
#X obj 94 115 route bang;
#X obj 161 140 t a b;
#X obj 94 208 s \$0-mc;
#X msg 94 177 1;
#X obj 94 69 route -mc;
#X obj 225 69 route -v;
#X obj 225 228 s \$0-n;
#X obj 279 177 else/swap2;
#X obj 279 147 else/slice 1;
#X obj 225 115 route float list;
#X obj 94 29 inlet;
#X obj 279 294 outlet;
#X obj 62 146 t b b;
#X connect 0 0 12 0;
#X connect 0 1 1 0;
#X connect 1 0 4 0;
#X connect 1 1 3 0;
#X connect 3 0 2 0;
#X connect 4 0 0 0;
#X connect 4 1 5 0;
#X connect 5 0 9 0;
#X connect 5 1 11 0;
#X connect 7 0 4 0;
#X connect 7 1 6 0;
#X connect 8 0 7 0;
#X connect 8 1 7 1;
#X connect 9 0 6 0;
#X connect 9 1 8 0;
#X connect 10 0 4 0;
#X connect 12 0 4 0;
#X connect 12 1 3 0;
#X restore 128 139 pd route;
#X obj 32 478 s \$0-args;
#X msg 128 440 \; pd-\$3-clone clear \, obj 100 50 inlet \, obj 100 100 clone -do \$1 \$2 \, obj 100 150 outlet~ \, connect 0 0 1 0 \, connect 1 0 2 0 \; pd-\$3-guts connect 0 0 1 0 \, connect 1 0 2 0 \; pd-\$1.pd loadbang, f 45;
#X obj 425 153 pdcontrol;
#X msg 425 120 dir 1;
#X obj 128 55 else/loadbanger 2;
#X obj 425 213 pdcontrol;
#X msg 425 181 sendcanvas obj 425 250 declare -path \$1;
#X obj 425 250 declare -path /Users/porres/Desktop/Git/Live-Electronics-Tutorial/Examples/Part.04-Control/18-MIDI-CV-OSC/1.MIDI/3.Monophony.Polyphony;
#X obj 425 250 declare -path /Users/porres/Desktop/Git/pd-else/Code_source/Abstractions/audio;
#X connect 0 0 15 0;
#X connect 1 0 9 0;
#X connect 1 1 2 0;
#X connect 2 0 11 0;
#X connect 2 1 11 1;
#X connect 4 0 9 0;
#X connect 4 1 3 0;
#X connect 5 0 6 0;
#X connect 6 0 1 0;
#X connect 7 0 9 1;
#X connect 8 0 9 0;
#X connect 9 0 0 0;
#X connect 10 0 13 0;
#X connect 11 0 12 0;
#X connect 11 1 4 0;
#X connect 12 1 14 0;
#X connect 13 0 1 0;
#X connect 16 0 20 0;
#X connect 17 0 16 0;
#X connect 18 0 10 0;
#X connect 18 1 17 0;
#X connect 20 0 19 0;
#X restore 156 118 pd init;
#X msg 166 182 resize \$1;
#N canvas 162 215 473 409 mono-poly 0;
#X obj 96 50 inlet;
#X obj 213 348 outlet;
#X obj 213 50 inlet;
#X obj 96 192 else/router;
#X obj 96 233 else/mono;
#X msg 213 136 voices \$1;
#X obj 230 93 r \$0-n;
#X obj 170 136 > 1;
#X obj 96 267 pack;
#X obj 96 296 list prepend 0;
#X msg 309 186 rel \$1;
#X obj 309 154 r \$0-rel;
#X obj 213 253 else/voices 1 1;
#X connect 0 0 3 0;
#X connect 2 0 5 0;
#X connect 2 0 7 0;
#X connect 3 0 4 0;
#X connect 3 1 12 0;
#X connect 4 0 8 0;
#X connect 4 1 8 1;
#X connect 5 0 12 0;
#X connect 6 0 5 0;
#X connect 6 0 7 0;
#X connect 7 0 3 1;
#X connect 8 0 9 0;
#X connect 9 0 1 0;
#X connect 10 0 12 0;
#X connect 11 0 10 0;
#X connect 12 0 1 0;
#X restore 70 182 pd mono-poly;
#X obj 367 131 r \$0-mc;
#X obj 367 230 s \$0-sum;
#X msg 367 194 sum \$1;
#X obj 367 162 == 0;
#X obj 70 82 route list voices load mc;
#N canvas 293 23 726 666 click 0;
#X obj 72 193 else/click;
#X msg 90 276 vis 0 1;
#X obj 90 610 outlet;
#X obj 132 45 keyname;
#X obj 199 70 sel Shift_L;
#X obj 290 70 sel Shift_R;
#X obj 288 194 openpanel;
#X obj 288 258 file split;
#X obj 288 289 else/slice -1;
#X obj 376 353 else/canvas.file 1;
#X obj 288 225 trigger symbol symbol, f 42;
#X obj 376 320 trigger symbol symbol;
#X obj 481 428 symbol;
#X obj 540 428 symbol;
#X obj 540 551 s \$0-load;
#X obj 540 390 bng 19 250 50 0 empty empty empty 0 -10 0 12 #fcfcfc #000000 #000000;
#X obj 481 390 bng 19 250 50 0 empty empty empty 0 -10 0 12 #fcfcfc #000000 #000000;
#X obj 540 469 file splitext;
#X msg 540 518 symbol \$1;
#X obj 90 238 else/router;
#X msg 199 116 1;
#X msg 364 110 0;
#X obj 237 162 ||;
#X obj 199 33 t s s;
#X msg 237 117 0;
#X msg 290 115 1;
#X obj 132 92 sel 1;
#X msg 164 118 0;
#X obj 132 149 f;
#X obj 164 204 change;
#X msg 210 256 0;
#X connect 0 0 19 0;
#X connect 1 0 2 0;
#X connect 3 0 26 0;
#X connect 3 1 23 0;
#X connect 4 0 20 0;
#X connect 4 1 24 0;
#X connect 5 0 25 0;
#X connect 5 1 21 0;
#X connect 6 0 10 0;
#X connect 7 0 8 0;
#X connect 8 1 11 0;
#X connect 9 0 16 0;
#X connect 9 1 15 0;
#X connect 10 0 7 0;
#X connect 10 1 13 1;
#X connect 11 0 9 0;
#X connect 11 1 12 1;
#X connect 12 0 17 0;
#X connect 13 0 17 0;
#X connect 15 0 13 0;
#X connect 16 0 12 0;
#X connect 17 0 18 0;
#X connect 18 0 14 0;
#X connect 19 0 1 0;
#X connect 19 1 6 0;
#X connect 19 1 30 0;
#X connect 20 0 22 0;
#X connect 21 0 22 1;
#X connect 22 0 28 1;
#X connect 23 0 4 0;
#X connect 23 1 5 0;
#X connect 24 0 22 0;
#X connect 25 0 22 1;
#X connect 26 0 28 0;
#X connect 26 1 27 0;
#X connect 27 0 29 0;
#X connect 28 0 29 0;
#X connect 29 0 19 1;
#X connect 30 0 29 0;
#X restore 265 245 pd click;
#X connect 0 0 10 0;
#X connect 1 0 2 0;
#X connect 4 0 2 0;
#X connect 5 0 2 0;
#X connect 6 0 9 0;
#X connect 8 0 7 0;
#X connect 9 0 8 0;
#X connect 10 0 5 0;
#X connect 10 1 4 0;
#X connect 10 1 5 1;
#X connect 10 2 3 0;
#X connect 10 3 9 0;
#X connect 10 4 1 0;
#X connect 11 0 2 0;
#X restore 88 107 pd route;
#N canvas 256 326 391 227 \$0-guts 0;
#X obj 129 59 inlet;
#N canvas 119 299 450 300 \$0-clone 0;
#X obj 100 50 inlet;
#X obj 100 100 clone -do synth.voice.template 1;
#X obj 100 150 outlet~;
#X connect 0 0 1 0;
#X connect 1 0 2 0;
#X restore 129 102 pd \$0-clone;
#X obj 129 146 outlet~;
#X connect 0 0 1 0;
#X connect 1 0 2 0;
#X restore 88 147 pd \$0-guts;
#X text 229 185 Part of ELSE \; https://github.com/porres/pd-else;
#X obj 271 127 declare -path else;
#X text 231 166 Alexandre Torres Porres (2023);
#X obj 88 218 else/sum~;
#X obj 103 188 r \$0-sum;
#X connect 0 0 2 0;
#X connect 2 0 3 0;
#X connect 3 0 7 0;
#X connect 7 0 1 0;
#X connect 8 0 7 0;
