#N canvas 401 23 494 662 12;
#X obj 68 362 t b l;
#X obj 100 410 unpack;
#X obj 60 402 list;
#X obj 60 504 t l l;
#X obj 186 303 until;
#X msg 186 331 0;
#X obj 100 440 + 1;
#X obj 282 349 t b l;
#X obj 322 388 unpack;
#X obj 282 419 list;
#X obj 282 480 t l l;
#X obj 322 418 + 1;
#X obj 282 621 outlet~;
#X obj 186 621 outlet~;
#X obj 68 16 inlet;
#X obj 203 121 f \$1;
#X obj 203 95 loadbang;
#X obj 186 147 max 1;
#X msg 87 188 voices \$1;
#X obj 186 69 route voices;
#X obj 68 222 else/voices 1 1;
#X obj 68 338 else/slice 2;
#X obj 282 316 else/delete 1;
#X obj 282 450 else/replace;
#X obj 282 548 else/f2s~;
#X obj 186 548 else/f2s~;
#X obj 60 472 else/replace;
#X obj 186 181 t f f;
#X obj 186 359 else/group;
#X obj 282 585 /~ 127;
#X obj 339 30 inlet;
#X connect 0 0 2 0;
#X connect 0 1 1 0;
#X connect 1 0 6 0;
#X connect 1 1 26 2;
#X connect 2 0 26 0;
#X connect 3 0 25 0;
#X connect 3 1 2 1;
#X connect 4 0 5 0;
#X connect 5 0 28 0;
#X connect 6 0 26 1;
#X connect 7 0 9 0;
#X connect 7 1 8 0;
#X connect 8 0 11 0;
#X connect 8 1 23 2;
#X connect 9 0 23 0;
#X connect 10 0 24 0;
#X connect 10 1 9 1;
#X connect 11 0 23 1;
#X connect 14 0 20 0;
#X connect 14 0 19 0;
#X connect 15 0 17 0;
#X connect 16 0 15 0;
#X connect 17 0 18 0;
#X connect 17 0 27 0;
#X connect 18 0 20 0;
#X connect 19 0 17 0;
#X connect 20 0 21 0;
#X connect 20 0 22 0;
#X connect 21 0 0 0;
#X connect 22 0 7 0;
#X connect 23 0 10 0;
#X connect 24 0 29 0;
#X connect 25 0 13 0;
#X connect 26 0 3 0;
#X connect 27 0 4 0;
#X connect 27 1 28 1;
#X connect 28 0 2 1;
#X connect 28 0 9 1;
#X connect 28 0 25 0;
#X connect 28 0 24 0;
#X connect 29 0 12 0;
#X connect 30 0 20 1;
