#N canvas 485 66 450 300 10;
#X declare -lib pdlua;
#X obj 98 174 dispatchertest;
#X floatatom 98 42 5 0 0 0 - - - 0;
#X symbolatom 144 75 10 0 0 0 - - - 0;
#X msg 191 110 a b c 1 2 3;
#X obj 280 176 declare -lib pdlua;
#X connect 1 0 0 0;
#X connect 2 0 0 1;
#X connect 3 0 0 2;
