#N canvas 851 158 512 415 10;
#X text 79 62 set-tuning: bank/program (default 0 0);
#X text 57 234 select-tuning <f \, f \, f>: selects a tuning bank and
program to a given channel.;
#X text 59 158 Scale: sets a scale for the set bank/program (and also
channel?) -;
#X text 132 307 STRETCH???? sets scale step...;
#X text 139 346 a4 <float> - set hz;
#X text 59 112 base: needs t be set before the actual scale \, or a
2nd argument <1> updates the scale, f 64;
#X text 58 194 set-scale: sets a scale for the set bank/program (and
also channel?) -;
