#N canvas 335 40 867 491 12;
#X declare -path else;
#X obj 233 348 vsl 16 80 0 1 0 0 empty empty empty 0 -9 0 10 #dcdcdc #000000 #000000 0 1;
#X obj 115 321 *~;
#X obj 49 277 osc~ 440;
#X obj 115 370 out~;
#X obj 133 201 tgl 20 0 empty empty empty 17 7 0 10 #dcdcdc #000000 #000000 0 1;
#X text 156 201 gate;
#X obj 432 242 bng 20 250 50 0 empty empty empty 17 7 0 10 #dcdcdc #000000 #000000;
#X text 687 177 1;
#X obj 321 296 *~;
#X obj 321 373 out~;
#X text 686 273 0;
#X obj 321 227 nbx 5 16 -1e+37 1e+37 0 0 empty empty empty 0 -8 0 12 #dfdfdf #000000 #000000 0 256;
#X obj 432 381 vsl 16 80 0 1 0 0 empty empty empty 0 -9 0 10 #dcdcdc #000000 #000000 0 1;
#X text 691 224 <= envelope;
#X obj 321 198 initmess 200;
#X obj 478 150 initmess 0 200 1 200 0.6 400 0.6 200 1 200 0;
#X obj 321 260 bl.tri~;
#X obj 432 322 envgen~;
#X text 402 72 You can also use [function] to generate breakpoints functions for [envgen~]. Below we also have an attack before the release., f 52;
#X obj 432 354 s2f~;
#X obj 233 322 s2f~;
#X obj 642 30 declare -path else;
#X obj 478 183 function 200 100 empty empty 0 1 220 220 220 50 50 50 0 0 0 0 0 200 1 200 0.6 400 0.6 200 1 200 0;
#X text 532 386 Check the help file of [envgen~] and [function] for more details., f 32;
#X obj 494 295 display;
#X text 78 74 The [envgen~] object can be used for more complex and custom envelope types. Below we have an example where there's the release is preceded by another attack., f 42;
#X obj 133 230 envgen~ -suspoint 2 50 1 50 0.5 200 1 100 0, f 11;
#X connect 1 0 3 0;
#X connect 2 0 1 0;
#X connect 4 0 26 0;
#X connect 6 0 17 0;
#X connect 8 0 9 0;
#X connect 11 0 16 0;
#X connect 14 0 11 0;
#X connect 15 0 22 0;
#X connect 16 0 8 0;
#X connect 17 0 8 1;
#X connect 17 0 19 0;
#X connect 19 0 12 0;
#X connect 20 0 0 0;
#X connect 22 0 24 0;
#X connect 22 0 17 0;
#X connect 26 0 1 1;
#X connect 26 0 20 0;
