#N canvas 618 38 512 427 12;
#X declare -path else;
#X obj 274 24 declare -path else;
#X text 35 63 The idea here is to again stress that you can use these objects to control whatever you want besides amplitude.;
#X obj 254 189 tgl 20 0 empty empty empty 17 7 0 10 #dcdcdc #000000 #000000 0 127;
#X obj 117 262 rotate~, f 20;
#X obj 185 210 osc~ 440;
#X obj 117 211 osc~ 330;
#X obj 139 320 out~;
#X obj 254 219 adsr~ -lin 1500 0 1 1000;
#X text 35 102 Here we're using [adsr~] to linearly control the rotation parameter of [rotate~] with just the attack and release stages., f 55;
#X connect 2 0 7 0;
#X connect 3 0 6 0;
#X connect 3 1 6 1;
#X connect 4 0 3 1;
#X connect 5 0 3 0;
#X connect 7 0 3 2;
